G75*
%MOIN*%
%OFA0B0*%
%FSLAX24Y24*%
%IPPOS*%
%LPD*%
%AMOC8*
5,1,8,0,0,1.08239X$1,22.5*
%
%ADD10C,0.0197*%
%ADD11R,0.0290X0.0320*%
%ADD12R,0.0158X0.0315*%
%ADD13R,0.0315X0.0158*%
%ADD14R,0.0650X0.0650*%
%ADD15R,0.0162X0.0620*%
%ADD16R,0.0320X0.0290*%
%ADD17R,0.0370X0.0440*%
%ADD18OC8,0.0500*%
%ADD19C,0.0054*%
%ADD20C,0.0035*%
%ADD21R,0.0492X0.0335*%
D10*
X002031Y004824D02*
X002033Y004843D01*
X002038Y004862D01*
X002048Y004878D01*
X002060Y004893D01*
X002075Y004905D01*
X002091Y004915D01*
X002110Y004920D01*
X002129Y004922D01*
X002148Y004920D01*
X002167Y004915D01*
X002183Y004905D01*
X002198Y004893D01*
X002210Y004878D01*
X002220Y004862D01*
X002225Y004843D01*
X002227Y004824D01*
X002225Y004805D01*
X002220Y004786D01*
X002210Y004770D01*
X002198Y004755D01*
X002183Y004743D01*
X002167Y004733D01*
X002148Y004728D01*
X002129Y004726D01*
X002110Y004728D01*
X002091Y004733D01*
X002075Y004743D01*
X002060Y004755D01*
X002048Y004770D01*
X002038Y004786D01*
X002033Y004805D01*
X002031Y004824D01*
X028408Y032777D02*
X028410Y032796D01*
X028415Y032815D01*
X028425Y032831D01*
X028437Y032846D01*
X028452Y032858D01*
X028468Y032868D01*
X028487Y032873D01*
X028506Y032875D01*
X028525Y032873D01*
X028544Y032868D01*
X028560Y032858D01*
X028575Y032846D01*
X028587Y032831D01*
X028597Y032815D01*
X028602Y032796D01*
X028604Y032777D01*
X028602Y032758D01*
X028597Y032739D01*
X028587Y032723D01*
X028575Y032708D01*
X028560Y032696D01*
X028544Y032686D01*
X028525Y032681D01*
X028506Y032679D01*
X028487Y032681D01*
X028468Y032686D01*
X028452Y032696D01*
X028437Y032708D01*
X028425Y032723D01*
X028415Y032739D01*
X028410Y032758D01*
X028408Y032777D01*
X029590Y012698D02*
X029592Y012717D01*
X029597Y012736D01*
X029607Y012752D01*
X029619Y012767D01*
X029634Y012779D01*
X029650Y012789D01*
X029669Y012794D01*
X029688Y012796D01*
X029707Y012794D01*
X029726Y012789D01*
X029742Y012779D01*
X029757Y012767D01*
X029769Y012752D01*
X029779Y012736D01*
X029784Y012717D01*
X029786Y012698D01*
X029784Y012679D01*
X029779Y012660D01*
X029769Y012644D01*
X029757Y012629D01*
X029742Y012617D01*
X029726Y012607D01*
X029707Y012602D01*
X029688Y012600D01*
X029669Y012602D01*
X029650Y012607D01*
X029634Y012617D01*
X029619Y012629D01*
X029607Y012644D01*
X029597Y012660D01*
X029592Y012679D01*
X029590Y012698D01*
D11*
G36*
X027688Y011260D02*
X027959Y011161D01*
X027850Y010862D01*
X027579Y010961D01*
X027688Y011260D01*
G37*
G36*
X027294Y011404D02*
X027565Y011305D01*
X027456Y011006D01*
X027185Y011105D01*
X027294Y011404D01*
G37*
X029179Y008609D03*
X029599Y008609D03*
X027575Y005120D03*
X027155Y005120D03*
X026630Y005002D03*
X026210Y005002D03*
X025756Y005006D03*
X025336Y005006D03*
G36*
X023531Y006731D02*
X023654Y006469D01*
X023365Y006333D01*
X023242Y006595D01*
X023531Y006731D01*
G37*
G36*
X023354Y007112D02*
X023477Y006850D01*
X023188Y006714D01*
X023065Y006976D01*
X023354Y007112D01*
G37*
X019599Y008609D03*
X019179Y008609D03*
G36*
X017688Y011260D02*
X017959Y011161D01*
X017850Y010862D01*
X017579Y010961D01*
X017688Y011260D01*
G37*
G36*
X017294Y011404D02*
X017565Y011305D01*
X017456Y011006D01*
X017185Y011105D01*
X017294Y011404D01*
G37*
X016630Y015002D03*
X016210Y015002D03*
X015756Y015006D03*
X015336Y015006D03*
X017155Y015120D03*
X017575Y015120D03*
X019179Y018609D03*
X019599Y018609D03*
G36*
X017688Y021260D02*
X017959Y021161D01*
X017850Y020862D01*
X017579Y020961D01*
X017688Y021260D01*
G37*
G36*
X017294Y021404D02*
X017565Y021305D01*
X017456Y021006D01*
X017185Y021105D01*
X017294Y021404D01*
G37*
X016630Y025002D03*
X016210Y025002D03*
X015756Y025006D03*
X015336Y025006D03*
X017155Y025120D03*
X017575Y025120D03*
X019179Y028609D03*
X019599Y028609D03*
G36*
X017688Y031260D02*
X017959Y031161D01*
X017850Y030862D01*
X017579Y030961D01*
X017688Y031260D01*
G37*
G36*
X017294Y031404D02*
X017565Y031305D01*
X017456Y031006D01*
X017185Y031105D01*
X017294Y031404D01*
G37*
G36*
X013354Y027112D02*
X013477Y026850D01*
X013188Y026714D01*
X013065Y026976D01*
X013354Y027112D01*
G37*
G36*
X013531Y026731D02*
X013654Y026469D01*
X013365Y026333D01*
X013242Y026595D01*
X013531Y026731D01*
G37*
X009599Y028609D03*
X009179Y028609D03*
G36*
X007688Y031260D02*
X007959Y031161D01*
X007850Y030862D01*
X007579Y030961D01*
X007688Y031260D01*
G37*
G36*
X007294Y031404D02*
X007565Y031305D01*
X007456Y031006D01*
X007185Y031105D01*
X007294Y031404D01*
G37*
G36*
X003354Y027112D02*
X003477Y026850D01*
X003188Y026714D01*
X003065Y026976D01*
X003354Y027112D01*
G37*
G36*
X003531Y026731D02*
X003654Y026469D01*
X003365Y026333D01*
X003242Y026595D01*
X003531Y026731D01*
G37*
X005336Y025006D03*
X005756Y025006D03*
X006210Y025002D03*
X006630Y025002D03*
X007155Y025120D03*
X007575Y025120D03*
G36*
X007294Y021404D02*
X007565Y021305D01*
X007456Y021006D01*
X007185Y021105D01*
X007294Y021404D01*
G37*
G36*
X007688Y021260D02*
X007959Y021161D01*
X007850Y020862D01*
X007579Y020961D01*
X007688Y021260D01*
G37*
X009179Y018609D03*
X009599Y018609D03*
X007575Y015120D03*
X007155Y015120D03*
X006630Y015002D03*
X006210Y015002D03*
X005756Y015006D03*
X005336Y015006D03*
G36*
X003531Y016731D02*
X003654Y016469D01*
X003365Y016333D01*
X003242Y016595D01*
X003531Y016731D01*
G37*
G36*
X003354Y017112D02*
X003477Y016850D01*
X003188Y016714D01*
X003065Y016976D01*
X003354Y017112D01*
G37*
G36*
X007294Y011404D02*
X007565Y011305D01*
X007456Y011006D01*
X007185Y011105D01*
X007294Y011404D01*
G37*
G36*
X007688Y011260D02*
X007959Y011161D01*
X007850Y010862D01*
X007579Y010961D01*
X007688Y011260D01*
G37*
X009179Y008609D03*
X009599Y008609D03*
X007575Y005120D03*
X007155Y005120D03*
X006630Y005002D03*
X006210Y005002D03*
X005756Y005006D03*
X005336Y005006D03*
G36*
X003531Y006731D02*
X003654Y006469D01*
X003365Y006333D01*
X003242Y006595D01*
X003531Y006731D01*
G37*
G36*
X003354Y007112D02*
X003477Y006850D01*
X003188Y006714D01*
X003065Y006976D01*
X003354Y007112D01*
G37*
G36*
X013354Y007112D02*
X013477Y006850D01*
X013188Y006714D01*
X013065Y006976D01*
X013354Y007112D01*
G37*
G36*
X013531Y006731D02*
X013654Y006469D01*
X013365Y006333D01*
X013242Y006595D01*
X013531Y006731D01*
G37*
X015336Y005006D03*
X015756Y005006D03*
X016210Y005002D03*
X016630Y005002D03*
X017155Y005120D03*
X017575Y005120D03*
X025336Y015006D03*
X025756Y015006D03*
X026210Y015002D03*
X026630Y015002D03*
X027155Y015120D03*
X027575Y015120D03*
X029179Y018609D03*
X029599Y018609D03*
G36*
X027688Y021260D02*
X027959Y021161D01*
X027850Y020862D01*
X027579Y020961D01*
X027688Y021260D01*
G37*
G36*
X027294Y021404D02*
X027565Y021305D01*
X027456Y021006D01*
X027185Y021105D01*
X027294Y021404D01*
G37*
X026630Y025002D03*
X026210Y025002D03*
X025756Y025006D03*
X025336Y025006D03*
G36*
X023531Y026731D02*
X023654Y026469D01*
X023365Y026333D01*
X023242Y026595D01*
X023531Y026731D01*
G37*
G36*
X023354Y027112D02*
X023477Y026850D01*
X023188Y026714D01*
X023065Y026976D01*
X023354Y027112D01*
G37*
X027155Y025120D03*
X027575Y025120D03*
X029179Y028609D03*
X029599Y028609D03*
G36*
X027688Y031260D02*
X027959Y031161D01*
X027850Y030862D01*
X027579Y030961D01*
X027688Y031260D01*
G37*
G36*
X027294Y031404D02*
X027565Y031305D01*
X027456Y031006D01*
X027185Y031105D01*
X027294Y031404D01*
G37*
G36*
X023354Y017112D02*
X023477Y016850D01*
X023188Y016714D01*
X023065Y016976D01*
X023354Y017112D01*
G37*
G36*
X023531Y016731D02*
X023654Y016469D01*
X023365Y016333D01*
X023242Y016595D01*
X023531Y016731D01*
G37*
G36*
X013531Y016731D02*
X013654Y016469D01*
X013365Y016333D01*
X013242Y016595D01*
X013531Y016731D01*
G37*
G36*
X013354Y017112D02*
X013477Y016850D01*
X013188Y016714D01*
X013065Y016976D01*
X013354Y017112D01*
G37*
D12*
X008884Y016605D03*
X008628Y016605D03*
X008372Y016605D03*
X008116Y016605D03*
X008116Y018082D03*
X008372Y018082D03*
X008628Y018082D03*
X008884Y018082D03*
X008884Y026605D03*
X008628Y026605D03*
X008372Y026605D03*
X008116Y026605D03*
X008116Y028082D03*
X008372Y028082D03*
X008628Y028082D03*
X008884Y028082D03*
X018116Y028082D03*
X018372Y028082D03*
X018628Y028082D03*
X018884Y028082D03*
X018884Y026605D03*
X018628Y026605D03*
X018372Y026605D03*
X018116Y026605D03*
X018116Y018082D03*
X018372Y018082D03*
X018628Y018082D03*
X018884Y018082D03*
X018884Y016605D03*
X018628Y016605D03*
X018372Y016605D03*
X018116Y016605D03*
X018116Y008082D03*
X018372Y008082D03*
X018628Y008082D03*
X018884Y008082D03*
X018884Y006605D03*
X018628Y006605D03*
X018372Y006605D03*
X018116Y006605D03*
X008884Y006605D03*
X008628Y006605D03*
X008372Y006605D03*
X008116Y006605D03*
X008116Y008082D03*
X008372Y008082D03*
X008628Y008082D03*
X008884Y008082D03*
X028116Y008082D03*
X028372Y008082D03*
X028628Y008082D03*
X028884Y008082D03*
X028884Y006605D03*
X028628Y006605D03*
X028372Y006605D03*
X028116Y006605D03*
X028116Y016605D03*
X028372Y016605D03*
X028628Y016605D03*
X028884Y016605D03*
X028884Y018082D03*
X028628Y018082D03*
X028372Y018082D03*
X028116Y018082D03*
X028116Y026605D03*
X028372Y026605D03*
X028628Y026605D03*
X028884Y026605D03*
X028884Y028082D03*
X028628Y028082D03*
X028372Y028082D03*
X028116Y028082D03*
D13*
X027762Y027727D03*
X027762Y027471D03*
X027762Y027216D03*
X027762Y026960D03*
X029238Y026960D03*
X029238Y027216D03*
X029238Y027471D03*
X029238Y027727D03*
X029238Y017727D03*
X029238Y017471D03*
X029238Y017216D03*
X029238Y016960D03*
X027762Y016960D03*
X027762Y017216D03*
X027762Y017471D03*
X027762Y017727D03*
X019238Y017727D03*
X019238Y017471D03*
X019238Y017216D03*
X019238Y016960D03*
X017762Y016960D03*
X017762Y017216D03*
X017762Y017471D03*
X017762Y017727D03*
X009238Y017727D03*
X009238Y017471D03*
X009238Y017216D03*
X009238Y016960D03*
X007762Y016960D03*
X007762Y017216D03*
X007762Y017471D03*
X007762Y017727D03*
X007762Y026960D03*
X007762Y027216D03*
X007762Y027471D03*
X007762Y027727D03*
X009238Y027727D03*
X009238Y027471D03*
X009238Y027216D03*
X009238Y026960D03*
X017762Y026960D03*
X017762Y027216D03*
X017762Y027471D03*
X017762Y027727D03*
X019238Y027727D03*
X019238Y027471D03*
X019238Y027216D03*
X019238Y026960D03*
X019238Y007727D03*
X019238Y007471D03*
X019238Y007216D03*
X019238Y006960D03*
X017762Y006960D03*
X017762Y007216D03*
X017762Y007471D03*
X017762Y007727D03*
X009238Y007727D03*
X009238Y007471D03*
X009238Y007216D03*
X009238Y006960D03*
X007762Y006960D03*
X007762Y007216D03*
X007762Y007471D03*
X007762Y007727D03*
X027762Y007727D03*
X027762Y007471D03*
X027762Y007216D03*
X027762Y006960D03*
X029238Y006960D03*
X029238Y007216D03*
X029238Y007471D03*
X029238Y007727D03*
D14*
X028500Y007343D03*
X028500Y017343D03*
X028500Y027343D03*
X018500Y027343D03*
X018500Y017343D03*
X018500Y007343D03*
X008500Y007343D03*
X008500Y017343D03*
X008500Y027343D03*
D15*
X007084Y027524D03*
X006834Y027524D03*
X006584Y027524D03*
X006334Y027524D03*
X006084Y027524D03*
X005834Y027524D03*
X005834Y028424D03*
X006084Y028424D03*
X006334Y028424D03*
X006584Y028424D03*
X006834Y028424D03*
X007084Y028424D03*
X015834Y028424D03*
X016084Y028424D03*
X016334Y028424D03*
X016584Y028424D03*
X016834Y028424D03*
X017084Y028424D03*
X017084Y027524D03*
X016834Y027524D03*
X016584Y027524D03*
X016334Y027524D03*
X016084Y027524D03*
X015834Y027524D03*
X015834Y018424D03*
X016084Y018424D03*
X016334Y018424D03*
X016584Y018424D03*
X016834Y018424D03*
X017084Y018424D03*
X017084Y017524D03*
X016834Y017524D03*
X016584Y017524D03*
X016334Y017524D03*
X016084Y017524D03*
X015834Y017524D03*
X015834Y008424D03*
X016084Y008424D03*
X016334Y008424D03*
X016584Y008424D03*
X016834Y008424D03*
X017084Y008424D03*
X017084Y007524D03*
X016834Y007524D03*
X016584Y007524D03*
X016334Y007524D03*
X016084Y007524D03*
X015834Y007524D03*
X007084Y007524D03*
X006834Y007524D03*
X006584Y007524D03*
X006334Y007524D03*
X006084Y007524D03*
X005834Y007524D03*
X005834Y008424D03*
X006084Y008424D03*
X006334Y008424D03*
X006584Y008424D03*
X006834Y008424D03*
X007084Y008424D03*
X007084Y017524D03*
X006834Y017524D03*
X006584Y017524D03*
X006334Y017524D03*
X006084Y017524D03*
X005834Y017524D03*
X005834Y018424D03*
X006084Y018424D03*
X006334Y018424D03*
X006584Y018424D03*
X006834Y018424D03*
X007084Y018424D03*
X025834Y018424D03*
X026084Y018424D03*
X026334Y018424D03*
X026584Y018424D03*
X026834Y018424D03*
X027084Y018424D03*
X027084Y017524D03*
X026834Y017524D03*
X026584Y017524D03*
X026334Y017524D03*
X026084Y017524D03*
X025834Y017524D03*
X025834Y008424D03*
X026084Y008424D03*
X026334Y008424D03*
X026584Y008424D03*
X026834Y008424D03*
X027084Y008424D03*
X027084Y007524D03*
X026834Y007524D03*
X026584Y007524D03*
X026334Y007524D03*
X026084Y007524D03*
X025834Y007524D03*
X025834Y027524D03*
X026084Y027524D03*
X026334Y027524D03*
X026584Y027524D03*
X026834Y027524D03*
X027084Y027524D03*
X027084Y028424D03*
X026834Y028424D03*
X026584Y028424D03*
X026334Y028424D03*
X026084Y028424D03*
X025834Y028424D03*
D16*
X025285Y028181D03*
X025285Y027761D03*
X027964Y026144D03*
X027964Y025724D03*
X028518Y025732D03*
X028518Y026152D03*
X029059Y026148D03*
X029059Y025728D03*
X025285Y018181D03*
X025285Y017761D03*
X027964Y016144D03*
X027964Y015724D03*
X028518Y015732D03*
X028518Y016152D03*
X029059Y016148D03*
X029059Y015728D03*
X025285Y008181D03*
X025285Y007761D03*
X027964Y006144D03*
X027964Y005724D03*
X028518Y005732D03*
X028518Y006152D03*
X029059Y006148D03*
X029059Y005728D03*
X019059Y005728D03*
X019059Y006148D03*
X018518Y006152D03*
X018518Y005732D03*
X017964Y005724D03*
X017964Y006144D03*
X015285Y007761D03*
X015285Y008181D03*
X009059Y006148D03*
X009059Y005728D03*
X008518Y005732D03*
X008518Y006152D03*
X007964Y006144D03*
X007964Y005724D03*
X005285Y007761D03*
X005285Y008181D03*
X007964Y015724D03*
X008518Y015732D03*
X008518Y016152D03*
X007964Y016144D03*
X009059Y016148D03*
X009059Y015728D03*
X005285Y017761D03*
X005285Y018181D03*
X007964Y025724D03*
X008518Y025732D03*
X008518Y026152D03*
X007964Y026144D03*
X009059Y026148D03*
X009059Y025728D03*
X005285Y027761D03*
X005285Y028181D03*
X015285Y028181D03*
X015285Y027761D03*
X017964Y026144D03*
X017964Y025724D03*
X018518Y025732D03*
X019059Y025728D03*
X019059Y026148D03*
X018518Y026152D03*
X015285Y018181D03*
X015285Y017761D03*
X017964Y016144D03*
X017964Y015724D03*
X018518Y015732D03*
X019059Y015728D03*
X019059Y016148D03*
X018518Y016152D03*
D17*
X016139Y019903D03*
X015459Y019903D03*
X006139Y019903D03*
X005459Y019903D03*
X005459Y009903D03*
X006139Y009903D03*
X015459Y009903D03*
X016139Y009903D03*
X025459Y009903D03*
X026139Y009903D03*
X026139Y019903D03*
X025459Y019903D03*
X025459Y029903D03*
X026139Y029903D03*
X016139Y029903D03*
X015459Y029903D03*
X006139Y029903D03*
X005459Y029903D03*
D18*
X005379Y030674D03*
X004479Y030224D03*
X006279Y031124D03*
X014479Y030224D03*
X015379Y030674D03*
X016279Y031124D03*
X024479Y030224D03*
X025379Y030674D03*
X026279Y031124D03*
X026279Y021124D03*
X025379Y020674D03*
X024479Y020224D03*
X016279Y021124D03*
X015379Y020674D03*
X014479Y020224D03*
X006279Y021124D03*
X005379Y020674D03*
X004479Y020224D03*
X006279Y011124D03*
X005379Y010674D03*
X004479Y010224D03*
X014479Y010224D03*
X015379Y010674D03*
X016279Y011124D03*
X024479Y010224D03*
X025379Y010674D03*
X026279Y011124D03*
D19*
X023989Y009504D02*
X024166Y009071D01*
X023753Y009366D01*
X024107Y008874D01*
X023989Y009504D01*
X023753Y009366D02*
X023497Y009130D01*
X024166Y009071D01*
X024107Y008874D01*
X023497Y009130D01*
X024107Y018874D02*
X023753Y019366D01*
X023497Y019130D01*
X024166Y019071D01*
X023753Y019366D01*
X023989Y019504D02*
X024166Y019071D01*
X024107Y018874D01*
X023989Y019504D01*
X023497Y019130D02*
X024107Y018874D01*
X024107Y028874D02*
X023753Y029366D01*
X023497Y029130D01*
X024166Y029071D01*
X023753Y029366D01*
X023989Y029504D02*
X024166Y029071D01*
X024107Y028874D01*
X023989Y029504D01*
X023497Y029130D02*
X024107Y028874D01*
X014166Y029071D02*
X014107Y028874D01*
X013753Y029366D01*
X013497Y029130D01*
X014166Y029071D01*
X013753Y029366D01*
X013989Y029504D02*
X014166Y029071D01*
X014107Y028874D02*
X013989Y029504D01*
X013497Y029130D02*
X014107Y028874D01*
X013989Y019504D02*
X014166Y019071D01*
X013753Y019366D01*
X014107Y018874D01*
X013989Y019504D01*
X013753Y019366D02*
X013497Y019130D01*
X014166Y019071D01*
X014107Y018874D01*
X013497Y019130D01*
X013989Y009504D02*
X014166Y009071D01*
X013753Y009366D01*
X014107Y008874D01*
X013989Y009504D01*
X013753Y009366D02*
X013497Y009130D01*
X014166Y009071D01*
X014107Y008874D01*
X013497Y009130D01*
X004166Y009071D02*
X004107Y008874D01*
X003753Y009366D01*
X003497Y009130D01*
X004166Y009071D01*
X003753Y009366D01*
X003989Y009504D02*
X004166Y009071D01*
X004107Y008874D02*
X003989Y009504D01*
X003497Y009130D02*
X004107Y008874D01*
X004107Y018874D02*
X003753Y019366D01*
X003497Y019130D01*
X004166Y019071D01*
X003753Y019366D01*
X003989Y019504D02*
X004166Y019071D01*
X004107Y018874D01*
X003989Y019504D01*
X003497Y019130D02*
X004107Y018874D01*
X004107Y028874D02*
X003753Y029366D01*
X003497Y029130D01*
X004166Y029071D01*
X003753Y029366D01*
X003989Y029504D02*
X004166Y029071D01*
X004107Y028874D01*
X003989Y029504D01*
X003497Y029130D02*
X004107Y028874D01*
D20*
X004154Y028744D02*
X004213Y028744D01*
X004213Y028743D02*
X004224Y028741D01*
X004234Y028736D01*
X004241Y028729D01*
X004246Y028719D01*
X004248Y028708D01*
X004249Y028708D02*
X004249Y028606D01*
X004248Y028606D02*
X004246Y028595D01*
X004241Y028585D01*
X004234Y028578D01*
X004224Y028573D01*
X004213Y028571D01*
X004154Y028571D01*
X004154Y028744D01*
X004091Y028704D02*
X004091Y028657D01*
X004009Y028657D01*
X003997Y028708D02*
X003997Y028606D01*
X003999Y028595D01*
X004004Y028585D01*
X004011Y028578D01*
X004021Y028573D01*
X004032Y028571D01*
X004068Y028571D01*
X004068Y028570D02*
X004073Y028571D01*
X004078Y028574D01*
X004081Y028579D01*
X004082Y028584D01*
X004154Y028569D02*
X004154Y028466D01*
X004320Y028573D02*
X004320Y028852D01*
X004333Y028744D02*
X004379Y028744D01*
X004379Y028743D02*
X004390Y028741D01*
X004400Y028736D01*
X004407Y028729D01*
X004412Y028719D01*
X004414Y028708D01*
X004416Y028571D01*
X004524Y028573D02*
X004459Y028761D01*
X004585Y028761D02*
X004503Y028496D01*
X004501Y028492D02*
X004487Y028472D01*
X004469Y028468D01*
X004459Y028468D01*
X004631Y028580D02*
X004631Y028584D01*
X004631Y028580D02*
X004635Y028574D01*
X004644Y028569D01*
X004652Y028565D01*
X004654Y028565D02*
X004678Y028565D01*
X004689Y028567D01*
X004699Y028572D01*
X004706Y028579D01*
X004711Y028589D01*
X004713Y028600D01*
X004713Y028602D02*
X004713Y028612D01*
X004711Y028622D01*
X004694Y028639D01*
X004662Y028663D01*
X004668Y028659D02*
X004637Y028683D01*
X004629Y028695D01*
X004627Y028704D01*
X004627Y028714D01*
X004627Y028716D02*
X004629Y028727D01*
X004634Y028737D01*
X004641Y028744D01*
X004651Y028749D01*
X004662Y028751D01*
X004662Y028752D02*
X004686Y028752D01*
X004688Y028752D02*
X004696Y028748D01*
X004705Y028742D01*
X004709Y028736D01*
X004709Y028732D01*
X004056Y028744D02*
X004032Y028744D01*
X004032Y028743D02*
X004021Y028741D01*
X004011Y028736D01*
X004004Y028729D01*
X003999Y028719D01*
X003997Y028708D01*
X004056Y028743D02*
X004067Y028741D01*
X004077Y028736D01*
X004084Y028729D01*
X004089Y028719D01*
X004091Y028708D01*
X003855Y028708D02*
X003855Y028571D01*
X003761Y028571D02*
X003761Y028744D01*
X003820Y028744D01*
X003820Y028743D02*
X003831Y028741D01*
X003841Y028736D01*
X003848Y028729D01*
X003853Y028719D01*
X003855Y028708D01*
X003694Y028704D02*
X003694Y028657D01*
X003611Y028657D01*
X003599Y028708D02*
X003599Y028606D01*
X003600Y028606D02*
X003602Y028595D01*
X003607Y028585D01*
X003614Y028578D01*
X003624Y028573D01*
X003635Y028571D01*
X003670Y028571D01*
X003670Y028570D02*
X003675Y028571D01*
X003680Y028574D01*
X003683Y028579D01*
X003684Y028584D01*
X003693Y028708D02*
X003691Y028719D01*
X003686Y028729D01*
X003679Y028736D01*
X003669Y028741D01*
X003658Y028743D01*
X003658Y028744D02*
X003635Y028744D01*
X003635Y028743D02*
X003624Y028741D01*
X003614Y028736D01*
X003607Y028729D01*
X003602Y028719D01*
X003600Y028708D01*
X003534Y028708D02*
X003534Y028606D01*
X003532Y028595D01*
X003527Y028585D01*
X003520Y028578D01*
X003510Y028573D01*
X003499Y028571D01*
X003440Y028571D01*
X003440Y028744D01*
X003499Y028744D01*
X003499Y028743D02*
X003510Y028741D01*
X003520Y028736D01*
X003527Y028729D01*
X003532Y028719D01*
X003534Y028708D01*
X003375Y028708D02*
X003375Y028606D01*
X003374Y028606D02*
X003372Y028595D01*
X003367Y028585D01*
X003360Y028578D01*
X003350Y028573D01*
X003339Y028571D01*
X003316Y028571D01*
X003305Y028573D01*
X003295Y028578D01*
X003288Y028585D01*
X003283Y028595D01*
X003281Y028606D01*
X003280Y028606D02*
X003280Y028708D01*
X003281Y028708D02*
X003283Y028719D01*
X003288Y028729D01*
X003295Y028736D01*
X003305Y028741D01*
X003316Y028743D01*
X003316Y028744D02*
X003339Y028744D01*
X003339Y028743D02*
X003350Y028741D01*
X003360Y028736D01*
X003367Y028729D01*
X003372Y028719D01*
X003374Y028708D01*
X003440Y028569D02*
X003440Y028466D01*
X004320Y018852D02*
X004320Y018573D01*
X004249Y018606D02*
X004249Y018708D01*
X004248Y018708D02*
X004246Y018719D01*
X004241Y018729D01*
X004234Y018736D01*
X004224Y018741D01*
X004213Y018743D01*
X004213Y018744D02*
X004154Y018744D01*
X004154Y018571D01*
X004213Y018571D01*
X004224Y018573D01*
X004234Y018578D01*
X004241Y018585D01*
X004246Y018595D01*
X004248Y018606D01*
X004154Y018569D02*
X004154Y018466D01*
X004068Y018571D02*
X004032Y018571D01*
X004021Y018573D01*
X004011Y018578D01*
X004004Y018585D01*
X003999Y018595D01*
X003997Y018606D01*
X003997Y018708D01*
X003999Y018719D01*
X004004Y018729D01*
X004011Y018736D01*
X004021Y018741D01*
X004032Y018743D01*
X004032Y018744D02*
X004056Y018744D01*
X004056Y018743D02*
X004067Y018741D01*
X004077Y018736D01*
X004084Y018729D01*
X004089Y018719D01*
X004091Y018708D01*
X004091Y018704D02*
X004091Y018657D01*
X004009Y018657D01*
X004082Y018584D02*
X004081Y018579D01*
X004078Y018574D01*
X004073Y018571D01*
X004068Y018570D01*
X003855Y018571D02*
X003855Y018708D01*
X003853Y018719D01*
X003848Y018729D01*
X003841Y018736D01*
X003831Y018741D01*
X003820Y018743D01*
X003820Y018744D02*
X003761Y018744D01*
X003761Y018571D01*
X003670Y018571D02*
X003635Y018571D01*
X003624Y018573D01*
X003614Y018578D01*
X003607Y018585D01*
X003602Y018595D01*
X003600Y018606D01*
X003599Y018606D02*
X003599Y018708D01*
X003600Y018708D02*
X003602Y018719D01*
X003607Y018729D01*
X003614Y018736D01*
X003624Y018741D01*
X003635Y018743D01*
X003635Y018744D02*
X003658Y018744D01*
X003658Y018743D02*
X003669Y018741D01*
X003679Y018736D01*
X003686Y018729D01*
X003691Y018719D01*
X003693Y018708D01*
X003694Y018704D02*
X003694Y018657D01*
X003611Y018657D01*
X003534Y018606D02*
X003534Y018708D01*
X003532Y018719D01*
X003527Y018729D01*
X003520Y018736D01*
X003510Y018741D01*
X003499Y018743D01*
X003499Y018744D02*
X003440Y018744D01*
X003440Y018571D01*
X003499Y018571D01*
X003510Y018573D01*
X003520Y018578D01*
X003527Y018585D01*
X003532Y018595D01*
X003534Y018606D01*
X003440Y018569D02*
X003440Y018466D01*
X003339Y018571D02*
X003316Y018571D01*
X003305Y018573D01*
X003295Y018578D01*
X003288Y018585D01*
X003283Y018595D01*
X003281Y018606D01*
X003280Y018606D02*
X003280Y018708D01*
X003281Y018708D02*
X003283Y018719D01*
X003288Y018729D01*
X003295Y018736D01*
X003305Y018741D01*
X003316Y018743D01*
X003316Y018744D02*
X003339Y018744D01*
X003339Y018743D02*
X003350Y018741D01*
X003360Y018736D01*
X003367Y018729D01*
X003372Y018719D01*
X003374Y018708D01*
X003375Y018708D02*
X003375Y018606D01*
X003374Y018606D02*
X003372Y018595D01*
X003367Y018585D01*
X003360Y018578D01*
X003350Y018573D01*
X003339Y018571D01*
X003670Y018570D02*
X003675Y018571D01*
X003680Y018574D01*
X003683Y018579D01*
X003684Y018584D01*
X004333Y018744D02*
X004379Y018744D01*
X004379Y018743D02*
X004390Y018741D01*
X004400Y018736D01*
X004407Y018729D01*
X004412Y018719D01*
X004414Y018708D01*
X004416Y018571D01*
X004524Y018573D02*
X004459Y018761D01*
X004585Y018761D02*
X004503Y018496D01*
X004501Y018492D02*
X004487Y018472D01*
X004469Y018468D01*
X004459Y018468D01*
X004631Y018580D02*
X004631Y018584D01*
X004631Y018580D02*
X004635Y018574D01*
X004644Y018569D01*
X004652Y018565D01*
X004654Y018565D02*
X004678Y018565D01*
X004689Y018567D01*
X004699Y018572D01*
X004706Y018579D01*
X004711Y018589D01*
X004713Y018600D01*
X004713Y018602D02*
X004713Y018612D01*
X004711Y018622D01*
X004694Y018639D01*
X004662Y018663D01*
X004668Y018659D02*
X004637Y018683D01*
X004629Y018695D01*
X004627Y018704D01*
X004627Y018714D01*
X004627Y018716D02*
X004629Y018727D01*
X004634Y018737D01*
X004641Y018744D01*
X004651Y018749D01*
X004662Y018751D01*
X004662Y018752D02*
X004686Y018752D01*
X004688Y018752D02*
X004696Y018748D01*
X004705Y018742D01*
X004709Y018736D01*
X004709Y018732D01*
X013280Y018708D02*
X013280Y018606D01*
X013281Y018606D02*
X013283Y018595D01*
X013288Y018585D01*
X013295Y018578D01*
X013305Y018573D01*
X013316Y018571D01*
X013339Y018571D01*
X013350Y018573D01*
X013360Y018578D01*
X013367Y018585D01*
X013372Y018595D01*
X013374Y018606D01*
X013375Y018606D02*
X013375Y018708D01*
X013374Y018708D02*
X013372Y018719D01*
X013367Y018729D01*
X013360Y018736D01*
X013350Y018741D01*
X013339Y018743D01*
X013339Y018744D02*
X013316Y018744D01*
X013316Y018743D02*
X013305Y018741D01*
X013295Y018736D01*
X013288Y018729D01*
X013283Y018719D01*
X013281Y018708D01*
X013440Y018744D02*
X013499Y018744D01*
X013499Y018743D02*
X013510Y018741D01*
X013520Y018736D01*
X013527Y018729D01*
X013532Y018719D01*
X013534Y018708D01*
X013534Y018606D01*
X013532Y018595D01*
X013527Y018585D01*
X013520Y018578D01*
X013510Y018573D01*
X013499Y018571D01*
X013440Y018571D01*
X013440Y018744D01*
X013599Y018708D02*
X013599Y018606D01*
X013600Y018606D02*
X013602Y018595D01*
X013607Y018585D01*
X013614Y018578D01*
X013624Y018573D01*
X013635Y018571D01*
X013670Y018571D01*
X013670Y018570D02*
X013675Y018571D01*
X013680Y018574D01*
X013683Y018579D01*
X013684Y018584D01*
X013694Y018657D02*
X013694Y018704D01*
X013693Y018708D02*
X013691Y018719D01*
X013686Y018729D01*
X013679Y018736D01*
X013669Y018741D01*
X013658Y018743D01*
X013658Y018744D02*
X013635Y018744D01*
X013635Y018743D02*
X013624Y018741D01*
X013614Y018736D01*
X013607Y018729D01*
X013602Y018719D01*
X013600Y018708D01*
X013611Y018657D02*
X013694Y018657D01*
X013761Y018744D02*
X013761Y018571D01*
X013855Y018571D02*
X013855Y018708D01*
X013853Y018719D01*
X013848Y018729D01*
X013841Y018736D01*
X013831Y018741D01*
X013820Y018743D01*
X013820Y018744D02*
X013761Y018744D01*
X013997Y018708D02*
X013997Y018606D01*
X013999Y018595D01*
X014004Y018585D01*
X014011Y018578D01*
X014021Y018573D01*
X014032Y018571D01*
X014068Y018571D01*
X014068Y018570D02*
X014073Y018571D01*
X014078Y018574D01*
X014081Y018579D01*
X014082Y018584D01*
X014154Y018571D02*
X014213Y018571D01*
X014224Y018573D01*
X014234Y018578D01*
X014241Y018585D01*
X014246Y018595D01*
X014248Y018606D01*
X014249Y018606D02*
X014249Y018708D01*
X014248Y018708D02*
X014246Y018719D01*
X014241Y018729D01*
X014234Y018736D01*
X014224Y018741D01*
X014213Y018743D01*
X014213Y018744D02*
X014154Y018744D01*
X014154Y018571D01*
X014154Y018569D02*
X014154Y018466D01*
X014320Y018573D02*
X014320Y018852D01*
X014333Y018744D02*
X014379Y018744D01*
X014379Y018743D02*
X014390Y018741D01*
X014400Y018736D01*
X014407Y018729D01*
X014412Y018719D01*
X014414Y018708D01*
X014416Y018571D01*
X014524Y018573D02*
X014459Y018761D01*
X014585Y018761D02*
X014503Y018496D01*
X014501Y018492D02*
X014487Y018472D01*
X014469Y018468D01*
X014459Y018468D01*
X014631Y018580D02*
X014631Y018584D01*
X014631Y018580D02*
X014635Y018574D01*
X014644Y018569D01*
X014652Y018565D01*
X014654Y018565D02*
X014678Y018565D01*
X014689Y018567D01*
X014699Y018572D01*
X014706Y018579D01*
X014711Y018589D01*
X014713Y018600D01*
X014713Y018602D02*
X014713Y018612D01*
X014711Y018622D01*
X014694Y018639D01*
X014662Y018663D01*
X014668Y018659D02*
X014637Y018683D01*
X014629Y018695D01*
X014627Y018704D01*
X014627Y018714D01*
X014627Y018716D02*
X014629Y018727D01*
X014634Y018737D01*
X014641Y018744D01*
X014651Y018749D01*
X014662Y018751D01*
X014662Y018752D02*
X014686Y018752D01*
X014688Y018752D02*
X014696Y018748D01*
X014705Y018742D01*
X014709Y018736D01*
X014709Y018732D01*
X014091Y018704D02*
X014091Y018657D01*
X014009Y018657D01*
X013997Y018708D02*
X013999Y018719D01*
X014004Y018729D01*
X014011Y018736D01*
X014021Y018741D01*
X014032Y018743D01*
X014032Y018744D02*
X014056Y018744D01*
X014056Y018743D02*
X014067Y018741D01*
X014077Y018736D01*
X014084Y018729D01*
X014089Y018719D01*
X014091Y018708D01*
X013440Y018569D02*
X013440Y018466D01*
X014320Y008852D02*
X014320Y008573D01*
X014249Y008606D02*
X014249Y008708D01*
X014248Y008708D02*
X014246Y008719D01*
X014241Y008729D01*
X014234Y008736D01*
X014224Y008741D01*
X014213Y008743D01*
X014213Y008744D02*
X014154Y008744D01*
X014154Y008571D01*
X014213Y008571D01*
X014224Y008573D01*
X014234Y008578D01*
X014241Y008585D01*
X014246Y008595D01*
X014248Y008606D01*
X014154Y008569D02*
X014154Y008466D01*
X014068Y008571D02*
X014032Y008571D01*
X014021Y008573D01*
X014011Y008578D01*
X014004Y008585D01*
X013999Y008595D01*
X013997Y008606D01*
X013997Y008708D01*
X013999Y008719D01*
X014004Y008729D01*
X014011Y008736D01*
X014021Y008741D01*
X014032Y008743D01*
X014032Y008744D02*
X014056Y008744D01*
X014056Y008743D02*
X014067Y008741D01*
X014077Y008736D01*
X014084Y008729D01*
X014089Y008719D01*
X014091Y008708D01*
X014091Y008704D02*
X014091Y008657D01*
X014009Y008657D01*
X014082Y008584D02*
X014081Y008579D01*
X014078Y008574D01*
X014073Y008571D01*
X014068Y008570D01*
X013855Y008571D02*
X013855Y008708D01*
X013853Y008719D01*
X013848Y008729D01*
X013841Y008736D01*
X013831Y008741D01*
X013820Y008743D01*
X013820Y008744D02*
X013761Y008744D01*
X013761Y008571D01*
X013670Y008571D02*
X013635Y008571D01*
X013624Y008573D01*
X013614Y008578D01*
X013607Y008585D01*
X013602Y008595D01*
X013600Y008606D01*
X013599Y008606D02*
X013599Y008708D01*
X013600Y008708D02*
X013602Y008719D01*
X013607Y008729D01*
X013614Y008736D01*
X013624Y008741D01*
X013635Y008743D01*
X013635Y008744D02*
X013658Y008744D01*
X013658Y008743D02*
X013669Y008741D01*
X013679Y008736D01*
X013686Y008729D01*
X013691Y008719D01*
X013693Y008708D01*
X013694Y008704D02*
X013694Y008657D01*
X013611Y008657D01*
X013534Y008606D02*
X013534Y008708D01*
X013532Y008719D01*
X013527Y008729D01*
X013520Y008736D01*
X013510Y008741D01*
X013499Y008743D01*
X013499Y008744D02*
X013440Y008744D01*
X013440Y008571D01*
X013499Y008571D01*
X013510Y008573D01*
X013520Y008578D01*
X013527Y008585D01*
X013532Y008595D01*
X013534Y008606D01*
X013440Y008569D02*
X013440Y008466D01*
X013339Y008571D02*
X013316Y008571D01*
X013305Y008573D01*
X013295Y008578D01*
X013288Y008585D01*
X013283Y008595D01*
X013281Y008606D01*
X013280Y008606D02*
X013280Y008708D01*
X013281Y008708D02*
X013283Y008719D01*
X013288Y008729D01*
X013295Y008736D01*
X013305Y008741D01*
X013316Y008743D01*
X013316Y008744D02*
X013339Y008744D01*
X013339Y008743D02*
X013350Y008741D01*
X013360Y008736D01*
X013367Y008729D01*
X013372Y008719D01*
X013374Y008708D01*
X013375Y008708D02*
X013375Y008606D01*
X013374Y008606D02*
X013372Y008595D01*
X013367Y008585D01*
X013360Y008578D01*
X013350Y008573D01*
X013339Y008571D01*
X013670Y008570D02*
X013675Y008571D01*
X013680Y008574D01*
X013683Y008579D01*
X013684Y008584D01*
X014333Y008744D02*
X014379Y008744D01*
X014379Y008743D02*
X014390Y008741D01*
X014400Y008736D01*
X014407Y008729D01*
X014412Y008719D01*
X014414Y008708D01*
X014416Y008571D01*
X014524Y008573D02*
X014459Y008761D01*
X014585Y008761D02*
X014503Y008496D01*
X014501Y008492D02*
X014487Y008472D01*
X014469Y008468D01*
X014459Y008468D01*
X014631Y008580D02*
X014631Y008584D01*
X014631Y008580D02*
X014635Y008574D01*
X014644Y008569D01*
X014652Y008565D01*
X014654Y008565D02*
X014678Y008565D01*
X014689Y008567D01*
X014699Y008572D01*
X014706Y008579D01*
X014711Y008589D01*
X014713Y008600D01*
X014713Y008602D02*
X014713Y008612D01*
X014711Y008622D01*
X014694Y008639D01*
X014662Y008663D01*
X014668Y008659D02*
X014637Y008683D01*
X014629Y008695D01*
X014627Y008704D01*
X014627Y008714D01*
X014627Y008716D02*
X014629Y008727D01*
X014634Y008737D01*
X014641Y008744D01*
X014651Y008749D01*
X014662Y008751D01*
X014662Y008752D02*
X014686Y008752D01*
X014688Y008752D02*
X014696Y008748D01*
X014705Y008742D01*
X014709Y008736D01*
X014709Y008732D01*
X023280Y008708D02*
X023280Y008606D01*
X023281Y008606D02*
X023283Y008595D01*
X023288Y008585D01*
X023295Y008578D01*
X023305Y008573D01*
X023316Y008571D01*
X023339Y008571D01*
X023350Y008573D01*
X023360Y008578D01*
X023367Y008585D01*
X023372Y008595D01*
X023374Y008606D01*
X023375Y008606D02*
X023375Y008708D01*
X023374Y008708D02*
X023372Y008719D01*
X023367Y008729D01*
X023360Y008736D01*
X023350Y008741D01*
X023339Y008743D01*
X023339Y008744D02*
X023316Y008744D01*
X023316Y008743D02*
X023305Y008741D01*
X023295Y008736D01*
X023288Y008729D01*
X023283Y008719D01*
X023281Y008708D01*
X023440Y008744D02*
X023440Y008571D01*
X023499Y008571D01*
X023510Y008573D01*
X023520Y008578D01*
X023527Y008585D01*
X023532Y008595D01*
X023534Y008606D01*
X023534Y008708D01*
X023532Y008719D01*
X023527Y008729D01*
X023520Y008736D01*
X023510Y008741D01*
X023499Y008743D01*
X023499Y008744D02*
X023440Y008744D01*
X023599Y008708D02*
X023599Y008606D01*
X023600Y008606D02*
X023602Y008595D01*
X023607Y008585D01*
X023614Y008578D01*
X023624Y008573D01*
X023635Y008571D01*
X023670Y008571D01*
X023670Y008570D02*
X023675Y008571D01*
X023680Y008574D01*
X023683Y008579D01*
X023684Y008584D01*
X023694Y008657D02*
X023694Y008704D01*
X023693Y008708D02*
X023691Y008719D01*
X023686Y008729D01*
X023679Y008736D01*
X023669Y008741D01*
X023658Y008743D01*
X023658Y008744D02*
X023635Y008744D01*
X023635Y008743D02*
X023624Y008741D01*
X023614Y008736D01*
X023607Y008729D01*
X023602Y008719D01*
X023600Y008708D01*
X023611Y008657D02*
X023694Y008657D01*
X023761Y008744D02*
X023761Y008571D01*
X023855Y008571D02*
X023855Y008708D01*
X023853Y008719D01*
X023848Y008729D01*
X023841Y008736D01*
X023831Y008741D01*
X023820Y008743D01*
X023820Y008744D02*
X023761Y008744D01*
X023997Y008708D02*
X023997Y008606D01*
X023999Y008595D01*
X024004Y008585D01*
X024011Y008578D01*
X024021Y008573D01*
X024032Y008571D01*
X024068Y008571D01*
X024068Y008570D02*
X024073Y008571D01*
X024078Y008574D01*
X024081Y008579D01*
X024082Y008584D01*
X024154Y008571D02*
X024154Y008744D01*
X024213Y008744D01*
X024213Y008743D02*
X024224Y008741D01*
X024234Y008736D01*
X024241Y008729D01*
X024246Y008719D01*
X024248Y008708D01*
X024249Y008708D02*
X024249Y008606D01*
X024248Y008606D02*
X024246Y008595D01*
X024241Y008585D01*
X024234Y008578D01*
X024224Y008573D01*
X024213Y008571D01*
X024154Y008571D01*
X024154Y008569D02*
X024154Y008466D01*
X024320Y008573D02*
X024320Y008852D01*
X024333Y008744D02*
X024379Y008744D01*
X024379Y008743D02*
X024390Y008741D01*
X024400Y008736D01*
X024407Y008729D01*
X024412Y008719D01*
X024414Y008708D01*
X024416Y008571D01*
X024524Y008573D02*
X024459Y008761D01*
X024585Y008761D02*
X024503Y008496D01*
X024501Y008492D02*
X024487Y008472D01*
X024469Y008468D01*
X024459Y008468D01*
X024631Y008580D02*
X024631Y008584D01*
X024631Y008580D02*
X024635Y008574D01*
X024644Y008569D01*
X024652Y008565D01*
X024654Y008565D02*
X024678Y008565D01*
X024689Y008567D01*
X024699Y008572D01*
X024706Y008579D01*
X024711Y008589D01*
X024713Y008600D01*
X024713Y008602D02*
X024713Y008612D01*
X024711Y008622D01*
X024694Y008639D01*
X024662Y008663D01*
X024668Y008659D02*
X024637Y008683D01*
X024629Y008695D01*
X024627Y008704D01*
X024627Y008714D01*
X024627Y008716D02*
X024629Y008727D01*
X024634Y008737D01*
X024641Y008744D01*
X024651Y008749D01*
X024662Y008751D01*
X024662Y008752D02*
X024686Y008752D01*
X024688Y008752D02*
X024696Y008748D01*
X024705Y008742D01*
X024709Y008736D01*
X024709Y008732D01*
X024091Y008704D02*
X024091Y008657D01*
X024009Y008657D01*
X023997Y008708D02*
X023999Y008719D01*
X024004Y008729D01*
X024011Y008736D01*
X024021Y008741D01*
X024032Y008743D01*
X024032Y008744D02*
X024056Y008744D01*
X024056Y008743D02*
X024067Y008741D01*
X024077Y008736D01*
X024084Y008729D01*
X024089Y008719D01*
X024091Y008708D01*
X023440Y008569D02*
X023440Y008466D01*
X023440Y018466D02*
X023440Y018569D01*
X023440Y018571D02*
X023499Y018571D01*
X023510Y018573D01*
X023520Y018578D01*
X023527Y018585D01*
X023532Y018595D01*
X023534Y018606D01*
X023534Y018708D01*
X023532Y018719D01*
X023527Y018729D01*
X023520Y018736D01*
X023510Y018741D01*
X023499Y018743D01*
X023499Y018744D02*
X023440Y018744D01*
X023440Y018571D01*
X023375Y018606D02*
X023375Y018708D01*
X023374Y018708D02*
X023372Y018719D01*
X023367Y018729D01*
X023360Y018736D01*
X023350Y018741D01*
X023339Y018743D01*
X023339Y018744D02*
X023316Y018744D01*
X023316Y018743D02*
X023305Y018741D01*
X023295Y018736D01*
X023288Y018729D01*
X023283Y018719D01*
X023281Y018708D01*
X023280Y018708D02*
X023280Y018606D01*
X023281Y018606D02*
X023283Y018595D01*
X023288Y018585D01*
X023295Y018578D01*
X023305Y018573D01*
X023316Y018571D01*
X023339Y018571D01*
X023350Y018573D01*
X023360Y018578D01*
X023367Y018585D01*
X023372Y018595D01*
X023374Y018606D01*
X023599Y018606D02*
X023599Y018708D01*
X023600Y018708D02*
X023602Y018719D01*
X023607Y018729D01*
X023614Y018736D01*
X023624Y018741D01*
X023635Y018743D01*
X023635Y018744D02*
X023658Y018744D01*
X023658Y018743D02*
X023669Y018741D01*
X023679Y018736D01*
X023686Y018729D01*
X023691Y018719D01*
X023693Y018708D01*
X023694Y018704D02*
X023694Y018657D01*
X023611Y018657D01*
X023600Y018606D02*
X023602Y018595D01*
X023607Y018585D01*
X023614Y018578D01*
X023624Y018573D01*
X023635Y018571D01*
X023670Y018571D01*
X023670Y018570D02*
X023675Y018571D01*
X023680Y018574D01*
X023683Y018579D01*
X023684Y018584D01*
X023761Y018571D02*
X023761Y018744D01*
X023820Y018744D01*
X023820Y018743D02*
X023831Y018741D01*
X023841Y018736D01*
X023848Y018729D01*
X023853Y018719D01*
X023855Y018708D01*
X023855Y018571D01*
X023997Y018606D02*
X023997Y018708D01*
X023999Y018719D01*
X024004Y018729D01*
X024011Y018736D01*
X024021Y018741D01*
X024032Y018743D01*
X024032Y018744D02*
X024056Y018744D01*
X024056Y018743D02*
X024067Y018741D01*
X024077Y018736D01*
X024084Y018729D01*
X024089Y018719D01*
X024091Y018708D01*
X024091Y018704D02*
X024091Y018657D01*
X024009Y018657D01*
X023997Y018606D02*
X023999Y018595D01*
X024004Y018585D01*
X024011Y018578D01*
X024021Y018573D01*
X024032Y018571D01*
X024068Y018571D01*
X024068Y018570D02*
X024073Y018571D01*
X024078Y018574D01*
X024081Y018579D01*
X024082Y018584D01*
X024154Y018571D02*
X024154Y018744D01*
X024213Y018744D01*
X024213Y018743D02*
X024224Y018741D01*
X024234Y018736D01*
X024241Y018729D01*
X024246Y018719D01*
X024248Y018708D01*
X024249Y018708D02*
X024249Y018606D01*
X024248Y018606D02*
X024246Y018595D01*
X024241Y018585D01*
X024234Y018578D01*
X024224Y018573D01*
X024213Y018571D01*
X024154Y018571D01*
X024154Y018569D02*
X024154Y018466D01*
X024320Y018573D02*
X024320Y018852D01*
X024333Y018744D02*
X024379Y018744D01*
X024379Y018743D02*
X024390Y018741D01*
X024400Y018736D01*
X024407Y018729D01*
X024412Y018719D01*
X024414Y018708D01*
X024416Y018571D01*
X024524Y018573D02*
X024459Y018761D01*
X024585Y018761D02*
X024503Y018496D01*
X024501Y018492D02*
X024487Y018472D01*
X024469Y018468D01*
X024459Y018468D01*
X024631Y018580D02*
X024631Y018584D01*
X024631Y018580D02*
X024635Y018574D01*
X024644Y018569D01*
X024652Y018565D01*
X024654Y018565D02*
X024678Y018565D01*
X024689Y018567D01*
X024699Y018572D01*
X024706Y018579D01*
X024711Y018589D01*
X024713Y018600D01*
X024713Y018602D02*
X024713Y018612D01*
X024711Y018622D01*
X024694Y018639D01*
X024662Y018663D01*
X024668Y018659D02*
X024637Y018683D01*
X024629Y018695D01*
X024627Y018704D01*
X024627Y018714D01*
X024627Y018716D02*
X024629Y018727D01*
X024634Y018737D01*
X024641Y018744D01*
X024651Y018749D01*
X024662Y018751D01*
X024662Y018752D02*
X024686Y018752D01*
X024688Y018752D02*
X024696Y018748D01*
X024705Y018742D01*
X024709Y018736D01*
X024709Y018732D01*
X024469Y028468D02*
X024459Y028468D01*
X024469Y028468D02*
X024487Y028472D01*
X024501Y028492D01*
X024503Y028496D02*
X024585Y028761D01*
X024627Y028714D02*
X024627Y028704D01*
X024629Y028695D01*
X024637Y028683D01*
X024668Y028659D01*
X024662Y028663D02*
X024694Y028639D01*
X024711Y028622D01*
X024713Y028612D01*
X024713Y028602D01*
X024713Y028600D02*
X024711Y028589D01*
X024706Y028579D01*
X024699Y028572D01*
X024689Y028567D01*
X024678Y028565D01*
X024654Y028565D01*
X024652Y028565D02*
X024644Y028569D01*
X024635Y028574D01*
X024631Y028580D01*
X024631Y028584D01*
X024524Y028573D02*
X024459Y028761D01*
X024414Y028708D02*
X024416Y028571D01*
X024320Y028573D02*
X024320Y028852D01*
X024333Y028744D02*
X024379Y028744D01*
X024379Y028743D02*
X024390Y028741D01*
X024400Y028736D01*
X024407Y028729D01*
X024412Y028719D01*
X024414Y028708D01*
X024249Y028708D02*
X024249Y028606D01*
X024248Y028606D02*
X024246Y028595D01*
X024241Y028585D01*
X024234Y028578D01*
X024224Y028573D01*
X024213Y028571D01*
X024154Y028571D01*
X024154Y028744D01*
X024213Y028744D01*
X024213Y028743D02*
X024224Y028741D01*
X024234Y028736D01*
X024241Y028729D01*
X024246Y028719D01*
X024248Y028708D01*
X024091Y028704D02*
X024091Y028657D01*
X024009Y028657D01*
X023997Y028708D02*
X023997Y028606D01*
X023999Y028595D01*
X024004Y028585D01*
X024011Y028578D01*
X024021Y028573D01*
X024032Y028571D01*
X024068Y028571D01*
X024068Y028570D02*
X024073Y028571D01*
X024078Y028574D01*
X024081Y028579D01*
X024082Y028584D01*
X024154Y028569D02*
X024154Y028466D01*
X024091Y028708D02*
X024089Y028719D01*
X024084Y028729D01*
X024077Y028736D01*
X024067Y028741D01*
X024056Y028743D01*
X024056Y028744D02*
X024032Y028744D01*
X024032Y028743D02*
X024021Y028741D01*
X024011Y028736D01*
X024004Y028729D01*
X023999Y028719D01*
X023997Y028708D01*
X023855Y028708D02*
X023855Y028571D01*
X023761Y028571D02*
X023761Y028744D01*
X023820Y028744D01*
X023820Y028743D02*
X023831Y028741D01*
X023841Y028736D01*
X023848Y028729D01*
X023853Y028719D01*
X023855Y028708D01*
X023694Y028704D02*
X023694Y028657D01*
X023611Y028657D01*
X023599Y028708D02*
X023599Y028606D01*
X023600Y028606D02*
X023602Y028595D01*
X023607Y028585D01*
X023614Y028578D01*
X023624Y028573D01*
X023635Y028571D01*
X023670Y028571D01*
X023670Y028570D02*
X023675Y028571D01*
X023680Y028574D01*
X023683Y028579D01*
X023684Y028584D01*
X023693Y028708D02*
X023691Y028719D01*
X023686Y028729D01*
X023679Y028736D01*
X023669Y028741D01*
X023658Y028743D01*
X023658Y028744D02*
X023635Y028744D01*
X023635Y028743D02*
X023624Y028741D01*
X023614Y028736D01*
X023607Y028729D01*
X023602Y028719D01*
X023600Y028708D01*
X023534Y028708D02*
X023534Y028606D01*
X023532Y028595D01*
X023527Y028585D01*
X023520Y028578D01*
X023510Y028573D01*
X023499Y028571D01*
X023440Y028571D01*
X023440Y028744D01*
X023499Y028744D01*
X023499Y028743D02*
X023510Y028741D01*
X023520Y028736D01*
X023527Y028729D01*
X023532Y028719D01*
X023534Y028708D01*
X023375Y028708D02*
X023375Y028606D01*
X023374Y028606D02*
X023372Y028595D01*
X023367Y028585D01*
X023360Y028578D01*
X023350Y028573D01*
X023339Y028571D01*
X023316Y028571D01*
X023305Y028573D01*
X023295Y028578D01*
X023288Y028585D01*
X023283Y028595D01*
X023281Y028606D01*
X023280Y028606D02*
X023280Y028708D01*
X023281Y028708D02*
X023283Y028719D01*
X023288Y028729D01*
X023295Y028736D01*
X023305Y028741D01*
X023316Y028743D01*
X023316Y028744D02*
X023339Y028744D01*
X023339Y028743D02*
X023350Y028741D01*
X023360Y028736D01*
X023367Y028729D01*
X023372Y028719D01*
X023374Y028708D01*
X023440Y028569D02*
X023440Y028466D01*
X024627Y028716D02*
X024629Y028727D01*
X024634Y028737D01*
X024641Y028744D01*
X024651Y028749D01*
X024662Y028751D01*
X024662Y028752D02*
X024686Y028752D01*
X024688Y028752D02*
X024696Y028748D01*
X024705Y028742D01*
X024709Y028736D01*
X024709Y028732D01*
X014713Y028612D02*
X014711Y028622D01*
X014694Y028639D01*
X014662Y028663D01*
X014668Y028659D02*
X014637Y028683D01*
X014629Y028695D01*
X014627Y028704D01*
X014627Y028714D01*
X014627Y028716D02*
X014629Y028727D01*
X014634Y028737D01*
X014641Y028744D01*
X014651Y028749D01*
X014662Y028751D01*
X014662Y028752D02*
X014686Y028752D01*
X014688Y028752D02*
X014696Y028748D01*
X014705Y028742D01*
X014709Y028736D01*
X014709Y028732D01*
X014713Y028612D02*
X014713Y028602D01*
X014713Y028600D02*
X014711Y028589D01*
X014706Y028579D01*
X014699Y028572D01*
X014689Y028567D01*
X014678Y028565D01*
X014654Y028565D01*
X014652Y028565D02*
X014644Y028569D01*
X014635Y028574D01*
X014631Y028580D01*
X014631Y028584D01*
X014524Y028573D02*
X014459Y028761D01*
X014414Y028708D02*
X014416Y028571D01*
X014320Y028573D02*
X014320Y028852D01*
X014333Y028744D02*
X014379Y028744D01*
X014379Y028743D02*
X014390Y028741D01*
X014400Y028736D01*
X014407Y028729D01*
X014412Y028719D01*
X014414Y028708D01*
X014249Y028708D02*
X014249Y028606D01*
X014248Y028606D02*
X014246Y028595D01*
X014241Y028585D01*
X014234Y028578D01*
X014224Y028573D01*
X014213Y028571D01*
X014154Y028571D01*
X014154Y028744D01*
X014213Y028744D01*
X014213Y028743D02*
X014224Y028741D01*
X014234Y028736D01*
X014241Y028729D01*
X014246Y028719D01*
X014248Y028708D01*
X014091Y028704D02*
X014091Y028657D01*
X014009Y028657D01*
X013997Y028708D02*
X013997Y028606D01*
X013999Y028595D01*
X014004Y028585D01*
X014011Y028578D01*
X014021Y028573D01*
X014032Y028571D01*
X014068Y028571D01*
X014068Y028570D02*
X014073Y028571D01*
X014078Y028574D01*
X014081Y028579D01*
X014082Y028584D01*
X014154Y028569D02*
X014154Y028466D01*
X014091Y028708D02*
X014089Y028719D01*
X014084Y028729D01*
X014077Y028736D01*
X014067Y028741D01*
X014056Y028743D01*
X014056Y028744D02*
X014032Y028744D01*
X014032Y028743D02*
X014021Y028741D01*
X014011Y028736D01*
X014004Y028729D01*
X013999Y028719D01*
X013997Y028708D01*
X013855Y028708D02*
X013855Y028571D01*
X013761Y028571D02*
X013761Y028744D01*
X013820Y028744D01*
X013820Y028743D02*
X013831Y028741D01*
X013841Y028736D01*
X013848Y028729D01*
X013853Y028719D01*
X013855Y028708D01*
X013694Y028704D02*
X013694Y028657D01*
X013611Y028657D01*
X013599Y028708D02*
X013599Y028606D01*
X013600Y028606D02*
X013602Y028595D01*
X013607Y028585D01*
X013614Y028578D01*
X013624Y028573D01*
X013635Y028571D01*
X013670Y028571D01*
X013670Y028570D02*
X013675Y028571D01*
X013680Y028574D01*
X013683Y028579D01*
X013684Y028584D01*
X013693Y028708D02*
X013691Y028719D01*
X013686Y028729D01*
X013679Y028736D01*
X013669Y028741D01*
X013658Y028743D01*
X013658Y028744D02*
X013635Y028744D01*
X013635Y028743D02*
X013624Y028741D01*
X013614Y028736D01*
X013607Y028729D01*
X013602Y028719D01*
X013600Y028708D01*
X013534Y028708D02*
X013534Y028606D01*
X013532Y028595D01*
X013527Y028585D01*
X013520Y028578D01*
X013510Y028573D01*
X013499Y028571D01*
X013440Y028571D01*
X013440Y028744D01*
X013499Y028744D01*
X013499Y028743D02*
X013510Y028741D01*
X013520Y028736D01*
X013527Y028729D01*
X013532Y028719D01*
X013534Y028708D01*
X013375Y028708D02*
X013375Y028606D01*
X013374Y028606D02*
X013372Y028595D01*
X013367Y028585D01*
X013360Y028578D01*
X013350Y028573D01*
X013339Y028571D01*
X013316Y028571D01*
X013305Y028573D01*
X013295Y028578D01*
X013288Y028585D01*
X013283Y028595D01*
X013281Y028606D01*
X013280Y028606D02*
X013280Y028708D01*
X013281Y028708D02*
X013283Y028719D01*
X013288Y028729D01*
X013295Y028736D01*
X013305Y028741D01*
X013316Y028743D01*
X013316Y028744D02*
X013339Y028744D01*
X013339Y028743D02*
X013350Y028741D01*
X013360Y028736D01*
X013367Y028729D01*
X013372Y028719D01*
X013374Y028708D01*
X013440Y028569D02*
X013440Y028466D01*
X014459Y028468D02*
X014469Y028468D01*
X014487Y028472D01*
X014501Y028492D01*
X014503Y028496D02*
X014585Y028761D01*
X004688Y008752D02*
X004696Y008748D01*
X004705Y008742D01*
X004709Y008736D01*
X004709Y008732D01*
X004686Y008752D02*
X004662Y008752D01*
X004662Y008751D02*
X004651Y008749D01*
X004641Y008744D01*
X004634Y008737D01*
X004629Y008727D01*
X004627Y008716D01*
X004627Y008714D02*
X004627Y008704D01*
X004629Y008695D01*
X004637Y008683D01*
X004668Y008659D01*
X004662Y008663D02*
X004694Y008639D01*
X004711Y008622D01*
X004713Y008612D01*
X004713Y008602D01*
X004713Y008600D02*
X004711Y008589D01*
X004706Y008579D01*
X004699Y008572D01*
X004689Y008567D01*
X004678Y008565D01*
X004654Y008565D01*
X004652Y008565D02*
X004644Y008569D01*
X004635Y008574D01*
X004631Y008580D01*
X004631Y008584D01*
X004524Y008573D02*
X004459Y008761D01*
X004414Y008708D02*
X004416Y008571D01*
X004320Y008573D02*
X004320Y008852D01*
X004333Y008744D02*
X004379Y008744D01*
X004379Y008743D02*
X004390Y008741D01*
X004400Y008736D01*
X004407Y008729D01*
X004412Y008719D01*
X004414Y008708D01*
X004249Y008708D02*
X004249Y008606D01*
X004248Y008606D02*
X004246Y008595D01*
X004241Y008585D01*
X004234Y008578D01*
X004224Y008573D01*
X004213Y008571D01*
X004154Y008571D01*
X004154Y008744D01*
X004213Y008744D01*
X004213Y008743D02*
X004224Y008741D01*
X004234Y008736D01*
X004241Y008729D01*
X004246Y008719D01*
X004248Y008708D01*
X004091Y008704D02*
X004091Y008657D01*
X004009Y008657D01*
X003997Y008708D02*
X003997Y008606D01*
X003999Y008595D01*
X004004Y008585D01*
X004011Y008578D01*
X004021Y008573D01*
X004032Y008571D01*
X004068Y008571D01*
X004068Y008570D02*
X004073Y008571D01*
X004078Y008574D01*
X004081Y008579D01*
X004082Y008584D01*
X004154Y008569D02*
X004154Y008466D01*
X004091Y008708D02*
X004089Y008719D01*
X004084Y008729D01*
X004077Y008736D01*
X004067Y008741D01*
X004056Y008743D01*
X004056Y008744D02*
X004032Y008744D01*
X004032Y008743D02*
X004021Y008741D01*
X004011Y008736D01*
X004004Y008729D01*
X003999Y008719D01*
X003997Y008708D01*
X003855Y008708D02*
X003855Y008571D01*
X003761Y008571D02*
X003761Y008744D01*
X003820Y008744D01*
X003820Y008743D02*
X003831Y008741D01*
X003841Y008736D01*
X003848Y008729D01*
X003853Y008719D01*
X003855Y008708D01*
X003694Y008704D02*
X003694Y008657D01*
X003611Y008657D01*
X003599Y008708D02*
X003599Y008606D01*
X003600Y008606D02*
X003602Y008595D01*
X003607Y008585D01*
X003614Y008578D01*
X003624Y008573D01*
X003635Y008571D01*
X003670Y008571D01*
X003670Y008570D02*
X003675Y008571D01*
X003680Y008574D01*
X003683Y008579D01*
X003684Y008584D01*
X003693Y008708D02*
X003691Y008719D01*
X003686Y008729D01*
X003679Y008736D01*
X003669Y008741D01*
X003658Y008743D01*
X003658Y008744D02*
X003635Y008744D01*
X003635Y008743D02*
X003624Y008741D01*
X003614Y008736D01*
X003607Y008729D01*
X003602Y008719D01*
X003600Y008708D01*
X003534Y008708D02*
X003534Y008606D01*
X003532Y008595D01*
X003527Y008585D01*
X003520Y008578D01*
X003510Y008573D01*
X003499Y008571D01*
X003440Y008571D01*
X003440Y008744D01*
X003499Y008744D01*
X003499Y008743D02*
X003510Y008741D01*
X003520Y008736D01*
X003527Y008729D01*
X003532Y008719D01*
X003534Y008708D01*
X003375Y008708D02*
X003375Y008606D01*
X003374Y008606D02*
X003372Y008595D01*
X003367Y008585D01*
X003360Y008578D01*
X003350Y008573D01*
X003339Y008571D01*
X003316Y008571D01*
X003305Y008573D01*
X003295Y008578D01*
X003288Y008585D01*
X003283Y008595D01*
X003281Y008606D01*
X003280Y008606D02*
X003280Y008708D01*
X003281Y008708D02*
X003283Y008719D01*
X003288Y008729D01*
X003295Y008736D01*
X003305Y008741D01*
X003316Y008743D01*
X003316Y008744D02*
X003339Y008744D01*
X003339Y008743D02*
X003350Y008741D01*
X003360Y008736D01*
X003367Y008729D01*
X003372Y008719D01*
X003374Y008708D01*
X003440Y008569D02*
X003440Y008466D01*
X004459Y008468D02*
X004469Y008468D01*
X004487Y008472D01*
X004501Y008492D01*
X004503Y008496D02*
X004585Y008761D01*
D21*
G36*
X003786Y006204D02*
X004133Y005857D01*
X003896Y005620D01*
X003549Y005967D01*
X003786Y006204D01*
G37*
G36*
X004343Y005648D02*
X004690Y005301D01*
X004453Y005064D01*
X004106Y005411D01*
X004343Y005648D01*
G37*
G36*
X009023Y010328D02*
X009370Y009981D01*
X009133Y009744D01*
X008786Y010091D01*
X009023Y010328D01*
G37*
G36*
X008466Y010884D02*
X008813Y010537D01*
X008576Y010300D01*
X008229Y010647D01*
X008466Y010884D01*
G37*
G36*
X004343Y015648D02*
X004690Y015301D01*
X004453Y015064D01*
X004106Y015411D01*
X004343Y015648D01*
G37*
G36*
X003786Y016204D02*
X004133Y015857D01*
X003896Y015620D01*
X003549Y015967D01*
X003786Y016204D01*
G37*
G36*
X008466Y020884D02*
X008813Y020537D01*
X008576Y020300D01*
X008229Y020647D01*
X008466Y020884D01*
G37*
G36*
X009023Y020328D02*
X009370Y019981D01*
X009133Y019744D01*
X008786Y020091D01*
X009023Y020328D01*
G37*
G36*
X013786Y016204D02*
X014133Y015857D01*
X013896Y015620D01*
X013549Y015967D01*
X013786Y016204D01*
G37*
G36*
X014343Y015648D02*
X014690Y015301D01*
X014453Y015064D01*
X014106Y015411D01*
X014343Y015648D01*
G37*
G36*
X019023Y020328D02*
X019370Y019981D01*
X019133Y019744D01*
X018786Y020091D01*
X019023Y020328D01*
G37*
G36*
X018466Y020884D02*
X018813Y020537D01*
X018576Y020300D01*
X018229Y020647D01*
X018466Y020884D01*
G37*
G36*
X014343Y025648D02*
X014690Y025301D01*
X014453Y025064D01*
X014106Y025411D01*
X014343Y025648D01*
G37*
G36*
X013786Y026204D02*
X014133Y025857D01*
X013896Y025620D01*
X013549Y025967D01*
X013786Y026204D01*
G37*
G36*
X009023Y030328D02*
X009370Y029981D01*
X009133Y029744D01*
X008786Y030091D01*
X009023Y030328D01*
G37*
G36*
X008466Y030884D02*
X008813Y030537D01*
X008576Y030300D01*
X008229Y030647D01*
X008466Y030884D01*
G37*
G36*
X003786Y026204D02*
X004133Y025857D01*
X003896Y025620D01*
X003549Y025967D01*
X003786Y026204D01*
G37*
G36*
X004343Y025648D02*
X004690Y025301D01*
X004453Y025064D01*
X004106Y025411D01*
X004343Y025648D01*
G37*
G36*
X018466Y030884D02*
X018813Y030537D01*
X018576Y030300D01*
X018229Y030647D01*
X018466Y030884D01*
G37*
G36*
X019023Y030328D02*
X019370Y029981D01*
X019133Y029744D01*
X018786Y030091D01*
X019023Y030328D01*
G37*
G36*
X023786Y026204D02*
X024133Y025857D01*
X023896Y025620D01*
X023549Y025967D01*
X023786Y026204D01*
G37*
G36*
X024343Y025648D02*
X024690Y025301D01*
X024453Y025064D01*
X024106Y025411D01*
X024343Y025648D01*
G37*
G36*
X028466Y030884D02*
X028813Y030537D01*
X028576Y030300D01*
X028229Y030647D01*
X028466Y030884D01*
G37*
G36*
X029023Y030328D02*
X029370Y029981D01*
X029133Y029744D01*
X028786Y030091D01*
X029023Y030328D01*
G37*
G36*
X028466Y020884D02*
X028813Y020537D01*
X028576Y020300D01*
X028229Y020647D01*
X028466Y020884D01*
G37*
G36*
X029023Y020328D02*
X029370Y019981D01*
X029133Y019744D01*
X028786Y020091D01*
X029023Y020328D01*
G37*
G36*
X024343Y015648D02*
X024690Y015301D01*
X024453Y015064D01*
X024106Y015411D01*
X024343Y015648D01*
G37*
G36*
X023786Y016204D02*
X024133Y015857D01*
X023896Y015620D01*
X023549Y015967D01*
X023786Y016204D01*
G37*
G36*
X028466Y010884D02*
X028813Y010537D01*
X028576Y010300D01*
X028229Y010647D01*
X028466Y010884D01*
G37*
G36*
X029023Y010328D02*
X029370Y009981D01*
X029133Y009744D01*
X028786Y010091D01*
X029023Y010328D01*
G37*
G36*
X024343Y005648D02*
X024690Y005301D01*
X024453Y005064D01*
X024106Y005411D01*
X024343Y005648D01*
G37*
G36*
X023786Y006204D02*
X024133Y005857D01*
X023896Y005620D01*
X023549Y005967D01*
X023786Y006204D01*
G37*
G36*
X019023Y010328D02*
X019370Y009981D01*
X019133Y009744D01*
X018786Y010091D01*
X019023Y010328D01*
G37*
G36*
X018466Y010884D02*
X018813Y010537D01*
X018576Y010300D01*
X018229Y010647D01*
X018466Y010884D01*
G37*
G36*
X013786Y006204D02*
X014133Y005857D01*
X013896Y005620D01*
X013549Y005967D01*
X013786Y006204D01*
G37*
G36*
X014343Y005648D02*
X014690Y005301D01*
X014453Y005064D01*
X014106Y005411D01*
X014343Y005648D01*
G37*
M02*
