%
M48
M72
T01C0.0079
T02C0.0320
%
T01
X4718Y5000
X4983Y4691
X5343Y4641
X5564Y4481
X5853Y4446
X5829Y4667
X6195Y4592
X6340Y4382
X6585Y4549
X6775Y4390
X7022Y4679
X7180Y4533
X7435Y4491
X7631Y4559
X7811Y4654
X8379Y4924
X8739Y5226
X8937Y5401
X8514Y5391
X7675Y6177
X7593Y6773
X7325Y6824
X7034Y6756
X7124Y6561
X7124Y6356
X7124Y6162
X7124Y5968
X7120Y5691
X7278Y5508
X7581Y5471
X7585Y5666
X6655Y5681
X6661Y5922
X6254Y5873
X6254Y6068
X5916Y5903
X6014Y5651
X5986Y5445
X5509Y5499
X5377Y5352
X5258Y5557
X5443Y5693
X5504Y5958
X5476Y6201
X5521Y6403
X5684Y6246
X5836Y6375
X5955Y6537
X5747Y6569
X5585Y6714
X5875Y6746
X6564Y6618
X5256Y6404
X5252Y6185
X5254Y5891
X4398Y5812
X4034Y6119
X3789Y6732
X3455Y6136
X3915Y5442
X2985Y7226
X3211Y7394
X3546Y8053
X3703Y8250
X3861Y8053
X4018Y8250
X4176Y8053
X4333Y8250
X4491Y8053
X4648Y8250
X4806Y8053
X5217Y8465
X5333Y8612
X5450Y8451
X5554Y8683
X5751Y9273
X5908Y9500
X6066Y9273
X6223Y9500
X6380Y9273
X6538Y9500
X6695Y9273
X6853Y9500
X7010Y9273
X7168Y9500
X7534Y9636
X7777Y9333
X8188Y9431
X8379Y9774
X9129Y9575
X9709Y9474
X9920Y8698
X9380Y8072
X9144Y8151
X8900Y8368
X8743Y8604
X8585Y8368
X8428Y8604
X8270Y8368
X8113Y8604
X7955Y8368
X7798Y8604
X7640Y8368
X7483Y8604
X7325Y8368
X7652Y10261
X7859Y10534
X8049Y10764
X6959Y10974
X6843Y10536
X5719Y10374
X4999Y10326
X5275Y9393
X4367Y9455
X3587Y9815
X3046Y8663
X3388Y8250
X5564Y14481
X5343Y14641
X4983Y14691
X4718Y15000
X5377Y15352
X5509Y15499
X5443Y15693
X5258Y15557
X5254Y15891
X5504Y15958
X5476Y16201
X5521Y16403
X5684Y16246
X5836Y16375
X5955Y16537
X5747Y16569
X5585Y16714
X5875Y16746
X6564Y16618
X7034Y16756
X7124Y16561
X7124Y16356
X7124Y16162
X7124Y15968
X7120Y15691
X7278Y15508
X7581Y15471
X7585Y15666
X7675Y16177
X7593Y16773
X7325Y16824
X6661Y15922
X6655Y15681
X6254Y15873
X6254Y16068
X5916Y15903
X6014Y15651
X5986Y15445
X5829Y14667
X5853Y14446
X6195Y14592
X6340Y14382
X6585Y14549
X6775Y14390
X7022Y14679
X7180Y14533
X7435Y14491
X7631Y14559
X7811Y14654
X8379Y14924
X8739Y15226
X8937Y15401
X8514Y15391
X9558Y16191
X9629Y16659
X9908Y17120
X9625Y17171
X9380Y18072
X9144Y18151
X8900Y18368
X8743Y18604
X8585Y18368
X8428Y18604
X8270Y18368
X8113Y18604
X7955Y18368
X7798Y18604
X7640Y18368
X7483Y18604
X7325Y18368
X7010Y19273
X6853Y19500
X6695Y19273
X6538Y19500
X6380Y19273
X6223Y19500
X6066Y19273
X5908Y19500
X5751Y19273
X5554Y18683
X5333Y18612
X5217Y18465
X5450Y18451
X4806Y18053
X4648Y18250
X4491Y18053
X4333Y18250
X4176Y18053
X4018Y18250
X3861Y18053
X3703Y18250
X3546Y18053
X3388Y18250
X3046Y18663
X3587Y19815
X4367Y19455
X5275Y19393
X4999Y20326
X5719Y20374
X6843Y20536
X6959Y20974
X7652Y20261
X7859Y20534
X8049Y20764
X8379Y19774
X8188Y19431
X7777Y19333
X7534Y19636
X7168Y19500
X9129Y19575
X9709Y19474
X9920Y18698
X13046Y18663
X13388Y18250
X13546Y18053
X13703Y18250
X13861Y18053
X14018Y18250
X14176Y18053
X14333Y18250
X14491Y18053
X14648Y18250
X14806Y18053
X15217Y18465
X15333Y18612
X15450Y18451
X15554Y18683
X15751Y19273
X15908Y19500
X16066Y19273
X16223Y19500
X16380Y19273
X16538Y19500
X16695Y19273
X16853Y19500
X17010Y19273
X17168Y19500
X17534Y19636
X17777Y19333
X18188Y19431
X18379Y19774
X19129Y19575
X19709Y19474
X19920Y18698
X19380Y18072
X19144Y18151
X18900Y18368
X18743Y18604
X18585Y18368
X18428Y18604
X18270Y18368
X18113Y18604
X17955Y18368
X17798Y18604
X17640Y18368
X17483Y18604
X17325Y18368
X17325Y16824
X17593Y16773
X17675Y16177
X17585Y15666
X17581Y15471
X17278Y15508
X17120Y15691
X17124Y15968
X17124Y16162
X17124Y16356
X17124Y16561
X17034Y16756
X16564Y16618
X15955Y16537
X15836Y16375
X15684Y16246
X15476Y16201
X15521Y16403
X15256Y16404
X15252Y16185
X15254Y15891
X15504Y15958
X15443Y15693
X15509Y15499
X15377Y15352
X15258Y15557
X15986Y15445
X16014Y15651
X15916Y15903
X16254Y15873
X16254Y16068
X16661Y15922
X16655Y15681
X17022Y14679
X17180Y14533
X17435Y14491
X17631Y14559
X17811Y14654
X18379Y14924
X18739Y15226
X18937Y15401
X18514Y15391
X19558Y16191
X19629Y16659
X19908Y17120
X19625Y17171
X17652Y20261
X17859Y20534
X18049Y20764
X16959Y20974
X16843Y20536
X15719Y20374
X14999Y20326
X15275Y19393
X14367Y19455
X13587Y19815
X13211Y17394
X12985Y17226
X13789Y16732
X14034Y16119
X14398Y15812
X13915Y15442
X13455Y16136
X14718Y15000
X14983Y14691
X15343Y14641
X15564Y14481
X15853Y14446
X15829Y14667
X16195Y14592
X16340Y14382
X16585Y14549
X16775Y14390
X15747Y16569
X15585Y16714
X15875Y16746
X16959Y10974
X16843Y10536
X17652Y10261
X17859Y10534
X18049Y10764
X18379Y9774
X18188Y9431
X17777Y9333
X17534Y9636
X17168Y9500
X17010Y9273
X16853Y9500
X16695Y9273
X16538Y9500
X16380Y9273
X16223Y9500
X16066Y9273
X15908Y9500
X15751Y9273
X15275Y9393
X15554Y8683
X15333Y8612
X15217Y8465
X15450Y8451
X14806Y8053
X14648Y8250
X14491Y8053
X14333Y8250
X14176Y8053
X14018Y8250
X13861Y8053
X13703Y8250
X13546Y8053
X13388Y8250
X13046Y8663
X13587Y9815
X14367Y9455
X14999Y10326
X15719Y10374
X17483Y8604
X17640Y8368
X17798Y8604
X17955Y8368
X18113Y8604
X18270Y8368
X18428Y8604
X18585Y8368
X18743Y8604
X18900Y8368
X19144Y8151
X19380Y8072
X19920Y8698
X19709Y9474
X19129Y9575
X17325Y8368
X17325Y6824
X17593Y6773
X17675Y6177
X17585Y5666
X17581Y5471
X17278Y5508
X17120Y5691
X17124Y5968
X17124Y6162
X17124Y6356
X17124Y6561
X17034Y6756
X16564Y6618
X15955Y6537
X15836Y6375
X15684Y6246
X15476Y6201
X15521Y6403
X15256Y6404
X15252Y6185
X15254Y5891
X15504Y5958
X15443Y5693
X15509Y5499
X15377Y5352
X15258Y5557
X15986Y5445
X16014Y5651
X15916Y5903
X16254Y5873
X16254Y6068
X16661Y5922
X16655Y5681
X17022Y4679
X17180Y4533
X17435Y4491
X17631Y4559
X17811Y4654
X18379Y4924
X18739Y5226
X18937Y5401
X18514Y5391
X19558Y6191
X19629Y6659
X19908Y7120
X19625Y7171
X16775Y4390
X16585Y4549
X16340Y4382
X16195Y4592
X15853Y4446
X15829Y4667
X15564Y4481
X15343Y4641
X14983Y4691
X14718Y5000
X13915Y5442
X14398Y5812
X14034Y6119
X13789Y6732
X13455Y6136
X12985Y7226
X13211Y7394
X15585Y6714
X15747Y6569
X15875Y6746
X9908Y7120
X9625Y7171
X9629Y6659
X9558Y6191
X3915Y15442
X4398Y15812
X4034Y16119
X3789Y16732
X3455Y16136
X2985Y17226
X3211Y17394
X5256Y16404
X5252Y16185
X6340Y24382
X6195Y24592
X5853Y24446
X5829Y24667
X5564Y24481
X5343Y24641
X4983Y24691
X4718Y25000
X5377Y25352
X5509Y25499
X5443Y25693
X5258Y25557
X5254Y25891
X5504Y25958
X5476Y26201
X5521Y26403
X5684Y26246
X5836Y26375
X5955Y26537
X5747Y26569
X5585Y26714
X5875Y26746
X6564Y26618
X7034Y26756
X7124Y26561
X7124Y26356
X7124Y26162
X7124Y25968
X7120Y25691
X7278Y25508
X7581Y25471
X7585Y25666
X7675Y26177
X7593Y26773
X7325Y26824
X6661Y25922
X6655Y25681
X6254Y25873
X6254Y26068
X5916Y25903
X6014Y25651
X5986Y25445
X5252Y26185
X5256Y26404
X4398Y25812
X4034Y26119
X3789Y26732
X3455Y26136
X3915Y25442
X2985Y27226
X3211Y27394
X3546Y28053
X3703Y28250
X3861Y28053
X4018Y28250
X4176Y28053
X4333Y28250
X4491Y28053
X4648Y28250
X4806Y28053
X5217Y28465
X5333Y28612
X5450Y28451
X5554Y28683
X5751Y29273
X5908Y29500
X6066Y29273
X6223Y29500
X6380Y29273
X6538Y29500
X6695Y29273
X6853Y29500
X7010Y29273
X7168Y29500
X7534Y29636
X7777Y29333
X8188Y29431
X8379Y29774
X9129Y29575
X9709Y29474
X9920Y28698
X9380Y28072
X9144Y28151
X8900Y28368
X8743Y28604
X8585Y28368
X8428Y28604
X8270Y28368
X8113Y28604
X7955Y28368
X7798Y28604
X7640Y28368
X7483Y28604
X7325Y28368
X7652Y30261
X7859Y30534
X8049Y30764
X6959Y30974
X6843Y30536
X5719Y30374
X4999Y30326
X5275Y29393
X4367Y29455
X3587Y29815
X3046Y28663
X3388Y28250
X6585Y24549
X6775Y24390
X7022Y24679
X7180Y24533
X7435Y24491
X7631Y24559
X7811Y24654
X8379Y24924
X8739Y25226
X8937Y25401
X8514Y25391
X9558Y26191
X9629Y26659
X9625Y27171
X9908Y27120
X12985Y27226
X13211Y27394
X13546Y28053
X13703Y28250
X13861Y28053
X14018Y28250
X14176Y28053
X14333Y28250
X14491Y28053
X14648Y28250
X14806Y28053
X15217Y28465
X15333Y28612
X15450Y28451
X15554Y28683
X15751Y29273
X15908Y29500
X16066Y29273
X16223Y29500
X16380Y29273
X16538Y29500
X16695Y29273
X16853Y29500
X17010Y29273
X17168Y29500
X17534Y29636
X17777Y29333
X18188Y29431
X18379Y29774
X19129Y29575
X19709Y29474
X19920Y28698
X19380Y28072
X19144Y28151
X18900Y28368
X18743Y28604
X18585Y28368
X18428Y28604
X18270Y28368
X18113Y28604
X17955Y28368
X17798Y28604
X17640Y28368
X17483Y28604
X17325Y28368
X17325Y26824
X17593Y26773
X17675Y26177
X17585Y25666
X17581Y25471
X17278Y25508
X17120Y25691
X17124Y25968
X17124Y26162
X17124Y26356
X17124Y26561
X17034Y26756
X16564Y26618
X15955Y26537
X15836Y26375
X15684Y26246
X15476Y26201
X15521Y26403
X15256Y26404
X15252Y26185
X15254Y25891
X15504Y25958
X15443Y25693
X15509Y25499
X15377Y25352
X15258Y25557
X15986Y25445
X16014Y25651
X15916Y25903
X16254Y25873
X16254Y26068
X16661Y25922
X16655Y25681
X17022Y24679
X17180Y24533
X17435Y24491
X17631Y24559
X17811Y24654
X18379Y24924
X18739Y25226
X18937Y25401
X18514Y25391
X19558Y26191
X19629Y26659
X19625Y27171
X19908Y27120
X22985Y27226
X23211Y27394
X23546Y28053
X23703Y28250
X23861Y28053
X24018Y28250
X24176Y28053
X24333Y28250
X24491Y28053
X24648Y28250
X24806Y28053
X25217Y28465
X25333Y28612
X25450Y28451
X25554Y28683
X25751Y29273
X25908Y29500
X26066Y29273
X26223Y29500
X26380Y29273
X26538Y29500
X26695Y29273
X26853Y29500
X27010Y29273
X27168Y29500
X27534Y29636
X27777Y29333
X28188Y29431
X28379Y29774
X29129Y29575
X29709Y29474
X29920Y28698
X29380Y28072
X29144Y28151
X28900Y28368
X28743Y28604
X28585Y28368
X28428Y28604
X28270Y28368
X28113Y28604
X27955Y28368
X27798Y28604
X27640Y28368
X27483Y28604
X27325Y28368
X27325Y26824
X27593Y26773
X27124Y26561
X27124Y26356
X27124Y26162
X27124Y25968
X27120Y25691
X27278Y25508
X27581Y25471
X27585Y25666
X27675Y26177
X27034Y26756
X26564Y26618
X25955Y26537
X25836Y26375
X25684Y26246
X25476Y26201
X25521Y26403
X25256Y26404
X25252Y26185
X25254Y25891
X25504Y25958
X25443Y25693
X25509Y25499
X25377Y25352
X25258Y25557
X25986Y25445
X26014Y25651
X25916Y25903
X26254Y25873
X26254Y26068
X26661Y25922
X26655Y25681
X27022Y24679
X27180Y24533
X27435Y24491
X27631Y24559
X27811Y24654
X28379Y24924
X28739Y25226
X28937Y25401
X28514Y25391
X29558Y26191
X29629Y26659
X29625Y27171
X29908Y27120
X27652Y30261
X27859Y30534
X28049Y30764
X26959Y30974
X26843Y30536
X25719Y30374
X24999Y30326
X25275Y29393
X24367Y29455
X23587Y29815
X23046Y28663
X23388Y28250
X23789Y26732
X24034Y26119
X24398Y25812
X23915Y25442
X23455Y26136
X24718Y25000
X24983Y24691
X25343Y24641
X25564Y24481
X25853Y24446
X25829Y24667
X26195Y24592
X26340Y24382
X26585Y24549
X26775Y24390
X25747Y26569
X25585Y26714
X25875Y26746
X26959Y20974
X26843Y20536
X27652Y20261
X27859Y20534
X28049Y20764
X28379Y19774
X28188Y19431
X27777Y19333
X27534Y19636
X27168Y19500
X27010Y19273
X26853Y19500
X26695Y19273
X26538Y19500
X26380Y19273
X26223Y19500
X26066Y19273
X25908Y19500
X25751Y19273
X25554Y18683
X25333Y18612
X25217Y18465
X25450Y18451
X24806Y18053
X24648Y18250
X24491Y18053
X24333Y18250
X24176Y18053
X24018Y18250
X23861Y18053
X23703Y18250
X23546Y18053
X23388Y18250
X23046Y18663
X23587Y19815
X24367Y19455
X24999Y20326
X25719Y20374
X25275Y19393
X27325Y18368
X27483Y18604
X27640Y18368
X27798Y18604
X27955Y18368
X28113Y18604
X28270Y18368
X28428Y18604
X28585Y18368
X28743Y18604
X28900Y18368
X29144Y18151
X29380Y18072
X29920Y18698
X29709Y19474
X29129Y19575
X29625Y17171
X29908Y17120
X29629Y16659
X29558Y16191
X28937Y15401
X28739Y15226
X28514Y15391
X28379Y14924
X27811Y14654
X27631Y14559
X27435Y14491
X27180Y14533
X27022Y14679
X26775Y14390
X26585Y14549
X26340Y14382
X26195Y14592
X25853Y14446
X25829Y14667
X25564Y14481
X25343Y14641
X24983Y14691
X24718Y15000
X25377Y15352
X25509Y15499
X25443Y15693
X25258Y15557
X25254Y15891
X25504Y15958
X25476Y16201
X25521Y16403
X25684Y16246
X25836Y16375
X25955Y16537
X25747Y16569
X25585Y16714
X25875Y16746
X26564Y16618
X27034Y16756
X27124Y16561
X27124Y16356
X27124Y16162
X27124Y15968
X27120Y15691
X27278Y15508
X27581Y15471
X27585Y15666
X27675Y16177
X27593Y16773
X27325Y16824
X26661Y15922
X26655Y15681
X26254Y15873
X26254Y16068
X25916Y15903
X26014Y15651
X25986Y15445
X25252Y16185
X25256Y16404
X24398Y15812
X24034Y16119
X23455Y16136
X23789Y16732
X23211Y17394
X22985Y17226
X23915Y15442
X26959Y10974
X26843Y10536
X27652Y10261
X27859Y10534
X28049Y10764
X28379Y9774
X28188Y9431
X27777Y9333
X27534Y9636
X27168Y9500
X27010Y9273
X26853Y9500
X26695Y9273
X26538Y9500
X26380Y9273
X26223Y9500
X26066Y9273
X25908Y9500
X25751Y9273
X25554Y8683
X25333Y8612
X25217Y8465
X25450Y8451
X24806Y8053
X24648Y8250
X24491Y8053
X24333Y8250
X24176Y8053
X24018Y8250
X23861Y8053
X23703Y8250
X23546Y8053
X23388Y8250
X23046Y8663
X23587Y9815
X24367Y9455
X24999Y10326
X25719Y10374
X25275Y9393
X27325Y8368
X27483Y8604
X27640Y8368
X27798Y8604
X27955Y8368
X28113Y8604
X28270Y8368
X28428Y8604
X28585Y8368
X28743Y8604
X28900Y8368
X29144Y8151
X29380Y8072
X29920Y8698
X29709Y9474
X29129Y9575
X29625Y7171
X29908Y7120
X29629Y6659
X29558Y6191
X28937Y5401
X28739Y5226
X28514Y5391
X28379Y4924
X27811Y4654
X27631Y4559
X27435Y4491
X27180Y4533
X27022Y4679
X26775Y4390
X26585Y4549
X26340Y4382
X26195Y4592
X25853Y4446
X25829Y4667
X25564Y4481
X25343Y4641
X24983Y4691
X24718Y5000
X25377Y5352
X25509Y5499
X25443Y5693
X25258Y5557
X25254Y5891
X25504Y5958
X25476Y6201
X25521Y6403
X25684Y6246
X25836Y6375
X25955Y6537
X25747Y6569
X25585Y6714
X25875Y6746
X26564Y6618
X27034Y6756
X27124Y6561
X27124Y6356
X27124Y6162
X27124Y5968
X27120Y5691
X27278Y5508
X27581Y5471
X27585Y5666
X27675Y6177
X27593Y6773
X27325Y6824
X26661Y5922
X26655Y5681
X26254Y5873
X26254Y6068
X25916Y5903
X26014Y5651
X25986Y5445
X25252Y6185
X25256Y6404
X24398Y5812
X24034Y6119
X23455Y6136
X23789Y6732
X23211Y7394
X22985Y7226
X23915Y5442
X16775Y24390
X16585Y24549
X16340Y24382
X16195Y24592
X15853Y24446
X15829Y24667
X15564Y24481
X15343Y24641
X14983Y24691
X14718Y25000
X13915Y25442
X14398Y25812
X14034Y26119
X13789Y26732
X13455Y26136
X13388Y28250
X13046Y28663
X13587Y29815
X14367Y29455
X14999Y30326
X15719Y30374
X15275Y29393
X16843Y30536
X16959Y30974
X17652Y30261
X17859Y30534
X18049Y30764
X15875Y26746
X15747Y26569
X15585Y26714
T02
X14479Y30224
X15379Y30674
X16279Y31124
X24479Y30224
X25379Y30674
X26279Y31124
X26279Y21124
X25379Y20674
X24479Y20224
X16279Y21124
X15379Y20674
X14479Y20224
X6279Y21124
X5379Y20674
X4479Y20224
X6279Y11124
X5379Y10674
X4479Y10224
X14479Y10224
X15379Y10674
X16279Y11124
X24479Y10224
X25379Y10674
X26279Y11124
X6279Y31124
X5379Y30674
X4479Y30224
M30
