G75*
%MOIN*%
%OFA0B0*%
%FSLAX24Y24*%
%IPPOS*%
%LPD*%
%AMOC8*
5,1,8,0,0,1.08239X$1,22.5*
%
%ADD10C,0.0000*%
%ADD11C,0.0000*%
%ADD12C,0.0060*%
%ADD13C,0.0070*%
%ADD14C,0.0050*%
%ADD15C,0.0315*%
D10*
X000160Y000100D02*
X000160Y035612D01*
X032837Y035612D01*
X032837Y000100D01*
X000160Y000100D01*
X002758Y007423D02*
X002778Y007303D01*
X002801Y007185D01*
X002829Y007067D01*
X002860Y006950D01*
X002895Y006834D01*
X002934Y006719D01*
X002976Y006606D01*
X003022Y006494D01*
X003072Y006384D01*
X003125Y006275D01*
X003182Y006168D01*
X003242Y006063D01*
X003305Y005960D01*
X003372Y005859D01*
X003442Y005761D01*
X003515Y005664D01*
X003591Y005570D01*
X003670Y005479D01*
X003753Y005390D01*
X003838Y005304D01*
X003925Y005220D01*
X004016Y005140D01*
X004109Y005062D01*
X004204Y004988D01*
X004302Y004916D01*
X004402Y004848D01*
X004504Y004783D01*
X004608Y004722D01*
X004714Y004664D01*
X004822Y004609D01*
X004932Y004558D01*
X005043Y004510D01*
X005156Y004466D01*
X005270Y004426D01*
X005385Y004389D01*
X005502Y004357D01*
X005619Y004327D01*
X005737Y004302D01*
X005857Y004281D01*
X005976Y004263D01*
X006097Y004250D01*
X006217Y004240D01*
X006338Y004234D01*
X006459Y004232D01*
X006580Y004234D01*
X006701Y004240D01*
X006821Y004250D01*
X006942Y004263D01*
X007061Y004281D01*
X007181Y004302D01*
X007299Y004327D01*
X007416Y004357D01*
X007533Y004389D01*
X007648Y004426D01*
X007762Y004466D01*
X007875Y004510D01*
X007986Y004558D01*
X008096Y004609D01*
X008204Y004664D01*
X008310Y004722D01*
X008414Y004783D01*
X008516Y004848D01*
X008616Y004916D01*
X008714Y004988D01*
X008809Y005062D01*
X008902Y005140D01*
X008993Y005220D01*
X009080Y005304D01*
X009165Y005390D01*
X009248Y005479D01*
X009327Y005570D01*
X009403Y005664D01*
X009476Y005761D01*
X009546Y005859D01*
X009613Y005960D01*
X009676Y006063D01*
X009736Y006168D01*
X009793Y006275D01*
X009846Y006384D01*
X009896Y006494D01*
X009942Y006606D01*
X009984Y006719D01*
X010023Y006834D01*
X010058Y006950D01*
X010089Y007067D01*
X010117Y007185D01*
X010140Y007303D01*
X010160Y007423D01*
X010160Y008525D02*
X010140Y008645D01*
X010117Y008763D01*
X010089Y008881D01*
X010058Y008998D01*
X010023Y009114D01*
X009984Y009229D01*
X009942Y009342D01*
X009896Y009454D01*
X009846Y009564D01*
X009793Y009673D01*
X009736Y009780D01*
X009676Y009885D01*
X009613Y009988D01*
X009546Y010089D01*
X009476Y010187D01*
X009403Y010284D01*
X009327Y010378D01*
X009248Y010469D01*
X009165Y010558D01*
X009080Y010644D01*
X008993Y010728D01*
X008902Y010808D01*
X008809Y010886D01*
X008714Y010960D01*
X008616Y011032D01*
X008516Y011100D01*
X008414Y011165D01*
X008310Y011226D01*
X008204Y011284D01*
X008096Y011339D01*
X007986Y011390D01*
X007875Y011438D01*
X007762Y011482D01*
X007648Y011522D01*
X007533Y011559D01*
X007416Y011591D01*
X007299Y011621D01*
X007181Y011646D01*
X007061Y011667D01*
X006942Y011685D01*
X006821Y011698D01*
X006701Y011708D01*
X006580Y011714D01*
X006459Y011716D01*
X006338Y011714D01*
X006217Y011708D01*
X006097Y011698D01*
X005976Y011685D01*
X005857Y011667D01*
X005737Y011646D01*
X005619Y011621D01*
X005502Y011591D01*
X005385Y011559D01*
X005270Y011522D01*
X005156Y011482D01*
X005043Y011438D01*
X004932Y011390D01*
X004822Y011339D01*
X004714Y011284D01*
X004608Y011226D01*
X004504Y011165D01*
X004402Y011100D01*
X004302Y011032D01*
X004204Y010960D01*
X004109Y010886D01*
X004016Y010808D01*
X003925Y010728D01*
X003838Y010644D01*
X003753Y010558D01*
X003670Y010469D01*
X003591Y010378D01*
X003515Y010284D01*
X003442Y010187D01*
X003372Y010089D01*
X003305Y009988D01*
X003242Y009885D01*
X003182Y009780D01*
X003125Y009673D01*
X003072Y009564D01*
X003022Y009454D01*
X002976Y009342D01*
X002934Y009229D01*
X002895Y009114D01*
X002860Y008998D01*
X002829Y008881D01*
X002801Y008763D01*
X002778Y008645D01*
X002758Y008525D01*
X002758Y017423D02*
X002778Y017303D01*
X002801Y017185D01*
X002829Y017067D01*
X002860Y016950D01*
X002895Y016834D01*
X002934Y016719D01*
X002976Y016606D01*
X003022Y016494D01*
X003072Y016384D01*
X003125Y016275D01*
X003182Y016168D01*
X003242Y016063D01*
X003305Y015960D01*
X003372Y015859D01*
X003442Y015761D01*
X003515Y015664D01*
X003591Y015570D01*
X003670Y015479D01*
X003753Y015390D01*
X003838Y015304D01*
X003925Y015220D01*
X004016Y015140D01*
X004109Y015062D01*
X004204Y014988D01*
X004302Y014916D01*
X004402Y014848D01*
X004504Y014783D01*
X004608Y014722D01*
X004714Y014664D01*
X004822Y014609D01*
X004932Y014558D01*
X005043Y014510D01*
X005156Y014466D01*
X005270Y014426D01*
X005385Y014389D01*
X005502Y014357D01*
X005619Y014327D01*
X005737Y014302D01*
X005857Y014281D01*
X005976Y014263D01*
X006097Y014250D01*
X006217Y014240D01*
X006338Y014234D01*
X006459Y014232D01*
X006580Y014234D01*
X006701Y014240D01*
X006821Y014250D01*
X006942Y014263D01*
X007061Y014281D01*
X007181Y014302D01*
X007299Y014327D01*
X007416Y014357D01*
X007533Y014389D01*
X007648Y014426D01*
X007762Y014466D01*
X007875Y014510D01*
X007986Y014558D01*
X008096Y014609D01*
X008204Y014664D01*
X008310Y014722D01*
X008414Y014783D01*
X008516Y014848D01*
X008616Y014916D01*
X008714Y014988D01*
X008809Y015062D01*
X008902Y015140D01*
X008993Y015220D01*
X009080Y015304D01*
X009165Y015390D01*
X009248Y015479D01*
X009327Y015570D01*
X009403Y015664D01*
X009476Y015761D01*
X009546Y015859D01*
X009613Y015960D01*
X009676Y016063D01*
X009736Y016168D01*
X009793Y016275D01*
X009846Y016384D01*
X009896Y016494D01*
X009942Y016606D01*
X009984Y016719D01*
X010023Y016834D01*
X010058Y016950D01*
X010089Y017067D01*
X010117Y017185D01*
X010140Y017303D01*
X010160Y017423D01*
X010160Y018525D02*
X010140Y018645D01*
X010117Y018763D01*
X010089Y018881D01*
X010058Y018998D01*
X010023Y019114D01*
X009984Y019229D01*
X009942Y019342D01*
X009896Y019454D01*
X009846Y019564D01*
X009793Y019673D01*
X009736Y019780D01*
X009676Y019885D01*
X009613Y019988D01*
X009546Y020089D01*
X009476Y020187D01*
X009403Y020284D01*
X009327Y020378D01*
X009248Y020469D01*
X009165Y020558D01*
X009080Y020644D01*
X008993Y020728D01*
X008902Y020808D01*
X008809Y020886D01*
X008714Y020960D01*
X008616Y021032D01*
X008516Y021100D01*
X008414Y021165D01*
X008310Y021226D01*
X008204Y021284D01*
X008096Y021339D01*
X007986Y021390D01*
X007875Y021438D01*
X007762Y021482D01*
X007648Y021522D01*
X007533Y021559D01*
X007416Y021591D01*
X007299Y021621D01*
X007181Y021646D01*
X007061Y021667D01*
X006942Y021685D01*
X006821Y021698D01*
X006701Y021708D01*
X006580Y021714D01*
X006459Y021716D01*
X006338Y021714D01*
X006217Y021708D01*
X006097Y021698D01*
X005976Y021685D01*
X005857Y021667D01*
X005737Y021646D01*
X005619Y021621D01*
X005502Y021591D01*
X005385Y021559D01*
X005270Y021522D01*
X005156Y021482D01*
X005043Y021438D01*
X004932Y021390D01*
X004822Y021339D01*
X004714Y021284D01*
X004608Y021226D01*
X004504Y021165D01*
X004402Y021100D01*
X004302Y021032D01*
X004204Y020960D01*
X004109Y020886D01*
X004016Y020808D01*
X003925Y020728D01*
X003838Y020644D01*
X003753Y020558D01*
X003670Y020469D01*
X003591Y020378D01*
X003515Y020284D01*
X003442Y020187D01*
X003372Y020089D01*
X003305Y019988D01*
X003242Y019885D01*
X003182Y019780D01*
X003125Y019673D01*
X003072Y019564D01*
X003022Y019454D01*
X002976Y019342D01*
X002934Y019229D01*
X002895Y019114D01*
X002860Y018998D01*
X002829Y018881D01*
X002801Y018763D01*
X002778Y018645D01*
X002758Y018525D01*
X002758Y027423D02*
X002778Y027303D01*
X002801Y027185D01*
X002829Y027067D01*
X002860Y026950D01*
X002895Y026834D01*
X002934Y026719D01*
X002976Y026606D01*
X003022Y026494D01*
X003072Y026384D01*
X003125Y026275D01*
X003182Y026168D01*
X003242Y026063D01*
X003305Y025960D01*
X003372Y025859D01*
X003442Y025761D01*
X003515Y025664D01*
X003591Y025570D01*
X003670Y025479D01*
X003753Y025390D01*
X003838Y025304D01*
X003925Y025220D01*
X004016Y025140D01*
X004109Y025062D01*
X004204Y024988D01*
X004302Y024916D01*
X004402Y024848D01*
X004504Y024783D01*
X004608Y024722D01*
X004714Y024664D01*
X004822Y024609D01*
X004932Y024558D01*
X005043Y024510D01*
X005156Y024466D01*
X005270Y024426D01*
X005385Y024389D01*
X005502Y024357D01*
X005619Y024327D01*
X005737Y024302D01*
X005857Y024281D01*
X005976Y024263D01*
X006097Y024250D01*
X006217Y024240D01*
X006338Y024234D01*
X006459Y024232D01*
X006580Y024234D01*
X006701Y024240D01*
X006821Y024250D01*
X006942Y024263D01*
X007061Y024281D01*
X007181Y024302D01*
X007299Y024327D01*
X007416Y024357D01*
X007533Y024389D01*
X007648Y024426D01*
X007762Y024466D01*
X007875Y024510D01*
X007986Y024558D01*
X008096Y024609D01*
X008204Y024664D01*
X008310Y024722D01*
X008414Y024783D01*
X008516Y024848D01*
X008616Y024916D01*
X008714Y024988D01*
X008809Y025062D01*
X008902Y025140D01*
X008993Y025220D01*
X009080Y025304D01*
X009165Y025390D01*
X009248Y025479D01*
X009327Y025570D01*
X009403Y025664D01*
X009476Y025761D01*
X009546Y025859D01*
X009613Y025960D01*
X009676Y026063D01*
X009736Y026168D01*
X009793Y026275D01*
X009846Y026384D01*
X009896Y026494D01*
X009942Y026606D01*
X009984Y026719D01*
X010023Y026834D01*
X010058Y026950D01*
X010089Y027067D01*
X010117Y027185D01*
X010140Y027303D01*
X010160Y027423D01*
X010160Y028525D02*
X010140Y028645D01*
X010117Y028763D01*
X010089Y028881D01*
X010058Y028998D01*
X010023Y029114D01*
X009984Y029229D01*
X009942Y029342D01*
X009896Y029454D01*
X009846Y029564D01*
X009793Y029673D01*
X009736Y029780D01*
X009676Y029885D01*
X009613Y029988D01*
X009546Y030089D01*
X009476Y030187D01*
X009403Y030284D01*
X009327Y030378D01*
X009248Y030469D01*
X009165Y030558D01*
X009080Y030644D01*
X008993Y030728D01*
X008902Y030808D01*
X008809Y030886D01*
X008714Y030960D01*
X008616Y031032D01*
X008516Y031100D01*
X008414Y031165D01*
X008310Y031226D01*
X008204Y031284D01*
X008096Y031339D01*
X007986Y031390D01*
X007875Y031438D01*
X007762Y031482D01*
X007648Y031522D01*
X007533Y031559D01*
X007416Y031591D01*
X007299Y031621D01*
X007181Y031646D01*
X007061Y031667D01*
X006942Y031685D01*
X006821Y031698D01*
X006701Y031708D01*
X006580Y031714D01*
X006459Y031716D01*
X006338Y031714D01*
X006217Y031708D01*
X006097Y031698D01*
X005976Y031685D01*
X005857Y031667D01*
X005737Y031646D01*
X005619Y031621D01*
X005502Y031591D01*
X005385Y031559D01*
X005270Y031522D01*
X005156Y031482D01*
X005043Y031438D01*
X004932Y031390D01*
X004822Y031339D01*
X004714Y031284D01*
X004608Y031226D01*
X004504Y031165D01*
X004402Y031100D01*
X004302Y031032D01*
X004204Y030960D01*
X004109Y030886D01*
X004016Y030808D01*
X003925Y030728D01*
X003838Y030644D01*
X003753Y030558D01*
X003670Y030469D01*
X003591Y030378D01*
X003515Y030284D01*
X003442Y030187D01*
X003372Y030089D01*
X003305Y029988D01*
X003242Y029885D01*
X003182Y029780D01*
X003125Y029673D01*
X003072Y029564D01*
X003022Y029454D01*
X002976Y029342D01*
X002934Y029229D01*
X002895Y029114D01*
X002860Y028998D01*
X002829Y028881D01*
X002801Y028763D01*
X002778Y028645D01*
X002758Y028525D01*
X012758Y027423D02*
X012778Y027303D01*
X012801Y027185D01*
X012829Y027067D01*
X012860Y026950D01*
X012895Y026834D01*
X012934Y026719D01*
X012976Y026606D01*
X013022Y026494D01*
X013072Y026384D01*
X013125Y026275D01*
X013182Y026168D01*
X013242Y026063D01*
X013305Y025960D01*
X013372Y025859D01*
X013442Y025761D01*
X013515Y025664D01*
X013591Y025570D01*
X013670Y025479D01*
X013753Y025390D01*
X013838Y025304D01*
X013925Y025220D01*
X014016Y025140D01*
X014109Y025062D01*
X014204Y024988D01*
X014302Y024916D01*
X014402Y024848D01*
X014504Y024783D01*
X014608Y024722D01*
X014714Y024664D01*
X014822Y024609D01*
X014932Y024558D01*
X015043Y024510D01*
X015156Y024466D01*
X015270Y024426D01*
X015385Y024389D01*
X015502Y024357D01*
X015619Y024327D01*
X015737Y024302D01*
X015857Y024281D01*
X015976Y024263D01*
X016097Y024250D01*
X016217Y024240D01*
X016338Y024234D01*
X016459Y024232D01*
X016580Y024234D01*
X016701Y024240D01*
X016821Y024250D01*
X016942Y024263D01*
X017061Y024281D01*
X017181Y024302D01*
X017299Y024327D01*
X017416Y024357D01*
X017533Y024389D01*
X017648Y024426D01*
X017762Y024466D01*
X017875Y024510D01*
X017986Y024558D01*
X018096Y024609D01*
X018204Y024664D01*
X018310Y024722D01*
X018414Y024783D01*
X018516Y024848D01*
X018616Y024916D01*
X018714Y024988D01*
X018809Y025062D01*
X018902Y025140D01*
X018993Y025220D01*
X019080Y025304D01*
X019165Y025390D01*
X019248Y025479D01*
X019327Y025570D01*
X019403Y025664D01*
X019476Y025761D01*
X019546Y025859D01*
X019613Y025960D01*
X019676Y026063D01*
X019736Y026168D01*
X019793Y026275D01*
X019846Y026384D01*
X019896Y026494D01*
X019942Y026606D01*
X019984Y026719D01*
X020023Y026834D01*
X020058Y026950D01*
X020089Y027067D01*
X020117Y027185D01*
X020140Y027303D01*
X020160Y027423D01*
X020160Y028525D02*
X020140Y028645D01*
X020117Y028763D01*
X020089Y028881D01*
X020058Y028998D01*
X020023Y029114D01*
X019984Y029229D01*
X019942Y029342D01*
X019896Y029454D01*
X019846Y029564D01*
X019793Y029673D01*
X019736Y029780D01*
X019676Y029885D01*
X019613Y029988D01*
X019546Y030089D01*
X019476Y030187D01*
X019403Y030284D01*
X019327Y030378D01*
X019248Y030469D01*
X019165Y030558D01*
X019080Y030644D01*
X018993Y030728D01*
X018902Y030808D01*
X018809Y030886D01*
X018714Y030960D01*
X018616Y031032D01*
X018516Y031100D01*
X018414Y031165D01*
X018310Y031226D01*
X018204Y031284D01*
X018096Y031339D01*
X017986Y031390D01*
X017875Y031438D01*
X017762Y031482D01*
X017648Y031522D01*
X017533Y031559D01*
X017416Y031591D01*
X017299Y031621D01*
X017181Y031646D01*
X017061Y031667D01*
X016942Y031685D01*
X016821Y031698D01*
X016701Y031708D01*
X016580Y031714D01*
X016459Y031716D01*
X016338Y031714D01*
X016217Y031708D01*
X016097Y031698D01*
X015976Y031685D01*
X015857Y031667D01*
X015737Y031646D01*
X015619Y031621D01*
X015502Y031591D01*
X015385Y031559D01*
X015270Y031522D01*
X015156Y031482D01*
X015043Y031438D01*
X014932Y031390D01*
X014822Y031339D01*
X014714Y031284D01*
X014608Y031226D01*
X014504Y031165D01*
X014402Y031100D01*
X014302Y031032D01*
X014204Y030960D01*
X014109Y030886D01*
X014016Y030808D01*
X013925Y030728D01*
X013838Y030644D01*
X013753Y030558D01*
X013670Y030469D01*
X013591Y030378D01*
X013515Y030284D01*
X013442Y030187D01*
X013372Y030089D01*
X013305Y029988D01*
X013242Y029885D01*
X013182Y029780D01*
X013125Y029673D01*
X013072Y029564D01*
X013022Y029454D01*
X012976Y029342D01*
X012934Y029229D01*
X012895Y029114D01*
X012860Y028998D01*
X012829Y028881D01*
X012801Y028763D01*
X012778Y028645D01*
X012758Y028525D01*
X012758Y018525D02*
X012778Y018645D01*
X012801Y018763D01*
X012829Y018881D01*
X012860Y018998D01*
X012895Y019114D01*
X012934Y019229D01*
X012976Y019342D01*
X013022Y019454D01*
X013072Y019564D01*
X013125Y019673D01*
X013182Y019780D01*
X013242Y019885D01*
X013305Y019988D01*
X013372Y020089D01*
X013442Y020187D01*
X013515Y020284D01*
X013591Y020378D01*
X013670Y020469D01*
X013753Y020558D01*
X013838Y020644D01*
X013925Y020728D01*
X014016Y020808D01*
X014109Y020886D01*
X014204Y020960D01*
X014302Y021032D01*
X014402Y021100D01*
X014504Y021165D01*
X014608Y021226D01*
X014714Y021284D01*
X014822Y021339D01*
X014932Y021390D01*
X015043Y021438D01*
X015156Y021482D01*
X015270Y021522D01*
X015385Y021559D01*
X015502Y021591D01*
X015619Y021621D01*
X015737Y021646D01*
X015857Y021667D01*
X015976Y021685D01*
X016097Y021698D01*
X016217Y021708D01*
X016338Y021714D01*
X016459Y021716D01*
X016580Y021714D01*
X016701Y021708D01*
X016821Y021698D01*
X016942Y021685D01*
X017061Y021667D01*
X017181Y021646D01*
X017299Y021621D01*
X017416Y021591D01*
X017533Y021559D01*
X017648Y021522D01*
X017762Y021482D01*
X017875Y021438D01*
X017986Y021390D01*
X018096Y021339D01*
X018204Y021284D01*
X018310Y021226D01*
X018414Y021165D01*
X018516Y021100D01*
X018616Y021032D01*
X018714Y020960D01*
X018809Y020886D01*
X018902Y020808D01*
X018993Y020728D01*
X019080Y020644D01*
X019165Y020558D01*
X019248Y020469D01*
X019327Y020378D01*
X019403Y020284D01*
X019476Y020187D01*
X019546Y020089D01*
X019613Y019988D01*
X019676Y019885D01*
X019736Y019780D01*
X019793Y019673D01*
X019846Y019564D01*
X019896Y019454D01*
X019942Y019342D01*
X019984Y019229D01*
X020023Y019114D01*
X020058Y018998D01*
X020089Y018881D01*
X020117Y018763D01*
X020140Y018645D01*
X020160Y018525D01*
X020160Y017423D02*
X020140Y017303D01*
X020117Y017185D01*
X020089Y017067D01*
X020058Y016950D01*
X020023Y016834D01*
X019984Y016719D01*
X019942Y016606D01*
X019896Y016494D01*
X019846Y016384D01*
X019793Y016275D01*
X019736Y016168D01*
X019676Y016063D01*
X019613Y015960D01*
X019546Y015859D01*
X019476Y015761D01*
X019403Y015664D01*
X019327Y015570D01*
X019248Y015479D01*
X019165Y015390D01*
X019080Y015304D01*
X018993Y015220D01*
X018902Y015140D01*
X018809Y015062D01*
X018714Y014988D01*
X018616Y014916D01*
X018516Y014848D01*
X018414Y014783D01*
X018310Y014722D01*
X018204Y014664D01*
X018096Y014609D01*
X017986Y014558D01*
X017875Y014510D01*
X017762Y014466D01*
X017648Y014426D01*
X017533Y014389D01*
X017416Y014357D01*
X017299Y014327D01*
X017181Y014302D01*
X017061Y014281D01*
X016942Y014263D01*
X016821Y014250D01*
X016701Y014240D01*
X016580Y014234D01*
X016459Y014232D01*
X016338Y014234D01*
X016217Y014240D01*
X016097Y014250D01*
X015976Y014263D01*
X015857Y014281D01*
X015737Y014302D01*
X015619Y014327D01*
X015502Y014357D01*
X015385Y014389D01*
X015270Y014426D01*
X015156Y014466D01*
X015043Y014510D01*
X014932Y014558D01*
X014822Y014609D01*
X014714Y014664D01*
X014608Y014722D01*
X014504Y014783D01*
X014402Y014848D01*
X014302Y014916D01*
X014204Y014988D01*
X014109Y015062D01*
X014016Y015140D01*
X013925Y015220D01*
X013838Y015304D01*
X013753Y015390D01*
X013670Y015479D01*
X013591Y015570D01*
X013515Y015664D01*
X013442Y015761D01*
X013372Y015859D01*
X013305Y015960D01*
X013242Y016063D01*
X013182Y016168D01*
X013125Y016275D01*
X013072Y016384D01*
X013022Y016494D01*
X012976Y016606D01*
X012934Y016719D01*
X012895Y016834D01*
X012860Y016950D01*
X012829Y017067D01*
X012801Y017185D01*
X012778Y017303D01*
X012758Y017423D01*
X012758Y008525D02*
X012778Y008645D01*
X012801Y008763D01*
X012829Y008881D01*
X012860Y008998D01*
X012895Y009114D01*
X012934Y009229D01*
X012976Y009342D01*
X013022Y009454D01*
X013072Y009564D01*
X013125Y009673D01*
X013182Y009780D01*
X013242Y009885D01*
X013305Y009988D01*
X013372Y010089D01*
X013442Y010187D01*
X013515Y010284D01*
X013591Y010378D01*
X013670Y010469D01*
X013753Y010558D01*
X013838Y010644D01*
X013925Y010728D01*
X014016Y010808D01*
X014109Y010886D01*
X014204Y010960D01*
X014302Y011032D01*
X014402Y011100D01*
X014504Y011165D01*
X014608Y011226D01*
X014714Y011284D01*
X014822Y011339D01*
X014932Y011390D01*
X015043Y011438D01*
X015156Y011482D01*
X015270Y011522D01*
X015385Y011559D01*
X015502Y011591D01*
X015619Y011621D01*
X015737Y011646D01*
X015857Y011667D01*
X015976Y011685D01*
X016097Y011698D01*
X016217Y011708D01*
X016338Y011714D01*
X016459Y011716D01*
X016580Y011714D01*
X016701Y011708D01*
X016821Y011698D01*
X016942Y011685D01*
X017061Y011667D01*
X017181Y011646D01*
X017299Y011621D01*
X017416Y011591D01*
X017533Y011559D01*
X017648Y011522D01*
X017762Y011482D01*
X017875Y011438D01*
X017986Y011390D01*
X018096Y011339D01*
X018204Y011284D01*
X018310Y011226D01*
X018414Y011165D01*
X018516Y011100D01*
X018616Y011032D01*
X018714Y010960D01*
X018809Y010886D01*
X018902Y010808D01*
X018993Y010728D01*
X019080Y010644D01*
X019165Y010558D01*
X019248Y010469D01*
X019327Y010378D01*
X019403Y010284D01*
X019476Y010187D01*
X019546Y010089D01*
X019613Y009988D01*
X019676Y009885D01*
X019736Y009780D01*
X019793Y009673D01*
X019846Y009564D01*
X019896Y009454D01*
X019942Y009342D01*
X019984Y009229D01*
X020023Y009114D01*
X020058Y008998D01*
X020089Y008881D01*
X020117Y008763D01*
X020140Y008645D01*
X020160Y008525D01*
X020160Y007423D02*
X020140Y007303D01*
X020117Y007185D01*
X020089Y007067D01*
X020058Y006950D01*
X020023Y006834D01*
X019984Y006719D01*
X019942Y006606D01*
X019896Y006494D01*
X019846Y006384D01*
X019793Y006275D01*
X019736Y006168D01*
X019676Y006063D01*
X019613Y005960D01*
X019546Y005859D01*
X019476Y005761D01*
X019403Y005664D01*
X019327Y005570D01*
X019248Y005479D01*
X019165Y005390D01*
X019080Y005304D01*
X018993Y005220D01*
X018902Y005140D01*
X018809Y005062D01*
X018714Y004988D01*
X018616Y004916D01*
X018516Y004848D01*
X018414Y004783D01*
X018310Y004722D01*
X018204Y004664D01*
X018096Y004609D01*
X017986Y004558D01*
X017875Y004510D01*
X017762Y004466D01*
X017648Y004426D01*
X017533Y004389D01*
X017416Y004357D01*
X017299Y004327D01*
X017181Y004302D01*
X017061Y004281D01*
X016942Y004263D01*
X016821Y004250D01*
X016701Y004240D01*
X016580Y004234D01*
X016459Y004232D01*
X016338Y004234D01*
X016217Y004240D01*
X016097Y004250D01*
X015976Y004263D01*
X015857Y004281D01*
X015737Y004302D01*
X015619Y004327D01*
X015502Y004357D01*
X015385Y004389D01*
X015270Y004426D01*
X015156Y004466D01*
X015043Y004510D01*
X014932Y004558D01*
X014822Y004609D01*
X014714Y004664D01*
X014608Y004722D01*
X014504Y004783D01*
X014402Y004848D01*
X014302Y004916D01*
X014204Y004988D01*
X014109Y005062D01*
X014016Y005140D01*
X013925Y005220D01*
X013838Y005304D01*
X013753Y005390D01*
X013670Y005479D01*
X013591Y005570D01*
X013515Y005664D01*
X013442Y005761D01*
X013372Y005859D01*
X013305Y005960D01*
X013242Y006063D01*
X013182Y006168D01*
X013125Y006275D01*
X013072Y006384D01*
X013022Y006494D01*
X012976Y006606D01*
X012934Y006719D01*
X012895Y006834D01*
X012860Y006950D01*
X012829Y007067D01*
X012801Y007185D01*
X012778Y007303D01*
X012758Y007423D01*
X022758Y007423D02*
X022778Y007303D01*
X022801Y007185D01*
X022829Y007067D01*
X022860Y006950D01*
X022895Y006834D01*
X022934Y006719D01*
X022976Y006606D01*
X023022Y006494D01*
X023072Y006384D01*
X023125Y006275D01*
X023182Y006168D01*
X023242Y006063D01*
X023305Y005960D01*
X023372Y005859D01*
X023442Y005761D01*
X023515Y005664D01*
X023591Y005570D01*
X023670Y005479D01*
X023753Y005390D01*
X023838Y005304D01*
X023925Y005220D01*
X024016Y005140D01*
X024109Y005062D01*
X024204Y004988D01*
X024302Y004916D01*
X024402Y004848D01*
X024504Y004783D01*
X024608Y004722D01*
X024714Y004664D01*
X024822Y004609D01*
X024932Y004558D01*
X025043Y004510D01*
X025156Y004466D01*
X025270Y004426D01*
X025385Y004389D01*
X025502Y004357D01*
X025619Y004327D01*
X025737Y004302D01*
X025857Y004281D01*
X025976Y004263D01*
X026097Y004250D01*
X026217Y004240D01*
X026338Y004234D01*
X026459Y004232D01*
X026580Y004234D01*
X026701Y004240D01*
X026821Y004250D01*
X026942Y004263D01*
X027061Y004281D01*
X027181Y004302D01*
X027299Y004327D01*
X027416Y004357D01*
X027533Y004389D01*
X027648Y004426D01*
X027762Y004466D01*
X027875Y004510D01*
X027986Y004558D01*
X028096Y004609D01*
X028204Y004664D01*
X028310Y004722D01*
X028414Y004783D01*
X028516Y004848D01*
X028616Y004916D01*
X028714Y004988D01*
X028809Y005062D01*
X028902Y005140D01*
X028993Y005220D01*
X029080Y005304D01*
X029165Y005390D01*
X029248Y005479D01*
X029327Y005570D01*
X029403Y005664D01*
X029476Y005761D01*
X029546Y005859D01*
X029613Y005960D01*
X029676Y006063D01*
X029736Y006168D01*
X029793Y006275D01*
X029846Y006384D01*
X029896Y006494D01*
X029942Y006606D01*
X029984Y006719D01*
X030023Y006834D01*
X030058Y006950D01*
X030089Y007067D01*
X030117Y007185D01*
X030140Y007303D01*
X030160Y007423D01*
X030160Y008525D02*
X030140Y008645D01*
X030117Y008763D01*
X030089Y008881D01*
X030058Y008998D01*
X030023Y009114D01*
X029984Y009229D01*
X029942Y009342D01*
X029896Y009454D01*
X029846Y009564D01*
X029793Y009673D01*
X029736Y009780D01*
X029676Y009885D01*
X029613Y009988D01*
X029546Y010089D01*
X029476Y010187D01*
X029403Y010284D01*
X029327Y010378D01*
X029248Y010469D01*
X029165Y010558D01*
X029080Y010644D01*
X028993Y010728D01*
X028902Y010808D01*
X028809Y010886D01*
X028714Y010960D01*
X028616Y011032D01*
X028516Y011100D01*
X028414Y011165D01*
X028310Y011226D01*
X028204Y011284D01*
X028096Y011339D01*
X027986Y011390D01*
X027875Y011438D01*
X027762Y011482D01*
X027648Y011522D01*
X027533Y011559D01*
X027416Y011591D01*
X027299Y011621D01*
X027181Y011646D01*
X027061Y011667D01*
X026942Y011685D01*
X026821Y011698D01*
X026701Y011708D01*
X026580Y011714D01*
X026459Y011716D01*
X026338Y011714D01*
X026217Y011708D01*
X026097Y011698D01*
X025976Y011685D01*
X025857Y011667D01*
X025737Y011646D01*
X025619Y011621D01*
X025502Y011591D01*
X025385Y011559D01*
X025270Y011522D01*
X025156Y011482D01*
X025043Y011438D01*
X024932Y011390D01*
X024822Y011339D01*
X024714Y011284D01*
X024608Y011226D01*
X024504Y011165D01*
X024402Y011100D01*
X024302Y011032D01*
X024204Y010960D01*
X024109Y010886D01*
X024016Y010808D01*
X023925Y010728D01*
X023838Y010644D01*
X023753Y010558D01*
X023670Y010469D01*
X023591Y010378D01*
X023515Y010284D01*
X023442Y010187D01*
X023372Y010089D01*
X023305Y009988D01*
X023242Y009885D01*
X023182Y009780D01*
X023125Y009673D01*
X023072Y009564D01*
X023022Y009454D01*
X022976Y009342D01*
X022934Y009229D01*
X022895Y009114D01*
X022860Y008998D01*
X022829Y008881D01*
X022801Y008763D01*
X022778Y008645D01*
X022758Y008525D01*
X022758Y017423D02*
X022778Y017303D01*
X022801Y017185D01*
X022829Y017067D01*
X022860Y016950D01*
X022895Y016834D01*
X022934Y016719D01*
X022976Y016606D01*
X023022Y016494D01*
X023072Y016384D01*
X023125Y016275D01*
X023182Y016168D01*
X023242Y016063D01*
X023305Y015960D01*
X023372Y015859D01*
X023442Y015761D01*
X023515Y015664D01*
X023591Y015570D01*
X023670Y015479D01*
X023753Y015390D01*
X023838Y015304D01*
X023925Y015220D01*
X024016Y015140D01*
X024109Y015062D01*
X024204Y014988D01*
X024302Y014916D01*
X024402Y014848D01*
X024504Y014783D01*
X024608Y014722D01*
X024714Y014664D01*
X024822Y014609D01*
X024932Y014558D01*
X025043Y014510D01*
X025156Y014466D01*
X025270Y014426D01*
X025385Y014389D01*
X025502Y014357D01*
X025619Y014327D01*
X025737Y014302D01*
X025857Y014281D01*
X025976Y014263D01*
X026097Y014250D01*
X026217Y014240D01*
X026338Y014234D01*
X026459Y014232D01*
X026580Y014234D01*
X026701Y014240D01*
X026821Y014250D01*
X026942Y014263D01*
X027061Y014281D01*
X027181Y014302D01*
X027299Y014327D01*
X027416Y014357D01*
X027533Y014389D01*
X027648Y014426D01*
X027762Y014466D01*
X027875Y014510D01*
X027986Y014558D01*
X028096Y014609D01*
X028204Y014664D01*
X028310Y014722D01*
X028414Y014783D01*
X028516Y014848D01*
X028616Y014916D01*
X028714Y014988D01*
X028809Y015062D01*
X028902Y015140D01*
X028993Y015220D01*
X029080Y015304D01*
X029165Y015390D01*
X029248Y015479D01*
X029327Y015570D01*
X029403Y015664D01*
X029476Y015761D01*
X029546Y015859D01*
X029613Y015960D01*
X029676Y016063D01*
X029736Y016168D01*
X029793Y016275D01*
X029846Y016384D01*
X029896Y016494D01*
X029942Y016606D01*
X029984Y016719D01*
X030023Y016834D01*
X030058Y016950D01*
X030089Y017067D01*
X030117Y017185D01*
X030140Y017303D01*
X030160Y017423D01*
X030160Y018525D02*
X030140Y018645D01*
X030117Y018763D01*
X030089Y018881D01*
X030058Y018998D01*
X030023Y019114D01*
X029984Y019229D01*
X029942Y019342D01*
X029896Y019454D01*
X029846Y019564D01*
X029793Y019673D01*
X029736Y019780D01*
X029676Y019885D01*
X029613Y019988D01*
X029546Y020089D01*
X029476Y020187D01*
X029403Y020284D01*
X029327Y020378D01*
X029248Y020469D01*
X029165Y020558D01*
X029080Y020644D01*
X028993Y020728D01*
X028902Y020808D01*
X028809Y020886D01*
X028714Y020960D01*
X028616Y021032D01*
X028516Y021100D01*
X028414Y021165D01*
X028310Y021226D01*
X028204Y021284D01*
X028096Y021339D01*
X027986Y021390D01*
X027875Y021438D01*
X027762Y021482D01*
X027648Y021522D01*
X027533Y021559D01*
X027416Y021591D01*
X027299Y021621D01*
X027181Y021646D01*
X027061Y021667D01*
X026942Y021685D01*
X026821Y021698D01*
X026701Y021708D01*
X026580Y021714D01*
X026459Y021716D01*
X026338Y021714D01*
X026217Y021708D01*
X026097Y021698D01*
X025976Y021685D01*
X025857Y021667D01*
X025737Y021646D01*
X025619Y021621D01*
X025502Y021591D01*
X025385Y021559D01*
X025270Y021522D01*
X025156Y021482D01*
X025043Y021438D01*
X024932Y021390D01*
X024822Y021339D01*
X024714Y021284D01*
X024608Y021226D01*
X024504Y021165D01*
X024402Y021100D01*
X024302Y021032D01*
X024204Y020960D01*
X024109Y020886D01*
X024016Y020808D01*
X023925Y020728D01*
X023838Y020644D01*
X023753Y020558D01*
X023670Y020469D01*
X023591Y020378D01*
X023515Y020284D01*
X023442Y020187D01*
X023372Y020089D01*
X023305Y019988D01*
X023242Y019885D01*
X023182Y019780D01*
X023125Y019673D01*
X023072Y019564D01*
X023022Y019454D01*
X022976Y019342D01*
X022934Y019229D01*
X022895Y019114D01*
X022860Y018998D01*
X022829Y018881D01*
X022801Y018763D01*
X022778Y018645D01*
X022758Y018525D01*
X022758Y027423D02*
X022778Y027303D01*
X022801Y027185D01*
X022829Y027067D01*
X022860Y026950D01*
X022895Y026834D01*
X022934Y026719D01*
X022976Y026606D01*
X023022Y026494D01*
X023072Y026384D01*
X023125Y026275D01*
X023182Y026168D01*
X023242Y026063D01*
X023305Y025960D01*
X023372Y025859D01*
X023442Y025761D01*
X023515Y025664D01*
X023591Y025570D01*
X023670Y025479D01*
X023753Y025390D01*
X023838Y025304D01*
X023925Y025220D01*
X024016Y025140D01*
X024109Y025062D01*
X024204Y024988D01*
X024302Y024916D01*
X024402Y024848D01*
X024504Y024783D01*
X024608Y024722D01*
X024714Y024664D01*
X024822Y024609D01*
X024932Y024558D01*
X025043Y024510D01*
X025156Y024466D01*
X025270Y024426D01*
X025385Y024389D01*
X025502Y024357D01*
X025619Y024327D01*
X025737Y024302D01*
X025857Y024281D01*
X025976Y024263D01*
X026097Y024250D01*
X026217Y024240D01*
X026338Y024234D01*
X026459Y024232D01*
X026580Y024234D01*
X026701Y024240D01*
X026821Y024250D01*
X026942Y024263D01*
X027061Y024281D01*
X027181Y024302D01*
X027299Y024327D01*
X027416Y024357D01*
X027533Y024389D01*
X027648Y024426D01*
X027762Y024466D01*
X027875Y024510D01*
X027986Y024558D01*
X028096Y024609D01*
X028204Y024664D01*
X028310Y024722D01*
X028414Y024783D01*
X028516Y024848D01*
X028616Y024916D01*
X028714Y024988D01*
X028809Y025062D01*
X028902Y025140D01*
X028993Y025220D01*
X029080Y025304D01*
X029165Y025390D01*
X029248Y025479D01*
X029327Y025570D01*
X029403Y025664D01*
X029476Y025761D01*
X029546Y025859D01*
X029613Y025960D01*
X029676Y026063D01*
X029736Y026168D01*
X029793Y026275D01*
X029846Y026384D01*
X029896Y026494D01*
X029942Y026606D01*
X029984Y026719D01*
X030023Y026834D01*
X030058Y026950D01*
X030089Y027067D01*
X030117Y027185D01*
X030140Y027303D01*
X030160Y027423D01*
X030160Y028525D02*
X030140Y028645D01*
X030117Y028763D01*
X030089Y028881D01*
X030058Y028998D01*
X030023Y029114D01*
X029984Y029229D01*
X029942Y029342D01*
X029896Y029454D01*
X029846Y029564D01*
X029793Y029673D01*
X029736Y029780D01*
X029676Y029885D01*
X029613Y029988D01*
X029546Y030089D01*
X029476Y030187D01*
X029403Y030284D01*
X029327Y030378D01*
X029248Y030469D01*
X029165Y030558D01*
X029080Y030644D01*
X028993Y030728D01*
X028902Y030808D01*
X028809Y030886D01*
X028714Y030960D01*
X028616Y031032D01*
X028516Y031100D01*
X028414Y031165D01*
X028310Y031226D01*
X028204Y031284D01*
X028096Y031339D01*
X027986Y031390D01*
X027875Y031438D01*
X027762Y031482D01*
X027648Y031522D01*
X027533Y031559D01*
X027416Y031591D01*
X027299Y031621D01*
X027181Y031646D01*
X027061Y031667D01*
X026942Y031685D01*
X026821Y031698D01*
X026701Y031708D01*
X026580Y031714D01*
X026459Y031716D01*
X026338Y031714D01*
X026217Y031708D01*
X026097Y031698D01*
X025976Y031685D01*
X025857Y031667D01*
X025737Y031646D01*
X025619Y031621D01*
X025502Y031591D01*
X025385Y031559D01*
X025270Y031522D01*
X025156Y031482D01*
X025043Y031438D01*
X024932Y031390D01*
X024822Y031339D01*
X024714Y031284D01*
X024608Y031226D01*
X024504Y031165D01*
X024402Y031100D01*
X024302Y031032D01*
X024204Y030960D01*
X024109Y030886D01*
X024016Y030808D01*
X023925Y030728D01*
X023838Y030644D01*
X023753Y030558D01*
X023670Y030469D01*
X023591Y030378D01*
X023515Y030284D01*
X023442Y030187D01*
X023372Y030089D01*
X023305Y029988D01*
X023242Y029885D01*
X023182Y029780D01*
X023125Y029673D01*
X023072Y029564D01*
X023022Y029454D01*
X022976Y029342D01*
X022934Y029229D01*
X022895Y029114D01*
X022860Y028998D01*
X022829Y028881D01*
X022801Y028763D01*
X022778Y028645D01*
X022758Y028525D01*
D11*
X023073Y028210D01*
X023073Y027738D01*
X022758Y027423D01*
X020160Y027423D02*
X019845Y027738D01*
X019845Y028210D01*
X020160Y028525D01*
X013073Y028210D02*
X013073Y027738D01*
X012758Y027423D01*
X013073Y028210D02*
X012758Y028525D01*
X010160Y028525D02*
X009845Y028210D01*
X009845Y027738D01*
X010160Y027423D01*
X003073Y027738D02*
X002758Y027423D01*
X003073Y027738D02*
X003073Y028210D01*
X002758Y028525D01*
X002758Y018525D02*
X003073Y018210D01*
X003073Y017738D01*
X002758Y017423D01*
X009845Y017738D02*
X010160Y017423D01*
X009845Y017738D02*
X009845Y018210D01*
X010160Y018525D01*
X012758Y018525D02*
X013073Y018210D01*
X013073Y017738D01*
X012758Y017423D01*
X019845Y017738D02*
X020160Y017423D01*
X019845Y017738D02*
X019845Y018210D01*
X020160Y018525D01*
X022758Y018525D02*
X023073Y018210D01*
X023073Y017738D01*
X022758Y017423D01*
X029845Y017738D02*
X030160Y017423D01*
X029845Y017738D02*
X029845Y018210D01*
X030160Y018525D01*
X030160Y027423D02*
X029845Y027738D01*
X029845Y028210D01*
X030160Y028525D01*
X030160Y008525D02*
X029845Y008210D01*
X029845Y007738D01*
X030160Y007423D01*
X023073Y007738D02*
X022758Y007423D01*
X023073Y007738D02*
X023073Y008210D01*
X022758Y008525D01*
X020160Y008525D02*
X019845Y008210D01*
X019845Y007738D01*
X020160Y007423D01*
X013073Y007738D02*
X012758Y007423D01*
X013073Y007738D02*
X013073Y008210D01*
X012758Y008525D01*
X010160Y008525D02*
X009845Y008210D01*
X009845Y007738D01*
X010160Y007423D01*
X003073Y007738D02*
X002758Y007423D01*
X003073Y007738D02*
X003073Y008210D01*
X002758Y008525D01*
D12*
X003020Y007209D02*
X003150Y007209D01*
X003150Y006949D01*
X003020Y006949D01*
X002977Y006992D01*
X002977Y007166D01*
X003020Y007209D01*
X003271Y007209D02*
X003271Y006949D01*
X003445Y007209D01*
X003445Y006949D01*
X003566Y006992D02*
X003566Y007079D01*
X003653Y007079D01*
X003739Y007166D02*
X003739Y006992D01*
X003696Y006949D01*
X003609Y006949D01*
X003566Y006992D01*
X003566Y007166D02*
X003609Y007209D01*
X003696Y007209D01*
X003739Y007166D01*
X003980Y007109D02*
X004240Y006936D01*
X004240Y006814D02*
X004024Y006814D01*
X003980Y006771D01*
X003980Y006684D01*
X004024Y006641D01*
X004240Y006641D01*
X004154Y006520D02*
X003980Y006520D01*
X004110Y006520D02*
X004110Y006346D01*
X004154Y006346D02*
X004240Y006433D01*
X004154Y006520D01*
X004154Y006346D02*
X003980Y006346D01*
X004367Y006402D02*
X004367Y006489D01*
X004410Y006532D01*
X004453Y006532D01*
X004497Y006489D01*
X004497Y006359D01*
X004410Y006359D01*
X004367Y006402D01*
X004497Y006359D02*
X004584Y006446D01*
X004627Y006532D01*
X004584Y006238D02*
X004627Y006194D01*
X004627Y006108D01*
X004584Y006064D01*
X004410Y006064D01*
X004367Y006108D01*
X004367Y006194D01*
X004410Y006238D01*
X003980Y006936D02*
X004240Y007109D01*
X004197Y007230D02*
X004024Y007230D01*
X003980Y007274D01*
X003980Y007360D01*
X004024Y007404D01*
X004197Y007404D01*
X004240Y007360D01*
X004240Y007274D01*
X004197Y007230D01*
X008465Y006772D02*
X008639Y006772D01*
X008552Y006772D02*
X008552Y007032D01*
X008639Y006945D01*
X008760Y007032D02*
X008760Y006815D01*
X008803Y006772D01*
X008890Y006772D01*
X008933Y006815D01*
X008933Y007032D01*
X012977Y006992D02*
X012977Y007166D01*
X013020Y007209D01*
X013150Y007209D01*
X013150Y006949D01*
X013020Y006949D01*
X012977Y006992D01*
X013271Y006949D02*
X013271Y007209D01*
X013445Y007209D02*
X013271Y006949D01*
X013445Y006949D02*
X013445Y007209D01*
X013566Y007166D02*
X013609Y007209D01*
X013696Y007209D01*
X013739Y007166D01*
X013739Y006992D01*
X013696Y006949D01*
X013609Y006949D01*
X013566Y006992D01*
X013566Y007079D01*
X013653Y007079D01*
X013980Y007109D02*
X014240Y006936D01*
X014240Y006814D02*
X014024Y006814D01*
X013980Y006771D01*
X013980Y006684D01*
X014024Y006641D01*
X014240Y006641D01*
X014154Y006520D02*
X014240Y006433D01*
X014154Y006346D01*
X013980Y006346D01*
X014110Y006346D02*
X014110Y006520D01*
X014154Y006520D02*
X013980Y006520D01*
X014367Y006489D02*
X014367Y006402D01*
X014410Y006359D01*
X014497Y006359D01*
X014497Y006489D01*
X014453Y006532D01*
X014410Y006532D01*
X014367Y006489D01*
X014497Y006359D02*
X014584Y006446D01*
X014627Y006532D01*
X014584Y006238D02*
X014627Y006194D01*
X014627Y006108D01*
X014584Y006064D01*
X014410Y006064D01*
X014367Y006108D01*
X014367Y006194D01*
X014410Y006238D01*
X013980Y006936D02*
X014240Y007109D01*
X014197Y007230D02*
X014024Y007230D01*
X013980Y007274D01*
X013980Y007360D01*
X014024Y007404D01*
X014197Y007404D01*
X014240Y007360D01*
X014240Y007274D01*
X014197Y007230D01*
X018465Y006772D02*
X018639Y006772D01*
X018552Y006772D02*
X018552Y007032D01*
X018639Y006945D01*
X018760Y007032D02*
X018760Y006815D01*
X018803Y006772D01*
X018890Y006772D01*
X018933Y006815D01*
X018933Y007032D01*
X022977Y006992D02*
X022977Y007166D01*
X023020Y007209D01*
X023150Y007209D01*
X023150Y006949D01*
X023020Y006949D01*
X022977Y006992D01*
X023271Y006949D02*
X023271Y007209D01*
X023445Y007209D02*
X023271Y006949D01*
X023445Y006949D02*
X023445Y007209D01*
X023566Y007166D02*
X023609Y007209D01*
X023696Y007209D01*
X023739Y007166D01*
X023739Y006992D01*
X023696Y006949D01*
X023609Y006949D01*
X023566Y006992D01*
X023566Y007079D01*
X023653Y007079D01*
X023980Y007109D02*
X024240Y006936D01*
X024240Y006814D02*
X024024Y006814D01*
X023980Y006771D01*
X023980Y006684D01*
X024024Y006641D01*
X024240Y006641D01*
X024154Y006520D02*
X023980Y006520D01*
X024110Y006520D02*
X024110Y006346D01*
X024154Y006346D02*
X024240Y006433D01*
X024154Y006520D01*
X024154Y006346D02*
X023980Y006346D01*
X024367Y006402D02*
X024367Y006489D01*
X024410Y006532D01*
X024453Y006532D01*
X024497Y006489D01*
X024497Y006359D01*
X024410Y006359D01*
X024367Y006402D01*
X024497Y006359D02*
X024584Y006446D01*
X024627Y006532D01*
X024584Y006238D02*
X024627Y006194D01*
X024627Y006108D01*
X024584Y006064D01*
X024410Y006064D01*
X024367Y006108D01*
X024367Y006194D01*
X024410Y006238D01*
X023980Y006936D02*
X024240Y007109D01*
X024197Y007230D02*
X024024Y007230D01*
X023980Y007274D01*
X023980Y007360D01*
X024024Y007404D01*
X024197Y007404D01*
X024240Y007360D01*
X024240Y007274D01*
X024197Y007230D01*
X028465Y006772D02*
X028639Y006772D01*
X028552Y006772D02*
X028552Y007032D01*
X028639Y006945D01*
X028760Y007032D02*
X028760Y006815D01*
X028803Y006772D01*
X028890Y006772D01*
X028933Y006815D01*
X028933Y007032D01*
X024584Y016064D02*
X024410Y016064D01*
X024367Y016108D01*
X024367Y016194D01*
X024410Y016238D01*
X024410Y016359D02*
X024367Y016402D01*
X024367Y016489D01*
X024410Y016532D01*
X024453Y016532D01*
X024497Y016489D01*
X024497Y016359D01*
X024410Y016359D01*
X024497Y016359D02*
X024584Y016446D01*
X024627Y016532D01*
X024584Y016238D02*
X024627Y016194D01*
X024627Y016108D01*
X024584Y016064D01*
X024240Y016433D02*
X024154Y016520D01*
X023980Y016520D01*
X024024Y016641D02*
X023980Y016684D01*
X023980Y016771D01*
X024024Y016814D01*
X024240Y016814D01*
X024240Y016936D02*
X023980Y017109D01*
X024024Y017230D02*
X023980Y017274D01*
X023980Y017360D01*
X024024Y017404D01*
X024197Y017404D01*
X024240Y017360D01*
X024240Y017274D01*
X024197Y017230D01*
X024024Y017230D01*
X024240Y017109D02*
X023980Y016936D01*
X023739Y016992D02*
X023696Y016949D01*
X023609Y016949D01*
X023566Y016992D01*
X023566Y017079D01*
X023653Y017079D01*
X023739Y017166D02*
X023739Y016992D01*
X023739Y017166D02*
X023696Y017209D01*
X023609Y017209D01*
X023566Y017166D01*
X023445Y017209D02*
X023445Y016949D01*
X023271Y016949D02*
X023271Y017209D01*
X023150Y017209D02*
X023020Y017209D01*
X022977Y017166D01*
X022977Y016992D01*
X023020Y016949D01*
X023150Y016949D01*
X023150Y017209D01*
X023271Y016949D02*
X023445Y017209D01*
X024024Y016641D02*
X024240Y016641D01*
X024110Y016520D02*
X024110Y016346D01*
X024154Y016346D02*
X024240Y016433D01*
X024154Y016346D02*
X023980Y016346D01*
X028465Y016772D02*
X028639Y016772D01*
X028552Y016772D02*
X028552Y017032D01*
X028639Y016945D01*
X028760Y017032D02*
X028760Y016815D01*
X028803Y016772D01*
X028890Y016772D01*
X028933Y016815D01*
X028933Y017032D01*
X024584Y026064D02*
X024410Y026064D01*
X024367Y026108D01*
X024367Y026194D01*
X024410Y026238D01*
X024410Y026359D02*
X024367Y026402D01*
X024367Y026489D01*
X024410Y026532D01*
X024453Y026532D01*
X024497Y026489D01*
X024497Y026359D01*
X024410Y026359D01*
X024497Y026359D02*
X024584Y026446D01*
X024627Y026532D01*
X024584Y026238D02*
X024627Y026194D01*
X024627Y026108D01*
X024584Y026064D01*
X024240Y026433D02*
X024154Y026520D01*
X023980Y026520D01*
X024024Y026641D02*
X023980Y026684D01*
X023980Y026771D01*
X024024Y026814D01*
X024240Y026814D01*
X024240Y026936D02*
X023980Y027109D01*
X024024Y027230D02*
X023980Y027274D01*
X023980Y027360D01*
X024024Y027404D01*
X024197Y027404D01*
X024240Y027360D01*
X024240Y027274D01*
X024197Y027230D01*
X024024Y027230D01*
X024240Y027109D02*
X023980Y026936D01*
X023739Y026992D02*
X023696Y026949D01*
X023609Y026949D01*
X023566Y026992D01*
X023566Y027079D01*
X023653Y027079D01*
X023739Y027166D02*
X023739Y026992D01*
X023739Y027166D02*
X023696Y027209D01*
X023609Y027209D01*
X023566Y027166D01*
X023445Y027209D02*
X023445Y026949D01*
X023271Y026949D02*
X023271Y027209D01*
X023150Y027209D02*
X023020Y027209D01*
X022977Y027166D01*
X022977Y026992D01*
X023020Y026949D01*
X023150Y026949D01*
X023150Y027209D01*
X023271Y026949D02*
X023445Y027209D01*
X024024Y026641D02*
X024240Y026641D01*
X024110Y026520D02*
X024110Y026346D01*
X024154Y026346D02*
X024240Y026433D01*
X024154Y026346D02*
X023980Y026346D01*
X028465Y026772D02*
X028639Y026772D01*
X028552Y026772D02*
X028552Y027032D01*
X028639Y026945D01*
X028760Y027032D02*
X028760Y026815D01*
X028803Y026772D01*
X028890Y026772D01*
X028933Y026815D01*
X028933Y027032D01*
X018933Y027032D02*
X018933Y026815D01*
X018890Y026772D01*
X018803Y026772D01*
X018760Y026815D01*
X018760Y027032D01*
X018639Y026945D02*
X018552Y027032D01*
X018552Y026772D01*
X018639Y026772D02*
X018465Y026772D01*
X014627Y026532D02*
X014584Y026446D01*
X014497Y026359D01*
X014497Y026489D01*
X014453Y026532D01*
X014410Y026532D01*
X014367Y026489D01*
X014367Y026402D01*
X014410Y026359D01*
X014497Y026359D01*
X014584Y026238D02*
X014627Y026194D01*
X014627Y026108D01*
X014584Y026064D01*
X014410Y026064D01*
X014367Y026108D01*
X014367Y026194D01*
X014410Y026238D01*
X014240Y026433D02*
X014154Y026520D01*
X013980Y026520D01*
X014024Y026641D02*
X013980Y026684D01*
X013980Y026771D01*
X014024Y026814D01*
X014240Y026814D01*
X014240Y026936D02*
X013980Y027109D01*
X014024Y027230D02*
X013980Y027274D01*
X013980Y027360D01*
X014024Y027404D01*
X014197Y027404D01*
X014240Y027360D01*
X014240Y027274D01*
X014197Y027230D01*
X014024Y027230D01*
X014240Y027109D02*
X013980Y026936D01*
X013739Y026992D02*
X013696Y026949D01*
X013609Y026949D01*
X013566Y026992D01*
X013566Y027079D01*
X013653Y027079D01*
X013739Y027166D02*
X013739Y026992D01*
X013739Y027166D02*
X013696Y027209D01*
X013609Y027209D01*
X013566Y027166D01*
X013445Y027209D02*
X013271Y026949D01*
X013271Y027209D01*
X013150Y027209D02*
X013150Y026949D01*
X013020Y026949D01*
X012977Y026992D01*
X012977Y027166D01*
X013020Y027209D01*
X013150Y027209D01*
X013445Y027209D02*
X013445Y026949D01*
X014024Y026641D02*
X014240Y026641D01*
X014110Y026520D02*
X014110Y026346D01*
X014154Y026346D02*
X014240Y026433D01*
X014154Y026346D02*
X013980Y026346D01*
X008933Y026815D02*
X008890Y026772D01*
X008803Y026772D01*
X008760Y026815D01*
X008760Y027032D01*
X008639Y026945D02*
X008552Y027032D01*
X008552Y026772D01*
X008639Y026772D02*
X008465Y026772D01*
X008933Y026815D02*
X008933Y027032D01*
X004627Y026532D02*
X004584Y026446D01*
X004497Y026359D01*
X004497Y026489D01*
X004453Y026532D01*
X004410Y026532D01*
X004367Y026489D01*
X004367Y026402D01*
X004410Y026359D01*
X004497Y026359D01*
X004584Y026238D02*
X004627Y026194D01*
X004627Y026108D01*
X004584Y026064D01*
X004410Y026064D01*
X004367Y026108D01*
X004367Y026194D01*
X004410Y026238D01*
X004240Y026433D02*
X004154Y026520D01*
X003980Y026520D01*
X004024Y026641D02*
X003980Y026684D01*
X003980Y026771D01*
X004024Y026814D01*
X004240Y026814D01*
X004240Y026936D02*
X003980Y027109D01*
X004024Y027230D02*
X003980Y027274D01*
X003980Y027360D01*
X004024Y027404D01*
X004197Y027404D01*
X004240Y027360D01*
X004240Y027274D01*
X004197Y027230D01*
X004024Y027230D01*
X004240Y027109D02*
X003980Y026936D01*
X003739Y026992D02*
X003696Y026949D01*
X003609Y026949D01*
X003566Y026992D01*
X003566Y027079D01*
X003653Y027079D01*
X003739Y027166D02*
X003739Y026992D01*
X003739Y027166D02*
X003696Y027209D01*
X003609Y027209D01*
X003566Y027166D01*
X003445Y027209D02*
X003445Y026949D01*
X003271Y026949D02*
X003271Y027209D01*
X003150Y027209D02*
X003020Y027209D01*
X002977Y027166D01*
X002977Y026992D01*
X003020Y026949D01*
X003150Y026949D01*
X003150Y027209D01*
X003271Y026949D02*
X003445Y027209D01*
X004024Y026641D02*
X004240Y026641D01*
X004110Y026520D02*
X004110Y026346D01*
X004154Y026346D02*
X004240Y026433D01*
X004154Y026346D02*
X003980Y026346D01*
X004024Y017404D02*
X004197Y017404D01*
X004240Y017360D01*
X004240Y017274D01*
X004197Y017230D01*
X004024Y017230D01*
X003980Y017274D01*
X003980Y017360D01*
X004024Y017404D01*
X003980Y017109D02*
X004240Y016936D01*
X004240Y016814D02*
X004024Y016814D01*
X003980Y016771D01*
X003980Y016684D01*
X004024Y016641D01*
X004240Y016641D01*
X004154Y016520D02*
X003980Y016520D01*
X004110Y016520D02*
X004110Y016346D01*
X004154Y016346D02*
X004240Y016433D01*
X004154Y016520D01*
X004154Y016346D02*
X003980Y016346D01*
X004367Y016402D02*
X004367Y016489D01*
X004410Y016532D01*
X004453Y016532D01*
X004497Y016489D01*
X004497Y016359D01*
X004410Y016359D01*
X004367Y016402D01*
X004497Y016359D02*
X004584Y016446D01*
X004627Y016532D01*
X004584Y016238D02*
X004627Y016194D01*
X004627Y016108D01*
X004584Y016064D01*
X004410Y016064D01*
X004367Y016108D01*
X004367Y016194D01*
X004410Y016238D01*
X003980Y016936D02*
X004240Y017109D01*
X003739Y017166D02*
X003696Y017209D01*
X003609Y017209D01*
X003566Y017166D01*
X003566Y017079D02*
X003653Y017079D01*
X003566Y017079D02*
X003566Y016992D01*
X003609Y016949D01*
X003696Y016949D01*
X003739Y016992D01*
X003739Y017166D01*
X003445Y017209D02*
X003271Y016949D01*
X003271Y017209D01*
X003150Y017209D02*
X003020Y017209D01*
X002977Y017166D01*
X002977Y016992D01*
X003020Y016949D01*
X003150Y016949D01*
X003150Y017209D01*
X003445Y017209D02*
X003445Y016949D01*
X008465Y016772D02*
X008639Y016772D01*
X008552Y016772D02*
X008552Y017032D01*
X008639Y016945D01*
X008760Y017032D02*
X008760Y016815D01*
X008803Y016772D01*
X008890Y016772D01*
X008933Y016815D01*
X008933Y017032D01*
X012977Y016992D02*
X012977Y017166D01*
X013020Y017209D01*
X013150Y017209D01*
X013150Y016949D01*
X013020Y016949D01*
X012977Y016992D01*
X013271Y016949D02*
X013271Y017209D01*
X013445Y017209D02*
X013271Y016949D01*
X013445Y016949D02*
X013445Y017209D01*
X013566Y017166D02*
X013609Y017209D01*
X013696Y017209D01*
X013739Y017166D01*
X013739Y016992D01*
X013696Y016949D01*
X013609Y016949D01*
X013566Y016992D01*
X013566Y017079D01*
X013653Y017079D01*
X013980Y017109D02*
X014240Y016936D01*
X014240Y016814D02*
X014024Y016814D01*
X013980Y016771D01*
X013980Y016684D01*
X014024Y016641D01*
X014240Y016641D01*
X014154Y016520D02*
X014240Y016433D01*
X014154Y016346D01*
X013980Y016346D01*
X014110Y016346D02*
X014110Y016520D01*
X014154Y016520D02*
X013980Y016520D01*
X014367Y016489D02*
X014367Y016402D01*
X014410Y016359D01*
X014497Y016359D01*
X014497Y016489D01*
X014453Y016532D01*
X014410Y016532D01*
X014367Y016489D01*
X014497Y016359D02*
X014584Y016446D01*
X014627Y016532D01*
X014584Y016238D02*
X014627Y016194D01*
X014627Y016108D01*
X014584Y016064D01*
X014410Y016064D01*
X014367Y016108D01*
X014367Y016194D01*
X014410Y016238D01*
X013980Y016936D02*
X014240Y017109D01*
X014197Y017230D02*
X014024Y017230D01*
X013980Y017274D01*
X013980Y017360D01*
X014024Y017404D01*
X014197Y017404D01*
X014240Y017360D01*
X014240Y017274D01*
X014197Y017230D01*
X018465Y016772D02*
X018639Y016772D01*
X018552Y016772D02*
X018552Y017032D01*
X018639Y016945D01*
X018760Y017032D02*
X018760Y016815D01*
X018803Y016772D01*
X018890Y016772D01*
X018933Y016815D01*
X018933Y017032D01*
D13*
X018834Y019628D02*
X018786Y019676D01*
X018738Y019628D01*
X018689Y019676D01*
X018689Y019821D01*
X018551Y019821D02*
X018551Y019676D01*
X018503Y019628D01*
X018454Y019676D01*
X018406Y019628D01*
X018358Y019676D01*
X018358Y019821D01*
X018220Y019676D02*
X018171Y019676D01*
X018171Y019628D01*
X018220Y019628D01*
X018220Y019676D01*
X018054Y019676D02*
X018006Y019628D01*
X017909Y019628D01*
X017861Y019676D01*
X017861Y019773D01*
X017909Y019821D01*
X018006Y019821D01*
X018054Y019773D01*
X018054Y019676D01*
X017723Y019628D02*
X017577Y019628D01*
X017529Y019676D01*
X017529Y019773D01*
X017577Y019821D01*
X017723Y019821D01*
X017723Y019531D01*
X017391Y019676D02*
X017391Y019773D01*
X017343Y019821D01*
X017246Y019821D01*
X017198Y019773D01*
X017198Y019725D01*
X017391Y019725D01*
X017391Y019676D02*
X017343Y019628D01*
X017246Y019628D01*
X017060Y019628D02*
X017060Y019821D01*
X016914Y019821D01*
X016866Y019773D01*
X016866Y019628D01*
X016728Y019773D02*
X016535Y019773D01*
X016397Y019773D02*
X016348Y019821D01*
X016251Y019821D01*
X016203Y019773D01*
X016203Y019725D01*
X016397Y019725D01*
X016397Y019773D02*
X016397Y019676D01*
X016348Y019628D01*
X016251Y019628D01*
X016065Y019628D02*
X015920Y019628D01*
X015872Y019676D01*
X015872Y019773D01*
X015920Y019821D01*
X016065Y019821D01*
X016065Y019531D01*
X015734Y019628D02*
X015734Y019918D01*
X015685Y019821D02*
X015589Y019821D01*
X015540Y019773D01*
X015540Y019628D01*
X015402Y019676D02*
X015354Y019628D01*
X015209Y019628D01*
X015209Y019580D02*
X015257Y019531D01*
X015305Y019531D01*
X015209Y019580D02*
X015209Y019821D01*
X015071Y019773D02*
X015022Y019821D01*
X014877Y019821D01*
X014926Y019725D02*
X015022Y019725D01*
X015071Y019773D01*
X015071Y019628D02*
X014926Y019628D01*
X014877Y019676D01*
X014926Y019725D01*
X014739Y019676D02*
X014739Y019628D01*
X014691Y019628D01*
X014691Y019676D01*
X014739Y019676D01*
X014573Y019676D02*
X014525Y019628D01*
X014428Y019628D01*
X014380Y019676D01*
X014380Y019773D01*
X014428Y019821D01*
X014525Y019821D01*
X014573Y019773D01*
X014573Y019676D01*
X014242Y019628D02*
X014242Y019821D01*
X014242Y019725D02*
X014145Y019821D01*
X014097Y019821D01*
X013966Y019773D02*
X013966Y019676D01*
X013917Y019628D01*
X013772Y019628D01*
X013772Y019580D02*
X013772Y019821D01*
X013917Y019821D01*
X013966Y019773D01*
X013869Y019531D02*
X013821Y019531D01*
X013772Y019580D01*
X015402Y019676D02*
X015402Y019821D01*
X015685Y019821D02*
X015734Y019773D01*
X016253Y018541D02*
X016253Y018261D01*
X016346Y018261D02*
X016159Y018261D01*
X016346Y018448D02*
X016253Y018541D01*
X016481Y018541D02*
X016575Y018541D01*
X016528Y018541D02*
X016528Y018308D01*
X016575Y018261D01*
X016622Y018261D01*
X016668Y018308D01*
X018834Y019628D02*
X018883Y019676D01*
X018883Y019821D01*
X019021Y019821D02*
X019021Y019676D01*
X019069Y019628D01*
X019117Y019676D01*
X019166Y019628D01*
X019214Y019676D01*
X019214Y019821D01*
X023772Y019821D02*
X023772Y019580D01*
X023821Y019531D01*
X023869Y019531D01*
X023917Y019628D02*
X023772Y019628D01*
X023917Y019628D02*
X023966Y019676D01*
X023966Y019773D01*
X023917Y019821D01*
X023772Y019821D01*
X024097Y019821D02*
X024145Y019821D01*
X024242Y019725D01*
X024242Y019821D02*
X024242Y019628D01*
X024380Y019676D02*
X024380Y019773D01*
X024428Y019821D01*
X024525Y019821D01*
X024573Y019773D01*
X024573Y019676D01*
X024525Y019628D01*
X024428Y019628D01*
X024380Y019676D01*
X024691Y019676D02*
X024691Y019628D01*
X024739Y019628D01*
X024739Y019676D01*
X024691Y019676D01*
X024877Y019676D02*
X024926Y019628D01*
X025071Y019628D01*
X025022Y019725D02*
X025071Y019773D01*
X025022Y019821D01*
X024877Y019821D01*
X024926Y019725D02*
X025022Y019725D01*
X024926Y019725D02*
X024877Y019676D01*
X025209Y019628D02*
X025354Y019628D01*
X025402Y019676D01*
X025402Y019821D01*
X025540Y019773D02*
X025540Y019628D01*
X025540Y019773D02*
X025589Y019821D01*
X025685Y019821D01*
X025734Y019773D01*
X025872Y019773D02*
X025872Y019676D01*
X025920Y019628D01*
X026065Y019628D01*
X026065Y019531D02*
X026065Y019821D01*
X025920Y019821D01*
X025872Y019773D01*
X025734Y019918D02*
X025734Y019628D01*
X025305Y019531D02*
X025257Y019531D01*
X025209Y019580D01*
X025209Y019821D01*
X026203Y019773D02*
X026203Y019725D01*
X026397Y019725D01*
X026397Y019773D02*
X026348Y019821D01*
X026251Y019821D01*
X026203Y019773D01*
X026251Y019628D02*
X026348Y019628D01*
X026397Y019676D01*
X026397Y019773D01*
X026535Y019773D02*
X026728Y019773D01*
X026866Y019773D02*
X026866Y019628D01*
X026866Y019773D02*
X026914Y019821D01*
X027060Y019821D01*
X027060Y019628D01*
X027198Y019725D02*
X027391Y019725D01*
X027391Y019773D02*
X027343Y019821D01*
X027246Y019821D01*
X027198Y019773D01*
X027198Y019725D01*
X027246Y019628D02*
X027343Y019628D01*
X027391Y019676D01*
X027391Y019773D01*
X027529Y019773D02*
X027529Y019676D01*
X027577Y019628D01*
X027723Y019628D01*
X027723Y019531D02*
X027723Y019821D01*
X027577Y019821D01*
X027529Y019773D01*
X027861Y019773D02*
X027909Y019821D01*
X028006Y019821D01*
X028054Y019773D01*
X028054Y019676D01*
X028006Y019628D01*
X027909Y019628D01*
X027861Y019676D01*
X027861Y019773D01*
X028171Y019676D02*
X028171Y019628D01*
X028220Y019628D01*
X028220Y019676D01*
X028171Y019676D01*
X028358Y019676D02*
X028358Y019821D01*
X028358Y019676D02*
X028406Y019628D01*
X028454Y019676D01*
X028503Y019628D01*
X028551Y019676D01*
X028551Y019821D01*
X028689Y019821D02*
X028689Y019676D01*
X028738Y019628D01*
X028786Y019676D01*
X028834Y019628D01*
X028883Y019676D01*
X028883Y019821D01*
X029021Y019821D02*
X029021Y019676D01*
X029069Y019628D01*
X029117Y019676D01*
X029166Y019628D01*
X029214Y019676D01*
X029214Y019821D01*
X026575Y018541D02*
X026481Y018541D01*
X026528Y018541D02*
X026528Y018308D01*
X026575Y018261D01*
X026622Y018261D01*
X026668Y018308D01*
X026346Y018261D02*
X026159Y018261D01*
X026253Y018261D02*
X026253Y018541D01*
X026346Y018448D01*
X025734Y009918D02*
X025734Y009628D01*
X025734Y009773D02*
X025685Y009821D01*
X025589Y009821D01*
X025540Y009773D01*
X025540Y009628D01*
X025402Y009676D02*
X025354Y009628D01*
X025209Y009628D01*
X025209Y009580D02*
X025257Y009531D01*
X025305Y009531D01*
X025209Y009580D02*
X025209Y009821D01*
X025071Y009773D02*
X025022Y009821D01*
X024877Y009821D01*
X024926Y009725D02*
X025022Y009725D01*
X025071Y009773D01*
X025071Y009628D02*
X024926Y009628D01*
X024877Y009676D01*
X024926Y009725D01*
X024739Y009676D02*
X024739Y009628D01*
X024691Y009628D01*
X024691Y009676D01*
X024739Y009676D01*
X024573Y009676D02*
X024525Y009628D01*
X024428Y009628D01*
X024380Y009676D01*
X024380Y009773D01*
X024428Y009821D01*
X024525Y009821D01*
X024573Y009773D01*
X024573Y009676D01*
X024242Y009628D02*
X024242Y009821D01*
X024242Y009725D02*
X024145Y009821D01*
X024097Y009821D01*
X023966Y009773D02*
X023966Y009676D01*
X023917Y009628D01*
X023772Y009628D01*
X023772Y009580D02*
X023772Y009821D01*
X023917Y009821D01*
X023966Y009773D01*
X023869Y009531D02*
X023821Y009531D01*
X023772Y009580D01*
X025402Y009676D02*
X025402Y009821D01*
X025872Y009773D02*
X025872Y009676D01*
X025920Y009628D01*
X026065Y009628D01*
X026065Y009531D02*
X026065Y009821D01*
X025920Y009821D01*
X025872Y009773D01*
X026203Y009773D02*
X026203Y009725D01*
X026397Y009725D01*
X026397Y009773D02*
X026348Y009821D01*
X026251Y009821D01*
X026203Y009773D01*
X026251Y009628D02*
X026348Y009628D01*
X026397Y009676D01*
X026397Y009773D01*
X026535Y009773D02*
X026728Y009773D01*
X026866Y009773D02*
X026866Y009628D01*
X026866Y009773D02*
X026914Y009821D01*
X027060Y009821D01*
X027060Y009628D01*
X027198Y009725D02*
X027391Y009725D01*
X027391Y009773D02*
X027343Y009821D01*
X027246Y009821D01*
X027198Y009773D01*
X027198Y009725D01*
X027246Y009628D02*
X027343Y009628D01*
X027391Y009676D01*
X027391Y009773D01*
X027529Y009773D02*
X027529Y009676D01*
X027577Y009628D01*
X027723Y009628D01*
X027723Y009531D02*
X027723Y009821D01*
X027577Y009821D01*
X027529Y009773D01*
X027861Y009773D02*
X027909Y009821D01*
X028006Y009821D01*
X028054Y009773D01*
X028054Y009676D01*
X028006Y009628D01*
X027909Y009628D01*
X027861Y009676D01*
X027861Y009773D01*
X028171Y009676D02*
X028171Y009628D01*
X028220Y009628D01*
X028220Y009676D01*
X028171Y009676D01*
X028358Y009676D02*
X028358Y009821D01*
X028358Y009676D02*
X028406Y009628D01*
X028454Y009676D01*
X028503Y009628D01*
X028551Y009676D01*
X028551Y009821D01*
X028689Y009821D02*
X028689Y009676D01*
X028738Y009628D01*
X028786Y009676D01*
X028834Y009628D01*
X028883Y009676D01*
X028883Y009821D01*
X029021Y009821D02*
X029021Y009676D01*
X029069Y009628D01*
X029117Y009676D01*
X029166Y009628D01*
X029214Y009676D01*
X029214Y009821D01*
X026575Y008541D02*
X026481Y008541D01*
X026528Y008541D02*
X026528Y008308D01*
X026575Y008261D01*
X026622Y008261D01*
X026668Y008308D01*
X026346Y008261D02*
X026159Y008261D01*
X026253Y008261D02*
X026253Y008541D01*
X026346Y008448D01*
X019214Y009676D02*
X019166Y009628D01*
X019117Y009676D01*
X019069Y009628D01*
X019021Y009676D01*
X019021Y009821D01*
X018883Y009821D02*
X018883Y009676D01*
X018834Y009628D01*
X018786Y009676D01*
X018738Y009628D01*
X018689Y009676D01*
X018689Y009821D01*
X018551Y009821D02*
X018551Y009676D01*
X018503Y009628D01*
X018454Y009676D01*
X018406Y009628D01*
X018358Y009676D01*
X018358Y009821D01*
X018220Y009676D02*
X018171Y009676D01*
X018171Y009628D01*
X018220Y009628D01*
X018220Y009676D01*
X018054Y009676D02*
X018006Y009628D01*
X017909Y009628D01*
X017861Y009676D01*
X017861Y009773D01*
X017909Y009821D01*
X018006Y009821D01*
X018054Y009773D01*
X018054Y009676D01*
X017723Y009628D02*
X017577Y009628D01*
X017529Y009676D01*
X017529Y009773D01*
X017577Y009821D01*
X017723Y009821D01*
X017723Y009531D01*
X017391Y009676D02*
X017391Y009773D01*
X017343Y009821D01*
X017246Y009821D01*
X017198Y009773D01*
X017198Y009725D01*
X017391Y009725D01*
X017391Y009676D02*
X017343Y009628D01*
X017246Y009628D01*
X017060Y009628D02*
X017060Y009821D01*
X016914Y009821D01*
X016866Y009773D01*
X016866Y009628D01*
X016728Y009773D02*
X016535Y009773D01*
X016397Y009773D02*
X016348Y009821D01*
X016251Y009821D01*
X016203Y009773D01*
X016203Y009725D01*
X016397Y009725D01*
X016397Y009773D02*
X016397Y009676D01*
X016348Y009628D01*
X016251Y009628D01*
X016065Y009628D02*
X015920Y009628D01*
X015872Y009676D01*
X015872Y009773D01*
X015920Y009821D01*
X016065Y009821D01*
X016065Y009531D01*
X015734Y009628D02*
X015734Y009918D01*
X015685Y009821D02*
X015589Y009821D01*
X015540Y009773D01*
X015540Y009628D01*
X015402Y009676D02*
X015354Y009628D01*
X015209Y009628D01*
X015209Y009580D02*
X015257Y009531D01*
X015305Y009531D01*
X015209Y009580D02*
X015209Y009821D01*
X015071Y009773D02*
X015022Y009821D01*
X014877Y009821D01*
X014926Y009725D02*
X015022Y009725D01*
X015071Y009773D01*
X015071Y009628D02*
X014926Y009628D01*
X014877Y009676D01*
X014926Y009725D01*
X014739Y009676D02*
X014739Y009628D01*
X014691Y009628D01*
X014691Y009676D01*
X014739Y009676D01*
X014573Y009676D02*
X014525Y009628D01*
X014428Y009628D01*
X014380Y009676D01*
X014380Y009773D01*
X014428Y009821D01*
X014525Y009821D01*
X014573Y009773D01*
X014573Y009676D01*
X014242Y009628D02*
X014242Y009821D01*
X014242Y009725D02*
X014145Y009821D01*
X014097Y009821D01*
X013966Y009773D02*
X013966Y009676D01*
X013917Y009628D01*
X013772Y009628D01*
X013772Y009580D02*
X013772Y009821D01*
X013917Y009821D01*
X013966Y009773D01*
X013869Y009531D02*
X013821Y009531D01*
X013772Y009580D01*
X015402Y009676D02*
X015402Y009821D01*
X015685Y009821D02*
X015734Y009773D01*
X016253Y008541D02*
X016253Y008261D01*
X016346Y008261D02*
X016159Y008261D01*
X016346Y008448D02*
X016253Y008541D01*
X016481Y008541D02*
X016575Y008541D01*
X016528Y008541D02*
X016528Y008308D01*
X016575Y008261D01*
X016622Y008261D01*
X016668Y008308D01*
X019214Y009676D02*
X019214Y009821D01*
X009214Y009821D02*
X009214Y009676D01*
X009166Y009628D01*
X009117Y009676D01*
X009069Y009628D01*
X009021Y009676D01*
X009021Y009821D01*
X008883Y009821D02*
X008883Y009676D01*
X008834Y009628D01*
X008786Y009676D01*
X008738Y009628D01*
X008689Y009676D01*
X008689Y009821D01*
X008551Y009821D02*
X008551Y009676D01*
X008503Y009628D01*
X008454Y009676D01*
X008406Y009628D01*
X008358Y009676D01*
X008358Y009821D01*
X008220Y009676D02*
X008220Y009628D01*
X008171Y009628D01*
X008171Y009676D01*
X008220Y009676D01*
X008054Y009676D02*
X008006Y009628D01*
X007909Y009628D01*
X007861Y009676D01*
X007861Y009773D01*
X007909Y009821D01*
X008006Y009821D01*
X008054Y009773D01*
X008054Y009676D01*
X007723Y009628D02*
X007577Y009628D01*
X007529Y009676D01*
X007529Y009773D01*
X007577Y009821D01*
X007723Y009821D01*
X007723Y009531D01*
X007391Y009676D02*
X007391Y009773D01*
X007343Y009821D01*
X007246Y009821D01*
X007198Y009773D01*
X007198Y009725D01*
X007391Y009725D01*
X007391Y009676D02*
X007343Y009628D01*
X007246Y009628D01*
X007060Y009628D02*
X007060Y009821D01*
X006914Y009821D01*
X006866Y009773D01*
X006866Y009628D01*
X006728Y009773D02*
X006535Y009773D01*
X006397Y009773D02*
X006348Y009821D01*
X006251Y009821D01*
X006203Y009773D01*
X006203Y009725D01*
X006397Y009725D01*
X006397Y009773D02*
X006397Y009676D01*
X006348Y009628D01*
X006251Y009628D01*
X006065Y009628D02*
X005920Y009628D01*
X005872Y009676D01*
X005872Y009773D01*
X005920Y009821D01*
X006065Y009821D01*
X006065Y009531D01*
X005734Y009628D02*
X005734Y009918D01*
X005685Y009821D02*
X005589Y009821D01*
X005540Y009773D01*
X005540Y009628D01*
X005402Y009676D02*
X005354Y009628D01*
X005209Y009628D01*
X005209Y009580D02*
X005257Y009531D01*
X005305Y009531D01*
X005209Y009580D02*
X005209Y009821D01*
X005071Y009773D02*
X005022Y009821D01*
X004877Y009821D01*
X004926Y009725D02*
X005022Y009725D01*
X005071Y009773D01*
X005071Y009628D02*
X004926Y009628D01*
X004877Y009676D01*
X004926Y009725D01*
X004739Y009676D02*
X004691Y009676D01*
X004691Y009628D01*
X004739Y009628D01*
X004739Y009676D01*
X004573Y009676D02*
X004525Y009628D01*
X004428Y009628D01*
X004380Y009676D01*
X004380Y009773D01*
X004428Y009821D01*
X004525Y009821D01*
X004573Y009773D01*
X004573Y009676D01*
X004242Y009628D02*
X004242Y009821D01*
X004242Y009725D02*
X004145Y009821D01*
X004097Y009821D01*
X003966Y009773D02*
X003966Y009676D01*
X003917Y009628D01*
X003772Y009628D01*
X003772Y009580D02*
X003772Y009821D01*
X003917Y009821D01*
X003966Y009773D01*
X003869Y009531D02*
X003821Y009531D01*
X003772Y009580D01*
X005402Y009676D02*
X005402Y009821D01*
X005685Y009821D02*
X005734Y009773D01*
X006253Y008541D02*
X006253Y008261D01*
X006346Y008261D02*
X006159Y008261D01*
X006346Y008448D02*
X006253Y008541D01*
X006481Y008541D02*
X006575Y008541D01*
X006528Y008541D02*
X006528Y008308D01*
X006575Y008261D01*
X006622Y008261D01*
X006668Y008308D01*
X006622Y018261D02*
X006575Y018261D01*
X006528Y018308D01*
X006528Y018541D01*
X006575Y018541D02*
X006481Y018541D01*
X006346Y018448D02*
X006253Y018541D01*
X006253Y018261D01*
X006346Y018261D02*
X006159Y018261D01*
X006622Y018261D02*
X006668Y018308D01*
X006866Y019628D02*
X006866Y019773D01*
X006914Y019821D01*
X007060Y019821D01*
X007060Y019628D01*
X007198Y019725D02*
X007391Y019725D01*
X007391Y019773D02*
X007343Y019821D01*
X007246Y019821D01*
X007198Y019773D01*
X007198Y019725D01*
X007246Y019628D02*
X007343Y019628D01*
X007391Y019676D01*
X007391Y019773D01*
X007529Y019773D02*
X007529Y019676D01*
X007577Y019628D01*
X007723Y019628D01*
X007723Y019531D02*
X007723Y019821D01*
X007577Y019821D01*
X007529Y019773D01*
X007861Y019773D02*
X007909Y019821D01*
X008006Y019821D01*
X008054Y019773D01*
X008054Y019676D01*
X008006Y019628D01*
X007909Y019628D01*
X007861Y019676D01*
X007861Y019773D01*
X008171Y019676D02*
X008171Y019628D01*
X008220Y019628D01*
X008220Y019676D01*
X008171Y019676D01*
X008358Y019676D02*
X008406Y019628D01*
X008454Y019676D01*
X008503Y019628D01*
X008551Y019676D01*
X008551Y019821D01*
X008689Y019821D02*
X008689Y019676D01*
X008738Y019628D01*
X008786Y019676D01*
X008834Y019628D01*
X008883Y019676D01*
X008883Y019821D01*
X009021Y019821D02*
X009021Y019676D01*
X009069Y019628D01*
X009117Y019676D01*
X009166Y019628D01*
X009214Y019676D01*
X009214Y019821D01*
X008358Y019821D02*
X008358Y019676D01*
X006728Y019773D02*
X006535Y019773D01*
X006397Y019773D02*
X006348Y019821D01*
X006251Y019821D01*
X006203Y019773D01*
X006203Y019725D01*
X006397Y019725D01*
X006397Y019773D02*
X006397Y019676D01*
X006348Y019628D01*
X006251Y019628D01*
X006065Y019628D02*
X005920Y019628D01*
X005872Y019676D01*
X005872Y019773D01*
X005920Y019821D01*
X006065Y019821D01*
X006065Y019531D01*
X005734Y019628D02*
X005734Y019918D01*
X005685Y019821D02*
X005589Y019821D01*
X005540Y019773D01*
X005540Y019628D01*
X005402Y019676D02*
X005354Y019628D01*
X005209Y019628D01*
X005209Y019580D02*
X005257Y019531D01*
X005305Y019531D01*
X005209Y019580D02*
X005209Y019821D01*
X005071Y019773D02*
X005022Y019821D01*
X004877Y019821D01*
X004926Y019725D02*
X005022Y019725D01*
X005071Y019773D01*
X005071Y019628D02*
X004926Y019628D01*
X004877Y019676D01*
X004926Y019725D01*
X004739Y019676D02*
X004691Y019676D01*
X004691Y019628D01*
X004739Y019628D01*
X004739Y019676D01*
X004573Y019676D02*
X004525Y019628D01*
X004428Y019628D01*
X004380Y019676D01*
X004380Y019773D01*
X004428Y019821D01*
X004525Y019821D01*
X004573Y019773D01*
X004573Y019676D01*
X004242Y019628D02*
X004242Y019821D01*
X004242Y019725D02*
X004145Y019821D01*
X004097Y019821D01*
X003966Y019773D02*
X003966Y019676D01*
X003917Y019628D01*
X003772Y019628D01*
X003772Y019580D02*
X003772Y019821D01*
X003917Y019821D01*
X003966Y019773D01*
X003869Y019531D02*
X003821Y019531D01*
X003772Y019580D01*
X005402Y019676D02*
X005402Y019821D01*
X005685Y019821D02*
X005734Y019773D01*
X006159Y028261D02*
X006346Y028261D01*
X006253Y028261D02*
X006253Y028541D01*
X006346Y028448D01*
X006481Y028541D02*
X006575Y028541D01*
X006528Y028541D02*
X006528Y028308D01*
X006575Y028261D01*
X006622Y028261D01*
X006668Y028308D01*
X006866Y029628D02*
X006866Y029773D01*
X006914Y029821D01*
X007060Y029821D01*
X007060Y029628D01*
X007198Y029725D02*
X007391Y029725D01*
X007391Y029773D02*
X007343Y029821D01*
X007246Y029821D01*
X007198Y029773D01*
X007198Y029725D01*
X007246Y029628D02*
X007343Y029628D01*
X007391Y029676D01*
X007391Y029773D01*
X007529Y029773D02*
X007529Y029676D01*
X007577Y029628D01*
X007723Y029628D01*
X007723Y029531D02*
X007723Y029821D01*
X007577Y029821D01*
X007529Y029773D01*
X007861Y029773D02*
X007861Y029676D01*
X007909Y029628D01*
X008006Y029628D01*
X008054Y029676D01*
X008054Y029773D01*
X008006Y029821D01*
X007909Y029821D01*
X007861Y029773D01*
X008171Y029676D02*
X008171Y029628D01*
X008220Y029628D01*
X008220Y029676D01*
X008171Y029676D01*
X008358Y029676D02*
X008358Y029821D01*
X008358Y029676D02*
X008406Y029628D01*
X008454Y029676D01*
X008503Y029628D01*
X008551Y029676D01*
X008551Y029821D01*
X008689Y029821D02*
X008689Y029676D01*
X008738Y029628D01*
X008786Y029676D01*
X008834Y029628D01*
X008883Y029676D01*
X008883Y029821D01*
X009021Y029821D02*
X009021Y029676D01*
X009069Y029628D01*
X009117Y029676D01*
X009166Y029628D01*
X009214Y029676D01*
X009214Y029821D01*
X006728Y029773D02*
X006535Y029773D01*
X006397Y029773D02*
X006348Y029821D01*
X006251Y029821D01*
X006203Y029773D01*
X006203Y029725D01*
X006397Y029725D01*
X006397Y029773D02*
X006397Y029676D01*
X006348Y029628D01*
X006251Y029628D01*
X006065Y029628D02*
X005920Y029628D01*
X005872Y029676D01*
X005872Y029773D01*
X005920Y029821D01*
X006065Y029821D01*
X006065Y029531D01*
X005734Y029628D02*
X005734Y029918D01*
X005685Y029821D02*
X005589Y029821D01*
X005540Y029773D01*
X005540Y029628D01*
X005402Y029676D02*
X005354Y029628D01*
X005209Y029628D01*
X005209Y029580D02*
X005257Y029531D01*
X005305Y029531D01*
X005209Y029580D02*
X005209Y029821D01*
X005071Y029773D02*
X005022Y029821D01*
X004877Y029821D01*
X004926Y029725D02*
X005022Y029725D01*
X005071Y029773D01*
X005071Y029628D02*
X004926Y029628D01*
X004877Y029676D01*
X004926Y029725D01*
X004739Y029676D02*
X004691Y029676D01*
X004691Y029628D01*
X004739Y029628D01*
X004739Y029676D01*
X004573Y029676D02*
X004573Y029773D01*
X004525Y029821D01*
X004428Y029821D01*
X004380Y029773D01*
X004380Y029676D01*
X004428Y029628D01*
X004525Y029628D01*
X004573Y029676D01*
X004242Y029628D02*
X004242Y029821D01*
X004242Y029725D02*
X004145Y029821D01*
X004097Y029821D01*
X003966Y029773D02*
X003966Y029676D01*
X003917Y029628D01*
X003772Y029628D01*
X003772Y029580D02*
X003772Y029821D01*
X003917Y029821D01*
X003966Y029773D01*
X003869Y029531D02*
X003821Y029531D01*
X003772Y029580D01*
X005402Y029676D02*
X005402Y029821D01*
X005685Y029821D02*
X005734Y029773D01*
X013772Y029821D02*
X013772Y029580D01*
X013821Y029531D01*
X013869Y029531D01*
X013917Y029628D02*
X013772Y029628D01*
X013917Y029628D02*
X013966Y029676D01*
X013966Y029773D01*
X013917Y029821D01*
X013772Y029821D01*
X014097Y029821D02*
X014145Y029821D01*
X014242Y029725D01*
X014242Y029821D02*
X014242Y029628D01*
X014380Y029676D02*
X014380Y029773D01*
X014428Y029821D01*
X014525Y029821D01*
X014573Y029773D01*
X014573Y029676D01*
X014525Y029628D01*
X014428Y029628D01*
X014380Y029676D01*
X014691Y029676D02*
X014691Y029628D01*
X014739Y029628D01*
X014739Y029676D01*
X014691Y029676D01*
X014877Y029676D02*
X014926Y029725D01*
X015022Y029725D01*
X015071Y029773D01*
X015022Y029821D01*
X014877Y029821D01*
X014877Y029676D02*
X014926Y029628D01*
X015071Y029628D01*
X015209Y029628D02*
X015354Y029628D01*
X015402Y029676D01*
X015402Y029821D01*
X015540Y029773D02*
X015540Y029628D01*
X015540Y029773D02*
X015589Y029821D01*
X015685Y029821D01*
X015734Y029773D01*
X015872Y029773D02*
X015872Y029676D01*
X015920Y029628D01*
X016065Y029628D01*
X016065Y029531D02*
X016065Y029821D01*
X015920Y029821D01*
X015872Y029773D01*
X015734Y029918D02*
X015734Y029628D01*
X015305Y029531D02*
X015257Y029531D01*
X015209Y029580D01*
X015209Y029821D01*
X016203Y029773D02*
X016203Y029725D01*
X016397Y029725D01*
X016397Y029773D02*
X016348Y029821D01*
X016251Y029821D01*
X016203Y029773D01*
X016251Y029628D02*
X016348Y029628D01*
X016397Y029676D01*
X016397Y029773D01*
X016535Y029773D02*
X016728Y029773D01*
X016866Y029773D02*
X016866Y029628D01*
X016866Y029773D02*
X016914Y029821D01*
X017060Y029821D01*
X017060Y029628D01*
X017198Y029725D02*
X017391Y029725D01*
X017391Y029773D02*
X017343Y029821D01*
X017246Y029821D01*
X017198Y029773D01*
X017198Y029725D01*
X017246Y029628D02*
X017343Y029628D01*
X017391Y029676D01*
X017391Y029773D01*
X017529Y029773D02*
X017529Y029676D01*
X017577Y029628D01*
X017723Y029628D01*
X017723Y029531D02*
X017723Y029821D01*
X017577Y029821D01*
X017529Y029773D01*
X017861Y029773D02*
X017861Y029676D01*
X017909Y029628D01*
X018006Y029628D01*
X018054Y029676D01*
X018054Y029773D01*
X018006Y029821D01*
X017909Y029821D01*
X017861Y029773D01*
X018171Y029676D02*
X018171Y029628D01*
X018220Y029628D01*
X018220Y029676D01*
X018171Y029676D01*
X018358Y029676D02*
X018358Y029821D01*
X018358Y029676D02*
X018406Y029628D01*
X018454Y029676D01*
X018503Y029628D01*
X018551Y029676D01*
X018551Y029821D01*
X018689Y029821D02*
X018689Y029676D01*
X018738Y029628D01*
X018786Y029676D01*
X018834Y029628D01*
X018883Y029676D01*
X018883Y029821D01*
X019021Y029821D02*
X019021Y029676D01*
X019069Y029628D01*
X019117Y029676D01*
X019166Y029628D01*
X019214Y029676D01*
X019214Y029821D01*
X016575Y028541D02*
X016481Y028541D01*
X016528Y028541D02*
X016528Y028308D01*
X016575Y028261D01*
X016622Y028261D01*
X016668Y028308D01*
X016346Y028261D02*
X016159Y028261D01*
X016253Y028261D02*
X016253Y028541D01*
X016346Y028448D01*
X023772Y029580D02*
X023772Y029821D01*
X023917Y029821D01*
X023966Y029773D01*
X023966Y029676D01*
X023917Y029628D01*
X023772Y029628D01*
X023772Y029580D02*
X023821Y029531D01*
X023869Y029531D01*
X024097Y029821D02*
X024145Y029821D01*
X024242Y029725D01*
X024242Y029821D02*
X024242Y029628D01*
X024380Y029676D02*
X024380Y029773D01*
X024428Y029821D01*
X024525Y029821D01*
X024573Y029773D01*
X024573Y029676D01*
X024525Y029628D01*
X024428Y029628D01*
X024380Y029676D01*
X024691Y029676D02*
X024691Y029628D01*
X024739Y029628D01*
X024739Y029676D01*
X024691Y029676D01*
X024877Y029676D02*
X024926Y029725D01*
X025022Y029725D01*
X025071Y029773D01*
X025022Y029821D01*
X024877Y029821D01*
X024877Y029676D02*
X024926Y029628D01*
X025071Y029628D01*
X025209Y029628D02*
X025354Y029628D01*
X025402Y029676D01*
X025402Y029821D01*
X025540Y029773D02*
X025540Y029628D01*
X025540Y029773D02*
X025589Y029821D01*
X025685Y029821D01*
X025734Y029773D01*
X025872Y029773D02*
X025872Y029676D01*
X025920Y029628D01*
X026065Y029628D01*
X026065Y029531D02*
X026065Y029821D01*
X025920Y029821D01*
X025872Y029773D01*
X025734Y029918D02*
X025734Y029628D01*
X025305Y029531D02*
X025257Y029531D01*
X025209Y029580D01*
X025209Y029821D01*
X026203Y029773D02*
X026203Y029725D01*
X026397Y029725D01*
X026397Y029773D02*
X026348Y029821D01*
X026251Y029821D01*
X026203Y029773D01*
X026251Y029628D02*
X026348Y029628D01*
X026397Y029676D01*
X026397Y029773D01*
X026535Y029773D02*
X026728Y029773D01*
X026866Y029773D02*
X026866Y029628D01*
X026866Y029773D02*
X026914Y029821D01*
X027060Y029821D01*
X027060Y029628D01*
X027198Y029725D02*
X027391Y029725D01*
X027391Y029773D02*
X027343Y029821D01*
X027246Y029821D01*
X027198Y029773D01*
X027198Y029725D01*
X027246Y029628D02*
X027343Y029628D01*
X027391Y029676D01*
X027391Y029773D01*
X027529Y029773D02*
X027529Y029676D01*
X027577Y029628D01*
X027723Y029628D01*
X027723Y029531D02*
X027723Y029821D01*
X027577Y029821D01*
X027529Y029773D01*
X027861Y029773D02*
X027861Y029676D01*
X027909Y029628D01*
X028006Y029628D01*
X028054Y029676D01*
X028054Y029773D01*
X028006Y029821D01*
X027909Y029821D01*
X027861Y029773D01*
X028171Y029676D02*
X028171Y029628D01*
X028220Y029628D01*
X028220Y029676D01*
X028171Y029676D01*
X028358Y029676D02*
X028358Y029821D01*
X028358Y029676D02*
X028406Y029628D01*
X028454Y029676D01*
X028503Y029628D01*
X028551Y029676D01*
X028551Y029821D01*
X028689Y029821D02*
X028689Y029676D01*
X028738Y029628D01*
X028786Y029676D01*
X028834Y029628D01*
X028883Y029676D01*
X028883Y029821D01*
X029021Y029821D02*
X029021Y029676D01*
X029069Y029628D01*
X029117Y029676D01*
X029166Y029628D01*
X029214Y029676D01*
X029214Y029821D01*
X026575Y028541D02*
X026481Y028541D01*
X026528Y028541D02*
X026528Y028308D01*
X026575Y028261D01*
X026622Y028261D01*
X026668Y028308D01*
X026346Y028261D02*
X026159Y028261D01*
X026253Y028261D02*
X026253Y028541D01*
X026346Y028448D01*
D14*
X027995Y027383D02*
X028231Y027383D01*
X028231Y027147D01*
X027995Y027383D01*
X028004Y027374D02*
X028231Y027374D01*
X028231Y027383D02*
X028231Y024628D01*
X024688Y024628D01*
X024688Y027383D01*
X028231Y027383D01*
X028231Y027326D02*
X028052Y027326D01*
X028101Y027277D02*
X028231Y027277D01*
X028231Y027229D02*
X028149Y027229D01*
X028198Y027180D02*
X028231Y027180D01*
X029530Y027974D02*
X029530Y028761D01*
X023388Y028761D02*
X023388Y027974D01*
X019530Y027974D02*
X019530Y028761D01*
X018231Y027383D02*
X018231Y027147D01*
X017995Y027383D01*
X018231Y027383D01*
X018231Y024628D01*
X014688Y024628D01*
X014688Y027383D01*
X018231Y027383D01*
X018231Y027374D02*
X018004Y027374D01*
X018052Y027326D02*
X018231Y027326D01*
X018231Y027277D02*
X018101Y027277D01*
X018149Y027229D02*
X018231Y027229D01*
X018231Y027180D02*
X018198Y027180D01*
X013388Y027974D02*
X013388Y028761D01*
X009530Y028761D02*
X009530Y027974D01*
X008231Y027383D02*
X008231Y027147D01*
X007995Y027383D01*
X008231Y027383D01*
X008231Y024628D01*
X004688Y024628D01*
X004688Y027383D01*
X008231Y027383D01*
X008231Y027374D02*
X008004Y027374D01*
X008052Y027326D02*
X008231Y027326D01*
X008231Y027277D02*
X008101Y027277D01*
X008149Y027229D02*
X008231Y027229D01*
X008231Y027180D02*
X008198Y027180D01*
X003388Y027974D02*
X003388Y028761D01*
X003388Y018761D02*
X003388Y017974D01*
X004688Y017383D02*
X004688Y014628D01*
X008231Y014628D01*
X008231Y017383D01*
X007995Y017383D01*
X008231Y017383D01*
X008231Y017147D01*
X007995Y017383D01*
X008044Y017335D02*
X008231Y017335D01*
X008231Y017383D02*
X004688Y017383D01*
X008092Y017286D02*
X008231Y017286D01*
X008231Y017238D02*
X008141Y017238D01*
X008189Y017189D02*
X008231Y017189D01*
X009530Y017974D02*
X009530Y018761D01*
X013388Y018761D02*
X013388Y017974D01*
X014688Y017383D02*
X014688Y014628D01*
X018231Y014628D01*
X018231Y017383D01*
X017995Y017383D01*
X018231Y017383D01*
X018231Y017147D01*
X017995Y017383D01*
X018044Y017335D02*
X018231Y017335D01*
X018231Y017383D02*
X014688Y017383D01*
X018092Y017286D02*
X018231Y017286D01*
X018231Y017238D02*
X018141Y017238D01*
X018189Y017189D02*
X018231Y017189D01*
X019530Y017974D02*
X019530Y018761D01*
X023388Y018761D02*
X023388Y017974D01*
X024688Y017383D02*
X024688Y014628D01*
X028231Y014628D01*
X028231Y017383D01*
X027995Y017383D01*
X028231Y017383D01*
X028231Y017147D01*
X027995Y017383D01*
X028044Y017335D02*
X028231Y017335D01*
X028231Y017383D02*
X024688Y017383D01*
X028092Y017286D02*
X028231Y017286D01*
X028231Y017238D02*
X028141Y017238D01*
X028189Y017189D02*
X028231Y017189D01*
X029530Y017974D02*
X029530Y018761D01*
X029530Y008761D02*
X029530Y007974D01*
X028231Y007383D02*
X028231Y007147D01*
X027995Y007383D01*
X028231Y007383D01*
X028231Y004628D01*
X024688Y004628D01*
X024688Y007383D01*
X028231Y007383D01*
X028231Y007344D02*
X028035Y007344D01*
X028083Y007295D02*
X028231Y007295D01*
X028231Y007247D02*
X028132Y007247D01*
X028180Y007198D02*
X028231Y007198D01*
X028229Y007150D02*
X028231Y007150D01*
X023388Y007974D02*
X023388Y008761D01*
X019530Y008761D02*
X019530Y007974D01*
X018231Y007383D02*
X018231Y007147D01*
X017995Y007383D01*
X018231Y007383D01*
X018231Y004628D01*
X014688Y004628D01*
X014688Y007383D01*
X018231Y007383D01*
X018231Y007344D02*
X018035Y007344D01*
X018083Y007295D02*
X018231Y007295D01*
X018231Y007247D02*
X018132Y007247D01*
X018180Y007198D02*
X018231Y007198D01*
X018229Y007150D02*
X018231Y007150D01*
X013388Y007974D02*
X013388Y008761D01*
X009530Y008761D02*
X009530Y007974D01*
X008231Y007383D02*
X008231Y007147D01*
X007995Y007383D01*
X008231Y007383D01*
X008231Y004628D01*
X004688Y004628D01*
X004688Y007383D01*
X008231Y007383D01*
X008231Y007344D02*
X008035Y007344D01*
X008083Y007295D02*
X008231Y007295D01*
X008231Y007247D02*
X008132Y007247D01*
X008180Y007198D02*
X008231Y007198D01*
X008229Y007150D02*
X008231Y007150D01*
X003388Y007974D02*
X003388Y008761D01*
D15*
X008231Y007383D03*
X008231Y017383D03*
X008231Y027383D03*
X018231Y027383D03*
X018231Y017383D03*
X018231Y007383D03*
X028231Y007383D03*
X028231Y017383D03*
X028231Y027383D03*
M02*
