G75*
%MOIN*%
%OFA0B0*%
%FSLAX24Y24*%
%IPPOS*%
%LPD*%
%AMOC8*
5,1,8,0,0,1.08239X$1,22.5*
%
%ADD10C,0.0000*%
%ADD11C,0.0050*%
%ADD12C,0.0080*%
%ADD13C,0.0160*%
%ADD14C,0.0070*%
%ADD15C,0.0000*%
%ADD16C,0.0060*%
%ADD17C,0.0197*%
%ADD18C,0.0165*%
%ADD19C,0.0030*%
D10*
X000160Y000100D02*
X000160Y035612D01*
X032837Y035612D01*
X032837Y000100D01*
X000160Y000100D01*
X002758Y007423D02*
X002778Y007303D01*
X002801Y007185D01*
X002829Y007067D01*
X002860Y006950D01*
X002895Y006834D01*
X002934Y006719D01*
X002976Y006606D01*
X003022Y006494D01*
X003072Y006384D01*
X003125Y006275D01*
X003182Y006168D01*
X003242Y006063D01*
X003305Y005960D01*
X003372Y005859D01*
X003442Y005761D01*
X003515Y005664D01*
X003591Y005570D01*
X003670Y005479D01*
X003753Y005390D01*
X003838Y005304D01*
X003925Y005220D01*
X004016Y005140D01*
X004109Y005062D01*
X004204Y004988D01*
X004302Y004916D01*
X004402Y004848D01*
X004504Y004783D01*
X004608Y004722D01*
X004714Y004664D01*
X004822Y004609D01*
X004932Y004558D01*
X005043Y004510D01*
X005156Y004466D01*
X005270Y004426D01*
X005385Y004389D01*
X005502Y004357D01*
X005619Y004327D01*
X005737Y004302D01*
X005857Y004281D01*
X005976Y004263D01*
X006097Y004250D01*
X006217Y004240D01*
X006338Y004234D01*
X006459Y004232D01*
X006580Y004234D01*
X006701Y004240D01*
X006821Y004250D01*
X006942Y004263D01*
X007061Y004281D01*
X007181Y004302D01*
X007299Y004327D01*
X007416Y004357D01*
X007533Y004389D01*
X007648Y004426D01*
X007762Y004466D01*
X007875Y004510D01*
X007986Y004558D01*
X008096Y004609D01*
X008204Y004664D01*
X008310Y004722D01*
X008414Y004783D01*
X008516Y004848D01*
X008616Y004916D01*
X008714Y004988D01*
X008809Y005062D01*
X008902Y005140D01*
X008993Y005220D01*
X009080Y005304D01*
X009165Y005390D01*
X009248Y005479D01*
X009327Y005570D01*
X009403Y005664D01*
X009476Y005761D01*
X009546Y005859D01*
X009613Y005960D01*
X009676Y006063D01*
X009736Y006168D01*
X009793Y006275D01*
X009846Y006384D01*
X009896Y006494D01*
X009942Y006606D01*
X009984Y006719D01*
X010023Y006834D01*
X010058Y006950D01*
X010089Y007067D01*
X010117Y007185D01*
X010140Y007303D01*
X010160Y007423D01*
X010160Y008525D02*
X010140Y008645D01*
X010117Y008763D01*
X010089Y008881D01*
X010058Y008998D01*
X010023Y009114D01*
X009984Y009229D01*
X009942Y009342D01*
X009896Y009454D01*
X009846Y009564D01*
X009793Y009673D01*
X009736Y009780D01*
X009676Y009885D01*
X009613Y009988D01*
X009546Y010089D01*
X009476Y010187D01*
X009403Y010284D01*
X009327Y010378D01*
X009248Y010469D01*
X009165Y010558D01*
X009080Y010644D01*
X008993Y010728D01*
X008902Y010808D01*
X008809Y010886D01*
X008714Y010960D01*
X008616Y011032D01*
X008516Y011100D01*
X008414Y011165D01*
X008310Y011226D01*
X008204Y011284D01*
X008096Y011339D01*
X007986Y011390D01*
X007875Y011438D01*
X007762Y011482D01*
X007648Y011522D01*
X007533Y011559D01*
X007416Y011591D01*
X007299Y011621D01*
X007181Y011646D01*
X007061Y011667D01*
X006942Y011685D01*
X006821Y011698D01*
X006701Y011708D01*
X006580Y011714D01*
X006459Y011716D01*
X006338Y011714D01*
X006217Y011708D01*
X006097Y011698D01*
X005976Y011685D01*
X005857Y011667D01*
X005737Y011646D01*
X005619Y011621D01*
X005502Y011591D01*
X005385Y011559D01*
X005270Y011522D01*
X005156Y011482D01*
X005043Y011438D01*
X004932Y011390D01*
X004822Y011339D01*
X004714Y011284D01*
X004608Y011226D01*
X004504Y011165D01*
X004402Y011100D01*
X004302Y011032D01*
X004204Y010960D01*
X004109Y010886D01*
X004016Y010808D01*
X003925Y010728D01*
X003838Y010644D01*
X003753Y010558D01*
X003670Y010469D01*
X003591Y010378D01*
X003515Y010284D01*
X003442Y010187D01*
X003372Y010089D01*
X003305Y009988D01*
X003242Y009885D01*
X003182Y009780D01*
X003125Y009673D01*
X003072Y009564D01*
X003022Y009454D01*
X002976Y009342D01*
X002934Y009229D01*
X002895Y009114D01*
X002860Y008998D01*
X002829Y008881D01*
X002801Y008763D01*
X002778Y008645D01*
X002758Y008525D01*
X002758Y017423D02*
X002778Y017303D01*
X002801Y017185D01*
X002829Y017067D01*
X002860Y016950D01*
X002895Y016834D01*
X002934Y016719D01*
X002976Y016606D01*
X003022Y016494D01*
X003072Y016384D01*
X003125Y016275D01*
X003182Y016168D01*
X003242Y016063D01*
X003305Y015960D01*
X003372Y015859D01*
X003442Y015761D01*
X003515Y015664D01*
X003591Y015570D01*
X003670Y015479D01*
X003753Y015390D01*
X003838Y015304D01*
X003925Y015220D01*
X004016Y015140D01*
X004109Y015062D01*
X004204Y014988D01*
X004302Y014916D01*
X004402Y014848D01*
X004504Y014783D01*
X004608Y014722D01*
X004714Y014664D01*
X004822Y014609D01*
X004932Y014558D01*
X005043Y014510D01*
X005156Y014466D01*
X005270Y014426D01*
X005385Y014389D01*
X005502Y014357D01*
X005619Y014327D01*
X005737Y014302D01*
X005857Y014281D01*
X005976Y014263D01*
X006097Y014250D01*
X006217Y014240D01*
X006338Y014234D01*
X006459Y014232D01*
X006580Y014234D01*
X006701Y014240D01*
X006821Y014250D01*
X006942Y014263D01*
X007061Y014281D01*
X007181Y014302D01*
X007299Y014327D01*
X007416Y014357D01*
X007533Y014389D01*
X007648Y014426D01*
X007762Y014466D01*
X007875Y014510D01*
X007986Y014558D01*
X008096Y014609D01*
X008204Y014664D01*
X008310Y014722D01*
X008414Y014783D01*
X008516Y014848D01*
X008616Y014916D01*
X008714Y014988D01*
X008809Y015062D01*
X008902Y015140D01*
X008993Y015220D01*
X009080Y015304D01*
X009165Y015390D01*
X009248Y015479D01*
X009327Y015570D01*
X009403Y015664D01*
X009476Y015761D01*
X009546Y015859D01*
X009613Y015960D01*
X009676Y016063D01*
X009736Y016168D01*
X009793Y016275D01*
X009846Y016384D01*
X009896Y016494D01*
X009942Y016606D01*
X009984Y016719D01*
X010023Y016834D01*
X010058Y016950D01*
X010089Y017067D01*
X010117Y017185D01*
X010140Y017303D01*
X010160Y017423D01*
X010160Y018525D02*
X010140Y018645D01*
X010117Y018763D01*
X010089Y018881D01*
X010058Y018998D01*
X010023Y019114D01*
X009984Y019229D01*
X009942Y019342D01*
X009896Y019454D01*
X009846Y019564D01*
X009793Y019673D01*
X009736Y019780D01*
X009676Y019885D01*
X009613Y019988D01*
X009546Y020089D01*
X009476Y020187D01*
X009403Y020284D01*
X009327Y020378D01*
X009248Y020469D01*
X009165Y020558D01*
X009080Y020644D01*
X008993Y020728D01*
X008902Y020808D01*
X008809Y020886D01*
X008714Y020960D01*
X008616Y021032D01*
X008516Y021100D01*
X008414Y021165D01*
X008310Y021226D01*
X008204Y021284D01*
X008096Y021339D01*
X007986Y021390D01*
X007875Y021438D01*
X007762Y021482D01*
X007648Y021522D01*
X007533Y021559D01*
X007416Y021591D01*
X007299Y021621D01*
X007181Y021646D01*
X007061Y021667D01*
X006942Y021685D01*
X006821Y021698D01*
X006701Y021708D01*
X006580Y021714D01*
X006459Y021716D01*
X006338Y021714D01*
X006217Y021708D01*
X006097Y021698D01*
X005976Y021685D01*
X005857Y021667D01*
X005737Y021646D01*
X005619Y021621D01*
X005502Y021591D01*
X005385Y021559D01*
X005270Y021522D01*
X005156Y021482D01*
X005043Y021438D01*
X004932Y021390D01*
X004822Y021339D01*
X004714Y021284D01*
X004608Y021226D01*
X004504Y021165D01*
X004402Y021100D01*
X004302Y021032D01*
X004204Y020960D01*
X004109Y020886D01*
X004016Y020808D01*
X003925Y020728D01*
X003838Y020644D01*
X003753Y020558D01*
X003670Y020469D01*
X003591Y020378D01*
X003515Y020284D01*
X003442Y020187D01*
X003372Y020089D01*
X003305Y019988D01*
X003242Y019885D01*
X003182Y019780D01*
X003125Y019673D01*
X003072Y019564D01*
X003022Y019454D01*
X002976Y019342D01*
X002934Y019229D01*
X002895Y019114D01*
X002860Y018998D01*
X002829Y018881D01*
X002801Y018763D01*
X002778Y018645D01*
X002758Y018525D01*
X002758Y027423D02*
X002778Y027303D01*
X002801Y027185D01*
X002829Y027067D01*
X002860Y026950D01*
X002895Y026834D01*
X002934Y026719D01*
X002976Y026606D01*
X003022Y026494D01*
X003072Y026384D01*
X003125Y026275D01*
X003182Y026168D01*
X003242Y026063D01*
X003305Y025960D01*
X003372Y025859D01*
X003442Y025761D01*
X003515Y025664D01*
X003591Y025570D01*
X003670Y025479D01*
X003753Y025390D01*
X003838Y025304D01*
X003925Y025220D01*
X004016Y025140D01*
X004109Y025062D01*
X004204Y024988D01*
X004302Y024916D01*
X004402Y024848D01*
X004504Y024783D01*
X004608Y024722D01*
X004714Y024664D01*
X004822Y024609D01*
X004932Y024558D01*
X005043Y024510D01*
X005156Y024466D01*
X005270Y024426D01*
X005385Y024389D01*
X005502Y024357D01*
X005619Y024327D01*
X005737Y024302D01*
X005857Y024281D01*
X005976Y024263D01*
X006097Y024250D01*
X006217Y024240D01*
X006338Y024234D01*
X006459Y024232D01*
X006580Y024234D01*
X006701Y024240D01*
X006821Y024250D01*
X006942Y024263D01*
X007061Y024281D01*
X007181Y024302D01*
X007299Y024327D01*
X007416Y024357D01*
X007533Y024389D01*
X007648Y024426D01*
X007762Y024466D01*
X007875Y024510D01*
X007986Y024558D01*
X008096Y024609D01*
X008204Y024664D01*
X008310Y024722D01*
X008414Y024783D01*
X008516Y024848D01*
X008616Y024916D01*
X008714Y024988D01*
X008809Y025062D01*
X008902Y025140D01*
X008993Y025220D01*
X009080Y025304D01*
X009165Y025390D01*
X009248Y025479D01*
X009327Y025570D01*
X009403Y025664D01*
X009476Y025761D01*
X009546Y025859D01*
X009613Y025960D01*
X009676Y026063D01*
X009736Y026168D01*
X009793Y026275D01*
X009846Y026384D01*
X009896Y026494D01*
X009942Y026606D01*
X009984Y026719D01*
X010023Y026834D01*
X010058Y026950D01*
X010089Y027067D01*
X010117Y027185D01*
X010140Y027303D01*
X010160Y027423D01*
X010160Y028525D02*
X010140Y028645D01*
X010117Y028763D01*
X010089Y028881D01*
X010058Y028998D01*
X010023Y029114D01*
X009984Y029229D01*
X009942Y029342D01*
X009896Y029454D01*
X009846Y029564D01*
X009793Y029673D01*
X009736Y029780D01*
X009676Y029885D01*
X009613Y029988D01*
X009546Y030089D01*
X009476Y030187D01*
X009403Y030284D01*
X009327Y030378D01*
X009248Y030469D01*
X009165Y030558D01*
X009080Y030644D01*
X008993Y030728D01*
X008902Y030808D01*
X008809Y030886D01*
X008714Y030960D01*
X008616Y031032D01*
X008516Y031100D01*
X008414Y031165D01*
X008310Y031226D01*
X008204Y031284D01*
X008096Y031339D01*
X007986Y031390D01*
X007875Y031438D01*
X007762Y031482D01*
X007648Y031522D01*
X007533Y031559D01*
X007416Y031591D01*
X007299Y031621D01*
X007181Y031646D01*
X007061Y031667D01*
X006942Y031685D01*
X006821Y031698D01*
X006701Y031708D01*
X006580Y031714D01*
X006459Y031716D01*
X006338Y031714D01*
X006217Y031708D01*
X006097Y031698D01*
X005976Y031685D01*
X005857Y031667D01*
X005737Y031646D01*
X005619Y031621D01*
X005502Y031591D01*
X005385Y031559D01*
X005270Y031522D01*
X005156Y031482D01*
X005043Y031438D01*
X004932Y031390D01*
X004822Y031339D01*
X004714Y031284D01*
X004608Y031226D01*
X004504Y031165D01*
X004402Y031100D01*
X004302Y031032D01*
X004204Y030960D01*
X004109Y030886D01*
X004016Y030808D01*
X003925Y030728D01*
X003838Y030644D01*
X003753Y030558D01*
X003670Y030469D01*
X003591Y030378D01*
X003515Y030284D01*
X003442Y030187D01*
X003372Y030089D01*
X003305Y029988D01*
X003242Y029885D01*
X003182Y029780D01*
X003125Y029673D01*
X003072Y029564D01*
X003022Y029454D01*
X002976Y029342D01*
X002934Y029229D01*
X002895Y029114D01*
X002860Y028998D01*
X002829Y028881D01*
X002801Y028763D01*
X002778Y028645D01*
X002758Y028525D01*
X012758Y027423D02*
X012778Y027303D01*
X012801Y027185D01*
X012829Y027067D01*
X012860Y026950D01*
X012895Y026834D01*
X012934Y026719D01*
X012976Y026606D01*
X013022Y026494D01*
X013072Y026384D01*
X013125Y026275D01*
X013182Y026168D01*
X013242Y026063D01*
X013305Y025960D01*
X013372Y025859D01*
X013442Y025761D01*
X013515Y025664D01*
X013591Y025570D01*
X013670Y025479D01*
X013753Y025390D01*
X013838Y025304D01*
X013925Y025220D01*
X014016Y025140D01*
X014109Y025062D01*
X014204Y024988D01*
X014302Y024916D01*
X014402Y024848D01*
X014504Y024783D01*
X014608Y024722D01*
X014714Y024664D01*
X014822Y024609D01*
X014932Y024558D01*
X015043Y024510D01*
X015156Y024466D01*
X015270Y024426D01*
X015385Y024389D01*
X015502Y024357D01*
X015619Y024327D01*
X015737Y024302D01*
X015857Y024281D01*
X015976Y024263D01*
X016097Y024250D01*
X016217Y024240D01*
X016338Y024234D01*
X016459Y024232D01*
X016580Y024234D01*
X016701Y024240D01*
X016821Y024250D01*
X016942Y024263D01*
X017061Y024281D01*
X017181Y024302D01*
X017299Y024327D01*
X017416Y024357D01*
X017533Y024389D01*
X017648Y024426D01*
X017762Y024466D01*
X017875Y024510D01*
X017986Y024558D01*
X018096Y024609D01*
X018204Y024664D01*
X018310Y024722D01*
X018414Y024783D01*
X018516Y024848D01*
X018616Y024916D01*
X018714Y024988D01*
X018809Y025062D01*
X018902Y025140D01*
X018993Y025220D01*
X019080Y025304D01*
X019165Y025390D01*
X019248Y025479D01*
X019327Y025570D01*
X019403Y025664D01*
X019476Y025761D01*
X019546Y025859D01*
X019613Y025960D01*
X019676Y026063D01*
X019736Y026168D01*
X019793Y026275D01*
X019846Y026384D01*
X019896Y026494D01*
X019942Y026606D01*
X019984Y026719D01*
X020023Y026834D01*
X020058Y026950D01*
X020089Y027067D01*
X020117Y027185D01*
X020140Y027303D01*
X020160Y027423D01*
X020160Y028525D02*
X020140Y028645D01*
X020117Y028763D01*
X020089Y028881D01*
X020058Y028998D01*
X020023Y029114D01*
X019984Y029229D01*
X019942Y029342D01*
X019896Y029454D01*
X019846Y029564D01*
X019793Y029673D01*
X019736Y029780D01*
X019676Y029885D01*
X019613Y029988D01*
X019546Y030089D01*
X019476Y030187D01*
X019403Y030284D01*
X019327Y030378D01*
X019248Y030469D01*
X019165Y030558D01*
X019080Y030644D01*
X018993Y030728D01*
X018902Y030808D01*
X018809Y030886D01*
X018714Y030960D01*
X018616Y031032D01*
X018516Y031100D01*
X018414Y031165D01*
X018310Y031226D01*
X018204Y031284D01*
X018096Y031339D01*
X017986Y031390D01*
X017875Y031438D01*
X017762Y031482D01*
X017648Y031522D01*
X017533Y031559D01*
X017416Y031591D01*
X017299Y031621D01*
X017181Y031646D01*
X017061Y031667D01*
X016942Y031685D01*
X016821Y031698D01*
X016701Y031708D01*
X016580Y031714D01*
X016459Y031716D01*
X016338Y031714D01*
X016217Y031708D01*
X016097Y031698D01*
X015976Y031685D01*
X015857Y031667D01*
X015737Y031646D01*
X015619Y031621D01*
X015502Y031591D01*
X015385Y031559D01*
X015270Y031522D01*
X015156Y031482D01*
X015043Y031438D01*
X014932Y031390D01*
X014822Y031339D01*
X014714Y031284D01*
X014608Y031226D01*
X014504Y031165D01*
X014402Y031100D01*
X014302Y031032D01*
X014204Y030960D01*
X014109Y030886D01*
X014016Y030808D01*
X013925Y030728D01*
X013838Y030644D01*
X013753Y030558D01*
X013670Y030469D01*
X013591Y030378D01*
X013515Y030284D01*
X013442Y030187D01*
X013372Y030089D01*
X013305Y029988D01*
X013242Y029885D01*
X013182Y029780D01*
X013125Y029673D01*
X013072Y029564D01*
X013022Y029454D01*
X012976Y029342D01*
X012934Y029229D01*
X012895Y029114D01*
X012860Y028998D01*
X012829Y028881D01*
X012801Y028763D01*
X012778Y028645D01*
X012758Y028525D01*
X012758Y018525D02*
X012778Y018645D01*
X012801Y018763D01*
X012829Y018881D01*
X012860Y018998D01*
X012895Y019114D01*
X012934Y019229D01*
X012976Y019342D01*
X013022Y019454D01*
X013072Y019564D01*
X013125Y019673D01*
X013182Y019780D01*
X013242Y019885D01*
X013305Y019988D01*
X013372Y020089D01*
X013442Y020187D01*
X013515Y020284D01*
X013591Y020378D01*
X013670Y020469D01*
X013753Y020558D01*
X013838Y020644D01*
X013925Y020728D01*
X014016Y020808D01*
X014109Y020886D01*
X014204Y020960D01*
X014302Y021032D01*
X014402Y021100D01*
X014504Y021165D01*
X014608Y021226D01*
X014714Y021284D01*
X014822Y021339D01*
X014932Y021390D01*
X015043Y021438D01*
X015156Y021482D01*
X015270Y021522D01*
X015385Y021559D01*
X015502Y021591D01*
X015619Y021621D01*
X015737Y021646D01*
X015857Y021667D01*
X015976Y021685D01*
X016097Y021698D01*
X016217Y021708D01*
X016338Y021714D01*
X016459Y021716D01*
X016580Y021714D01*
X016701Y021708D01*
X016821Y021698D01*
X016942Y021685D01*
X017061Y021667D01*
X017181Y021646D01*
X017299Y021621D01*
X017416Y021591D01*
X017533Y021559D01*
X017648Y021522D01*
X017762Y021482D01*
X017875Y021438D01*
X017986Y021390D01*
X018096Y021339D01*
X018204Y021284D01*
X018310Y021226D01*
X018414Y021165D01*
X018516Y021100D01*
X018616Y021032D01*
X018714Y020960D01*
X018809Y020886D01*
X018902Y020808D01*
X018993Y020728D01*
X019080Y020644D01*
X019165Y020558D01*
X019248Y020469D01*
X019327Y020378D01*
X019403Y020284D01*
X019476Y020187D01*
X019546Y020089D01*
X019613Y019988D01*
X019676Y019885D01*
X019736Y019780D01*
X019793Y019673D01*
X019846Y019564D01*
X019896Y019454D01*
X019942Y019342D01*
X019984Y019229D01*
X020023Y019114D01*
X020058Y018998D01*
X020089Y018881D01*
X020117Y018763D01*
X020140Y018645D01*
X020160Y018525D01*
X020160Y017423D02*
X020140Y017303D01*
X020117Y017185D01*
X020089Y017067D01*
X020058Y016950D01*
X020023Y016834D01*
X019984Y016719D01*
X019942Y016606D01*
X019896Y016494D01*
X019846Y016384D01*
X019793Y016275D01*
X019736Y016168D01*
X019676Y016063D01*
X019613Y015960D01*
X019546Y015859D01*
X019476Y015761D01*
X019403Y015664D01*
X019327Y015570D01*
X019248Y015479D01*
X019165Y015390D01*
X019080Y015304D01*
X018993Y015220D01*
X018902Y015140D01*
X018809Y015062D01*
X018714Y014988D01*
X018616Y014916D01*
X018516Y014848D01*
X018414Y014783D01*
X018310Y014722D01*
X018204Y014664D01*
X018096Y014609D01*
X017986Y014558D01*
X017875Y014510D01*
X017762Y014466D01*
X017648Y014426D01*
X017533Y014389D01*
X017416Y014357D01*
X017299Y014327D01*
X017181Y014302D01*
X017061Y014281D01*
X016942Y014263D01*
X016821Y014250D01*
X016701Y014240D01*
X016580Y014234D01*
X016459Y014232D01*
X016338Y014234D01*
X016217Y014240D01*
X016097Y014250D01*
X015976Y014263D01*
X015857Y014281D01*
X015737Y014302D01*
X015619Y014327D01*
X015502Y014357D01*
X015385Y014389D01*
X015270Y014426D01*
X015156Y014466D01*
X015043Y014510D01*
X014932Y014558D01*
X014822Y014609D01*
X014714Y014664D01*
X014608Y014722D01*
X014504Y014783D01*
X014402Y014848D01*
X014302Y014916D01*
X014204Y014988D01*
X014109Y015062D01*
X014016Y015140D01*
X013925Y015220D01*
X013838Y015304D01*
X013753Y015390D01*
X013670Y015479D01*
X013591Y015570D01*
X013515Y015664D01*
X013442Y015761D01*
X013372Y015859D01*
X013305Y015960D01*
X013242Y016063D01*
X013182Y016168D01*
X013125Y016275D01*
X013072Y016384D01*
X013022Y016494D01*
X012976Y016606D01*
X012934Y016719D01*
X012895Y016834D01*
X012860Y016950D01*
X012829Y017067D01*
X012801Y017185D01*
X012778Y017303D01*
X012758Y017423D01*
X012758Y008525D02*
X012778Y008645D01*
X012801Y008763D01*
X012829Y008881D01*
X012860Y008998D01*
X012895Y009114D01*
X012934Y009229D01*
X012976Y009342D01*
X013022Y009454D01*
X013072Y009564D01*
X013125Y009673D01*
X013182Y009780D01*
X013242Y009885D01*
X013305Y009988D01*
X013372Y010089D01*
X013442Y010187D01*
X013515Y010284D01*
X013591Y010378D01*
X013670Y010469D01*
X013753Y010558D01*
X013838Y010644D01*
X013925Y010728D01*
X014016Y010808D01*
X014109Y010886D01*
X014204Y010960D01*
X014302Y011032D01*
X014402Y011100D01*
X014504Y011165D01*
X014608Y011226D01*
X014714Y011284D01*
X014822Y011339D01*
X014932Y011390D01*
X015043Y011438D01*
X015156Y011482D01*
X015270Y011522D01*
X015385Y011559D01*
X015502Y011591D01*
X015619Y011621D01*
X015737Y011646D01*
X015857Y011667D01*
X015976Y011685D01*
X016097Y011698D01*
X016217Y011708D01*
X016338Y011714D01*
X016459Y011716D01*
X016580Y011714D01*
X016701Y011708D01*
X016821Y011698D01*
X016942Y011685D01*
X017061Y011667D01*
X017181Y011646D01*
X017299Y011621D01*
X017416Y011591D01*
X017533Y011559D01*
X017648Y011522D01*
X017762Y011482D01*
X017875Y011438D01*
X017986Y011390D01*
X018096Y011339D01*
X018204Y011284D01*
X018310Y011226D01*
X018414Y011165D01*
X018516Y011100D01*
X018616Y011032D01*
X018714Y010960D01*
X018809Y010886D01*
X018902Y010808D01*
X018993Y010728D01*
X019080Y010644D01*
X019165Y010558D01*
X019248Y010469D01*
X019327Y010378D01*
X019403Y010284D01*
X019476Y010187D01*
X019546Y010089D01*
X019613Y009988D01*
X019676Y009885D01*
X019736Y009780D01*
X019793Y009673D01*
X019846Y009564D01*
X019896Y009454D01*
X019942Y009342D01*
X019984Y009229D01*
X020023Y009114D01*
X020058Y008998D01*
X020089Y008881D01*
X020117Y008763D01*
X020140Y008645D01*
X020160Y008525D01*
X020160Y007423D02*
X020140Y007303D01*
X020117Y007185D01*
X020089Y007067D01*
X020058Y006950D01*
X020023Y006834D01*
X019984Y006719D01*
X019942Y006606D01*
X019896Y006494D01*
X019846Y006384D01*
X019793Y006275D01*
X019736Y006168D01*
X019676Y006063D01*
X019613Y005960D01*
X019546Y005859D01*
X019476Y005761D01*
X019403Y005664D01*
X019327Y005570D01*
X019248Y005479D01*
X019165Y005390D01*
X019080Y005304D01*
X018993Y005220D01*
X018902Y005140D01*
X018809Y005062D01*
X018714Y004988D01*
X018616Y004916D01*
X018516Y004848D01*
X018414Y004783D01*
X018310Y004722D01*
X018204Y004664D01*
X018096Y004609D01*
X017986Y004558D01*
X017875Y004510D01*
X017762Y004466D01*
X017648Y004426D01*
X017533Y004389D01*
X017416Y004357D01*
X017299Y004327D01*
X017181Y004302D01*
X017061Y004281D01*
X016942Y004263D01*
X016821Y004250D01*
X016701Y004240D01*
X016580Y004234D01*
X016459Y004232D01*
X016338Y004234D01*
X016217Y004240D01*
X016097Y004250D01*
X015976Y004263D01*
X015857Y004281D01*
X015737Y004302D01*
X015619Y004327D01*
X015502Y004357D01*
X015385Y004389D01*
X015270Y004426D01*
X015156Y004466D01*
X015043Y004510D01*
X014932Y004558D01*
X014822Y004609D01*
X014714Y004664D01*
X014608Y004722D01*
X014504Y004783D01*
X014402Y004848D01*
X014302Y004916D01*
X014204Y004988D01*
X014109Y005062D01*
X014016Y005140D01*
X013925Y005220D01*
X013838Y005304D01*
X013753Y005390D01*
X013670Y005479D01*
X013591Y005570D01*
X013515Y005664D01*
X013442Y005761D01*
X013372Y005859D01*
X013305Y005960D01*
X013242Y006063D01*
X013182Y006168D01*
X013125Y006275D01*
X013072Y006384D01*
X013022Y006494D01*
X012976Y006606D01*
X012934Y006719D01*
X012895Y006834D01*
X012860Y006950D01*
X012829Y007067D01*
X012801Y007185D01*
X012778Y007303D01*
X012758Y007423D01*
X022758Y007423D02*
X022778Y007303D01*
X022801Y007185D01*
X022829Y007067D01*
X022860Y006950D01*
X022895Y006834D01*
X022934Y006719D01*
X022976Y006606D01*
X023022Y006494D01*
X023072Y006384D01*
X023125Y006275D01*
X023182Y006168D01*
X023242Y006063D01*
X023305Y005960D01*
X023372Y005859D01*
X023442Y005761D01*
X023515Y005664D01*
X023591Y005570D01*
X023670Y005479D01*
X023753Y005390D01*
X023838Y005304D01*
X023925Y005220D01*
X024016Y005140D01*
X024109Y005062D01*
X024204Y004988D01*
X024302Y004916D01*
X024402Y004848D01*
X024504Y004783D01*
X024608Y004722D01*
X024714Y004664D01*
X024822Y004609D01*
X024932Y004558D01*
X025043Y004510D01*
X025156Y004466D01*
X025270Y004426D01*
X025385Y004389D01*
X025502Y004357D01*
X025619Y004327D01*
X025737Y004302D01*
X025857Y004281D01*
X025976Y004263D01*
X026097Y004250D01*
X026217Y004240D01*
X026338Y004234D01*
X026459Y004232D01*
X026580Y004234D01*
X026701Y004240D01*
X026821Y004250D01*
X026942Y004263D01*
X027061Y004281D01*
X027181Y004302D01*
X027299Y004327D01*
X027416Y004357D01*
X027533Y004389D01*
X027648Y004426D01*
X027762Y004466D01*
X027875Y004510D01*
X027986Y004558D01*
X028096Y004609D01*
X028204Y004664D01*
X028310Y004722D01*
X028414Y004783D01*
X028516Y004848D01*
X028616Y004916D01*
X028714Y004988D01*
X028809Y005062D01*
X028902Y005140D01*
X028993Y005220D01*
X029080Y005304D01*
X029165Y005390D01*
X029248Y005479D01*
X029327Y005570D01*
X029403Y005664D01*
X029476Y005761D01*
X029546Y005859D01*
X029613Y005960D01*
X029676Y006063D01*
X029736Y006168D01*
X029793Y006275D01*
X029846Y006384D01*
X029896Y006494D01*
X029942Y006606D01*
X029984Y006719D01*
X030023Y006834D01*
X030058Y006950D01*
X030089Y007067D01*
X030117Y007185D01*
X030140Y007303D01*
X030160Y007423D01*
X030160Y008525D02*
X030140Y008645D01*
X030117Y008763D01*
X030089Y008881D01*
X030058Y008998D01*
X030023Y009114D01*
X029984Y009229D01*
X029942Y009342D01*
X029896Y009454D01*
X029846Y009564D01*
X029793Y009673D01*
X029736Y009780D01*
X029676Y009885D01*
X029613Y009988D01*
X029546Y010089D01*
X029476Y010187D01*
X029403Y010284D01*
X029327Y010378D01*
X029248Y010469D01*
X029165Y010558D01*
X029080Y010644D01*
X028993Y010728D01*
X028902Y010808D01*
X028809Y010886D01*
X028714Y010960D01*
X028616Y011032D01*
X028516Y011100D01*
X028414Y011165D01*
X028310Y011226D01*
X028204Y011284D01*
X028096Y011339D01*
X027986Y011390D01*
X027875Y011438D01*
X027762Y011482D01*
X027648Y011522D01*
X027533Y011559D01*
X027416Y011591D01*
X027299Y011621D01*
X027181Y011646D01*
X027061Y011667D01*
X026942Y011685D01*
X026821Y011698D01*
X026701Y011708D01*
X026580Y011714D01*
X026459Y011716D01*
X026338Y011714D01*
X026217Y011708D01*
X026097Y011698D01*
X025976Y011685D01*
X025857Y011667D01*
X025737Y011646D01*
X025619Y011621D01*
X025502Y011591D01*
X025385Y011559D01*
X025270Y011522D01*
X025156Y011482D01*
X025043Y011438D01*
X024932Y011390D01*
X024822Y011339D01*
X024714Y011284D01*
X024608Y011226D01*
X024504Y011165D01*
X024402Y011100D01*
X024302Y011032D01*
X024204Y010960D01*
X024109Y010886D01*
X024016Y010808D01*
X023925Y010728D01*
X023838Y010644D01*
X023753Y010558D01*
X023670Y010469D01*
X023591Y010378D01*
X023515Y010284D01*
X023442Y010187D01*
X023372Y010089D01*
X023305Y009988D01*
X023242Y009885D01*
X023182Y009780D01*
X023125Y009673D01*
X023072Y009564D01*
X023022Y009454D01*
X022976Y009342D01*
X022934Y009229D01*
X022895Y009114D01*
X022860Y008998D01*
X022829Y008881D01*
X022801Y008763D01*
X022778Y008645D01*
X022758Y008525D01*
X022758Y017423D02*
X022778Y017303D01*
X022801Y017185D01*
X022829Y017067D01*
X022860Y016950D01*
X022895Y016834D01*
X022934Y016719D01*
X022976Y016606D01*
X023022Y016494D01*
X023072Y016384D01*
X023125Y016275D01*
X023182Y016168D01*
X023242Y016063D01*
X023305Y015960D01*
X023372Y015859D01*
X023442Y015761D01*
X023515Y015664D01*
X023591Y015570D01*
X023670Y015479D01*
X023753Y015390D01*
X023838Y015304D01*
X023925Y015220D01*
X024016Y015140D01*
X024109Y015062D01*
X024204Y014988D01*
X024302Y014916D01*
X024402Y014848D01*
X024504Y014783D01*
X024608Y014722D01*
X024714Y014664D01*
X024822Y014609D01*
X024932Y014558D01*
X025043Y014510D01*
X025156Y014466D01*
X025270Y014426D01*
X025385Y014389D01*
X025502Y014357D01*
X025619Y014327D01*
X025737Y014302D01*
X025857Y014281D01*
X025976Y014263D01*
X026097Y014250D01*
X026217Y014240D01*
X026338Y014234D01*
X026459Y014232D01*
X026580Y014234D01*
X026701Y014240D01*
X026821Y014250D01*
X026942Y014263D01*
X027061Y014281D01*
X027181Y014302D01*
X027299Y014327D01*
X027416Y014357D01*
X027533Y014389D01*
X027648Y014426D01*
X027762Y014466D01*
X027875Y014510D01*
X027986Y014558D01*
X028096Y014609D01*
X028204Y014664D01*
X028310Y014722D01*
X028414Y014783D01*
X028516Y014848D01*
X028616Y014916D01*
X028714Y014988D01*
X028809Y015062D01*
X028902Y015140D01*
X028993Y015220D01*
X029080Y015304D01*
X029165Y015390D01*
X029248Y015479D01*
X029327Y015570D01*
X029403Y015664D01*
X029476Y015761D01*
X029546Y015859D01*
X029613Y015960D01*
X029676Y016063D01*
X029736Y016168D01*
X029793Y016275D01*
X029846Y016384D01*
X029896Y016494D01*
X029942Y016606D01*
X029984Y016719D01*
X030023Y016834D01*
X030058Y016950D01*
X030089Y017067D01*
X030117Y017185D01*
X030140Y017303D01*
X030160Y017423D01*
X030160Y018525D02*
X030140Y018645D01*
X030117Y018763D01*
X030089Y018881D01*
X030058Y018998D01*
X030023Y019114D01*
X029984Y019229D01*
X029942Y019342D01*
X029896Y019454D01*
X029846Y019564D01*
X029793Y019673D01*
X029736Y019780D01*
X029676Y019885D01*
X029613Y019988D01*
X029546Y020089D01*
X029476Y020187D01*
X029403Y020284D01*
X029327Y020378D01*
X029248Y020469D01*
X029165Y020558D01*
X029080Y020644D01*
X028993Y020728D01*
X028902Y020808D01*
X028809Y020886D01*
X028714Y020960D01*
X028616Y021032D01*
X028516Y021100D01*
X028414Y021165D01*
X028310Y021226D01*
X028204Y021284D01*
X028096Y021339D01*
X027986Y021390D01*
X027875Y021438D01*
X027762Y021482D01*
X027648Y021522D01*
X027533Y021559D01*
X027416Y021591D01*
X027299Y021621D01*
X027181Y021646D01*
X027061Y021667D01*
X026942Y021685D01*
X026821Y021698D01*
X026701Y021708D01*
X026580Y021714D01*
X026459Y021716D01*
X026338Y021714D01*
X026217Y021708D01*
X026097Y021698D01*
X025976Y021685D01*
X025857Y021667D01*
X025737Y021646D01*
X025619Y021621D01*
X025502Y021591D01*
X025385Y021559D01*
X025270Y021522D01*
X025156Y021482D01*
X025043Y021438D01*
X024932Y021390D01*
X024822Y021339D01*
X024714Y021284D01*
X024608Y021226D01*
X024504Y021165D01*
X024402Y021100D01*
X024302Y021032D01*
X024204Y020960D01*
X024109Y020886D01*
X024016Y020808D01*
X023925Y020728D01*
X023838Y020644D01*
X023753Y020558D01*
X023670Y020469D01*
X023591Y020378D01*
X023515Y020284D01*
X023442Y020187D01*
X023372Y020089D01*
X023305Y019988D01*
X023242Y019885D01*
X023182Y019780D01*
X023125Y019673D01*
X023072Y019564D01*
X023022Y019454D01*
X022976Y019342D01*
X022934Y019229D01*
X022895Y019114D01*
X022860Y018998D01*
X022829Y018881D01*
X022801Y018763D01*
X022778Y018645D01*
X022758Y018525D01*
X022758Y027423D02*
X022778Y027303D01*
X022801Y027185D01*
X022829Y027067D01*
X022860Y026950D01*
X022895Y026834D01*
X022934Y026719D01*
X022976Y026606D01*
X023022Y026494D01*
X023072Y026384D01*
X023125Y026275D01*
X023182Y026168D01*
X023242Y026063D01*
X023305Y025960D01*
X023372Y025859D01*
X023442Y025761D01*
X023515Y025664D01*
X023591Y025570D01*
X023670Y025479D01*
X023753Y025390D01*
X023838Y025304D01*
X023925Y025220D01*
X024016Y025140D01*
X024109Y025062D01*
X024204Y024988D01*
X024302Y024916D01*
X024402Y024848D01*
X024504Y024783D01*
X024608Y024722D01*
X024714Y024664D01*
X024822Y024609D01*
X024932Y024558D01*
X025043Y024510D01*
X025156Y024466D01*
X025270Y024426D01*
X025385Y024389D01*
X025502Y024357D01*
X025619Y024327D01*
X025737Y024302D01*
X025857Y024281D01*
X025976Y024263D01*
X026097Y024250D01*
X026217Y024240D01*
X026338Y024234D01*
X026459Y024232D01*
X026580Y024234D01*
X026701Y024240D01*
X026821Y024250D01*
X026942Y024263D01*
X027061Y024281D01*
X027181Y024302D01*
X027299Y024327D01*
X027416Y024357D01*
X027533Y024389D01*
X027648Y024426D01*
X027762Y024466D01*
X027875Y024510D01*
X027986Y024558D01*
X028096Y024609D01*
X028204Y024664D01*
X028310Y024722D01*
X028414Y024783D01*
X028516Y024848D01*
X028616Y024916D01*
X028714Y024988D01*
X028809Y025062D01*
X028902Y025140D01*
X028993Y025220D01*
X029080Y025304D01*
X029165Y025390D01*
X029248Y025479D01*
X029327Y025570D01*
X029403Y025664D01*
X029476Y025761D01*
X029546Y025859D01*
X029613Y025960D01*
X029676Y026063D01*
X029736Y026168D01*
X029793Y026275D01*
X029846Y026384D01*
X029896Y026494D01*
X029942Y026606D01*
X029984Y026719D01*
X030023Y026834D01*
X030058Y026950D01*
X030089Y027067D01*
X030117Y027185D01*
X030140Y027303D01*
X030160Y027423D01*
X030160Y028525D02*
X030140Y028645D01*
X030117Y028763D01*
X030089Y028881D01*
X030058Y028998D01*
X030023Y029114D01*
X029984Y029229D01*
X029942Y029342D01*
X029896Y029454D01*
X029846Y029564D01*
X029793Y029673D01*
X029736Y029780D01*
X029676Y029885D01*
X029613Y029988D01*
X029546Y030089D01*
X029476Y030187D01*
X029403Y030284D01*
X029327Y030378D01*
X029248Y030469D01*
X029165Y030558D01*
X029080Y030644D01*
X028993Y030728D01*
X028902Y030808D01*
X028809Y030886D01*
X028714Y030960D01*
X028616Y031032D01*
X028516Y031100D01*
X028414Y031165D01*
X028310Y031226D01*
X028204Y031284D01*
X028096Y031339D01*
X027986Y031390D01*
X027875Y031438D01*
X027762Y031482D01*
X027648Y031522D01*
X027533Y031559D01*
X027416Y031591D01*
X027299Y031621D01*
X027181Y031646D01*
X027061Y031667D01*
X026942Y031685D01*
X026821Y031698D01*
X026701Y031708D01*
X026580Y031714D01*
X026459Y031716D01*
X026338Y031714D01*
X026217Y031708D01*
X026097Y031698D01*
X025976Y031685D01*
X025857Y031667D01*
X025737Y031646D01*
X025619Y031621D01*
X025502Y031591D01*
X025385Y031559D01*
X025270Y031522D01*
X025156Y031482D01*
X025043Y031438D01*
X024932Y031390D01*
X024822Y031339D01*
X024714Y031284D01*
X024608Y031226D01*
X024504Y031165D01*
X024402Y031100D01*
X024302Y031032D01*
X024204Y030960D01*
X024109Y030886D01*
X024016Y030808D01*
X023925Y030728D01*
X023838Y030644D01*
X023753Y030558D01*
X023670Y030469D01*
X023591Y030378D01*
X023515Y030284D01*
X023442Y030187D01*
X023372Y030089D01*
X023305Y029988D01*
X023242Y029885D01*
X023182Y029780D01*
X023125Y029673D01*
X023072Y029564D01*
X023022Y029454D01*
X022976Y029342D01*
X022934Y029229D01*
X022895Y029114D01*
X022860Y028998D01*
X022829Y028881D01*
X022801Y028763D01*
X022778Y028645D01*
X022758Y028525D01*
D11*
X023381Y027196D02*
X023736Y026435D01*
X023337Y026249D01*
X022982Y027010D01*
X023381Y027196D01*
X025065Y027551D02*
X025505Y027551D01*
X025505Y028391D01*
X025065Y028391D01*
X025065Y027551D01*
X025584Y027574D02*
X025584Y028374D01*
X027334Y028374D01*
X027334Y027574D01*
X025584Y027574D01*
X025174Y029578D02*
X025174Y030228D01*
X026424Y030228D01*
X026424Y029578D01*
X025174Y029578D01*
X027102Y031070D02*
X027252Y031483D01*
X028042Y031196D01*
X027891Y030783D01*
X027102Y031070D01*
X028969Y028829D02*
X029809Y028829D01*
X029809Y028389D01*
X028969Y028389D01*
X028969Y028829D01*
X029012Y028131D02*
X029287Y028131D01*
X029287Y027855D01*
X029287Y026832D02*
X029287Y026556D01*
X029012Y026556D01*
X028839Y026358D02*
X029279Y026358D01*
X029279Y025518D01*
X028839Y025518D01*
X028839Y026358D01*
X028738Y026362D02*
X028298Y026362D01*
X028298Y025522D01*
X028738Y025522D01*
X028738Y026362D01*
X028184Y026354D02*
X028184Y025514D01*
X027744Y025514D01*
X027744Y026354D01*
X028184Y026354D01*
X027988Y026556D02*
X027712Y026556D01*
X027712Y026832D01*
X027712Y027855D02*
X027712Y028131D01*
X027988Y028131D01*
X027785Y025340D02*
X026945Y025340D01*
X026945Y024900D01*
X027785Y024900D01*
X027785Y025340D01*
X026840Y025222D02*
X026840Y024782D01*
X026000Y024782D01*
X026000Y025222D01*
X026840Y025222D01*
X025966Y025226D02*
X025966Y024786D01*
X025126Y024786D01*
X025126Y025226D01*
X025966Y025226D01*
X027252Y021483D02*
X028042Y021196D01*
X027891Y020783D01*
X027102Y021070D01*
X027252Y021483D01*
X026424Y020228D02*
X026424Y019578D01*
X025174Y019578D01*
X025174Y020228D01*
X026424Y020228D01*
X025584Y018374D02*
X025584Y017574D01*
X027334Y017574D01*
X027334Y018374D01*
X025584Y018374D01*
X025505Y018391D02*
X025505Y017551D01*
X025065Y017551D01*
X025065Y018391D01*
X025505Y018391D01*
X027712Y018131D02*
X027712Y017855D01*
X027712Y018131D02*
X027988Y018131D01*
X028969Y018389D02*
X028969Y018829D01*
X029809Y018829D01*
X029809Y018389D01*
X028969Y018389D01*
X029012Y018131D02*
X029287Y018131D01*
X029287Y017855D01*
X029287Y016832D02*
X029287Y016556D01*
X029012Y016556D01*
X028839Y016358D02*
X029279Y016358D01*
X029279Y015518D01*
X028839Y015518D01*
X028839Y016358D01*
X028738Y016362D02*
X028298Y016362D01*
X028298Y015522D01*
X028738Y015522D01*
X028738Y016362D01*
X028184Y016354D02*
X028184Y015514D01*
X027744Y015514D01*
X027744Y016354D01*
X028184Y016354D01*
X027988Y016556D02*
X027712Y016556D01*
X027712Y016832D01*
X027785Y015340D02*
X026945Y015340D01*
X026945Y014900D01*
X027785Y014900D01*
X027785Y015340D01*
X026840Y015222D02*
X026840Y014782D01*
X026000Y014782D01*
X026000Y015222D01*
X026840Y015222D01*
X025966Y015226D02*
X025966Y014786D01*
X025126Y014786D01*
X025126Y015226D01*
X025966Y015226D01*
X027060Y013214D02*
X026943Y013097D01*
X026943Y012980D01*
X027060Y012864D01*
X027189Y012922D02*
X027247Y012864D01*
X027364Y012864D01*
X027422Y012922D01*
X027422Y013039D01*
X027364Y013097D01*
X027306Y013097D01*
X027189Y013039D01*
X027189Y013214D01*
X027422Y013214D01*
X027557Y013156D02*
X027557Y013097D01*
X027615Y013039D01*
X027791Y013039D01*
X027791Y013156D02*
X027732Y013214D01*
X027615Y013214D01*
X027557Y013156D01*
X027791Y013156D02*
X027791Y012922D01*
X027732Y012864D01*
X027615Y012864D01*
X027557Y012922D01*
X027925Y012747D02*
X028042Y012864D01*
X027984Y012864D01*
X027984Y012922D01*
X028042Y012922D01*
X028042Y012864D01*
X028171Y012864D02*
X028404Y012864D01*
X028288Y012864D02*
X028288Y013214D01*
X028171Y013097D01*
X028539Y013156D02*
X028598Y013214D01*
X028714Y013214D01*
X028773Y013156D01*
X028773Y013097D01*
X028539Y012864D01*
X028773Y012864D01*
X028908Y012864D02*
X029024Y012980D01*
X029024Y013097D01*
X028908Y013214D01*
X028223Y012497D02*
X028282Y012439D01*
X028282Y012264D01*
X028165Y012264D02*
X028165Y012439D01*
X028223Y012497D01*
X028165Y012439D02*
X028107Y012497D01*
X028048Y012497D01*
X028048Y012264D01*
X027913Y012264D02*
X027913Y012439D01*
X027855Y012497D01*
X027797Y012439D01*
X027797Y012264D01*
X027680Y012264D02*
X027680Y012497D01*
X027738Y012497D01*
X027797Y012439D01*
X027252Y011483D02*
X028042Y011196D01*
X027891Y010783D01*
X027102Y011070D01*
X027252Y011483D01*
X026424Y010228D02*
X026424Y009578D01*
X025174Y009578D01*
X025174Y010228D01*
X026424Y010228D01*
X025584Y008374D02*
X025584Y007574D01*
X027334Y007574D01*
X027334Y008374D01*
X025584Y008374D01*
X025505Y008391D02*
X025505Y007551D01*
X025065Y007551D01*
X025065Y008391D01*
X025505Y008391D01*
X027712Y008131D02*
X027712Y007855D01*
X027712Y008131D02*
X027988Y008131D01*
X028969Y008389D02*
X028969Y008829D01*
X029809Y008829D01*
X029809Y008389D01*
X028969Y008389D01*
X029012Y008131D02*
X029287Y008131D01*
X029287Y007855D01*
X029287Y006832D02*
X029287Y006556D01*
X029012Y006556D01*
X028839Y006358D02*
X029279Y006358D01*
X029279Y005518D01*
X028839Y005518D01*
X028839Y006358D01*
X028738Y006362D02*
X028298Y006362D01*
X028298Y005522D01*
X028738Y005522D01*
X028738Y006362D01*
X028184Y006354D02*
X028184Y005514D01*
X027744Y005514D01*
X027744Y006354D01*
X028184Y006354D01*
X027988Y006556D02*
X027712Y006556D01*
X027712Y006832D01*
X027785Y005340D02*
X026945Y005340D01*
X026945Y004900D01*
X027785Y004900D01*
X027785Y005340D01*
X026840Y005222D02*
X026840Y004782D01*
X026000Y004782D01*
X026000Y005222D01*
X026840Y005222D01*
X025966Y005226D02*
X025966Y004786D01*
X025126Y004786D01*
X025126Y005226D01*
X025966Y005226D01*
X023736Y006435D02*
X023337Y006249D01*
X022982Y007010D01*
X023381Y007196D01*
X023736Y006435D01*
X019809Y008389D02*
X019809Y008829D01*
X018969Y008829D01*
X018969Y008389D01*
X019809Y008389D01*
X019287Y008131D02*
X019287Y007855D01*
X019287Y008131D02*
X019012Y008131D01*
X017988Y008131D02*
X017712Y008131D01*
X017712Y007855D01*
X017334Y007574D02*
X015584Y007574D01*
X015584Y008374D01*
X017334Y008374D01*
X017334Y007574D01*
X017712Y006832D02*
X017712Y006556D01*
X017988Y006556D01*
X018184Y006354D02*
X017744Y006354D01*
X017744Y005514D01*
X018184Y005514D01*
X018184Y006354D01*
X018298Y006362D02*
X018738Y006362D01*
X018738Y005522D01*
X018298Y005522D01*
X018298Y006362D01*
X018839Y006358D02*
X018839Y005518D01*
X019279Y005518D01*
X019279Y006358D01*
X018839Y006358D01*
X019012Y006556D02*
X019287Y006556D01*
X019287Y006832D01*
X017785Y005340D02*
X017785Y004900D01*
X016945Y004900D01*
X016945Y005340D01*
X017785Y005340D01*
X016840Y005222D02*
X016840Y004782D01*
X016000Y004782D01*
X016000Y005222D01*
X016840Y005222D01*
X015966Y005226D02*
X015966Y004786D01*
X015126Y004786D01*
X015126Y005226D01*
X015966Y005226D01*
X015505Y007551D02*
X015065Y007551D01*
X015065Y008391D01*
X015505Y008391D01*
X015505Y007551D01*
X015174Y009578D02*
X015174Y010228D01*
X016424Y010228D01*
X016424Y009578D01*
X015174Y009578D01*
X017102Y011070D02*
X017252Y011483D01*
X018042Y011196D01*
X017891Y010783D01*
X017102Y011070D01*
X016840Y014782D02*
X016000Y014782D01*
X016000Y015222D01*
X016840Y015222D01*
X016840Y014782D01*
X016945Y014900D02*
X016945Y015340D01*
X017785Y015340D01*
X017785Y014900D01*
X016945Y014900D01*
X017744Y015514D02*
X017744Y016354D01*
X018184Y016354D01*
X018184Y015514D01*
X017744Y015514D01*
X018298Y015522D02*
X018298Y016362D01*
X018738Y016362D01*
X018738Y015522D01*
X018298Y015522D01*
X018839Y015518D02*
X018839Y016358D01*
X019279Y016358D01*
X019279Y015518D01*
X018839Y015518D01*
X019012Y016556D02*
X019287Y016556D01*
X019287Y016832D01*
X019287Y017855D02*
X019287Y018131D01*
X019012Y018131D01*
X018969Y018389D02*
X018969Y018829D01*
X019809Y018829D01*
X019809Y018389D01*
X018969Y018389D01*
X017988Y018131D02*
X017712Y018131D01*
X017712Y017855D01*
X017334Y017574D02*
X015584Y017574D01*
X015584Y018374D01*
X017334Y018374D01*
X017334Y017574D01*
X017712Y016832D02*
X017712Y016556D01*
X017988Y016556D01*
X015966Y015226D02*
X015966Y014786D01*
X015126Y014786D01*
X015126Y015226D01*
X015966Y015226D01*
X015505Y017551D02*
X015065Y017551D01*
X015065Y018391D01*
X015505Y018391D01*
X015505Y017551D01*
X015174Y019578D02*
X015174Y020228D01*
X016424Y020228D01*
X016424Y019578D01*
X015174Y019578D01*
X017102Y021070D02*
X017252Y021483D01*
X018042Y021196D01*
X017891Y020783D01*
X017102Y021070D01*
X016840Y024782D02*
X016000Y024782D01*
X016000Y025222D01*
X016840Y025222D01*
X016840Y024782D01*
X016945Y024900D02*
X016945Y025340D01*
X017785Y025340D01*
X017785Y024900D01*
X016945Y024900D01*
X017744Y025514D02*
X017744Y026354D01*
X018184Y026354D01*
X018184Y025514D01*
X017744Y025514D01*
X018298Y025522D02*
X018298Y026362D01*
X018738Y026362D01*
X018738Y025522D01*
X018298Y025522D01*
X018839Y025518D02*
X018839Y026358D01*
X019279Y026358D01*
X019279Y025518D01*
X018839Y025518D01*
X019012Y026556D02*
X019287Y026556D01*
X019287Y026832D01*
X019287Y027855D02*
X019287Y028131D01*
X019012Y028131D01*
X018969Y028389D02*
X018969Y028829D01*
X019809Y028829D01*
X019809Y028389D01*
X018969Y028389D01*
X017988Y028131D02*
X017712Y028131D01*
X017712Y027855D01*
X017334Y027574D02*
X015584Y027574D01*
X015584Y028374D01*
X017334Y028374D01*
X017334Y027574D01*
X017712Y026832D02*
X017712Y026556D01*
X017988Y026556D01*
X015966Y025226D02*
X015966Y024786D01*
X015126Y024786D01*
X015126Y025226D01*
X015966Y025226D01*
X015505Y027551D02*
X015065Y027551D01*
X015065Y028391D01*
X015505Y028391D01*
X015505Y027551D01*
X015174Y029578D02*
X015174Y030228D01*
X016424Y030228D01*
X016424Y029578D01*
X015174Y029578D01*
X017102Y031070D02*
X017252Y031483D01*
X018042Y031196D01*
X017891Y030783D01*
X017102Y031070D01*
X013381Y027196D02*
X013736Y026435D01*
X013337Y026249D01*
X012982Y027010D01*
X013381Y027196D01*
X009809Y028389D02*
X009809Y028829D01*
X008969Y028829D01*
X008969Y028389D01*
X009809Y028389D01*
X009287Y028131D02*
X009012Y028131D01*
X009287Y028131D02*
X009287Y027855D01*
X009287Y026832D02*
X009287Y026556D01*
X009012Y026556D01*
X008839Y026358D02*
X009279Y026358D01*
X009279Y025518D01*
X008839Y025518D01*
X008839Y026358D01*
X008738Y026362D02*
X008298Y026362D01*
X008298Y025522D01*
X008738Y025522D01*
X008738Y026362D01*
X008184Y026354D02*
X008184Y025514D01*
X007744Y025514D01*
X007744Y026354D01*
X008184Y026354D01*
X007988Y026556D02*
X007712Y026556D01*
X007712Y026832D01*
X007334Y027574D02*
X005584Y027574D01*
X005584Y028374D01*
X007334Y028374D01*
X007334Y027574D01*
X007712Y027855D02*
X007712Y028131D01*
X007988Y028131D01*
X006424Y029578D02*
X005174Y029578D01*
X005174Y030228D01*
X006424Y030228D01*
X006424Y029578D01*
X005505Y028391D02*
X005505Y027551D01*
X005065Y027551D01*
X005065Y028391D01*
X005505Y028391D01*
X003381Y027196D02*
X003736Y026435D01*
X003337Y026249D01*
X002982Y027010D01*
X003381Y027196D01*
X005126Y025226D02*
X005126Y024786D01*
X005966Y024786D01*
X005966Y025226D01*
X005126Y025226D01*
X006000Y025222D02*
X006000Y024782D01*
X006840Y024782D01*
X006840Y025222D01*
X006000Y025222D01*
X006945Y025340D02*
X006945Y024900D01*
X007785Y024900D01*
X007785Y025340D01*
X006945Y025340D01*
X007252Y021483D02*
X008042Y021196D01*
X007891Y020783D01*
X007102Y021070D01*
X007252Y021483D01*
X006424Y020228D02*
X006424Y019578D01*
X005174Y019578D01*
X005174Y020228D01*
X006424Y020228D01*
X005584Y018374D02*
X005584Y017574D01*
X007334Y017574D01*
X007334Y018374D01*
X005584Y018374D01*
X005505Y018391D02*
X005505Y017551D01*
X005065Y017551D01*
X005065Y018391D01*
X005505Y018391D01*
X003381Y017196D02*
X003736Y016435D01*
X003337Y016249D01*
X002982Y017010D01*
X003381Y017196D01*
X005126Y015226D02*
X005126Y014786D01*
X005966Y014786D01*
X005966Y015226D01*
X005126Y015226D01*
X006000Y015222D02*
X006000Y014782D01*
X006840Y014782D01*
X006840Y015222D01*
X006000Y015222D01*
X006945Y015340D02*
X006945Y014900D01*
X007785Y014900D01*
X007785Y015340D01*
X006945Y015340D01*
X007744Y015514D02*
X007744Y016354D01*
X008184Y016354D01*
X008184Y015514D01*
X007744Y015514D01*
X008298Y015522D02*
X008298Y016362D01*
X008738Y016362D01*
X008738Y015522D01*
X008298Y015522D01*
X008839Y015518D02*
X008839Y016358D01*
X009279Y016358D01*
X009279Y015518D01*
X008839Y015518D01*
X009012Y016556D02*
X009287Y016556D01*
X009287Y016832D01*
X009287Y017855D02*
X009287Y018131D01*
X009012Y018131D01*
X008969Y018389D02*
X008969Y018829D01*
X009809Y018829D01*
X009809Y018389D01*
X008969Y018389D01*
X007988Y018131D02*
X007712Y018131D01*
X007712Y017855D01*
X007712Y016832D02*
X007712Y016556D01*
X007988Y016556D01*
X007252Y011483D02*
X008042Y011196D01*
X007891Y010783D01*
X007102Y011070D01*
X007252Y011483D01*
X006424Y010228D02*
X006424Y009578D01*
X005174Y009578D01*
X005174Y010228D01*
X006424Y010228D01*
X005584Y008374D02*
X005584Y007574D01*
X007334Y007574D01*
X007334Y008374D01*
X005584Y008374D01*
X005505Y008391D02*
X005505Y007551D01*
X005065Y007551D01*
X005065Y008391D01*
X005505Y008391D01*
X003381Y007196D02*
X003736Y006435D01*
X003337Y006249D01*
X002982Y007010D01*
X003381Y007196D01*
X005126Y005226D02*
X005126Y004786D01*
X005966Y004786D01*
X005966Y005226D01*
X005126Y005226D01*
X006000Y005222D02*
X006000Y004782D01*
X006840Y004782D01*
X006840Y005222D01*
X006000Y005222D01*
X006945Y005340D02*
X006945Y004900D01*
X007785Y004900D01*
X007785Y005340D01*
X006945Y005340D01*
X007744Y005514D02*
X007744Y006354D01*
X008184Y006354D01*
X008184Y005514D01*
X007744Y005514D01*
X008298Y005522D02*
X008298Y006362D01*
X008738Y006362D01*
X008738Y005522D01*
X008298Y005522D01*
X008839Y005518D02*
X008839Y006358D01*
X009279Y006358D01*
X009279Y005518D01*
X008839Y005518D01*
X009012Y006556D02*
X009287Y006556D01*
X009287Y006832D01*
X009287Y007855D02*
X009287Y008131D01*
X009012Y008131D01*
X008969Y008389D02*
X008969Y008829D01*
X009809Y008829D01*
X009809Y008389D01*
X008969Y008389D01*
X007988Y008131D02*
X007712Y008131D01*
X007712Y007855D01*
X007712Y006832D02*
X007712Y006556D01*
X007988Y006556D01*
X003938Y003784D02*
X003821Y003901D01*
X003686Y003843D02*
X003686Y003784D01*
X003628Y003726D01*
X003511Y003726D01*
X003452Y003784D01*
X003452Y003843D01*
X003511Y003901D01*
X003628Y003901D01*
X003686Y003843D01*
X003628Y003726D02*
X003686Y003668D01*
X003686Y003609D01*
X003628Y003551D01*
X003511Y003551D01*
X003452Y003609D01*
X003452Y003668D01*
X003511Y003726D01*
X003318Y003726D02*
X003084Y003726D01*
X002955Y003609D02*
X002955Y003551D01*
X002897Y003551D01*
X002897Y003609D01*
X002955Y003609D01*
X002955Y003551D02*
X002839Y003434D01*
X002704Y003551D02*
X002470Y003551D01*
X002587Y003551D02*
X002587Y003901D01*
X002470Y003784D01*
X002335Y003551D02*
X002102Y003551D01*
X002219Y003551D02*
X002219Y003901D01*
X002102Y003784D01*
X001967Y003726D02*
X001734Y003726D01*
X001605Y003901D02*
X001488Y003784D01*
X001488Y003668D01*
X001605Y003551D01*
X002409Y003184D02*
X002467Y003184D01*
X002526Y003126D01*
X002584Y003184D01*
X002642Y003126D01*
X002642Y002951D01*
X002526Y002951D02*
X002526Y003126D01*
X002409Y003184D02*
X002409Y002951D01*
X002777Y002951D02*
X002777Y003184D01*
X002836Y003184D01*
X002894Y003126D01*
X002952Y003184D01*
X003011Y003126D01*
X003011Y002951D01*
X002894Y002951D02*
X002894Y003126D01*
X003821Y003551D02*
X003938Y003668D01*
X003938Y003784D01*
X012982Y007010D02*
X013381Y007196D01*
X013736Y006435D01*
X013337Y006249D01*
X012982Y007010D01*
X013337Y016249D02*
X013736Y016435D01*
X013381Y017196D01*
X012982Y017010D01*
X013337Y016249D01*
X022982Y017010D02*
X023381Y017196D01*
X023736Y016435D01*
X023337Y016249D01*
X022982Y017010D01*
X030132Y032094D02*
X030132Y032327D01*
X030190Y032327D01*
X030248Y032269D01*
X030307Y032327D01*
X030365Y032269D01*
X030365Y032094D01*
X030248Y032094D02*
X030248Y032269D01*
X030500Y032327D02*
X030500Y032094D01*
X030617Y032094D02*
X030617Y032269D01*
X030675Y032327D01*
X030733Y032269D01*
X030733Y032094D01*
X030617Y032269D02*
X030558Y032327D01*
X030500Y032327D01*
X030377Y032577D02*
X030494Y032694D01*
X030436Y032694D01*
X030436Y032752D01*
X030494Y032752D01*
X030494Y032694D01*
X030623Y032752D02*
X030681Y032694D01*
X030798Y032694D01*
X030856Y032752D01*
X030856Y032810D01*
X030798Y032869D01*
X030623Y032869D01*
X030623Y032752D01*
X030623Y032869D02*
X030739Y032985D01*
X030856Y033044D01*
X030991Y032985D02*
X031049Y033044D01*
X031166Y033044D01*
X031225Y032985D01*
X031225Y032927D01*
X031166Y032869D01*
X031225Y032810D01*
X031225Y032752D01*
X031166Y032694D01*
X031049Y032694D01*
X030991Y032752D01*
X031108Y032869D02*
X031166Y032869D01*
X031359Y033044D02*
X031476Y032927D01*
X031476Y032810D01*
X031359Y032694D01*
X030242Y032752D02*
X030242Y032810D01*
X030184Y032869D01*
X030009Y032869D01*
X030009Y032752D01*
X030067Y032694D01*
X030184Y032694D01*
X030242Y032752D01*
X030126Y032985D02*
X030009Y032869D01*
X029874Y032869D02*
X029874Y032752D01*
X029816Y032694D01*
X029699Y032694D01*
X029641Y032752D01*
X029641Y032869D02*
X029757Y032927D01*
X029816Y032927D01*
X029874Y032869D01*
X029874Y033044D02*
X029641Y033044D01*
X029641Y032869D01*
X029512Y033044D02*
X029395Y032927D01*
X029395Y032810D01*
X029512Y032694D01*
X030126Y032985D02*
X030242Y033044D01*
X008042Y031196D02*
X007891Y030783D01*
X007102Y031070D01*
X007252Y031483D01*
X008042Y031196D01*
D12*
X007966Y032647D02*
X007886Y032647D01*
X007886Y032727D01*
X007966Y032727D01*
X007966Y032647D01*
X008144Y032727D02*
X008144Y032807D01*
X008224Y032887D01*
X008384Y032887D01*
X008464Y032807D01*
X008464Y032727D01*
X008384Y032647D01*
X008224Y032647D01*
X008144Y032727D01*
X008224Y032887D02*
X008144Y032968D01*
X008144Y033048D01*
X008224Y033128D01*
X008384Y033128D01*
X008464Y033048D01*
X008464Y032968D01*
X008384Y032887D01*
X007690Y032727D02*
X007610Y032647D01*
X007450Y032647D01*
X007370Y032727D01*
X007690Y033048D01*
X007690Y032727D01*
X007370Y032727D02*
X007370Y033048D01*
X007450Y033128D01*
X007610Y033128D01*
X007690Y033048D01*
X006677Y032968D02*
X006677Y032887D01*
X006597Y032887D01*
X006597Y032968D01*
X006677Y032968D01*
X006677Y032727D02*
X006597Y032727D01*
X006597Y032647D01*
X006677Y032647D01*
X006677Y032727D01*
X006401Y032727D02*
X006321Y032807D01*
X006161Y032807D01*
X006081Y032887D01*
X006161Y032968D01*
X006401Y032968D01*
X006401Y032727D02*
X006321Y032647D01*
X006081Y032647D01*
X005886Y032727D02*
X005806Y032807D01*
X005645Y032807D01*
X005565Y032887D01*
X005645Y032968D01*
X005886Y032968D01*
X005886Y032727D02*
X005806Y032647D01*
X005565Y032647D01*
X005370Y032807D02*
X005050Y032807D01*
X005050Y032727D02*
X005050Y032887D01*
X005130Y032968D01*
X005290Y032968D01*
X005370Y032887D01*
X005370Y032807D01*
X005290Y032647D02*
X005130Y032647D01*
X005050Y032727D01*
X004854Y032647D02*
X004854Y032887D01*
X004774Y032968D01*
X004534Y032968D01*
X004534Y032647D01*
X004345Y032647D02*
X004104Y032807D01*
X004345Y032968D01*
X004104Y033128D02*
X004104Y032647D01*
X003909Y032647D02*
X003669Y032647D01*
X003589Y032727D01*
X003589Y032887D01*
X003669Y032968D01*
X003909Y032968D01*
X003325Y032968D02*
X003325Y032647D01*
X003245Y032647D02*
X003405Y032647D01*
X003325Y032968D02*
X003245Y032968D01*
X003325Y033128D02*
X003325Y033208D01*
X003050Y032887D02*
X003050Y032647D01*
X003050Y032887D02*
X002970Y032968D01*
X002809Y032968D01*
X002729Y032887D01*
X002729Y032647D02*
X002729Y033128D01*
X002534Y033128D02*
X002214Y033128D01*
X002374Y033128D02*
X002374Y032647D01*
X005548Y028579D02*
X005550Y028591D01*
X005555Y028602D01*
X005563Y028611D01*
X005574Y028617D01*
X005586Y028620D01*
X005598Y028619D01*
X005610Y028615D01*
X005619Y028607D01*
X005626Y028597D01*
X005630Y028585D01*
X005630Y028573D01*
X005626Y028561D01*
X005619Y028551D01*
X005609Y028543D01*
X005598Y028539D01*
X005586Y028538D01*
X005574Y028541D01*
X005563Y028547D01*
X005555Y028556D01*
X005550Y028567D01*
X005548Y028579D01*
X009175Y032647D02*
X009175Y032968D01*
X009255Y032968D01*
X009335Y032887D01*
X009415Y032968D01*
X009495Y032887D01*
X009495Y032647D01*
X009335Y032647D02*
X009335Y032887D01*
X009690Y032968D02*
X009771Y032968D01*
X009851Y032887D01*
X009931Y032968D01*
X010011Y032887D01*
X010011Y032647D01*
X009851Y032647D02*
X009851Y032887D01*
X009690Y032968D02*
X009690Y032647D01*
X011753Y032727D02*
X011833Y032647D01*
X011993Y032647D01*
X012073Y032727D01*
X012269Y032727D02*
X012349Y032647D01*
X012509Y032647D01*
X012589Y032727D01*
X012589Y032887D01*
X012509Y032968D01*
X012349Y032968D01*
X012269Y032887D01*
X012269Y032727D01*
X012073Y033048D02*
X011993Y033128D01*
X011833Y033128D01*
X011753Y033048D01*
X011753Y032727D01*
X012784Y032647D02*
X012944Y032647D01*
X012864Y032647D02*
X012864Y033128D01*
X012784Y033128D01*
X013128Y032887D02*
X013128Y032727D01*
X013208Y032647D01*
X013368Y032647D01*
X013448Y032727D01*
X013448Y032887D01*
X013368Y032968D01*
X013208Y032968D01*
X013128Y032887D01*
X013644Y032807D02*
X013804Y032968D01*
X013884Y032968D01*
X014073Y032968D02*
X014073Y032887D01*
X014153Y032887D01*
X014153Y032968D01*
X014073Y032968D01*
X014073Y032727D02*
X014073Y032647D01*
X014153Y032647D01*
X014153Y032727D01*
X014073Y032727D01*
X013644Y032647D02*
X013644Y032968D01*
X014847Y033048D02*
X014847Y032727D01*
X014927Y032647D01*
X015087Y032647D01*
X015167Y032727D01*
X015167Y032887D01*
X015007Y032887D01*
X014847Y033048D02*
X014927Y033128D01*
X015087Y033128D01*
X015167Y033048D01*
X015363Y032968D02*
X015363Y032647D01*
X015363Y032807D02*
X015523Y032968D01*
X015603Y032968D01*
X015792Y032887D02*
X015872Y032968D01*
X016032Y032968D01*
X016112Y032887D01*
X016112Y032807D01*
X015792Y032807D01*
X015792Y032727D02*
X015792Y032887D01*
X015792Y032727D02*
X015872Y032647D01*
X016032Y032647D01*
X016308Y032727D02*
X016308Y032887D01*
X016388Y032968D01*
X016548Y032968D01*
X016628Y032887D01*
X016628Y032807D01*
X016308Y032807D01*
X016308Y032727D02*
X016388Y032647D01*
X016548Y032647D01*
X016823Y032647D02*
X016823Y032968D01*
X017064Y032968D01*
X017144Y032887D01*
X017144Y032647D01*
X015548Y028579D02*
X015550Y028591D01*
X015555Y028602D01*
X015563Y028611D01*
X015574Y028617D01*
X015586Y028620D01*
X015598Y028619D01*
X015610Y028615D01*
X015619Y028607D01*
X015626Y028597D01*
X015630Y028585D01*
X015630Y028573D01*
X015626Y028561D01*
X015619Y028551D01*
X015609Y028543D01*
X015598Y028539D01*
X015586Y028538D01*
X015574Y028541D01*
X015563Y028547D01*
X015555Y028556D01*
X015550Y028567D01*
X015548Y028579D01*
X015548Y018579D02*
X015550Y018591D01*
X015555Y018602D01*
X015563Y018611D01*
X015574Y018617D01*
X015586Y018620D01*
X015598Y018619D01*
X015610Y018615D01*
X015619Y018607D01*
X015626Y018597D01*
X015630Y018585D01*
X015630Y018573D01*
X015626Y018561D01*
X015619Y018551D01*
X015609Y018543D01*
X015598Y018539D01*
X015586Y018538D01*
X015574Y018541D01*
X015563Y018547D01*
X015555Y018556D01*
X015550Y018567D01*
X015548Y018579D01*
X015548Y008579D02*
X015550Y008591D01*
X015555Y008602D01*
X015563Y008611D01*
X015574Y008617D01*
X015586Y008620D01*
X015598Y008619D01*
X015610Y008615D01*
X015619Y008607D01*
X015626Y008597D01*
X015630Y008585D01*
X015630Y008573D01*
X015626Y008561D01*
X015619Y008551D01*
X015609Y008543D01*
X015598Y008539D01*
X015586Y008538D01*
X015574Y008541D01*
X015563Y008547D01*
X015555Y008556D01*
X015550Y008567D01*
X015548Y008579D01*
X015556Y003241D02*
X015396Y003161D01*
X015236Y003001D01*
X015476Y003001D01*
X015556Y002921D01*
X015556Y002841D01*
X015476Y002761D01*
X015316Y002761D01*
X015236Y002841D01*
X015236Y003001D01*
X015040Y003001D02*
X014720Y003001D01*
X014525Y003081D02*
X014284Y003081D01*
X014204Y003001D01*
X014284Y002921D01*
X014445Y002921D01*
X014525Y002841D01*
X014445Y002761D01*
X014204Y002761D01*
X014009Y002761D02*
X014009Y003001D01*
X013929Y003081D01*
X013769Y003081D01*
X013689Y003001D01*
X013689Y003241D02*
X013689Y002761D01*
X012995Y002761D02*
X012915Y002761D01*
X012915Y002841D01*
X012995Y002841D01*
X012995Y002761D01*
X012995Y003001D02*
X012915Y003001D01*
X012915Y003081D01*
X012995Y003081D01*
X012995Y003001D01*
X012720Y003001D02*
X012720Y002921D01*
X012400Y002921D01*
X012400Y002841D02*
X012400Y003001D01*
X012480Y003081D01*
X012640Y003081D01*
X012720Y003001D01*
X012640Y002761D02*
X012480Y002761D01*
X012400Y002841D01*
X012204Y002761D02*
X012204Y003001D01*
X012124Y003081D01*
X012044Y003001D01*
X012044Y002761D01*
X011884Y002761D02*
X011884Y003081D01*
X011964Y003081D01*
X012044Y003001D01*
X011689Y003001D02*
X011689Y002761D01*
X011448Y002761D01*
X011368Y002841D01*
X011448Y002921D01*
X011689Y002921D01*
X011689Y003001D02*
X011608Y003081D01*
X011448Y003081D01*
X011173Y003001D02*
X011173Y002761D01*
X011173Y003001D02*
X011093Y003081D01*
X010853Y003081D01*
X010853Y002761D01*
X010142Y002921D02*
X009821Y002921D01*
X009821Y002841D02*
X009821Y003001D01*
X009901Y003081D01*
X010062Y003081D01*
X010142Y003001D01*
X010142Y002921D01*
X010062Y002761D02*
X009901Y002761D01*
X009821Y002841D01*
X009638Y002761D02*
X009478Y002761D01*
X009558Y002761D02*
X009558Y003241D01*
X009478Y003241D01*
X009214Y003241D02*
X009214Y003321D01*
X009214Y003081D02*
X009214Y002761D01*
X009134Y002761D02*
X009294Y002761D01*
X009214Y003081D02*
X009134Y003081D01*
X008950Y003001D02*
X008790Y003001D01*
X008870Y003161D02*
X008950Y003241D01*
X008870Y003161D02*
X008870Y002761D01*
X008091Y002761D02*
X007931Y002761D01*
X008011Y002761D02*
X008011Y003241D01*
X007931Y003241D01*
X007735Y003001D02*
X007735Y002921D01*
X007415Y002921D01*
X007415Y002841D02*
X007415Y003001D01*
X007495Y003081D01*
X007655Y003081D01*
X007735Y003001D01*
X007655Y002761D02*
X007495Y002761D01*
X007415Y002841D01*
X007220Y002761D02*
X007220Y003001D01*
X007140Y003081D01*
X006899Y003081D01*
X006899Y002761D01*
X006704Y002761D02*
X006464Y002761D01*
X006384Y002841D01*
X006464Y002921D01*
X006704Y002921D01*
X006704Y003001D02*
X006704Y002761D01*
X006704Y003001D02*
X006624Y003081D01*
X006464Y003081D01*
X006188Y003001D02*
X006108Y002921D01*
X005868Y002921D01*
X005868Y002761D02*
X005868Y003241D01*
X006108Y003241D01*
X006188Y003161D01*
X006188Y003001D01*
X005548Y008579D02*
X005550Y008591D01*
X005555Y008602D01*
X005563Y008611D01*
X005574Y008617D01*
X005586Y008620D01*
X005598Y008619D01*
X005610Y008615D01*
X005619Y008607D01*
X005626Y008597D01*
X005630Y008585D01*
X005630Y008573D01*
X005626Y008561D01*
X005619Y008551D01*
X005609Y008543D01*
X005598Y008539D01*
X005586Y008538D01*
X005574Y008541D01*
X005563Y008547D01*
X005555Y008556D01*
X005550Y008567D01*
X005548Y008579D01*
X005548Y018579D02*
X005550Y018591D01*
X005555Y018602D01*
X005563Y018611D01*
X005574Y018617D01*
X005586Y018620D01*
X005598Y018619D01*
X005610Y018615D01*
X005619Y018607D01*
X005626Y018597D01*
X005630Y018585D01*
X005630Y018573D01*
X005626Y018561D01*
X005619Y018551D01*
X005609Y018543D01*
X005598Y018539D01*
X005586Y018538D01*
X005574Y018541D01*
X005563Y018547D01*
X005555Y018556D01*
X005550Y018567D01*
X005548Y018579D01*
X015991Y003241D02*
X015751Y003001D01*
X016071Y003001D01*
X016267Y003001D02*
X016587Y003001D01*
X016783Y003001D02*
X016863Y003081D01*
X017103Y003081D01*
X017023Y002921D02*
X016863Y002921D01*
X016783Y003001D01*
X016783Y002761D02*
X017023Y002761D01*
X017103Y002841D01*
X017023Y002921D01*
X017298Y002761D02*
X017538Y002761D01*
X017618Y002841D01*
X017618Y003001D01*
X017538Y003081D01*
X017298Y003081D01*
X017298Y002601D01*
X017814Y002761D02*
X017974Y002761D01*
X017894Y002761D02*
X017894Y003081D01*
X017814Y003081D01*
X017894Y003241D02*
X017894Y003321D01*
X018673Y003081D02*
X018673Y002761D01*
X018673Y002921D02*
X018833Y003081D01*
X018913Y003081D01*
X019103Y003001D02*
X019183Y003081D01*
X019343Y003081D01*
X019423Y003001D01*
X019423Y002921D01*
X019103Y002921D01*
X019103Y002841D02*
X019103Y003001D01*
X019103Y002841D02*
X019183Y002761D01*
X019343Y002761D01*
X019619Y003081D02*
X019779Y002761D01*
X019939Y003081D01*
X020134Y003081D02*
X020294Y003241D01*
X020294Y002761D01*
X020134Y002761D02*
X020454Y002761D01*
X020650Y002761D02*
X020730Y002761D01*
X020730Y002841D01*
X020650Y002841D01*
X020650Y002761D01*
X020908Y002841D02*
X020908Y003161D01*
X020988Y003241D01*
X021148Y003241D01*
X021228Y003161D01*
X020908Y002841D01*
X020988Y002761D01*
X021148Y002761D01*
X021228Y002841D01*
X021228Y003161D01*
X021939Y003001D02*
X022259Y003001D01*
X022970Y003081D02*
X022970Y002601D01*
X022970Y002761D02*
X023210Y002761D01*
X023290Y002841D01*
X023290Y003001D01*
X023210Y003081D01*
X022970Y003081D01*
X023486Y002841D02*
X023566Y002921D01*
X023806Y002921D01*
X023806Y003001D02*
X023806Y002761D01*
X023566Y002761D01*
X023486Y002841D01*
X023566Y003081D02*
X023726Y003081D01*
X023806Y003001D01*
X024001Y003081D02*
X024242Y003081D01*
X024322Y003001D01*
X024322Y002761D01*
X024517Y002841D02*
X024517Y003001D01*
X024597Y003081D01*
X024757Y003081D01*
X024837Y003001D01*
X024837Y002921D01*
X024517Y002921D01*
X024517Y002841D02*
X024597Y002761D01*
X024757Y002761D01*
X025033Y002761D02*
X025193Y002761D01*
X025113Y002761D02*
X025113Y003241D01*
X025033Y003241D01*
X025376Y002841D02*
X025457Y002841D01*
X025457Y002761D01*
X025376Y002761D01*
X025376Y002841D01*
X025634Y002761D02*
X025875Y002761D01*
X025955Y002841D01*
X025955Y003001D01*
X025875Y003081D01*
X025634Y003081D01*
X025634Y003241D02*
X025634Y002761D01*
X026150Y002761D02*
X026150Y003081D01*
X026150Y002921D02*
X026310Y003081D01*
X026390Y003081D01*
X026580Y003001D02*
X026580Y002841D01*
X026660Y002761D01*
X026900Y002761D01*
X026900Y003241D01*
X026900Y003081D02*
X026660Y003081D01*
X026580Y003001D01*
X024001Y003081D02*
X024001Y002761D01*
X025548Y008579D02*
X025550Y008591D01*
X025555Y008602D01*
X025563Y008611D01*
X025574Y008617D01*
X025586Y008620D01*
X025598Y008619D01*
X025610Y008615D01*
X025619Y008607D01*
X025626Y008597D01*
X025630Y008585D01*
X025630Y008573D01*
X025626Y008561D01*
X025619Y008551D01*
X025609Y008543D01*
X025598Y008539D01*
X025586Y008538D01*
X025574Y008541D01*
X025563Y008547D01*
X025555Y008556D01*
X025550Y008567D01*
X025548Y008579D01*
X025548Y018579D02*
X025550Y018591D01*
X025555Y018602D01*
X025563Y018611D01*
X025574Y018617D01*
X025586Y018620D01*
X025598Y018619D01*
X025610Y018615D01*
X025619Y018607D01*
X025626Y018597D01*
X025630Y018585D01*
X025630Y018573D01*
X025626Y018561D01*
X025619Y018551D01*
X025609Y018543D01*
X025598Y018539D01*
X025586Y018538D01*
X025574Y018541D01*
X025563Y018547D01*
X025555Y018556D01*
X025550Y018567D01*
X025548Y018579D01*
X025548Y028579D02*
X025550Y028591D01*
X025555Y028602D01*
X025563Y028611D01*
X025574Y028617D01*
X025586Y028620D01*
X025598Y028619D01*
X025610Y028615D01*
X025619Y028607D01*
X025626Y028597D01*
X025630Y028585D01*
X025630Y028573D01*
X025626Y028561D01*
X025619Y028551D01*
X025609Y028543D01*
X025598Y028539D01*
X025586Y028538D01*
X025574Y028541D01*
X025563Y028547D01*
X025555Y028556D01*
X025550Y028567D01*
X025548Y028579D01*
X015991Y003241D02*
X015991Y002761D01*
D13*
X021459Y007974D02*
X020959Y008474D01*
X021459Y007974D02*
X021959Y008474D01*
X021459Y007974D02*
X021459Y017974D01*
X021959Y017474D01*
X021459Y017974D02*
X020959Y017474D01*
X016459Y012974D02*
X015959Y012474D01*
X016459Y012974D02*
X015959Y013474D01*
X016459Y012974D02*
X006459Y012974D01*
X006959Y012474D01*
X006459Y012974D02*
X006959Y013474D01*
D14*
X009861Y013454D02*
X010025Y013536D01*
X010107Y013536D01*
X010188Y013454D01*
X010188Y013291D01*
X010107Y013209D01*
X009943Y013209D01*
X009861Y013291D01*
X009861Y013454D02*
X009861Y013699D01*
X010188Y013699D01*
X010377Y013618D02*
X010377Y013291D01*
X010704Y013618D01*
X010704Y013291D01*
X010622Y013209D01*
X010459Y013209D01*
X010377Y013291D01*
X010377Y013618D02*
X010459Y013699D01*
X010622Y013699D01*
X010704Y013618D01*
X010893Y013618D02*
X010893Y013291D01*
X011220Y013618D01*
X011220Y013291D01*
X011138Y013209D01*
X010974Y013209D01*
X010893Y013291D01*
X010893Y013618D02*
X010974Y013699D01*
X011138Y013699D01*
X011220Y013618D01*
X011924Y013536D02*
X011924Y013209D01*
X012087Y013209D02*
X012087Y013454D01*
X012169Y013536D01*
X012251Y013454D01*
X012251Y013209D01*
X012440Y013209D02*
X012603Y013209D01*
X012521Y013209D02*
X012521Y013536D01*
X012440Y013536D01*
X012521Y013699D02*
X012521Y013781D01*
X012783Y013699D02*
X012865Y013699D01*
X012865Y013209D01*
X012783Y013209D02*
X012947Y013209D01*
X012087Y013454D02*
X012006Y013536D01*
X011924Y013536D01*
X020652Y014036D02*
X020734Y014036D01*
X020897Y014036D02*
X021224Y014036D01*
X021224Y013954D02*
X021224Y014118D01*
X021224Y014298D02*
X021224Y014462D01*
X021224Y014380D02*
X020734Y014380D01*
X020734Y014298D01*
X020897Y014036D02*
X020897Y013954D01*
X020979Y013766D02*
X021224Y013766D01*
X021224Y013602D02*
X020979Y013602D01*
X020897Y013684D01*
X020979Y013766D01*
X020979Y013602D02*
X020897Y013520D01*
X020897Y013439D01*
X021224Y013439D01*
X021142Y012734D02*
X020816Y012734D01*
X021142Y012407D01*
X021224Y012489D01*
X021224Y012653D01*
X021142Y012734D01*
X020816Y012734D02*
X020734Y012653D01*
X020734Y012489D01*
X020816Y012407D01*
X021142Y012407D01*
X021142Y012219D02*
X021224Y012137D01*
X021224Y011974D01*
X021142Y011892D01*
X020816Y012219D01*
X021142Y012219D01*
X020816Y012219D02*
X020734Y012137D01*
X020734Y011974D01*
X020816Y011892D01*
X021142Y011892D01*
X021142Y011703D02*
X020979Y011703D01*
X020897Y011621D01*
X020897Y011540D01*
X020979Y011376D01*
X020734Y011376D01*
X020734Y011703D01*
X021142Y011703D02*
X021224Y011621D01*
X021224Y011458D01*
X021142Y011376D01*
D15*
X020160Y008525D02*
X019845Y008210D01*
X019845Y007738D01*
X020160Y007423D01*
X022758Y007423D02*
X023073Y007738D01*
X023073Y008210D01*
X022758Y008525D01*
X029845Y008210D02*
X029845Y007738D01*
X030160Y007423D01*
X029845Y008210D02*
X030160Y008525D01*
X030160Y017423D02*
X029845Y017738D01*
X029845Y018210D01*
X030160Y018525D01*
X023073Y018210D02*
X023073Y017738D01*
X022758Y017423D01*
X023073Y018210D02*
X022758Y018525D01*
X020160Y018525D02*
X019845Y018210D01*
X019845Y017738D01*
X020160Y017423D01*
X013073Y017738D02*
X012758Y017423D01*
X013073Y017738D02*
X013073Y018210D01*
X012758Y018525D01*
X010160Y018525D02*
X009845Y018210D01*
X009845Y017738D01*
X010160Y017423D01*
X003073Y017738D02*
X002758Y017423D01*
X003073Y017738D02*
X003073Y018210D01*
X002758Y018525D01*
X002758Y027423D02*
X003073Y027738D01*
X003073Y028210D01*
X002758Y028525D01*
X009845Y028210D02*
X009845Y027738D01*
X010160Y027423D01*
X009845Y028210D02*
X010160Y028525D01*
X012758Y028525D02*
X013073Y028210D01*
X013073Y027738D01*
X012758Y027423D01*
X019845Y027738D02*
X020160Y027423D01*
X019845Y027738D02*
X019845Y028210D01*
X020160Y028525D01*
X022758Y028525D02*
X023073Y028210D01*
X023073Y027738D01*
X022758Y027423D01*
X029845Y027738D02*
X030160Y027423D01*
X029845Y027738D02*
X029845Y028210D01*
X030160Y028525D01*
X012758Y008525D02*
X013073Y008210D01*
X013073Y007738D01*
X012758Y007423D01*
X010160Y007423D02*
X009845Y007738D01*
X009845Y008210D01*
X010160Y008525D01*
X003073Y008210D02*
X003073Y007738D01*
X002758Y007423D01*
X003073Y008210D02*
X002758Y008525D01*
D16*
X003375Y007607D02*
X003315Y007531D01*
X003273Y007416D01*
X003391Y007471D01*
X003448Y007450D01*
X003467Y007410D01*
X003446Y007353D01*
X003367Y007316D01*
X003309Y007337D01*
X003273Y007416D01*
X003163Y007364D02*
X003142Y007307D01*
X003024Y007252D01*
X003103Y007288D02*
X003218Y007247D01*
X003163Y007364D02*
X003126Y007443D01*
X003069Y007464D01*
X002951Y007409D01*
X003061Y007173D01*
X004134Y006817D02*
X004134Y006556D01*
X004134Y006687D02*
X004221Y006687D01*
X004307Y006817D02*
X004134Y006817D01*
X004429Y006687D02*
X004429Y006600D01*
X004472Y006556D01*
X004559Y006556D01*
X004602Y006600D01*
X004602Y006687D01*
X004559Y006730D01*
X004472Y006730D01*
X004429Y006687D01*
X004723Y006730D02*
X004723Y006556D01*
X004723Y006643D02*
X004810Y006730D01*
X004853Y006730D01*
X004897Y006401D02*
X004897Y006184D01*
X004853Y006140D01*
X004767Y006140D01*
X004723Y006184D01*
X004723Y006401D01*
X005018Y006271D02*
X005061Y006314D01*
X005191Y006314D01*
X005148Y006227D02*
X005061Y006227D01*
X005018Y006271D01*
X005018Y006140D02*
X005148Y006140D01*
X005191Y006184D01*
X005148Y006227D01*
X005313Y006227D02*
X005486Y006227D01*
X005486Y006271D01*
X005443Y006314D01*
X005356Y006314D01*
X005313Y006271D01*
X005313Y006184D01*
X005356Y006140D01*
X005443Y006140D01*
X005437Y006556D02*
X005350Y006643D01*
X005394Y006643D02*
X005263Y006643D01*
X005263Y006556D02*
X005263Y006817D01*
X005394Y006817D01*
X005437Y006773D01*
X005437Y006687D01*
X005394Y006643D01*
X005558Y006643D02*
X005732Y006643D01*
X005732Y006687D01*
X005688Y006730D01*
X005601Y006730D01*
X005558Y006687D01*
X005558Y006600D01*
X005601Y006556D01*
X005688Y006556D01*
X005853Y006556D02*
X005983Y006556D01*
X006026Y006600D01*
X005983Y006643D01*
X005896Y006643D01*
X005853Y006687D01*
X005896Y006730D01*
X006026Y006730D01*
X006147Y006687D02*
X006191Y006730D01*
X006277Y006730D01*
X006321Y006687D01*
X006321Y006643D01*
X006147Y006643D01*
X006147Y006600D02*
X006147Y006687D01*
X006147Y006600D02*
X006191Y006556D01*
X006277Y006556D01*
X006442Y006600D02*
X006485Y006643D01*
X006616Y006643D01*
X006616Y006687D02*
X006616Y006556D01*
X006485Y006556D01*
X006442Y006600D01*
X006485Y006730D02*
X006572Y006730D01*
X006616Y006687D01*
X006737Y006730D02*
X006737Y006556D01*
X006737Y006643D02*
X006823Y006730D01*
X006867Y006730D01*
X006982Y006687D02*
X006982Y006600D01*
X007026Y006556D01*
X007156Y006556D01*
X007277Y006556D02*
X007277Y006817D01*
X007320Y006730D02*
X007407Y006730D01*
X007450Y006687D01*
X007450Y006556D01*
X007277Y006687D02*
X007320Y006730D01*
X007156Y006730D02*
X007026Y006730D01*
X006982Y006687D01*
X006861Y006314D02*
X006861Y006097D01*
X006818Y006054D01*
X006774Y006054D01*
X006731Y006140D02*
X006861Y006140D01*
X006731Y006140D02*
X006688Y006184D01*
X006688Y006314D01*
X006535Y006401D02*
X006535Y006140D01*
X006578Y006140D02*
X006491Y006140D01*
X006370Y006140D02*
X006370Y006271D01*
X006327Y006314D01*
X006196Y006314D01*
X006196Y006140D01*
X006075Y006184D02*
X006075Y006357D01*
X006032Y006401D01*
X005945Y006401D01*
X005902Y006357D01*
X005902Y006184D01*
X005945Y006140D01*
X006032Y006140D01*
X006075Y006184D01*
X006491Y006401D02*
X006535Y006401D01*
X006946Y005697D02*
X007076Y005697D01*
X007119Y005654D01*
X007119Y005567D01*
X007076Y005524D01*
X006946Y005524D01*
X007033Y005524D02*
X007119Y005437D01*
X007241Y005437D02*
X007414Y005611D01*
X007414Y005654D01*
X007371Y005697D01*
X007284Y005697D01*
X007241Y005654D01*
X007241Y005437D02*
X007414Y005437D01*
X006946Y005437D02*
X006946Y005697D01*
X006658Y005516D02*
X006658Y005473D01*
X006615Y005429D01*
X006658Y005386D01*
X006658Y005343D01*
X006615Y005299D01*
X006528Y005299D01*
X006485Y005343D01*
X006571Y005429D02*
X006615Y005429D01*
X006658Y005516D02*
X006615Y005560D01*
X006528Y005560D01*
X006485Y005516D01*
X006363Y005516D02*
X006363Y005429D01*
X006320Y005386D01*
X006190Y005386D01*
X006190Y005299D02*
X006190Y005560D01*
X006320Y005560D01*
X006363Y005516D01*
X006277Y005386D02*
X006363Y005299D01*
X005811Y005452D02*
X005637Y005452D01*
X005767Y005582D01*
X005767Y005322D01*
X005516Y005322D02*
X005429Y005408D01*
X005473Y005408D02*
X005342Y005408D01*
X005342Y005322D02*
X005342Y005582D01*
X005473Y005582D01*
X005516Y005539D01*
X005516Y005452D01*
X005473Y005408D01*
X005005Y005521D02*
X004821Y005337D01*
X004760Y005398D02*
X004882Y005275D01*
X004882Y005521D02*
X005005Y005521D01*
X004827Y005637D02*
X004766Y005576D01*
X004705Y005576D01*
X004613Y005668D01*
X004674Y005606D02*
X004674Y005484D01*
X004551Y005606D02*
X004735Y005790D01*
X004827Y005698D01*
X004827Y005637D01*
X004658Y005868D02*
X004596Y005929D01*
X004627Y005899D02*
X004443Y005715D01*
X004412Y005745D02*
X004474Y005684D01*
X005084Y007192D02*
X005171Y007192D01*
X005215Y007236D01*
X005336Y007236D02*
X005336Y007192D01*
X005336Y007236D02*
X005509Y007409D01*
X005509Y007453D01*
X005336Y007453D01*
X005215Y007409D02*
X005171Y007453D01*
X005084Y007453D01*
X005041Y007409D01*
X005041Y007236D01*
X005084Y007192D01*
X006251Y008879D02*
X006295Y008879D01*
X006338Y008922D01*
X006338Y009139D01*
X006295Y009139D02*
X006382Y009139D01*
X006503Y009096D02*
X006546Y009139D01*
X006633Y009139D01*
X006676Y009096D01*
X006676Y009052D01*
X006503Y008879D01*
X006676Y008879D01*
X007139Y009268D02*
X007139Y009330D01*
X007169Y009360D01*
X007292Y009360D01*
X007323Y009391D01*
X007323Y009452D01*
X007261Y009452D01*
X007231Y009422D01*
X007231Y009176D01*
X007292Y009238D02*
X007169Y009238D01*
X007139Y009268D01*
X007489Y009506D02*
X007520Y009476D01*
X007550Y009506D01*
X007520Y009537D01*
X007489Y009506D01*
X007342Y009654D02*
X007526Y009715D01*
X007403Y009838D02*
X007342Y009654D01*
X007256Y009862D02*
X007134Y009985D01*
X007164Y010015D02*
X007226Y010015D01*
X007287Y009954D01*
X007287Y009893D01*
X007256Y009862D01*
X007164Y009831D02*
X007103Y009893D01*
X007103Y009954D01*
X007164Y010015D01*
X007113Y010127D02*
X007083Y010158D01*
X006960Y010158D01*
X006899Y010097D02*
X007021Y010219D01*
X007241Y010343D02*
X007241Y010404D01*
X007241Y010343D02*
X007302Y010282D01*
X007364Y010282D01*
X007394Y010312D01*
X007394Y010374D01*
X007333Y010435D01*
X007333Y010496D01*
X007364Y010527D01*
X007425Y010527D01*
X007486Y010466D01*
X007486Y010404D01*
X007511Y010257D02*
X007633Y010135D01*
X007719Y010049D02*
X007811Y009957D01*
X007811Y009896D01*
X007780Y009865D01*
X007719Y009865D01*
X007658Y009926D01*
X007658Y009988D01*
X007719Y010049D01*
X007842Y010049D01*
X007934Y010018D01*
X007927Y009841D02*
X008050Y009718D01*
X008136Y009632D02*
X008258Y009510D01*
X008375Y009455D02*
X008375Y009393D01*
X008436Y009332D01*
X008436Y009271D01*
X008405Y009240D01*
X008344Y009240D01*
X008283Y009301D01*
X008283Y009363D01*
X008375Y009455D02*
X008405Y009485D01*
X008467Y009485D01*
X008528Y009424D01*
X008528Y009363D01*
X008644Y009308D02*
X008460Y009123D01*
X008522Y009185D02*
X008614Y009093D01*
X008675Y009093D01*
X008736Y009154D01*
X008736Y009215D01*
X008644Y009308D01*
X008853Y009099D02*
X008914Y009038D01*
X008883Y009068D02*
X008699Y008884D01*
X008669Y008915D02*
X008730Y008854D01*
X008390Y008912D02*
X008390Y008973D01*
X008329Y009035D01*
X008267Y009035D01*
X008145Y008912D01*
X008390Y008912D01*
X008267Y008789D01*
X008206Y008789D01*
X008145Y008851D01*
X008145Y008912D01*
X008071Y008986D02*
X008041Y008955D01*
X008010Y008986D01*
X008041Y009016D01*
X008071Y008986D01*
X007924Y009071D02*
X007802Y009194D01*
X007863Y009133D02*
X008047Y009317D01*
X007924Y009317D01*
X007927Y009657D02*
X008111Y009841D01*
X007927Y009841D01*
X008244Y010074D02*
X008244Y010196D01*
X008275Y010166D02*
X008183Y010258D01*
X008121Y010196D02*
X008305Y010380D01*
X008397Y010288D01*
X008397Y010227D01*
X008336Y010166D01*
X008275Y010166D01*
X008330Y009988D02*
X008575Y009988D01*
X008606Y010019D01*
X008606Y010080D01*
X008544Y010141D01*
X008483Y010141D01*
X008330Y009988D02*
X008452Y009865D01*
X008044Y010274D02*
X007982Y010335D01*
X008013Y010305D02*
X008197Y010489D01*
X008166Y010519D02*
X008228Y010458D01*
X007309Y010643D02*
X007125Y010459D01*
X007217Y010551D02*
X007094Y010674D01*
X007002Y010582D02*
X007186Y010766D01*
X006937Y011002D02*
X006693Y011091D01*
X006737Y011213D01*
X006793Y011239D01*
X006874Y011210D01*
X006900Y011154D01*
X006856Y011032D01*
X006885Y011113D02*
X006997Y011165D01*
X006997Y011294D02*
X007053Y011320D01*
X007083Y011401D01*
X007057Y011457D01*
X006975Y011487D01*
X006920Y011461D01*
X006905Y011420D01*
X006916Y011324D01*
X006794Y011368D01*
X006853Y011531D01*
X006702Y010809D02*
X006528Y010809D01*
X006528Y010549D01*
X006407Y010549D02*
X006233Y010549D01*
X006233Y010809D01*
X006407Y010809D01*
X006320Y010679D02*
X006233Y010679D01*
X006112Y010679D02*
X006069Y010636D01*
X005939Y010636D01*
X006025Y010636D02*
X006112Y010549D01*
X006112Y010679D02*
X006112Y010766D01*
X006069Y010809D01*
X005939Y010809D01*
X005939Y010549D01*
X005736Y011016D02*
X005606Y011016D01*
X005606Y011277D01*
X005736Y011277D01*
X005780Y011233D01*
X005780Y011060D01*
X005736Y011016D01*
X005485Y011016D02*
X005485Y011277D01*
X005311Y011277D02*
X005485Y011016D01*
X005311Y011016D02*
X005311Y011277D01*
X005190Y011233D02*
X005147Y011277D01*
X005060Y011277D01*
X005017Y011233D01*
X005017Y011060D01*
X005060Y011016D01*
X005147Y011016D01*
X005190Y011060D01*
X005190Y011147D01*
X005104Y011147D01*
X005078Y010052D02*
X005078Y009879D01*
X005078Y009966D02*
X004818Y009966D01*
X004905Y009879D01*
X004948Y009758D02*
X004992Y009714D01*
X004992Y009584D01*
X005078Y009584D02*
X004818Y009584D01*
X004818Y009714D01*
X004862Y009758D01*
X004948Y009758D01*
X004992Y009671D02*
X005078Y009758D01*
X004149Y009862D02*
X004062Y009949D01*
X003889Y009949D01*
X003889Y010070D02*
X003889Y010200D01*
X003932Y010243D01*
X004106Y010243D01*
X004149Y010200D01*
X004149Y010070D01*
X003889Y010070D01*
X003889Y010365D02*
X003889Y010495D01*
X003932Y010538D01*
X004106Y010538D01*
X004149Y010495D01*
X004149Y010365D01*
X003889Y010365D01*
X004149Y009862D02*
X004062Y009775D01*
X003889Y009775D01*
X006208Y008922D02*
X006251Y008879D01*
X006783Y009624D02*
X006845Y009624D01*
X006783Y009624D02*
X006722Y009685D01*
X006722Y009747D01*
X006845Y009869D01*
X006906Y009869D01*
X006967Y009808D01*
X006967Y009747D01*
X006790Y009986D02*
X006667Y010108D01*
X006483Y009924D01*
X006575Y010016D02*
X006636Y009955D01*
X006615Y010679D02*
X006528Y010679D01*
X007770Y009005D02*
X007831Y008944D01*
X007801Y008974D02*
X007647Y008821D01*
X007586Y008821D01*
X007555Y008852D01*
X007555Y008913D01*
X007733Y008674D02*
X007917Y008858D01*
X008009Y008766D01*
X008009Y008705D01*
X007948Y008643D01*
X007886Y008643D01*
X007794Y008735D01*
X007941Y008466D02*
X008125Y008650D01*
X008064Y008343D01*
X008248Y008527D01*
X009183Y008958D02*
X009227Y008914D01*
X009314Y008914D01*
X009357Y008958D01*
X009478Y008914D02*
X009652Y008914D01*
X009565Y008914D02*
X009565Y009174D01*
X009478Y009088D01*
X009357Y009131D02*
X009314Y009174D01*
X009227Y009174D01*
X009183Y009131D01*
X009183Y008958D01*
X009517Y007355D02*
X009517Y007138D01*
X009561Y007095D01*
X009647Y007095D01*
X009691Y007138D01*
X009691Y007355D01*
X009812Y007312D02*
X009855Y007355D01*
X009942Y007355D01*
X009985Y007312D01*
X009985Y007268D01*
X009812Y007095D01*
X009985Y007095D01*
X009635Y006566D02*
X009635Y006392D01*
X009461Y006566D01*
X009418Y006566D01*
X009375Y006522D01*
X009375Y006435D01*
X009418Y006392D01*
X009418Y006271D02*
X009375Y006228D01*
X009375Y006141D01*
X009418Y006097D01*
X009592Y006097D01*
X009635Y006141D01*
X009635Y006228D01*
X009592Y006271D01*
X008567Y005401D02*
X008567Y005314D01*
X008524Y005271D01*
X008524Y005150D02*
X008567Y005106D01*
X008567Y005019D01*
X008524Y004976D01*
X008350Y004976D01*
X008307Y005019D01*
X008307Y005106D01*
X008350Y005150D01*
X008350Y005271D02*
X008307Y005314D01*
X008307Y005401D01*
X008350Y005444D01*
X008394Y005444D01*
X008437Y005401D01*
X008480Y005444D01*
X008524Y005444D01*
X008567Y005401D01*
X008437Y005401D02*
X008437Y005357D01*
X008158Y005401D02*
X007898Y005401D01*
X008028Y005271D01*
X008028Y005444D01*
X008115Y005150D02*
X008158Y005106D01*
X008158Y005019D01*
X008115Y004976D01*
X007941Y004976D01*
X007898Y005019D01*
X007898Y005106D01*
X007941Y005150D01*
X012951Y007409D02*
X013069Y007464D01*
X013126Y007443D01*
X013163Y007364D01*
X013142Y007307D01*
X013024Y007252D01*
X013103Y007288D02*
X013218Y007247D01*
X013309Y007337D02*
X013367Y007316D01*
X013446Y007353D01*
X013467Y007410D01*
X013448Y007450D01*
X013391Y007471D01*
X013273Y007416D01*
X013309Y007337D01*
X013273Y007416D02*
X013315Y007531D01*
X013375Y007607D01*
X012951Y007409D02*
X013061Y007173D01*
X014134Y006817D02*
X014134Y006556D01*
X014134Y006687D02*
X014221Y006687D01*
X014307Y006817D02*
X014134Y006817D01*
X014429Y006687D02*
X014429Y006600D01*
X014472Y006556D01*
X014559Y006556D01*
X014602Y006600D01*
X014602Y006687D01*
X014559Y006730D01*
X014472Y006730D01*
X014429Y006687D01*
X014723Y006730D02*
X014723Y006556D01*
X014723Y006643D02*
X014810Y006730D01*
X014853Y006730D01*
X014897Y006401D02*
X014897Y006184D01*
X014853Y006140D01*
X014767Y006140D01*
X014723Y006184D01*
X014723Y006401D01*
X015018Y006271D02*
X015061Y006314D01*
X015191Y006314D01*
X015148Y006227D02*
X015191Y006184D01*
X015148Y006140D01*
X015018Y006140D01*
X015061Y006227D02*
X015018Y006271D01*
X015061Y006227D02*
X015148Y006227D01*
X015313Y006227D02*
X015486Y006227D01*
X015486Y006271D01*
X015443Y006314D01*
X015356Y006314D01*
X015313Y006271D01*
X015313Y006184D01*
X015356Y006140D01*
X015443Y006140D01*
X015437Y006556D02*
X015350Y006643D01*
X015394Y006643D02*
X015263Y006643D01*
X015263Y006556D02*
X015263Y006817D01*
X015394Y006817D01*
X015437Y006773D01*
X015437Y006687D01*
X015394Y006643D01*
X015558Y006643D02*
X015732Y006643D01*
X015732Y006687D01*
X015688Y006730D01*
X015601Y006730D01*
X015558Y006687D01*
X015558Y006600D01*
X015601Y006556D01*
X015688Y006556D01*
X015853Y006556D02*
X015983Y006556D01*
X016026Y006600D01*
X015983Y006643D01*
X015896Y006643D01*
X015853Y006687D01*
X015896Y006730D01*
X016026Y006730D01*
X016147Y006687D02*
X016191Y006730D01*
X016277Y006730D01*
X016321Y006687D01*
X016321Y006643D01*
X016147Y006643D01*
X016147Y006600D02*
X016147Y006687D01*
X016147Y006600D02*
X016191Y006556D01*
X016277Y006556D01*
X016442Y006600D02*
X016485Y006643D01*
X016616Y006643D01*
X016616Y006687D02*
X016616Y006556D01*
X016485Y006556D01*
X016442Y006600D01*
X016485Y006730D02*
X016572Y006730D01*
X016616Y006687D01*
X016737Y006730D02*
X016737Y006556D01*
X016737Y006643D02*
X016823Y006730D01*
X016867Y006730D01*
X016982Y006687D02*
X016982Y006600D01*
X017026Y006556D01*
X017156Y006556D01*
X017277Y006556D02*
X017277Y006817D01*
X017320Y006730D02*
X017407Y006730D01*
X017450Y006687D01*
X017450Y006556D01*
X017277Y006687D02*
X017320Y006730D01*
X017156Y006730D02*
X017026Y006730D01*
X016982Y006687D01*
X016861Y006314D02*
X016861Y006097D01*
X016818Y006054D01*
X016774Y006054D01*
X016731Y006140D02*
X016861Y006140D01*
X016731Y006140D02*
X016688Y006184D01*
X016688Y006314D01*
X016535Y006401D02*
X016535Y006140D01*
X016578Y006140D02*
X016491Y006140D01*
X016370Y006140D02*
X016370Y006271D01*
X016327Y006314D01*
X016196Y006314D01*
X016196Y006140D01*
X016075Y006184D02*
X016075Y006357D01*
X016032Y006401D01*
X015945Y006401D01*
X015902Y006357D01*
X015902Y006184D01*
X015945Y006140D01*
X016032Y006140D01*
X016075Y006184D01*
X016491Y006401D02*
X016535Y006401D01*
X016946Y005697D02*
X017076Y005697D01*
X017119Y005654D01*
X017119Y005567D01*
X017076Y005524D01*
X016946Y005524D01*
X017033Y005524D02*
X017119Y005437D01*
X017241Y005437D02*
X017414Y005611D01*
X017414Y005654D01*
X017371Y005697D01*
X017284Y005697D01*
X017241Y005654D01*
X017241Y005437D02*
X017414Y005437D01*
X016946Y005437D02*
X016946Y005697D01*
X016658Y005516D02*
X016658Y005473D01*
X016615Y005429D01*
X016658Y005386D01*
X016658Y005343D01*
X016615Y005299D01*
X016528Y005299D01*
X016485Y005343D01*
X016571Y005429D02*
X016615Y005429D01*
X016658Y005516D02*
X016615Y005560D01*
X016528Y005560D01*
X016485Y005516D01*
X016363Y005516D02*
X016363Y005429D01*
X016320Y005386D01*
X016190Y005386D01*
X016190Y005299D02*
X016190Y005560D01*
X016320Y005560D01*
X016363Y005516D01*
X016277Y005386D02*
X016363Y005299D01*
X015811Y005452D02*
X015637Y005452D01*
X015767Y005582D01*
X015767Y005322D01*
X015516Y005322D02*
X015429Y005408D01*
X015473Y005408D02*
X015342Y005408D01*
X015342Y005322D02*
X015342Y005582D01*
X015473Y005582D01*
X015516Y005539D01*
X015516Y005452D01*
X015473Y005408D01*
X015005Y005521D02*
X014821Y005337D01*
X014760Y005398D02*
X014882Y005275D01*
X014882Y005521D02*
X015005Y005521D01*
X014827Y005637D02*
X014766Y005576D01*
X014705Y005576D01*
X014613Y005668D01*
X014674Y005606D02*
X014674Y005484D01*
X014551Y005606D02*
X014735Y005790D01*
X014827Y005698D01*
X014827Y005637D01*
X014658Y005868D02*
X014596Y005929D01*
X014627Y005899D02*
X014443Y005715D01*
X014412Y005745D02*
X014474Y005684D01*
X015084Y007192D02*
X015171Y007192D01*
X015215Y007236D01*
X015336Y007236D02*
X015336Y007192D01*
X015336Y007236D02*
X015509Y007409D01*
X015509Y007453D01*
X015336Y007453D01*
X015215Y007409D02*
X015171Y007453D01*
X015084Y007453D01*
X015041Y007409D01*
X015041Y007236D01*
X015084Y007192D01*
X016251Y008879D02*
X016295Y008879D01*
X016338Y008922D01*
X016338Y009139D01*
X016295Y009139D02*
X016382Y009139D01*
X016503Y009096D02*
X016546Y009139D01*
X016633Y009139D01*
X016676Y009096D01*
X016676Y009052D01*
X016503Y008879D01*
X016676Y008879D01*
X016251Y008879D02*
X016208Y008922D01*
X016783Y009624D02*
X016845Y009624D01*
X016783Y009624D02*
X016722Y009685D01*
X016722Y009747D01*
X016845Y009869D01*
X016906Y009869D01*
X016967Y009808D01*
X016967Y009747D01*
X017103Y009893D02*
X017103Y009954D01*
X017164Y010015D01*
X017226Y010015D01*
X017287Y009954D01*
X017287Y009893D01*
X017256Y009862D01*
X017134Y009985D01*
X017103Y009893D02*
X017164Y009831D01*
X017403Y009838D02*
X017342Y009654D01*
X017526Y009715D01*
X017520Y009537D02*
X017550Y009506D01*
X017520Y009476D01*
X017489Y009506D01*
X017520Y009537D01*
X017323Y009452D02*
X017261Y009452D01*
X017231Y009422D01*
X017231Y009176D01*
X017292Y009238D02*
X017169Y009238D01*
X017139Y009268D01*
X017139Y009330D01*
X017169Y009360D01*
X017292Y009360D01*
X017323Y009391D01*
X017323Y009452D01*
X017802Y009194D02*
X017924Y009071D01*
X017863Y009133D02*
X018047Y009317D01*
X017924Y009317D01*
X018041Y009016D02*
X018071Y008986D01*
X018041Y008955D01*
X018010Y008986D01*
X018041Y009016D01*
X018145Y008912D02*
X018390Y008912D01*
X018267Y008789D01*
X018206Y008789D01*
X018145Y008851D01*
X018145Y008912D01*
X018267Y009035D01*
X018329Y009035D01*
X018390Y008973D01*
X018390Y008912D01*
X018460Y009123D02*
X018644Y009308D01*
X018736Y009215D01*
X018736Y009154D01*
X018675Y009093D01*
X018614Y009093D01*
X018522Y009185D01*
X018436Y009271D02*
X018436Y009332D01*
X018375Y009393D01*
X018375Y009455D01*
X018405Y009485D01*
X018467Y009485D01*
X018528Y009424D01*
X018528Y009363D01*
X018436Y009271D02*
X018405Y009240D01*
X018344Y009240D01*
X018283Y009301D01*
X018283Y009363D01*
X018258Y009510D02*
X018136Y009632D01*
X018050Y009718D02*
X017927Y009841D01*
X018111Y009841D01*
X017927Y009657D01*
X017780Y009865D02*
X017811Y009896D01*
X017811Y009957D01*
X017719Y010049D01*
X017658Y009988D01*
X017658Y009926D01*
X017719Y009865D01*
X017780Y009865D01*
X017719Y010049D02*
X017842Y010049D01*
X017934Y010018D01*
X018121Y010196D02*
X018305Y010380D01*
X018397Y010288D01*
X018397Y010227D01*
X018336Y010166D01*
X018275Y010166D01*
X018183Y010258D01*
X018244Y010196D02*
X018244Y010074D01*
X018330Y009988D02*
X018575Y009988D01*
X018606Y010019D01*
X018606Y010080D01*
X018544Y010141D01*
X018483Y010141D01*
X018330Y009988D02*
X018452Y009865D01*
X018044Y010274D02*
X017982Y010335D01*
X018013Y010305D02*
X018197Y010489D01*
X018166Y010519D02*
X018228Y010458D01*
X017633Y010135D02*
X017511Y010257D01*
X017394Y010312D02*
X017364Y010282D01*
X017302Y010282D01*
X017241Y010343D01*
X017241Y010404D01*
X017333Y010435D02*
X017394Y010374D01*
X017394Y010312D01*
X017486Y010404D02*
X017486Y010466D01*
X017425Y010527D01*
X017364Y010527D01*
X017333Y010496D01*
X017333Y010435D01*
X017217Y010551D02*
X017094Y010674D01*
X017002Y010582D02*
X017186Y010766D01*
X017309Y010643D02*
X017125Y010459D01*
X017021Y010219D02*
X016899Y010097D01*
X016960Y010158D02*
X017083Y010158D01*
X017113Y010127D01*
X016790Y009986D02*
X016667Y010108D01*
X016483Y009924D01*
X016575Y010016D02*
X016636Y009955D01*
X016528Y010549D02*
X016528Y010809D01*
X016702Y010809D01*
X016615Y010679D02*
X016528Y010679D01*
X016407Y010549D02*
X016233Y010549D01*
X016233Y010809D01*
X016407Y010809D01*
X016320Y010679D02*
X016233Y010679D01*
X016112Y010679D02*
X016112Y010766D01*
X016069Y010809D01*
X015939Y010809D01*
X015939Y010549D01*
X015939Y010636D02*
X016069Y010636D01*
X016112Y010679D01*
X016025Y010636D02*
X016112Y010549D01*
X015736Y011016D02*
X015780Y011060D01*
X015780Y011233D01*
X015736Y011277D01*
X015606Y011277D01*
X015606Y011016D01*
X015736Y011016D01*
X015485Y011016D02*
X015485Y011277D01*
X015311Y011277D02*
X015485Y011016D01*
X015311Y011016D02*
X015311Y011277D01*
X015190Y011233D02*
X015147Y011277D01*
X015060Y011277D01*
X015017Y011233D01*
X015017Y011060D01*
X015060Y011016D01*
X015147Y011016D01*
X015190Y011060D01*
X015190Y011147D01*
X015104Y011147D01*
X015078Y010052D02*
X015078Y009879D01*
X015078Y009966D02*
X014818Y009966D01*
X014905Y009879D01*
X014948Y009758D02*
X014992Y009714D01*
X014992Y009584D01*
X015078Y009584D02*
X014818Y009584D01*
X014818Y009714D01*
X014862Y009758D01*
X014948Y009758D01*
X014992Y009671D02*
X015078Y009758D01*
X014149Y009862D02*
X014062Y009949D01*
X013889Y009949D01*
X013889Y010070D02*
X013889Y010200D01*
X013932Y010243D01*
X014106Y010243D01*
X014149Y010200D01*
X014149Y010070D01*
X013889Y010070D01*
X013889Y010365D02*
X013889Y010495D01*
X013932Y010538D01*
X014106Y010538D01*
X014149Y010495D01*
X014149Y010365D01*
X013889Y010365D01*
X014149Y009862D02*
X014062Y009775D01*
X013889Y009775D01*
X016693Y011091D02*
X016737Y011213D01*
X016793Y011239D01*
X016874Y011210D01*
X016900Y011154D01*
X016856Y011032D01*
X016885Y011113D02*
X016997Y011165D01*
X016997Y011294D02*
X017053Y011320D01*
X017083Y011401D01*
X017057Y011457D01*
X016975Y011487D01*
X016920Y011461D01*
X016905Y011420D01*
X016916Y011324D01*
X016794Y011368D01*
X016853Y011531D01*
X016693Y011091D02*
X016937Y011002D01*
X017770Y009005D02*
X017831Y008944D01*
X017801Y008974D02*
X017647Y008821D01*
X017586Y008821D01*
X017555Y008852D01*
X017555Y008913D01*
X017733Y008674D02*
X017917Y008858D01*
X018009Y008766D01*
X018009Y008705D01*
X017948Y008643D01*
X017886Y008643D01*
X017794Y008735D01*
X017941Y008466D02*
X018125Y008650D01*
X018064Y008343D01*
X018248Y008527D01*
X018669Y008915D02*
X018730Y008854D01*
X018699Y008884D02*
X018883Y009068D01*
X018853Y009099D02*
X018914Y009038D01*
X019183Y008958D02*
X019227Y008914D01*
X019314Y008914D01*
X019357Y008958D01*
X019478Y008914D02*
X019652Y008914D01*
X019565Y008914D02*
X019565Y009174D01*
X019478Y009088D01*
X019357Y009131D02*
X019314Y009174D01*
X019227Y009174D01*
X019183Y009131D01*
X019183Y008958D01*
X019517Y007355D02*
X019517Y007138D01*
X019561Y007095D01*
X019647Y007095D01*
X019691Y007138D01*
X019691Y007355D01*
X019812Y007312D02*
X019855Y007355D01*
X019942Y007355D01*
X019985Y007312D01*
X019985Y007268D01*
X019812Y007095D01*
X019985Y007095D01*
X019635Y006566D02*
X019635Y006392D01*
X019461Y006566D01*
X019418Y006566D01*
X019375Y006522D01*
X019375Y006435D01*
X019418Y006392D01*
X019418Y006271D02*
X019375Y006228D01*
X019375Y006141D01*
X019418Y006097D01*
X019592Y006097D01*
X019635Y006141D01*
X019635Y006228D01*
X019592Y006271D01*
X018567Y005401D02*
X018567Y005314D01*
X018524Y005271D01*
X018524Y005150D02*
X018567Y005106D01*
X018567Y005019D01*
X018524Y004976D01*
X018350Y004976D01*
X018307Y005019D01*
X018307Y005106D01*
X018350Y005150D01*
X018350Y005271D02*
X018307Y005314D01*
X018307Y005401D01*
X018350Y005444D01*
X018394Y005444D01*
X018437Y005401D01*
X018480Y005444D01*
X018524Y005444D01*
X018567Y005401D01*
X018437Y005401D02*
X018437Y005357D01*
X018158Y005401D02*
X017898Y005401D01*
X018028Y005271D01*
X018028Y005444D01*
X018115Y005150D02*
X018158Y005106D01*
X018158Y005019D01*
X018115Y004976D01*
X017941Y004976D01*
X017898Y005019D01*
X017898Y005106D01*
X017941Y005150D01*
X022951Y007409D02*
X023069Y007464D01*
X023126Y007443D01*
X023163Y007364D01*
X023142Y007307D01*
X023024Y007252D01*
X023103Y007288D02*
X023218Y007247D01*
X023309Y007337D02*
X023367Y007316D01*
X023446Y007353D01*
X023467Y007410D01*
X023448Y007450D01*
X023391Y007471D01*
X023273Y007416D01*
X023309Y007337D01*
X023273Y007416D02*
X023315Y007531D01*
X023375Y007607D01*
X022951Y007409D02*
X023061Y007173D01*
X024134Y006817D02*
X024134Y006556D01*
X024134Y006687D02*
X024221Y006687D01*
X024307Y006817D02*
X024134Y006817D01*
X024429Y006687D02*
X024429Y006600D01*
X024472Y006556D01*
X024559Y006556D01*
X024602Y006600D01*
X024602Y006687D01*
X024559Y006730D01*
X024472Y006730D01*
X024429Y006687D01*
X024723Y006730D02*
X024723Y006556D01*
X024723Y006643D02*
X024810Y006730D01*
X024853Y006730D01*
X024897Y006401D02*
X024897Y006184D01*
X024853Y006140D01*
X024767Y006140D01*
X024723Y006184D01*
X024723Y006401D01*
X025018Y006271D02*
X025061Y006314D01*
X025191Y006314D01*
X025148Y006227D02*
X025061Y006227D01*
X025018Y006271D01*
X025018Y006140D02*
X025148Y006140D01*
X025191Y006184D01*
X025148Y006227D01*
X025313Y006227D02*
X025486Y006227D01*
X025486Y006271D01*
X025443Y006314D01*
X025356Y006314D01*
X025313Y006271D01*
X025313Y006184D01*
X025356Y006140D01*
X025443Y006140D01*
X025437Y006556D02*
X025350Y006643D01*
X025394Y006643D02*
X025263Y006643D01*
X025263Y006556D02*
X025263Y006817D01*
X025394Y006817D01*
X025437Y006773D01*
X025437Y006687D01*
X025394Y006643D01*
X025558Y006643D02*
X025732Y006643D01*
X025732Y006687D01*
X025688Y006730D01*
X025601Y006730D01*
X025558Y006687D01*
X025558Y006600D01*
X025601Y006556D01*
X025688Y006556D01*
X025853Y006556D02*
X025983Y006556D01*
X026026Y006600D01*
X025983Y006643D01*
X025896Y006643D01*
X025853Y006687D01*
X025896Y006730D01*
X026026Y006730D01*
X026147Y006687D02*
X026191Y006730D01*
X026277Y006730D01*
X026321Y006687D01*
X026321Y006643D01*
X026147Y006643D01*
X026147Y006600D02*
X026147Y006687D01*
X026147Y006600D02*
X026191Y006556D01*
X026277Y006556D01*
X026442Y006600D02*
X026485Y006643D01*
X026616Y006643D01*
X026616Y006687D02*
X026616Y006556D01*
X026485Y006556D01*
X026442Y006600D01*
X026485Y006730D02*
X026572Y006730D01*
X026616Y006687D01*
X026737Y006730D02*
X026737Y006556D01*
X026737Y006643D02*
X026823Y006730D01*
X026867Y006730D01*
X026982Y006687D02*
X026982Y006600D01*
X027026Y006556D01*
X027156Y006556D01*
X027277Y006556D02*
X027277Y006817D01*
X027320Y006730D02*
X027407Y006730D01*
X027450Y006687D01*
X027450Y006556D01*
X027277Y006687D02*
X027320Y006730D01*
X027156Y006730D02*
X027026Y006730D01*
X026982Y006687D01*
X026861Y006314D02*
X026861Y006097D01*
X026818Y006054D01*
X026774Y006054D01*
X026731Y006140D02*
X026688Y006184D01*
X026688Y006314D01*
X026535Y006401D02*
X026535Y006140D01*
X026578Y006140D02*
X026491Y006140D01*
X026370Y006140D02*
X026370Y006271D01*
X026327Y006314D01*
X026196Y006314D01*
X026196Y006140D01*
X026075Y006184D02*
X026075Y006357D01*
X026032Y006401D01*
X025945Y006401D01*
X025902Y006357D01*
X025902Y006184D01*
X025945Y006140D01*
X026032Y006140D01*
X026075Y006184D01*
X026491Y006401D02*
X026535Y006401D01*
X026731Y006140D02*
X026861Y006140D01*
X026946Y005697D02*
X027076Y005697D01*
X027119Y005654D01*
X027119Y005567D01*
X027076Y005524D01*
X026946Y005524D01*
X027033Y005524D02*
X027119Y005437D01*
X027241Y005437D02*
X027414Y005611D01*
X027414Y005654D01*
X027371Y005697D01*
X027284Y005697D01*
X027241Y005654D01*
X027241Y005437D02*
X027414Y005437D01*
X027898Y005401D02*
X028028Y005271D01*
X028028Y005444D01*
X028158Y005401D02*
X027898Y005401D01*
X027941Y005150D02*
X027898Y005106D01*
X027898Y005019D01*
X027941Y004976D01*
X028115Y004976D01*
X028158Y005019D01*
X028158Y005106D01*
X028115Y005150D01*
X028307Y005106D02*
X028307Y005019D01*
X028350Y004976D01*
X028524Y004976D01*
X028567Y005019D01*
X028567Y005106D01*
X028524Y005150D01*
X028524Y005271D02*
X028567Y005314D01*
X028567Y005401D01*
X028524Y005444D01*
X028480Y005444D01*
X028437Y005401D01*
X028437Y005357D01*
X028437Y005401D02*
X028394Y005444D01*
X028350Y005444D01*
X028307Y005401D01*
X028307Y005314D01*
X028350Y005271D01*
X028350Y005150D02*
X028307Y005106D01*
X026946Y005437D02*
X026946Y005697D01*
X026658Y005516D02*
X026658Y005473D01*
X026615Y005429D01*
X026658Y005386D01*
X026658Y005343D01*
X026615Y005299D01*
X026528Y005299D01*
X026485Y005343D01*
X026571Y005429D02*
X026615Y005429D01*
X026658Y005516D02*
X026615Y005560D01*
X026528Y005560D01*
X026485Y005516D01*
X026363Y005516D02*
X026363Y005429D01*
X026320Y005386D01*
X026190Y005386D01*
X026190Y005299D02*
X026190Y005560D01*
X026320Y005560D01*
X026363Y005516D01*
X026277Y005386D02*
X026363Y005299D01*
X025811Y005452D02*
X025637Y005452D01*
X025767Y005582D01*
X025767Y005322D01*
X025516Y005322D02*
X025429Y005408D01*
X025473Y005408D02*
X025342Y005408D01*
X025342Y005322D02*
X025342Y005582D01*
X025473Y005582D01*
X025516Y005539D01*
X025516Y005452D01*
X025473Y005408D01*
X025005Y005521D02*
X024821Y005337D01*
X024760Y005398D02*
X024882Y005275D01*
X024882Y005521D02*
X025005Y005521D01*
X024827Y005637D02*
X024766Y005576D01*
X024705Y005576D01*
X024613Y005668D01*
X024674Y005606D02*
X024674Y005484D01*
X024551Y005606D02*
X024735Y005790D01*
X024827Y005698D01*
X024827Y005637D01*
X024658Y005868D02*
X024596Y005929D01*
X024627Y005899D02*
X024443Y005715D01*
X024412Y005745D02*
X024474Y005684D01*
X025084Y007192D02*
X025041Y007236D01*
X025041Y007409D01*
X025084Y007453D01*
X025171Y007453D01*
X025215Y007409D01*
X025336Y007453D02*
X025509Y007453D01*
X025509Y007409D01*
X025336Y007236D01*
X025336Y007192D01*
X025215Y007236D02*
X025171Y007192D01*
X025084Y007192D01*
X026251Y008879D02*
X026295Y008879D01*
X026338Y008922D01*
X026338Y009139D01*
X026295Y009139D02*
X026382Y009139D01*
X026503Y009096D02*
X026546Y009139D01*
X026633Y009139D01*
X026676Y009096D01*
X026676Y009052D01*
X026503Y008879D01*
X026676Y008879D01*
X026251Y008879D02*
X026208Y008922D01*
X026783Y009624D02*
X026845Y009624D01*
X026783Y009624D02*
X026722Y009685D01*
X026722Y009747D01*
X026845Y009869D01*
X026906Y009869D01*
X026967Y009808D01*
X026967Y009747D01*
X027103Y009893D02*
X027103Y009954D01*
X027164Y010015D01*
X027226Y010015D01*
X027287Y009954D01*
X027287Y009893D01*
X027256Y009862D01*
X027134Y009985D01*
X027103Y009893D02*
X027164Y009831D01*
X027403Y009838D02*
X027342Y009654D01*
X027526Y009715D01*
X027520Y009537D02*
X027550Y009506D01*
X027520Y009476D01*
X027489Y009506D01*
X027520Y009537D01*
X027323Y009452D02*
X027261Y009452D01*
X027231Y009422D01*
X027231Y009176D01*
X027292Y009238D02*
X027169Y009238D01*
X027139Y009268D01*
X027139Y009330D01*
X027169Y009360D01*
X027292Y009360D01*
X027323Y009391D01*
X027323Y009452D01*
X027719Y009865D02*
X027658Y009926D01*
X027658Y009988D01*
X027719Y010049D01*
X027811Y009957D01*
X027811Y009896D01*
X027780Y009865D01*
X027719Y009865D01*
X027719Y010049D02*
X027842Y010049D01*
X027934Y010018D01*
X027927Y009841D02*
X028050Y009718D01*
X028136Y009632D02*
X028258Y009510D01*
X028375Y009455D02*
X028375Y009393D01*
X028436Y009332D01*
X028436Y009271D01*
X028405Y009240D01*
X028344Y009240D01*
X028283Y009301D01*
X028283Y009363D01*
X028375Y009455D02*
X028405Y009485D01*
X028467Y009485D01*
X028528Y009424D01*
X028528Y009363D01*
X028644Y009308D02*
X028736Y009215D01*
X028736Y009154D01*
X028675Y009093D01*
X028614Y009093D01*
X028522Y009185D01*
X028460Y009123D02*
X028644Y009308D01*
X028853Y009099D02*
X028914Y009038D01*
X028883Y009068D02*
X028699Y008884D01*
X028669Y008915D02*
X028730Y008854D01*
X028390Y008912D02*
X028390Y008973D01*
X028329Y009035D01*
X028267Y009035D01*
X028145Y008912D01*
X028390Y008912D01*
X028267Y008789D01*
X028206Y008789D01*
X028145Y008851D01*
X028145Y008912D01*
X028071Y008986D02*
X028041Y008955D01*
X028010Y008986D01*
X028041Y009016D01*
X028071Y008986D01*
X027924Y009071D02*
X027802Y009194D01*
X027863Y009133D02*
X028047Y009317D01*
X027924Y009317D01*
X027927Y009657D02*
X028111Y009841D01*
X027927Y009841D01*
X028244Y010074D02*
X028244Y010196D01*
X028275Y010166D02*
X028183Y010258D01*
X028121Y010196D02*
X028305Y010380D01*
X028397Y010288D01*
X028397Y010227D01*
X028336Y010166D01*
X028275Y010166D01*
X028330Y009988D02*
X028575Y009988D01*
X028606Y010019D01*
X028606Y010080D01*
X028544Y010141D01*
X028483Y010141D01*
X028330Y009988D02*
X028452Y009865D01*
X028044Y010274D02*
X027982Y010335D01*
X028013Y010305D02*
X028197Y010489D01*
X028166Y010519D02*
X028228Y010458D01*
X027633Y010135D02*
X027511Y010257D01*
X027394Y010312D02*
X027364Y010282D01*
X027302Y010282D01*
X027241Y010343D01*
X027241Y010404D01*
X027333Y010435D02*
X027394Y010374D01*
X027394Y010312D01*
X027486Y010404D02*
X027486Y010466D01*
X027425Y010527D01*
X027364Y010527D01*
X027333Y010496D01*
X027333Y010435D01*
X027217Y010551D02*
X027094Y010674D01*
X027002Y010582D02*
X027186Y010766D01*
X027309Y010643D02*
X027125Y010459D01*
X027021Y010219D02*
X026899Y010097D01*
X026960Y010158D02*
X027083Y010158D01*
X027113Y010127D01*
X026790Y009986D02*
X026667Y010108D01*
X026483Y009924D01*
X026575Y010016D02*
X026636Y009955D01*
X026528Y010549D02*
X026528Y010809D01*
X026702Y010809D01*
X026615Y010679D02*
X026528Y010679D01*
X026407Y010549D02*
X026233Y010549D01*
X026233Y010809D01*
X026407Y010809D01*
X026320Y010679D02*
X026233Y010679D01*
X026112Y010679D02*
X026069Y010636D01*
X025939Y010636D01*
X026025Y010636D02*
X026112Y010549D01*
X026112Y010679D02*
X026112Y010766D01*
X026069Y010809D01*
X025939Y010809D01*
X025939Y010549D01*
X025736Y011016D02*
X025780Y011060D01*
X025780Y011233D01*
X025736Y011277D01*
X025606Y011277D01*
X025606Y011016D01*
X025736Y011016D01*
X025485Y011016D02*
X025485Y011277D01*
X025311Y011277D02*
X025311Y011016D01*
X025190Y011060D02*
X025190Y011147D01*
X025104Y011147D01*
X025190Y011233D02*
X025147Y011277D01*
X025060Y011277D01*
X025017Y011233D01*
X025017Y011060D01*
X025060Y011016D01*
X025147Y011016D01*
X025190Y011060D01*
X025311Y011277D02*
X025485Y011016D01*
X025078Y010052D02*
X025078Y009879D01*
X025078Y009966D02*
X024818Y009966D01*
X024905Y009879D01*
X024948Y009758D02*
X024992Y009714D01*
X024992Y009584D01*
X025078Y009584D02*
X024818Y009584D01*
X024818Y009714D01*
X024862Y009758D01*
X024948Y009758D01*
X024992Y009671D02*
X025078Y009758D01*
X024149Y009862D02*
X024062Y009949D01*
X023889Y009949D01*
X023889Y010070D02*
X023889Y010200D01*
X023932Y010243D01*
X024106Y010243D01*
X024149Y010200D01*
X024149Y010070D01*
X023889Y010070D01*
X023889Y010365D02*
X023889Y010495D01*
X023932Y010538D01*
X024106Y010538D01*
X024149Y010495D01*
X024149Y010365D01*
X023889Y010365D01*
X024149Y009862D02*
X024062Y009775D01*
X023889Y009775D01*
X026693Y011091D02*
X026737Y011213D01*
X026793Y011239D01*
X026874Y011210D01*
X026900Y011154D01*
X026856Y011032D01*
X026885Y011113D02*
X026997Y011165D01*
X026997Y011294D02*
X027053Y011320D01*
X027083Y011401D01*
X027057Y011457D01*
X026975Y011487D01*
X026920Y011461D01*
X026905Y011420D01*
X026916Y011324D01*
X026794Y011368D01*
X026853Y011531D01*
X026693Y011091D02*
X026937Y011002D01*
X027770Y009005D02*
X027831Y008944D01*
X027801Y008974D02*
X027647Y008821D01*
X027586Y008821D01*
X027555Y008852D01*
X027555Y008913D01*
X027733Y008674D02*
X027917Y008858D01*
X028009Y008766D01*
X028009Y008705D01*
X027948Y008643D01*
X027886Y008643D01*
X027794Y008735D01*
X027941Y008466D02*
X028125Y008650D01*
X028064Y008343D01*
X028248Y008527D01*
X029183Y008958D02*
X029227Y008914D01*
X029314Y008914D01*
X029357Y008958D01*
X029478Y008914D02*
X029652Y008914D01*
X029565Y008914D02*
X029565Y009174D01*
X029478Y009088D01*
X029357Y009131D02*
X029314Y009174D01*
X029227Y009174D01*
X029183Y009131D01*
X029183Y008958D01*
X029517Y007355D02*
X029517Y007138D01*
X029561Y007095D01*
X029647Y007095D01*
X029691Y007138D01*
X029691Y007355D01*
X029812Y007312D02*
X029855Y007355D01*
X029942Y007355D01*
X029985Y007312D01*
X029985Y007268D01*
X029812Y007095D01*
X029985Y007095D01*
X029635Y006566D02*
X029635Y006392D01*
X029461Y006566D01*
X029418Y006566D01*
X029375Y006522D01*
X029375Y006435D01*
X029418Y006392D01*
X029418Y006271D02*
X029375Y006228D01*
X029375Y006141D01*
X029418Y006097D01*
X029592Y006097D01*
X029635Y006141D01*
X029635Y006228D01*
X029592Y006271D01*
X028524Y014976D02*
X028350Y014976D01*
X028307Y015019D01*
X028307Y015106D01*
X028350Y015150D01*
X028350Y015271D02*
X028307Y015314D01*
X028307Y015401D01*
X028350Y015444D01*
X028394Y015444D01*
X028437Y015401D01*
X028480Y015444D01*
X028524Y015444D01*
X028567Y015401D01*
X028567Y015314D01*
X028524Y015271D01*
X028524Y015150D02*
X028567Y015106D01*
X028567Y015019D01*
X028524Y014976D01*
X028158Y015019D02*
X028158Y015106D01*
X028115Y015150D01*
X028158Y015019D02*
X028115Y014976D01*
X027941Y014976D01*
X027898Y015019D01*
X027898Y015106D01*
X027941Y015150D01*
X028028Y015271D02*
X028028Y015444D01*
X028158Y015401D02*
X027898Y015401D01*
X028028Y015271D01*
X027414Y015437D02*
X027241Y015437D01*
X027414Y015611D01*
X027414Y015654D01*
X027371Y015697D01*
X027284Y015697D01*
X027241Y015654D01*
X027119Y015654D02*
X027119Y015567D01*
X027076Y015524D01*
X026946Y015524D01*
X027033Y015524D02*
X027119Y015437D01*
X026946Y015437D02*
X026946Y015697D01*
X027076Y015697D01*
X027119Y015654D01*
X026818Y016054D02*
X026774Y016054D01*
X026818Y016054D02*
X026861Y016097D01*
X026861Y016314D01*
X026688Y016314D02*
X026688Y016184D01*
X026731Y016140D01*
X026861Y016140D01*
X026578Y016140D02*
X026491Y016140D01*
X026535Y016140D02*
X026535Y016401D01*
X026491Y016401D01*
X026485Y016556D02*
X026442Y016600D01*
X026485Y016643D01*
X026616Y016643D01*
X026616Y016687D02*
X026616Y016556D01*
X026485Y016556D01*
X026485Y016730D02*
X026572Y016730D01*
X026616Y016687D01*
X026737Y016730D02*
X026737Y016556D01*
X026737Y016643D02*
X026823Y016730D01*
X026867Y016730D01*
X026982Y016687D02*
X026982Y016600D01*
X027026Y016556D01*
X027156Y016556D01*
X027277Y016556D02*
X027277Y016817D01*
X027320Y016730D02*
X027407Y016730D01*
X027450Y016687D01*
X027450Y016556D01*
X027277Y016687D02*
X027320Y016730D01*
X027156Y016730D02*
X027026Y016730D01*
X026982Y016687D01*
X026321Y016687D02*
X026321Y016643D01*
X026147Y016643D01*
X026147Y016600D02*
X026147Y016687D01*
X026191Y016730D01*
X026277Y016730D01*
X026321Y016687D01*
X026277Y016556D02*
X026191Y016556D01*
X026147Y016600D01*
X026026Y016600D02*
X025983Y016643D01*
X025896Y016643D01*
X025853Y016687D01*
X025896Y016730D01*
X026026Y016730D01*
X026026Y016600D02*
X025983Y016556D01*
X025853Y016556D01*
X025732Y016643D02*
X025558Y016643D01*
X025558Y016600D02*
X025558Y016687D01*
X025601Y016730D01*
X025688Y016730D01*
X025732Y016687D01*
X025732Y016643D01*
X025688Y016556D02*
X025601Y016556D01*
X025558Y016600D01*
X025437Y016556D02*
X025350Y016643D01*
X025394Y016643D02*
X025263Y016643D01*
X025263Y016556D02*
X025263Y016817D01*
X025394Y016817D01*
X025437Y016773D01*
X025437Y016687D01*
X025394Y016643D01*
X025356Y016314D02*
X025443Y016314D01*
X025486Y016271D01*
X025486Y016227D01*
X025313Y016227D01*
X025313Y016184D02*
X025313Y016271D01*
X025356Y016314D01*
X025313Y016184D02*
X025356Y016140D01*
X025443Y016140D01*
X025191Y016184D02*
X025148Y016227D01*
X025061Y016227D01*
X025018Y016271D01*
X025061Y016314D01*
X025191Y016314D01*
X025191Y016184D02*
X025148Y016140D01*
X025018Y016140D01*
X024897Y016184D02*
X024897Y016401D01*
X024723Y016401D02*
X024723Y016184D01*
X024767Y016140D01*
X024853Y016140D01*
X024897Y016184D01*
X024627Y015899D02*
X024443Y015715D01*
X024412Y015745D02*
X024474Y015684D01*
X024551Y015606D02*
X024735Y015790D01*
X024827Y015698D01*
X024827Y015637D01*
X024766Y015576D01*
X024705Y015576D01*
X024613Y015668D01*
X024674Y015606D02*
X024674Y015484D01*
X024760Y015398D02*
X024882Y015275D01*
X024821Y015337D02*
X025005Y015521D01*
X024882Y015521D01*
X024658Y015868D02*
X024596Y015929D01*
X024559Y016556D02*
X024602Y016600D01*
X024602Y016687D01*
X024559Y016730D01*
X024472Y016730D01*
X024429Y016687D01*
X024429Y016600D01*
X024472Y016556D01*
X024559Y016556D01*
X024723Y016556D02*
X024723Y016730D01*
X024723Y016643D02*
X024810Y016730D01*
X024853Y016730D01*
X025084Y017192D02*
X025041Y017236D01*
X025041Y017409D01*
X025084Y017453D01*
X025171Y017453D01*
X025215Y017409D01*
X025336Y017453D02*
X025509Y017453D01*
X025509Y017409D01*
X025336Y017236D01*
X025336Y017192D01*
X025215Y017236D02*
X025171Y017192D01*
X025084Y017192D01*
X024307Y016817D02*
X024134Y016817D01*
X024134Y016556D01*
X024134Y016687D02*
X024221Y016687D01*
X023446Y017353D02*
X023467Y017410D01*
X023448Y017450D01*
X023391Y017471D01*
X023273Y017416D01*
X023309Y017337D01*
X023367Y017316D01*
X023446Y017353D01*
X023273Y017416D02*
X023315Y017531D01*
X023375Y017607D01*
X023126Y017443D02*
X023069Y017464D01*
X022951Y017409D01*
X023061Y017173D01*
X023024Y017252D02*
X023142Y017307D01*
X023163Y017364D01*
X023126Y017443D01*
X023103Y017288D02*
X023218Y017247D01*
X025342Y015582D02*
X025342Y015322D01*
X025342Y015408D02*
X025473Y015408D01*
X025516Y015452D01*
X025516Y015539D01*
X025473Y015582D01*
X025342Y015582D01*
X025429Y015408D02*
X025516Y015322D01*
X025637Y015452D02*
X025811Y015452D01*
X025767Y015582D02*
X025637Y015452D01*
X025767Y015322D02*
X025767Y015582D01*
X026190Y015560D02*
X026190Y015299D01*
X026190Y015386D02*
X026320Y015386D01*
X026363Y015429D01*
X026363Y015516D01*
X026320Y015560D01*
X026190Y015560D01*
X026277Y015386D02*
X026363Y015299D01*
X026485Y015343D02*
X026528Y015299D01*
X026615Y015299D01*
X026658Y015343D01*
X026658Y015386D01*
X026615Y015429D01*
X026571Y015429D01*
X026615Y015429D02*
X026658Y015473D01*
X026658Y015516D01*
X026615Y015560D01*
X026528Y015560D01*
X026485Y015516D01*
X026370Y016140D02*
X026370Y016271D01*
X026327Y016314D01*
X026196Y016314D01*
X026196Y016140D01*
X026075Y016184D02*
X026075Y016357D01*
X026032Y016401D01*
X025945Y016401D01*
X025902Y016357D01*
X025902Y016184D01*
X025945Y016140D01*
X026032Y016140D01*
X026075Y016184D01*
X028064Y018343D02*
X028248Y018527D01*
X028125Y018650D02*
X028064Y018343D01*
X027941Y018466D02*
X028125Y018650D01*
X028009Y018705D02*
X027948Y018643D01*
X027886Y018643D01*
X027794Y018735D01*
X027733Y018674D02*
X027917Y018858D01*
X028009Y018766D01*
X028009Y018705D01*
X028145Y018851D02*
X028145Y018912D01*
X028390Y018912D01*
X028267Y018789D01*
X028206Y018789D01*
X028145Y018851D01*
X028145Y018912D02*
X028267Y019035D01*
X028329Y019035D01*
X028390Y018973D01*
X028390Y018912D01*
X028460Y019123D02*
X028644Y019308D01*
X028736Y019215D01*
X028736Y019154D01*
X028675Y019093D01*
X028614Y019093D01*
X028522Y019185D01*
X028436Y019271D02*
X028405Y019240D01*
X028344Y019240D01*
X028283Y019301D01*
X028283Y019363D01*
X028375Y019393D02*
X028436Y019332D01*
X028436Y019271D01*
X028528Y019363D02*
X028528Y019424D01*
X028467Y019485D01*
X028405Y019485D01*
X028375Y019455D01*
X028375Y019393D01*
X028258Y019510D02*
X028136Y019632D01*
X028050Y019718D02*
X027927Y019841D01*
X028111Y019841D01*
X027927Y019657D01*
X027780Y019865D02*
X027811Y019896D01*
X027811Y019957D01*
X027719Y020049D01*
X027658Y019988D01*
X027658Y019926D01*
X027719Y019865D01*
X027780Y019865D01*
X027719Y020049D02*
X027842Y020049D01*
X027934Y020018D01*
X028121Y020196D02*
X028305Y020380D01*
X028397Y020288D01*
X028397Y020227D01*
X028336Y020166D01*
X028275Y020166D01*
X028183Y020258D01*
X028244Y020196D02*
X028244Y020074D01*
X028330Y019988D02*
X028575Y019988D01*
X028606Y020019D01*
X028606Y020080D01*
X028544Y020141D01*
X028483Y020141D01*
X028330Y019988D02*
X028452Y019865D01*
X028044Y020274D02*
X027982Y020335D01*
X028013Y020305D02*
X028197Y020489D01*
X028166Y020519D02*
X028228Y020458D01*
X027633Y020135D02*
X027511Y020257D01*
X027394Y020312D02*
X027364Y020282D01*
X027302Y020282D01*
X027241Y020343D01*
X027241Y020404D01*
X027333Y020435D02*
X027394Y020374D01*
X027394Y020312D01*
X027486Y020404D02*
X027486Y020466D01*
X027425Y020527D01*
X027364Y020527D01*
X027333Y020496D01*
X027333Y020435D01*
X027217Y020551D02*
X027094Y020674D01*
X027002Y020582D02*
X027186Y020766D01*
X027309Y020643D02*
X027125Y020459D01*
X027021Y020219D02*
X026899Y020097D01*
X026960Y020158D02*
X027083Y020158D01*
X027113Y020127D01*
X027164Y020015D02*
X027226Y020015D01*
X027287Y019954D01*
X027287Y019893D01*
X027256Y019862D01*
X027134Y019985D01*
X027164Y020015D02*
X027103Y019954D01*
X027103Y019893D01*
X027164Y019831D01*
X026967Y019808D02*
X026906Y019869D01*
X026845Y019869D01*
X026722Y019747D01*
X026722Y019685D01*
X026783Y019624D01*
X026845Y019624D01*
X026967Y019747D02*
X026967Y019808D01*
X026790Y019986D02*
X026667Y020108D01*
X026483Y019924D01*
X026575Y020016D02*
X026636Y019955D01*
X026528Y020549D02*
X026528Y020809D01*
X026702Y020809D01*
X026615Y020679D02*
X026528Y020679D01*
X026407Y020549D02*
X026233Y020549D01*
X026233Y020809D01*
X026407Y020809D01*
X026320Y020679D02*
X026233Y020679D01*
X026112Y020679D02*
X026069Y020636D01*
X025939Y020636D01*
X026025Y020636D02*
X026112Y020549D01*
X026112Y020679D02*
X026112Y020766D01*
X026069Y020809D01*
X025939Y020809D01*
X025939Y020549D01*
X025736Y021016D02*
X025780Y021060D01*
X025780Y021233D01*
X025736Y021277D01*
X025606Y021277D01*
X025606Y021016D01*
X025736Y021016D01*
X025485Y021016D02*
X025485Y021277D01*
X025311Y021277D02*
X025311Y021016D01*
X025190Y021060D02*
X025190Y021147D01*
X025104Y021147D01*
X025190Y021233D02*
X025147Y021277D01*
X025060Y021277D01*
X025017Y021233D01*
X025017Y021060D01*
X025060Y021016D01*
X025147Y021016D01*
X025190Y021060D01*
X025311Y021277D02*
X025485Y021016D01*
X025078Y020052D02*
X025078Y019879D01*
X025078Y019966D02*
X024818Y019966D01*
X024905Y019879D01*
X024948Y019758D02*
X024992Y019714D01*
X024992Y019584D01*
X025078Y019584D02*
X024818Y019584D01*
X024818Y019714D01*
X024862Y019758D01*
X024948Y019758D01*
X024992Y019671D02*
X025078Y019758D01*
X024149Y019862D02*
X024062Y019949D01*
X023889Y019949D01*
X023889Y020070D02*
X023889Y020200D01*
X023932Y020243D01*
X024106Y020243D01*
X024149Y020200D01*
X024149Y020070D01*
X023889Y020070D01*
X023889Y020365D02*
X023889Y020495D01*
X023932Y020538D01*
X024106Y020538D01*
X024149Y020495D01*
X024149Y020365D01*
X023889Y020365D01*
X024149Y019862D02*
X024062Y019775D01*
X023889Y019775D01*
X026208Y018922D02*
X026251Y018879D01*
X026295Y018879D01*
X026338Y018922D01*
X026338Y019139D01*
X026295Y019139D02*
X026382Y019139D01*
X026503Y019096D02*
X026546Y019139D01*
X026633Y019139D01*
X026676Y019096D01*
X026676Y019052D01*
X026503Y018879D01*
X026676Y018879D01*
X027139Y019268D02*
X027139Y019330D01*
X027169Y019360D01*
X027292Y019360D01*
X027323Y019391D01*
X027323Y019452D01*
X027261Y019452D01*
X027231Y019422D01*
X027231Y019176D01*
X027292Y019238D02*
X027169Y019238D01*
X027139Y019268D01*
X027489Y019506D02*
X027520Y019476D01*
X027550Y019506D01*
X027520Y019537D01*
X027489Y019506D01*
X027342Y019654D02*
X027526Y019715D01*
X027403Y019838D02*
X027342Y019654D01*
X027802Y019194D02*
X027924Y019071D01*
X027863Y019133D02*
X028047Y019317D01*
X027924Y019317D01*
X028041Y019016D02*
X028071Y018986D01*
X028041Y018955D01*
X028010Y018986D01*
X028041Y019016D01*
X027831Y018944D02*
X027770Y019005D01*
X027801Y018974D02*
X027647Y018821D01*
X027586Y018821D01*
X027555Y018852D01*
X027555Y018913D01*
X028669Y018915D02*
X028730Y018854D01*
X028699Y018884D02*
X028883Y019068D01*
X028853Y019099D02*
X028914Y019038D01*
X029183Y018958D02*
X029227Y018914D01*
X029314Y018914D01*
X029357Y018958D01*
X029478Y018914D02*
X029652Y018914D01*
X029565Y018914D02*
X029565Y019174D01*
X029478Y019088D01*
X029357Y019131D02*
X029314Y019174D01*
X029227Y019174D01*
X029183Y019131D01*
X029183Y018958D01*
X029517Y017355D02*
X029517Y017138D01*
X029561Y017095D01*
X029647Y017095D01*
X029691Y017138D01*
X029691Y017355D01*
X029812Y017312D02*
X029855Y017355D01*
X029942Y017355D01*
X029985Y017312D01*
X029985Y017268D01*
X029812Y017095D01*
X029985Y017095D01*
X029635Y016566D02*
X029635Y016392D01*
X029461Y016566D01*
X029418Y016566D01*
X029375Y016522D01*
X029375Y016435D01*
X029418Y016392D01*
X029418Y016271D02*
X029375Y016228D01*
X029375Y016141D01*
X029418Y016097D01*
X029592Y016097D01*
X029635Y016141D01*
X029635Y016228D01*
X029592Y016271D01*
X028437Y015401D02*
X028437Y015357D01*
X026937Y021002D02*
X026693Y021091D01*
X026737Y021213D01*
X026793Y021239D01*
X026874Y021210D01*
X026900Y021154D01*
X026856Y021032D01*
X026885Y021113D02*
X026997Y021165D01*
X026997Y021294D02*
X027053Y021320D01*
X027083Y021401D01*
X027057Y021457D01*
X026975Y021487D01*
X026920Y021461D01*
X026905Y021420D01*
X026916Y021324D01*
X026794Y021368D01*
X026853Y021531D01*
X027941Y024976D02*
X028115Y024976D01*
X028158Y025019D01*
X028158Y025106D01*
X028115Y025150D01*
X028028Y025271D02*
X028028Y025444D01*
X028158Y025401D02*
X027898Y025401D01*
X028028Y025271D01*
X027941Y025150D02*
X027898Y025106D01*
X027898Y025019D01*
X027941Y024976D01*
X028307Y025019D02*
X028307Y025106D01*
X028350Y025150D01*
X028350Y025271D02*
X028307Y025314D01*
X028307Y025401D01*
X028350Y025444D01*
X028394Y025444D01*
X028437Y025401D01*
X028480Y025444D01*
X028524Y025444D01*
X028567Y025401D01*
X028567Y025314D01*
X028524Y025271D01*
X028524Y025150D02*
X028567Y025106D01*
X028567Y025019D01*
X028524Y024976D01*
X028350Y024976D01*
X028307Y025019D01*
X028437Y025357D02*
X028437Y025401D01*
X027414Y025437D02*
X027241Y025437D01*
X027414Y025611D01*
X027414Y025654D01*
X027371Y025697D01*
X027284Y025697D01*
X027241Y025654D01*
X027119Y025654D02*
X027119Y025567D01*
X027076Y025524D01*
X026946Y025524D01*
X027033Y025524D02*
X027119Y025437D01*
X026946Y025437D02*
X026946Y025697D01*
X027076Y025697D01*
X027119Y025654D01*
X026818Y026054D02*
X026774Y026054D01*
X026818Y026054D02*
X026861Y026097D01*
X026861Y026314D01*
X026688Y026314D02*
X026688Y026184D01*
X026731Y026140D01*
X026861Y026140D01*
X026578Y026140D02*
X026491Y026140D01*
X026535Y026140D02*
X026535Y026401D01*
X026491Y026401D01*
X026485Y026556D02*
X026442Y026600D01*
X026485Y026643D01*
X026616Y026643D01*
X026616Y026687D02*
X026616Y026556D01*
X026485Y026556D01*
X026485Y026730D02*
X026572Y026730D01*
X026616Y026687D01*
X026737Y026730D02*
X026737Y026556D01*
X026737Y026643D02*
X026823Y026730D01*
X026867Y026730D01*
X026982Y026687D02*
X026982Y026600D01*
X027026Y026556D01*
X027156Y026556D01*
X027277Y026556D02*
X027277Y026817D01*
X027320Y026730D02*
X027407Y026730D01*
X027450Y026687D01*
X027450Y026556D01*
X027277Y026687D02*
X027320Y026730D01*
X027156Y026730D02*
X027026Y026730D01*
X026982Y026687D01*
X026321Y026687D02*
X026321Y026643D01*
X026147Y026643D01*
X026147Y026600D02*
X026147Y026687D01*
X026191Y026730D01*
X026277Y026730D01*
X026321Y026687D01*
X026277Y026556D02*
X026191Y026556D01*
X026147Y026600D01*
X026026Y026600D02*
X025983Y026643D01*
X025896Y026643D01*
X025853Y026687D01*
X025896Y026730D01*
X026026Y026730D01*
X026026Y026600D02*
X025983Y026556D01*
X025853Y026556D01*
X025732Y026643D02*
X025558Y026643D01*
X025558Y026600D02*
X025558Y026687D01*
X025601Y026730D01*
X025688Y026730D01*
X025732Y026687D01*
X025732Y026643D01*
X025688Y026556D02*
X025601Y026556D01*
X025558Y026600D01*
X025437Y026556D02*
X025350Y026643D01*
X025394Y026643D02*
X025263Y026643D01*
X025263Y026556D02*
X025263Y026817D01*
X025394Y026817D01*
X025437Y026773D01*
X025437Y026687D01*
X025394Y026643D01*
X025356Y026314D02*
X025443Y026314D01*
X025486Y026271D01*
X025486Y026227D01*
X025313Y026227D01*
X025313Y026184D02*
X025313Y026271D01*
X025356Y026314D01*
X025313Y026184D02*
X025356Y026140D01*
X025443Y026140D01*
X025191Y026184D02*
X025148Y026227D01*
X025061Y026227D01*
X025018Y026271D01*
X025061Y026314D01*
X025191Y026314D01*
X025191Y026184D02*
X025148Y026140D01*
X025018Y026140D01*
X024897Y026184D02*
X024897Y026401D01*
X024723Y026401D02*
X024723Y026184D01*
X024767Y026140D01*
X024853Y026140D01*
X024897Y026184D01*
X024627Y025899D02*
X024443Y025715D01*
X024412Y025745D02*
X024474Y025684D01*
X024551Y025606D02*
X024735Y025790D01*
X024827Y025698D01*
X024827Y025637D01*
X024766Y025576D01*
X024705Y025576D01*
X024613Y025668D01*
X024674Y025606D02*
X024674Y025484D01*
X024760Y025398D02*
X024882Y025275D01*
X024821Y025337D02*
X025005Y025521D01*
X024882Y025521D01*
X024658Y025868D02*
X024596Y025929D01*
X024559Y026556D02*
X024602Y026600D01*
X024602Y026687D01*
X024559Y026730D01*
X024472Y026730D01*
X024429Y026687D01*
X024429Y026600D01*
X024472Y026556D01*
X024559Y026556D01*
X024723Y026556D02*
X024723Y026730D01*
X024723Y026643D02*
X024810Y026730D01*
X024853Y026730D01*
X025084Y027192D02*
X025041Y027236D01*
X025041Y027409D01*
X025084Y027453D01*
X025171Y027453D01*
X025215Y027409D01*
X025336Y027453D02*
X025509Y027453D01*
X025509Y027409D01*
X025336Y027236D01*
X025336Y027192D01*
X025215Y027236D02*
X025171Y027192D01*
X025084Y027192D01*
X024307Y026817D02*
X024134Y026817D01*
X024134Y026556D01*
X024134Y026687D02*
X024221Y026687D01*
X023446Y027353D02*
X023467Y027410D01*
X023448Y027450D01*
X023391Y027471D01*
X023273Y027416D01*
X023309Y027337D01*
X023367Y027316D01*
X023446Y027353D01*
X023273Y027416D02*
X023315Y027531D01*
X023375Y027607D01*
X023126Y027443D02*
X023069Y027464D01*
X022951Y027409D01*
X023061Y027173D01*
X023024Y027252D02*
X023142Y027307D01*
X023163Y027364D01*
X023126Y027443D01*
X023103Y027288D02*
X023218Y027247D01*
X025342Y025582D02*
X025342Y025322D01*
X025342Y025408D02*
X025473Y025408D01*
X025516Y025452D01*
X025516Y025539D01*
X025473Y025582D01*
X025342Y025582D01*
X025429Y025408D02*
X025516Y025322D01*
X025637Y025452D02*
X025811Y025452D01*
X025767Y025582D02*
X025637Y025452D01*
X025767Y025322D02*
X025767Y025582D01*
X026190Y025560D02*
X026190Y025299D01*
X026190Y025386D02*
X026320Y025386D01*
X026363Y025429D01*
X026363Y025516D01*
X026320Y025560D01*
X026190Y025560D01*
X026277Y025386D02*
X026363Y025299D01*
X026485Y025343D02*
X026528Y025299D01*
X026615Y025299D01*
X026658Y025343D01*
X026658Y025386D01*
X026615Y025429D01*
X026571Y025429D01*
X026615Y025429D02*
X026658Y025473D01*
X026658Y025516D01*
X026615Y025560D01*
X026528Y025560D01*
X026485Y025516D01*
X026370Y026140D02*
X026370Y026271D01*
X026327Y026314D01*
X026196Y026314D01*
X026196Y026140D01*
X026075Y026184D02*
X026075Y026357D01*
X026032Y026401D01*
X025945Y026401D01*
X025902Y026357D01*
X025902Y026184D01*
X025945Y026140D01*
X026032Y026140D01*
X026075Y026184D01*
X028064Y028343D02*
X028248Y028527D01*
X028125Y028650D02*
X028064Y028343D01*
X027941Y028466D02*
X028125Y028650D01*
X028009Y028705D02*
X027948Y028643D01*
X027886Y028643D01*
X027794Y028735D01*
X027733Y028674D02*
X027917Y028858D01*
X028009Y028766D01*
X028009Y028705D01*
X028145Y028851D02*
X028145Y028912D01*
X028390Y028912D01*
X028267Y028789D01*
X028206Y028789D01*
X028145Y028851D01*
X028145Y028912D02*
X028267Y029035D01*
X028329Y029035D01*
X028390Y028973D01*
X028390Y028912D01*
X028460Y029123D02*
X028644Y029307D01*
X028736Y029215D01*
X028736Y029154D01*
X028675Y029093D01*
X028614Y029093D01*
X028522Y029185D01*
X028436Y029271D02*
X028405Y029240D01*
X028344Y029240D01*
X028283Y029301D01*
X028283Y029363D01*
X028375Y029393D02*
X028436Y029332D01*
X028436Y029271D01*
X028528Y029363D02*
X028528Y029424D01*
X028467Y029485D01*
X028405Y029485D01*
X028375Y029455D01*
X028375Y029393D01*
X028258Y029510D02*
X028136Y029632D01*
X028050Y029718D02*
X027927Y029841D01*
X028111Y029841D01*
X027927Y029657D01*
X027780Y029865D02*
X027811Y029896D01*
X027811Y029957D01*
X027719Y030049D01*
X027658Y029988D01*
X027658Y029926D01*
X027719Y029865D01*
X027780Y029865D01*
X027719Y030049D02*
X027842Y030049D01*
X027934Y030018D01*
X028121Y030196D02*
X028305Y030380D01*
X028397Y030288D01*
X028397Y030227D01*
X028336Y030166D01*
X028275Y030166D01*
X028183Y030258D01*
X028244Y030196D02*
X028244Y030074D01*
X028330Y029988D02*
X028575Y029988D01*
X028606Y030019D01*
X028606Y030080D01*
X028544Y030141D01*
X028483Y030141D01*
X028330Y029988D02*
X028452Y029865D01*
X028044Y030274D02*
X027982Y030335D01*
X028013Y030305D02*
X028197Y030489D01*
X028166Y030519D02*
X028228Y030458D01*
X027633Y030135D02*
X027511Y030257D01*
X027394Y030312D02*
X027364Y030282D01*
X027302Y030282D01*
X027241Y030343D01*
X027241Y030404D01*
X027333Y030435D02*
X027394Y030374D01*
X027394Y030312D01*
X027486Y030404D02*
X027486Y030466D01*
X027425Y030527D01*
X027364Y030527D01*
X027333Y030496D01*
X027333Y030435D01*
X027217Y030551D02*
X027094Y030674D01*
X027002Y030582D02*
X027186Y030766D01*
X027309Y030643D02*
X027125Y030459D01*
X027021Y030219D02*
X026899Y030097D01*
X026960Y030158D02*
X027083Y030158D01*
X027113Y030127D01*
X027164Y030015D02*
X027226Y030015D01*
X027287Y029954D01*
X027287Y029893D01*
X027256Y029862D01*
X027134Y029985D01*
X027164Y030015D02*
X027103Y029954D01*
X027103Y029893D01*
X027164Y029831D01*
X026967Y029808D02*
X026906Y029869D01*
X026845Y029869D01*
X026722Y029747D01*
X026722Y029685D01*
X026783Y029624D01*
X026845Y029624D01*
X026967Y029747D02*
X026967Y029808D01*
X026790Y029986D02*
X026667Y030108D01*
X026483Y029924D01*
X026575Y030016D02*
X026636Y029955D01*
X026528Y030549D02*
X026528Y030809D01*
X026702Y030809D01*
X026615Y030679D02*
X026528Y030679D01*
X026407Y030549D02*
X026233Y030549D01*
X026233Y030809D01*
X026407Y030809D01*
X026320Y030679D02*
X026233Y030679D01*
X026112Y030679D02*
X026069Y030636D01*
X025939Y030636D01*
X026025Y030636D02*
X026112Y030549D01*
X026112Y030679D02*
X026112Y030766D01*
X026069Y030809D01*
X025939Y030809D01*
X025939Y030549D01*
X025736Y031016D02*
X025780Y031060D01*
X025780Y031233D01*
X025736Y031277D01*
X025606Y031277D01*
X025606Y031016D01*
X025736Y031016D01*
X025485Y031016D02*
X025485Y031277D01*
X025311Y031277D02*
X025311Y031016D01*
X025190Y031060D02*
X025190Y031147D01*
X025104Y031147D01*
X025190Y031233D02*
X025147Y031277D01*
X025060Y031277D01*
X025017Y031233D01*
X025017Y031060D01*
X025060Y031016D01*
X025147Y031016D01*
X025190Y031060D01*
X025311Y031277D02*
X025485Y031016D01*
X025078Y030052D02*
X025078Y029879D01*
X025078Y029966D02*
X024818Y029966D01*
X024905Y029879D01*
X024948Y029758D02*
X024992Y029714D01*
X024992Y029584D01*
X025078Y029584D02*
X024818Y029584D01*
X024818Y029714D01*
X024862Y029758D01*
X024948Y029758D01*
X024992Y029671D02*
X025078Y029758D01*
X024149Y029862D02*
X024062Y029949D01*
X023889Y029949D01*
X023889Y030070D02*
X023889Y030200D01*
X023932Y030243D01*
X024106Y030243D01*
X024149Y030200D01*
X024149Y030070D01*
X023889Y030070D01*
X023889Y030365D02*
X023889Y030495D01*
X023932Y030538D01*
X024106Y030538D01*
X024149Y030495D01*
X024149Y030365D01*
X023889Y030365D01*
X024149Y029862D02*
X024062Y029775D01*
X023889Y029775D01*
X026208Y028922D02*
X026251Y028879D01*
X026295Y028879D01*
X026338Y028922D01*
X026338Y029139D01*
X026295Y029139D02*
X026382Y029139D01*
X026503Y029096D02*
X026546Y029139D01*
X026633Y029139D01*
X026676Y029096D01*
X026676Y029052D01*
X026503Y028879D01*
X026676Y028879D01*
X027139Y029268D02*
X027139Y029330D01*
X027169Y029360D01*
X027292Y029360D01*
X027323Y029391D01*
X027323Y029452D01*
X027261Y029452D01*
X027231Y029422D01*
X027231Y029176D01*
X027292Y029238D02*
X027169Y029238D01*
X027139Y029268D01*
X027489Y029506D02*
X027520Y029476D01*
X027550Y029506D01*
X027520Y029537D01*
X027489Y029506D01*
X027342Y029653D02*
X027526Y029715D01*
X027403Y029838D02*
X027342Y029653D01*
X027802Y029194D02*
X027924Y029071D01*
X027863Y029133D02*
X028047Y029317D01*
X027924Y029317D01*
X028041Y029016D02*
X028071Y028986D01*
X028041Y028955D01*
X028010Y028986D01*
X028041Y029016D01*
X027831Y028944D02*
X027770Y029005D01*
X027801Y028974D02*
X027647Y028821D01*
X027586Y028821D01*
X027555Y028852D01*
X027555Y028913D01*
X028669Y028915D02*
X028730Y028854D01*
X028699Y028884D02*
X028883Y029068D01*
X028853Y029099D02*
X028914Y029038D01*
X029183Y028958D02*
X029227Y028914D01*
X029314Y028914D01*
X029357Y028958D01*
X029478Y028914D02*
X029652Y028914D01*
X029565Y028914D02*
X029565Y029174D01*
X029478Y029088D01*
X029357Y029131D02*
X029314Y029174D01*
X029227Y029174D01*
X029183Y029131D01*
X029183Y028958D01*
X029517Y027355D02*
X029517Y027138D01*
X029561Y027095D01*
X029647Y027095D01*
X029691Y027138D01*
X029691Y027355D01*
X029812Y027312D02*
X029855Y027355D01*
X029942Y027355D01*
X029985Y027312D01*
X029985Y027268D01*
X029812Y027095D01*
X029985Y027095D01*
X029635Y026566D02*
X029635Y026392D01*
X029461Y026566D01*
X029418Y026566D01*
X029375Y026522D01*
X029375Y026435D01*
X029418Y026392D01*
X029418Y026271D02*
X029375Y026228D01*
X029375Y026141D01*
X029418Y026097D01*
X029592Y026097D01*
X029635Y026141D01*
X029635Y026228D01*
X029592Y026271D01*
X026937Y031002D02*
X026693Y031091D01*
X026737Y031213D01*
X026793Y031239D01*
X026874Y031210D01*
X026900Y031154D01*
X026856Y031032D01*
X026885Y031113D02*
X026997Y031165D01*
X026997Y031294D02*
X027053Y031320D01*
X027083Y031401D01*
X027057Y031457D01*
X026975Y031487D01*
X026920Y031461D01*
X026905Y031420D01*
X026916Y031324D01*
X026794Y031368D01*
X026853Y031531D01*
X019985Y027312D02*
X019942Y027355D01*
X019855Y027355D01*
X019812Y027312D01*
X019691Y027355D02*
X019691Y027138D01*
X019647Y027095D01*
X019561Y027095D01*
X019517Y027138D01*
X019517Y027355D01*
X019812Y027095D02*
X019985Y027268D01*
X019985Y027312D01*
X019985Y027095D02*
X019812Y027095D01*
X019635Y026566D02*
X019635Y026392D01*
X019461Y026566D01*
X019418Y026566D01*
X019375Y026522D01*
X019375Y026435D01*
X019418Y026392D01*
X019418Y026271D02*
X019375Y026228D01*
X019375Y026141D01*
X019418Y026097D01*
X019592Y026097D01*
X019635Y026141D01*
X019635Y026228D01*
X019592Y026271D01*
X018567Y025401D02*
X018567Y025314D01*
X018524Y025271D01*
X018524Y025150D02*
X018567Y025106D01*
X018567Y025019D01*
X018524Y024976D01*
X018350Y024976D01*
X018307Y025019D01*
X018307Y025106D01*
X018350Y025150D01*
X018350Y025271D02*
X018307Y025314D01*
X018307Y025401D01*
X018350Y025444D01*
X018394Y025444D01*
X018437Y025401D01*
X018480Y025444D01*
X018524Y025444D01*
X018567Y025401D01*
X018437Y025401D02*
X018437Y025357D01*
X018158Y025401D02*
X017898Y025401D01*
X018028Y025271D01*
X018028Y025444D01*
X018115Y025150D02*
X018158Y025106D01*
X018158Y025019D01*
X018115Y024976D01*
X017941Y024976D01*
X017898Y025019D01*
X017898Y025106D01*
X017941Y025150D01*
X017414Y025437D02*
X017241Y025437D01*
X017414Y025611D01*
X017414Y025654D01*
X017371Y025697D01*
X017284Y025697D01*
X017241Y025654D01*
X017119Y025654D02*
X017119Y025567D01*
X017076Y025524D01*
X016946Y025524D01*
X017033Y025524D02*
X017119Y025437D01*
X016946Y025437D02*
X016946Y025697D01*
X017076Y025697D01*
X017119Y025654D01*
X016658Y025516D02*
X016658Y025473D01*
X016615Y025429D01*
X016658Y025386D01*
X016658Y025343D01*
X016615Y025299D01*
X016528Y025299D01*
X016485Y025343D01*
X016571Y025429D02*
X016615Y025429D01*
X016658Y025516D02*
X016615Y025560D01*
X016528Y025560D01*
X016485Y025516D01*
X016363Y025516D02*
X016363Y025429D01*
X016320Y025386D01*
X016190Y025386D01*
X016190Y025299D02*
X016190Y025560D01*
X016320Y025560D01*
X016363Y025516D01*
X016277Y025386D02*
X016363Y025299D01*
X015811Y025452D02*
X015637Y025452D01*
X015767Y025582D01*
X015767Y025322D01*
X015516Y025322D02*
X015429Y025408D01*
X015473Y025408D02*
X015342Y025408D01*
X015342Y025322D02*
X015342Y025582D01*
X015473Y025582D01*
X015516Y025539D01*
X015516Y025452D01*
X015473Y025408D01*
X015005Y025521D02*
X014821Y025337D01*
X014760Y025398D02*
X014882Y025275D01*
X014882Y025521D02*
X015005Y025521D01*
X014827Y025637D02*
X014766Y025576D01*
X014705Y025576D01*
X014613Y025668D01*
X014674Y025606D02*
X014674Y025484D01*
X014551Y025606D02*
X014735Y025790D01*
X014827Y025698D01*
X014827Y025637D01*
X014658Y025868D02*
X014596Y025929D01*
X014627Y025899D02*
X014443Y025715D01*
X014412Y025745D02*
X014474Y025684D01*
X014767Y026140D02*
X014853Y026140D01*
X014897Y026184D01*
X014897Y026401D01*
X014723Y026401D02*
X014723Y026184D01*
X014767Y026140D01*
X015018Y026140D02*
X015148Y026140D01*
X015191Y026184D01*
X015148Y026227D01*
X015061Y026227D01*
X015018Y026271D01*
X015061Y026314D01*
X015191Y026314D01*
X015313Y026271D02*
X015356Y026314D01*
X015443Y026314D01*
X015486Y026271D01*
X015486Y026227D01*
X015313Y026227D01*
X015313Y026184D02*
X015313Y026271D01*
X015313Y026184D02*
X015356Y026140D01*
X015443Y026140D01*
X015437Y026556D02*
X015350Y026643D01*
X015394Y026643D02*
X015263Y026643D01*
X015263Y026556D02*
X015263Y026817D01*
X015394Y026817D01*
X015437Y026773D01*
X015437Y026687D01*
X015394Y026643D01*
X015558Y026643D02*
X015732Y026643D01*
X015732Y026687D01*
X015688Y026730D01*
X015601Y026730D01*
X015558Y026687D01*
X015558Y026600D01*
X015601Y026556D01*
X015688Y026556D01*
X015853Y026556D02*
X015983Y026556D01*
X016026Y026600D01*
X015983Y026643D01*
X015896Y026643D01*
X015853Y026687D01*
X015896Y026730D01*
X016026Y026730D01*
X016147Y026687D02*
X016191Y026730D01*
X016277Y026730D01*
X016321Y026687D01*
X016321Y026643D01*
X016147Y026643D01*
X016147Y026600D02*
X016147Y026687D01*
X016147Y026600D02*
X016191Y026556D01*
X016277Y026556D01*
X016442Y026600D02*
X016485Y026643D01*
X016616Y026643D01*
X016616Y026687D02*
X016616Y026556D01*
X016485Y026556D01*
X016442Y026600D01*
X016485Y026730D02*
X016572Y026730D01*
X016616Y026687D01*
X016737Y026730D02*
X016737Y026556D01*
X016737Y026643D02*
X016823Y026730D01*
X016867Y026730D01*
X016982Y026687D02*
X016982Y026600D01*
X017026Y026556D01*
X017156Y026556D01*
X017277Y026556D02*
X017277Y026817D01*
X017320Y026730D02*
X017407Y026730D01*
X017450Y026687D01*
X017450Y026556D01*
X017277Y026687D02*
X017320Y026730D01*
X017156Y026730D02*
X017026Y026730D01*
X016982Y026687D01*
X016861Y026314D02*
X016861Y026097D01*
X016818Y026054D01*
X016774Y026054D01*
X016731Y026140D02*
X016861Y026140D01*
X016731Y026140D02*
X016688Y026184D01*
X016688Y026314D01*
X016535Y026401D02*
X016535Y026140D01*
X016578Y026140D02*
X016491Y026140D01*
X016370Y026140D02*
X016370Y026271D01*
X016327Y026314D01*
X016196Y026314D01*
X016196Y026140D01*
X016075Y026184D02*
X016075Y026357D01*
X016032Y026401D01*
X015945Y026401D01*
X015902Y026357D01*
X015902Y026184D01*
X015945Y026140D01*
X016032Y026140D01*
X016075Y026184D01*
X016491Y026401D02*
X016535Y026401D01*
X015509Y027409D02*
X015336Y027236D01*
X015336Y027192D01*
X015215Y027236D02*
X015171Y027192D01*
X015084Y027192D01*
X015041Y027236D01*
X015041Y027409D01*
X015084Y027453D01*
X015171Y027453D01*
X015215Y027409D01*
X015336Y027453D02*
X015509Y027453D01*
X015509Y027409D01*
X014853Y026730D02*
X014810Y026730D01*
X014723Y026643D01*
X014723Y026556D02*
X014723Y026730D01*
X014602Y026687D02*
X014559Y026730D01*
X014472Y026730D01*
X014429Y026687D01*
X014429Y026600D01*
X014472Y026556D01*
X014559Y026556D01*
X014602Y026600D01*
X014602Y026687D01*
X014307Y026817D02*
X014134Y026817D01*
X014134Y026556D01*
X014134Y026687D02*
X014221Y026687D01*
X013446Y027353D02*
X013467Y027410D01*
X013448Y027450D01*
X013391Y027471D01*
X013273Y027416D01*
X013309Y027337D01*
X013367Y027316D01*
X013446Y027353D01*
X013273Y027416D02*
X013315Y027531D01*
X013375Y027607D01*
X013126Y027443D02*
X013163Y027364D01*
X013142Y027307D01*
X013024Y027252D01*
X013103Y027288D02*
X013218Y027247D01*
X013061Y027173D02*
X012951Y027409D01*
X013069Y027464D01*
X013126Y027443D01*
X014818Y029584D02*
X014818Y029714D01*
X014862Y029758D01*
X014948Y029758D01*
X014992Y029714D01*
X014992Y029584D01*
X015078Y029584D02*
X014818Y029584D01*
X014992Y029671D02*
X015078Y029758D01*
X015078Y029879D02*
X015078Y030052D01*
X015078Y029966D02*
X014818Y029966D01*
X014905Y029879D01*
X014149Y029862D02*
X014062Y029949D01*
X013889Y029949D01*
X013889Y030070D02*
X013889Y030200D01*
X013932Y030243D01*
X014106Y030243D01*
X014149Y030200D01*
X014149Y030070D01*
X013889Y030070D01*
X013889Y030365D02*
X013889Y030495D01*
X013932Y030538D01*
X014106Y030538D01*
X014149Y030495D01*
X014149Y030365D01*
X013889Y030365D01*
X014149Y029862D02*
X014062Y029775D01*
X013889Y029775D01*
X015060Y031016D02*
X015147Y031016D01*
X015190Y031060D01*
X015190Y031147D01*
X015104Y031147D01*
X015190Y031233D02*
X015147Y031277D01*
X015060Y031277D01*
X015017Y031233D01*
X015017Y031060D01*
X015060Y031016D01*
X015311Y031016D02*
X015311Y031277D01*
X015485Y031016D01*
X015485Y031277D01*
X015606Y031277D02*
X015606Y031016D01*
X015736Y031016D01*
X015780Y031060D01*
X015780Y031233D01*
X015736Y031277D01*
X015606Y031277D01*
X015939Y030809D02*
X016069Y030809D01*
X016112Y030766D01*
X016112Y030679D01*
X016069Y030636D01*
X015939Y030636D01*
X016025Y030636D02*
X016112Y030549D01*
X016233Y030549D02*
X016233Y030809D01*
X016407Y030809D01*
X016528Y030809D02*
X016528Y030549D01*
X016407Y030549D02*
X016233Y030549D01*
X016233Y030679D02*
X016320Y030679D01*
X016528Y030679D02*
X016615Y030679D01*
X016528Y030809D02*
X016702Y030809D01*
X016856Y031032D02*
X016900Y031154D01*
X016874Y031210D01*
X016793Y031239D01*
X016737Y031213D01*
X016693Y031091D01*
X016937Y031002D01*
X016885Y031113D02*
X016997Y031165D01*
X016997Y031294D02*
X017053Y031320D01*
X017083Y031401D01*
X017057Y031457D01*
X016975Y031487D01*
X016920Y031461D01*
X016905Y031420D01*
X016916Y031324D01*
X016794Y031368D01*
X016853Y031531D01*
X017186Y030766D02*
X017002Y030582D01*
X017094Y030674D02*
X017217Y030551D01*
X017333Y030496D02*
X017333Y030435D01*
X017394Y030374D01*
X017394Y030312D01*
X017364Y030282D01*
X017302Y030282D01*
X017241Y030343D01*
X017241Y030404D01*
X017125Y030459D02*
X017309Y030643D01*
X017364Y030527D02*
X017333Y030496D01*
X017364Y030527D02*
X017425Y030527D01*
X017486Y030466D01*
X017486Y030404D01*
X017511Y030257D02*
X017633Y030135D01*
X017719Y030049D02*
X017811Y029957D01*
X017811Y029896D01*
X017780Y029865D01*
X017719Y029865D01*
X017658Y029926D01*
X017658Y029988D01*
X017719Y030049D01*
X017842Y030049D01*
X017934Y030018D01*
X017927Y029841D02*
X018050Y029718D01*
X018136Y029632D02*
X018258Y029510D01*
X018375Y029455D02*
X018375Y029393D01*
X018436Y029332D01*
X018436Y029271D01*
X018405Y029240D01*
X018344Y029240D01*
X018283Y029301D01*
X018283Y029363D01*
X018375Y029455D02*
X018405Y029485D01*
X018467Y029485D01*
X018528Y029424D01*
X018528Y029363D01*
X018644Y029307D02*
X018460Y029123D01*
X018522Y029185D02*
X018614Y029093D01*
X018675Y029093D01*
X018736Y029154D01*
X018736Y029215D01*
X018644Y029307D01*
X018853Y029099D02*
X018914Y029038D01*
X018883Y029068D02*
X018699Y028884D01*
X018669Y028915D02*
X018730Y028854D01*
X018390Y028912D02*
X018145Y028912D01*
X018145Y028851D01*
X018206Y028789D01*
X018267Y028789D01*
X018390Y028912D01*
X018390Y028973D01*
X018329Y029035D01*
X018267Y029035D01*
X018145Y028912D01*
X018071Y028986D02*
X018041Y028955D01*
X018010Y028986D01*
X018041Y029016D01*
X018071Y028986D01*
X017924Y029071D02*
X017802Y029194D01*
X017863Y029133D02*
X018047Y029317D01*
X017924Y029317D01*
X017927Y029657D02*
X018111Y029841D01*
X017927Y029841D01*
X018244Y030074D02*
X018244Y030196D01*
X018275Y030166D02*
X018183Y030258D01*
X018121Y030196D02*
X018305Y030380D01*
X018397Y030288D01*
X018397Y030227D01*
X018336Y030166D01*
X018275Y030166D01*
X018330Y029988D02*
X018575Y029988D01*
X018606Y030019D01*
X018606Y030080D01*
X018544Y030141D01*
X018483Y030141D01*
X018330Y029988D02*
X018452Y029865D01*
X018044Y030274D02*
X017982Y030335D01*
X018013Y030305D02*
X018197Y030489D01*
X018166Y030519D02*
X018228Y030458D01*
X017526Y029715D02*
X017342Y029653D01*
X017403Y029838D01*
X017287Y029893D02*
X017256Y029862D01*
X017134Y029985D01*
X017164Y030015D02*
X017103Y029954D01*
X017103Y029893D01*
X017164Y029831D01*
X017287Y029893D02*
X017287Y029954D01*
X017226Y030015D01*
X017164Y030015D01*
X017113Y030127D02*
X017083Y030158D01*
X016960Y030158D01*
X016899Y030097D02*
X017021Y030219D01*
X016790Y029986D02*
X016667Y030108D01*
X016483Y029924D01*
X016575Y030016D02*
X016636Y029955D01*
X016722Y029747D02*
X016722Y029685D01*
X016783Y029624D01*
X016845Y029624D01*
X016967Y029747D02*
X016967Y029808D01*
X016906Y029869D01*
X016845Y029869D01*
X016722Y029747D01*
X017139Y029330D02*
X017169Y029360D01*
X017292Y029360D01*
X017323Y029391D01*
X017323Y029452D01*
X017261Y029452D01*
X017231Y029422D01*
X017231Y029176D01*
X017292Y029238D02*
X017169Y029238D01*
X017139Y029268D01*
X017139Y029330D01*
X016676Y029096D02*
X016633Y029139D01*
X016546Y029139D01*
X016503Y029096D01*
X016382Y029139D02*
X016295Y029139D01*
X016338Y029139D02*
X016338Y028922D01*
X016295Y028879D01*
X016251Y028879D01*
X016208Y028922D01*
X016503Y028879D02*
X016676Y029052D01*
X016676Y029096D01*
X016676Y028879D02*
X016503Y028879D01*
X017555Y028852D02*
X017586Y028821D01*
X017647Y028821D01*
X017801Y028974D01*
X017831Y028944D02*
X017770Y029005D01*
X017917Y028858D02*
X017733Y028674D01*
X017794Y028735D02*
X017886Y028643D01*
X017948Y028643D01*
X018009Y028705D01*
X018009Y028766D01*
X017917Y028858D01*
X018125Y028650D02*
X018064Y028343D01*
X018248Y028527D01*
X018125Y028650D02*
X017941Y028466D01*
X017555Y028852D02*
X017555Y028913D01*
X017520Y029476D02*
X017489Y029506D01*
X017520Y029537D01*
X017550Y029506D01*
X017520Y029476D01*
X019183Y029131D02*
X019183Y028958D01*
X019227Y028914D01*
X019314Y028914D01*
X019357Y028958D01*
X019478Y028914D02*
X019652Y028914D01*
X019565Y028914D02*
X019565Y029174D01*
X019478Y029088D01*
X019357Y029131D02*
X019314Y029174D01*
X019227Y029174D01*
X019183Y029131D01*
X015939Y030549D02*
X015939Y030809D01*
X009985Y027312D02*
X009942Y027355D01*
X009855Y027355D01*
X009812Y027312D01*
X009691Y027355D02*
X009691Y027138D01*
X009647Y027095D01*
X009561Y027095D01*
X009517Y027138D01*
X009517Y027355D01*
X009812Y027095D02*
X009985Y027268D01*
X009985Y027312D01*
X009985Y027095D02*
X009812Y027095D01*
X009635Y026566D02*
X009635Y026392D01*
X009461Y026566D01*
X009418Y026566D01*
X009375Y026522D01*
X009375Y026435D01*
X009418Y026392D01*
X009418Y026271D02*
X009375Y026228D01*
X009375Y026141D01*
X009418Y026097D01*
X009592Y026097D01*
X009635Y026141D01*
X009635Y026228D01*
X009592Y026271D01*
X008567Y025401D02*
X008567Y025314D01*
X008524Y025271D01*
X008524Y025150D02*
X008567Y025106D01*
X008567Y025019D01*
X008524Y024976D01*
X008350Y024976D01*
X008307Y025019D01*
X008307Y025106D01*
X008350Y025150D01*
X008350Y025271D02*
X008307Y025314D01*
X008307Y025401D01*
X008350Y025444D01*
X008394Y025444D01*
X008437Y025401D01*
X008480Y025444D01*
X008524Y025444D01*
X008567Y025401D01*
X008437Y025401D02*
X008437Y025357D01*
X008158Y025401D02*
X007898Y025401D01*
X008028Y025271D01*
X008028Y025444D01*
X008115Y025150D02*
X008158Y025106D01*
X008158Y025019D01*
X008115Y024976D01*
X007941Y024976D01*
X007898Y025019D01*
X007898Y025106D01*
X007941Y025150D01*
X007414Y025437D02*
X007241Y025437D01*
X007414Y025611D01*
X007414Y025654D01*
X007371Y025697D01*
X007284Y025697D01*
X007241Y025654D01*
X007119Y025654D02*
X007119Y025567D01*
X007076Y025524D01*
X006946Y025524D01*
X007033Y025524D02*
X007119Y025437D01*
X006946Y025437D02*
X006946Y025697D01*
X007076Y025697D01*
X007119Y025654D01*
X006658Y025516D02*
X006658Y025473D01*
X006615Y025429D01*
X006658Y025386D01*
X006658Y025343D01*
X006615Y025299D01*
X006528Y025299D01*
X006485Y025343D01*
X006571Y025429D02*
X006615Y025429D01*
X006658Y025516D02*
X006615Y025560D01*
X006528Y025560D01*
X006485Y025516D01*
X006363Y025516D02*
X006363Y025429D01*
X006320Y025386D01*
X006190Y025386D01*
X006190Y025299D02*
X006190Y025560D01*
X006320Y025560D01*
X006363Y025516D01*
X006277Y025386D02*
X006363Y025299D01*
X005811Y025452D02*
X005637Y025452D01*
X005767Y025582D01*
X005767Y025322D01*
X005516Y025322D02*
X005429Y025408D01*
X005473Y025408D02*
X005342Y025408D01*
X005342Y025322D02*
X005342Y025582D01*
X005473Y025582D01*
X005516Y025539D01*
X005516Y025452D01*
X005473Y025408D01*
X005005Y025521D02*
X004821Y025337D01*
X004760Y025398D02*
X004882Y025275D01*
X004882Y025521D02*
X005005Y025521D01*
X004827Y025637D02*
X004766Y025576D01*
X004705Y025576D01*
X004613Y025668D01*
X004674Y025606D02*
X004674Y025484D01*
X004551Y025606D02*
X004735Y025790D01*
X004827Y025698D01*
X004827Y025637D01*
X004658Y025868D02*
X004596Y025929D01*
X004627Y025899D02*
X004443Y025715D01*
X004412Y025745D02*
X004474Y025684D01*
X004767Y026140D02*
X004853Y026140D01*
X004897Y026184D01*
X004897Y026401D01*
X004723Y026401D02*
X004723Y026184D01*
X004767Y026140D01*
X005018Y026140D02*
X005148Y026140D01*
X005191Y026184D01*
X005148Y026227D01*
X005061Y026227D01*
X005018Y026271D01*
X005061Y026314D01*
X005191Y026314D01*
X005313Y026271D02*
X005356Y026314D01*
X005443Y026314D01*
X005486Y026271D01*
X005486Y026227D01*
X005313Y026227D01*
X005313Y026184D02*
X005313Y026271D01*
X005313Y026184D02*
X005356Y026140D01*
X005443Y026140D01*
X005437Y026556D02*
X005350Y026643D01*
X005394Y026643D02*
X005263Y026643D01*
X005263Y026556D02*
X005263Y026817D01*
X005394Y026817D01*
X005437Y026773D01*
X005437Y026687D01*
X005394Y026643D01*
X005558Y026643D02*
X005732Y026643D01*
X005732Y026687D01*
X005688Y026730D01*
X005601Y026730D01*
X005558Y026687D01*
X005558Y026600D01*
X005601Y026556D01*
X005688Y026556D01*
X005853Y026556D02*
X005983Y026556D01*
X006026Y026600D01*
X005983Y026643D01*
X005896Y026643D01*
X005853Y026687D01*
X005896Y026730D01*
X006026Y026730D01*
X006147Y026687D02*
X006191Y026730D01*
X006277Y026730D01*
X006321Y026687D01*
X006321Y026643D01*
X006147Y026643D01*
X006147Y026600D02*
X006147Y026687D01*
X006147Y026600D02*
X006191Y026556D01*
X006277Y026556D01*
X006442Y026600D02*
X006485Y026643D01*
X006616Y026643D01*
X006616Y026687D02*
X006616Y026556D01*
X006485Y026556D01*
X006442Y026600D01*
X006485Y026730D02*
X006572Y026730D01*
X006616Y026687D01*
X006737Y026730D02*
X006737Y026556D01*
X006737Y026643D02*
X006823Y026730D01*
X006867Y026730D01*
X006982Y026687D02*
X006982Y026600D01*
X007026Y026556D01*
X007156Y026556D01*
X007277Y026556D02*
X007277Y026817D01*
X007320Y026730D02*
X007407Y026730D01*
X007450Y026687D01*
X007450Y026556D01*
X007277Y026687D02*
X007320Y026730D01*
X007156Y026730D02*
X007026Y026730D01*
X006982Y026687D01*
X006861Y026314D02*
X006861Y026097D01*
X006818Y026054D01*
X006774Y026054D01*
X006731Y026140D02*
X006861Y026140D01*
X006731Y026140D02*
X006688Y026184D01*
X006688Y026314D01*
X006535Y026401D02*
X006535Y026140D01*
X006578Y026140D02*
X006491Y026140D01*
X006370Y026140D02*
X006370Y026271D01*
X006327Y026314D01*
X006196Y026314D01*
X006196Y026140D01*
X006075Y026184D02*
X006075Y026357D01*
X006032Y026401D01*
X005945Y026401D01*
X005902Y026357D01*
X005902Y026184D01*
X005945Y026140D01*
X006032Y026140D01*
X006075Y026184D01*
X006491Y026401D02*
X006535Y026401D01*
X005336Y027192D02*
X005336Y027236D01*
X005509Y027409D01*
X005509Y027453D01*
X005336Y027453D01*
X005215Y027409D02*
X005171Y027453D01*
X005084Y027453D01*
X005041Y027409D01*
X005041Y027236D01*
X005084Y027192D01*
X005171Y027192D01*
X005215Y027236D01*
X004853Y026730D02*
X004810Y026730D01*
X004723Y026643D01*
X004723Y026556D02*
X004723Y026730D01*
X004602Y026687D02*
X004559Y026730D01*
X004472Y026730D01*
X004429Y026687D01*
X004429Y026600D01*
X004472Y026556D01*
X004559Y026556D01*
X004602Y026600D01*
X004602Y026687D01*
X004307Y026817D02*
X004134Y026817D01*
X004134Y026556D01*
X004134Y026687D02*
X004221Y026687D01*
X003446Y027353D02*
X003467Y027410D01*
X003448Y027450D01*
X003391Y027471D01*
X003273Y027416D01*
X003309Y027337D01*
X003367Y027316D01*
X003446Y027353D01*
X003273Y027416D02*
X003315Y027531D01*
X003375Y027607D01*
X003126Y027443D02*
X003163Y027364D01*
X003142Y027307D01*
X003024Y027252D01*
X003103Y027288D02*
X003218Y027247D01*
X003061Y027173D02*
X002951Y027409D01*
X003069Y027464D01*
X003126Y027443D01*
X004818Y029584D02*
X004818Y029714D01*
X004862Y029758D01*
X004948Y029758D01*
X004992Y029714D01*
X004992Y029584D01*
X005078Y029584D02*
X004818Y029584D01*
X004992Y029671D02*
X005078Y029758D01*
X005078Y029879D02*
X005078Y030052D01*
X005078Y029966D02*
X004818Y029966D01*
X004905Y029879D01*
X004149Y029862D02*
X004062Y029949D01*
X003889Y029949D01*
X003889Y030070D02*
X003889Y030200D01*
X003932Y030243D01*
X004106Y030243D01*
X004149Y030200D01*
X004149Y030070D01*
X003889Y030070D01*
X003889Y030365D02*
X003889Y030495D01*
X003932Y030538D01*
X004106Y030538D01*
X004149Y030495D01*
X004149Y030365D01*
X003889Y030365D01*
X004149Y029862D02*
X004062Y029775D01*
X003889Y029775D01*
X005060Y031016D02*
X005147Y031016D01*
X005190Y031060D01*
X005190Y031147D01*
X005104Y031147D01*
X005190Y031233D02*
X005147Y031277D01*
X005060Y031277D01*
X005017Y031233D01*
X005017Y031060D01*
X005060Y031016D01*
X005311Y031016D02*
X005311Y031277D01*
X005485Y031016D01*
X005485Y031277D01*
X005606Y031277D02*
X005736Y031277D01*
X005780Y031233D01*
X005780Y031060D01*
X005736Y031016D01*
X005606Y031016D01*
X005606Y031277D01*
X005939Y030809D02*
X006069Y030809D01*
X006112Y030766D01*
X006112Y030679D01*
X006069Y030636D01*
X005939Y030636D01*
X006025Y030636D02*
X006112Y030549D01*
X006233Y030549D02*
X006407Y030549D01*
X006528Y030549D02*
X006528Y030809D01*
X006702Y030809D01*
X006615Y030679D02*
X006528Y030679D01*
X006407Y030809D02*
X006233Y030809D01*
X006233Y030549D01*
X006233Y030679D02*
X006320Y030679D01*
X006693Y031091D02*
X006737Y031213D01*
X006793Y031239D01*
X006874Y031210D01*
X006900Y031154D01*
X006856Y031032D01*
X006885Y031113D02*
X006997Y031165D01*
X006997Y031294D02*
X007053Y031320D01*
X007083Y031401D01*
X007057Y031457D01*
X006975Y031487D01*
X006920Y031461D01*
X006905Y031420D01*
X006916Y031324D01*
X006794Y031368D01*
X006853Y031531D01*
X006693Y031091D02*
X006937Y031002D01*
X007186Y030766D02*
X007002Y030582D01*
X007094Y030674D02*
X007217Y030551D01*
X007333Y030496D02*
X007333Y030435D01*
X007394Y030374D01*
X007394Y030312D01*
X007364Y030282D01*
X007302Y030282D01*
X007241Y030343D01*
X007241Y030404D01*
X007125Y030459D02*
X007309Y030643D01*
X007364Y030527D02*
X007333Y030496D01*
X007364Y030527D02*
X007425Y030527D01*
X007486Y030466D01*
X007486Y030404D01*
X007511Y030257D02*
X007633Y030135D01*
X007719Y030049D02*
X007811Y029957D01*
X007811Y029896D01*
X007780Y029865D01*
X007719Y029865D01*
X007658Y029926D01*
X007658Y029988D01*
X007719Y030049D01*
X007842Y030049D01*
X007934Y030018D01*
X007927Y029841D02*
X008050Y029718D01*
X008136Y029632D02*
X008258Y029510D01*
X008375Y029455D02*
X008375Y029393D01*
X008436Y029332D01*
X008436Y029271D01*
X008405Y029240D01*
X008344Y029240D01*
X008283Y029301D01*
X008283Y029363D01*
X008375Y029455D02*
X008405Y029485D01*
X008467Y029485D01*
X008528Y029424D01*
X008528Y029363D01*
X008644Y029307D02*
X008460Y029123D01*
X008522Y029185D02*
X008614Y029093D01*
X008675Y029093D01*
X008736Y029154D01*
X008736Y029215D01*
X008644Y029307D01*
X008853Y029099D02*
X008914Y029038D01*
X008883Y029068D02*
X008699Y028884D01*
X008669Y028915D02*
X008730Y028854D01*
X008390Y028912D02*
X008145Y028912D01*
X008145Y028851D01*
X008206Y028789D01*
X008267Y028789D01*
X008390Y028912D01*
X008390Y028973D01*
X008329Y029035D01*
X008267Y029035D01*
X008145Y028912D01*
X008071Y028986D02*
X008041Y028955D01*
X008010Y028986D01*
X008041Y029016D01*
X008071Y028986D01*
X007924Y029071D02*
X007802Y029194D01*
X007863Y029133D02*
X008047Y029317D01*
X007924Y029317D01*
X007927Y029657D02*
X008111Y029841D01*
X007927Y029841D01*
X008244Y030074D02*
X008244Y030196D01*
X008275Y030166D02*
X008183Y030258D01*
X008121Y030196D02*
X008305Y030380D01*
X008397Y030288D01*
X008397Y030227D01*
X008336Y030166D01*
X008275Y030166D01*
X008330Y029988D02*
X008575Y029988D01*
X008606Y030019D01*
X008606Y030080D01*
X008544Y030141D01*
X008483Y030141D01*
X008330Y029988D02*
X008452Y029865D01*
X008044Y030274D02*
X007982Y030335D01*
X008013Y030305D02*
X008197Y030489D01*
X008166Y030519D02*
X008228Y030458D01*
X007526Y029715D02*
X007342Y029653D01*
X007403Y029838D01*
X007287Y029893D02*
X007256Y029862D01*
X007134Y029985D01*
X007164Y030015D02*
X007226Y030015D01*
X007287Y029954D01*
X007287Y029893D01*
X007164Y029831D02*
X007103Y029893D01*
X007103Y029954D01*
X007164Y030015D01*
X007113Y030127D02*
X007083Y030158D01*
X006960Y030158D01*
X006899Y030097D02*
X007021Y030219D01*
X006790Y029986D02*
X006667Y030108D01*
X006483Y029924D01*
X006575Y030016D02*
X006636Y029955D01*
X006722Y029747D02*
X006722Y029685D01*
X006783Y029624D01*
X006845Y029624D01*
X006967Y029747D02*
X006967Y029808D01*
X006906Y029869D01*
X006845Y029869D01*
X006722Y029747D01*
X007139Y029330D02*
X007169Y029360D01*
X007292Y029360D01*
X007323Y029391D01*
X007323Y029452D01*
X007261Y029452D01*
X007231Y029422D01*
X007231Y029176D01*
X007292Y029238D02*
X007169Y029238D01*
X007139Y029268D01*
X007139Y029330D01*
X007489Y029506D02*
X007520Y029476D01*
X007550Y029506D01*
X007520Y029537D01*
X007489Y029506D01*
X007770Y029005D02*
X007831Y028944D01*
X007801Y028974D02*
X007647Y028821D01*
X007586Y028821D01*
X007555Y028852D01*
X007555Y028913D01*
X007733Y028674D02*
X007917Y028858D01*
X008009Y028766D01*
X008009Y028705D01*
X007948Y028643D01*
X007886Y028643D01*
X007794Y028735D01*
X007941Y028466D02*
X008125Y028650D01*
X008064Y028343D01*
X008248Y028527D01*
X009183Y028958D02*
X009227Y028914D01*
X009314Y028914D01*
X009357Y028958D01*
X009478Y028914D02*
X009652Y028914D01*
X009565Y028914D02*
X009565Y029174D01*
X009478Y029088D01*
X009357Y029131D02*
X009314Y029174D01*
X009227Y029174D01*
X009183Y029131D01*
X009183Y028958D01*
X006676Y028879D02*
X006503Y028879D01*
X006676Y029052D01*
X006676Y029096D01*
X006633Y029139D01*
X006546Y029139D01*
X006503Y029096D01*
X006382Y029139D02*
X006295Y029139D01*
X006338Y029139D02*
X006338Y028922D01*
X006295Y028879D01*
X006251Y028879D01*
X006208Y028922D01*
X005939Y030549D02*
X005939Y030809D01*
X006853Y021531D02*
X006794Y021368D01*
X006916Y021324D01*
X006905Y021420D01*
X006920Y021461D01*
X006975Y021487D01*
X007057Y021457D01*
X007083Y021401D01*
X007053Y021320D01*
X006997Y021294D01*
X006997Y021165D02*
X006885Y021113D01*
X006900Y021154D02*
X006856Y021032D01*
X006937Y021002D02*
X006693Y021091D01*
X006737Y021213D01*
X006793Y021239D01*
X006874Y021210D01*
X006900Y021154D01*
X006702Y020809D02*
X006528Y020809D01*
X006528Y020549D01*
X006407Y020549D02*
X006233Y020549D01*
X006233Y020809D01*
X006407Y020809D01*
X006320Y020679D02*
X006233Y020679D01*
X006112Y020679D02*
X006069Y020636D01*
X005939Y020636D01*
X006025Y020636D02*
X006112Y020549D01*
X006112Y020679D02*
X006112Y020766D01*
X006069Y020809D01*
X005939Y020809D01*
X005939Y020549D01*
X005736Y021016D02*
X005606Y021016D01*
X005606Y021277D01*
X005736Y021277D01*
X005780Y021233D01*
X005780Y021060D01*
X005736Y021016D01*
X005485Y021016D02*
X005485Y021277D01*
X005311Y021277D02*
X005485Y021016D01*
X005311Y021016D02*
X005311Y021277D01*
X005190Y021233D02*
X005147Y021277D01*
X005060Y021277D01*
X005017Y021233D01*
X005017Y021060D01*
X005060Y021016D01*
X005147Y021016D01*
X005190Y021060D01*
X005190Y021147D01*
X005104Y021147D01*
X005078Y020052D02*
X005078Y019879D01*
X005078Y019966D02*
X004818Y019966D01*
X004905Y019879D01*
X004948Y019758D02*
X004992Y019714D01*
X004992Y019584D01*
X005078Y019584D02*
X004818Y019584D01*
X004818Y019714D01*
X004862Y019758D01*
X004948Y019758D01*
X004992Y019671D02*
X005078Y019758D01*
X004149Y019862D02*
X004062Y019949D01*
X003889Y019949D01*
X003889Y020070D02*
X003889Y020200D01*
X003932Y020243D01*
X004106Y020243D01*
X004149Y020200D01*
X004149Y020070D01*
X003889Y020070D01*
X003889Y020365D02*
X003889Y020495D01*
X003932Y020538D01*
X004106Y020538D01*
X004149Y020495D01*
X004149Y020365D01*
X003889Y020365D01*
X004149Y019862D02*
X004062Y019775D01*
X003889Y019775D01*
X003375Y017607D02*
X003315Y017531D01*
X003273Y017416D01*
X003391Y017471D01*
X003448Y017450D01*
X003467Y017410D01*
X003446Y017353D01*
X003367Y017316D01*
X003309Y017337D01*
X003273Y017416D01*
X003163Y017364D02*
X003142Y017307D01*
X003024Y017252D01*
X003103Y017288D02*
X003218Y017247D01*
X003163Y017364D02*
X003126Y017443D01*
X003069Y017464D01*
X002951Y017409D01*
X003061Y017173D01*
X004134Y016817D02*
X004134Y016556D01*
X004134Y016687D02*
X004221Y016687D01*
X004307Y016817D02*
X004134Y016817D01*
X004429Y016687D02*
X004429Y016600D01*
X004472Y016556D01*
X004559Y016556D01*
X004602Y016600D01*
X004602Y016687D01*
X004559Y016730D01*
X004472Y016730D01*
X004429Y016687D01*
X004723Y016730D02*
X004723Y016556D01*
X004723Y016643D02*
X004810Y016730D01*
X004853Y016730D01*
X004897Y016401D02*
X004897Y016184D01*
X004853Y016140D01*
X004767Y016140D01*
X004723Y016184D01*
X004723Y016401D01*
X005018Y016271D02*
X005061Y016314D01*
X005191Y016314D01*
X005148Y016227D02*
X005061Y016227D01*
X005018Y016271D01*
X005018Y016140D02*
X005148Y016140D01*
X005191Y016184D01*
X005148Y016227D01*
X005313Y016227D02*
X005486Y016227D01*
X005486Y016271D01*
X005443Y016314D01*
X005356Y016314D01*
X005313Y016271D01*
X005313Y016184D01*
X005356Y016140D01*
X005443Y016140D01*
X005437Y016556D02*
X005350Y016643D01*
X005394Y016643D02*
X005263Y016643D01*
X005263Y016556D02*
X005263Y016817D01*
X005394Y016817D01*
X005437Y016773D01*
X005437Y016687D01*
X005394Y016643D01*
X005558Y016643D02*
X005732Y016643D01*
X005732Y016687D01*
X005688Y016730D01*
X005601Y016730D01*
X005558Y016687D01*
X005558Y016600D01*
X005601Y016556D01*
X005688Y016556D01*
X005853Y016556D02*
X005983Y016556D01*
X006026Y016600D01*
X005983Y016643D01*
X005896Y016643D01*
X005853Y016687D01*
X005896Y016730D01*
X006026Y016730D01*
X006147Y016687D02*
X006191Y016730D01*
X006277Y016730D01*
X006321Y016687D01*
X006321Y016643D01*
X006147Y016643D01*
X006147Y016600D02*
X006147Y016687D01*
X006147Y016600D02*
X006191Y016556D01*
X006277Y016556D01*
X006442Y016600D02*
X006485Y016643D01*
X006616Y016643D01*
X006616Y016687D02*
X006616Y016556D01*
X006485Y016556D01*
X006442Y016600D01*
X006485Y016730D02*
X006572Y016730D01*
X006616Y016687D01*
X006737Y016730D02*
X006737Y016556D01*
X006737Y016643D02*
X006823Y016730D01*
X006867Y016730D01*
X006982Y016687D02*
X006982Y016600D01*
X007026Y016556D01*
X007156Y016556D01*
X007277Y016556D02*
X007277Y016817D01*
X007320Y016730D02*
X007407Y016730D01*
X007450Y016687D01*
X007450Y016556D01*
X007277Y016687D02*
X007320Y016730D01*
X007156Y016730D02*
X007026Y016730D01*
X006982Y016687D01*
X006861Y016314D02*
X006861Y016097D01*
X006818Y016054D01*
X006774Y016054D01*
X006731Y016140D02*
X006861Y016140D01*
X006731Y016140D02*
X006688Y016184D01*
X006688Y016314D01*
X006535Y016401D02*
X006535Y016140D01*
X006578Y016140D02*
X006491Y016140D01*
X006370Y016140D02*
X006370Y016271D01*
X006327Y016314D01*
X006196Y016314D01*
X006196Y016140D01*
X006075Y016184D02*
X006075Y016357D01*
X006032Y016401D01*
X005945Y016401D01*
X005902Y016357D01*
X005902Y016184D01*
X005945Y016140D01*
X006032Y016140D01*
X006075Y016184D01*
X006491Y016401D02*
X006535Y016401D01*
X006946Y015697D02*
X007076Y015697D01*
X007119Y015654D01*
X007119Y015567D01*
X007076Y015524D01*
X006946Y015524D01*
X007033Y015524D02*
X007119Y015437D01*
X007241Y015437D02*
X007414Y015611D01*
X007414Y015654D01*
X007371Y015697D01*
X007284Y015697D01*
X007241Y015654D01*
X007241Y015437D02*
X007414Y015437D01*
X006946Y015437D02*
X006946Y015697D01*
X006658Y015516D02*
X006658Y015473D01*
X006615Y015429D01*
X006658Y015386D01*
X006658Y015343D01*
X006615Y015299D01*
X006528Y015299D01*
X006485Y015343D01*
X006571Y015429D02*
X006615Y015429D01*
X006658Y015516D02*
X006615Y015560D01*
X006528Y015560D01*
X006485Y015516D01*
X006363Y015516D02*
X006363Y015429D01*
X006320Y015386D01*
X006190Y015386D01*
X006190Y015299D02*
X006190Y015560D01*
X006320Y015560D01*
X006363Y015516D01*
X006277Y015386D02*
X006363Y015299D01*
X005811Y015452D02*
X005637Y015452D01*
X005767Y015582D01*
X005767Y015322D01*
X005516Y015322D02*
X005429Y015408D01*
X005473Y015408D02*
X005342Y015408D01*
X005342Y015322D02*
X005342Y015582D01*
X005473Y015582D01*
X005516Y015539D01*
X005516Y015452D01*
X005473Y015408D01*
X005005Y015521D02*
X004821Y015337D01*
X004760Y015398D02*
X004882Y015275D01*
X004882Y015521D02*
X005005Y015521D01*
X004827Y015637D02*
X004766Y015576D01*
X004705Y015576D01*
X004613Y015668D01*
X004674Y015606D02*
X004674Y015484D01*
X004551Y015606D02*
X004735Y015790D01*
X004827Y015698D01*
X004827Y015637D01*
X004658Y015868D02*
X004596Y015929D01*
X004627Y015899D02*
X004443Y015715D01*
X004412Y015745D02*
X004474Y015684D01*
X005084Y017192D02*
X005171Y017192D01*
X005215Y017236D01*
X005336Y017236D02*
X005336Y017192D01*
X005336Y017236D02*
X005509Y017409D01*
X005509Y017453D01*
X005336Y017453D01*
X005215Y017409D02*
X005171Y017453D01*
X005084Y017453D01*
X005041Y017409D01*
X005041Y017236D01*
X005084Y017192D01*
X006251Y018879D02*
X006295Y018879D01*
X006338Y018922D01*
X006338Y019139D01*
X006295Y019139D02*
X006382Y019139D01*
X006503Y019096D02*
X006546Y019139D01*
X006633Y019139D01*
X006676Y019096D01*
X006676Y019052D01*
X006503Y018879D01*
X006676Y018879D01*
X007139Y019268D02*
X007139Y019330D01*
X007169Y019360D01*
X007292Y019360D01*
X007323Y019391D01*
X007323Y019452D01*
X007261Y019452D01*
X007231Y019422D01*
X007231Y019176D01*
X007292Y019238D02*
X007169Y019238D01*
X007139Y019268D01*
X007489Y019506D02*
X007520Y019476D01*
X007550Y019506D01*
X007520Y019537D01*
X007489Y019506D01*
X007342Y019654D02*
X007526Y019715D01*
X007403Y019838D02*
X007342Y019654D01*
X007256Y019862D02*
X007134Y019985D01*
X007164Y020015D02*
X007226Y020015D01*
X007287Y019954D01*
X007287Y019893D01*
X007256Y019862D01*
X007164Y019831D02*
X007103Y019893D01*
X007103Y019954D01*
X007164Y020015D01*
X007113Y020127D02*
X007083Y020158D01*
X006960Y020158D01*
X006899Y020097D02*
X007021Y020219D01*
X007241Y020343D02*
X007241Y020404D01*
X007241Y020343D02*
X007302Y020282D01*
X007364Y020282D01*
X007394Y020312D01*
X007394Y020374D01*
X007333Y020435D01*
X007333Y020496D01*
X007364Y020527D01*
X007425Y020527D01*
X007486Y020466D01*
X007486Y020404D01*
X007511Y020257D02*
X007633Y020135D01*
X007719Y020049D02*
X007811Y019957D01*
X007811Y019896D01*
X007780Y019865D01*
X007719Y019865D01*
X007658Y019926D01*
X007658Y019988D01*
X007719Y020049D01*
X007842Y020049D01*
X007934Y020018D01*
X007927Y019841D02*
X008050Y019718D01*
X008136Y019632D02*
X008258Y019510D01*
X008375Y019455D02*
X008375Y019393D01*
X008436Y019332D01*
X008436Y019271D01*
X008405Y019240D01*
X008344Y019240D01*
X008283Y019301D01*
X008283Y019363D01*
X008375Y019455D02*
X008405Y019485D01*
X008467Y019485D01*
X008528Y019424D01*
X008528Y019363D01*
X008644Y019308D02*
X008460Y019123D01*
X008522Y019185D02*
X008614Y019093D01*
X008675Y019093D01*
X008736Y019154D01*
X008736Y019215D01*
X008644Y019308D01*
X008853Y019099D02*
X008914Y019038D01*
X008883Y019068D02*
X008699Y018884D01*
X008669Y018915D02*
X008730Y018854D01*
X008390Y018912D02*
X008390Y018973D01*
X008329Y019035D01*
X008267Y019035D01*
X008145Y018912D01*
X008390Y018912D01*
X008267Y018789D01*
X008206Y018789D01*
X008145Y018851D01*
X008145Y018912D01*
X008071Y018986D02*
X008041Y018955D01*
X008010Y018986D01*
X008041Y019016D01*
X008071Y018986D01*
X007924Y019071D02*
X007802Y019194D01*
X007863Y019133D02*
X008047Y019317D01*
X007924Y019317D01*
X007927Y019657D02*
X008111Y019841D01*
X007927Y019841D01*
X008244Y020074D02*
X008244Y020196D01*
X008275Y020166D02*
X008183Y020258D01*
X008121Y020196D02*
X008305Y020380D01*
X008397Y020288D01*
X008397Y020227D01*
X008336Y020166D01*
X008275Y020166D01*
X008330Y019988D02*
X008575Y019988D01*
X008606Y020019D01*
X008606Y020080D01*
X008544Y020141D01*
X008483Y020141D01*
X008330Y019988D02*
X008452Y019865D01*
X008044Y020274D02*
X007982Y020335D01*
X008013Y020305D02*
X008197Y020489D01*
X008166Y020519D02*
X008228Y020458D01*
X007309Y020643D02*
X007125Y020459D01*
X007217Y020551D02*
X007094Y020674D01*
X007002Y020582D02*
X007186Y020766D01*
X006615Y020679D02*
X006528Y020679D01*
X006667Y020108D02*
X006790Y019986D01*
X006845Y019869D02*
X006722Y019747D01*
X006722Y019685D01*
X006783Y019624D01*
X006845Y019624D01*
X006967Y019747D02*
X006967Y019808D01*
X006906Y019869D01*
X006845Y019869D01*
X006636Y019955D02*
X006575Y020016D01*
X006483Y019924D02*
X006667Y020108D01*
X007770Y019005D02*
X007831Y018944D01*
X007801Y018974D02*
X007647Y018821D01*
X007586Y018821D01*
X007555Y018852D01*
X007555Y018913D01*
X007733Y018674D02*
X007917Y018858D01*
X008009Y018766D01*
X008009Y018705D01*
X007948Y018643D01*
X007886Y018643D01*
X007794Y018735D01*
X007941Y018466D02*
X008125Y018650D01*
X008064Y018343D01*
X008248Y018527D01*
X009183Y018958D02*
X009227Y018914D01*
X009314Y018914D01*
X009357Y018958D01*
X009478Y018914D02*
X009652Y018914D01*
X009565Y018914D02*
X009565Y019174D01*
X009478Y019088D01*
X009357Y019131D02*
X009314Y019174D01*
X009227Y019174D01*
X009183Y019131D01*
X009183Y018958D01*
X009517Y017355D02*
X009517Y017138D01*
X009561Y017095D01*
X009647Y017095D01*
X009691Y017138D01*
X009691Y017355D01*
X009812Y017312D02*
X009855Y017355D01*
X009942Y017355D01*
X009985Y017312D01*
X009985Y017268D01*
X009812Y017095D01*
X009985Y017095D01*
X009635Y016566D02*
X009635Y016392D01*
X009461Y016566D01*
X009418Y016566D01*
X009375Y016522D01*
X009375Y016435D01*
X009418Y016392D01*
X009418Y016271D02*
X009375Y016228D01*
X009375Y016141D01*
X009418Y016097D01*
X009592Y016097D01*
X009635Y016141D01*
X009635Y016228D01*
X009592Y016271D01*
X008567Y015401D02*
X008567Y015314D01*
X008524Y015271D01*
X008524Y015150D02*
X008567Y015106D01*
X008567Y015019D01*
X008524Y014976D01*
X008350Y014976D01*
X008307Y015019D01*
X008307Y015106D01*
X008350Y015150D01*
X008350Y015271D02*
X008307Y015314D01*
X008307Y015401D01*
X008350Y015444D01*
X008394Y015444D01*
X008437Y015401D01*
X008480Y015444D01*
X008524Y015444D01*
X008567Y015401D01*
X008437Y015401D02*
X008437Y015357D01*
X008158Y015401D02*
X007898Y015401D01*
X008028Y015271D01*
X008028Y015444D01*
X008115Y015150D02*
X008158Y015106D01*
X008158Y015019D01*
X008115Y014976D01*
X007941Y014976D01*
X007898Y015019D01*
X007898Y015106D01*
X007941Y015150D01*
X006251Y018879D02*
X006208Y018922D01*
X012951Y017409D02*
X013069Y017464D01*
X013126Y017443D01*
X013163Y017364D01*
X013142Y017307D01*
X013024Y017252D01*
X013103Y017288D02*
X013218Y017247D01*
X013309Y017337D02*
X013367Y017316D01*
X013446Y017353D01*
X013467Y017410D01*
X013448Y017450D01*
X013391Y017471D01*
X013273Y017416D01*
X013309Y017337D01*
X013273Y017416D02*
X013315Y017531D01*
X013375Y017607D01*
X012951Y017409D02*
X013061Y017173D01*
X014134Y016817D02*
X014134Y016556D01*
X014134Y016687D02*
X014221Y016687D01*
X014307Y016817D02*
X014134Y016817D01*
X014429Y016687D02*
X014429Y016600D01*
X014472Y016556D01*
X014559Y016556D01*
X014602Y016600D01*
X014602Y016687D01*
X014559Y016730D01*
X014472Y016730D01*
X014429Y016687D01*
X014723Y016730D02*
X014723Y016556D01*
X014723Y016643D02*
X014810Y016730D01*
X014853Y016730D01*
X014897Y016401D02*
X014897Y016184D01*
X014853Y016140D01*
X014767Y016140D01*
X014723Y016184D01*
X014723Y016401D01*
X015018Y016271D02*
X015061Y016314D01*
X015191Y016314D01*
X015148Y016227D02*
X015191Y016184D01*
X015148Y016140D01*
X015018Y016140D01*
X015061Y016227D02*
X015018Y016271D01*
X015061Y016227D02*
X015148Y016227D01*
X015313Y016227D02*
X015486Y016227D01*
X015486Y016271D01*
X015443Y016314D01*
X015356Y016314D01*
X015313Y016271D01*
X015313Y016184D01*
X015356Y016140D01*
X015443Y016140D01*
X015437Y016556D02*
X015350Y016643D01*
X015394Y016643D02*
X015263Y016643D01*
X015263Y016556D02*
X015263Y016817D01*
X015394Y016817D01*
X015437Y016773D01*
X015437Y016687D01*
X015394Y016643D01*
X015558Y016643D02*
X015732Y016643D01*
X015732Y016687D01*
X015688Y016730D01*
X015601Y016730D01*
X015558Y016687D01*
X015558Y016600D01*
X015601Y016556D01*
X015688Y016556D01*
X015853Y016556D02*
X015983Y016556D01*
X016026Y016600D01*
X015983Y016643D01*
X015896Y016643D01*
X015853Y016687D01*
X015896Y016730D01*
X016026Y016730D01*
X016147Y016687D02*
X016191Y016730D01*
X016277Y016730D01*
X016321Y016687D01*
X016321Y016643D01*
X016147Y016643D01*
X016147Y016600D02*
X016147Y016687D01*
X016147Y016600D02*
X016191Y016556D01*
X016277Y016556D01*
X016442Y016600D02*
X016485Y016643D01*
X016616Y016643D01*
X016616Y016687D02*
X016616Y016556D01*
X016485Y016556D01*
X016442Y016600D01*
X016485Y016730D02*
X016572Y016730D01*
X016616Y016687D01*
X016737Y016730D02*
X016737Y016556D01*
X016737Y016643D02*
X016823Y016730D01*
X016867Y016730D01*
X016982Y016687D02*
X016982Y016600D01*
X017026Y016556D01*
X017156Y016556D01*
X017277Y016556D02*
X017277Y016817D01*
X017320Y016730D02*
X017407Y016730D01*
X017450Y016687D01*
X017450Y016556D01*
X017277Y016687D02*
X017320Y016730D01*
X017156Y016730D02*
X017026Y016730D01*
X016982Y016687D01*
X016861Y016314D02*
X016861Y016097D01*
X016818Y016054D01*
X016774Y016054D01*
X016731Y016140D02*
X016861Y016140D01*
X016731Y016140D02*
X016688Y016184D01*
X016688Y016314D01*
X016535Y016401D02*
X016535Y016140D01*
X016578Y016140D02*
X016491Y016140D01*
X016370Y016140D02*
X016370Y016271D01*
X016327Y016314D01*
X016196Y016314D01*
X016196Y016140D01*
X016075Y016184D02*
X016075Y016357D01*
X016032Y016401D01*
X015945Y016401D01*
X015902Y016357D01*
X015902Y016184D01*
X015945Y016140D01*
X016032Y016140D01*
X016075Y016184D01*
X016491Y016401D02*
X016535Y016401D01*
X016946Y015697D02*
X017076Y015697D01*
X017119Y015654D01*
X017119Y015567D01*
X017076Y015524D01*
X016946Y015524D01*
X017033Y015524D02*
X017119Y015437D01*
X017241Y015437D02*
X017414Y015611D01*
X017414Y015654D01*
X017371Y015697D01*
X017284Y015697D01*
X017241Y015654D01*
X017241Y015437D02*
X017414Y015437D01*
X016946Y015437D02*
X016946Y015697D01*
X016658Y015516D02*
X016658Y015473D01*
X016615Y015429D01*
X016658Y015386D01*
X016658Y015343D01*
X016615Y015299D01*
X016528Y015299D01*
X016485Y015343D01*
X016571Y015429D02*
X016615Y015429D01*
X016658Y015516D02*
X016615Y015560D01*
X016528Y015560D01*
X016485Y015516D01*
X016363Y015516D02*
X016363Y015429D01*
X016320Y015386D01*
X016190Y015386D01*
X016190Y015299D02*
X016190Y015560D01*
X016320Y015560D01*
X016363Y015516D01*
X016277Y015386D02*
X016363Y015299D01*
X015811Y015452D02*
X015637Y015452D01*
X015767Y015582D01*
X015767Y015322D01*
X015516Y015322D02*
X015429Y015408D01*
X015473Y015408D02*
X015342Y015408D01*
X015342Y015322D02*
X015342Y015582D01*
X015473Y015582D01*
X015516Y015539D01*
X015516Y015452D01*
X015473Y015408D01*
X015005Y015521D02*
X014821Y015337D01*
X014760Y015398D02*
X014882Y015275D01*
X014882Y015521D02*
X015005Y015521D01*
X014827Y015637D02*
X014766Y015576D01*
X014705Y015576D01*
X014613Y015668D01*
X014674Y015606D02*
X014674Y015484D01*
X014551Y015606D02*
X014735Y015790D01*
X014827Y015698D01*
X014827Y015637D01*
X014658Y015868D02*
X014596Y015929D01*
X014627Y015899D02*
X014443Y015715D01*
X014412Y015745D02*
X014474Y015684D01*
X015084Y017192D02*
X015171Y017192D01*
X015215Y017236D01*
X015336Y017236D02*
X015336Y017192D01*
X015336Y017236D02*
X015509Y017409D01*
X015509Y017453D01*
X015336Y017453D01*
X015215Y017409D02*
X015171Y017453D01*
X015084Y017453D01*
X015041Y017409D01*
X015041Y017236D01*
X015084Y017192D01*
X016251Y018879D02*
X016295Y018879D01*
X016338Y018922D01*
X016338Y019139D01*
X016295Y019139D02*
X016382Y019139D01*
X016503Y019096D02*
X016546Y019139D01*
X016633Y019139D01*
X016676Y019096D01*
X016676Y019052D01*
X016503Y018879D01*
X016676Y018879D01*
X016251Y018879D02*
X016208Y018922D01*
X016783Y019624D02*
X016845Y019624D01*
X016783Y019624D02*
X016722Y019685D01*
X016722Y019747D01*
X016845Y019869D01*
X016906Y019869D01*
X016967Y019808D01*
X016967Y019747D01*
X017103Y019893D02*
X017103Y019954D01*
X017164Y020015D01*
X017226Y020015D01*
X017287Y019954D01*
X017287Y019893D01*
X017256Y019862D01*
X017134Y019985D01*
X017103Y019893D02*
X017164Y019831D01*
X017403Y019838D02*
X017342Y019654D01*
X017526Y019715D01*
X017520Y019537D02*
X017550Y019506D01*
X017520Y019476D01*
X017489Y019506D01*
X017520Y019537D01*
X017323Y019452D02*
X017261Y019452D01*
X017231Y019422D01*
X017231Y019176D01*
X017292Y019238D02*
X017169Y019238D01*
X017139Y019268D01*
X017139Y019330D01*
X017169Y019360D01*
X017292Y019360D01*
X017323Y019391D01*
X017323Y019452D01*
X017802Y019194D02*
X017924Y019071D01*
X017863Y019133D02*
X018047Y019317D01*
X017924Y019317D01*
X018041Y019016D02*
X018071Y018986D01*
X018041Y018955D01*
X018010Y018986D01*
X018041Y019016D01*
X018145Y018912D02*
X018390Y018912D01*
X018267Y018789D01*
X018206Y018789D01*
X018145Y018851D01*
X018145Y018912D01*
X018267Y019035D01*
X018329Y019035D01*
X018390Y018973D01*
X018390Y018912D01*
X018460Y019123D02*
X018644Y019308D01*
X018736Y019215D01*
X018736Y019154D01*
X018675Y019093D01*
X018614Y019093D01*
X018522Y019185D01*
X018436Y019271D02*
X018436Y019332D01*
X018375Y019393D01*
X018375Y019455D01*
X018405Y019485D01*
X018467Y019485D01*
X018528Y019424D01*
X018528Y019363D01*
X018436Y019271D02*
X018405Y019240D01*
X018344Y019240D01*
X018283Y019301D01*
X018283Y019363D01*
X018258Y019510D02*
X018136Y019632D01*
X018050Y019718D02*
X017927Y019841D01*
X018111Y019841D01*
X017927Y019657D01*
X017780Y019865D02*
X017811Y019896D01*
X017811Y019957D01*
X017719Y020049D01*
X017658Y019988D01*
X017658Y019926D01*
X017719Y019865D01*
X017780Y019865D01*
X017719Y020049D02*
X017842Y020049D01*
X017934Y020018D01*
X018121Y020196D02*
X018305Y020380D01*
X018397Y020288D01*
X018397Y020227D01*
X018336Y020166D01*
X018275Y020166D01*
X018183Y020258D01*
X018244Y020196D02*
X018244Y020074D01*
X018330Y019988D02*
X018575Y019988D01*
X018606Y020019D01*
X018606Y020080D01*
X018544Y020141D01*
X018483Y020141D01*
X018330Y019988D02*
X018452Y019865D01*
X018044Y020274D02*
X017982Y020335D01*
X018013Y020305D02*
X018197Y020489D01*
X018166Y020519D02*
X018228Y020458D01*
X017633Y020135D02*
X017511Y020257D01*
X017394Y020312D02*
X017364Y020282D01*
X017302Y020282D01*
X017241Y020343D01*
X017241Y020404D01*
X017333Y020435D02*
X017394Y020374D01*
X017394Y020312D01*
X017486Y020404D02*
X017486Y020466D01*
X017425Y020527D01*
X017364Y020527D01*
X017333Y020496D01*
X017333Y020435D01*
X017217Y020551D02*
X017094Y020674D01*
X017002Y020582D02*
X017186Y020766D01*
X017309Y020643D02*
X017125Y020459D01*
X017021Y020219D02*
X016899Y020097D01*
X016960Y020158D02*
X017083Y020158D01*
X017113Y020127D01*
X016790Y019986D02*
X016667Y020108D01*
X016483Y019924D01*
X016575Y020016D02*
X016636Y019955D01*
X016528Y020549D02*
X016528Y020809D01*
X016702Y020809D01*
X016615Y020679D02*
X016528Y020679D01*
X016407Y020549D02*
X016233Y020549D01*
X016233Y020809D01*
X016407Y020809D01*
X016320Y020679D02*
X016233Y020679D01*
X016112Y020679D02*
X016112Y020766D01*
X016069Y020809D01*
X015939Y020809D01*
X015939Y020549D01*
X015939Y020636D02*
X016069Y020636D01*
X016112Y020679D01*
X016025Y020636D02*
X016112Y020549D01*
X015736Y021016D02*
X015780Y021060D01*
X015780Y021233D01*
X015736Y021277D01*
X015606Y021277D01*
X015606Y021016D01*
X015736Y021016D01*
X015485Y021016D02*
X015485Y021277D01*
X015311Y021277D02*
X015485Y021016D01*
X015311Y021016D02*
X015311Y021277D01*
X015190Y021233D02*
X015147Y021277D01*
X015060Y021277D01*
X015017Y021233D01*
X015017Y021060D01*
X015060Y021016D01*
X015147Y021016D01*
X015190Y021060D01*
X015190Y021147D01*
X015104Y021147D01*
X015078Y020052D02*
X015078Y019879D01*
X015078Y019966D02*
X014818Y019966D01*
X014905Y019879D01*
X014948Y019758D02*
X014992Y019714D01*
X014992Y019584D01*
X015078Y019584D02*
X014818Y019584D01*
X014818Y019714D01*
X014862Y019758D01*
X014948Y019758D01*
X014992Y019671D02*
X015078Y019758D01*
X014149Y019862D02*
X014062Y019949D01*
X013889Y019949D01*
X013889Y020070D02*
X013889Y020200D01*
X013932Y020243D01*
X014106Y020243D01*
X014149Y020200D01*
X014149Y020070D01*
X013889Y020070D01*
X013889Y020365D02*
X013889Y020495D01*
X013932Y020538D01*
X014106Y020538D01*
X014149Y020495D01*
X014149Y020365D01*
X013889Y020365D01*
X014149Y019862D02*
X014062Y019775D01*
X013889Y019775D01*
X016693Y021091D02*
X016737Y021213D01*
X016793Y021239D01*
X016874Y021210D01*
X016900Y021154D01*
X016856Y021032D01*
X016885Y021113D02*
X016997Y021165D01*
X016997Y021294D02*
X017053Y021320D01*
X017083Y021401D01*
X017057Y021457D01*
X016975Y021487D01*
X016920Y021461D01*
X016905Y021420D01*
X016916Y021324D01*
X016794Y021368D01*
X016853Y021531D01*
X016693Y021091D02*
X016937Y021002D01*
X017770Y019005D02*
X017831Y018944D01*
X017801Y018974D02*
X017647Y018821D01*
X017586Y018821D01*
X017555Y018852D01*
X017555Y018913D01*
X017733Y018674D02*
X017917Y018858D01*
X018009Y018766D01*
X018009Y018705D01*
X017948Y018643D01*
X017886Y018643D01*
X017794Y018735D01*
X017941Y018466D02*
X018125Y018650D01*
X018064Y018343D01*
X018248Y018527D01*
X018669Y018915D02*
X018730Y018854D01*
X018699Y018884D02*
X018883Y019068D01*
X018853Y019099D02*
X018914Y019038D01*
X019183Y018958D02*
X019227Y018914D01*
X019314Y018914D01*
X019357Y018958D01*
X019478Y018914D02*
X019652Y018914D01*
X019565Y018914D02*
X019565Y019174D01*
X019478Y019088D01*
X019357Y019131D02*
X019314Y019174D01*
X019227Y019174D01*
X019183Y019131D01*
X019183Y018958D01*
X019517Y017355D02*
X019517Y017138D01*
X019561Y017095D01*
X019647Y017095D01*
X019691Y017138D01*
X019691Y017355D01*
X019812Y017312D02*
X019855Y017355D01*
X019942Y017355D01*
X019985Y017312D01*
X019985Y017268D01*
X019812Y017095D01*
X019985Y017095D01*
X019635Y016566D02*
X019635Y016392D01*
X019461Y016566D01*
X019418Y016566D01*
X019375Y016522D01*
X019375Y016435D01*
X019418Y016392D01*
X019418Y016271D02*
X019375Y016228D01*
X019375Y016141D01*
X019418Y016097D01*
X019592Y016097D01*
X019635Y016141D01*
X019635Y016228D01*
X019592Y016271D01*
X018567Y015401D02*
X018567Y015314D01*
X018524Y015271D01*
X018524Y015150D02*
X018567Y015106D01*
X018567Y015019D01*
X018524Y014976D01*
X018350Y014976D01*
X018307Y015019D01*
X018307Y015106D01*
X018350Y015150D01*
X018350Y015271D02*
X018307Y015314D01*
X018307Y015401D01*
X018350Y015444D01*
X018394Y015444D01*
X018437Y015401D01*
X018480Y015444D01*
X018524Y015444D01*
X018567Y015401D01*
X018437Y015401D02*
X018437Y015357D01*
X018158Y015401D02*
X017898Y015401D01*
X018028Y015271D01*
X018028Y015444D01*
X018115Y015150D02*
X018158Y015106D01*
X018158Y015019D01*
X018115Y014976D01*
X017941Y014976D01*
X017898Y015019D01*
X017898Y015106D01*
X017941Y015150D01*
D17*
X029186Y012698D02*
X029188Y012742D01*
X029194Y012786D01*
X029204Y012830D01*
X029217Y012872D01*
X029234Y012913D01*
X029255Y012952D01*
X029279Y012989D01*
X029307Y013024D01*
X029337Y013057D01*
X029370Y013086D01*
X029406Y013113D01*
X029443Y013136D01*
X029483Y013156D01*
X029524Y013173D01*
X029567Y013185D01*
X029611Y013194D01*
X029655Y013199D01*
X029699Y013200D01*
X029743Y013197D01*
X029787Y013190D01*
X029830Y013179D01*
X029872Y013165D01*
X029913Y013147D01*
X029952Y013125D01*
X029988Y013100D01*
X030023Y013072D01*
X030055Y013041D01*
X030083Y013007D01*
X030109Y012971D01*
X030132Y012933D01*
X030151Y012893D01*
X030166Y012851D01*
X030178Y012808D01*
X030186Y012764D01*
X030190Y012720D01*
X030190Y012676D01*
X030186Y012632D01*
X030178Y012588D01*
X030166Y012545D01*
X030151Y012503D01*
X030132Y012463D01*
X030109Y012425D01*
X030083Y012389D01*
X030055Y012355D01*
X030023Y012324D01*
X029988Y012296D01*
X029952Y012271D01*
X029913Y012249D01*
X029872Y012231D01*
X029830Y012217D01*
X029787Y012206D01*
X029743Y012199D01*
X029699Y012196D01*
X029655Y012197D01*
X029611Y012202D01*
X029567Y012211D01*
X029524Y012223D01*
X029483Y012240D01*
X029443Y012260D01*
X029406Y012283D01*
X029370Y012310D01*
X029337Y012339D01*
X029307Y012372D01*
X029279Y012407D01*
X029255Y012444D01*
X029234Y012483D01*
X029217Y012524D01*
X029204Y012566D01*
X029194Y012610D01*
X029188Y012654D01*
X029186Y012698D01*
X028004Y032777D02*
X028006Y032821D01*
X028012Y032865D01*
X028022Y032909D01*
X028035Y032951D01*
X028052Y032992D01*
X028073Y033031D01*
X028097Y033068D01*
X028125Y033103D01*
X028155Y033136D01*
X028188Y033165D01*
X028224Y033192D01*
X028261Y033215D01*
X028301Y033235D01*
X028342Y033252D01*
X028385Y033264D01*
X028429Y033273D01*
X028473Y033278D01*
X028517Y033279D01*
X028561Y033276D01*
X028605Y033269D01*
X028648Y033258D01*
X028690Y033244D01*
X028731Y033226D01*
X028770Y033204D01*
X028806Y033179D01*
X028841Y033151D01*
X028873Y033120D01*
X028901Y033086D01*
X028927Y033050D01*
X028950Y033012D01*
X028969Y032972D01*
X028984Y032930D01*
X028996Y032887D01*
X029004Y032843D01*
X029008Y032799D01*
X029008Y032755D01*
X029004Y032711D01*
X028996Y032667D01*
X028984Y032624D01*
X028969Y032582D01*
X028950Y032542D01*
X028927Y032504D01*
X028901Y032468D01*
X028873Y032434D01*
X028841Y032403D01*
X028806Y032375D01*
X028770Y032350D01*
X028731Y032328D01*
X028690Y032310D01*
X028648Y032296D01*
X028605Y032285D01*
X028561Y032278D01*
X028517Y032275D01*
X028473Y032276D01*
X028429Y032281D01*
X028385Y032290D01*
X028342Y032302D01*
X028301Y032319D01*
X028261Y032339D01*
X028224Y032362D01*
X028188Y032389D01*
X028155Y032418D01*
X028125Y032451D01*
X028097Y032486D01*
X028073Y032523D01*
X028052Y032562D01*
X028035Y032603D01*
X028022Y032645D01*
X028012Y032689D01*
X028006Y032733D01*
X028004Y032777D01*
X001627Y004824D02*
X001629Y004868D01*
X001635Y004912D01*
X001645Y004956D01*
X001658Y004998D01*
X001675Y005039D01*
X001696Y005078D01*
X001720Y005115D01*
X001748Y005150D01*
X001778Y005183D01*
X001811Y005212D01*
X001847Y005239D01*
X001884Y005262D01*
X001924Y005282D01*
X001965Y005299D01*
X002008Y005311D01*
X002052Y005320D01*
X002096Y005325D01*
X002140Y005326D01*
X002184Y005323D01*
X002228Y005316D01*
X002271Y005305D01*
X002313Y005291D01*
X002354Y005273D01*
X002393Y005251D01*
X002429Y005226D01*
X002464Y005198D01*
X002496Y005167D01*
X002524Y005133D01*
X002550Y005097D01*
X002573Y005059D01*
X002592Y005019D01*
X002607Y004977D01*
X002619Y004934D01*
X002627Y004890D01*
X002631Y004846D01*
X002631Y004802D01*
X002627Y004758D01*
X002619Y004714D01*
X002607Y004671D01*
X002592Y004629D01*
X002573Y004589D01*
X002550Y004551D01*
X002524Y004515D01*
X002496Y004481D01*
X002464Y004450D01*
X002429Y004422D01*
X002393Y004397D01*
X002354Y004375D01*
X002313Y004357D01*
X002271Y004343D01*
X002228Y004332D01*
X002184Y004325D01*
X002140Y004322D01*
X002096Y004323D01*
X002052Y004328D01*
X002008Y004337D01*
X001965Y004349D01*
X001924Y004366D01*
X001884Y004386D01*
X001847Y004409D01*
X001811Y004436D01*
X001778Y004465D01*
X001748Y004498D01*
X001720Y004533D01*
X001696Y004570D01*
X001675Y004609D01*
X001658Y004650D01*
X001645Y004692D01*
X001635Y004736D01*
X001629Y004780D01*
X001627Y004824D01*
D18*
X009130Y007973D03*
X009130Y017973D03*
X009130Y027973D03*
X019130Y027973D03*
X019130Y017973D03*
X019130Y007973D03*
X029130Y007973D03*
X029130Y017973D03*
X029130Y027973D03*
D19*
X028870Y030243D02*
X028835Y030279D01*
X028870Y030314D01*
X028764Y030349D01*
X028729Y030385D01*
X028764Y030349D02*
X028799Y030243D01*
X028835Y030279D01*
X024190Y025634D02*
X024084Y025669D01*
X024049Y025705D01*
X024084Y025669D02*
X024119Y025563D01*
X024155Y025599D01*
X024190Y025563D01*
X024155Y025599D02*
X024190Y025634D01*
X028729Y020385D02*
X028764Y020349D01*
X028870Y020314D01*
X028835Y020279D01*
X028870Y020243D01*
X028835Y020279D02*
X028799Y020243D01*
X028764Y020349D01*
X024190Y015634D02*
X024084Y015669D01*
X024049Y015705D01*
X024084Y015669D02*
X024119Y015563D01*
X024155Y015599D01*
X024190Y015563D01*
X024155Y015599D02*
X024190Y015634D01*
X028729Y010385D02*
X028764Y010349D01*
X028870Y010314D01*
X028835Y010279D01*
X028870Y010243D01*
X028835Y010279D02*
X028799Y010243D01*
X028764Y010349D01*
X024190Y005634D02*
X024084Y005669D01*
X024049Y005705D01*
X024084Y005669D02*
X024119Y005563D01*
X024155Y005599D01*
X024190Y005563D01*
X024155Y005599D02*
X024190Y005634D01*
X018870Y010243D02*
X018835Y010279D01*
X018870Y010314D01*
X018764Y010349D01*
X018729Y010385D01*
X018764Y010349D02*
X018799Y010243D01*
X018835Y010279D01*
X014190Y005634D02*
X014084Y005669D01*
X014049Y005705D01*
X014084Y005669D02*
X014119Y005563D01*
X014155Y005599D01*
X014190Y005563D01*
X014155Y005599D02*
X014190Y005634D01*
X008870Y010243D02*
X008835Y010279D01*
X008870Y010314D01*
X008764Y010349D01*
X008729Y010385D01*
X008764Y010349D02*
X008799Y010243D01*
X008835Y010279D01*
X004190Y005634D02*
X004084Y005669D01*
X004049Y005705D01*
X004084Y005669D02*
X004119Y005563D01*
X004155Y005599D01*
X004190Y005563D01*
X004155Y005599D02*
X004190Y005634D01*
X004190Y015563D02*
X004155Y015599D01*
X004190Y015634D01*
X004084Y015669D01*
X004049Y015705D01*
X004084Y015669D02*
X004119Y015563D01*
X004155Y015599D01*
X008799Y020243D02*
X008835Y020279D01*
X008870Y020243D01*
X008835Y020279D02*
X008870Y020314D01*
X008764Y020349D01*
X008729Y020385D01*
X008764Y020349D02*
X008799Y020243D01*
X004190Y025563D02*
X004155Y025599D01*
X004190Y025634D01*
X004084Y025669D01*
X004049Y025705D01*
X004084Y025669D02*
X004119Y025563D01*
X004155Y025599D01*
X008799Y030243D02*
X008835Y030279D01*
X008870Y030243D01*
X008835Y030279D02*
X008870Y030314D01*
X008764Y030349D01*
X008729Y030385D01*
X008764Y030349D02*
X008799Y030243D01*
X014049Y025705D02*
X014084Y025669D01*
X014190Y025634D01*
X014155Y025599D01*
X014190Y025563D01*
X014155Y025599D02*
X014119Y025563D01*
X014084Y025669D01*
X018799Y030243D02*
X018835Y030279D01*
X018870Y030243D01*
X018835Y030279D02*
X018870Y030314D01*
X018764Y030349D01*
X018729Y030385D01*
X018764Y030349D02*
X018799Y030243D01*
X018729Y020385D02*
X018764Y020349D01*
X018870Y020314D01*
X018835Y020279D01*
X018870Y020243D01*
X018835Y020279D02*
X018799Y020243D01*
X018764Y020349D01*
X014190Y015634D02*
X014084Y015669D01*
X014049Y015705D01*
X014084Y015669D02*
X014119Y015563D01*
X014155Y015599D01*
X014190Y015563D01*
X014155Y015599D02*
X014190Y015634D01*
M02*
