G75*
%MOIN*%
%OFA0B0*%
%FSLAX25Y25*%
%IPPOS*%
%LPD*%
%AMOC8*
5,1,8,0,0,1.08239X$1,22.5*
%
%ADD10C,0.00000*%
%ADD11C,0.00004*%
D10*
X0001600Y0001000D02*
X0001600Y0356118D01*
X0328372Y0356118D01*
X0328372Y0001000D01*
X0001600Y0001000D01*
X0027584Y0074228D02*
X0027731Y0073322D01*
X0027899Y0072420D01*
X0028090Y0071522D01*
X0028302Y0070629D01*
X0028537Y0069741D01*
X0028793Y0068860D01*
X0029071Y0067985D01*
X0029370Y0067117D01*
X0029690Y0066257D01*
X0030031Y0065405D01*
X0030393Y0064561D01*
X0030776Y0063727D01*
X0031179Y0062902D01*
X0031602Y0062088D01*
X0032045Y0061284D01*
X0032507Y0060491D01*
X0032989Y0059709D01*
X0033490Y0058940D01*
X0034010Y0058183D01*
X0034548Y0057440D01*
X0035104Y0056709D01*
X0035678Y0055993D01*
X0036269Y0055291D01*
X0036877Y0054603D01*
X0037502Y0053931D01*
X0038143Y0053274D01*
X0038801Y0052633D01*
X0039473Y0052009D01*
X0040161Y0051401D01*
X0040864Y0050810D01*
X0041581Y0050237D01*
X0042311Y0049681D01*
X0043055Y0049144D01*
X0043812Y0048625D01*
X0044582Y0048124D01*
X0045363Y0047643D01*
X0046157Y0047181D01*
X0046961Y0046738D01*
X0047776Y0046316D01*
X0048601Y0045913D01*
X0049435Y0045531D01*
X0050279Y0045170D01*
X0051131Y0044829D01*
X0051992Y0044509D01*
X0052860Y0044211D01*
X0053735Y0043934D01*
X0054617Y0043678D01*
X0055504Y0043444D01*
X0056397Y0043232D01*
X0057295Y0043042D01*
X0058198Y0042874D01*
X0059104Y0042729D01*
X0060014Y0042605D01*
X0060926Y0042504D01*
X0061841Y0042425D01*
X0062757Y0042369D01*
X0063674Y0042335D01*
X0064592Y0042324D01*
X0065510Y0042335D01*
X0066427Y0042369D01*
X0067343Y0042425D01*
X0068258Y0042504D01*
X0069170Y0042605D01*
X0070080Y0042729D01*
X0070986Y0042874D01*
X0071889Y0043042D01*
X0072787Y0043232D01*
X0073680Y0043444D01*
X0074567Y0043678D01*
X0075449Y0043934D01*
X0076324Y0044211D01*
X0077192Y0044509D01*
X0078053Y0044829D01*
X0078905Y0045170D01*
X0079749Y0045531D01*
X0080583Y0045913D01*
X0081408Y0046316D01*
X0082223Y0046738D01*
X0083027Y0047181D01*
X0083821Y0047643D01*
X0084602Y0048124D01*
X0085372Y0048625D01*
X0086129Y0049144D01*
X0086873Y0049681D01*
X0087603Y0050237D01*
X0088320Y0050810D01*
X0089023Y0051401D01*
X0089711Y0052009D01*
X0090383Y0052633D01*
X0091041Y0053274D01*
X0091682Y0053931D01*
X0092307Y0054603D01*
X0092915Y0055291D01*
X0093506Y0055993D01*
X0094080Y0056709D01*
X0094636Y0057440D01*
X0095174Y0058183D01*
X0095694Y0058940D01*
X0096195Y0059709D01*
X0096677Y0060491D01*
X0097139Y0061284D01*
X0097582Y0062088D01*
X0098005Y0062902D01*
X0098408Y0063727D01*
X0098791Y0064561D01*
X0099153Y0065405D01*
X0099494Y0066257D01*
X0099814Y0067117D01*
X0100113Y0067985D01*
X0100391Y0068860D01*
X0100647Y0069741D01*
X0100882Y0070629D01*
X0101094Y0071522D01*
X0101285Y0072420D01*
X0101453Y0073322D01*
X0101600Y0074228D01*
X0071342Y0101490D02*
X0071342Y0114490D01*
X0071344Y0114571D01*
X0071349Y0114651D01*
X0071359Y0114732D01*
X0071372Y0114812D01*
X0071388Y0114891D01*
X0071409Y0114969D01*
X0071433Y0115046D01*
X0071460Y0115122D01*
X0071491Y0115197D01*
X0071525Y0115270D01*
X0071563Y0115342D01*
X0071604Y0115411D01*
X0071648Y0115479D01*
X0071695Y0115545D01*
X0071746Y0115608D01*
X0071799Y0115669D01*
X0071855Y0115727D01*
X0071913Y0115783D01*
X0071974Y0115836D01*
X0072037Y0115887D01*
X0072103Y0115934D01*
X0072171Y0115978D01*
X0072240Y0116019D01*
X0072312Y0116057D01*
X0072385Y0116091D01*
X0072460Y0116122D01*
X0072536Y0116149D01*
X0072613Y0116173D01*
X0072691Y0116194D01*
X0072770Y0116210D01*
X0072850Y0116223D01*
X0072931Y0116233D01*
X0073011Y0116238D01*
X0073092Y0116240D01*
X0071342Y0101490D02*
X0071340Y0101327D01*
X0071334Y0101164D01*
X0071324Y0101001D01*
X0071310Y0100839D01*
X0071293Y0100676D01*
X0071271Y0100515D01*
X0071246Y0100354D01*
X0071216Y0100193D01*
X0071183Y0100033D01*
X0071146Y0099875D01*
X0071105Y0099717D01*
X0071060Y0099560D01*
X0071012Y0099404D01*
X0070959Y0099250D01*
X0070903Y0099096D01*
X0070844Y0098945D01*
X0070780Y0098794D01*
X0070713Y0098646D01*
X0070643Y0098498D01*
X0070569Y0098353D01*
X0070491Y0098210D01*
X0070410Y0098068D01*
X0070326Y0097928D01*
X0070238Y0097791D01*
X0070147Y0097656D01*
X0070053Y0097522D01*
X0069955Y0097392D01*
X0069855Y0097263D01*
X0069751Y0097137D01*
X0069644Y0097014D01*
X0069535Y0096893D01*
X0069422Y0096775D01*
X0069307Y0096660D01*
X0069189Y0096547D01*
X0069068Y0096438D01*
X0068945Y0096331D01*
X0068819Y0096227D01*
X0068690Y0096127D01*
X0068560Y0096029D01*
X0068426Y0095935D01*
X0068291Y0095844D01*
X0068154Y0095756D01*
X0068014Y0095672D01*
X0067872Y0095591D01*
X0067729Y0095513D01*
X0067584Y0095439D01*
X0067436Y0095369D01*
X0067288Y0095302D01*
X0067137Y0095238D01*
X0066986Y0095179D01*
X0066832Y0095123D01*
X0066678Y0095070D01*
X0066522Y0095022D01*
X0066365Y0094977D01*
X0066207Y0094936D01*
X0066049Y0094899D01*
X0065889Y0094866D01*
X0065728Y0094836D01*
X0065567Y0094811D01*
X0065406Y0094789D01*
X0065243Y0094772D01*
X0065081Y0094758D01*
X0064918Y0094748D01*
X0064755Y0094742D01*
X0064592Y0094740D01*
X0064429Y0094742D01*
X0064266Y0094748D01*
X0064103Y0094758D01*
X0063941Y0094772D01*
X0063778Y0094789D01*
X0063617Y0094811D01*
X0063456Y0094836D01*
X0063295Y0094866D01*
X0063135Y0094899D01*
X0062977Y0094936D01*
X0062819Y0094977D01*
X0062662Y0095022D01*
X0062506Y0095070D01*
X0062352Y0095123D01*
X0062198Y0095179D01*
X0062047Y0095238D01*
X0061896Y0095302D01*
X0061748Y0095369D01*
X0061600Y0095439D01*
X0061455Y0095513D01*
X0061312Y0095591D01*
X0061170Y0095672D01*
X0061030Y0095756D01*
X0060893Y0095844D01*
X0060758Y0095935D01*
X0060624Y0096029D01*
X0060494Y0096127D01*
X0060365Y0096227D01*
X0060239Y0096331D01*
X0060116Y0096438D01*
X0059995Y0096547D01*
X0059877Y0096660D01*
X0059762Y0096775D01*
X0059649Y0096893D01*
X0059540Y0097014D01*
X0059433Y0097137D01*
X0059329Y0097263D01*
X0059229Y0097392D01*
X0059131Y0097522D01*
X0059037Y0097656D01*
X0058946Y0097791D01*
X0058858Y0097928D01*
X0058774Y0098068D01*
X0058693Y0098210D01*
X0058615Y0098353D01*
X0058541Y0098498D01*
X0058471Y0098646D01*
X0058404Y0098794D01*
X0058340Y0098945D01*
X0058281Y0099096D01*
X0058225Y0099250D01*
X0058172Y0099404D01*
X0058124Y0099560D01*
X0058079Y0099717D01*
X0058038Y0099875D01*
X0058001Y0100033D01*
X0057968Y0100193D01*
X0057938Y0100354D01*
X0057913Y0100515D01*
X0057891Y0100676D01*
X0057874Y0100839D01*
X0057860Y0101001D01*
X0057850Y0101164D01*
X0057844Y0101327D01*
X0057842Y0101490D01*
X0057842Y0114490D01*
X0057840Y0114571D01*
X0057835Y0114651D01*
X0057825Y0114732D01*
X0057812Y0114812D01*
X0057796Y0114891D01*
X0057775Y0114969D01*
X0057751Y0115046D01*
X0057724Y0115122D01*
X0057693Y0115197D01*
X0057659Y0115270D01*
X0057621Y0115342D01*
X0057580Y0115411D01*
X0057536Y0115479D01*
X0057489Y0115545D01*
X0057438Y0115608D01*
X0057385Y0115669D01*
X0057329Y0115727D01*
X0057271Y0115783D01*
X0057210Y0115836D01*
X0057147Y0115887D01*
X0057081Y0115934D01*
X0057013Y0115978D01*
X0056944Y0116019D01*
X0056872Y0116057D01*
X0056799Y0116091D01*
X0056724Y0116122D01*
X0056648Y0116149D01*
X0056571Y0116173D01*
X0056493Y0116194D01*
X0056414Y0116210D01*
X0056334Y0116223D01*
X0056253Y0116233D01*
X0056173Y0116238D01*
X0056092Y0116240D01*
X0055231Y0116052D01*
X0054374Y0115843D01*
X0053523Y0115614D01*
X0052677Y0115363D01*
X0051838Y0115092D01*
X0051006Y0114800D01*
X0050181Y0114488D01*
X0049364Y0114156D01*
X0048556Y0113804D01*
X0047756Y0113432D01*
X0046966Y0113041D01*
X0046185Y0112631D01*
X0045415Y0112201D01*
X0044656Y0111753D01*
X0043907Y0111287D01*
X0043171Y0110802D01*
X0042446Y0110299D01*
X0041734Y0109779D01*
X0041035Y0109241D01*
X0040350Y0108687D01*
X0039678Y0108115D01*
X0039020Y0107528D01*
X0038377Y0106925D01*
X0037749Y0106306D01*
X0037136Y0105671D01*
X0036539Y0105022D01*
X0035958Y0104359D01*
X0035394Y0103682D01*
X0034846Y0102991D01*
X0034315Y0102286D01*
X0033802Y0101569D01*
X0033306Y0100840D01*
X0032829Y0100098D01*
X0032370Y0099346D01*
X0031929Y0098582D01*
X0031507Y0097807D01*
X0031104Y0097023D01*
X0030721Y0096229D01*
X0030357Y0095425D01*
X0030013Y0094614D01*
X0029689Y0093793D01*
X0029385Y0092966D01*
X0029102Y0092131D01*
X0028839Y0091289D01*
X0028597Y0090441D01*
X0028375Y0089587D01*
X0028175Y0088729D01*
X0027995Y0087865D01*
X0027837Y0086998D01*
X0027700Y0086127D01*
X0027585Y0085252D01*
X0073093Y0116240D02*
X0073954Y0116052D01*
X0074811Y0115843D01*
X0075662Y0115614D01*
X0076508Y0115363D01*
X0077347Y0115092D01*
X0078179Y0114800D01*
X0079004Y0114488D01*
X0079821Y0114156D01*
X0080629Y0113804D01*
X0081429Y0113432D01*
X0082219Y0113041D01*
X0083000Y0112631D01*
X0083770Y0112201D01*
X0084529Y0111753D01*
X0085278Y0111287D01*
X0086014Y0110802D01*
X0086739Y0110299D01*
X0087451Y0109779D01*
X0088150Y0109241D01*
X0088835Y0108687D01*
X0089507Y0108115D01*
X0090165Y0107528D01*
X0090808Y0106925D01*
X0091436Y0106306D01*
X0092049Y0105671D01*
X0092646Y0105022D01*
X0093227Y0104359D01*
X0093791Y0103682D01*
X0094339Y0102991D01*
X0094870Y0102286D01*
X0095383Y0101569D01*
X0095879Y0100840D01*
X0096356Y0100098D01*
X0096815Y0099346D01*
X0097256Y0098582D01*
X0097678Y0097807D01*
X0098081Y0097023D01*
X0098464Y0096229D01*
X0098828Y0095425D01*
X0099172Y0094614D01*
X0099496Y0093793D01*
X0099800Y0092966D01*
X0100083Y0092131D01*
X0100346Y0091289D01*
X0100588Y0090441D01*
X0100810Y0089587D01*
X0101010Y0088729D01*
X0101190Y0087865D01*
X0101348Y0086998D01*
X0101485Y0086127D01*
X0101600Y0085252D01*
X0157842Y0101490D02*
X0157842Y0114490D01*
X0157840Y0114571D01*
X0157835Y0114651D01*
X0157825Y0114732D01*
X0157812Y0114812D01*
X0157796Y0114891D01*
X0157775Y0114969D01*
X0157751Y0115046D01*
X0157724Y0115122D01*
X0157693Y0115197D01*
X0157659Y0115270D01*
X0157621Y0115342D01*
X0157580Y0115411D01*
X0157536Y0115479D01*
X0157489Y0115545D01*
X0157438Y0115608D01*
X0157385Y0115669D01*
X0157329Y0115727D01*
X0157271Y0115783D01*
X0157210Y0115836D01*
X0157147Y0115887D01*
X0157081Y0115934D01*
X0157013Y0115978D01*
X0156944Y0116019D01*
X0156872Y0116057D01*
X0156799Y0116091D01*
X0156724Y0116122D01*
X0156648Y0116149D01*
X0156571Y0116173D01*
X0156493Y0116194D01*
X0156414Y0116210D01*
X0156334Y0116223D01*
X0156253Y0116233D01*
X0156173Y0116238D01*
X0156092Y0116240D01*
X0171342Y0114490D02*
X0171342Y0101490D01*
X0171340Y0101327D01*
X0171334Y0101164D01*
X0171324Y0101001D01*
X0171310Y0100839D01*
X0171293Y0100676D01*
X0171271Y0100515D01*
X0171246Y0100354D01*
X0171216Y0100193D01*
X0171183Y0100033D01*
X0171146Y0099875D01*
X0171105Y0099717D01*
X0171060Y0099560D01*
X0171012Y0099404D01*
X0170959Y0099250D01*
X0170903Y0099096D01*
X0170844Y0098945D01*
X0170780Y0098794D01*
X0170713Y0098646D01*
X0170643Y0098498D01*
X0170569Y0098353D01*
X0170491Y0098210D01*
X0170410Y0098068D01*
X0170326Y0097928D01*
X0170238Y0097791D01*
X0170147Y0097656D01*
X0170053Y0097522D01*
X0169955Y0097392D01*
X0169855Y0097263D01*
X0169751Y0097137D01*
X0169644Y0097014D01*
X0169535Y0096893D01*
X0169422Y0096775D01*
X0169307Y0096660D01*
X0169189Y0096547D01*
X0169068Y0096438D01*
X0168945Y0096331D01*
X0168819Y0096227D01*
X0168690Y0096127D01*
X0168560Y0096029D01*
X0168426Y0095935D01*
X0168291Y0095844D01*
X0168154Y0095756D01*
X0168014Y0095672D01*
X0167872Y0095591D01*
X0167729Y0095513D01*
X0167584Y0095439D01*
X0167436Y0095369D01*
X0167288Y0095302D01*
X0167137Y0095238D01*
X0166986Y0095179D01*
X0166832Y0095123D01*
X0166678Y0095070D01*
X0166522Y0095022D01*
X0166365Y0094977D01*
X0166207Y0094936D01*
X0166049Y0094899D01*
X0165889Y0094866D01*
X0165728Y0094836D01*
X0165567Y0094811D01*
X0165406Y0094789D01*
X0165243Y0094772D01*
X0165081Y0094758D01*
X0164918Y0094748D01*
X0164755Y0094742D01*
X0164592Y0094740D01*
X0164429Y0094742D01*
X0164266Y0094748D01*
X0164103Y0094758D01*
X0163941Y0094772D01*
X0163778Y0094789D01*
X0163617Y0094811D01*
X0163456Y0094836D01*
X0163295Y0094866D01*
X0163135Y0094899D01*
X0162977Y0094936D01*
X0162819Y0094977D01*
X0162662Y0095022D01*
X0162506Y0095070D01*
X0162352Y0095123D01*
X0162198Y0095179D01*
X0162047Y0095238D01*
X0161896Y0095302D01*
X0161748Y0095369D01*
X0161600Y0095439D01*
X0161455Y0095513D01*
X0161312Y0095591D01*
X0161170Y0095672D01*
X0161030Y0095756D01*
X0160893Y0095844D01*
X0160758Y0095935D01*
X0160624Y0096029D01*
X0160494Y0096127D01*
X0160365Y0096227D01*
X0160239Y0096331D01*
X0160116Y0096438D01*
X0159995Y0096547D01*
X0159877Y0096660D01*
X0159762Y0096775D01*
X0159649Y0096893D01*
X0159540Y0097014D01*
X0159433Y0097137D01*
X0159329Y0097263D01*
X0159229Y0097392D01*
X0159131Y0097522D01*
X0159037Y0097656D01*
X0158946Y0097791D01*
X0158858Y0097928D01*
X0158774Y0098068D01*
X0158693Y0098210D01*
X0158615Y0098353D01*
X0158541Y0098498D01*
X0158471Y0098646D01*
X0158404Y0098794D01*
X0158340Y0098945D01*
X0158281Y0099096D01*
X0158225Y0099250D01*
X0158172Y0099404D01*
X0158124Y0099560D01*
X0158079Y0099717D01*
X0158038Y0099875D01*
X0158001Y0100033D01*
X0157968Y0100193D01*
X0157938Y0100354D01*
X0157913Y0100515D01*
X0157891Y0100676D01*
X0157874Y0100839D01*
X0157860Y0101001D01*
X0157850Y0101164D01*
X0157844Y0101327D01*
X0157842Y0101490D01*
X0171342Y0114490D02*
X0171344Y0114571D01*
X0171349Y0114651D01*
X0171359Y0114732D01*
X0171372Y0114812D01*
X0171388Y0114891D01*
X0171409Y0114969D01*
X0171433Y0115046D01*
X0171460Y0115122D01*
X0171491Y0115197D01*
X0171525Y0115270D01*
X0171563Y0115342D01*
X0171604Y0115411D01*
X0171648Y0115479D01*
X0171695Y0115545D01*
X0171746Y0115608D01*
X0171799Y0115669D01*
X0171855Y0115727D01*
X0171913Y0115783D01*
X0171974Y0115836D01*
X0172037Y0115887D01*
X0172103Y0115934D01*
X0172171Y0115978D01*
X0172240Y0116019D01*
X0172312Y0116057D01*
X0172385Y0116091D01*
X0172460Y0116122D01*
X0172536Y0116149D01*
X0172613Y0116173D01*
X0172691Y0116194D01*
X0172770Y0116210D01*
X0172850Y0116223D01*
X0172931Y0116233D01*
X0173011Y0116238D01*
X0173092Y0116240D01*
X0173093Y0116240D02*
X0173954Y0116052D01*
X0174811Y0115843D01*
X0175662Y0115614D01*
X0176508Y0115363D01*
X0177347Y0115092D01*
X0178179Y0114800D01*
X0179004Y0114488D01*
X0179821Y0114156D01*
X0180629Y0113804D01*
X0181429Y0113432D01*
X0182219Y0113041D01*
X0183000Y0112631D01*
X0183770Y0112201D01*
X0184529Y0111753D01*
X0185278Y0111287D01*
X0186014Y0110802D01*
X0186739Y0110299D01*
X0187451Y0109779D01*
X0188150Y0109241D01*
X0188835Y0108687D01*
X0189507Y0108115D01*
X0190165Y0107528D01*
X0190808Y0106925D01*
X0191436Y0106306D01*
X0192049Y0105671D01*
X0192646Y0105022D01*
X0193227Y0104359D01*
X0193791Y0103682D01*
X0194339Y0102991D01*
X0194870Y0102286D01*
X0195383Y0101569D01*
X0195879Y0100840D01*
X0196356Y0100098D01*
X0196815Y0099346D01*
X0197256Y0098582D01*
X0197678Y0097807D01*
X0198081Y0097023D01*
X0198464Y0096229D01*
X0198828Y0095425D01*
X0199172Y0094614D01*
X0199496Y0093793D01*
X0199800Y0092966D01*
X0200083Y0092131D01*
X0200346Y0091289D01*
X0200588Y0090441D01*
X0200810Y0089587D01*
X0201010Y0088729D01*
X0201190Y0087865D01*
X0201348Y0086998D01*
X0201485Y0086127D01*
X0201600Y0085252D01*
X0201600Y0074228D02*
X0201453Y0073322D01*
X0201285Y0072420D01*
X0201094Y0071522D01*
X0200882Y0070629D01*
X0200647Y0069741D01*
X0200391Y0068860D01*
X0200113Y0067985D01*
X0199814Y0067117D01*
X0199494Y0066257D01*
X0199153Y0065405D01*
X0198791Y0064561D01*
X0198408Y0063727D01*
X0198005Y0062902D01*
X0197582Y0062088D01*
X0197139Y0061284D01*
X0196677Y0060491D01*
X0196195Y0059709D01*
X0195694Y0058940D01*
X0195174Y0058183D01*
X0194636Y0057440D01*
X0194080Y0056709D01*
X0193506Y0055993D01*
X0192915Y0055291D01*
X0192307Y0054603D01*
X0191682Y0053931D01*
X0191041Y0053274D01*
X0190383Y0052633D01*
X0189711Y0052009D01*
X0189023Y0051401D01*
X0188320Y0050810D01*
X0187603Y0050237D01*
X0186873Y0049681D01*
X0186129Y0049144D01*
X0185372Y0048625D01*
X0184602Y0048124D01*
X0183821Y0047643D01*
X0183027Y0047181D01*
X0182223Y0046738D01*
X0181408Y0046316D01*
X0180583Y0045913D01*
X0179749Y0045531D01*
X0178905Y0045170D01*
X0178053Y0044829D01*
X0177192Y0044509D01*
X0176324Y0044211D01*
X0175449Y0043934D01*
X0174567Y0043678D01*
X0173680Y0043444D01*
X0172787Y0043232D01*
X0171889Y0043042D01*
X0170986Y0042874D01*
X0170080Y0042729D01*
X0169170Y0042605D01*
X0168258Y0042504D01*
X0167343Y0042425D01*
X0166427Y0042369D01*
X0165510Y0042335D01*
X0164592Y0042324D01*
X0163674Y0042335D01*
X0162757Y0042369D01*
X0161841Y0042425D01*
X0160926Y0042504D01*
X0160014Y0042605D01*
X0159104Y0042729D01*
X0158198Y0042874D01*
X0157295Y0043042D01*
X0156397Y0043232D01*
X0155504Y0043444D01*
X0154617Y0043678D01*
X0153735Y0043934D01*
X0152860Y0044211D01*
X0151992Y0044509D01*
X0151131Y0044829D01*
X0150279Y0045170D01*
X0149435Y0045531D01*
X0148601Y0045913D01*
X0147776Y0046316D01*
X0146961Y0046738D01*
X0146157Y0047181D01*
X0145363Y0047643D01*
X0144582Y0048124D01*
X0143812Y0048625D01*
X0143055Y0049144D01*
X0142311Y0049681D01*
X0141581Y0050237D01*
X0140864Y0050810D01*
X0140161Y0051401D01*
X0139473Y0052009D01*
X0138801Y0052633D01*
X0138143Y0053274D01*
X0137502Y0053931D01*
X0136877Y0054603D01*
X0136269Y0055291D01*
X0135678Y0055993D01*
X0135104Y0056709D01*
X0134548Y0057440D01*
X0134010Y0058183D01*
X0133490Y0058940D01*
X0132989Y0059709D01*
X0132507Y0060491D01*
X0132045Y0061284D01*
X0131602Y0062088D01*
X0131179Y0062902D01*
X0130776Y0063727D01*
X0130393Y0064561D01*
X0130031Y0065405D01*
X0129690Y0066257D01*
X0129370Y0067117D01*
X0129071Y0067985D01*
X0128793Y0068860D01*
X0128537Y0069741D01*
X0128302Y0070629D01*
X0128090Y0071522D01*
X0127899Y0072420D01*
X0127731Y0073322D01*
X0127584Y0074228D01*
X0127585Y0085252D02*
X0127700Y0086127D01*
X0127837Y0086998D01*
X0127995Y0087865D01*
X0128175Y0088729D01*
X0128375Y0089587D01*
X0128597Y0090441D01*
X0128839Y0091289D01*
X0129102Y0092131D01*
X0129385Y0092966D01*
X0129689Y0093793D01*
X0130013Y0094614D01*
X0130357Y0095425D01*
X0130721Y0096229D01*
X0131104Y0097023D01*
X0131507Y0097807D01*
X0131929Y0098582D01*
X0132370Y0099346D01*
X0132829Y0100098D01*
X0133306Y0100840D01*
X0133802Y0101569D01*
X0134315Y0102286D01*
X0134846Y0102991D01*
X0135394Y0103682D01*
X0135958Y0104359D01*
X0136539Y0105022D01*
X0137136Y0105671D01*
X0137749Y0106306D01*
X0138377Y0106925D01*
X0139020Y0107528D01*
X0139678Y0108115D01*
X0140350Y0108687D01*
X0141035Y0109241D01*
X0141734Y0109779D01*
X0142446Y0110299D01*
X0143171Y0110802D01*
X0143907Y0111287D01*
X0144656Y0111753D01*
X0145415Y0112201D01*
X0146185Y0112631D01*
X0146966Y0113041D01*
X0147756Y0113432D01*
X0148556Y0113804D01*
X0149364Y0114156D01*
X0150181Y0114488D01*
X0151006Y0114800D01*
X0151838Y0115092D01*
X0152677Y0115363D01*
X0153523Y0115614D01*
X0154374Y0115843D01*
X0155231Y0116052D01*
X0156092Y0116240D01*
X0127584Y0174228D02*
X0127731Y0173322D01*
X0127899Y0172420D01*
X0128090Y0171522D01*
X0128302Y0170629D01*
X0128537Y0169741D01*
X0128793Y0168860D01*
X0129071Y0167985D01*
X0129370Y0167117D01*
X0129690Y0166257D01*
X0130031Y0165405D01*
X0130393Y0164561D01*
X0130776Y0163727D01*
X0131179Y0162902D01*
X0131602Y0162088D01*
X0132045Y0161284D01*
X0132507Y0160491D01*
X0132989Y0159709D01*
X0133490Y0158940D01*
X0134010Y0158183D01*
X0134548Y0157440D01*
X0135104Y0156709D01*
X0135678Y0155993D01*
X0136269Y0155291D01*
X0136877Y0154603D01*
X0137502Y0153931D01*
X0138143Y0153274D01*
X0138801Y0152633D01*
X0139473Y0152009D01*
X0140161Y0151401D01*
X0140864Y0150810D01*
X0141581Y0150237D01*
X0142311Y0149681D01*
X0143055Y0149144D01*
X0143812Y0148625D01*
X0144582Y0148124D01*
X0145363Y0147643D01*
X0146157Y0147181D01*
X0146961Y0146738D01*
X0147776Y0146316D01*
X0148601Y0145913D01*
X0149435Y0145531D01*
X0150279Y0145170D01*
X0151131Y0144829D01*
X0151992Y0144509D01*
X0152860Y0144211D01*
X0153735Y0143934D01*
X0154617Y0143678D01*
X0155504Y0143444D01*
X0156397Y0143232D01*
X0157295Y0143042D01*
X0158198Y0142874D01*
X0159104Y0142729D01*
X0160014Y0142605D01*
X0160926Y0142504D01*
X0161841Y0142425D01*
X0162757Y0142369D01*
X0163674Y0142335D01*
X0164592Y0142324D01*
X0165510Y0142335D01*
X0166427Y0142369D01*
X0167343Y0142425D01*
X0168258Y0142504D01*
X0169170Y0142605D01*
X0170080Y0142729D01*
X0170986Y0142874D01*
X0171889Y0143042D01*
X0172787Y0143232D01*
X0173680Y0143444D01*
X0174567Y0143678D01*
X0175449Y0143934D01*
X0176324Y0144211D01*
X0177192Y0144509D01*
X0178053Y0144829D01*
X0178905Y0145170D01*
X0179749Y0145531D01*
X0180583Y0145913D01*
X0181408Y0146316D01*
X0182223Y0146738D01*
X0183027Y0147181D01*
X0183821Y0147643D01*
X0184602Y0148124D01*
X0185372Y0148625D01*
X0186129Y0149144D01*
X0186873Y0149681D01*
X0187603Y0150237D01*
X0188320Y0150810D01*
X0189023Y0151401D01*
X0189711Y0152009D01*
X0190383Y0152633D01*
X0191041Y0153274D01*
X0191682Y0153931D01*
X0192307Y0154603D01*
X0192915Y0155291D01*
X0193506Y0155993D01*
X0194080Y0156709D01*
X0194636Y0157440D01*
X0195174Y0158183D01*
X0195694Y0158940D01*
X0196195Y0159709D01*
X0196677Y0160491D01*
X0197139Y0161284D01*
X0197582Y0162088D01*
X0198005Y0162902D01*
X0198408Y0163727D01*
X0198791Y0164561D01*
X0199153Y0165405D01*
X0199494Y0166257D01*
X0199814Y0167117D01*
X0200113Y0167985D01*
X0200391Y0168860D01*
X0200647Y0169741D01*
X0200882Y0170629D01*
X0201094Y0171522D01*
X0201285Y0172420D01*
X0201453Y0173322D01*
X0201600Y0174228D01*
X0171342Y0201490D02*
X0171342Y0214490D01*
X0171344Y0214571D01*
X0171349Y0214651D01*
X0171359Y0214732D01*
X0171372Y0214812D01*
X0171388Y0214891D01*
X0171409Y0214969D01*
X0171433Y0215046D01*
X0171460Y0215122D01*
X0171491Y0215197D01*
X0171525Y0215270D01*
X0171563Y0215342D01*
X0171604Y0215411D01*
X0171648Y0215479D01*
X0171695Y0215545D01*
X0171746Y0215608D01*
X0171799Y0215669D01*
X0171855Y0215727D01*
X0171913Y0215783D01*
X0171974Y0215836D01*
X0172037Y0215887D01*
X0172103Y0215934D01*
X0172171Y0215978D01*
X0172240Y0216019D01*
X0172312Y0216057D01*
X0172385Y0216091D01*
X0172460Y0216122D01*
X0172536Y0216149D01*
X0172613Y0216173D01*
X0172691Y0216194D01*
X0172770Y0216210D01*
X0172850Y0216223D01*
X0172931Y0216233D01*
X0173011Y0216238D01*
X0173092Y0216240D01*
X0171342Y0201490D02*
X0171340Y0201327D01*
X0171334Y0201164D01*
X0171324Y0201001D01*
X0171310Y0200839D01*
X0171293Y0200676D01*
X0171271Y0200515D01*
X0171246Y0200354D01*
X0171216Y0200193D01*
X0171183Y0200033D01*
X0171146Y0199875D01*
X0171105Y0199717D01*
X0171060Y0199560D01*
X0171012Y0199404D01*
X0170959Y0199250D01*
X0170903Y0199096D01*
X0170844Y0198945D01*
X0170780Y0198794D01*
X0170713Y0198646D01*
X0170643Y0198498D01*
X0170569Y0198353D01*
X0170491Y0198210D01*
X0170410Y0198068D01*
X0170326Y0197928D01*
X0170238Y0197791D01*
X0170147Y0197656D01*
X0170053Y0197522D01*
X0169955Y0197392D01*
X0169855Y0197263D01*
X0169751Y0197137D01*
X0169644Y0197014D01*
X0169535Y0196893D01*
X0169422Y0196775D01*
X0169307Y0196660D01*
X0169189Y0196547D01*
X0169068Y0196438D01*
X0168945Y0196331D01*
X0168819Y0196227D01*
X0168690Y0196127D01*
X0168560Y0196029D01*
X0168426Y0195935D01*
X0168291Y0195844D01*
X0168154Y0195756D01*
X0168014Y0195672D01*
X0167872Y0195591D01*
X0167729Y0195513D01*
X0167584Y0195439D01*
X0167436Y0195369D01*
X0167288Y0195302D01*
X0167137Y0195238D01*
X0166986Y0195179D01*
X0166832Y0195123D01*
X0166678Y0195070D01*
X0166522Y0195022D01*
X0166365Y0194977D01*
X0166207Y0194936D01*
X0166049Y0194899D01*
X0165889Y0194866D01*
X0165728Y0194836D01*
X0165567Y0194811D01*
X0165406Y0194789D01*
X0165243Y0194772D01*
X0165081Y0194758D01*
X0164918Y0194748D01*
X0164755Y0194742D01*
X0164592Y0194740D01*
X0164429Y0194742D01*
X0164266Y0194748D01*
X0164103Y0194758D01*
X0163941Y0194772D01*
X0163778Y0194789D01*
X0163617Y0194811D01*
X0163456Y0194836D01*
X0163295Y0194866D01*
X0163135Y0194899D01*
X0162977Y0194936D01*
X0162819Y0194977D01*
X0162662Y0195022D01*
X0162506Y0195070D01*
X0162352Y0195123D01*
X0162198Y0195179D01*
X0162047Y0195238D01*
X0161896Y0195302D01*
X0161748Y0195369D01*
X0161600Y0195439D01*
X0161455Y0195513D01*
X0161312Y0195591D01*
X0161170Y0195672D01*
X0161030Y0195756D01*
X0160893Y0195844D01*
X0160758Y0195935D01*
X0160624Y0196029D01*
X0160494Y0196127D01*
X0160365Y0196227D01*
X0160239Y0196331D01*
X0160116Y0196438D01*
X0159995Y0196547D01*
X0159877Y0196660D01*
X0159762Y0196775D01*
X0159649Y0196893D01*
X0159540Y0197014D01*
X0159433Y0197137D01*
X0159329Y0197263D01*
X0159229Y0197392D01*
X0159131Y0197522D01*
X0159037Y0197656D01*
X0158946Y0197791D01*
X0158858Y0197928D01*
X0158774Y0198068D01*
X0158693Y0198210D01*
X0158615Y0198353D01*
X0158541Y0198498D01*
X0158471Y0198646D01*
X0158404Y0198794D01*
X0158340Y0198945D01*
X0158281Y0199096D01*
X0158225Y0199250D01*
X0158172Y0199404D01*
X0158124Y0199560D01*
X0158079Y0199717D01*
X0158038Y0199875D01*
X0158001Y0200033D01*
X0157968Y0200193D01*
X0157938Y0200354D01*
X0157913Y0200515D01*
X0157891Y0200676D01*
X0157874Y0200839D01*
X0157860Y0201001D01*
X0157850Y0201164D01*
X0157844Y0201327D01*
X0157842Y0201490D01*
X0157842Y0214490D01*
X0157840Y0214571D01*
X0157835Y0214651D01*
X0157825Y0214732D01*
X0157812Y0214812D01*
X0157796Y0214891D01*
X0157775Y0214969D01*
X0157751Y0215046D01*
X0157724Y0215122D01*
X0157693Y0215197D01*
X0157659Y0215270D01*
X0157621Y0215342D01*
X0157580Y0215411D01*
X0157536Y0215479D01*
X0157489Y0215545D01*
X0157438Y0215608D01*
X0157385Y0215669D01*
X0157329Y0215727D01*
X0157271Y0215783D01*
X0157210Y0215836D01*
X0157147Y0215887D01*
X0157081Y0215934D01*
X0157013Y0215978D01*
X0156944Y0216019D01*
X0156872Y0216057D01*
X0156799Y0216091D01*
X0156724Y0216122D01*
X0156648Y0216149D01*
X0156571Y0216173D01*
X0156493Y0216194D01*
X0156414Y0216210D01*
X0156334Y0216223D01*
X0156253Y0216233D01*
X0156173Y0216238D01*
X0156092Y0216240D01*
X0155231Y0216052D01*
X0154374Y0215843D01*
X0153523Y0215614D01*
X0152677Y0215363D01*
X0151838Y0215092D01*
X0151006Y0214800D01*
X0150181Y0214488D01*
X0149364Y0214156D01*
X0148556Y0213804D01*
X0147756Y0213432D01*
X0146966Y0213041D01*
X0146185Y0212631D01*
X0145415Y0212201D01*
X0144656Y0211753D01*
X0143907Y0211287D01*
X0143171Y0210802D01*
X0142446Y0210299D01*
X0141734Y0209779D01*
X0141035Y0209241D01*
X0140350Y0208687D01*
X0139678Y0208115D01*
X0139020Y0207528D01*
X0138377Y0206925D01*
X0137749Y0206306D01*
X0137136Y0205671D01*
X0136539Y0205022D01*
X0135958Y0204359D01*
X0135394Y0203682D01*
X0134846Y0202991D01*
X0134315Y0202286D01*
X0133802Y0201569D01*
X0133306Y0200840D01*
X0132829Y0200098D01*
X0132370Y0199346D01*
X0131929Y0198582D01*
X0131507Y0197807D01*
X0131104Y0197023D01*
X0130721Y0196229D01*
X0130357Y0195425D01*
X0130013Y0194614D01*
X0129689Y0193793D01*
X0129385Y0192966D01*
X0129102Y0192131D01*
X0128839Y0191289D01*
X0128597Y0190441D01*
X0128375Y0189587D01*
X0128175Y0188729D01*
X0127995Y0187865D01*
X0127837Y0186998D01*
X0127700Y0186127D01*
X0127585Y0185252D01*
X0173093Y0216240D02*
X0173954Y0216052D01*
X0174811Y0215843D01*
X0175662Y0215614D01*
X0176508Y0215363D01*
X0177347Y0215092D01*
X0178179Y0214800D01*
X0179004Y0214488D01*
X0179821Y0214156D01*
X0180629Y0213804D01*
X0181429Y0213432D01*
X0182219Y0213041D01*
X0183000Y0212631D01*
X0183770Y0212201D01*
X0184529Y0211753D01*
X0185278Y0211287D01*
X0186014Y0210802D01*
X0186739Y0210299D01*
X0187451Y0209779D01*
X0188150Y0209241D01*
X0188835Y0208687D01*
X0189507Y0208115D01*
X0190165Y0207528D01*
X0190808Y0206925D01*
X0191436Y0206306D01*
X0192049Y0205671D01*
X0192646Y0205022D01*
X0193227Y0204359D01*
X0193791Y0203682D01*
X0194339Y0202991D01*
X0194870Y0202286D01*
X0195383Y0201569D01*
X0195879Y0200840D01*
X0196356Y0200098D01*
X0196815Y0199346D01*
X0197256Y0198582D01*
X0197678Y0197807D01*
X0198081Y0197023D01*
X0198464Y0196229D01*
X0198828Y0195425D01*
X0199172Y0194614D01*
X0199496Y0193793D01*
X0199800Y0192966D01*
X0200083Y0192131D01*
X0200346Y0191289D01*
X0200588Y0190441D01*
X0200810Y0189587D01*
X0201010Y0188729D01*
X0201190Y0187865D01*
X0201348Y0186998D01*
X0201485Y0186127D01*
X0201600Y0185252D01*
X0256092Y0216240D02*
X0256173Y0216238D01*
X0256253Y0216233D01*
X0256334Y0216223D01*
X0256414Y0216210D01*
X0256493Y0216194D01*
X0256571Y0216173D01*
X0256648Y0216149D01*
X0256724Y0216122D01*
X0256799Y0216091D01*
X0256872Y0216057D01*
X0256944Y0216019D01*
X0257013Y0215978D01*
X0257081Y0215934D01*
X0257147Y0215887D01*
X0257210Y0215836D01*
X0257271Y0215783D01*
X0257329Y0215727D01*
X0257385Y0215669D01*
X0257438Y0215608D01*
X0257489Y0215545D01*
X0257536Y0215479D01*
X0257580Y0215411D01*
X0257621Y0215342D01*
X0257659Y0215270D01*
X0257693Y0215197D01*
X0257724Y0215122D01*
X0257751Y0215046D01*
X0257775Y0214969D01*
X0257796Y0214891D01*
X0257812Y0214812D01*
X0257825Y0214732D01*
X0257835Y0214651D01*
X0257840Y0214571D01*
X0257842Y0214490D01*
X0257842Y0201490D01*
X0264592Y0194740D02*
X0264755Y0194742D01*
X0264918Y0194748D01*
X0265081Y0194758D01*
X0265243Y0194772D01*
X0265406Y0194789D01*
X0265567Y0194811D01*
X0265728Y0194836D01*
X0265889Y0194866D01*
X0266049Y0194899D01*
X0266207Y0194936D01*
X0266365Y0194977D01*
X0266522Y0195022D01*
X0266678Y0195070D01*
X0266832Y0195123D01*
X0266986Y0195179D01*
X0267137Y0195238D01*
X0267288Y0195302D01*
X0267436Y0195369D01*
X0267584Y0195439D01*
X0267729Y0195513D01*
X0267872Y0195591D01*
X0268014Y0195672D01*
X0268154Y0195756D01*
X0268291Y0195844D01*
X0268426Y0195935D01*
X0268560Y0196029D01*
X0268690Y0196127D01*
X0268819Y0196227D01*
X0268945Y0196331D01*
X0269068Y0196438D01*
X0269189Y0196547D01*
X0269307Y0196660D01*
X0269422Y0196775D01*
X0269535Y0196893D01*
X0269644Y0197014D01*
X0269751Y0197137D01*
X0269855Y0197263D01*
X0269955Y0197392D01*
X0270053Y0197522D01*
X0270147Y0197656D01*
X0270238Y0197791D01*
X0270326Y0197928D01*
X0270410Y0198068D01*
X0270491Y0198210D01*
X0270569Y0198353D01*
X0270643Y0198498D01*
X0270713Y0198646D01*
X0270780Y0198794D01*
X0270844Y0198945D01*
X0270903Y0199096D01*
X0270959Y0199250D01*
X0271012Y0199404D01*
X0271060Y0199560D01*
X0271105Y0199717D01*
X0271146Y0199875D01*
X0271183Y0200033D01*
X0271216Y0200193D01*
X0271246Y0200354D01*
X0271271Y0200515D01*
X0271293Y0200676D01*
X0271310Y0200839D01*
X0271324Y0201001D01*
X0271334Y0201164D01*
X0271340Y0201327D01*
X0271342Y0201490D01*
X0271342Y0214490D01*
X0271344Y0214571D01*
X0271349Y0214651D01*
X0271359Y0214732D01*
X0271372Y0214812D01*
X0271388Y0214891D01*
X0271409Y0214969D01*
X0271433Y0215046D01*
X0271460Y0215122D01*
X0271491Y0215197D01*
X0271525Y0215270D01*
X0271563Y0215342D01*
X0271604Y0215411D01*
X0271648Y0215479D01*
X0271695Y0215545D01*
X0271746Y0215608D01*
X0271799Y0215669D01*
X0271855Y0215727D01*
X0271913Y0215783D01*
X0271974Y0215836D01*
X0272037Y0215887D01*
X0272103Y0215934D01*
X0272171Y0215978D01*
X0272240Y0216019D01*
X0272312Y0216057D01*
X0272385Y0216091D01*
X0272460Y0216122D01*
X0272536Y0216149D01*
X0272613Y0216173D01*
X0272691Y0216194D01*
X0272770Y0216210D01*
X0272850Y0216223D01*
X0272931Y0216233D01*
X0273011Y0216238D01*
X0273092Y0216240D01*
X0257842Y0201490D02*
X0257844Y0201327D01*
X0257850Y0201164D01*
X0257860Y0201001D01*
X0257874Y0200839D01*
X0257891Y0200676D01*
X0257913Y0200515D01*
X0257938Y0200354D01*
X0257968Y0200193D01*
X0258001Y0200033D01*
X0258038Y0199875D01*
X0258079Y0199717D01*
X0258124Y0199560D01*
X0258172Y0199404D01*
X0258225Y0199250D01*
X0258281Y0199096D01*
X0258340Y0198945D01*
X0258404Y0198794D01*
X0258471Y0198646D01*
X0258541Y0198498D01*
X0258615Y0198353D01*
X0258693Y0198210D01*
X0258774Y0198068D01*
X0258858Y0197928D01*
X0258946Y0197791D01*
X0259037Y0197656D01*
X0259131Y0197522D01*
X0259229Y0197392D01*
X0259329Y0197263D01*
X0259433Y0197137D01*
X0259540Y0197014D01*
X0259649Y0196893D01*
X0259762Y0196775D01*
X0259877Y0196660D01*
X0259995Y0196547D01*
X0260116Y0196438D01*
X0260239Y0196331D01*
X0260365Y0196227D01*
X0260494Y0196127D01*
X0260624Y0196029D01*
X0260758Y0195935D01*
X0260893Y0195844D01*
X0261030Y0195756D01*
X0261170Y0195672D01*
X0261312Y0195591D01*
X0261455Y0195513D01*
X0261600Y0195439D01*
X0261748Y0195369D01*
X0261896Y0195302D01*
X0262047Y0195238D01*
X0262198Y0195179D01*
X0262352Y0195123D01*
X0262506Y0195070D01*
X0262662Y0195022D01*
X0262819Y0194977D01*
X0262977Y0194936D01*
X0263135Y0194899D01*
X0263295Y0194866D01*
X0263456Y0194836D01*
X0263617Y0194811D01*
X0263778Y0194789D01*
X0263941Y0194772D01*
X0264103Y0194758D01*
X0264266Y0194748D01*
X0264429Y0194742D01*
X0264592Y0194740D01*
X0256092Y0216240D02*
X0255231Y0216052D01*
X0254374Y0215843D01*
X0253523Y0215614D01*
X0252677Y0215363D01*
X0251838Y0215092D01*
X0251006Y0214800D01*
X0250181Y0214488D01*
X0249364Y0214156D01*
X0248556Y0213804D01*
X0247756Y0213432D01*
X0246966Y0213041D01*
X0246185Y0212631D01*
X0245415Y0212201D01*
X0244656Y0211753D01*
X0243907Y0211287D01*
X0243171Y0210802D01*
X0242446Y0210299D01*
X0241734Y0209779D01*
X0241035Y0209241D01*
X0240350Y0208687D01*
X0239678Y0208115D01*
X0239020Y0207528D01*
X0238377Y0206925D01*
X0237749Y0206306D01*
X0237136Y0205671D01*
X0236539Y0205022D01*
X0235958Y0204359D01*
X0235394Y0203682D01*
X0234846Y0202991D01*
X0234315Y0202286D01*
X0233802Y0201569D01*
X0233306Y0200840D01*
X0232829Y0200098D01*
X0232370Y0199346D01*
X0231929Y0198582D01*
X0231507Y0197807D01*
X0231104Y0197023D01*
X0230721Y0196229D01*
X0230357Y0195425D01*
X0230013Y0194614D01*
X0229689Y0193793D01*
X0229385Y0192966D01*
X0229102Y0192131D01*
X0228839Y0191289D01*
X0228597Y0190441D01*
X0228375Y0189587D01*
X0228175Y0188729D01*
X0227995Y0187865D01*
X0227837Y0186998D01*
X0227700Y0186127D01*
X0227585Y0185252D01*
X0227584Y0174228D02*
X0227731Y0173322D01*
X0227899Y0172420D01*
X0228090Y0171522D01*
X0228302Y0170629D01*
X0228537Y0169741D01*
X0228793Y0168860D01*
X0229071Y0167985D01*
X0229370Y0167117D01*
X0229690Y0166257D01*
X0230031Y0165405D01*
X0230393Y0164561D01*
X0230776Y0163727D01*
X0231179Y0162902D01*
X0231602Y0162088D01*
X0232045Y0161284D01*
X0232507Y0160491D01*
X0232989Y0159709D01*
X0233490Y0158940D01*
X0234010Y0158183D01*
X0234548Y0157440D01*
X0235104Y0156709D01*
X0235678Y0155993D01*
X0236269Y0155291D01*
X0236877Y0154603D01*
X0237502Y0153931D01*
X0238143Y0153274D01*
X0238801Y0152633D01*
X0239473Y0152009D01*
X0240161Y0151401D01*
X0240864Y0150810D01*
X0241581Y0150237D01*
X0242311Y0149681D01*
X0243055Y0149144D01*
X0243812Y0148625D01*
X0244582Y0148124D01*
X0245363Y0147643D01*
X0246157Y0147181D01*
X0246961Y0146738D01*
X0247776Y0146316D01*
X0248601Y0145913D01*
X0249435Y0145531D01*
X0250279Y0145170D01*
X0251131Y0144829D01*
X0251992Y0144509D01*
X0252860Y0144211D01*
X0253735Y0143934D01*
X0254617Y0143678D01*
X0255504Y0143444D01*
X0256397Y0143232D01*
X0257295Y0143042D01*
X0258198Y0142874D01*
X0259104Y0142729D01*
X0260014Y0142605D01*
X0260926Y0142504D01*
X0261841Y0142425D01*
X0262757Y0142369D01*
X0263674Y0142335D01*
X0264592Y0142324D01*
X0265510Y0142335D01*
X0266427Y0142369D01*
X0267343Y0142425D01*
X0268258Y0142504D01*
X0269170Y0142605D01*
X0270080Y0142729D01*
X0270986Y0142874D01*
X0271889Y0143042D01*
X0272787Y0143232D01*
X0273680Y0143444D01*
X0274567Y0143678D01*
X0275449Y0143934D01*
X0276324Y0144211D01*
X0277192Y0144509D01*
X0278053Y0144829D01*
X0278905Y0145170D01*
X0279749Y0145531D01*
X0280583Y0145913D01*
X0281408Y0146316D01*
X0282223Y0146738D01*
X0283027Y0147181D01*
X0283821Y0147643D01*
X0284602Y0148124D01*
X0285372Y0148625D01*
X0286129Y0149144D01*
X0286873Y0149681D01*
X0287603Y0150237D01*
X0288320Y0150810D01*
X0289023Y0151401D01*
X0289711Y0152009D01*
X0290383Y0152633D01*
X0291041Y0153274D01*
X0291682Y0153931D01*
X0292307Y0154603D01*
X0292915Y0155291D01*
X0293506Y0155993D01*
X0294080Y0156709D01*
X0294636Y0157440D01*
X0295174Y0158183D01*
X0295694Y0158940D01*
X0296195Y0159709D01*
X0296677Y0160491D01*
X0297139Y0161284D01*
X0297582Y0162088D01*
X0298005Y0162902D01*
X0298408Y0163727D01*
X0298791Y0164561D01*
X0299153Y0165405D01*
X0299494Y0166257D01*
X0299814Y0167117D01*
X0300113Y0167985D01*
X0300391Y0168860D01*
X0300647Y0169741D01*
X0300882Y0170629D01*
X0301094Y0171522D01*
X0301285Y0172420D01*
X0301453Y0173322D01*
X0301600Y0174228D01*
X0301600Y0185252D02*
X0301485Y0186127D01*
X0301348Y0186998D01*
X0301190Y0187865D01*
X0301010Y0188729D01*
X0300810Y0189587D01*
X0300588Y0190441D01*
X0300346Y0191289D01*
X0300083Y0192131D01*
X0299800Y0192966D01*
X0299496Y0193793D01*
X0299172Y0194614D01*
X0298828Y0195425D01*
X0298464Y0196229D01*
X0298081Y0197023D01*
X0297678Y0197807D01*
X0297256Y0198582D01*
X0296815Y0199346D01*
X0296356Y0200098D01*
X0295879Y0200840D01*
X0295383Y0201569D01*
X0294870Y0202286D01*
X0294339Y0202991D01*
X0293791Y0203682D01*
X0293227Y0204359D01*
X0292646Y0205022D01*
X0292049Y0205671D01*
X0291436Y0206306D01*
X0290808Y0206925D01*
X0290165Y0207528D01*
X0289507Y0208115D01*
X0288835Y0208687D01*
X0288150Y0209241D01*
X0287451Y0209779D01*
X0286739Y0210299D01*
X0286014Y0210802D01*
X0285278Y0211287D01*
X0284529Y0211753D01*
X0283770Y0212201D01*
X0283000Y0212631D01*
X0282219Y0213041D01*
X0281429Y0213432D01*
X0280629Y0213804D01*
X0279821Y0214156D01*
X0279004Y0214488D01*
X0278179Y0214800D01*
X0277347Y0215092D01*
X0276508Y0215363D01*
X0275662Y0215614D01*
X0274811Y0215843D01*
X0273954Y0216052D01*
X0273093Y0216240D01*
X0301600Y0274228D02*
X0301453Y0273322D01*
X0301285Y0272420D01*
X0301094Y0271522D01*
X0300882Y0270629D01*
X0300647Y0269741D01*
X0300391Y0268860D01*
X0300113Y0267985D01*
X0299814Y0267117D01*
X0299494Y0266257D01*
X0299153Y0265405D01*
X0298791Y0264561D01*
X0298408Y0263727D01*
X0298005Y0262902D01*
X0297582Y0262088D01*
X0297139Y0261284D01*
X0296677Y0260491D01*
X0296195Y0259709D01*
X0295694Y0258940D01*
X0295174Y0258183D01*
X0294636Y0257440D01*
X0294080Y0256709D01*
X0293506Y0255993D01*
X0292915Y0255291D01*
X0292307Y0254603D01*
X0291682Y0253931D01*
X0291041Y0253274D01*
X0290383Y0252633D01*
X0289711Y0252009D01*
X0289023Y0251401D01*
X0288320Y0250810D01*
X0287603Y0250237D01*
X0286873Y0249681D01*
X0286129Y0249144D01*
X0285372Y0248625D01*
X0284602Y0248124D01*
X0283821Y0247643D01*
X0283027Y0247181D01*
X0282223Y0246738D01*
X0281408Y0246316D01*
X0280583Y0245913D01*
X0279749Y0245531D01*
X0278905Y0245170D01*
X0278053Y0244829D01*
X0277192Y0244509D01*
X0276324Y0244211D01*
X0275449Y0243934D01*
X0274567Y0243678D01*
X0273680Y0243444D01*
X0272787Y0243232D01*
X0271889Y0243042D01*
X0270986Y0242874D01*
X0270080Y0242729D01*
X0269170Y0242605D01*
X0268258Y0242504D01*
X0267343Y0242425D01*
X0266427Y0242369D01*
X0265510Y0242335D01*
X0264592Y0242324D01*
X0263674Y0242335D01*
X0262757Y0242369D01*
X0261841Y0242425D01*
X0260926Y0242504D01*
X0260014Y0242605D01*
X0259104Y0242729D01*
X0258198Y0242874D01*
X0257295Y0243042D01*
X0256397Y0243232D01*
X0255504Y0243444D01*
X0254617Y0243678D01*
X0253735Y0243934D01*
X0252860Y0244211D01*
X0251992Y0244509D01*
X0251131Y0244829D01*
X0250279Y0245170D01*
X0249435Y0245531D01*
X0248601Y0245913D01*
X0247776Y0246316D01*
X0246961Y0246738D01*
X0246157Y0247181D01*
X0245363Y0247643D01*
X0244582Y0248124D01*
X0243812Y0248625D01*
X0243055Y0249144D01*
X0242311Y0249681D01*
X0241581Y0250237D01*
X0240864Y0250810D01*
X0240161Y0251401D01*
X0239473Y0252009D01*
X0238801Y0252633D01*
X0238143Y0253274D01*
X0237502Y0253931D01*
X0236877Y0254603D01*
X0236269Y0255291D01*
X0235678Y0255993D01*
X0235104Y0256709D01*
X0234548Y0257440D01*
X0234010Y0258183D01*
X0233490Y0258940D01*
X0232989Y0259709D01*
X0232507Y0260491D01*
X0232045Y0261284D01*
X0231602Y0262088D01*
X0231179Y0262902D01*
X0230776Y0263727D01*
X0230393Y0264561D01*
X0230031Y0265405D01*
X0229690Y0266257D01*
X0229370Y0267117D01*
X0229071Y0267985D01*
X0228793Y0268860D01*
X0228537Y0269741D01*
X0228302Y0270629D01*
X0228090Y0271522D01*
X0227899Y0272420D01*
X0227731Y0273322D01*
X0227584Y0274228D01*
X0257842Y0301490D02*
X0257842Y0314490D01*
X0257840Y0314571D01*
X0257835Y0314651D01*
X0257825Y0314732D01*
X0257812Y0314812D01*
X0257796Y0314891D01*
X0257775Y0314969D01*
X0257751Y0315046D01*
X0257724Y0315122D01*
X0257693Y0315197D01*
X0257659Y0315270D01*
X0257621Y0315342D01*
X0257580Y0315411D01*
X0257536Y0315479D01*
X0257489Y0315545D01*
X0257438Y0315608D01*
X0257385Y0315669D01*
X0257329Y0315727D01*
X0257271Y0315783D01*
X0257210Y0315836D01*
X0257147Y0315887D01*
X0257081Y0315934D01*
X0257013Y0315978D01*
X0256944Y0316019D01*
X0256872Y0316057D01*
X0256799Y0316091D01*
X0256724Y0316122D01*
X0256648Y0316149D01*
X0256571Y0316173D01*
X0256493Y0316194D01*
X0256414Y0316210D01*
X0256334Y0316223D01*
X0256253Y0316233D01*
X0256173Y0316238D01*
X0256092Y0316240D01*
X0271342Y0301490D02*
X0271340Y0301327D01*
X0271334Y0301164D01*
X0271324Y0301001D01*
X0271310Y0300839D01*
X0271293Y0300676D01*
X0271271Y0300515D01*
X0271246Y0300354D01*
X0271216Y0300193D01*
X0271183Y0300033D01*
X0271146Y0299875D01*
X0271105Y0299717D01*
X0271060Y0299560D01*
X0271012Y0299404D01*
X0270959Y0299250D01*
X0270903Y0299096D01*
X0270844Y0298945D01*
X0270780Y0298794D01*
X0270713Y0298646D01*
X0270643Y0298498D01*
X0270569Y0298353D01*
X0270491Y0298210D01*
X0270410Y0298068D01*
X0270326Y0297928D01*
X0270238Y0297791D01*
X0270147Y0297656D01*
X0270053Y0297522D01*
X0269955Y0297392D01*
X0269855Y0297263D01*
X0269751Y0297137D01*
X0269644Y0297014D01*
X0269535Y0296893D01*
X0269422Y0296775D01*
X0269307Y0296660D01*
X0269189Y0296547D01*
X0269068Y0296438D01*
X0268945Y0296331D01*
X0268819Y0296227D01*
X0268690Y0296127D01*
X0268560Y0296029D01*
X0268426Y0295935D01*
X0268291Y0295844D01*
X0268154Y0295756D01*
X0268014Y0295672D01*
X0267872Y0295591D01*
X0267729Y0295513D01*
X0267584Y0295439D01*
X0267436Y0295369D01*
X0267288Y0295302D01*
X0267137Y0295238D01*
X0266986Y0295179D01*
X0266832Y0295123D01*
X0266678Y0295070D01*
X0266522Y0295022D01*
X0266365Y0294977D01*
X0266207Y0294936D01*
X0266049Y0294899D01*
X0265889Y0294866D01*
X0265728Y0294836D01*
X0265567Y0294811D01*
X0265406Y0294789D01*
X0265243Y0294772D01*
X0265081Y0294758D01*
X0264918Y0294748D01*
X0264755Y0294742D01*
X0264592Y0294740D01*
X0264429Y0294742D01*
X0264266Y0294748D01*
X0264103Y0294758D01*
X0263941Y0294772D01*
X0263778Y0294789D01*
X0263617Y0294811D01*
X0263456Y0294836D01*
X0263295Y0294866D01*
X0263135Y0294899D01*
X0262977Y0294936D01*
X0262819Y0294977D01*
X0262662Y0295022D01*
X0262506Y0295070D01*
X0262352Y0295123D01*
X0262198Y0295179D01*
X0262047Y0295238D01*
X0261896Y0295302D01*
X0261748Y0295369D01*
X0261600Y0295439D01*
X0261455Y0295513D01*
X0261312Y0295591D01*
X0261170Y0295672D01*
X0261030Y0295756D01*
X0260893Y0295844D01*
X0260758Y0295935D01*
X0260624Y0296029D01*
X0260494Y0296127D01*
X0260365Y0296227D01*
X0260239Y0296331D01*
X0260116Y0296438D01*
X0259995Y0296547D01*
X0259877Y0296660D01*
X0259762Y0296775D01*
X0259649Y0296893D01*
X0259540Y0297014D01*
X0259433Y0297137D01*
X0259329Y0297263D01*
X0259229Y0297392D01*
X0259131Y0297522D01*
X0259037Y0297656D01*
X0258946Y0297791D01*
X0258858Y0297928D01*
X0258774Y0298068D01*
X0258693Y0298210D01*
X0258615Y0298353D01*
X0258541Y0298498D01*
X0258471Y0298646D01*
X0258404Y0298794D01*
X0258340Y0298945D01*
X0258281Y0299096D01*
X0258225Y0299250D01*
X0258172Y0299404D01*
X0258124Y0299560D01*
X0258079Y0299717D01*
X0258038Y0299875D01*
X0258001Y0300033D01*
X0257968Y0300193D01*
X0257938Y0300354D01*
X0257913Y0300515D01*
X0257891Y0300676D01*
X0257874Y0300839D01*
X0257860Y0301001D01*
X0257850Y0301164D01*
X0257844Y0301327D01*
X0257842Y0301490D01*
X0271342Y0301490D02*
X0271342Y0314490D01*
X0271344Y0314571D01*
X0271349Y0314651D01*
X0271359Y0314732D01*
X0271372Y0314812D01*
X0271388Y0314891D01*
X0271409Y0314969D01*
X0271433Y0315046D01*
X0271460Y0315122D01*
X0271491Y0315197D01*
X0271525Y0315270D01*
X0271563Y0315342D01*
X0271604Y0315411D01*
X0271648Y0315479D01*
X0271695Y0315545D01*
X0271746Y0315608D01*
X0271799Y0315669D01*
X0271855Y0315727D01*
X0271913Y0315783D01*
X0271974Y0315836D01*
X0272037Y0315887D01*
X0272103Y0315934D01*
X0272171Y0315978D01*
X0272240Y0316019D01*
X0272312Y0316057D01*
X0272385Y0316091D01*
X0272460Y0316122D01*
X0272536Y0316149D01*
X0272613Y0316173D01*
X0272691Y0316194D01*
X0272770Y0316210D01*
X0272850Y0316223D01*
X0272931Y0316233D01*
X0273011Y0316238D01*
X0273092Y0316240D01*
X0273093Y0316240D02*
X0273954Y0316052D01*
X0274811Y0315843D01*
X0275662Y0315614D01*
X0276508Y0315363D01*
X0277347Y0315092D01*
X0278179Y0314800D01*
X0279004Y0314488D01*
X0279821Y0314156D01*
X0280629Y0313804D01*
X0281429Y0313432D01*
X0282219Y0313041D01*
X0283000Y0312631D01*
X0283770Y0312201D01*
X0284529Y0311753D01*
X0285278Y0311287D01*
X0286014Y0310802D01*
X0286739Y0310299D01*
X0287451Y0309779D01*
X0288150Y0309241D01*
X0288835Y0308687D01*
X0289507Y0308115D01*
X0290165Y0307528D01*
X0290808Y0306925D01*
X0291436Y0306306D01*
X0292049Y0305671D01*
X0292646Y0305022D01*
X0293227Y0304359D01*
X0293791Y0303682D01*
X0294339Y0302991D01*
X0294870Y0302286D01*
X0295383Y0301569D01*
X0295879Y0300840D01*
X0296356Y0300098D01*
X0296815Y0299346D01*
X0297256Y0298582D01*
X0297678Y0297807D01*
X0298081Y0297023D01*
X0298464Y0296229D01*
X0298828Y0295425D01*
X0299172Y0294614D01*
X0299496Y0293793D01*
X0299800Y0292966D01*
X0300083Y0292131D01*
X0300346Y0291289D01*
X0300588Y0290441D01*
X0300810Y0289587D01*
X0301010Y0288729D01*
X0301190Y0287865D01*
X0301348Y0286998D01*
X0301485Y0286127D01*
X0301600Y0285252D01*
X0256092Y0316240D02*
X0255231Y0316052D01*
X0254374Y0315843D01*
X0253523Y0315614D01*
X0252677Y0315363D01*
X0251838Y0315092D01*
X0251006Y0314800D01*
X0250181Y0314488D01*
X0249364Y0314156D01*
X0248556Y0313804D01*
X0247756Y0313432D01*
X0246966Y0313041D01*
X0246185Y0312631D01*
X0245415Y0312201D01*
X0244656Y0311753D01*
X0243907Y0311287D01*
X0243171Y0310802D01*
X0242446Y0310299D01*
X0241734Y0309779D01*
X0241035Y0309241D01*
X0240350Y0308687D01*
X0239678Y0308115D01*
X0239020Y0307528D01*
X0238377Y0306925D01*
X0237749Y0306306D01*
X0237136Y0305671D01*
X0236539Y0305022D01*
X0235958Y0304359D01*
X0235394Y0303682D01*
X0234846Y0302991D01*
X0234315Y0302286D01*
X0233802Y0301569D01*
X0233306Y0300840D01*
X0232829Y0300098D01*
X0232370Y0299346D01*
X0231929Y0298582D01*
X0231507Y0297807D01*
X0231104Y0297023D01*
X0230721Y0296229D01*
X0230357Y0295425D01*
X0230013Y0294614D01*
X0229689Y0293793D01*
X0229385Y0292966D01*
X0229102Y0292131D01*
X0228839Y0291289D01*
X0228597Y0290441D01*
X0228375Y0289587D01*
X0228175Y0288729D01*
X0227995Y0287865D01*
X0227837Y0286998D01*
X0227700Y0286127D01*
X0227585Y0285252D01*
X0173092Y0316240D02*
X0173011Y0316238D01*
X0172931Y0316233D01*
X0172850Y0316223D01*
X0172770Y0316210D01*
X0172691Y0316194D01*
X0172613Y0316173D01*
X0172536Y0316149D01*
X0172460Y0316122D01*
X0172385Y0316091D01*
X0172312Y0316057D01*
X0172240Y0316019D01*
X0172171Y0315978D01*
X0172103Y0315934D01*
X0172037Y0315887D01*
X0171974Y0315836D01*
X0171913Y0315783D01*
X0171855Y0315727D01*
X0171799Y0315669D01*
X0171746Y0315608D01*
X0171695Y0315545D01*
X0171648Y0315479D01*
X0171604Y0315411D01*
X0171563Y0315342D01*
X0171525Y0315270D01*
X0171491Y0315197D01*
X0171460Y0315122D01*
X0171433Y0315046D01*
X0171409Y0314969D01*
X0171388Y0314891D01*
X0171372Y0314812D01*
X0171359Y0314732D01*
X0171349Y0314651D01*
X0171344Y0314571D01*
X0171342Y0314490D01*
X0171342Y0301490D01*
X0171340Y0301327D01*
X0171334Y0301164D01*
X0171324Y0301001D01*
X0171310Y0300839D01*
X0171293Y0300676D01*
X0171271Y0300515D01*
X0171246Y0300354D01*
X0171216Y0300193D01*
X0171183Y0300033D01*
X0171146Y0299875D01*
X0171105Y0299717D01*
X0171060Y0299560D01*
X0171012Y0299404D01*
X0170959Y0299250D01*
X0170903Y0299096D01*
X0170844Y0298945D01*
X0170780Y0298794D01*
X0170713Y0298646D01*
X0170643Y0298498D01*
X0170569Y0298353D01*
X0170491Y0298210D01*
X0170410Y0298068D01*
X0170326Y0297928D01*
X0170238Y0297791D01*
X0170147Y0297656D01*
X0170053Y0297522D01*
X0169955Y0297392D01*
X0169855Y0297263D01*
X0169751Y0297137D01*
X0169644Y0297014D01*
X0169535Y0296893D01*
X0169422Y0296775D01*
X0169307Y0296660D01*
X0169189Y0296547D01*
X0169068Y0296438D01*
X0168945Y0296331D01*
X0168819Y0296227D01*
X0168690Y0296127D01*
X0168560Y0296029D01*
X0168426Y0295935D01*
X0168291Y0295844D01*
X0168154Y0295756D01*
X0168014Y0295672D01*
X0167872Y0295591D01*
X0167729Y0295513D01*
X0167584Y0295439D01*
X0167436Y0295369D01*
X0167288Y0295302D01*
X0167137Y0295238D01*
X0166986Y0295179D01*
X0166832Y0295123D01*
X0166678Y0295070D01*
X0166522Y0295022D01*
X0166365Y0294977D01*
X0166207Y0294936D01*
X0166049Y0294899D01*
X0165889Y0294866D01*
X0165728Y0294836D01*
X0165567Y0294811D01*
X0165406Y0294789D01*
X0165243Y0294772D01*
X0165081Y0294758D01*
X0164918Y0294748D01*
X0164755Y0294742D01*
X0164592Y0294740D01*
X0164429Y0294742D01*
X0164266Y0294748D01*
X0164103Y0294758D01*
X0163941Y0294772D01*
X0163778Y0294789D01*
X0163617Y0294811D01*
X0163456Y0294836D01*
X0163295Y0294866D01*
X0163135Y0294899D01*
X0162977Y0294936D01*
X0162819Y0294977D01*
X0162662Y0295022D01*
X0162506Y0295070D01*
X0162352Y0295123D01*
X0162198Y0295179D01*
X0162047Y0295238D01*
X0161896Y0295302D01*
X0161748Y0295369D01*
X0161600Y0295439D01*
X0161455Y0295513D01*
X0161312Y0295591D01*
X0161170Y0295672D01*
X0161030Y0295756D01*
X0160893Y0295844D01*
X0160758Y0295935D01*
X0160624Y0296029D01*
X0160494Y0296127D01*
X0160365Y0296227D01*
X0160239Y0296331D01*
X0160116Y0296438D01*
X0159995Y0296547D01*
X0159877Y0296660D01*
X0159762Y0296775D01*
X0159649Y0296893D01*
X0159540Y0297014D01*
X0159433Y0297137D01*
X0159329Y0297263D01*
X0159229Y0297392D01*
X0159131Y0297522D01*
X0159037Y0297656D01*
X0158946Y0297791D01*
X0158858Y0297928D01*
X0158774Y0298068D01*
X0158693Y0298210D01*
X0158615Y0298353D01*
X0158541Y0298498D01*
X0158471Y0298646D01*
X0158404Y0298794D01*
X0158340Y0298945D01*
X0158281Y0299096D01*
X0158225Y0299250D01*
X0158172Y0299404D01*
X0158124Y0299560D01*
X0158079Y0299717D01*
X0158038Y0299875D01*
X0158001Y0300033D01*
X0157968Y0300193D01*
X0157938Y0300354D01*
X0157913Y0300515D01*
X0157891Y0300676D01*
X0157874Y0300839D01*
X0157860Y0301001D01*
X0157850Y0301164D01*
X0157844Y0301327D01*
X0157842Y0301490D01*
X0157842Y0314490D01*
X0157840Y0314571D01*
X0157835Y0314651D01*
X0157825Y0314732D01*
X0157812Y0314812D01*
X0157796Y0314891D01*
X0157775Y0314969D01*
X0157751Y0315046D01*
X0157724Y0315122D01*
X0157693Y0315197D01*
X0157659Y0315270D01*
X0157621Y0315342D01*
X0157580Y0315411D01*
X0157536Y0315479D01*
X0157489Y0315545D01*
X0157438Y0315608D01*
X0157385Y0315669D01*
X0157329Y0315727D01*
X0157271Y0315783D01*
X0157210Y0315836D01*
X0157147Y0315887D01*
X0157081Y0315934D01*
X0157013Y0315978D01*
X0156944Y0316019D01*
X0156872Y0316057D01*
X0156799Y0316091D01*
X0156724Y0316122D01*
X0156648Y0316149D01*
X0156571Y0316173D01*
X0156493Y0316194D01*
X0156414Y0316210D01*
X0156334Y0316223D01*
X0156253Y0316233D01*
X0156173Y0316238D01*
X0156092Y0316240D01*
X0155231Y0316052D01*
X0154374Y0315843D01*
X0153523Y0315614D01*
X0152677Y0315363D01*
X0151838Y0315092D01*
X0151006Y0314800D01*
X0150181Y0314488D01*
X0149364Y0314156D01*
X0148556Y0313804D01*
X0147756Y0313432D01*
X0146966Y0313041D01*
X0146185Y0312631D01*
X0145415Y0312201D01*
X0144656Y0311753D01*
X0143907Y0311287D01*
X0143171Y0310802D01*
X0142446Y0310299D01*
X0141734Y0309779D01*
X0141035Y0309241D01*
X0140350Y0308687D01*
X0139678Y0308115D01*
X0139020Y0307528D01*
X0138377Y0306925D01*
X0137749Y0306306D01*
X0137136Y0305671D01*
X0136539Y0305022D01*
X0135958Y0304359D01*
X0135394Y0303682D01*
X0134846Y0302991D01*
X0134315Y0302286D01*
X0133802Y0301569D01*
X0133306Y0300840D01*
X0132829Y0300098D01*
X0132370Y0299346D01*
X0131929Y0298582D01*
X0131507Y0297807D01*
X0131104Y0297023D01*
X0130721Y0296229D01*
X0130357Y0295425D01*
X0130013Y0294614D01*
X0129689Y0293793D01*
X0129385Y0292966D01*
X0129102Y0292131D01*
X0128839Y0291289D01*
X0128597Y0290441D01*
X0128375Y0289587D01*
X0128175Y0288729D01*
X0127995Y0287865D01*
X0127837Y0286998D01*
X0127700Y0286127D01*
X0127585Y0285252D01*
X0127584Y0274228D02*
X0127731Y0273322D01*
X0127899Y0272420D01*
X0128090Y0271522D01*
X0128302Y0270629D01*
X0128537Y0269741D01*
X0128793Y0268860D01*
X0129071Y0267985D01*
X0129370Y0267117D01*
X0129690Y0266257D01*
X0130031Y0265405D01*
X0130393Y0264561D01*
X0130776Y0263727D01*
X0131179Y0262902D01*
X0131602Y0262088D01*
X0132045Y0261284D01*
X0132507Y0260491D01*
X0132989Y0259709D01*
X0133490Y0258940D01*
X0134010Y0258183D01*
X0134548Y0257440D01*
X0135104Y0256709D01*
X0135678Y0255993D01*
X0136269Y0255291D01*
X0136877Y0254603D01*
X0137502Y0253931D01*
X0138143Y0253274D01*
X0138801Y0252633D01*
X0139473Y0252009D01*
X0140161Y0251401D01*
X0140864Y0250810D01*
X0141581Y0250237D01*
X0142311Y0249681D01*
X0143055Y0249144D01*
X0143812Y0248625D01*
X0144582Y0248124D01*
X0145363Y0247643D01*
X0146157Y0247181D01*
X0146961Y0246738D01*
X0147776Y0246316D01*
X0148601Y0245913D01*
X0149435Y0245531D01*
X0150279Y0245170D01*
X0151131Y0244829D01*
X0151992Y0244509D01*
X0152860Y0244211D01*
X0153735Y0243934D01*
X0154617Y0243678D01*
X0155504Y0243444D01*
X0156397Y0243232D01*
X0157295Y0243042D01*
X0158198Y0242874D01*
X0159104Y0242729D01*
X0160014Y0242605D01*
X0160926Y0242504D01*
X0161841Y0242425D01*
X0162757Y0242369D01*
X0163674Y0242335D01*
X0164592Y0242324D01*
X0165510Y0242335D01*
X0166427Y0242369D01*
X0167343Y0242425D01*
X0168258Y0242504D01*
X0169170Y0242605D01*
X0170080Y0242729D01*
X0170986Y0242874D01*
X0171889Y0243042D01*
X0172787Y0243232D01*
X0173680Y0243444D01*
X0174567Y0243678D01*
X0175449Y0243934D01*
X0176324Y0244211D01*
X0177192Y0244509D01*
X0178053Y0244829D01*
X0178905Y0245170D01*
X0179749Y0245531D01*
X0180583Y0245913D01*
X0181408Y0246316D01*
X0182223Y0246738D01*
X0183027Y0247181D01*
X0183821Y0247643D01*
X0184602Y0248124D01*
X0185372Y0248625D01*
X0186129Y0249144D01*
X0186873Y0249681D01*
X0187603Y0250237D01*
X0188320Y0250810D01*
X0189023Y0251401D01*
X0189711Y0252009D01*
X0190383Y0252633D01*
X0191041Y0253274D01*
X0191682Y0253931D01*
X0192307Y0254603D01*
X0192915Y0255291D01*
X0193506Y0255993D01*
X0194080Y0256709D01*
X0194636Y0257440D01*
X0195174Y0258183D01*
X0195694Y0258940D01*
X0196195Y0259709D01*
X0196677Y0260491D01*
X0197139Y0261284D01*
X0197582Y0262088D01*
X0198005Y0262902D01*
X0198408Y0263727D01*
X0198791Y0264561D01*
X0199153Y0265405D01*
X0199494Y0266257D01*
X0199814Y0267117D01*
X0200113Y0267985D01*
X0200391Y0268860D01*
X0200647Y0269741D01*
X0200882Y0270629D01*
X0201094Y0271522D01*
X0201285Y0272420D01*
X0201453Y0273322D01*
X0201600Y0274228D01*
X0201600Y0285252D02*
X0201485Y0286127D01*
X0201348Y0286998D01*
X0201190Y0287865D01*
X0201010Y0288729D01*
X0200810Y0289587D01*
X0200588Y0290441D01*
X0200346Y0291289D01*
X0200083Y0292131D01*
X0199800Y0292966D01*
X0199496Y0293793D01*
X0199172Y0294614D01*
X0198828Y0295425D01*
X0198464Y0296229D01*
X0198081Y0297023D01*
X0197678Y0297807D01*
X0197256Y0298582D01*
X0196815Y0299346D01*
X0196356Y0300098D01*
X0195879Y0300840D01*
X0195383Y0301569D01*
X0194870Y0302286D01*
X0194339Y0302991D01*
X0193791Y0303682D01*
X0193227Y0304359D01*
X0192646Y0305022D01*
X0192049Y0305671D01*
X0191436Y0306306D01*
X0190808Y0306925D01*
X0190165Y0307528D01*
X0189507Y0308115D01*
X0188835Y0308687D01*
X0188150Y0309241D01*
X0187451Y0309779D01*
X0186739Y0310299D01*
X0186014Y0310802D01*
X0185278Y0311287D01*
X0184529Y0311753D01*
X0183770Y0312201D01*
X0183000Y0312631D01*
X0182219Y0313041D01*
X0181429Y0313432D01*
X0180629Y0313804D01*
X0179821Y0314156D01*
X0179004Y0314488D01*
X0178179Y0314800D01*
X0177347Y0315092D01*
X0176508Y0315363D01*
X0175662Y0315614D01*
X0174811Y0315843D01*
X0173954Y0316052D01*
X0173093Y0316240D01*
X0073092Y0316240D02*
X0073011Y0316238D01*
X0072931Y0316233D01*
X0072850Y0316223D01*
X0072770Y0316210D01*
X0072691Y0316194D01*
X0072613Y0316173D01*
X0072536Y0316149D01*
X0072460Y0316122D01*
X0072385Y0316091D01*
X0072312Y0316057D01*
X0072240Y0316019D01*
X0072171Y0315978D01*
X0072103Y0315934D01*
X0072037Y0315887D01*
X0071974Y0315836D01*
X0071913Y0315783D01*
X0071855Y0315727D01*
X0071799Y0315669D01*
X0071746Y0315608D01*
X0071695Y0315545D01*
X0071648Y0315479D01*
X0071604Y0315411D01*
X0071563Y0315342D01*
X0071525Y0315270D01*
X0071491Y0315197D01*
X0071460Y0315122D01*
X0071433Y0315046D01*
X0071409Y0314969D01*
X0071388Y0314891D01*
X0071372Y0314812D01*
X0071359Y0314732D01*
X0071349Y0314651D01*
X0071344Y0314571D01*
X0071342Y0314490D01*
X0071342Y0301490D01*
X0071340Y0301327D01*
X0071334Y0301164D01*
X0071324Y0301001D01*
X0071310Y0300839D01*
X0071293Y0300676D01*
X0071271Y0300515D01*
X0071246Y0300354D01*
X0071216Y0300193D01*
X0071183Y0300033D01*
X0071146Y0299875D01*
X0071105Y0299717D01*
X0071060Y0299560D01*
X0071012Y0299404D01*
X0070959Y0299250D01*
X0070903Y0299096D01*
X0070844Y0298945D01*
X0070780Y0298794D01*
X0070713Y0298646D01*
X0070643Y0298498D01*
X0070569Y0298353D01*
X0070491Y0298210D01*
X0070410Y0298068D01*
X0070326Y0297928D01*
X0070238Y0297791D01*
X0070147Y0297656D01*
X0070053Y0297522D01*
X0069955Y0297392D01*
X0069855Y0297263D01*
X0069751Y0297137D01*
X0069644Y0297014D01*
X0069535Y0296893D01*
X0069422Y0296775D01*
X0069307Y0296660D01*
X0069189Y0296547D01*
X0069068Y0296438D01*
X0068945Y0296331D01*
X0068819Y0296227D01*
X0068690Y0296127D01*
X0068560Y0296029D01*
X0068426Y0295935D01*
X0068291Y0295844D01*
X0068154Y0295756D01*
X0068014Y0295672D01*
X0067872Y0295591D01*
X0067729Y0295513D01*
X0067584Y0295439D01*
X0067436Y0295369D01*
X0067288Y0295302D01*
X0067137Y0295238D01*
X0066986Y0295179D01*
X0066832Y0295123D01*
X0066678Y0295070D01*
X0066522Y0295022D01*
X0066365Y0294977D01*
X0066207Y0294936D01*
X0066049Y0294899D01*
X0065889Y0294866D01*
X0065728Y0294836D01*
X0065567Y0294811D01*
X0065406Y0294789D01*
X0065243Y0294772D01*
X0065081Y0294758D01*
X0064918Y0294748D01*
X0064755Y0294742D01*
X0064592Y0294740D01*
X0064429Y0294742D01*
X0064266Y0294748D01*
X0064103Y0294758D01*
X0063941Y0294772D01*
X0063778Y0294789D01*
X0063617Y0294811D01*
X0063456Y0294836D01*
X0063295Y0294866D01*
X0063135Y0294899D01*
X0062977Y0294936D01*
X0062819Y0294977D01*
X0062662Y0295022D01*
X0062506Y0295070D01*
X0062352Y0295123D01*
X0062198Y0295179D01*
X0062047Y0295238D01*
X0061896Y0295302D01*
X0061748Y0295369D01*
X0061600Y0295439D01*
X0061455Y0295513D01*
X0061312Y0295591D01*
X0061170Y0295672D01*
X0061030Y0295756D01*
X0060893Y0295844D01*
X0060758Y0295935D01*
X0060624Y0296029D01*
X0060494Y0296127D01*
X0060365Y0296227D01*
X0060239Y0296331D01*
X0060116Y0296438D01*
X0059995Y0296547D01*
X0059877Y0296660D01*
X0059762Y0296775D01*
X0059649Y0296893D01*
X0059540Y0297014D01*
X0059433Y0297137D01*
X0059329Y0297263D01*
X0059229Y0297392D01*
X0059131Y0297522D01*
X0059037Y0297656D01*
X0058946Y0297791D01*
X0058858Y0297928D01*
X0058774Y0298068D01*
X0058693Y0298210D01*
X0058615Y0298353D01*
X0058541Y0298498D01*
X0058471Y0298646D01*
X0058404Y0298794D01*
X0058340Y0298945D01*
X0058281Y0299096D01*
X0058225Y0299250D01*
X0058172Y0299404D01*
X0058124Y0299560D01*
X0058079Y0299717D01*
X0058038Y0299875D01*
X0058001Y0300033D01*
X0057968Y0300193D01*
X0057938Y0300354D01*
X0057913Y0300515D01*
X0057891Y0300676D01*
X0057874Y0300839D01*
X0057860Y0301001D01*
X0057850Y0301164D01*
X0057844Y0301327D01*
X0057842Y0301490D01*
X0057842Y0314490D01*
X0057840Y0314571D01*
X0057835Y0314651D01*
X0057825Y0314732D01*
X0057812Y0314812D01*
X0057796Y0314891D01*
X0057775Y0314969D01*
X0057751Y0315046D01*
X0057724Y0315122D01*
X0057693Y0315197D01*
X0057659Y0315270D01*
X0057621Y0315342D01*
X0057580Y0315411D01*
X0057536Y0315479D01*
X0057489Y0315545D01*
X0057438Y0315608D01*
X0057385Y0315669D01*
X0057329Y0315727D01*
X0057271Y0315783D01*
X0057210Y0315836D01*
X0057147Y0315887D01*
X0057081Y0315934D01*
X0057013Y0315978D01*
X0056944Y0316019D01*
X0056872Y0316057D01*
X0056799Y0316091D01*
X0056724Y0316122D01*
X0056648Y0316149D01*
X0056571Y0316173D01*
X0056493Y0316194D01*
X0056414Y0316210D01*
X0056334Y0316223D01*
X0056253Y0316233D01*
X0056173Y0316238D01*
X0056092Y0316240D01*
X0055231Y0316052D01*
X0054374Y0315843D01*
X0053523Y0315614D01*
X0052677Y0315363D01*
X0051838Y0315092D01*
X0051006Y0314800D01*
X0050181Y0314488D01*
X0049364Y0314156D01*
X0048556Y0313804D01*
X0047756Y0313432D01*
X0046966Y0313041D01*
X0046185Y0312631D01*
X0045415Y0312201D01*
X0044656Y0311753D01*
X0043907Y0311287D01*
X0043171Y0310802D01*
X0042446Y0310299D01*
X0041734Y0309779D01*
X0041035Y0309241D01*
X0040350Y0308687D01*
X0039678Y0308115D01*
X0039020Y0307528D01*
X0038377Y0306925D01*
X0037749Y0306306D01*
X0037136Y0305671D01*
X0036539Y0305022D01*
X0035958Y0304359D01*
X0035394Y0303682D01*
X0034846Y0302991D01*
X0034315Y0302286D01*
X0033802Y0301569D01*
X0033306Y0300840D01*
X0032829Y0300098D01*
X0032370Y0299346D01*
X0031929Y0298582D01*
X0031507Y0297807D01*
X0031104Y0297023D01*
X0030721Y0296229D01*
X0030357Y0295425D01*
X0030013Y0294614D01*
X0029689Y0293793D01*
X0029385Y0292966D01*
X0029102Y0292131D01*
X0028839Y0291289D01*
X0028597Y0290441D01*
X0028375Y0289587D01*
X0028175Y0288729D01*
X0027995Y0287865D01*
X0027837Y0286998D01*
X0027700Y0286127D01*
X0027585Y0285252D01*
X0027584Y0274228D02*
X0027731Y0273322D01*
X0027899Y0272420D01*
X0028090Y0271522D01*
X0028302Y0270629D01*
X0028537Y0269741D01*
X0028793Y0268860D01*
X0029071Y0267985D01*
X0029370Y0267117D01*
X0029690Y0266257D01*
X0030031Y0265405D01*
X0030393Y0264561D01*
X0030776Y0263727D01*
X0031179Y0262902D01*
X0031602Y0262088D01*
X0032045Y0261284D01*
X0032507Y0260491D01*
X0032989Y0259709D01*
X0033490Y0258940D01*
X0034010Y0258183D01*
X0034548Y0257440D01*
X0035104Y0256709D01*
X0035678Y0255993D01*
X0036269Y0255291D01*
X0036877Y0254603D01*
X0037502Y0253931D01*
X0038143Y0253274D01*
X0038801Y0252633D01*
X0039473Y0252009D01*
X0040161Y0251401D01*
X0040864Y0250810D01*
X0041581Y0250237D01*
X0042311Y0249681D01*
X0043055Y0249144D01*
X0043812Y0248625D01*
X0044582Y0248124D01*
X0045363Y0247643D01*
X0046157Y0247181D01*
X0046961Y0246738D01*
X0047776Y0246316D01*
X0048601Y0245913D01*
X0049435Y0245531D01*
X0050279Y0245170D01*
X0051131Y0244829D01*
X0051992Y0244509D01*
X0052860Y0244211D01*
X0053735Y0243934D01*
X0054617Y0243678D01*
X0055504Y0243444D01*
X0056397Y0243232D01*
X0057295Y0243042D01*
X0058198Y0242874D01*
X0059104Y0242729D01*
X0060014Y0242605D01*
X0060926Y0242504D01*
X0061841Y0242425D01*
X0062757Y0242369D01*
X0063674Y0242335D01*
X0064592Y0242324D01*
X0065510Y0242335D01*
X0066427Y0242369D01*
X0067343Y0242425D01*
X0068258Y0242504D01*
X0069170Y0242605D01*
X0070080Y0242729D01*
X0070986Y0242874D01*
X0071889Y0243042D01*
X0072787Y0243232D01*
X0073680Y0243444D01*
X0074567Y0243678D01*
X0075449Y0243934D01*
X0076324Y0244211D01*
X0077192Y0244509D01*
X0078053Y0244829D01*
X0078905Y0245170D01*
X0079749Y0245531D01*
X0080583Y0245913D01*
X0081408Y0246316D01*
X0082223Y0246738D01*
X0083027Y0247181D01*
X0083821Y0247643D01*
X0084602Y0248124D01*
X0085372Y0248625D01*
X0086129Y0249144D01*
X0086873Y0249681D01*
X0087603Y0250237D01*
X0088320Y0250810D01*
X0089023Y0251401D01*
X0089711Y0252009D01*
X0090383Y0252633D01*
X0091041Y0253274D01*
X0091682Y0253931D01*
X0092307Y0254603D01*
X0092915Y0255291D01*
X0093506Y0255993D01*
X0094080Y0256709D01*
X0094636Y0257440D01*
X0095174Y0258183D01*
X0095694Y0258940D01*
X0096195Y0259709D01*
X0096677Y0260491D01*
X0097139Y0261284D01*
X0097582Y0262088D01*
X0098005Y0262902D01*
X0098408Y0263727D01*
X0098791Y0264561D01*
X0099153Y0265405D01*
X0099494Y0266257D01*
X0099814Y0267117D01*
X0100113Y0267985D01*
X0100391Y0268860D01*
X0100647Y0269741D01*
X0100882Y0270629D01*
X0101094Y0271522D01*
X0101285Y0272420D01*
X0101453Y0273322D01*
X0101600Y0274228D01*
X0101600Y0285252D02*
X0101485Y0286127D01*
X0101348Y0286998D01*
X0101190Y0287865D01*
X0101010Y0288729D01*
X0100810Y0289587D01*
X0100588Y0290441D01*
X0100346Y0291289D01*
X0100083Y0292131D01*
X0099800Y0292966D01*
X0099496Y0293793D01*
X0099172Y0294614D01*
X0098828Y0295425D01*
X0098464Y0296229D01*
X0098081Y0297023D01*
X0097678Y0297807D01*
X0097256Y0298582D01*
X0096815Y0299346D01*
X0096356Y0300098D01*
X0095879Y0300840D01*
X0095383Y0301569D01*
X0094870Y0302286D01*
X0094339Y0302991D01*
X0093791Y0303682D01*
X0093227Y0304359D01*
X0092646Y0305022D01*
X0092049Y0305671D01*
X0091436Y0306306D01*
X0090808Y0306925D01*
X0090165Y0307528D01*
X0089507Y0308115D01*
X0088835Y0308687D01*
X0088150Y0309241D01*
X0087451Y0309779D01*
X0086739Y0310299D01*
X0086014Y0310802D01*
X0085278Y0311287D01*
X0084529Y0311753D01*
X0083770Y0312201D01*
X0083000Y0312631D01*
X0082219Y0313041D01*
X0081429Y0313432D01*
X0080629Y0313804D01*
X0079821Y0314156D01*
X0079004Y0314488D01*
X0078179Y0314800D01*
X0077347Y0315092D01*
X0076508Y0315363D01*
X0075662Y0315614D01*
X0074811Y0315843D01*
X0073954Y0316052D01*
X0073093Y0316240D01*
X0073092Y0216240D02*
X0073011Y0216238D01*
X0072931Y0216233D01*
X0072850Y0216223D01*
X0072770Y0216210D01*
X0072691Y0216194D01*
X0072613Y0216173D01*
X0072536Y0216149D01*
X0072460Y0216122D01*
X0072385Y0216091D01*
X0072312Y0216057D01*
X0072240Y0216019D01*
X0072171Y0215978D01*
X0072103Y0215934D01*
X0072037Y0215887D01*
X0071974Y0215836D01*
X0071913Y0215783D01*
X0071855Y0215727D01*
X0071799Y0215669D01*
X0071746Y0215608D01*
X0071695Y0215545D01*
X0071648Y0215479D01*
X0071604Y0215411D01*
X0071563Y0215342D01*
X0071525Y0215270D01*
X0071491Y0215197D01*
X0071460Y0215122D01*
X0071433Y0215046D01*
X0071409Y0214969D01*
X0071388Y0214891D01*
X0071372Y0214812D01*
X0071359Y0214732D01*
X0071349Y0214651D01*
X0071344Y0214571D01*
X0071342Y0214490D01*
X0071342Y0201490D01*
X0071340Y0201327D01*
X0071334Y0201164D01*
X0071324Y0201001D01*
X0071310Y0200839D01*
X0071293Y0200676D01*
X0071271Y0200515D01*
X0071246Y0200354D01*
X0071216Y0200193D01*
X0071183Y0200033D01*
X0071146Y0199875D01*
X0071105Y0199717D01*
X0071060Y0199560D01*
X0071012Y0199404D01*
X0070959Y0199250D01*
X0070903Y0199096D01*
X0070844Y0198945D01*
X0070780Y0198794D01*
X0070713Y0198646D01*
X0070643Y0198498D01*
X0070569Y0198353D01*
X0070491Y0198210D01*
X0070410Y0198068D01*
X0070326Y0197928D01*
X0070238Y0197791D01*
X0070147Y0197656D01*
X0070053Y0197522D01*
X0069955Y0197392D01*
X0069855Y0197263D01*
X0069751Y0197137D01*
X0069644Y0197014D01*
X0069535Y0196893D01*
X0069422Y0196775D01*
X0069307Y0196660D01*
X0069189Y0196547D01*
X0069068Y0196438D01*
X0068945Y0196331D01*
X0068819Y0196227D01*
X0068690Y0196127D01*
X0068560Y0196029D01*
X0068426Y0195935D01*
X0068291Y0195844D01*
X0068154Y0195756D01*
X0068014Y0195672D01*
X0067872Y0195591D01*
X0067729Y0195513D01*
X0067584Y0195439D01*
X0067436Y0195369D01*
X0067288Y0195302D01*
X0067137Y0195238D01*
X0066986Y0195179D01*
X0066832Y0195123D01*
X0066678Y0195070D01*
X0066522Y0195022D01*
X0066365Y0194977D01*
X0066207Y0194936D01*
X0066049Y0194899D01*
X0065889Y0194866D01*
X0065728Y0194836D01*
X0065567Y0194811D01*
X0065406Y0194789D01*
X0065243Y0194772D01*
X0065081Y0194758D01*
X0064918Y0194748D01*
X0064755Y0194742D01*
X0064592Y0194740D01*
X0064429Y0194742D01*
X0064266Y0194748D01*
X0064103Y0194758D01*
X0063941Y0194772D01*
X0063778Y0194789D01*
X0063617Y0194811D01*
X0063456Y0194836D01*
X0063295Y0194866D01*
X0063135Y0194899D01*
X0062977Y0194936D01*
X0062819Y0194977D01*
X0062662Y0195022D01*
X0062506Y0195070D01*
X0062352Y0195123D01*
X0062198Y0195179D01*
X0062047Y0195238D01*
X0061896Y0195302D01*
X0061748Y0195369D01*
X0061600Y0195439D01*
X0061455Y0195513D01*
X0061312Y0195591D01*
X0061170Y0195672D01*
X0061030Y0195756D01*
X0060893Y0195844D01*
X0060758Y0195935D01*
X0060624Y0196029D01*
X0060494Y0196127D01*
X0060365Y0196227D01*
X0060239Y0196331D01*
X0060116Y0196438D01*
X0059995Y0196547D01*
X0059877Y0196660D01*
X0059762Y0196775D01*
X0059649Y0196893D01*
X0059540Y0197014D01*
X0059433Y0197137D01*
X0059329Y0197263D01*
X0059229Y0197392D01*
X0059131Y0197522D01*
X0059037Y0197656D01*
X0058946Y0197791D01*
X0058858Y0197928D01*
X0058774Y0198068D01*
X0058693Y0198210D01*
X0058615Y0198353D01*
X0058541Y0198498D01*
X0058471Y0198646D01*
X0058404Y0198794D01*
X0058340Y0198945D01*
X0058281Y0199096D01*
X0058225Y0199250D01*
X0058172Y0199404D01*
X0058124Y0199560D01*
X0058079Y0199717D01*
X0058038Y0199875D01*
X0058001Y0200033D01*
X0057968Y0200193D01*
X0057938Y0200354D01*
X0057913Y0200515D01*
X0057891Y0200676D01*
X0057874Y0200839D01*
X0057860Y0201001D01*
X0057850Y0201164D01*
X0057844Y0201327D01*
X0057842Y0201490D01*
X0057842Y0214490D01*
X0057840Y0214571D01*
X0057835Y0214651D01*
X0057825Y0214732D01*
X0057812Y0214812D01*
X0057796Y0214891D01*
X0057775Y0214969D01*
X0057751Y0215046D01*
X0057724Y0215122D01*
X0057693Y0215197D01*
X0057659Y0215270D01*
X0057621Y0215342D01*
X0057580Y0215411D01*
X0057536Y0215479D01*
X0057489Y0215545D01*
X0057438Y0215608D01*
X0057385Y0215669D01*
X0057329Y0215727D01*
X0057271Y0215783D01*
X0057210Y0215836D01*
X0057147Y0215887D01*
X0057081Y0215934D01*
X0057013Y0215978D01*
X0056944Y0216019D01*
X0056872Y0216057D01*
X0056799Y0216091D01*
X0056724Y0216122D01*
X0056648Y0216149D01*
X0056571Y0216173D01*
X0056493Y0216194D01*
X0056414Y0216210D01*
X0056334Y0216223D01*
X0056253Y0216233D01*
X0056173Y0216238D01*
X0056092Y0216240D01*
X0055231Y0216052D01*
X0054374Y0215843D01*
X0053523Y0215614D01*
X0052677Y0215363D01*
X0051838Y0215092D01*
X0051006Y0214800D01*
X0050181Y0214488D01*
X0049364Y0214156D01*
X0048556Y0213804D01*
X0047756Y0213432D01*
X0046966Y0213041D01*
X0046185Y0212631D01*
X0045415Y0212201D01*
X0044656Y0211753D01*
X0043907Y0211287D01*
X0043171Y0210802D01*
X0042446Y0210299D01*
X0041734Y0209779D01*
X0041035Y0209241D01*
X0040350Y0208687D01*
X0039678Y0208115D01*
X0039020Y0207528D01*
X0038377Y0206925D01*
X0037749Y0206306D01*
X0037136Y0205671D01*
X0036539Y0205022D01*
X0035958Y0204359D01*
X0035394Y0203682D01*
X0034846Y0202991D01*
X0034315Y0202286D01*
X0033802Y0201569D01*
X0033306Y0200840D01*
X0032829Y0200098D01*
X0032370Y0199346D01*
X0031929Y0198582D01*
X0031507Y0197807D01*
X0031104Y0197023D01*
X0030721Y0196229D01*
X0030357Y0195425D01*
X0030013Y0194614D01*
X0029689Y0193793D01*
X0029385Y0192966D01*
X0029102Y0192131D01*
X0028839Y0191289D01*
X0028597Y0190441D01*
X0028375Y0189587D01*
X0028175Y0188729D01*
X0027995Y0187865D01*
X0027837Y0186998D01*
X0027700Y0186127D01*
X0027585Y0185252D01*
X0027584Y0174228D02*
X0027731Y0173322D01*
X0027899Y0172420D01*
X0028090Y0171522D01*
X0028302Y0170629D01*
X0028537Y0169741D01*
X0028793Y0168860D01*
X0029071Y0167985D01*
X0029370Y0167117D01*
X0029690Y0166257D01*
X0030031Y0165405D01*
X0030393Y0164561D01*
X0030776Y0163727D01*
X0031179Y0162902D01*
X0031602Y0162088D01*
X0032045Y0161284D01*
X0032507Y0160491D01*
X0032989Y0159709D01*
X0033490Y0158940D01*
X0034010Y0158183D01*
X0034548Y0157440D01*
X0035104Y0156709D01*
X0035678Y0155993D01*
X0036269Y0155291D01*
X0036877Y0154603D01*
X0037502Y0153931D01*
X0038143Y0153274D01*
X0038801Y0152633D01*
X0039473Y0152009D01*
X0040161Y0151401D01*
X0040864Y0150810D01*
X0041581Y0150237D01*
X0042311Y0149681D01*
X0043055Y0149144D01*
X0043812Y0148625D01*
X0044582Y0148124D01*
X0045363Y0147643D01*
X0046157Y0147181D01*
X0046961Y0146738D01*
X0047776Y0146316D01*
X0048601Y0145913D01*
X0049435Y0145531D01*
X0050279Y0145170D01*
X0051131Y0144829D01*
X0051992Y0144509D01*
X0052860Y0144211D01*
X0053735Y0143934D01*
X0054617Y0143678D01*
X0055504Y0143444D01*
X0056397Y0143232D01*
X0057295Y0143042D01*
X0058198Y0142874D01*
X0059104Y0142729D01*
X0060014Y0142605D01*
X0060926Y0142504D01*
X0061841Y0142425D01*
X0062757Y0142369D01*
X0063674Y0142335D01*
X0064592Y0142324D01*
X0065510Y0142335D01*
X0066427Y0142369D01*
X0067343Y0142425D01*
X0068258Y0142504D01*
X0069170Y0142605D01*
X0070080Y0142729D01*
X0070986Y0142874D01*
X0071889Y0143042D01*
X0072787Y0143232D01*
X0073680Y0143444D01*
X0074567Y0143678D01*
X0075449Y0143934D01*
X0076324Y0144211D01*
X0077192Y0144509D01*
X0078053Y0144829D01*
X0078905Y0145170D01*
X0079749Y0145531D01*
X0080583Y0145913D01*
X0081408Y0146316D01*
X0082223Y0146738D01*
X0083027Y0147181D01*
X0083821Y0147643D01*
X0084602Y0148124D01*
X0085372Y0148625D01*
X0086129Y0149144D01*
X0086873Y0149681D01*
X0087603Y0150237D01*
X0088320Y0150810D01*
X0089023Y0151401D01*
X0089711Y0152009D01*
X0090383Y0152633D01*
X0091041Y0153274D01*
X0091682Y0153931D01*
X0092307Y0154603D01*
X0092915Y0155291D01*
X0093506Y0155993D01*
X0094080Y0156709D01*
X0094636Y0157440D01*
X0095174Y0158183D01*
X0095694Y0158940D01*
X0096195Y0159709D01*
X0096677Y0160491D01*
X0097139Y0161284D01*
X0097582Y0162088D01*
X0098005Y0162902D01*
X0098408Y0163727D01*
X0098791Y0164561D01*
X0099153Y0165405D01*
X0099494Y0166257D01*
X0099814Y0167117D01*
X0100113Y0167985D01*
X0100391Y0168860D01*
X0100647Y0169741D01*
X0100882Y0170629D01*
X0101094Y0171522D01*
X0101285Y0172420D01*
X0101453Y0173322D01*
X0101600Y0174228D01*
X0101600Y0185252D02*
X0101485Y0186127D01*
X0101348Y0186998D01*
X0101190Y0187865D01*
X0101010Y0188729D01*
X0100810Y0189587D01*
X0100588Y0190441D01*
X0100346Y0191289D01*
X0100083Y0192131D01*
X0099800Y0192966D01*
X0099496Y0193793D01*
X0099172Y0194614D01*
X0098828Y0195425D01*
X0098464Y0196229D01*
X0098081Y0197023D01*
X0097678Y0197807D01*
X0097256Y0198582D01*
X0096815Y0199346D01*
X0096356Y0200098D01*
X0095879Y0200840D01*
X0095383Y0201569D01*
X0094870Y0202286D01*
X0094339Y0202991D01*
X0093791Y0203682D01*
X0093227Y0204359D01*
X0092646Y0205022D01*
X0092049Y0205671D01*
X0091436Y0206306D01*
X0090808Y0206925D01*
X0090165Y0207528D01*
X0089507Y0208115D01*
X0088835Y0208687D01*
X0088150Y0209241D01*
X0087451Y0209779D01*
X0086739Y0210299D01*
X0086014Y0210802D01*
X0085278Y0211287D01*
X0084529Y0211753D01*
X0083770Y0212201D01*
X0083000Y0212631D01*
X0082219Y0213041D01*
X0081429Y0213432D01*
X0080629Y0213804D01*
X0079821Y0214156D01*
X0079004Y0214488D01*
X0078179Y0214800D01*
X0077347Y0215092D01*
X0076508Y0215363D01*
X0075662Y0215614D01*
X0074811Y0215843D01*
X0073954Y0216052D01*
X0073093Y0216240D01*
X0256092Y0116240D02*
X0256173Y0116238D01*
X0256253Y0116233D01*
X0256334Y0116223D01*
X0256414Y0116210D01*
X0256493Y0116194D01*
X0256571Y0116173D01*
X0256648Y0116149D01*
X0256724Y0116122D01*
X0256799Y0116091D01*
X0256872Y0116057D01*
X0256944Y0116019D01*
X0257013Y0115978D01*
X0257081Y0115934D01*
X0257147Y0115887D01*
X0257210Y0115836D01*
X0257271Y0115783D01*
X0257329Y0115727D01*
X0257385Y0115669D01*
X0257438Y0115608D01*
X0257489Y0115545D01*
X0257536Y0115479D01*
X0257580Y0115411D01*
X0257621Y0115342D01*
X0257659Y0115270D01*
X0257693Y0115197D01*
X0257724Y0115122D01*
X0257751Y0115046D01*
X0257775Y0114969D01*
X0257796Y0114891D01*
X0257812Y0114812D01*
X0257825Y0114732D01*
X0257835Y0114651D01*
X0257840Y0114571D01*
X0257842Y0114490D01*
X0257842Y0101490D01*
X0264592Y0094740D02*
X0264755Y0094742D01*
X0264918Y0094748D01*
X0265081Y0094758D01*
X0265243Y0094772D01*
X0265406Y0094789D01*
X0265567Y0094811D01*
X0265728Y0094836D01*
X0265889Y0094866D01*
X0266049Y0094899D01*
X0266207Y0094936D01*
X0266365Y0094977D01*
X0266522Y0095022D01*
X0266678Y0095070D01*
X0266832Y0095123D01*
X0266986Y0095179D01*
X0267137Y0095238D01*
X0267288Y0095302D01*
X0267436Y0095369D01*
X0267584Y0095439D01*
X0267729Y0095513D01*
X0267872Y0095591D01*
X0268014Y0095672D01*
X0268154Y0095756D01*
X0268291Y0095844D01*
X0268426Y0095935D01*
X0268560Y0096029D01*
X0268690Y0096127D01*
X0268819Y0096227D01*
X0268945Y0096331D01*
X0269068Y0096438D01*
X0269189Y0096547D01*
X0269307Y0096660D01*
X0269422Y0096775D01*
X0269535Y0096893D01*
X0269644Y0097014D01*
X0269751Y0097137D01*
X0269855Y0097263D01*
X0269955Y0097392D01*
X0270053Y0097522D01*
X0270147Y0097656D01*
X0270238Y0097791D01*
X0270326Y0097928D01*
X0270410Y0098068D01*
X0270491Y0098210D01*
X0270569Y0098353D01*
X0270643Y0098498D01*
X0270713Y0098646D01*
X0270780Y0098794D01*
X0270844Y0098945D01*
X0270903Y0099096D01*
X0270959Y0099250D01*
X0271012Y0099404D01*
X0271060Y0099560D01*
X0271105Y0099717D01*
X0271146Y0099875D01*
X0271183Y0100033D01*
X0271216Y0100193D01*
X0271246Y0100354D01*
X0271271Y0100515D01*
X0271293Y0100676D01*
X0271310Y0100839D01*
X0271324Y0101001D01*
X0271334Y0101164D01*
X0271340Y0101327D01*
X0271342Y0101490D01*
X0271342Y0114490D01*
X0271344Y0114571D01*
X0271349Y0114651D01*
X0271359Y0114732D01*
X0271372Y0114812D01*
X0271388Y0114891D01*
X0271409Y0114969D01*
X0271433Y0115046D01*
X0271460Y0115122D01*
X0271491Y0115197D01*
X0271525Y0115270D01*
X0271563Y0115342D01*
X0271604Y0115411D01*
X0271648Y0115479D01*
X0271695Y0115545D01*
X0271746Y0115608D01*
X0271799Y0115669D01*
X0271855Y0115727D01*
X0271913Y0115783D01*
X0271974Y0115836D01*
X0272037Y0115887D01*
X0272103Y0115934D01*
X0272171Y0115978D01*
X0272240Y0116019D01*
X0272312Y0116057D01*
X0272385Y0116091D01*
X0272460Y0116122D01*
X0272536Y0116149D01*
X0272613Y0116173D01*
X0272691Y0116194D01*
X0272770Y0116210D01*
X0272850Y0116223D01*
X0272931Y0116233D01*
X0273011Y0116238D01*
X0273092Y0116240D01*
X0257842Y0101490D02*
X0257844Y0101327D01*
X0257850Y0101164D01*
X0257860Y0101001D01*
X0257874Y0100839D01*
X0257891Y0100676D01*
X0257913Y0100515D01*
X0257938Y0100354D01*
X0257968Y0100193D01*
X0258001Y0100033D01*
X0258038Y0099875D01*
X0258079Y0099717D01*
X0258124Y0099560D01*
X0258172Y0099404D01*
X0258225Y0099250D01*
X0258281Y0099096D01*
X0258340Y0098945D01*
X0258404Y0098794D01*
X0258471Y0098646D01*
X0258541Y0098498D01*
X0258615Y0098353D01*
X0258693Y0098210D01*
X0258774Y0098068D01*
X0258858Y0097928D01*
X0258946Y0097791D01*
X0259037Y0097656D01*
X0259131Y0097522D01*
X0259229Y0097392D01*
X0259329Y0097263D01*
X0259433Y0097137D01*
X0259540Y0097014D01*
X0259649Y0096893D01*
X0259762Y0096775D01*
X0259877Y0096660D01*
X0259995Y0096547D01*
X0260116Y0096438D01*
X0260239Y0096331D01*
X0260365Y0096227D01*
X0260494Y0096127D01*
X0260624Y0096029D01*
X0260758Y0095935D01*
X0260893Y0095844D01*
X0261030Y0095756D01*
X0261170Y0095672D01*
X0261312Y0095591D01*
X0261455Y0095513D01*
X0261600Y0095439D01*
X0261748Y0095369D01*
X0261896Y0095302D01*
X0262047Y0095238D01*
X0262198Y0095179D01*
X0262352Y0095123D01*
X0262506Y0095070D01*
X0262662Y0095022D01*
X0262819Y0094977D01*
X0262977Y0094936D01*
X0263135Y0094899D01*
X0263295Y0094866D01*
X0263456Y0094836D01*
X0263617Y0094811D01*
X0263778Y0094789D01*
X0263941Y0094772D01*
X0264103Y0094758D01*
X0264266Y0094748D01*
X0264429Y0094742D01*
X0264592Y0094740D01*
X0256092Y0116240D02*
X0255231Y0116052D01*
X0254374Y0115843D01*
X0253523Y0115614D01*
X0252677Y0115363D01*
X0251838Y0115092D01*
X0251006Y0114800D01*
X0250181Y0114488D01*
X0249364Y0114156D01*
X0248556Y0113804D01*
X0247756Y0113432D01*
X0246966Y0113041D01*
X0246185Y0112631D01*
X0245415Y0112201D01*
X0244656Y0111753D01*
X0243907Y0111287D01*
X0243171Y0110802D01*
X0242446Y0110299D01*
X0241734Y0109779D01*
X0241035Y0109241D01*
X0240350Y0108687D01*
X0239678Y0108115D01*
X0239020Y0107528D01*
X0238377Y0106925D01*
X0237749Y0106306D01*
X0237136Y0105671D01*
X0236539Y0105022D01*
X0235958Y0104359D01*
X0235394Y0103682D01*
X0234846Y0102991D01*
X0234315Y0102286D01*
X0233802Y0101569D01*
X0233306Y0100840D01*
X0232829Y0100098D01*
X0232370Y0099346D01*
X0231929Y0098582D01*
X0231507Y0097807D01*
X0231104Y0097023D01*
X0230721Y0096229D01*
X0230357Y0095425D01*
X0230013Y0094614D01*
X0229689Y0093793D01*
X0229385Y0092966D01*
X0229102Y0092131D01*
X0228839Y0091289D01*
X0228597Y0090441D01*
X0228375Y0089587D01*
X0228175Y0088729D01*
X0227995Y0087865D01*
X0227837Y0086998D01*
X0227700Y0086127D01*
X0227585Y0085252D01*
X0227584Y0074228D02*
X0227731Y0073322D01*
X0227899Y0072420D01*
X0228090Y0071522D01*
X0228302Y0070629D01*
X0228537Y0069741D01*
X0228793Y0068860D01*
X0229071Y0067985D01*
X0229370Y0067117D01*
X0229690Y0066257D01*
X0230031Y0065405D01*
X0230393Y0064561D01*
X0230776Y0063727D01*
X0231179Y0062902D01*
X0231602Y0062088D01*
X0232045Y0061284D01*
X0232507Y0060491D01*
X0232989Y0059709D01*
X0233490Y0058940D01*
X0234010Y0058183D01*
X0234548Y0057440D01*
X0235104Y0056709D01*
X0235678Y0055993D01*
X0236269Y0055291D01*
X0236877Y0054603D01*
X0237502Y0053931D01*
X0238143Y0053274D01*
X0238801Y0052633D01*
X0239473Y0052009D01*
X0240161Y0051401D01*
X0240864Y0050810D01*
X0241581Y0050237D01*
X0242311Y0049681D01*
X0243055Y0049144D01*
X0243812Y0048625D01*
X0244582Y0048124D01*
X0245363Y0047643D01*
X0246157Y0047181D01*
X0246961Y0046738D01*
X0247776Y0046316D01*
X0248601Y0045913D01*
X0249435Y0045531D01*
X0250279Y0045170D01*
X0251131Y0044829D01*
X0251992Y0044509D01*
X0252860Y0044211D01*
X0253735Y0043934D01*
X0254617Y0043678D01*
X0255504Y0043444D01*
X0256397Y0043232D01*
X0257295Y0043042D01*
X0258198Y0042874D01*
X0259104Y0042729D01*
X0260014Y0042605D01*
X0260926Y0042504D01*
X0261841Y0042425D01*
X0262757Y0042369D01*
X0263674Y0042335D01*
X0264592Y0042324D01*
X0265510Y0042335D01*
X0266427Y0042369D01*
X0267343Y0042425D01*
X0268258Y0042504D01*
X0269170Y0042605D01*
X0270080Y0042729D01*
X0270986Y0042874D01*
X0271889Y0043042D01*
X0272787Y0043232D01*
X0273680Y0043444D01*
X0274567Y0043678D01*
X0275449Y0043934D01*
X0276324Y0044211D01*
X0277192Y0044509D01*
X0278053Y0044829D01*
X0278905Y0045170D01*
X0279749Y0045531D01*
X0280583Y0045913D01*
X0281408Y0046316D01*
X0282223Y0046738D01*
X0283027Y0047181D01*
X0283821Y0047643D01*
X0284602Y0048124D01*
X0285372Y0048625D01*
X0286129Y0049144D01*
X0286873Y0049681D01*
X0287603Y0050237D01*
X0288320Y0050810D01*
X0289023Y0051401D01*
X0289711Y0052009D01*
X0290383Y0052633D01*
X0291041Y0053274D01*
X0291682Y0053931D01*
X0292307Y0054603D01*
X0292915Y0055291D01*
X0293506Y0055993D01*
X0294080Y0056709D01*
X0294636Y0057440D01*
X0295174Y0058183D01*
X0295694Y0058940D01*
X0296195Y0059709D01*
X0296677Y0060491D01*
X0297139Y0061284D01*
X0297582Y0062088D01*
X0298005Y0062902D01*
X0298408Y0063727D01*
X0298791Y0064561D01*
X0299153Y0065405D01*
X0299494Y0066257D01*
X0299814Y0067117D01*
X0300113Y0067985D01*
X0300391Y0068860D01*
X0300647Y0069741D01*
X0300882Y0070629D01*
X0301094Y0071522D01*
X0301285Y0072420D01*
X0301453Y0073322D01*
X0301600Y0074228D01*
X0301600Y0085252D02*
X0301485Y0086127D01*
X0301348Y0086998D01*
X0301190Y0087865D01*
X0301010Y0088729D01*
X0300810Y0089587D01*
X0300588Y0090441D01*
X0300346Y0091289D01*
X0300083Y0092131D01*
X0299800Y0092966D01*
X0299496Y0093793D01*
X0299172Y0094614D01*
X0298828Y0095425D01*
X0298464Y0096229D01*
X0298081Y0097023D01*
X0297678Y0097807D01*
X0297256Y0098582D01*
X0296815Y0099346D01*
X0296356Y0100098D01*
X0295879Y0100840D01*
X0295383Y0101569D01*
X0294870Y0102286D01*
X0294339Y0102991D01*
X0293791Y0103682D01*
X0293227Y0104359D01*
X0292646Y0105022D01*
X0292049Y0105671D01*
X0291436Y0106306D01*
X0290808Y0106925D01*
X0290165Y0107528D01*
X0289507Y0108115D01*
X0288835Y0108687D01*
X0288150Y0109241D01*
X0287451Y0109779D01*
X0286739Y0110299D01*
X0286014Y0110802D01*
X0285278Y0111287D01*
X0284529Y0111753D01*
X0283770Y0112201D01*
X0283000Y0112631D01*
X0282219Y0113041D01*
X0281429Y0113432D01*
X0280629Y0113804D01*
X0279821Y0114156D01*
X0279004Y0114488D01*
X0278179Y0114800D01*
X0277347Y0115092D01*
X0276508Y0115363D01*
X0275662Y0115614D01*
X0274811Y0115843D01*
X0273954Y0116052D01*
X0273093Y0116240D01*
D11*
X0301600Y0085252D02*
X0298450Y0082102D01*
X0298450Y0077378D01*
X0301600Y0074228D01*
X0230734Y0077378D02*
X0227584Y0074228D01*
X0230734Y0077378D02*
X0230734Y0082102D01*
X0227584Y0085252D01*
X0201600Y0085252D02*
X0198450Y0082102D01*
X0198450Y0077378D01*
X0201600Y0074228D01*
X0130734Y0077378D02*
X0127584Y0074228D01*
X0130734Y0077378D02*
X0130734Y0082102D01*
X0127584Y0085252D01*
X0101600Y0085252D02*
X0098450Y0082102D01*
X0098450Y0077378D01*
X0101600Y0074228D01*
X0030734Y0077378D02*
X0027584Y0074228D01*
X0030734Y0077378D02*
X0030734Y0082102D01*
X0027584Y0085252D01*
X0027584Y0174228D02*
X0030734Y0177378D01*
X0030734Y0182102D01*
X0027584Y0185252D01*
X0098450Y0182102D02*
X0098450Y0177378D01*
X0101600Y0174228D01*
X0098450Y0182102D02*
X0101600Y0185252D01*
X0127584Y0185252D02*
X0130734Y0182102D01*
X0130734Y0177378D01*
X0127584Y0174228D01*
X0198450Y0177378D02*
X0201600Y0174228D01*
X0198450Y0177378D02*
X0198450Y0182102D01*
X0201600Y0185252D01*
X0227584Y0185252D02*
X0230734Y0182102D01*
X0230734Y0177378D01*
X0227584Y0174228D01*
X0298450Y0177378D02*
X0301600Y0174228D01*
X0298450Y0177378D02*
X0298450Y0182102D01*
X0301600Y0185252D01*
X0301600Y0274228D02*
X0298450Y0277378D01*
X0298450Y0282102D01*
X0301600Y0285252D01*
X0230734Y0282102D02*
X0230734Y0277378D01*
X0227584Y0274228D01*
X0230734Y0282102D02*
X0227584Y0285252D01*
X0201600Y0285252D02*
X0198450Y0282102D01*
X0198450Y0277378D01*
X0201600Y0274228D01*
X0130734Y0277378D02*
X0127584Y0274228D01*
X0130734Y0277378D02*
X0130734Y0282102D01*
X0127584Y0285252D01*
X0101600Y0285252D02*
X0098450Y0282102D01*
X0098450Y0277378D01*
X0101600Y0274228D01*
X0030734Y0277378D02*
X0027584Y0274228D01*
X0030734Y0277378D02*
X0030734Y0282102D01*
X0027584Y0285252D01*
M02*
