G75*
%MOIN*%
%OFA0B0*%
%FSLAX25Y25*%
%IPPOS*%
%LPD*%
%AMOC8*
5,1,8,0,0,1.08239X$1,22.5*
%
%ADD10C,0.00000*%
%ADD11C,0.00004*%
%ADD12C,0.00600*%
%ADD13C,0.00700*%
%ADD14C,0.00500*%
%ADD15C,0.03150*%
%ADD16C,0.01969*%
D10*
X0001600Y0001000D02*
X0001600Y0356118D01*
X0328372Y0356118D01*
X0328372Y0001000D01*
X0001600Y0001000D01*
X0027584Y0074228D02*
X0027731Y0073322D01*
X0027899Y0072420D01*
X0028090Y0071522D01*
X0028302Y0070629D01*
X0028537Y0069741D01*
X0028793Y0068860D01*
X0029071Y0067985D01*
X0029370Y0067117D01*
X0029690Y0066257D01*
X0030031Y0065405D01*
X0030393Y0064561D01*
X0030776Y0063727D01*
X0031179Y0062902D01*
X0031602Y0062088D01*
X0032045Y0061284D01*
X0032507Y0060491D01*
X0032989Y0059709D01*
X0033490Y0058940D01*
X0034010Y0058183D01*
X0034548Y0057440D01*
X0035104Y0056709D01*
X0035678Y0055993D01*
X0036269Y0055291D01*
X0036877Y0054603D01*
X0037502Y0053931D01*
X0038143Y0053274D01*
X0038801Y0052633D01*
X0039473Y0052009D01*
X0040161Y0051401D01*
X0040864Y0050810D01*
X0041581Y0050237D01*
X0042311Y0049681D01*
X0043055Y0049144D01*
X0043812Y0048625D01*
X0044582Y0048124D01*
X0045363Y0047643D01*
X0046157Y0047181D01*
X0046961Y0046738D01*
X0047776Y0046316D01*
X0048601Y0045913D01*
X0049435Y0045531D01*
X0050279Y0045170D01*
X0051131Y0044829D01*
X0051992Y0044509D01*
X0052860Y0044211D01*
X0053735Y0043934D01*
X0054617Y0043678D01*
X0055504Y0043444D01*
X0056397Y0043232D01*
X0057295Y0043042D01*
X0058198Y0042874D01*
X0059104Y0042729D01*
X0060014Y0042605D01*
X0060926Y0042504D01*
X0061841Y0042425D01*
X0062757Y0042369D01*
X0063674Y0042335D01*
X0064592Y0042324D01*
X0065510Y0042335D01*
X0066427Y0042369D01*
X0067343Y0042425D01*
X0068258Y0042504D01*
X0069170Y0042605D01*
X0070080Y0042729D01*
X0070986Y0042874D01*
X0071889Y0043042D01*
X0072787Y0043232D01*
X0073680Y0043444D01*
X0074567Y0043678D01*
X0075449Y0043934D01*
X0076324Y0044211D01*
X0077192Y0044509D01*
X0078053Y0044829D01*
X0078905Y0045170D01*
X0079749Y0045531D01*
X0080583Y0045913D01*
X0081408Y0046316D01*
X0082223Y0046738D01*
X0083027Y0047181D01*
X0083821Y0047643D01*
X0084602Y0048124D01*
X0085372Y0048625D01*
X0086129Y0049144D01*
X0086873Y0049681D01*
X0087603Y0050237D01*
X0088320Y0050810D01*
X0089023Y0051401D01*
X0089711Y0052009D01*
X0090383Y0052633D01*
X0091041Y0053274D01*
X0091682Y0053931D01*
X0092307Y0054603D01*
X0092915Y0055291D01*
X0093506Y0055993D01*
X0094080Y0056709D01*
X0094636Y0057440D01*
X0095174Y0058183D01*
X0095694Y0058940D01*
X0096195Y0059709D01*
X0096677Y0060491D01*
X0097139Y0061284D01*
X0097582Y0062088D01*
X0098005Y0062902D01*
X0098408Y0063727D01*
X0098791Y0064561D01*
X0099153Y0065405D01*
X0099494Y0066257D01*
X0099814Y0067117D01*
X0100113Y0067985D01*
X0100391Y0068860D01*
X0100647Y0069741D01*
X0100882Y0070629D01*
X0101094Y0071522D01*
X0101285Y0072420D01*
X0101453Y0073322D01*
X0101600Y0074228D01*
X0071342Y0101490D02*
X0071342Y0114490D01*
X0071344Y0114571D01*
X0071349Y0114651D01*
X0071359Y0114732D01*
X0071372Y0114812D01*
X0071388Y0114891D01*
X0071409Y0114969D01*
X0071433Y0115046D01*
X0071460Y0115122D01*
X0071491Y0115197D01*
X0071525Y0115270D01*
X0071563Y0115342D01*
X0071604Y0115411D01*
X0071648Y0115479D01*
X0071695Y0115545D01*
X0071746Y0115608D01*
X0071799Y0115669D01*
X0071855Y0115727D01*
X0071913Y0115783D01*
X0071974Y0115836D01*
X0072037Y0115887D01*
X0072103Y0115934D01*
X0072171Y0115978D01*
X0072240Y0116019D01*
X0072312Y0116057D01*
X0072385Y0116091D01*
X0072460Y0116122D01*
X0072536Y0116149D01*
X0072613Y0116173D01*
X0072691Y0116194D01*
X0072770Y0116210D01*
X0072850Y0116223D01*
X0072931Y0116233D01*
X0073011Y0116238D01*
X0073092Y0116240D01*
X0071342Y0101490D02*
X0071340Y0101327D01*
X0071334Y0101164D01*
X0071324Y0101001D01*
X0071310Y0100839D01*
X0071293Y0100676D01*
X0071271Y0100515D01*
X0071246Y0100354D01*
X0071216Y0100193D01*
X0071183Y0100033D01*
X0071146Y0099875D01*
X0071105Y0099717D01*
X0071060Y0099560D01*
X0071012Y0099404D01*
X0070959Y0099250D01*
X0070903Y0099096D01*
X0070844Y0098945D01*
X0070780Y0098794D01*
X0070713Y0098646D01*
X0070643Y0098498D01*
X0070569Y0098353D01*
X0070491Y0098210D01*
X0070410Y0098068D01*
X0070326Y0097928D01*
X0070238Y0097791D01*
X0070147Y0097656D01*
X0070053Y0097522D01*
X0069955Y0097392D01*
X0069855Y0097263D01*
X0069751Y0097137D01*
X0069644Y0097014D01*
X0069535Y0096893D01*
X0069422Y0096775D01*
X0069307Y0096660D01*
X0069189Y0096547D01*
X0069068Y0096438D01*
X0068945Y0096331D01*
X0068819Y0096227D01*
X0068690Y0096127D01*
X0068560Y0096029D01*
X0068426Y0095935D01*
X0068291Y0095844D01*
X0068154Y0095756D01*
X0068014Y0095672D01*
X0067872Y0095591D01*
X0067729Y0095513D01*
X0067584Y0095439D01*
X0067436Y0095369D01*
X0067288Y0095302D01*
X0067137Y0095238D01*
X0066986Y0095179D01*
X0066832Y0095123D01*
X0066678Y0095070D01*
X0066522Y0095022D01*
X0066365Y0094977D01*
X0066207Y0094936D01*
X0066049Y0094899D01*
X0065889Y0094866D01*
X0065728Y0094836D01*
X0065567Y0094811D01*
X0065406Y0094789D01*
X0065243Y0094772D01*
X0065081Y0094758D01*
X0064918Y0094748D01*
X0064755Y0094742D01*
X0064592Y0094740D01*
X0064429Y0094742D01*
X0064266Y0094748D01*
X0064103Y0094758D01*
X0063941Y0094772D01*
X0063778Y0094789D01*
X0063617Y0094811D01*
X0063456Y0094836D01*
X0063295Y0094866D01*
X0063135Y0094899D01*
X0062977Y0094936D01*
X0062819Y0094977D01*
X0062662Y0095022D01*
X0062506Y0095070D01*
X0062352Y0095123D01*
X0062198Y0095179D01*
X0062047Y0095238D01*
X0061896Y0095302D01*
X0061748Y0095369D01*
X0061600Y0095439D01*
X0061455Y0095513D01*
X0061312Y0095591D01*
X0061170Y0095672D01*
X0061030Y0095756D01*
X0060893Y0095844D01*
X0060758Y0095935D01*
X0060624Y0096029D01*
X0060494Y0096127D01*
X0060365Y0096227D01*
X0060239Y0096331D01*
X0060116Y0096438D01*
X0059995Y0096547D01*
X0059877Y0096660D01*
X0059762Y0096775D01*
X0059649Y0096893D01*
X0059540Y0097014D01*
X0059433Y0097137D01*
X0059329Y0097263D01*
X0059229Y0097392D01*
X0059131Y0097522D01*
X0059037Y0097656D01*
X0058946Y0097791D01*
X0058858Y0097928D01*
X0058774Y0098068D01*
X0058693Y0098210D01*
X0058615Y0098353D01*
X0058541Y0098498D01*
X0058471Y0098646D01*
X0058404Y0098794D01*
X0058340Y0098945D01*
X0058281Y0099096D01*
X0058225Y0099250D01*
X0058172Y0099404D01*
X0058124Y0099560D01*
X0058079Y0099717D01*
X0058038Y0099875D01*
X0058001Y0100033D01*
X0057968Y0100193D01*
X0057938Y0100354D01*
X0057913Y0100515D01*
X0057891Y0100676D01*
X0057874Y0100839D01*
X0057860Y0101001D01*
X0057850Y0101164D01*
X0057844Y0101327D01*
X0057842Y0101490D01*
X0057842Y0114490D01*
X0057840Y0114571D01*
X0057835Y0114651D01*
X0057825Y0114732D01*
X0057812Y0114812D01*
X0057796Y0114891D01*
X0057775Y0114969D01*
X0057751Y0115046D01*
X0057724Y0115122D01*
X0057693Y0115197D01*
X0057659Y0115270D01*
X0057621Y0115342D01*
X0057580Y0115411D01*
X0057536Y0115479D01*
X0057489Y0115545D01*
X0057438Y0115608D01*
X0057385Y0115669D01*
X0057329Y0115727D01*
X0057271Y0115783D01*
X0057210Y0115836D01*
X0057147Y0115887D01*
X0057081Y0115934D01*
X0057013Y0115978D01*
X0056944Y0116019D01*
X0056872Y0116057D01*
X0056799Y0116091D01*
X0056724Y0116122D01*
X0056648Y0116149D01*
X0056571Y0116173D01*
X0056493Y0116194D01*
X0056414Y0116210D01*
X0056334Y0116223D01*
X0056253Y0116233D01*
X0056173Y0116238D01*
X0056092Y0116240D01*
X0055231Y0116052D01*
X0054374Y0115843D01*
X0053523Y0115614D01*
X0052677Y0115363D01*
X0051838Y0115092D01*
X0051006Y0114800D01*
X0050181Y0114488D01*
X0049364Y0114156D01*
X0048556Y0113804D01*
X0047756Y0113432D01*
X0046966Y0113041D01*
X0046185Y0112631D01*
X0045415Y0112201D01*
X0044656Y0111753D01*
X0043907Y0111287D01*
X0043171Y0110802D01*
X0042446Y0110299D01*
X0041734Y0109779D01*
X0041035Y0109241D01*
X0040350Y0108687D01*
X0039678Y0108115D01*
X0039020Y0107528D01*
X0038377Y0106925D01*
X0037749Y0106306D01*
X0037136Y0105671D01*
X0036539Y0105022D01*
X0035958Y0104359D01*
X0035394Y0103682D01*
X0034846Y0102991D01*
X0034315Y0102286D01*
X0033802Y0101569D01*
X0033306Y0100840D01*
X0032829Y0100098D01*
X0032370Y0099346D01*
X0031929Y0098582D01*
X0031507Y0097807D01*
X0031104Y0097023D01*
X0030721Y0096229D01*
X0030357Y0095425D01*
X0030013Y0094614D01*
X0029689Y0093793D01*
X0029385Y0092966D01*
X0029102Y0092131D01*
X0028839Y0091289D01*
X0028597Y0090441D01*
X0028375Y0089587D01*
X0028175Y0088729D01*
X0027995Y0087865D01*
X0027837Y0086998D01*
X0027700Y0086127D01*
X0027585Y0085252D01*
X0073093Y0116240D02*
X0073954Y0116052D01*
X0074811Y0115843D01*
X0075662Y0115614D01*
X0076508Y0115363D01*
X0077347Y0115092D01*
X0078179Y0114800D01*
X0079004Y0114488D01*
X0079821Y0114156D01*
X0080629Y0113804D01*
X0081429Y0113432D01*
X0082219Y0113041D01*
X0083000Y0112631D01*
X0083770Y0112201D01*
X0084529Y0111753D01*
X0085278Y0111287D01*
X0086014Y0110802D01*
X0086739Y0110299D01*
X0087451Y0109779D01*
X0088150Y0109241D01*
X0088835Y0108687D01*
X0089507Y0108115D01*
X0090165Y0107528D01*
X0090808Y0106925D01*
X0091436Y0106306D01*
X0092049Y0105671D01*
X0092646Y0105022D01*
X0093227Y0104359D01*
X0093791Y0103682D01*
X0094339Y0102991D01*
X0094870Y0102286D01*
X0095383Y0101569D01*
X0095879Y0100840D01*
X0096356Y0100098D01*
X0096815Y0099346D01*
X0097256Y0098582D01*
X0097678Y0097807D01*
X0098081Y0097023D01*
X0098464Y0096229D01*
X0098828Y0095425D01*
X0099172Y0094614D01*
X0099496Y0093793D01*
X0099800Y0092966D01*
X0100083Y0092131D01*
X0100346Y0091289D01*
X0100588Y0090441D01*
X0100810Y0089587D01*
X0101010Y0088729D01*
X0101190Y0087865D01*
X0101348Y0086998D01*
X0101485Y0086127D01*
X0101600Y0085252D01*
X0157842Y0101490D02*
X0157842Y0114490D01*
X0157840Y0114571D01*
X0157835Y0114651D01*
X0157825Y0114732D01*
X0157812Y0114812D01*
X0157796Y0114891D01*
X0157775Y0114969D01*
X0157751Y0115046D01*
X0157724Y0115122D01*
X0157693Y0115197D01*
X0157659Y0115270D01*
X0157621Y0115342D01*
X0157580Y0115411D01*
X0157536Y0115479D01*
X0157489Y0115545D01*
X0157438Y0115608D01*
X0157385Y0115669D01*
X0157329Y0115727D01*
X0157271Y0115783D01*
X0157210Y0115836D01*
X0157147Y0115887D01*
X0157081Y0115934D01*
X0157013Y0115978D01*
X0156944Y0116019D01*
X0156872Y0116057D01*
X0156799Y0116091D01*
X0156724Y0116122D01*
X0156648Y0116149D01*
X0156571Y0116173D01*
X0156493Y0116194D01*
X0156414Y0116210D01*
X0156334Y0116223D01*
X0156253Y0116233D01*
X0156173Y0116238D01*
X0156092Y0116240D01*
X0171342Y0114490D02*
X0171342Y0101490D01*
X0171340Y0101327D01*
X0171334Y0101164D01*
X0171324Y0101001D01*
X0171310Y0100839D01*
X0171293Y0100676D01*
X0171271Y0100515D01*
X0171246Y0100354D01*
X0171216Y0100193D01*
X0171183Y0100033D01*
X0171146Y0099875D01*
X0171105Y0099717D01*
X0171060Y0099560D01*
X0171012Y0099404D01*
X0170959Y0099250D01*
X0170903Y0099096D01*
X0170844Y0098945D01*
X0170780Y0098794D01*
X0170713Y0098646D01*
X0170643Y0098498D01*
X0170569Y0098353D01*
X0170491Y0098210D01*
X0170410Y0098068D01*
X0170326Y0097928D01*
X0170238Y0097791D01*
X0170147Y0097656D01*
X0170053Y0097522D01*
X0169955Y0097392D01*
X0169855Y0097263D01*
X0169751Y0097137D01*
X0169644Y0097014D01*
X0169535Y0096893D01*
X0169422Y0096775D01*
X0169307Y0096660D01*
X0169189Y0096547D01*
X0169068Y0096438D01*
X0168945Y0096331D01*
X0168819Y0096227D01*
X0168690Y0096127D01*
X0168560Y0096029D01*
X0168426Y0095935D01*
X0168291Y0095844D01*
X0168154Y0095756D01*
X0168014Y0095672D01*
X0167872Y0095591D01*
X0167729Y0095513D01*
X0167584Y0095439D01*
X0167436Y0095369D01*
X0167288Y0095302D01*
X0167137Y0095238D01*
X0166986Y0095179D01*
X0166832Y0095123D01*
X0166678Y0095070D01*
X0166522Y0095022D01*
X0166365Y0094977D01*
X0166207Y0094936D01*
X0166049Y0094899D01*
X0165889Y0094866D01*
X0165728Y0094836D01*
X0165567Y0094811D01*
X0165406Y0094789D01*
X0165243Y0094772D01*
X0165081Y0094758D01*
X0164918Y0094748D01*
X0164755Y0094742D01*
X0164592Y0094740D01*
X0164429Y0094742D01*
X0164266Y0094748D01*
X0164103Y0094758D01*
X0163941Y0094772D01*
X0163778Y0094789D01*
X0163617Y0094811D01*
X0163456Y0094836D01*
X0163295Y0094866D01*
X0163135Y0094899D01*
X0162977Y0094936D01*
X0162819Y0094977D01*
X0162662Y0095022D01*
X0162506Y0095070D01*
X0162352Y0095123D01*
X0162198Y0095179D01*
X0162047Y0095238D01*
X0161896Y0095302D01*
X0161748Y0095369D01*
X0161600Y0095439D01*
X0161455Y0095513D01*
X0161312Y0095591D01*
X0161170Y0095672D01*
X0161030Y0095756D01*
X0160893Y0095844D01*
X0160758Y0095935D01*
X0160624Y0096029D01*
X0160494Y0096127D01*
X0160365Y0096227D01*
X0160239Y0096331D01*
X0160116Y0096438D01*
X0159995Y0096547D01*
X0159877Y0096660D01*
X0159762Y0096775D01*
X0159649Y0096893D01*
X0159540Y0097014D01*
X0159433Y0097137D01*
X0159329Y0097263D01*
X0159229Y0097392D01*
X0159131Y0097522D01*
X0159037Y0097656D01*
X0158946Y0097791D01*
X0158858Y0097928D01*
X0158774Y0098068D01*
X0158693Y0098210D01*
X0158615Y0098353D01*
X0158541Y0098498D01*
X0158471Y0098646D01*
X0158404Y0098794D01*
X0158340Y0098945D01*
X0158281Y0099096D01*
X0158225Y0099250D01*
X0158172Y0099404D01*
X0158124Y0099560D01*
X0158079Y0099717D01*
X0158038Y0099875D01*
X0158001Y0100033D01*
X0157968Y0100193D01*
X0157938Y0100354D01*
X0157913Y0100515D01*
X0157891Y0100676D01*
X0157874Y0100839D01*
X0157860Y0101001D01*
X0157850Y0101164D01*
X0157844Y0101327D01*
X0157842Y0101490D01*
X0171342Y0114490D02*
X0171344Y0114571D01*
X0171349Y0114651D01*
X0171359Y0114732D01*
X0171372Y0114812D01*
X0171388Y0114891D01*
X0171409Y0114969D01*
X0171433Y0115046D01*
X0171460Y0115122D01*
X0171491Y0115197D01*
X0171525Y0115270D01*
X0171563Y0115342D01*
X0171604Y0115411D01*
X0171648Y0115479D01*
X0171695Y0115545D01*
X0171746Y0115608D01*
X0171799Y0115669D01*
X0171855Y0115727D01*
X0171913Y0115783D01*
X0171974Y0115836D01*
X0172037Y0115887D01*
X0172103Y0115934D01*
X0172171Y0115978D01*
X0172240Y0116019D01*
X0172312Y0116057D01*
X0172385Y0116091D01*
X0172460Y0116122D01*
X0172536Y0116149D01*
X0172613Y0116173D01*
X0172691Y0116194D01*
X0172770Y0116210D01*
X0172850Y0116223D01*
X0172931Y0116233D01*
X0173011Y0116238D01*
X0173092Y0116240D01*
X0173093Y0116240D02*
X0173954Y0116052D01*
X0174811Y0115843D01*
X0175662Y0115614D01*
X0176508Y0115363D01*
X0177347Y0115092D01*
X0178179Y0114800D01*
X0179004Y0114488D01*
X0179821Y0114156D01*
X0180629Y0113804D01*
X0181429Y0113432D01*
X0182219Y0113041D01*
X0183000Y0112631D01*
X0183770Y0112201D01*
X0184529Y0111753D01*
X0185278Y0111287D01*
X0186014Y0110802D01*
X0186739Y0110299D01*
X0187451Y0109779D01*
X0188150Y0109241D01*
X0188835Y0108687D01*
X0189507Y0108115D01*
X0190165Y0107528D01*
X0190808Y0106925D01*
X0191436Y0106306D01*
X0192049Y0105671D01*
X0192646Y0105022D01*
X0193227Y0104359D01*
X0193791Y0103682D01*
X0194339Y0102991D01*
X0194870Y0102286D01*
X0195383Y0101569D01*
X0195879Y0100840D01*
X0196356Y0100098D01*
X0196815Y0099346D01*
X0197256Y0098582D01*
X0197678Y0097807D01*
X0198081Y0097023D01*
X0198464Y0096229D01*
X0198828Y0095425D01*
X0199172Y0094614D01*
X0199496Y0093793D01*
X0199800Y0092966D01*
X0200083Y0092131D01*
X0200346Y0091289D01*
X0200588Y0090441D01*
X0200810Y0089587D01*
X0201010Y0088729D01*
X0201190Y0087865D01*
X0201348Y0086998D01*
X0201485Y0086127D01*
X0201600Y0085252D01*
X0201600Y0074228D02*
X0201453Y0073322D01*
X0201285Y0072420D01*
X0201094Y0071522D01*
X0200882Y0070629D01*
X0200647Y0069741D01*
X0200391Y0068860D01*
X0200113Y0067985D01*
X0199814Y0067117D01*
X0199494Y0066257D01*
X0199153Y0065405D01*
X0198791Y0064561D01*
X0198408Y0063727D01*
X0198005Y0062902D01*
X0197582Y0062088D01*
X0197139Y0061284D01*
X0196677Y0060491D01*
X0196195Y0059709D01*
X0195694Y0058940D01*
X0195174Y0058183D01*
X0194636Y0057440D01*
X0194080Y0056709D01*
X0193506Y0055993D01*
X0192915Y0055291D01*
X0192307Y0054603D01*
X0191682Y0053931D01*
X0191041Y0053274D01*
X0190383Y0052633D01*
X0189711Y0052009D01*
X0189023Y0051401D01*
X0188320Y0050810D01*
X0187603Y0050237D01*
X0186873Y0049681D01*
X0186129Y0049144D01*
X0185372Y0048625D01*
X0184602Y0048124D01*
X0183821Y0047643D01*
X0183027Y0047181D01*
X0182223Y0046738D01*
X0181408Y0046316D01*
X0180583Y0045913D01*
X0179749Y0045531D01*
X0178905Y0045170D01*
X0178053Y0044829D01*
X0177192Y0044509D01*
X0176324Y0044211D01*
X0175449Y0043934D01*
X0174567Y0043678D01*
X0173680Y0043444D01*
X0172787Y0043232D01*
X0171889Y0043042D01*
X0170986Y0042874D01*
X0170080Y0042729D01*
X0169170Y0042605D01*
X0168258Y0042504D01*
X0167343Y0042425D01*
X0166427Y0042369D01*
X0165510Y0042335D01*
X0164592Y0042324D01*
X0163674Y0042335D01*
X0162757Y0042369D01*
X0161841Y0042425D01*
X0160926Y0042504D01*
X0160014Y0042605D01*
X0159104Y0042729D01*
X0158198Y0042874D01*
X0157295Y0043042D01*
X0156397Y0043232D01*
X0155504Y0043444D01*
X0154617Y0043678D01*
X0153735Y0043934D01*
X0152860Y0044211D01*
X0151992Y0044509D01*
X0151131Y0044829D01*
X0150279Y0045170D01*
X0149435Y0045531D01*
X0148601Y0045913D01*
X0147776Y0046316D01*
X0146961Y0046738D01*
X0146157Y0047181D01*
X0145363Y0047643D01*
X0144582Y0048124D01*
X0143812Y0048625D01*
X0143055Y0049144D01*
X0142311Y0049681D01*
X0141581Y0050237D01*
X0140864Y0050810D01*
X0140161Y0051401D01*
X0139473Y0052009D01*
X0138801Y0052633D01*
X0138143Y0053274D01*
X0137502Y0053931D01*
X0136877Y0054603D01*
X0136269Y0055291D01*
X0135678Y0055993D01*
X0135104Y0056709D01*
X0134548Y0057440D01*
X0134010Y0058183D01*
X0133490Y0058940D01*
X0132989Y0059709D01*
X0132507Y0060491D01*
X0132045Y0061284D01*
X0131602Y0062088D01*
X0131179Y0062902D01*
X0130776Y0063727D01*
X0130393Y0064561D01*
X0130031Y0065405D01*
X0129690Y0066257D01*
X0129370Y0067117D01*
X0129071Y0067985D01*
X0128793Y0068860D01*
X0128537Y0069741D01*
X0128302Y0070629D01*
X0128090Y0071522D01*
X0127899Y0072420D01*
X0127731Y0073322D01*
X0127584Y0074228D01*
X0127585Y0085252D02*
X0127700Y0086127D01*
X0127837Y0086998D01*
X0127995Y0087865D01*
X0128175Y0088729D01*
X0128375Y0089587D01*
X0128597Y0090441D01*
X0128839Y0091289D01*
X0129102Y0092131D01*
X0129385Y0092966D01*
X0129689Y0093793D01*
X0130013Y0094614D01*
X0130357Y0095425D01*
X0130721Y0096229D01*
X0131104Y0097023D01*
X0131507Y0097807D01*
X0131929Y0098582D01*
X0132370Y0099346D01*
X0132829Y0100098D01*
X0133306Y0100840D01*
X0133802Y0101569D01*
X0134315Y0102286D01*
X0134846Y0102991D01*
X0135394Y0103682D01*
X0135958Y0104359D01*
X0136539Y0105022D01*
X0137136Y0105671D01*
X0137749Y0106306D01*
X0138377Y0106925D01*
X0139020Y0107528D01*
X0139678Y0108115D01*
X0140350Y0108687D01*
X0141035Y0109241D01*
X0141734Y0109779D01*
X0142446Y0110299D01*
X0143171Y0110802D01*
X0143907Y0111287D01*
X0144656Y0111753D01*
X0145415Y0112201D01*
X0146185Y0112631D01*
X0146966Y0113041D01*
X0147756Y0113432D01*
X0148556Y0113804D01*
X0149364Y0114156D01*
X0150181Y0114488D01*
X0151006Y0114800D01*
X0151838Y0115092D01*
X0152677Y0115363D01*
X0153523Y0115614D01*
X0154374Y0115843D01*
X0155231Y0116052D01*
X0156092Y0116240D01*
X0127584Y0174228D02*
X0127731Y0173322D01*
X0127899Y0172420D01*
X0128090Y0171522D01*
X0128302Y0170629D01*
X0128537Y0169741D01*
X0128793Y0168860D01*
X0129071Y0167985D01*
X0129370Y0167117D01*
X0129690Y0166257D01*
X0130031Y0165405D01*
X0130393Y0164561D01*
X0130776Y0163727D01*
X0131179Y0162902D01*
X0131602Y0162088D01*
X0132045Y0161284D01*
X0132507Y0160491D01*
X0132989Y0159709D01*
X0133490Y0158940D01*
X0134010Y0158183D01*
X0134548Y0157440D01*
X0135104Y0156709D01*
X0135678Y0155993D01*
X0136269Y0155291D01*
X0136877Y0154603D01*
X0137502Y0153931D01*
X0138143Y0153274D01*
X0138801Y0152633D01*
X0139473Y0152009D01*
X0140161Y0151401D01*
X0140864Y0150810D01*
X0141581Y0150237D01*
X0142311Y0149681D01*
X0143055Y0149144D01*
X0143812Y0148625D01*
X0144582Y0148124D01*
X0145363Y0147643D01*
X0146157Y0147181D01*
X0146961Y0146738D01*
X0147776Y0146316D01*
X0148601Y0145913D01*
X0149435Y0145531D01*
X0150279Y0145170D01*
X0151131Y0144829D01*
X0151992Y0144509D01*
X0152860Y0144211D01*
X0153735Y0143934D01*
X0154617Y0143678D01*
X0155504Y0143444D01*
X0156397Y0143232D01*
X0157295Y0143042D01*
X0158198Y0142874D01*
X0159104Y0142729D01*
X0160014Y0142605D01*
X0160926Y0142504D01*
X0161841Y0142425D01*
X0162757Y0142369D01*
X0163674Y0142335D01*
X0164592Y0142324D01*
X0165510Y0142335D01*
X0166427Y0142369D01*
X0167343Y0142425D01*
X0168258Y0142504D01*
X0169170Y0142605D01*
X0170080Y0142729D01*
X0170986Y0142874D01*
X0171889Y0143042D01*
X0172787Y0143232D01*
X0173680Y0143444D01*
X0174567Y0143678D01*
X0175449Y0143934D01*
X0176324Y0144211D01*
X0177192Y0144509D01*
X0178053Y0144829D01*
X0178905Y0145170D01*
X0179749Y0145531D01*
X0180583Y0145913D01*
X0181408Y0146316D01*
X0182223Y0146738D01*
X0183027Y0147181D01*
X0183821Y0147643D01*
X0184602Y0148124D01*
X0185372Y0148625D01*
X0186129Y0149144D01*
X0186873Y0149681D01*
X0187603Y0150237D01*
X0188320Y0150810D01*
X0189023Y0151401D01*
X0189711Y0152009D01*
X0190383Y0152633D01*
X0191041Y0153274D01*
X0191682Y0153931D01*
X0192307Y0154603D01*
X0192915Y0155291D01*
X0193506Y0155993D01*
X0194080Y0156709D01*
X0194636Y0157440D01*
X0195174Y0158183D01*
X0195694Y0158940D01*
X0196195Y0159709D01*
X0196677Y0160491D01*
X0197139Y0161284D01*
X0197582Y0162088D01*
X0198005Y0162902D01*
X0198408Y0163727D01*
X0198791Y0164561D01*
X0199153Y0165405D01*
X0199494Y0166257D01*
X0199814Y0167117D01*
X0200113Y0167985D01*
X0200391Y0168860D01*
X0200647Y0169741D01*
X0200882Y0170629D01*
X0201094Y0171522D01*
X0201285Y0172420D01*
X0201453Y0173322D01*
X0201600Y0174228D01*
X0171342Y0201490D02*
X0171342Y0214490D01*
X0171344Y0214571D01*
X0171349Y0214651D01*
X0171359Y0214732D01*
X0171372Y0214812D01*
X0171388Y0214891D01*
X0171409Y0214969D01*
X0171433Y0215046D01*
X0171460Y0215122D01*
X0171491Y0215197D01*
X0171525Y0215270D01*
X0171563Y0215342D01*
X0171604Y0215411D01*
X0171648Y0215479D01*
X0171695Y0215545D01*
X0171746Y0215608D01*
X0171799Y0215669D01*
X0171855Y0215727D01*
X0171913Y0215783D01*
X0171974Y0215836D01*
X0172037Y0215887D01*
X0172103Y0215934D01*
X0172171Y0215978D01*
X0172240Y0216019D01*
X0172312Y0216057D01*
X0172385Y0216091D01*
X0172460Y0216122D01*
X0172536Y0216149D01*
X0172613Y0216173D01*
X0172691Y0216194D01*
X0172770Y0216210D01*
X0172850Y0216223D01*
X0172931Y0216233D01*
X0173011Y0216238D01*
X0173092Y0216240D01*
X0171342Y0201490D02*
X0171340Y0201327D01*
X0171334Y0201164D01*
X0171324Y0201001D01*
X0171310Y0200839D01*
X0171293Y0200676D01*
X0171271Y0200515D01*
X0171246Y0200354D01*
X0171216Y0200193D01*
X0171183Y0200033D01*
X0171146Y0199875D01*
X0171105Y0199717D01*
X0171060Y0199560D01*
X0171012Y0199404D01*
X0170959Y0199250D01*
X0170903Y0199096D01*
X0170844Y0198945D01*
X0170780Y0198794D01*
X0170713Y0198646D01*
X0170643Y0198498D01*
X0170569Y0198353D01*
X0170491Y0198210D01*
X0170410Y0198068D01*
X0170326Y0197928D01*
X0170238Y0197791D01*
X0170147Y0197656D01*
X0170053Y0197522D01*
X0169955Y0197392D01*
X0169855Y0197263D01*
X0169751Y0197137D01*
X0169644Y0197014D01*
X0169535Y0196893D01*
X0169422Y0196775D01*
X0169307Y0196660D01*
X0169189Y0196547D01*
X0169068Y0196438D01*
X0168945Y0196331D01*
X0168819Y0196227D01*
X0168690Y0196127D01*
X0168560Y0196029D01*
X0168426Y0195935D01*
X0168291Y0195844D01*
X0168154Y0195756D01*
X0168014Y0195672D01*
X0167872Y0195591D01*
X0167729Y0195513D01*
X0167584Y0195439D01*
X0167436Y0195369D01*
X0167288Y0195302D01*
X0167137Y0195238D01*
X0166986Y0195179D01*
X0166832Y0195123D01*
X0166678Y0195070D01*
X0166522Y0195022D01*
X0166365Y0194977D01*
X0166207Y0194936D01*
X0166049Y0194899D01*
X0165889Y0194866D01*
X0165728Y0194836D01*
X0165567Y0194811D01*
X0165406Y0194789D01*
X0165243Y0194772D01*
X0165081Y0194758D01*
X0164918Y0194748D01*
X0164755Y0194742D01*
X0164592Y0194740D01*
X0164429Y0194742D01*
X0164266Y0194748D01*
X0164103Y0194758D01*
X0163941Y0194772D01*
X0163778Y0194789D01*
X0163617Y0194811D01*
X0163456Y0194836D01*
X0163295Y0194866D01*
X0163135Y0194899D01*
X0162977Y0194936D01*
X0162819Y0194977D01*
X0162662Y0195022D01*
X0162506Y0195070D01*
X0162352Y0195123D01*
X0162198Y0195179D01*
X0162047Y0195238D01*
X0161896Y0195302D01*
X0161748Y0195369D01*
X0161600Y0195439D01*
X0161455Y0195513D01*
X0161312Y0195591D01*
X0161170Y0195672D01*
X0161030Y0195756D01*
X0160893Y0195844D01*
X0160758Y0195935D01*
X0160624Y0196029D01*
X0160494Y0196127D01*
X0160365Y0196227D01*
X0160239Y0196331D01*
X0160116Y0196438D01*
X0159995Y0196547D01*
X0159877Y0196660D01*
X0159762Y0196775D01*
X0159649Y0196893D01*
X0159540Y0197014D01*
X0159433Y0197137D01*
X0159329Y0197263D01*
X0159229Y0197392D01*
X0159131Y0197522D01*
X0159037Y0197656D01*
X0158946Y0197791D01*
X0158858Y0197928D01*
X0158774Y0198068D01*
X0158693Y0198210D01*
X0158615Y0198353D01*
X0158541Y0198498D01*
X0158471Y0198646D01*
X0158404Y0198794D01*
X0158340Y0198945D01*
X0158281Y0199096D01*
X0158225Y0199250D01*
X0158172Y0199404D01*
X0158124Y0199560D01*
X0158079Y0199717D01*
X0158038Y0199875D01*
X0158001Y0200033D01*
X0157968Y0200193D01*
X0157938Y0200354D01*
X0157913Y0200515D01*
X0157891Y0200676D01*
X0157874Y0200839D01*
X0157860Y0201001D01*
X0157850Y0201164D01*
X0157844Y0201327D01*
X0157842Y0201490D01*
X0157842Y0214490D01*
X0157840Y0214571D01*
X0157835Y0214651D01*
X0157825Y0214732D01*
X0157812Y0214812D01*
X0157796Y0214891D01*
X0157775Y0214969D01*
X0157751Y0215046D01*
X0157724Y0215122D01*
X0157693Y0215197D01*
X0157659Y0215270D01*
X0157621Y0215342D01*
X0157580Y0215411D01*
X0157536Y0215479D01*
X0157489Y0215545D01*
X0157438Y0215608D01*
X0157385Y0215669D01*
X0157329Y0215727D01*
X0157271Y0215783D01*
X0157210Y0215836D01*
X0157147Y0215887D01*
X0157081Y0215934D01*
X0157013Y0215978D01*
X0156944Y0216019D01*
X0156872Y0216057D01*
X0156799Y0216091D01*
X0156724Y0216122D01*
X0156648Y0216149D01*
X0156571Y0216173D01*
X0156493Y0216194D01*
X0156414Y0216210D01*
X0156334Y0216223D01*
X0156253Y0216233D01*
X0156173Y0216238D01*
X0156092Y0216240D01*
X0155231Y0216052D01*
X0154374Y0215843D01*
X0153523Y0215614D01*
X0152677Y0215363D01*
X0151838Y0215092D01*
X0151006Y0214800D01*
X0150181Y0214488D01*
X0149364Y0214156D01*
X0148556Y0213804D01*
X0147756Y0213432D01*
X0146966Y0213041D01*
X0146185Y0212631D01*
X0145415Y0212201D01*
X0144656Y0211753D01*
X0143907Y0211287D01*
X0143171Y0210802D01*
X0142446Y0210299D01*
X0141734Y0209779D01*
X0141035Y0209241D01*
X0140350Y0208687D01*
X0139678Y0208115D01*
X0139020Y0207528D01*
X0138377Y0206925D01*
X0137749Y0206306D01*
X0137136Y0205671D01*
X0136539Y0205022D01*
X0135958Y0204359D01*
X0135394Y0203682D01*
X0134846Y0202991D01*
X0134315Y0202286D01*
X0133802Y0201569D01*
X0133306Y0200840D01*
X0132829Y0200098D01*
X0132370Y0199346D01*
X0131929Y0198582D01*
X0131507Y0197807D01*
X0131104Y0197023D01*
X0130721Y0196229D01*
X0130357Y0195425D01*
X0130013Y0194614D01*
X0129689Y0193793D01*
X0129385Y0192966D01*
X0129102Y0192131D01*
X0128839Y0191289D01*
X0128597Y0190441D01*
X0128375Y0189587D01*
X0128175Y0188729D01*
X0127995Y0187865D01*
X0127837Y0186998D01*
X0127700Y0186127D01*
X0127585Y0185252D01*
X0173093Y0216240D02*
X0173954Y0216052D01*
X0174811Y0215843D01*
X0175662Y0215614D01*
X0176508Y0215363D01*
X0177347Y0215092D01*
X0178179Y0214800D01*
X0179004Y0214488D01*
X0179821Y0214156D01*
X0180629Y0213804D01*
X0181429Y0213432D01*
X0182219Y0213041D01*
X0183000Y0212631D01*
X0183770Y0212201D01*
X0184529Y0211753D01*
X0185278Y0211287D01*
X0186014Y0210802D01*
X0186739Y0210299D01*
X0187451Y0209779D01*
X0188150Y0209241D01*
X0188835Y0208687D01*
X0189507Y0208115D01*
X0190165Y0207528D01*
X0190808Y0206925D01*
X0191436Y0206306D01*
X0192049Y0205671D01*
X0192646Y0205022D01*
X0193227Y0204359D01*
X0193791Y0203682D01*
X0194339Y0202991D01*
X0194870Y0202286D01*
X0195383Y0201569D01*
X0195879Y0200840D01*
X0196356Y0200098D01*
X0196815Y0199346D01*
X0197256Y0198582D01*
X0197678Y0197807D01*
X0198081Y0197023D01*
X0198464Y0196229D01*
X0198828Y0195425D01*
X0199172Y0194614D01*
X0199496Y0193793D01*
X0199800Y0192966D01*
X0200083Y0192131D01*
X0200346Y0191289D01*
X0200588Y0190441D01*
X0200810Y0189587D01*
X0201010Y0188729D01*
X0201190Y0187865D01*
X0201348Y0186998D01*
X0201485Y0186127D01*
X0201600Y0185252D01*
X0256092Y0216240D02*
X0256173Y0216238D01*
X0256253Y0216233D01*
X0256334Y0216223D01*
X0256414Y0216210D01*
X0256493Y0216194D01*
X0256571Y0216173D01*
X0256648Y0216149D01*
X0256724Y0216122D01*
X0256799Y0216091D01*
X0256872Y0216057D01*
X0256944Y0216019D01*
X0257013Y0215978D01*
X0257081Y0215934D01*
X0257147Y0215887D01*
X0257210Y0215836D01*
X0257271Y0215783D01*
X0257329Y0215727D01*
X0257385Y0215669D01*
X0257438Y0215608D01*
X0257489Y0215545D01*
X0257536Y0215479D01*
X0257580Y0215411D01*
X0257621Y0215342D01*
X0257659Y0215270D01*
X0257693Y0215197D01*
X0257724Y0215122D01*
X0257751Y0215046D01*
X0257775Y0214969D01*
X0257796Y0214891D01*
X0257812Y0214812D01*
X0257825Y0214732D01*
X0257835Y0214651D01*
X0257840Y0214571D01*
X0257842Y0214490D01*
X0257842Y0201490D01*
X0264592Y0194740D02*
X0264755Y0194742D01*
X0264918Y0194748D01*
X0265081Y0194758D01*
X0265243Y0194772D01*
X0265406Y0194789D01*
X0265567Y0194811D01*
X0265728Y0194836D01*
X0265889Y0194866D01*
X0266049Y0194899D01*
X0266207Y0194936D01*
X0266365Y0194977D01*
X0266522Y0195022D01*
X0266678Y0195070D01*
X0266832Y0195123D01*
X0266986Y0195179D01*
X0267137Y0195238D01*
X0267288Y0195302D01*
X0267436Y0195369D01*
X0267584Y0195439D01*
X0267729Y0195513D01*
X0267872Y0195591D01*
X0268014Y0195672D01*
X0268154Y0195756D01*
X0268291Y0195844D01*
X0268426Y0195935D01*
X0268560Y0196029D01*
X0268690Y0196127D01*
X0268819Y0196227D01*
X0268945Y0196331D01*
X0269068Y0196438D01*
X0269189Y0196547D01*
X0269307Y0196660D01*
X0269422Y0196775D01*
X0269535Y0196893D01*
X0269644Y0197014D01*
X0269751Y0197137D01*
X0269855Y0197263D01*
X0269955Y0197392D01*
X0270053Y0197522D01*
X0270147Y0197656D01*
X0270238Y0197791D01*
X0270326Y0197928D01*
X0270410Y0198068D01*
X0270491Y0198210D01*
X0270569Y0198353D01*
X0270643Y0198498D01*
X0270713Y0198646D01*
X0270780Y0198794D01*
X0270844Y0198945D01*
X0270903Y0199096D01*
X0270959Y0199250D01*
X0271012Y0199404D01*
X0271060Y0199560D01*
X0271105Y0199717D01*
X0271146Y0199875D01*
X0271183Y0200033D01*
X0271216Y0200193D01*
X0271246Y0200354D01*
X0271271Y0200515D01*
X0271293Y0200676D01*
X0271310Y0200839D01*
X0271324Y0201001D01*
X0271334Y0201164D01*
X0271340Y0201327D01*
X0271342Y0201490D01*
X0271342Y0214490D01*
X0271344Y0214571D01*
X0271349Y0214651D01*
X0271359Y0214732D01*
X0271372Y0214812D01*
X0271388Y0214891D01*
X0271409Y0214969D01*
X0271433Y0215046D01*
X0271460Y0215122D01*
X0271491Y0215197D01*
X0271525Y0215270D01*
X0271563Y0215342D01*
X0271604Y0215411D01*
X0271648Y0215479D01*
X0271695Y0215545D01*
X0271746Y0215608D01*
X0271799Y0215669D01*
X0271855Y0215727D01*
X0271913Y0215783D01*
X0271974Y0215836D01*
X0272037Y0215887D01*
X0272103Y0215934D01*
X0272171Y0215978D01*
X0272240Y0216019D01*
X0272312Y0216057D01*
X0272385Y0216091D01*
X0272460Y0216122D01*
X0272536Y0216149D01*
X0272613Y0216173D01*
X0272691Y0216194D01*
X0272770Y0216210D01*
X0272850Y0216223D01*
X0272931Y0216233D01*
X0273011Y0216238D01*
X0273092Y0216240D01*
X0257842Y0201490D02*
X0257844Y0201327D01*
X0257850Y0201164D01*
X0257860Y0201001D01*
X0257874Y0200839D01*
X0257891Y0200676D01*
X0257913Y0200515D01*
X0257938Y0200354D01*
X0257968Y0200193D01*
X0258001Y0200033D01*
X0258038Y0199875D01*
X0258079Y0199717D01*
X0258124Y0199560D01*
X0258172Y0199404D01*
X0258225Y0199250D01*
X0258281Y0199096D01*
X0258340Y0198945D01*
X0258404Y0198794D01*
X0258471Y0198646D01*
X0258541Y0198498D01*
X0258615Y0198353D01*
X0258693Y0198210D01*
X0258774Y0198068D01*
X0258858Y0197928D01*
X0258946Y0197791D01*
X0259037Y0197656D01*
X0259131Y0197522D01*
X0259229Y0197392D01*
X0259329Y0197263D01*
X0259433Y0197137D01*
X0259540Y0197014D01*
X0259649Y0196893D01*
X0259762Y0196775D01*
X0259877Y0196660D01*
X0259995Y0196547D01*
X0260116Y0196438D01*
X0260239Y0196331D01*
X0260365Y0196227D01*
X0260494Y0196127D01*
X0260624Y0196029D01*
X0260758Y0195935D01*
X0260893Y0195844D01*
X0261030Y0195756D01*
X0261170Y0195672D01*
X0261312Y0195591D01*
X0261455Y0195513D01*
X0261600Y0195439D01*
X0261748Y0195369D01*
X0261896Y0195302D01*
X0262047Y0195238D01*
X0262198Y0195179D01*
X0262352Y0195123D01*
X0262506Y0195070D01*
X0262662Y0195022D01*
X0262819Y0194977D01*
X0262977Y0194936D01*
X0263135Y0194899D01*
X0263295Y0194866D01*
X0263456Y0194836D01*
X0263617Y0194811D01*
X0263778Y0194789D01*
X0263941Y0194772D01*
X0264103Y0194758D01*
X0264266Y0194748D01*
X0264429Y0194742D01*
X0264592Y0194740D01*
X0256092Y0216240D02*
X0255231Y0216052D01*
X0254374Y0215843D01*
X0253523Y0215614D01*
X0252677Y0215363D01*
X0251838Y0215092D01*
X0251006Y0214800D01*
X0250181Y0214488D01*
X0249364Y0214156D01*
X0248556Y0213804D01*
X0247756Y0213432D01*
X0246966Y0213041D01*
X0246185Y0212631D01*
X0245415Y0212201D01*
X0244656Y0211753D01*
X0243907Y0211287D01*
X0243171Y0210802D01*
X0242446Y0210299D01*
X0241734Y0209779D01*
X0241035Y0209241D01*
X0240350Y0208687D01*
X0239678Y0208115D01*
X0239020Y0207528D01*
X0238377Y0206925D01*
X0237749Y0206306D01*
X0237136Y0205671D01*
X0236539Y0205022D01*
X0235958Y0204359D01*
X0235394Y0203682D01*
X0234846Y0202991D01*
X0234315Y0202286D01*
X0233802Y0201569D01*
X0233306Y0200840D01*
X0232829Y0200098D01*
X0232370Y0199346D01*
X0231929Y0198582D01*
X0231507Y0197807D01*
X0231104Y0197023D01*
X0230721Y0196229D01*
X0230357Y0195425D01*
X0230013Y0194614D01*
X0229689Y0193793D01*
X0229385Y0192966D01*
X0229102Y0192131D01*
X0228839Y0191289D01*
X0228597Y0190441D01*
X0228375Y0189587D01*
X0228175Y0188729D01*
X0227995Y0187865D01*
X0227837Y0186998D01*
X0227700Y0186127D01*
X0227585Y0185252D01*
X0227584Y0174228D02*
X0227731Y0173322D01*
X0227899Y0172420D01*
X0228090Y0171522D01*
X0228302Y0170629D01*
X0228537Y0169741D01*
X0228793Y0168860D01*
X0229071Y0167985D01*
X0229370Y0167117D01*
X0229690Y0166257D01*
X0230031Y0165405D01*
X0230393Y0164561D01*
X0230776Y0163727D01*
X0231179Y0162902D01*
X0231602Y0162088D01*
X0232045Y0161284D01*
X0232507Y0160491D01*
X0232989Y0159709D01*
X0233490Y0158940D01*
X0234010Y0158183D01*
X0234548Y0157440D01*
X0235104Y0156709D01*
X0235678Y0155993D01*
X0236269Y0155291D01*
X0236877Y0154603D01*
X0237502Y0153931D01*
X0238143Y0153274D01*
X0238801Y0152633D01*
X0239473Y0152009D01*
X0240161Y0151401D01*
X0240864Y0150810D01*
X0241581Y0150237D01*
X0242311Y0149681D01*
X0243055Y0149144D01*
X0243812Y0148625D01*
X0244582Y0148124D01*
X0245363Y0147643D01*
X0246157Y0147181D01*
X0246961Y0146738D01*
X0247776Y0146316D01*
X0248601Y0145913D01*
X0249435Y0145531D01*
X0250279Y0145170D01*
X0251131Y0144829D01*
X0251992Y0144509D01*
X0252860Y0144211D01*
X0253735Y0143934D01*
X0254617Y0143678D01*
X0255504Y0143444D01*
X0256397Y0143232D01*
X0257295Y0143042D01*
X0258198Y0142874D01*
X0259104Y0142729D01*
X0260014Y0142605D01*
X0260926Y0142504D01*
X0261841Y0142425D01*
X0262757Y0142369D01*
X0263674Y0142335D01*
X0264592Y0142324D01*
X0265510Y0142335D01*
X0266427Y0142369D01*
X0267343Y0142425D01*
X0268258Y0142504D01*
X0269170Y0142605D01*
X0270080Y0142729D01*
X0270986Y0142874D01*
X0271889Y0143042D01*
X0272787Y0143232D01*
X0273680Y0143444D01*
X0274567Y0143678D01*
X0275449Y0143934D01*
X0276324Y0144211D01*
X0277192Y0144509D01*
X0278053Y0144829D01*
X0278905Y0145170D01*
X0279749Y0145531D01*
X0280583Y0145913D01*
X0281408Y0146316D01*
X0282223Y0146738D01*
X0283027Y0147181D01*
X0283821Y0147643D01*
X0284602Y0148124D01*
X0285372Y0148625D01*
X0286129Y0149144D01*
X0286873Y0149681D01*
X0287603Y0150237D01*
X0288320Y0150810D01*
X0289023Y0151401D01*
X0289711Y0152009D01*
X0290383Y0152633D01*
X0291041Y0153274D01*
X0291682Y0153931D01*
X0292307Y0154603D01*
X0292915Y0155291D01*
X0293506Y0155993D01*
X0294080Y0156709D01*
X0294636Y0157440D01*
X0295174Y0158183D01*
X0295694Y0158940D01*
X0296195Y0159709D01*
X0296677Y0160491D01*
X0297139Y0161284D01*
X0297582Y0162088D01*
X0298005Y0162902D01*
X0298408Y0163727D01*
X0298791Y0164561D01*
X0299153Y0165405D01*
X0299494Y0166257D01*
X0299814Y0167117D01*
X0300113Y0167985D01*
X0300391Y0168860D01*
X0300647Y0169741D01*
X0300882Y0170629D01*
X0301094Y0171522D01*
X0301285Y0172420D01*
X0301453Y0173322D01*
X0301600Y0174228D01*
X0301600Y0185252D02*
X0301485Y0186127D01*
X0301348Y0186998D01*
X0301190Y0187865D01*
X0301010Y0188729D01*
X0300810Y0189587D01*
X0300588Y0190441D01*
X0300346Y0191289D01*
X0300083Y0192131D01*
X0299800Y0192966D01*
X0299496Y0193793D01*
X0299172Y0194614D01*
X0298828Y0195425D01*
X0298464Y0196229D01*
X0298081Y0197023D01*
X0297678Y0197807D01*
X0297256Y0198582D01*
X0296815Y0199346D01*
X0296356Y0200098D01*
X0295879Y0200840D01*
X0295383Y0201569D01*
X0294870Y0202286D01*
X0294339Y0202991D01*
X0293791Y0203682D01*
X0293227Y0204359D01*
X0292646Y0205022D01*
X0292049Y0205671D01*
X0291436Y0206306D01*
X0290808Y0206925D01*
X0290165Y0207528D01*
X0289507Y0208115D01*
X0288835Y0208687D01*
X0288150Y0209241D01*
X0287451Y0209779D01*
X0286739Y0210299D01*
X0286014Y0210802D01*
X0285278Y0211287D01*
X0284529Y0211753D01*
X0283770Y0212201D01*
X0283000Y0212631D01*
X0282219Y0213041D01*
X0281429Y0213432D01*
X0280629Y0213804D01*
X0279821Y0214156D01*
X0279004Y0214488D01*
X0278179Y0214800D01*
X0277347Y0215092D01*
X0276508Y0215363D01*
X0275662Y0215614D01*
X0274811Y0215843D01*
X0273954Y0216052D01*
X0273093Y0216240D01*
X0301600Y0274228D02*
X0301453Y0273322D01*
X0301285Y0272420D01*
X0301094Y0271522D01*
X0300882Y0270629D01*
X0300647Y0269741D01*
X0300391Y0268860D01*
X0300113Y0267985D01*
X0299814Y0267117D01*
X0299494Y0266257D01*
X0299153Y0265405D01*
X0298791Y0264561D01*
X0298408Y0263727D01*
X0298005Y0262902D01*
X0297582Y0262088D01*
X0297139Y0261284D01*
X0296677Y0260491D01*
X0296195Y0259709D01*
X0295694Y0258940D01*
X0295174Y0258183D01*
X0294636Y0257440D01*
X0294080Y0256709D01*
X0293506Y0255993D01*
X0292915Y0255291D01*
X0292307Y0254603D01*
X0291682Y0253931D01*
X0291041Y0253274D01*
X0290383Y0252633D01*
X0289711Y0252009D01*
X0289023Y0251401D01*
X0288320Y0250810D01*
X0287603Y0250237D01*
X0286873Y0249681D01*
X0286129Y0249144D01*
X0285372Y0248625D01*
X0284602Y0248124D01*
X0283821Y0247643D01*
X0283027Y0247181D01*
X0282223Y0246738D01*
X0281408Y0246316D01*
X0280583Y0245913D01*
X0279749Y0245531D01*
X0278905Y0245170D01*
X0278053Y0244829D01*
X0277192Y0244509D01*
X0276324Y0244211D01*
X0275449Y0243934D01*
X0274567Y0243678D01*
X0273680Y0243444D01*
X0272787Y0243232D01*
X0271889Y0243042D01*
X0270986Y0242874D01*
X0270080Y0242729D01*
X0269170Y0242605D01*
X0268258Y0242504D01*
X0267343Y0242425D01*
X0266427Y0242369D01*
X0265510Y0242335D01*
X0264592Y0242324D01*
X0263674Y0242335D01*
X0262757Y0242369D01*
X0261841Y0242425D01*
X0260926Y0242504D01*
X0260014Y0242605D01*
X0259104Y0242729D01*
X0258198Y0242874D01*
X0257295Y0243042D01*
X0256397Y0243232D01*
X0255504Y0243444D01*
X0254617Y0243678D01*
X0253735Y0243934D01*
X0252860Y0244211D01*
X0251992Y0244509D01*
X0251131Y0244829D01*
X0250279Y0245170D01*
X0249435Y0245531D01*
X0248601Y0245913D01*
X0247776Y0246316D01*
X0246961Y0246738D01*
X0246157Y0247181D01*
X0245363Y0247643D01*
X0244582Y0248124D01*
X0243812Y0248625D01*
X0243055Y0249144D01*
X0242311Y0249681D01*
X0241581Y0250237D01*
X0240864Y0250810D01*
X0240161Y0251401D01*
X0239473Y0252009D01*
X0238801Y0252633D01*
X0238143Y0253274D01*
X0237502Y0253931D01*
X0236877Y0254603D01*
X0236269Y0255291D01*
X0235678Y0255993D01*
X0235104Y0256709D01*
X0234548Y0257440D01*
X0234010Y0258183D01*
X0233490Y0258940D01*
X0232989Y0259709D01*
X0232507Y0260491D01*
X0232045Y0261284D01*
X0231602Y0262088D01*
X0231179Y0262902D01*
X0230776Y0263727D01*
X0230393Y0264561D01*
X0230031Y0265405D01*
X0229690Y0266257D01*
X0229370Y0267117D01*
X0229071Y0267985D01*
X0228793Y0268860D01*
X0228537Y0269741D01*
X0228302Y0270629D01*
X0228090Y0271522D01*
X0227899Y0272420D01*
X0227731Y0273322D01*
X0227584Y0274228D01*
X0257842Y0301490D02*
X0257842Y0314490D01*
X0257840Y0314571D01*
X0257835Y0314651D01*
X0257825Y0314732D01*
X0257812Y0314812D01*
X0257796Y0314891D01*
X0257775Y0314969D01*
X0257751Y0315046D01*
X0257724Y0315122D01*
X0257693Y0315197D01*
X0257659Y0315270D01*
X0257621Y0315342D01*
X0257580Y0315411D01*
X0257536Y0315479D01*
X0257489Y0315545D01*
X0257438Y0315608D01*
X0257385Y0315669D01*
X0257329Y0315727D01*
X0257271Y0315783D01*
X0257210Y0315836D01*
X0257147Y0315887D01*
X0257081Y0315934D01*
X0257013Y0315978D01*
X0256944Y0316019D01*
X0256872Y0316057D01*
X0256799Y0316091D01*
X0256724Y0316122D01*
X0256648Y0316149D01*
X0256571Y0316173D01*
X0256493Y0316194D01*
X0256414Y0316210D01*
X0256334Y0316223D01*
X0256253Y0316233D01*
X0256173Y0316238D01*
X0256092Y0316240D01*
X0271342Y0301490D02*
X0271340Y0301327D01*
X0271334Y0301164D01*
X0271324Y0301001D01*
X0271310Y0300839D01*
X0271293Y0300676D01*
X0271271Y0300515D01*
X0271246Y0300354D01*
X0271216Y0300193D01*
X0271183Y0300033D01*
X0271146Y0299875D01*
X0271105Y0299717D01*
X0271060Y0299560D01*
X0271012Y0299404D01*
X0270959Y0299250D01*
X0270903Y0299096D01*
X0270844Y0298945D01*
X0270780Y0298794D01*
X0270713Y0298646D01*
X0270643Y0298498D01*
X0270569Y0298353D01*
X0270491Y0298210D01*
X0270410Y0298068D01*
X0270326Y0297928D01*
X0270238Y0297791D01*
X0270147Y0297656D01*
X0270053Y0297522D01*
X0269955Y0297392D01*
X0269855Y0297263D01*
X0269751Y0297137D01*
X0269644Y0297014D01*
X0269535Y0296893D01*
X0269422Y0296775D01*
X0269307Y0296660D01*
X0269189Y0296547D01*
X0269068Y0296438D01*
X0268945Y0296331D01*
X0268819Y0296227D01*
X0268690Y0296127D01*
X0268560Y0296029D01*
X0268426Y0295935D01*
X0268291Y0295844D01*
X0268154Y0295756D01*
X0268014Y0295672D01*
X0267872Y0295591D01*
X0267729Y0295513D01*
X0267584Y0295439D01*
X0267436Y0295369D01*
X0267288Y0295302D01*
X0267137Y0295238D01*
X0266986Y0295179D01*
X0266832Y0295123D01*
X0266678Y0295070D01*
X0266522Y0295022D01*
X0266365Y0294977D01*
X0266207Y0294936D01*
X0266049Y0294899D01*
X0265889Y0294866D01*
X0265728Y0294836D01*
X0265567Y0294811D01*
X0265406Y0294789D01*
X0265243Y0294772D01*
X0265081Y0294758D01*
X0264918Y0294748D01*
X0264755Y0294742D01*
X0264592Y0294740D01*
X0264429Y0294742D01*
X0264266Y0294748D01*
X0264103Y0294758D01*
X0263941Y0294772D01*
X0263778Y0294789D01*
X0263617Y0294811D01*
X0263456Y0294836D01*
X0263295Y0294866D01*
X0263135Y0294899D01*
X0262977Y0294936D01*
X0262819Y0294977D01*
X0262662Y0295022D01*
X0262506Y0295070D01*
X0262352Y0295123D01*
X0262198Y0295179D01*
X0262047Y0295238D01*
X0261896Y0295302D01*
X0261748Y0295369D01*
X0261600Y0295439D01*
X0261455Y0295513D01*
X0261312Y0295591D01*
X0261170Y0295672D01*
X0261030Y0295756D01*
X0260893Y0295844D01*
X0260758Y0295935D01*
X0260624Y0296029D01*
X0260494Y0296127D01*
X0260365Y0296227D01*
X0260239Y0296331D01*
X0260116Y0296438D01*
X0259995Y0296547D01*
X0259877Y0296660D01*
X0259762Y0296775D01*
X0259649Y0296893D01*
X0259540Y0297014D01*
X0259433Y0297137D01*
X0259329Y0297263D01*
X0259229Y0297392D01*
X0259131Y0297522D01*
X0259037Y0297656D01*
X0258946Y0297791D01*
X0258858Y0297928D01*
X0258774Y0298068D01*
X0258693Y0298210D01*
X0258615Y0298353D01*
X0258541Y0298498D01*
X0258471Y0298646D01*
X0258404Y0298794D01*
X0258340Y0298945D01*
X0258281Y0299096D01*
X0258225Y0299250D01*
X0258172Y0299404D01*
X0258124Y0299560D01*
X0258079Y0299717D01*
X0258038Y0299875D01*
X0258001Y0300033D01*
X0257968Y0300193D01*
X0257938Y0300354D01*
X0257913Y0300515D01*
X0257891Y0300676D01*
X0257874Y0300839D01*
X0257860Y0301001D01*
X0257850Y0301164D01*
X0257844Y0301327D01*
X0257842Y0301490D01*
X0271342Y0301490D02*
X0271342Y0314490D01*
X0271344Y0314571D01*
X0271349Y0314651D01*
X0271359Y0314732D01*
X0271372Y0314812D01*
X0271388Y0314891D01*
X0271409Y0314969D01*
X0271433Y0315046D01*
X0271460Y0315122D01*
X0271491Y0315197D01*
X0271525Y0315270D01*
X0271563Y0315342D01*
X0271604Y0315411D01*
X0271648Y0315479D01*
X0271695Y0315545D01*
X0271746Y0315608D01*
X0271799Y0315669D01*
X0271855Y0315727D01*
X0271913Y0315783D01*
X0271974Y0315836D01*
X0272037Y0315887D01*
X0272103Y0315934D01*
X0272171Y0315978D01*
X0272240Y0316019D01*
X0272312Y0316057D01*
X0272385Y0316091D01*
X0272460Y0316122D01*
X0272536Y0316149D01*
X0272613Y0316173D01*
X0272691Y0316194D01*
X0272770Y0316210D01*
X0272850Y0316223D01*
X0272931Y0316233D01*
X0273011Y0316238D01*
X0273092Y0316240D01*
X0273093Y0316240D02*
X0273954Y0316052D01*
X0274811Y0315843D01*
X0275662Y0315614D01*
X0276508Y0315363D01*
X0277347Y0315092D01*
X0278179Y0314800D01*
X0279004Y0314488D01*
X0279821Y0314156D01*
X0280629Y0313804D01*
X0281429Y0313432D01*
X0282219Y0313041D01*
X0283000Y0312631D01*
X0283770Y0312201D01*
X0284529Y0311753D01*
X0285278Y0311287D01*
X0286014Y0310802D01*
X0286739Y0310299D01*
X0287451Y0309779D01*
X0288150Y0309241D01*
X0288835Y0308687D01*
X0289507Y0308115D01*
X0290165Y0307528D01*
X0290808Y0306925D01*
X0291436Y0306306D01*
X0292049Y0305671D01*
X0292646Y0305022D01*
X0293227Y0304359D01*
X0293791Y0303682D01*
X0294339Y0302991D01*
X0294870Y0302286D01*
X0295383Y0301569D01*
X0295879Y0300840D01*
X0296356Y0300098D01*
X0296815Y0299346D01*
X0297256Y0298582D01*
X0297678Y0297807D01*
X0298081Y0297023D01*
X0298464Y0296229D01*
X0298828Y0295425D01*
X0299172Y0294614D01*
X0299496Y0293793D01*
X0299800Y0292966D01*
X0300083Y0292131D01*
X0300346Y0291289D01*
X0300588Y0290441D01*
X0300810Y0289587D01*
X0301010Y0288729D01*
X0301190Y0287865D01*
X0301348Y0286998D01*
X0301485Y0286127D01*
X0301600Y0285252D01*
X0256092Y0316240D02*
X0255231Y0316052D01*
X0254374Y0315843D01*
X0253523Y0315614D01*
X0252677Y0315363D01*
X0251838Y0315092D01*
X0251006Y0314800D01*
X0250181Y0314488D01*
X0249364Y0314156D01*
X0248556Y0313804D01*
X0247756Y0313432D01*
X0246966Y0313041D01*
X0246185Y0312631D01*
X0245415Y0312201D01*
X0244656Y0311753D01*
X0243907Y0311287D01*
X0243171Y0310802D01*
X0242446Y0310299D01*
X0241734Y0309779D01*
X0241035Y0309241D01*
X0240350Y0308687D01*
X0239678Y0308115D01*
X0239020Y0307528D01*
X0238377Y0306925D01*
X0237749Y0306306D01*
X0237136Y0305671D01*
X0236539Y0305022D01*
X0235958Y0304359D01*
X0235394Y0303682D01*
X0234846Y0302991D01*
X0234315Y0302286D01*
X0233802Y0301569D01*
X0233306Y0300840D01*
X0232829Y0300098D01*
X0232370Y0299346D01*
X0231929Y0298582D01*
X0231507Y0297807D01*
X0231104Y0297023D01*
X0230721Y0296229D01*
X0230357Y0295425D01*
X0230013Y0294614D01*
X0229689Y0293793D01*
X0229385Y0292966D01*
X0229102Y0292131D01*
X0228839Y0291289D01*
X0228597Y0290441D01*
X0228375Y0289587D01*
X0228175Y0288729D01*
X0227995Y0287865D01*
X0227837Y0286998D01*
X0227700Y0286127D01*
X0227585Y0285252D01*
X0173092Y0316240D02*
X0173011Y0316238D01*
X0172931Y0316233D01*
X0172850Y0316223D01*
X0172770Y0316210D01*
X0172691Y0316194D01*
X0172613Y0316173D01*
X0172536Y0316149D01*
X0172460Y0316122D01*
X0172385Y0316091D01*
X0172312Y0316057D01*
X0172240Y0316019D01*
X0172171Y0315978D01*
X0172103Y0315934D01*
X0172037Y0315887D01*
X0171974Y0315836D01*
X0171913Y0315783D01*
X0171855Y0315727D01*
X0171799Y0315669D01*
X0171746Y0315608D01*
X0171695Y0315545D01*
X0171648Y0315479D01*
X0171604Y0315411D01*
X0171563Y0315342D01*
X0171525Y0315270D01*
X0171491Y0315197D01*
X0171460Y0315122D01*
X0171433Y0315046D01*
X0171409Y0314969D01*
X0171388Y0314891D01*
X0171372Y0314812D01*
X0171359Y0314732D01*
X0171349Y0314651D01*
X0171344Y0314571D01*
X0171342Y0314490D01*
X0171342Y0301490D01*
X0171340Y0301327D01*
X0171334Y0301164D01*
X0171324Y0301001D01*
X0171310Y0300839D01*
X0171293Y0300676D01*
X0171271Y0300515D01*
X0171246Y0300354D01*
X0171216Y0300193D01*
X0171183Y0300033D01*
X0171146Y0299875D01*
X0171105Y0299717D01*
X0171060Y0299560D01*
X0171012Y0299404D01*
X0170959Y0299250D01*
X0170903Y0299096D01*
X0170844Y0298945D01*
X0170780Y0298794D01*
X0170713Y0298646D01*
X0170643Y0298498D01*
X0170569Y0298353D01*
X0170491Y0298210D01*
X0170410Y0298068D01*
X0170326Y0297928D01*
X0170238Y0297791D01*
X0170147Y0297656D01*
X0170053Y0297522D01*
X0169955Y0297392D01*
X0169855Y0297263D01*
X0169751Y0297137D01*
X0169644Y0297014D01*
X0169535Y0296893D01*
X0169422Y0296775D01*
X0169307Y0296660D01*
X0169189Y0296547D01*
X0169068Y0296438D01*
X0168945Y0296331D01*
X0168819Y0296227D01*
X0168690Y0296127D01*
X0168560Y0296029D01*
X0168426Y0295935D01*
X0168291Y0295844D01*
X0168154Y0295756D01*
X0168014Y0295672D01*
X0167872Y0295591D01*
X0167729Y0295513D01*
X0167584Y0295439D01*
X0167436Y0295369D01*
X0167288Y0295302D01*
X0167137Y0295238D01*
X0166986Y0295179D01*
X0166832Y0295123D01*
X0166678Y0295070D01*
X0166522Y0295022D01*
X0166365Y0294977D01*
X0166207Y0294936D01*
X0166049Y0294899D01*
X0165889Y0294866D01*
X0165728Y0294836D01*
X0165567Y0294811D01*
X0165406Y0294789D01*
X0165243Y0294772D01*
X0165081Y0294758D01*
X0164918Y0294748D01*
X0164755Y0294742D01*
X0164592Y0294740D01*
X0164429Y0294742D01*
X0164266Y0294748D01*
X0164103Y0294758D01*
X0163941Y0294772D01*
X0163778Y0294789D01*
X0163617Y0294811D01*
X0163456Y0294836D01*
X0163295Y0294866D01*
X0163135Y0294899D01*
X0162977Y0294936D01*
X0162819Y0294977D01*
X0162662Y0295022D01*
X0162506Y0295070D01*
X0162352Y0295123D01*
X0162198Y0295179D01*
X0162047Y0295238D01*
X0161896Y0295302D01*
X0161748Y0295369D01*
X0161600Y0295439D01*
X0161455Y0295513D01*
X0161312Y0295591D01*
X0161170Y0295672D01*
X0161030Y0295756D01*
X0160893Y0295844D01*
X0160758Y0295935D01*
X0160624Y0296029D01*
X0160494Y0296127D01*
X0160365Y0296227D01*
X0160239Y0296331D01*
X0160116Y0296438D01*
X0159995Y0296547D01*
X0159877Y0296660D01*
X0159762Y0296775D01*
X0159649Y0296893D01*
X0159540Y0297014D01*
X0159433Y0297137D01*
X0159329Y0297263D01*
X0159229Y0297392D01*
X0159131Y0297522D01*
X0159037Y0297656D01*
X0158946Y0297791D01*
X0158858Y0297928D01*
X0158774Y0298068D01*
X0158693Y0298210D01*
X0158615Y0298353D01*
X0158541Y0298498D01*
X0158471Y0298646D01*
X0158404Y0298794D01*
X0158340Y0298945D01*
X0158281Y0299096D01*
X0158225Y0299250D01*
X0158172Y0299404D01*
X0158124Y0299560D01*
X0158079Y0299717D01*
X0158038Y0299875D01*
X0158001Y0300033D01*
X0157968Y0300193D01*
X0157938Y0300354D01*
X0157913Y0300515D01*
X0157891Y0300676D01*
X0157874Y0300839D01*
X0157860Y0301001D01*
X0157850Y0301164D01*
X0157844Y0301327D01*
X0157842Y0301490D01*
X0157842Y0314490D01*
X0157840Y0314571D01*
X0157835Y0314651D01*
X0157825Y0314732D01*
X0157812Y0314812D01*
X0157796Y0314891D01*
X0157775Y0314969D01*
X0157751Y0315046D01*
X0157724Y0315122D01*
X0157693Y0315197D01*
X0157659Y0315270D01*
X0157621Y0315342D01*
X0157580Y0315411D01*
X0157536Y0315479D01*
X0157489Y0315545D01*
X0157438Y0315608D01*
X0157385Y0315669D01*
X0157329Y0315727D01*
X0157271Y0315783D01*
X0157210Y0315836D01*
X0157147Y0315887D01*
X0157081Y0315934D01*
X0157013Y0315978D01*
X0156944Y0316019D01*
X0156872Y0316057D01*
X0156799Y0316091D01*
X0156724Y0316122D01*
X0156648Y0316149D01*
X0156571Y0316173D01*
X0156493Y0316194D01*
X0156414Y0316210D01*
X0156334Y0316223D01*
X0156253Y0316233D01*
X0156173Y0316238D01*
X0156092Y0316240D01*
X0155231Y0316052D01*
X0154374Y0315843D01*
X0153523Y0315614D01*
X0152677Y0315363D01*
X0151838Y0315092D01*
X0151006Y0314800D01*
X0150181Y0314488D01*
X0149364Y0314156D01*
X0148556Y0313804D01*
X0147756Y0313432D01*
X0146966Y0313041D01*
X0146185Y0312631D01*
X0145415Y0312201D01*
X0144656Y0311753D01*
X0143907Y0311287D01*
X0143171Y0310802D01*
X0142446Y0310299D01*
X0141734Y0309779D01*
X0141035Y0309241D01*
X0140350Y0308687D01*
X0139678Y0308115D01*
X0139020Y0307528D01*
X0138377Y0306925D01*
X0137749Y0306306D01*
X0137136Y0305671D01*
X0136539Y0305022D01*
X0135958Y0304359D01*
X0135394Y0303682D01*
X0134846Y0302991D01*
X0134315Y0302286D01*
X0133802Y0301569D01*
X0133306Y0300840D01*
X0132829Y0300098D01*
X0132370Y0299346D01*
X0131929Y0298582D01*
X0131507Y0297807D01*
X0131104Y0297023D01*
X0130721Y0296229D01*
X0130357Y0295425D01*
X0130013Y0294614D01*
X0129689Y0293793D01*
X0129385Y0292966D01*
X0129102Y0292131D01*
X0128839Y0291289D01*
X0128597Y0290441D01*
X0128375Y0289587D01*
X0128175Y0288729D01*
X0127995Y0287865D01*
X0127837Y0286998D01*
X0127700Y0286127D01*
X0127585Y0285252D01*
X0127584Y0274228D02*
X0127731Y0273322D01*
X0127899Y0272420D01*
X0128090Y0271522D01*
X0128302Y0270629D01*
X0128537Y0269741D01*
X0128793Y0268860D01*
X0129071Y0267985D01*
X0129370Y0267117D01*
X0129690Y0266257D01*
X0130031Y0265405D01*
X0130393Y0264561D01*
X0130776Y0263727D01*
X0131179Y0262902D01*
X0131602Y0262088D01*
X0132045Y0261284D01*
X0132507Y0260491D01*
X0132989Y0259709D01*
X0133490Y0258940D01*
X0134010Y0258183D01*
X0134548Y0257440D01*
X0135104Y0256709D01*
X0135678Y0255993D01*
X0136269Y0255291D01*
X0136877Y0254603D01*
X0137502Y0253931D01*
X0138143Y0253274D01*
X0138801Y0252633D01*
X0139473Y0252009D01*
X0140161Y0251401D01*
X0140864Y0250810D01*
X0141581Y0250237D01*
X0142311Y0249681D01*
X0143055Y0249144D01*
X0143812Y0248625D01*
X0144582Y0248124D01*
X0145363Y0247643D01*
X0146157Y0247181D01*
X0146961Y0246738D01*
X0147776Y0246316D01*
X0148601Y0245913D01*
X0149435Y0245531D01*
X0150279Y0245170D01*
X0151131Y0244829D01*
X0151992Y0244509D01*
X0152860Y0244211D01*
X0153735Y0243934D01*
X0154617Y0243678D01*
X0155504Y0243444D01*
X0156397Y0243232D01*
X0157295Y0243042D01*
X0158198Y0242874D01*
X0159104Y0242729D01*
X0160014Y0242605D01*
X0160926Y0242504D01*
X0161841Y0242425D01*
X0162757Y0242369D01*
X0163674Y0242335D01*
X0164592Y0242324D01*
X0165510Y0242335D01*
X0166427Y0242369D01*
X0167343Y0242425D01*
X0168258Y0242504D01*
X0169170Y0242605D01*
X0170080Y0242729D01*
X0170986Y0242874D01*
X0171889Y0243042D01*
X0172787Y0243232D01*
X0173680Y0243444D01*
X0174567Y0243678D01*
X0175449Y0243934D01*
X0176324Y0244211D01*
X0177192Y0244509D01*
X0178053Y0244829D01*
X0178905Y0245170D01*
X0179749Y0245531D01*
X0180583Y0245913D01*
X0181408Y0246316D01*
X0182223Y0246738D01*
X0183027Y0247181D01*
X0183821Y0247643D01*
X0184602Y0248124D01*
X0185372Y0248625D01*
X0186129Y0249144D01*
X0186873Y0249681D01*
X0187603Y0250237D01*
X0188320Y0250810D01*
X0189023Y0251401D01*
X0189711Y0252009D01*
X0190383Y0252633D01*
X0191041Y0253274D01*
X0191682Y0253931D01*
X0192307Y0254603D01*
X0192915Y0255291D01*
X0193506Y0255993D01*
X0194080Y0256709D01*
X0194636Y0257440D01*
X0195174Y0258183D01*
X0195694Y0258940D01*
X0196195Y0259709D01*
X0196677Y0260491D01*
X0197139Y0261284D01*
X0197582Y0262088D01*
X0198005Y0262902D01*
X0198408Y0263727D01*
X0198791Y0264561D01*
X0199153Y0265405D01*
X0199494Y0266257D01*
X0199814Y0267117D01*
X0200113Y0267985D01*
X0200391Y0268860D01*
X0200647Y0269741D01*
X0200882Y0270629D01*
X0201094Y0271522D01*
X0201285Y0272420D01*
X0201453Y0273322D01*
X0201600Y0274228D01*
X0201600Y0285252D02*
X0201485Y0286127D01*
X0201348Y0286998D01*
X0201190Y0287865D01*
X0201010Y0288729D01*
X0200810Y0289587D01*
X0200588Y0290441D01*
X0200346Y0291289D01*
X0200083Y0292131D01*
X0199800Y0292966D01*
X0199496Y0293793D01*
X0199172Y0294614D01*
X0198828Y0295425D01*
X0198464Y0296229D01*
X0198081Y0297023D01*
X0197678Y0297807D01*
X0197256Y0298582D01*
X0196815Y0299346D01*
X0196356Y0300098D01*
X0195879Y0300840D01*
X0195383Y0301569D01*
X0194870Y0302286D01*
X0194339Y0302991D01*
X0193791Y0303682D01*
X0193227Y0304359D01*
X0192646Y0305022D01*
X0192049Y0305671D01*
X0191436Y0306306D01*
X0190808Y0306925D01*
X0190165Y0307528D01*
X0189507Y0308115D01*
X0188835Y0308687D01*
X0188150Y0309241D01*
X0187451Y0309779D01*
X0186739Y0310299D01*
X0186014Y0310802D01*
X0185278Y0311287D01*
X0184529Y0311753D01*
X0183770Y0312201D01*
X0183000Y0312631D01*
X0182219Y0313041D01*
X0181429Y0313432D01*
X0180629Y0313804D01*
X0179821Y0314156D01*
X0179004Y0314488D01*
X0178179Y0314800D01*
X0177347Y0315092D01*
X0176508Y0315363D01*
X0175662Y0315614D01*
X0174811Y0315843D01*
X0173954Y0316052D01*
X0173093Y0316240D01*
X0073092Y0316240D02*
X0073011Y0316238D01*
X0072931Y0316233D01*
X0072850Y0316223D01*
X0072770Y0316210D01*
X0072691Y0316194D01*
X0072613Y0316173D01*
X0072536Y0316149D01*
X0072460Y0316122D01*
X0072385Y0316091D01*
X0072312Y0316057D01*
X0072240Y0316019D01*
X0072171Y0315978D01*
X0072103Y0315934D01*
X0072037Y0315887D01*
X0071974Y0315836D01*
X0071913Y0315783D01*
X0071855Y0315727D01*
X0071799Y0315669D01*
X0071746Y0315608D01*
X0071695Y0315545D01*
X0071648Y0315479D01*
X0071604Y0315411D01*
X0071563Y0315342D01*
X0071525Y0315270D01*
X0071491Y0315197D01*
X0071460Y0315122D01*
X0071433Y0315046D01*
X0071409Y0314969D01*
X0071388Y0314891D01*
X0071372Y0314812D01*
X0071359Y0314732D01*
X0071349Y0314651D01*
X0071344Y0314571D01*
X0071342Y0314490D01*
X0071342Y0301490D01*
X0071340Y0301327D01*
X0071334Y0301164D01*
X0071324Y0301001D01*
X0071310Y0300839D01*
X0071293Y0300676D01*
X0071271Y0300515D01*
X0071246Y0300354D01*
X0071216Y0300193D01*
X0071183Y0300033D01*
X0071146Y0299875D01*
X0071105Y0299717D01*
X0071060Y0299560D01*
X0071012Y0299404D01*
X0070959Y0299250D01*
X0070903Y0299096D01*
X0070844Y0298945D01*
X0070780Y0298794D01*
X0070713Y0298646D01*
X0070643Y0298498D01*
X0070569Y0298353D01*
X0070491Y0298210D01*
X0070410Y0298068D01*
X0070326Y0297928D01*
X0070238Y0297791D01*
X0070147Y0297656D01*
X0070053Y0297522D01*
X0069955Y0297392D01*
X0069855Y0297263D01*
X0069751Y0297137D01*
X0069644Y0297014D01*
X0069535Y0296893D01*
X0069422Y0296775D01*
X0069307Y0296660D01*
X0069189Y0296547D01*
X0069068Y0296438D01*
X0068945Y0296331D01*
X0068819Y0296227D01*
X0068690Y0296127D01*
X0068560Y0296029D01*
X0068426Y0295935D01*
X0068291Y0295844D01*
X0068154Y0295756D01*
X0068014Y0295672D01*
X0067872Y0295591D01*
X0067729Y0295513D01*
X0067584Y0295439D01*
X0067436Y0295369D01*
X0067288Y0295302D01*
X0067137Y0295238D01*
X0066986Y0295179D01*
X0066832Y0295123D01*
X0066678Y0295070D01*
X0066522Y0295022D01*
X0066365Y0294977D01*
X0066207Y0294936D01*
X0066049Y0294899D01*
X0065889Y0294866D01*
X0065728Y0294836D01*
X0065567Y0294811D01*
X0065406Y0294789D01*
X0065243Y0294772D01*
X0065081Y0294758D01*
X0064918Y0294748D01*
X0064755Y0294742D01*
X0064592Y0294740D01*
X0064429Y0294742D01*
X0064266Y0294748D01*
X0064103Y0294758D01*
X0063941Y0294772D01*
X0063778Y0294789D01*
X0063617Y0294811D01*
X0063456Y0294836D01*
X0063295Y0294866D01*
X0063135Y0294899D01*
X0062977Y0294936D01*
X0062819Y0294977D01*
X0062662Y0295022D01*
X0062506Y0295070D01*
X0062352Y0295123D01*
X0062198Y0295179D01*
X0062047Y0295238D01*
X0061896Y0295302D01*
X0061748Y0295369D01*
X0061600Y0295439D01*
X0061455Y0295513D01*
X0061312Y0295591D01*
X0061170Y0295672D01*
X0061030Y0295756D01*
X0060893Y0295844D01*
X0060758Y0295935D01*
X0060624Y0296029D01*
X0060494Y0296127D01*
X0060365Y0296227D01*
X0060239Y0296331D01*
X0060116Y0296438D01*
X0059995Y0296547D01*
X0059877Y0296660D01*
X0059762Y0296775D01*
X0059649Y0296893D01*
X0059540Y0297014D01*
X0059433Y0297137D01*
X0059329Y0297263D01*
X0059229Y0297392D01*
X0059131Y0297522D01*
X0059037Y0297656D01*
X0058946Y0297791D01*
X0058858Y0297928D01*
X0058774Y0298068D01*
X0058693Y0298210D01*
X0058615Y0298353D01*
X0058541Y0298498D01*
X0058471Y0298646D01*
X0058404Y0298794D01*
X0058340Y0298945D01*
X0058281Y0299096D01*
X0058225Y0299250D01*
X0058172Y0299404D01*
X0058124Y0299560D01*
X0058079Y0299717D01*
X0058038Y0299875D01*
X0058001Y0300033D01*
X0057968Y0300193D01*
X0057938Y0300354D01*
X0057913Y0300515D01*
X0057891Y0300676D01*
X0057874Y0300839D01*
X0057860Y0301001D01*
X0057850Y0301164D01*
X0057844Y0301327D01*
X0057842Y0301490D01*
X0057842Y0314490D01*
X0057840Y0314571D01*
X0057835Y0314651D01*
X0057825Y0314732D01*
X0057812Y0314812D01*
X0057796Y0314891D01*
X0057775Y0314969D01*
X0057751Y0315046D01*
X0057724Y0315122D01*
X0057693Y0315197D01*
X0057659Y0315270D01*
X0057621Y0315342D01*
X0057580Y0315411D01*
X0057536Y0315479D01*
X0057489Y0315545D01*
X0057438Y0315608D01*
X0057385Y0315669D01*
X0057329Y0315727D01*
X0057271Y0315783D01*
X0057210Y0315836D01*
X0057147Y0315887D01*
X0057081Y0315934D01*
X0057013Y0315978D01*
X0056944Y0316019D01*
X0056872Y0316057D01*
X0056799Y0316091D01*
X0056724Y0316122D01*
X0056648Y0316149D01*
X0056571Y0316173D01*
X0056493Y0316194D01*
X0056414Y0316210D01*
X0056334Y0316223D01*
X0056253Y0316233D01*
X0056173Y0316238D01*
X0056092Y0316240D01*
X0055231Y0316052D01*
X0054374Y0315843D01*
X0053523Y0315614D01*
X0052677Y0315363D01*
X0051838Y0315092D01*
X0051006Y0314800D01*
X0050181Y0314488D01*
X0049364Y0314156D01*
X0048556Y0313804D01*
X0047756Y0313432D01*
X0046966Y0313041D01*
X0046185Y0312631D01*
X0045415Y0312201D01*
X0044656Y0311753D01*
X0043907Y0311287D01*
X0043171Y0310802D01*
X0042446Y0310299D01*
X0041734Y0309779D01*
X0041035Y0309241D01*
X0040350Y0308687D01*
X0039678Y0308115D01*
X0039020Y0307528D01*
X0038377Y0306925D01*
X0037749Y0306306D01*
X0037136Y0305671D01*
X0036539Y0305022D01*
X0035958Y0304359D01*
X0035394Y0303682D01*
X0034846Y0302991D01*
X0034315Y0302286D01*
X0033802Y0301569D01*
X0033306Y0300840D01*
X0032829Y0300098D01*
X0032370Y0299346D01*
X0031929Y0298582D01*
X0031507Y0297807D01*
X0031104Y0297023D01*
X0030721Y0296229D01*
X0030357Y0295425D01*
X0030013Y0294614D01*
X0029689Y0293793D01*
X0029385Y0292966D01*
X0029102Y0292131D01*
X0028839Y0291289D01*
X0028597Y0290441D01*
X0028375Y0289587D01*
X0028175Y0288729D01*
X0027995Y0287865D01*
X0027837Y0286998D01*
X0027700Y0286127D01*
X0027585Y0285252D01*
X0027584Y0274228D02*
X0027731Y0273322D01*
X0027899Y0272420D01*
X0028090Y0271522D01*
X0028302Y0270629D01*
X0028537Y0269741D01*
X0028793Y0268860D01*
X0029071Y0267985D01*
X0029370Y0267117D01*
X0029690Y0266257D01*
X0030031Y0265405D01*
X0030393Y0264561D01*
X0030776Y0263727D01*
X0031179Y0262902D01*
X0031602Y0262088D01*
X0032045Y0261284D01*
X0032507Y0260491D01*
X0032989Y0259709D01*
X0033490Y0258940D01*
X0034010Y0258183D01*
X0034548Y0257440D01*
X0035104Y0256709D01*
X0035678Y0255993D01*
X0036269Y0255291D01*
X0036877Y0254603D01*
X0037502Y0253931D01*
X0038143Y0253274D01*
X0038801Y0252633D01*
X0039473Y0252009D01*
X0040161Y0251401D01*
X0040864Y0250810D01*
X0041581Y0250237D01*
X0042311Y0249681D01*
X0043055Y0249144D01*
X0043812Y0248625D01*
X0044582Y0248124D01*
X0045363Y0247643D01*
X0046157Y0247181D01*
X0046961Y0246738D01*
X0047776Y0246316D01*
X0048601Y0245913D01*
X0049435Y0245531D01*
X0050279Y0245170D01*
X0051131Y0244829D01*
X0051992Y0244509D01*
X0052860Y0244211D01*
X0053735Y0243934D01*
X0054617Y0243678D01*
X0055504Y0243444D01*
X0056397Y0243232D01*
X0057295Y0243042D01*
X0058198Y0242874D01*
X0059104Y0242729D01*
X0060014Y0242605D01*
X0060926Y0242504D01*
X0061841Y0242425D01*
X0062757Y0242369D01*
X0063674Y0242335D01*
X0064592Y0242324D01*
X0065510Y0242335D01*
X0066427Y0242369D01*
X0067343Y0242425D01*
X0068258Y0242504D01*
X0069170Y0242605D01*
X0070080Y0242729D01*
X0070986Y0242874D01*
X0071889Y0243042D01*
X0072787Y0243232D01*
X0073680Y0243444D01*
X0074567Y0243678D01*
X0075449Y0243934D01*
X0076324Y0244211D01*
X0077192Y0244509D01*
X0078053Y0244829D01*
X0078905Y0245170D01*
X0079749Y0245531D01*
X0080583Y0245913D01*
X0081408Y0246316D01*
X0082223Y0246738D01*
X0083027Y0247181D01*
X0083821Y0247643D01*
X0084602Y0248124D01*
X0085372Y0248625D01*
X0086129Y0249144D01*
X0086873Y0249681D01*
X0087603Y0250237D01*
X0088320Y0250810D01*
X0089023Y0251401D01*
X0089711Y0252009D01*
X0090383Y0252633D01*
X0091041Y0253274D01*
X0091682Y0253931D01*
X0092307Y0254603D01*
X0092915Y0255291D01*
X0093506Y0255993D01*
X0094080Y0256709D01*
X0094636Y0257440D01*
X0095174Y0258183D01*
X0095694Y0258940D01*
X0096195Y0259709D01*
X0096677Y0260491D01*
X0097139Y0261284D01*
X0097582Y0262088D01*
X0098005Y0262902D01*
X0098408Y0263727D01*
X0098791Y0264561D01*
X0099153Y0265405D01*
X0099494Y0266257D01*
X0099814Y0267117D01*
X0100113Y0267985D01*
X0100391Y0268860D01*
X0100647Y0269741D01*
X0100882Y0270629D01*
X0101094Y0271522D01*
X0101285Y0272420D01*
X0101453Y0273322D01*
X0101600Y0274228D01*
X0101600Y0285252D02*
X0101485Y0286127D01*
X0101348Y0286998D01*
X0101190Y0287865D01*
X0101010Y0288729D01*
X0100810Y0289587D01*
X0100588Y0290441D01*
X0100346Y0291289D01*
X0100083Y0292131D01*
X0099800Y0292966D01*
X0099496Y0293793D01*
X0099172Y0294614D01*
X0098828Y0295425D01*
X0098464Y0296229D01*
X0098081Y0297023D01*
X0097678Y0297807D01*
X0097256Y0298582D01*
X0096815Y0299346D01*
X0096356Y0300098D01*
X0095879Y0300840D01*
X0095383Y0301569D01*
X0094870Y0302286D01*
X0094339Y0302991D01*
X0093791Y0303682D01*
X0093227Y0304359D01*
X0092646Y0305022D01*
X0092049Y0305671D01*
X0091436Y0306306D01*
X0090808Y0306925D01*
X0090165Y0307528D01*
X0089507Y0308115D01*
X0088835Y0308687D01*
X0088150Y0309241D01*
X0087451Y0309779D01*
X0086739Y0310299D01*
X0086014Y0310802D01*
X0085278Y0311287D01*
X0084529Y0311753D01*
X0083770Y0312201D01*
X0083000Y0312631D01*
X0082219Y0313041D01*
X0081429Y0313432D01*
X0080629Y0313804D01*
X0079821Y0314156D01*
X0079004Y0314488D01*
X0078179Y0314800D01*
X0077347Y0315092D01*
X0076508Y0315363D01*
X0075662Y0315614D01*
X0074811Y0315843D01*
X0073954Y0316052D01*
X0073093Y0316240D01*
X0073092Y0216240D02*
X0073011Y0216238D01*
X0072931Y0216233D01*
X0072850Y0216223D01*
X0072770Y0216210D01*
X0072691Y0216194D01*
X0072613Y0216173D01*
X0072536Y0216149D01*
X0072460Y0216122D01*
X0072385Y0216091D01*
X0072312Y0216057D01*
X0072240Y0216019D01*
X0072171Y0215978D01*
X0072103Y0215934D01*
X0072037Y0215887D01*
X0071974Y0215836D01*
X0071913Y0215783D01*
X0071855Y0215727D01*
X0071799Y0215669D01*
X0071746Y0215608D01*
X0071695Y0215545D01*
X0071648Y0215479D01*
X0071604Y0215411D01*
X0071563Y0215342D01*
X0071525Y0215270D01*
X0071491Y0215197D01*
X0071460Y0215122D01*
X0071433Y0215046D01*
X0071409Y0214969D01*
X0071388Y0214891D01*
X0071372Y0214812D01*
X0071359Y0214732D01*
X0071349Y0214651D01*
X0071344Y0214571D01*
X0071342Y0214490D01*
X0071342Y0201490D01*
X0071340Y0201327D01*
X0071334Y0201164D01*
X0071324Y0201001D01*
X0071310Y0200839D01*
X0071293Y0200676D01*
X0071271Y0200515D01*
X0071246Y0200354D01*
X0071216Y0200193D01*
X0071183Y0200033D01*
X0071146Y0199875D01*
X0071105Y0199717D01*
X0071060Y0199560D01*
X0071012Y0199404D01*
X0070959Y0199250D01*
X0070903Y0199096D01*
X0070844Y0198945D01*
X0070780Y0198794D01*
X0070713Y0198646D01*
X0070643Y0198498D01*
X0070569Y0198353D01*
X0070491Y0198210D01*
X0070410Y0198068D01*
X0070326Y0197928D01*
X0070238Y0197791D01*
X0070147Y0197656D01*
X0070053Y0197522D01*
X0069955Y0197392D01*
X0069855Y0197263D01*
X0069751Y0197137D01*
X0069644Y0197014D01*
X0069535Y0196893D01*
X0069422Y0196775D01*
X0069307Y0196660D01*
X0069189Y0196547D01*
X0069068Y0196438D01*
X0068945Y0196331D01*
X0068819Y0196227D01*
X0068690Y0196127D01*
X0068560Y0196029D01*
X0068426Y0195935D01*
X0068291Y0195844D01*
X0068154Y0195756D01*
X0068014Y0195672D01*
X0067872Y0195591D01*
X0067729Y0195513D01*
X0067584Y0195439D01*
X0067436Y0195369D01*
X0067288Y0195302D01*
X0067137Y0195238D01*
X0066986Y0195179D01*
X0066832Y0195123D01*
X0066678Y0195070D01*
X0066522Y0195022D01*
X0066365Y0194977D01*
X0066207Y0194936D01*
X0066049Y0194899D01*
X0065889Y0194866D01*
X0065728Y0194836D01*
X0065567Y0194811D01*
X0065406Y0194789D01*
X0065243Y0194772D01*
X0065081Y0194758D01*
X0064918Y0194748D01*
X0064755Y0194742D01*
X0064592Y0194740D01*
X0064429Y0194742D01*
X0064266Y0194748D01*
X0064103Y0194758D01*
X0063941Y0194772D01*
X0063778Y0194789D01*
X0063617Y0194811D01*
X0063456Y0194836D01*
X0063295Y0194866D01*
X0063135Y0194899D01*
X0062977Y0194936D01*
X0062819Y0194977D01*
X0062662Y0195022D01*
X0062506Y0195070D01*
X0062352Y0195123D01*
X0062198Y0195179D01*
X0062047Y0195238D01*
X0061896Y0195302D01*
X0061748Y0195369D01*
X0061600Y0195439D01*
X0061455Y0195513D01*
X0061312Y0195591D01*
X0061170Y0195672D01*
X0061030Y0195756D01*
X0060893Y0195844D01*
X0060758Y0195935D01*
X0060624Y0196029D01*
X0060494Y0196127D01*
X0060365Y0196227D01*
X0060239Y0196331D01*
X0060116Y0196438D01*
X0059995Y0196547D01*
X0059877Y0196660D01*
X0059762Y0196775D01*
X0059649Y0196893D01*
X0059540Y0197014D01*
X0059433Y0197137D01*
X0059329Y0197263D01*
X0059229Y0197392D01*
X0059131Y0197522D01*
X0059037Y0197656D01*
X0058946Y0197791D01*
X0058858Y0197928D01*
X0058774Y0198068D01*
X0058693Y0198210D01*
X0058615Y0198353D01*
X0058541Y0198498D01*
X0058471Y0198646D01*
X0058404Y0198794D01*
X0058340Y0198945D01*
X0058281Y0199096D01*
X0058225Y0199250D01*
X0058172Y0199404D01*
X0058124Y0199560D01*
X0058079Y0199717D01*
X0058038Y0199875D01*
X0058001Y0200033D01*
X0057968Y0200193D01*
X0057938Y0200354D01*
X0057913Y0200515D01*
X0057891Y0200676D01*
X0057874Y0200839D01*
X0057860Y0201001D01*
X0057850Y0201164D01*
X0057844Y0201327D01*
X0057842Y0201490D01*
X0057842Y0214490D01*
X0057840Y0214571D01*
X0057835Y0214651D01*
X0057825Y0214732D01*
X0057812Y0214812D01*
X0057796Y0214891D01*
X0057775Y0214969D01*
X0057751Y0215046D01*
X0057724Y0215122D01*
X0057693Y0215197D01*
X0057659Y0215270D01*
X0057621Y0215342D01*
X0057580Y0215411D01*
X0057536Y0215479D01*
X0057489Y0215545D01*
X0057438Y0215608D01*
X0057385Y0215669D01*
X0057329Y0215727D01*
X0057271Y0215783D01*
X0057210Y0215836D01*
X0057147Y0215887D01*
X0057081Y0215934D01*
X0057013Y0215978D01*
X0056944Y0216019D01*
X0056872Y0216057D01*
X0056799Y0216091D01*
X0056724Y0216122D01*
X0056648Y0216149D01*
X0056571Y0216173D01*
X0056493Y0216194D01*
X0056414Y0216210D01*
X0056334Y0216223D01*
X0056253Y0216233D01*
X0056173Y0216238D01*
X0056092Y0216240D01*
X0055231Y0216052D01*
X0054374Y0215843D01*
X0053523Y0215614D01*
X0052677Y0215363D01*
X0051838Y0215092D01*
X0051006Y0214800D01*
X0050181Y0214488D01*
X0049364Y0214156D01*
X0048556Y0213804D01*
X0047756Y0213432D01*
X0046966Y0213041D01*
X0046185Y0212631D01*
X0045415Y0212201D01*
X0044656Y0211753D01*
X0043907Y0211287D01*
X0043171Y0210802D01*
X0042446Y0210299D01*
X0041734Y0209779D01*
X0041035Y0209241D01*
X0040350Y0208687D01*
X0039678Y0208115D01*
X0039020Y0207528D01*
X0038377Y0206925D01*
X0037749Y0206306D01*
X0037136Y0205671D01*
X0036539Y0205022D01*
X0035958Y0204359D01*
X0035394Y0203682D01*
X0034846Y0202991D01*
X0034315Y0202286D01*
X0033802Y0201569D01*
X0033306Y0200840D01*
X0032829Y0200098D01*
X0032370Y0199346D01*
X0031929Y0198582D01*
X0031507Y0197807D01*
X0031104Y0197023D01*
X0030721Y0196229D01*
X0030357Y0195425D01*
X0030013Y0194614D01*
X0029689Y0193793D01*
X0029385Y0192966D01*
X0029102Y0192131D01*
X0028839Y0191289D01*
X0028597Y0190441D01*
X0028375Y0189587D01*
X0028175Y0188729D01*
X0027995Y0187865D01*
X0027837Y0186998D01*
X0027700Y0186127D01*
X0027585Y0185252D01*
X0027584Y0174228D02*
X0027731Y0173322D01*
X0027899Y0172420D01*
X0028090Y0171522D01*
X0028302Y0170629D01*
X0028537Y0169741D01*
X0028793Y0168860D01*
X0029071Y0167985D01*
X0029370Y0167117D01*
X0029690Y0166257D01*
X0030031Y0165405D01*
X0030393Y0164561D01*
X0030776Y0163727D01*
X0031179Y0162902D01*
X0031602Y0162088D01*
X0032045Y0161284D01*
X0032507Y0160491D01*
X0032989Y0159709D01*
X0033490Y0158940D01*
X0034010Y0158183D01*
X0034548Y0157440D01*
X0035104Y0156709D01*
X0035678Y0155993D01*
X0036269Y0155291D01*
X0036877Y0154603D01*
X0037502Y0153931D01*
X0038143Y0153274D01*
X0038801Y0152633D01*
X0039473Y0152009D01*
X0040161Y0151401D01*
X0040864Y0150810D01*
X0041581Y0150237D01*
X0042311Y0149681D01*
X0043055Y0149144D01*
X0043812Y0148625D01*
X0044582Y0148124D01*
X0045363Y0147643D01*
X0046157Y0147181D01*
X0046961Y0146738D01*
X0047776Y0146316D01*
X0048601Y0145913D01*
X0049435Y0145531D01*
X0050279Y0145170D01*
X0051131Y0144829D01*
X0051992Y0144509D01*
X0052860Y0144211D01*
X0053735Y0143934D01*
X0054617Y0143678D01*
X0055504Y0143444D01*
X0056397Y0143232D01*
X0057295Y0143042D01*
X0058198Y0142874D01*
X0059104Y0142729D01*
X0060014Y0142605D01*
X0060926Y0142504D01*
X0061841Y0142425D01*
X0062757Y0142369D01*
X0063674Y0142335D01*
X0064592Y0142324D01*
X0065510Y0142335D01*
X0066427Y0142369D01*
X0067343Y0142425D01*
X0068258Y0142504D01*
X0069170Y0142605D01*
X0070080Y0142729D01*
X0070986Y0142874D01*
X0071889Y0143042D01*
X0072787Y0143232D01*
X0073680Y0143444D01*
X0074567Y0143678D01*
X0075449Y0143934D01*
X0076324Y0144211D01*
X0077192Y0144509D01*
X0078053Y0144829D01*
X0078905Y0145170D01*
X0079749Y0145531D01*
X0080583Y0145913D01*
X0081408Y0146316D01*
X0082223Y0146738D01*
X0083027Y0147181D01*
X0083821Y0147643D01*
X0084602Y0148124D01*
X0085372Y0148625D01*
X0086129Y0149144D01*
X0086873Y0149681D01*
X0087603Y0150237D01*
X0088320Y0150810D01*
X0089023Y0151401D01*
X0089711Y0152009D01*
X0090383Y0152633D01*
X0091041Y0153274D01*
X0091682Y0153931D01*
X0092307Y0154603D01*
X0092915Y0155291D01*
X0093506Y0155993D01*
X0094080Y0156709D01*
X0094636Y0157440D01*
X0095174Y0158183D01*
X0095694Y0158940D01*
X0096195Y0159709D01*
X0096677Y0160491D01*
X0097139Y0161284D01*
X0097582Y0162088D01*
X0098005Y0162902D01*
X0098408Y0163727D01*
X0098791Y0164561D01*
X0099153Y0165405D01*
X0099494Y0166257D01*
X0099814Y0167117D01*
X0100113Y0167985D01*
X0100391Y0168860D01*
X0100647Y0169741D01*
X0100882Y0170629D01*
X0101094Y0171522D01*
X0101285Y0172420D01*
X0101453Y0173322D01*
X0101600Y0174228D01*
X0101600Y0185252D02*
X0101485Y0186127D01*
X0101348Y0186998D01*
X0101190Y0187865D01*
X0101010Y0188729D01*
X0100810Y0189587D01*
X0100588Y0190441D01*
X0100346Y0191289D01*
X0100083Y0192131D01*
X0099800Y0192966D01*
X0099496Y0193793D01*
X0099172Y0194614D01*
X0098828Y0195425D01*
X0098464Y0196229D01*
X0098081Y0197023D01*
X0097678Y0197807D01*
X0097256Y0198582D01*
X0096815Y0199346D01*
X0096356Y0200098D01*
X0095879Y0200840D01*
X0095383Y0201569D01*
X0094870Y0202286D01*
X0094339Y0202991D01*
X0093791Y0203682D01*
X0093227Y0204359D01*
X0092646Y0205022D01*
X0092049Y0205671D01*
X0091436Y0206306D01*
X0090808Y0206925D01*
X0090165Y0207528D01*
X0089507Y0208115D01*
X0088835Y0208687D01*
X0088150Y0209241D01*
X0087451Y0209779D01*
X0086739Y0210299D01*
X0086014Y0210802D01*
X0085278Y0211287D01*
X0084529Y0211753D01*
X0083770Y0212201D01*
X0083000Y0212631D01*
X0082219Y0213041D01*
X0081429Y0213432D01*
X0080629Y0213804D01*
X0079821Y0214156D01*
X0079004Y0214488D01*
X0078179Y0214800D01*
X0077347Y0215092D01*
X0076508Y0215363D01*
X0075662Y0215614D01*
X0074811Y0215843D01*
X0073954Y0216052D01*
X0073093Y0216240D01*
X0256092Y0116240D02*
X0256173Y0116238D01*
X0256253Y0116233D01*
X0256334Y0116223D01*
X0256414Y0116210D01*
X0256493Y0116194D01*
X0256571Y0116173D01*
X0256648Y0116149D01*
X0256724Y0116122D01*
X0256799Y0116091D01*
X0256872Y0116057D01*
X0256944Y0116019D01*
X0257013Y0115978D01*
X0257081Y0115934D01*
X0257147Y0115887D01*
X0257210Y0115836D01*
X0257271Y0115783D01*
X0257329Y0115727D01*
X0257385Y0115669D01*
X0257438Y0115608D01*
X0257489Y0115545D01*
X0257536Y0115479D01*
X0257580Y0115411D01*
X0257621Y0115342D01*
X0257659Y0115270D01*
X0257693Y0115197D01*
X0257724Y0115122D01*
X0257751Y0115046D01*
X0257775Y0114969D01*
X0257796Y0114891D01*
X0257812Y0114812D01*
X0257825Y0114732D01*
X0257835Y0114651D01*
X0257840Y0114571D01*
X0257842Y0114490D01*
X0257842Y0101490D01*
X0264592Y0094740D02*
X0264755Y0094742D01*
X0264918Y0094748D01*
X0265081Y0094758D01*
X0265243Y0094772D01*
X0265406Y0094789D01*
X0265567Y0094811D01*
X0265728Y0094836D01*
X0265889Y0094866D01*
X0266049Y0094899D01*
X0266207Y0094936D01*
X0266365Y0094977D01*
X0266522Y0095022D01*
X0266678Y0095070D01*
X0266832Y0095123D01*
X0266986Y0095179D01*
X0267137Y0095238D01*
X0267288Y0095302D01*
X0267436Y0095369D01*
X0267584Y0095439D01*
X0267729Y0095513D01*
X0267872Y0095591D01*
X0268014Y0095672D01*
X0268154Y0095756D01*
X0268291Y0095844D01*
X0268426Y0095935D01*
X0268560Y0096029D01*
X0268690Y0096127D01*
X0268819Y0096227D01*
X0268945Y0096331D01*
X0269068Y0096438D01*
X0269189Y0096547D01*
X0269307Y0096660D01*
X0269422Y0096775D01*
X0269535Y0096893D01*
X0269644Y0097014D01*
X0269751Y0097137D01*
X0269855Y0097263D01*
X0269955Y0097392D01*
X0270053Y0097522D01*
X0270147Y0097656D01*
X0270238Y0097791D01*
X0270326Y0097928D01*
X0270410Y0098068D01*
X0270491Y0098210D01*
X0270569Y0098353D01*
X0270643Y0098498D01*
X0270713Y0098646D01*
X0270780Y0098794D01*
X0270844Y0098945D01*
X0270903Y0099096D01*
X0270959Y0099250D01*
X0271012Y0099404D01*
X0271060Y0099560D01*
X0271105Y0099717D01*
X0271146Y0099875D01*
X0271183Y0100033D01*
X0271216Y0100193D01*
X0271246Y0100354D01*
X0271271Y0100515D01*
X0271293Y0100676D01*
X0271310Y0100839D01*
X0271324Y0101001D01*
X0271334Y0101164D01*
X0271340Y0101327D01*
X0271342Y0101490D01*
X0271342Y0114490D01*
X0271344Y0114571D01*
X0271349Y0114651D01*
X0271359Y0114732D01*
X0271372Y0114812D01*
X0271388Y0114891D01*
X0271409Y0114969D01*
X0271433Y0115046D01*
X0271460Y0115122D01*
X0271491Y0115197D01*
X0271525Y0115270D01*
X0271563Y0115342D01*
X0271604Y0115411D01*
X0271648Y0115479D01*
X0271695Y0115545D01*
X0271746Y0115608D01*
X0271799Y0115669D01*
X0271855Y0115727D01*
X0271913Y0115783D01*
X0271974Y0115836D01*
X0272037Y0115887D01*
X0272103Y0115934D01*
X0272171Y0115978D01*
X0272240Y0116019D01*
X0272312Y0116057D01*
X0272385Y0116091D01*
X0272460Y0116122D01*
X0272536Y0116149D01*
X0272613Y0116173D01*
X0272691Y0116194D01*
X0272770Y0116210D01*
X0272850Y0116223D01*
X0272931Y0116233D01*
X0273011Y0116238D01*
X0273092Y0116240D01*
X0257842Y0101490D02*
X0257844Y0101327D01*
X0257850Y0101164D01*
X0257860Y0101001D01*
X0257874Y0100839D01*
X0257891Y0100676D01*
X0257913Y0100515D01*
X0257938Y0100354D01*
X0257968Y0100193D01*
X0258001Y0100033D01*
X0258038Y0099875D01*
X0258079Y0099717D01*
X0258124Y0099560D01*
X0258172Y0099404D01*
X0258225Y0099250D01*
X0258281Y0099096D01*
X0258340Y0098945D01*
X0258404Y0098794D01*
X0258471Y0098646D01*
X0258541Y0098498D01*
X0258615Y0098353D01*
X0258693Y0098210D01*
X0258774Y0098068D01*
X0258858Y0097928D01*
X0258946Y0097791D01*
X0259037Y0097656D01*
X0259131Y0097522D01*
X0259229Y0097392D01*
X0259329Y0097263D01*
X0259433Y0097137D01*
X0259540Y0097014D01*
X0259649Y0096893D01*
X0259762Y0096775D01*
X0259877Y0096660D01*
X0259995Y0096547D01*
X0260116Y0096438D01*
X0260239Y0096331D01*
X0260365Y0096227D01*
X0260494Y0096127D01*
X0260624Y0096029D01*
X0260758Y0095935D01*
X0260893Y0095844D01*
X0261030Y0095756D01*
X0261170Y0095672D01*
X0261312Y0095591D01*
X0261455Y0095513D01*
X0261600Y0095439D01*
X0261748Y0095369D01*
X0261896Y0095302D01*
X0262047Y0095238D01*
X0262198Y0095179D01*
X0262352Y0095123D01*
X0262506Y0095070D01*
X0262662Y0095022D01*
X0262819Y0094977D01*
X0262977Y0094936D01*
X0263135Y0094899D01*
X0263295Y0094866D01*
X0263456Y0094836D01*
X0263617Y0094811D01*
X0263778Y0094789D01*
X0263941Y0094772D01*
X0264103Y0094758D01*
X0264266Y0094748D01*
X0264429Y0094742D01*
X0264592Y0094740D01*
X0256092Y0116240D02*
X0255231Y0116052D01*
X0254374Y0115843D01*
X0253523Y0115614D01*
X0252677Y0115363D01*
X0251838Y0115092D01*
X0251006Y0114800D01*
X0250181Y0114488D01*
X0249364Y0114156D01*
X0248556Y0113804D01*
X0247756Y0113432D01*
X0246966Y0113041D01*
X0246185Y0112631D01*
X0245415Y0112201D01*
X0244656Y0111753D01*
X0243907Y0111287D01*
X0243171Y0110802D01*
X0242446Y0110299D01*
X0241734Y0109779D01*
X0241035Y0109241D01*
X0240350Y0108687D01*
X0239678Y0108115D01*
X0239020Y0107528D01*
X0238377Y0106925D01*
X0237749Y0106306D01*
X0237136Y0105671D01*
X0236539Y0105022D01*
X0235958Y0104359D01*
X0235394Y0103682D01*
X0234846Y0102991D01*
X0234315Y0102286D01*
X0233802Y0101569D01*
X0233306Y0100840D01*
X0232829Y0100098D01*
X0232370Y0099346D01*
X0231929Y0098582D01*
X0231507Y0097807D01*
X0231104Y0097023D01*
X0230721Y0096229D01*
X0230357Y0095425D01*
X0230013Y0094614D01*
X0229689Y0093793D01*
X0229385Y0092966D01*
X0229102Y0092131D01*
X0228839Y0091289D01*
X0228597Y0090441D01*
X0228375Y0089587D01*
X0228175Y0088729D01*
X0227995Y0087865D01*
X0227837Y0086998D01*
X0227700Y0086127D01*
X0227585Y0085252D01*
X0227584Y0074228D02*
X0227731Y0073322D01*
X0227899Y0072420D01*
X0228090Y0071522D01*
X0228302Y0070629D01*
X0228537Y0069741D01*
X0228793Y0068860D01*
X0229071Y0067985D01*
X0229370Y0067117D01*
X0229690Y0066257D01*
X0230031Y0065405D01*
X0230393Y0064561D01*
X0230776Y0063727D01*
X0231179Y0062902D01*
X0231602Y0062088D01*
X0232045Y0061284D01*
X0232507Y0060491D01*
X0232989Y0059709D01*
X0233490Y0058940D01*
X0234010Y0058183D01*
X0234548Y0057440D01*
X0235104Y0056709D01*
X0235678Y0055993D01*
X0236269Y0055291D01*
X0236877Y0054603D01*
X0237502Y0053931D01*
X0238143Y0053274D01*
X0238801Y0052633D01*
X0239473Y0052009D01*
X0240161Y0051401D01*
X0240864Y0050810D01*
X0241581Y0050237D01*
X0242311Y0049681D01*
X0243055Y0049144D01*
X0243812Y0048625D01*
X0244582Y0048124D01*
X0245363Y0047643D01*
X0246157Y0047181D01*
X0246961Y0046738D01*
X0247776Y0046316D01*
X0248601Y0045913D01*
X0249435Y0045531D01*
X0250279Y0045170D01*
X0251131Y0044829D01*
X0251992Y0044509D01*
X0252860Y0044211D01*
X0253735Y0043934D01*
X0254617Y0043678D01*
X0255504Y0043444D01*
X0256397Y0043232D01*
X0257295Y0043042D01*
X0258198Y0042874D01*
X0259104Y0042729D01*
X0260014Y0042605D01*
X0260926Y0042504D01*
X0261841Y0042425D01*
X0262757Y0042369D01*
X0263674Y0042335D01*
X0264592Y0042324D01*
X0265510Y0042335D01*
X0266427Y0042369D01*
X0267343Y0042425D01*
X0268258Y0042504D01*
X0269170Y0042605D01*
X0270080Y0042729D01*
X0270986Y0042874D01*
X0271889Y0043042D01*
X0272787Y0043232D01*
X0273680Y0043444D01*
X0274567Y0043678D01*
X0275449Y0043934D01*
X0276324Y0044211D01*
X0277192Y0044509D01*
X0278053Y0044829D01*
X0278905Y0045170D01*
X0279749Y0045531D01*
X0280583Y0045913D01*
X0281408Y0046316D01*
X0282223Y0046738D01*
X0283027Y0047181D01*
X0283821Y0047643D01*
X0284602Y0048124D01*
X0285372Y0048625D01*
X0286129Y0049144D01*
X0286873Y0049681D01*
X0287603Y0050237D01*
X0288320Y0050810D01*
X0289023Y0051401D01*
X0289711Y0052009D01*
X0290383Y0052633D01*
X0291041Y0053274D01*
X0291682Y0053931D01*
X0292307Y0054603D01*
X0292915Y0055291D01*
X0293506Y0055993D01*
X0294080Y0056709D01*
X0294636Y0057440D01*
X0295174Y0058183D01*
X0295694Y0058940D01*
X0296195Y0059709D01*
X0296677Y0060491D01*
X0297139Y0061284D01*
X0297582Y0062088D01*
X0298005Y0062902D01*
X0298408Y0063727D01*
X0298791Y0064561D01*
X0299153Y0065405D01*
X0299494Y0066257D01*
X0299814Y0067117D01*
X0300113Y0067985D01*
X0300391Y0068860D01*
X0300647Y0069741D01*
X0300882Y0070629D01*
X0301094Y0071522D01*
X0301285Y0072420D01*
X0301453Y0073322D01*
X0301600Y0074228D01*
X0301600Y0085252D02*
X0301485Y0086127D01*
X0301348Y0086998D01*
X0301190Y0087865D01*
X0301010Y0088729D01*
X0300810Y0089587D01*
X0300588Y0090441D01*
X0300346Y0091289D01*
X0300083Y0092131D01*
X0299800Y0092966D01*
X0299496Y0093793D01*
X0299172Y0094614D01*
X0298828Y0095425D01*
X0298464Y0096229D01*
X0298081Y0097023D01*
X0297678Y0097807D01*
X0297256Y0098582D01*
X0296815Y0099346D01*
X0296356Y0100098D01*
X0295879Y0100840D01*
X0295383Y0101569D01*
X0294870Y0102286D01*
X0294339Y0102991D01*
X0293791Y0103682D01*
X0293227Y0104359D01*
X0292646Y0105022D01*
X0292049Y0105671D01*
X0291436Y0106306D01*
X0290808Y0106925D01*
X0290165Y0107528D01*
X0289507Y0108115D01*
X0288835Y0108687D01*
X0288150Y0109241D01*
X0287451Y0109779D01*
X0286739Y0110299D01*
X0286014Y0110802D01*
X0285278Y0111287D01*
X0284529Y0111753D01*
X0283770Y0112201D01*
X0283000Y0112631D01*
X0282219Y0113041D01*
X0281429Y0113432D01*
X0280629Y0113804D01*
X0279821Y0114156D01*
X0279004Y0114488D01*
X0278179Y0114800D01*
X0277347Y0115092D01*
X0276508Y0115363D01*
X0275662Y0115614D01*
X0274811Y0115843D01*
X0273954Y0116052D01*
X0273093Y0116240D01*
D11*
X0301600Y0085252D02*
X0298450Y0082102D01*
X0298450Y0077378D01*
X0301600Y0074228D01*
X0230734Y0077378D02*
X0227584Y0074228D01*
X0230734Y0077378D02*
X0230734Y0082102D01*
X0227584Y0085252D01*
X0201600Y0085252D02*
X0198450Y0082102D01*
X0198450Y0077378D01*
X0201600Y0074228D01*
X0130734Y0077378D02*
X0127584Y0074228D01*
X0130734Y0077378D02*
X0130734Y0082102D01*
X0127584Y0085252D01*
X0101600Y0085252D02*
X0098450Y0082102D01*
X0098450Y0077378D01*
X0101600Y0074228D01*
X0030734Y0077378D02*
X0027584Y0074228D01*
X0030734Y0077378D02*
X0030734Y0082102D01*
X0027584Y0085252D01*
X0027584Y0174228D02*
X0030734Y0177378D01*
X0030734Y0182102D01*
X0027584Y0185252D01*
X0098450Y0182102D02*
X0098450Y0177378D01*
X0101600Y0174228D01*
X0098450Y0182102D02*
X0101600Y0185252D01*
X0127584Y0185252D02*
X0130734Y0182102D01*
X0130734Y0177378D01*
X0127584Y0174228D01*
X0198450Y0177378D02*
X0201600Y0174228D01*
X0198450Y0177378D02*
X0198450Y0182102D01*
X0201600Y0185252D01*
X0227584Y0185252D02*
X0230734Y0182102D01*
X0230734Y0177378D01*
X0227584Y0174228D01*
X0298450Y0177378D02*
X0301600Y0174228D01*
X0298450Y0177378D02*
X0298450Y0182102D01*
X0301600Y0185252D01*
X0301600Y0274228D02*
X0298450Y0277378D01*
X0298450Y0282102D01*
X0301600Y0285252D01*
X0230734Y0282102D02*
X0230734Y0277378D01*
X0227584Y0274228D01*
X0230734Y0282102D02*
X0227584Y0285252D01*
X0201600Y0285252D02*
X0198450Y0282102D01*
X0198450Y0277378D01*
X0201600Y0274228D01*
X0130734Y0277378D02*
X0127584Y0274228D01*
X0130734Y0277378D02*
X0130734Y0282102D01*
X0127584Y0285252D01*
X0101600Y0285252D02*
X0098450Y0282102D01*
X0098450Y0277378D01*
X0101600Y0274228D01*
X0030734Y0277378D02*
X0027584Y0274228D01*
X0030734Y0277378D02*
X0030734Y0282102D01*
X0027584Y0285252D01*
D12*
X0030200Y0272089D02*
X0031501Y0272089D01*
X0031501Y0269487D01*
X0030200Y0269487D01*
X0029766Y0269921D01*
X0029766Y0271655D01*
X0030200Y0272089D01*
X0032713Y0272089D02*
X0032713Y0269487D01*
X0034448Y0272089D01*
X0034448Y0269487D01*
X0035659Y0269921D02*
X0035659Y0270788D01*
X0036527Y0270788D01*
X0037394Y0271655D02*
X0037394Y0269921D01*
X0036960Y0269487D01*
X0036093Y0269487D01*
X0035659Y0269921D01*
X0035659Y0271655D02*
X0036093Y0272089D01*
X0036960Y0272089D01*
X0037394Y0271655D01*
X0039802Y0271091D02*
X0042404Y0269356D01*
X0042404Y0268145D02*
X0040235Y0268145D01*
X0039802Y0267711D01*
X0039802Y0266844D01*
X0040235Y0266410D01*
X0042404Y0266410D01*
X0041537Y0265198D02*
X0039802Y0265198D01*
X0041103Y0265198D02*
X0041103Y0263463D01*
X0041537Y0263463D02*
X0042404Y0264331D01*
X0041537Y0265198D01*
X0041537Y0263463D02*
X0039802Y0263463D01*
X0043667Y0264023D02*
X0043667Y0264891D01*
X0044101Y0265325D01*
X0044534Y0265325D01*
X0044968Y0264891D01*
X0044968Y0263590D01*
X0044101Y0263590D01*
X0043667Y0264023D01*
X0044968Y0263590D02*
X0045835Y0264457D01*
X0046269Y0265325D01*
X0045835Y0262378D02*
X0046269Y0261944D01*
X0046269Y0261077D01*
X0045835Y0260643D01*
X0044101Y0260643D01*
X0043667Y0261077D01*
X0043667Y0261944D01*
X0044101Y0262378D01*
X0039802Y0269356D02*
X0042404Y0271091D01*
X0041970Y0272303D02*
X0040235Y0272303D01*
X0039802Y0272737D01*
X0039802Y0273604D01*
X0040235Y0274038D01*
X0041970Y0274038D01*
X0042404Y0273604D01*
X0042404Y0272737D01*
X0041970Y0272303D01*
X0071918Y0292909D02*
X0072386Y0292442D01*
X0072853Y0292442D01*
X0073320Y0293376D02*
X0071918Y0293376D01*
X0071918Y0292909D02*
X0071918Y0295244D01*
X0073787Y0295244D02*
X0073787Y0293843D01*
X0073320Y0293376D01*
X0074940Y0293376D02*
X0075874Y0293376D01*
X0075407Y0293376D02*
X0075407Y0296178D01*
X0075874Y0296178D01*
X0076189Y0297796D02*
X0074788Y0297796D01*
X0073526Y0297796D02*
X0073526Y0300598D01*
X0073059Y0299664D02*
X0072125Y0299664D01*
X0071658Y0299197D01*
X0071658Y0297796D01*
X0073526Y0299197D02*
X0073059Y0299664D01*
X0074788Y0299664D02*
X0076189Y0299664D01*
X0076656Y0299197D01*
X0076656Y0298263D01*
X0076189Y0297796D01*
X0077864Y0299664D02*
X0078331Y0299664D01*
X0079265Y0298730D01*
X0079265Y0297796D02*
X0079265Y0299664D01*
X0080528Y0299197D02*
X0080528Y0297796D01*
X0081929Y0297796D01*
X0082396Y0298263D01*
X0081929Y0298730D01*
X0080528Y0298730D01*
X0080528Y0299197D02*
X0080995Y0299664D01*
X0081929Y0299664D01*
X0083658Y0299197D02*
X0083658Y0298730D01*
X0085527Y0298730D01*
X0085527Y0299197D02*
X0085060Y0299664D01*
X0084126Y0299664D01*
X0083658Y0299197D01*
X0084126Y0297796D02*
X0085060Y0297796D01*
X0085527Y0298263D01*
X0085527Y0299197D01*
X0086789Y0299664D02*
X0088190Y0299664D01*
X0088657Y0299197D01*
X0088190Y0298730D01*
X0087256Y0298730D01*
X0086789Y0298263D01*
X0087256Y0297796D01*
X0088657Y0297796D01*
X0089920Y0298730D02*
X0091788Y0298730D01*
X0091788Y0299197D02*
X0091321Y0299664D01*
X0090387Y0299664D01*
X0089920Y0299197D01*
X0089920Y0298730D01*
X0090387Y0297796D02*
X0091321Y0297796D01*
X0091788Y0298263D01*
X0091788Y0299197D01*
X0093050Y0299197D02*
X0093518Y0298730D01*
X0094919Y0298730D01*
X0094919Y0297796D02*
X0094919Y0300598D01*
X0093518Y0300598D01*
X0093050Y0300131D01*
X0093050Y0299197D01*
X0093985Y0298730D02*
X0093050Y0297796D01*
X0092790Y0296178D02*
X0092790Y0293843D01*
X0093257Y0293376D01*
X0094191Y0293376D01*
X0094658Y0293843D01*
X0094658Y0296178D01*
X0091527Y0294777D02*
X0091060Y0295244D01*
X0089659Y0295244D01*
X0090126Y0294310D02*
X0091060Y0294310D01*
X0091527Y0294777D01*
X0091527Y0293376D02*
X0090126Y0293376D01*
X0089659Y0293843D01*
X0090126Y0294310D01*
X0088396Y0294310D02*
X0086528Y0294310D01*
X0086528Y0294777D01*
X0086995Y0295244D01*
X0087929Y0295244D01*
X0088396Y0294777D01*
X0088396Y0293843D01*
X0087929Y0293376D01*
X0086995Y0293376D01*
X0082135Y0293843D02*
X0081668Y0293376D01*
X0080734Y0293376D01*
X0080267Y0293843D01*
X0080267Y0295711D01*
X0080734Y0296178D01*
X0081668Y0296178D01*
X0082135Y0295711D01*
X0082135Y0293843D01*
X0079004Y0293376D02*
X0079004Y0295244D01*
X0077603Y0295244D01*
X0077136Y0294777D01*
X0077136Y0293376D01*
X0080831Y0302216D02*
X0080831Y0304084D01*
X0080831Y0303150D02*
X0079897Y0304084D01*
X0079430Y0304084D01*
X0082093Y0303617D02*
X0082560Y0304084D01*
X0083494Y0304084D01*
X0083961Y0303617D01*
X0083961Y0302683D01*
X0083494Y0302216D01*
X0082560Y0302216D01*
X0082093Y0302683D01*
X0082093Y0303617D01*
X0085224Y0305018D02*
X0087092Y0305018D01*
X0087092Y0302216D01*
X0087092Y0303617D02*
X0086158Y0303617D01*
X0085518Y0270320D02*
X0085518Y0267717D01*
X0086385Y0267717D02*
X0084650Y0267717D01*
X0086385Y0269452D02*
X0085518Y0270320D01*
X0087597Y0270320D02*
X0087597Y0268151D01*
X0088030Y0267717D01*
X0088898Y0267717D01*
X0089332Y0268151D01*
X0089332Y0270320D01*
X0129766Y0269921D02*
X0129766Y0271655D01*
X0130200Y0272089D01*
X0131501Y0272089D01*
X0131501Y0269487D01*
X0130200Y0269487D01*
X0129766Y0269921D01*
X0132713Y0269487D02*
X0132713Y0272089D01*
X0134448Y0272089D02*
X0132713Y0269487D01*
X0134448Y0269487D02*
X0134448Y0272089D01*
X0135659Y0271655D02*
X0136093Y0272089D01*
X0136960Y0272089D01*
X0137394Y0271655D01*
X0137394Y0269921D01*
X0136960Y0269487D01*
X0136093Y0269487D01*
X0135659Y0269921D01*
X0135659Y0270788D01*
X0136527Y0270788D01*
X0139802Y0271091D02*
X0142404Y0269356D01*
X0142404Y0268145D02*
X0140235Y0268145D01*
X0139802Y0267711D01*
X0139802Y0266844D01*
X0140235Y0266410D01*
X0142404Y0266410D01*
X0141537Y0265198D02*
X0142404Y0264331D01*
X0141537Y0263463D01*
X0139802Y0263463D01*
X0141103Y0263463D02*
X0141103Y0265198D01*
X0141537Y0265198D02*
X0139802Y0265198D01*
X0143667Y0264891D02*
X0143667Y0264023D01*
X0144101Y0263590D01*
X0144968Y0263590D01*
X0144968Y0264891D01*
X0144534Y0265325D01*
X0144101Y0265325D01*
X0143667Y0264891D01*
X0144968Y0263590D02*
X0145835Y0264457D01*
X0146269Y0265325D01*
X0145835Y0262378D02*
X0146269Y0261944D01*
X0146269Y0261077D01*
X0145835Y0260643D01*
X0144101Y0260643D01*
X0143667Y0261077D01*
X0143667Y0261944D01*
X0144101Y0262378D01*
X0139802Y0269356D02*
X0142404Y0271091D01*
X0141970Y0272303D02*
X0140235Y0272303D01*
X0139802Y0272737D01*
X0139802Y0273604D01*
X0140235Y0274038D01*
X0141970Y0274038D01*
X0142404Y0273604D01*
X0142404Y0272737D01*
X0141970Y0272303D01*
X0171918Y0292909D02*
X0172386Y0292442D01*
X0172853Y0292442D01*
X0173320Y0293376D02*
X0171918Y0293376D01*
X0171918Y0292909D02*
X0171918Y0295244D01*
X0173787Y0295244D02*
X0173787Y0293843D01*
X0173320Y0293376D01*
X0174940Y0293376D02*
X0175874Y0293376D01*
X0175407Y0293376D02*
X0175407Y0296178D01*
X0175874Y0296178D01*
X0176189Y0297796D02*
X0174788Y0297796D01*
X0173526Y0297796D02*
X0173526Y0300598D01*
X0173059Y0299664D02*
X0172125Y0299664D01*
X0171658Y0299197D01*
X0171658Y0297796D01*
X0173526Y0299197D02*
X0173059Y0299664D01*
X0174788Y0299664D02*
X0176189Y0299664D01*
X0176656Y0299197D01*
X0176656Y0298263D01*
X0176189Y0297796D01*
X0177864Y0299664D02*
X0178331Y0299664D01*
X0179265Y0298730D01*
X0179265Y0297796D02*
X0179265Y0299664D01*
X0180528Y0299197D02*
X0180528Y0297796D01*
X0181929Y0297796D01*
X0182396Y0298263D01*
X0181929Y0298730D01*
X0180528Y0298730D01*
X0180528Y0299197D02*
X0180995Y0299664D01*
X0181929Y0299664D01*
X0183658Y0299197D02*
X0183658Y0298730D01*
X0185527Y0298730D01*
X0185527Y0299197D02*
X0185060Y0299664D01*
X0184126Y0299664D01*
X0183658Y0299197D01*
X0184126Y0297796D02*
X0185060Y0297796D01*
X0185527Y0298263D01*
X0185527Y0299197D01*
X0186789Y0299664D02*
X0188190Y0299664D01*
X0188657Y0299197D01*
X0188190Y0298730D01*
X0187256Y0298730D01*
X0186789Y0298263D01*
X0187256Y0297796D01*
X0188657Y0297796D01*
X0189920Y0298730D02*
X0191788Y0298730D01*
X0191788Y0299197D02*
X0191321Y0299664D01*
X0190387Y0299664D01*
X0189920Y0299197D01*
X0189920Y0298730D01*
X0190387Y0297796D02*
X0191321Y0297796D01*
X0191788Y0298263D01*
X0191788Y0299197D01*
X0193050Y0299197D02*
X0193518Y0298730D01*
X0194919Y0298730D01*
X0194919Y0297796D02*
X0194919Y0300598D01*
X0193518Y0300598D01*
X0193050Y0300131D01*
X0193050Y0299197D01*
X0193985Y0298730D02*
X0193050Y0297796D01*
X0192790Y0296178D02*
X0192790Y0293843D01*
X0193257Y0293376D01*
X0194191Y0293376D01*
X0194658Y0293843D01*
X0194658Y0296178D01*
X0191527Y0294777D02*
X0191060Y0295244D01*
X0189659Y0295244D01*
X0190126Y0294310D02*
X0191060Y0294310D01*
X0191527Y0294777D01*
X0191527Y0293376D02*
X0190126Y0293376D01*
X0189659Y0293843D01*
X0190126Y0294310D01*
X0188396Y0294310D02*
X0186528Y0294310D01*
X0186528Y0294777D01*
X0186995Y0295244D01*
X0187929Y0295244D01*
X0188396Y0294777D01*
X0188396Y0293843D01*
X0187929Y0293376D01*
X0186995Y0293376D01*
X0182135Y0293843D02*
X0181668Y0293376D01*
X0180734Y0293376D01*
X0180267Y0293843D01*
X0180267Y0295711D01*
X0180734Y0296178D01*
X0181668Y0296178D01*
X0182135Y0295711D01*
X0182135Y0293843D01*
X0179004Y0293376D02*
X0179004Y0295244D01*
X0177603Y0295244D01*
X0177136Y0294777D01*
X0177136Y0293376D01*
X0180831Y0302216D02*
X0180831Y0304084D01*
X0180831Y0303150D02*
X0179897Y0304084D01*
X0179430Y0304084D01*
X0182093Y0303617D02*
X0182560Y0304084D01*
X0183494Y0304084D01*
X0183961Y0303617D01*
X0183961Y0302683D01*
X0183494Y0302216D01*
X0182560Y0302216D01*
X0182093Y0302683D01*
X0182093Y0303617D01*
X0185224Y0305018D02*
X0187092Y0305018D01*
X0187092Y0302216D01*
X0187092Y0303617D02*
X0186158Y0303617D01*
X0185518Y0270320D02*
X0185518Y0267717D01*
X0186385Y0267717D02*
X0184650Y0267717D01*
X0186385Y0269452D02*
X0185518Y0270320D01*
X0187597Y0270320D02*
X0187597Y0268151D01*
X0188030Y0267717D01*
X0188898Y0267717D01*
X0189332Y0268151D01*
X0189332Y0270320D01*
X0229766Y0269921D02*
X0229766Y0271655D01*
X0230200Y0272089D01*
X0231501Y0272089D01*
X0231501Y0269487D01*
X0230200Y0269487D01*
X0229766Y0269921D01*
X0232713Y0269487D02*
X0232713Y0272089D01*
X0234448Y0272089D02*
X0232713Y0269487D01*
X0234448Y0269487D02*
X0234448Y0272089D01*
X0235659Y0271655D02*
X0236093Y0272089D01*
X0236960Y0272089D01*
X0237394Y0271655D01*
X0237394Y0269921D01*
X0236960Y0269487D01*
X0236093Y0269487D01*
X0235659Y0269921D01*
X0235659Y0270788D01*
X0236527Y0270788D01*
X0239802Y0271091D02*
X0242404Y0269356D01*
X0242404Y0268145D02*
X0240235Y0268145D01*
X0239802Y0267711D01*
X0239802Y0266844D01*
X0240235Y0266410D01*
X0242404Y0266410D01*
X0241537Y0265198D02*
X0239802Y0265198D01*
X0241103Y0265198D02*
X0241103Y0263463D01*
X0241537Y0263463D02*
X0242404Y0264331D01*
X0241537Y0265198D01*
X0241537Y0263463D02*
X0239802Y0263463D01*
X0243667Y0264023D02*
X0243667Y0264891D01*
X0244101Y0265325D01*
X0244534Y0265325D01*
X0244968Y0264891D01*
X0244968Y0263590D01*
X0244101Y0263590D01*
X0243667Y0264023D01*
X0244968Y0263590D02*
X0245835Y0264457D01*
X0246269Y0265325D01*
X0245835Y0262378D02*
X0246269Y0261944D01*
X0246269Y0261077D01*
X0245835Y0260643D01*
X0244101Y0260643D01*
X0243667Y0261077D01*
X0243667Y0261944D01*
X0244101Y0262378D01*
X0239802Y0269356D02*
X0242404Y0271091D01*
X0241970Y0272303D02*
X0240235Y0272303D01*
X0239802Y0272737D01*
X0239802Y0273604D01*
X0240235Y0274038D01*
X0241970Y0274038D01*
X0242404Y0273604D01*
X0242404Y0272737D01*
X0241970Y0272303D01*
X0271918Y0292909D02*
X0272386Y0292442D01*
X0272853Y0292442D01*
X0273320Y0293376D02*
X0271918Y0293376D01*
X0271918Y0292909D02*
X0271918Y0295244D01*
X0273787Y0295244D02*
X0273787Y0293843D01*
X0273320Y0293376D01*
X0274940Y0293376D02*
X0275874Y0293376D01*
X0275407Y0293376D02*
X0275407Y0296178D01*
X0275874Y0296178D01*
X0276189Y0297796D02*
X0274788Y0297796D01*
X0273526Y0297796D02*
X0273526Y0300598D01*
X0273059Y0299664D02*
X0272125Y0299664D01*
X0271658Y0299197D01*
X0271658Y0297796D01*
X0273526Y0299197D02*
X0273059Y0299664D01*
X0274788Y0299664D02*
X0276189Y0299664D01*
X0276656Y0299197D01*
X0276656Y0298263D01*
X0276189Y0297796D01*
X0277864Y0299664D02*
X0278331Y0299664D01*
X0279265Y0298730D01*
X0279265Y0297796D02*
X0279265Y0299664D01*
X0280528Y0299197D02*
X0280528Y0297796D01*
X0281929Y0297796D01*
X0282396Y0298263D01*
X0281929Y0298730D01*
X0280528Y0298730D01*
X0280528Y0299197D02*
X0280995Y0299664D01*
X0281929Y0299664D01*
X0283658Y0299197D02*
X0283658Y0298730D01*
X0285527Y0298730D01*
X0285527Y0299197D02*
X0285060Y0299664D01*
X0284126Y0299664D01*
X0283658Y0299197D01*
X0284126Y0297796D02*
X0285060Y0297796D01*
X0285527Y0298263D01*
X0285527Y0299197D01*
X0286789Y0299664D02*
X0288190Y0299664D01*
X0288657Y0299197D01*
X0288190Y0298730D01*
X0287256Y0298730D01*
X0286789Y0298263D01*
X0287256Y0297796D01*
X0288657Y0297796D01*
X0289920Y0298730D02*
X0291788Y0298730D01*
X0291788Y0299197D02*
X0291321Y0299664D01*
X0290387Y0299664D01*
X0289920Y0299197D01*
X0289920Y0298730D01*
X0290387Y0297796D02*
X0291321Y0297796D01*
X0291788Y0298263D01*
X0291788Y0299197D01*
X0293050Y0299197D02*
X0293518Y0298730D01*
X0294919Y0298730D01*
X0294919Y0297796D02*
X0294919Y0300598D01*
X0293518Y0300598D01*
X0293050Y0300131D01*
X0293050Y0299197D01*
X0293985Y0298730D02*
X0293050Y0297796D01*
X0292790Y0296178D02*
X0292790Y0293843D01*
X0293257Y0293376D01*
X0294191Y0293376D01*
X0294658Y0293843D01*
X0294658Y0296178D01*
X0291527Y0294777D02*
X0291060Y0295244D01*
X0289659Y0295244D01*
X0290126Y0294310D02*
X0291060Y0294310D01*
X0291527Y0294777D01*
X0291527Y0293376D02*
X0290126Y0293376D01*
X0289659Y0293843D01*
X0290126Y0294310D01*
X0288396Y0294310D02*
X0286528Y0294310D01*
X0286528Y0294777D01*
X0286995Y0295244D01*
X0287929Y0295244D01*
X0288396Y0294777D01*
X0288396Y0293843D01*
X0287929Y0293376D01*
X0286995Y0293376D01*
X0282135Y0293843D02*
X0281668Y0293376D01*
X0280734Y0293376D01*
X0280267Y0293843D01*
X0280267Y0295711D01*
X0280734Y0296178D01*
X0281668Y0296178D01*
X0282135Y0295711D01*
X0282135Y0293843D01*
X0279004Y0293376D02*
X0279004Y0295244D01*
X0277603Y0295244D01*
X0277136Y0294777D01*
X0277136Y0293376D01*
X0280831Y0302216D02*
X0280831Y0304084D01*
X0280831Y0303150D02*
X0279897Y0304084D01*
X0279430Y0304084D01*
X0282093Y0303617D02*
X0282560Y0304084D01*
X0283494Y0304084D01*
X0283961Y0303617D01*
X0283961Y0302683D01*
X0283494Y0302216D01*
X0282560Y0302216D01*
X0282093Y0302683D01*
X0282093Y0303617D01*
X0285224Y0305018D02*
X0287092Y0305018D01*
X0287092Y0302216D01*
X0287092Y0303617D02*
X0286158Y0303617D01*
X0285518Y0270320D02*
X0285518Y0267717D01*
X0286385Y0267717D02*
X0284650Y0267717D01*
X0286385Y0269452D02*
X0285518Y0270320D01*
X0287597Y0270320D02*
X0287597Y0268151D01*
X0288030Y0267717D01*
X0288898Y0267717D01*
X0289332Y0268151D01*
X0289332Y0270320D01*
X0287092Y0205018D02*
X0285224Y0205018D01*
X0286158Y0203617D02*
X0287092Y0203617D01*
X0287092Y0202216D02*
X0287092Y0205018D01*
X0283961Y0203617D02*
X0283961Y0202683D01*
X0283494Y0202216D01*
X0282560Y0202216D01*
X0282093Y0202683D01*
X0282093Y0203617D01*
X0282560Y0204084D01*
X0283494Y0204084D01*
X0283961Y0203617D01*
X0280831Y0204084D02*
X0280831Y0202216D01*
X0280831Y0203150D02*
X0279897Y0204084D01*
X0279430Y0204084D01*
X0279265Y0199664D02*
X0279265Y0197796D01*
X0279265Y0198730D02*
X0278331Y0199664D01*
X0277864Y0199664D01*
X0276656Y0199197D02*
X0276656Y0198263D01*
X0276189Y0197796D01*
X0274788Y0197796D01*
X0273526Y0197796D02*
X0273526Y0200598D01*
X0273059Y0199664D02*
X0272125Y0199664D01*
X0271658Y0199197D01*
X0271658Y0197796D01*
X0273526Y0199197D02*
X0273059Y0199664D01*
X0274788Y0199664D02*
X0276189Y0199664D01*
X0276656Y0199197D01*
X0275874Y0196178D02*
X0275407Y0196178D01*
X0275407Y0193376D01*
X0275874Y0193376D02*
X0274940Y0193376D01*
X0273787Y0193843D02*
X0273320Y0193376D01*
X0271918Y0193376D01*
X0271918Y0192909D02*
X0271918Y0195244D01*
X0273787Y0195244D02*
X0273787Y0193843D01*
X0272853Y0192442D02*
X0272386Y0192442D01*
X0271918Y0192909D01*
X0277136Y0193376D02*
X0277136Y0194777D01*
X0277603Y0195244D01*
X0279004Y0195244D01*
X0279004Y0193376D01*
X0280267Y0193843D02*
X0280267Y0195711D01*
X0280734Y0196178D01*
X0281668Y0196178D01*
X0282135Y0195711D01*
X0282135Y0193843D01*
X0281668Y0193376D01*
X0280734Y0193376D01*
X0280267Y0193843D01*
X0280528Y0197796D02*
X0281929Y0197796D01*
X0282396Y0198263D01*
X0281929Y0198730D01*
X0280528Y0198730D01*
X0280528Y0199197D02*
X0280528Y0197796D01*
X0280528Y0199197D02*
X0280995Y0199664D01*
X0281929Y0199664D01*
X0283658Y0199197D02*
X0283658Y0198730D01*
X0285527Y0198730D01*
X0285527Y0199197D02*
X0285060Y0199664D01*
X0284126Y0199664D01*
X0283658Y0199197D01*
X0284126Y0197796D02*
X0285060Y0197796D01*
X0285527Y0198263D01*
X0285527Y0199197D01*
X0286789Y0199664D02*
X0288190Y0199664D01*
X0288657Y0199197D01*
X0288190Y0198730D01*
X0287256Y0198730D01*
X0286789Y0198263D01*
X0287256Y0197796D01*
X0288657Y0197796D01*
X0289920Y0198730D02*
X0291788Y0198730D01*
X0291788Y0199197D02*
X0291321Y0199664D01*
X0290387Y0199664D01*
X0289920Y0199197D01*
X0289920Y0198730D01*
X0290387Y0197796D02*
X0291321Y0197796D01*
X0291788Y0198263D01*
X0291788Y0199197D01*
X0293050Y0199197D02*
X0293518Y0198730D01*
X0294919Y0198730D01*
X0294919Y0197796D02*
X0294919Y0200598D01*
X0293518Y0200598D01*
X0293050Y0200131D01*
X0293050Y0199197D01*
X0293985Y0198730D02*
X0293050Y0197796D01*
X0292790Y0196178D02*
X0292790Y0193843D01*
X0293257Y0193376D01*
X0294191Y0193376D01*
X0294658Y0193843D01*
X0294658Y0196178D01*
X0291527Y0194777D02*
X0291060Y0195244D01*
X0289659Y0195244D01*
X0290126Y0194310D02*
X0291060Y0194310D01*
X0291527Y0194777D01*
X0291527Y0193376D02*
X0290126Y0193376D01*
X0289659Y0193843D01*
X0290126Y0194310D01*
X0288396Y0194310D02*
X0286528Y0194310D01*
X0286528Y0194777D01*
X0286995Y0195244D01*
X0287929Y0195244D01*
X0288396Y0194777D01*
X0288396Y0193843D01*
X0287929Y0193376D01*
X0286995Y0193376D01*
X0287597Y0170320D02*
X0287597Y0168151D01*
X0288030Y0167717D01*
X0288898Y0167717D01*
X0289332Y0168151D01*
X0289332Y0170320D01*
X0286385Y0169452D02*
X0285518Y0170320D01*
X0285518Y0167717D01*
X0286385Y0167717D02*
X0284650Y0167717D01*
X0246269Y0165325D02*
X0245835Y0164457D01*
X0244968Y0163590D01*
X0244968Y0164891D01*
X0244534Y0165325D01*
X0244101Y0165325D01*
X0243667Y0164891D01*
X0243667Y0164023D01*
X0244101Y0163590D01*
X0244968Y0163590D01*
X0244101Y0162378D02*
X0243667Y0161944D01*
X0243667Y0161077D01*
X0244101Y0160643D01*
X0245835Y0160643D01*
X0246269Y0161077D01*
X0246269Y0161944D01*
X0245835Y0162378D01*
X0242404Y0164331D02*
X0241537Y0165198D01*
X0239802Y0165198D01*
X0240235Y0166410D02*
X0239802Y0166844D01*
X0239802Y0167711D01*
X0240235Y0168145D01*
X0242404Y0168145D01*
X0242404Y0169356D02*
X0239802Y0171091D01*
X0240235Y0172303D02*
X0239802Y0172737D01*
X0239802Y0173604D01*
X0240235Y0174038D01*
X0241970Y0174038D01*
X0242404Y0173604D01*
X0242404Y0172737D01*
X0241970Y0172303D01*
X0240235Y0172303D01*
X0242404Y0171091D02*
X0239802Y0169356D01*
X0237394Y0169921D02*
X0236960Y0169487D01*
X0236093Y0169487D01*
X0235659Y0169921D01*
X0235659Y0170788D01*
X0236527Y0170788D01*
X0237394Y0171655D02*
X0237394Y0169921D01*
X0237394Y0171655D02*
X0236960Y0172089D01*
X0236093Y0172089D01*
X0235659Y0171655D01*
X0234448Y0172089D02*
X0234448Y0169487D01*
X0232713Y0169487D02*
X0232713Y0172089D01*
X0231501Y0172089D02*
X0230200Y0172089D01*
X0229766Y0171655D01*
X0229766Y0169921D01*
X0230200Y0169487D01*
X0231501Y0169487D01*
X0231501Y0172089D01*
X0232713Y0169487D02*
X0234448Y0172089D01*
X0240235Y0166410D02*
X0242404Y0166410D01*
X0241103Y0165198D02*
X0241103Y0163463D01*
X0241537Y0163463D02*
X0242404Y0164331D01*
X0241537Y0163463D02*
X0239802Y0163463D01*
X0194919Y0197796D02*
X0194919Y0200598D01*
X0193518Y0200598D01*
X0193050Y0200131D01*
X0193050Y0199197D01*
X0193518Y0198730D01*
X0194919Y0198730D01*
X0193985Y0198730D02*
X0193050Y0197796D01*
X0191788Y0198263D02*
X0191788Y0199197D01*
X0191321Y0199664D01*
X0190387Y0199664D01*
X0189920Y0199197D01*
X0189920Y0198730D01*
X0191788Y0198730D01*
X0191788Y0198263D02*
X0191321Y0197796D01*
X0190387Y0197796D01*
X0188657Y0197796D02*
X0187256Y0197796D01*
X0186789Y0198263D01*
X0187256Y0198730D01*
X0188190Y0198730D01*
X0188657Y0199197D01*
X0188190Y0199664D01*
X0186789Y0199664D01*
X0185527Y0199197D02*
X0185060Y0199664D01*
X0184126Y0199664D01*
X0183658Y0199197D01*
X0183658Y0198730D01*
X0185527Y0198730D01*
X0185527Y0198263D02*
X0185527Y0199197D01*
X0185527Y0198263D02*
X0185060Y0197796D01*
X0184126Y0197796D01*
X0182396Y0198263D02*
X0181929Y0198730D01*
X0180528Y0198730D01*
X0180528Y0199197D02*
X0180528Y0197796D01*
X0181929Y0197796D01*
X0182396Y0198263D01*
X0181929Y0199664D02*
X0180995Y0199664D01*
X0180528Y0199197D01*
X0179265Y0199664D02*
X0179265Y0197796D01*
X0179265Y0198730D02*
X0178331Y0199664D01*
X0177864Y0199664D01*
X0176656Y0199197D02*
X0176656Y0198263D01*
X0176189Y0197796D01*
X0174788Y0197796D01*
X0173526Y0197796D02*
X0173526Y0200598D01*
X0173059Y0199664D02*
X0172125Y0199664D01*
X0171658Y0199197D01*
X0171658Y0197796D01*
X0173526Y0199197D02*
X0173059Y0199664D01*
X0174788Y0199664D02*
X0176189Y0199664D01*
X0176656Y0199197D01*
X0175874Y0196178D02*
X0175407Y0196178D01*
X0175407Y0193376D01*
X0175874Y0193376D02*
X0174940Y0193376D01*
X0173787Y0193843D02*
X0173320Y0193376D01*
X0171918Y0193376D01*
X0171918Y0192909D02*
X0171918Y0195244D01*
X0173787Y0195244D02*
X0173787Y0193843D01*
X0172853Y0192442D02*
X0172386Y0192442D01*
X0171918Y0192909D01*
X0177136Y0193376D02*
X0177136Y0194777D01*
X0177603Y0195244D01*
X0179004Y0195244D01*
X0179004Y0193376D01*
X0180267Y0193843D02*
X0180267Y0195711D01*
X0180734Y0196178D01*
X0181668Y0196178D01*
X0182135Y0195711D01*
X0182135Y0193843D01*
X0181668Y0193376D01*
X0180734Y0193376D01*
X0180267Y0193843D01*
X0186528Y0194310D02*
X0188396Y0194310D01*
X0188396Y0194777D02*
X0187929Y0195244D01*
X0186995Y0195244D01*
X0186528Y0194777D01*
X0186528Y0194310D01*
X0186995Y0193376D02*
X0187929Y0193376D01*
X0188396Y0193843D01*
X0188396Y0194777D01*
X0189659Y0195244D02*
X0191060Y0195244D01*
X0191527Y0194777D01*
X0191060Y0194310D01*
X0190126Y0194310D01*
X0189659Y0193843D01*
X0190126Y0193376D01*
X0191527Y0193376D01*
X0192790Y0193843D02*
X0192790Y0196178D01*
X0194658Y0196178D02*
X0194658Y0193843D01*
X0194191Y0193376D01*
X0193257Y0193376D01*
X0192790Y0193843D01*
X0187092Y0202216D02*
X0187092Y0205018D01*
X0185224Y0205018D01*
X0186158Y0203617D02*
X0187092Y0203617D01*
X0183961Y0203617D02*
X0183494Y0204084D01*
X0182560Y0204084D01*
X0182093Y0203617D01*
X0182093Y0202683D01*
X0182560Y0202216D01*
X0183494Y0202216D01*
X0183961Y0202683D01*
X0183961Y0203617D01*
X0180831Y0204084D02*
X0180831Y0202216D01*
X0180831Y0203150D02*
X0179897Y0204084D01*
X0179430Y0204084D01*
X0185518Y0170320D02*
X0185518Y0167717D01*
X0186385Y0167717D02*
X0184650Y0167717D01*
X0186385Y0169452D02*
X0185518Y0170320D01*
X0187597Y0170320D02*
X0187597Y0168151D01*
X0188030Y0167717D01*
X0188898Y0167717D01*
X0189332Y0168151D01*
X0189332Y0170320D01*
X0146269Y0165325D02*
X0145835Y0164457D01*
X0144968Y0163590D01*
X0144968Y0164891D01*
X0144534Y0165325D01*
X0144101Y0165325D01*
X0143667Y0164891D01*
X0143667Y0164023D01*
X0144101Y0163590D01*
X0144968Y0163590D01*
X0144101Y0162378D02*
X0143667Y0161944D01*
X0143667Y0161077D01*
X0144101Y0160643D01*
X0145835Y0160643D01*
X0146269Y0161077D01*
X0146269Y0161944D01*
X0145835Y0162378D01*
X0142404Y0164331D02*
X0141537Y0165198D01*
X0139802Y0165198D01*
X0140235Y0166410D02*
X0139802Y0166844D01*
X0139802Y0167711D01*
X0140235Y0168145D01*
X0142404Y0168145D01*
X0142404Y0169356D02*
X0139802Y0171091D01*
X0140235Y0172303D02*
X0139802Y0172737D01*
X0139802Y0173604D01*
X0140235Y0174038D01*
X0141970Y0174038D01*
X0142404Y0173604D01*
X0142404Y0172737D01*
X0141970Y0172303D01*
X0140235Y0172303D01*
X0142404Y0171091D02*
X0139802Y0169356D01*
X0137394Y0169921D02*
X0136960Y0169487D01*
X0136093Y0169487D01*
X0135659Y0169921D01*
X0135659Y0170788D01*
X0136527Y0170788D01*
X0137394Y0171655D02*
X0137394Y0169921D01*
X0137394Y0171655D02*
X0136960Y0172089D01*
X0136093Y0172089D01*
X0135659Y0171655D01*
X0134448Y0172089D02*
X0132713Y0169487D01*
X0132713Y0172089D01*
X0131501Y0172089D02*
X0131501Y0169487D01*
X0130200Y0169487D01*
X0129766Y0169921D01*
X0129766Y0171655D01*
X0130200Y0172089D01*
X0131501Y0172089D01*
X0134448Y0172089D02*
X0134448Y0169487D01*
X0140235Y0166410D02*
X0142404Y0166410D01*
X0141103Y0165198D02*
X0141103Y0163463D01*
X0141537Y0163463D02*
X0142404Y0164331D01*
X0141537Y0163463D02*
X0139802Y0163463D01*
X0094658Y0193843D02*
X0094191Y0193376D01*
X0093257Y0193376D01*
X0092790Y0193843D01*
X0092790Y0196178D01*
X0093050Y0197796D02*
X0093985Y0198730D01*
X0093518Y0198730D02*
X0094919Y0198730D01*
X0094919Y0197796D02*
X0094919Y0200598D01*
X0093518Y0200598D01*
X0093050Y0200131D01*
X0093050Y0199197D01*
X0093518Y0198730D01*
X0091788Y0198730D02*
X0089920Y0198730D01*
X0089920Y0199197D01*
X0090387Y0199664D01*
X0091321Y0199664D01*
X0091788Y0199197D01*
X0091788Y0198263D01*
X0091321Y0197796D01*
X0090387Y0197796D01*
X0088657Y0197796D02*
X0087256Y0197796D01*
X0086789Y0198263D01*
X0087256Y0198730D01*
X0088190Y0198730D01*
X0088657Y0199197D01*
X0088190Y0199664D01*
X0086789Y0199664D01*
X0085527Y0199197D02*
X0085060Y0199664D01*
X0084126Y0199664D01*
X0083658Y0199197D01*
X0083658Y0198730D01*
X0085527Y0198730D01*
X0085527Y0198263D02*
X0085527Y0199197D01*
X0085527Y0198263D02*
X0085060Y0197796D01*
X0084126Y0197796D01*
X0082396Y0198263D02*
X0081929Y0198730D01*
X0080528Y0198730D01*
X0080528Y0199197D02*
X0080528Y0197796D01*
X0081929Y0197796D01*
X0082396Y0198263D01*
X0081929Y0199664D02*
X0080995Y0199664D01*
X0080528Y0199197D01*
X0079265Y0199664D02*
X0079265Y0197796D01*
X0079265Y0198730D02*
X0078331Y0199664D01*
X0077864Y0199664D01*
X0076656Y0199197D02*
X0076656Y0198263D01*
X0076189Y0197796D01*
X0074788Y0197796D01*
X0073526Y0197796D02*
X0073526Y0200598D01*
X0073059Y0199664D02*
X0072125Y0199664D01*
X0071658Y0199197D01*
X0071658Y0197796D01*
X0073526Y0199197D02*
X0073059Y0199664D01*
X0074788Y0199664D02*
X0076189Y0199664D01*
X0076656Y0199197D01*
X0075874Y0196178D02*
X0075407Y0196178D01*
X0075407Y0193376D01*
X0075874Y0193376D02*
X0074940Y0193376D01*
X0073787Y0193843D02*
X0073320Y0193376D01*
X0071918Y0193376D01*
X0071918Y0192909D02*
X0071918Y0195244D01*
X0073787Y0195244D02*
X0073787Y0193843D01*
X0072853Y0192442D02*
X0072386Y0192442D01*
X0071918Y0192909D01*
X0077136Y0193376D02*
X0077136Y0194777D01*
X0077603Y0195244D01*
X0079004Y0195244D01*
X0079004Y0193376D01*
X0080267Y0193843D02*
X0080267Y0195711D01*
X0080734Y0196178D01*
X0081668Y0196178D01*
X0082135Y0195711D01*
X0082135Y0193843D01*
X0081668Y0193376D01*
X0080734Y0193376D01*
X0080267Y0193843D01*
X0086528Y0194310D02*
X0088396Y0194310D01*
X0088396Y0194777D02*
X0087929Y0195244D01*
X0086995Y0195244D01*
X0086528Y0194777D01*
X0086528Y0194310D01*
X0086995Y0193376D02*
X0087929Y0193376D01*
X0088396Y0193843D01*
X0088396Y0194777D01*
X0089659Y0195244D02*
X0091060Y0195244D01*
X0091527Y0194777D01*
X0091060Y0194310D01*
X0090126Y0194310D01*
X0089659Y0193843D01*
X0090126Y0193376D01*
X0091527Y0193376D01*
X0094658Y0193843D02*
X0094658Y0196178D01*
X0087092Y0202216D02*
X0087092Y0205018D01*
X0085224Y0205018D01*
X0086158Y0203617D02*
X0087092Y0203617D01*
X0083961Y0203617D02*
X0083494Y0204084D01*
X0082560Y0204084D01*
X0082093Y0203617D01*
X0082093Y0202683D01*
X0082560Y0202216D01*
X0083494Y0202216D01*
X0083961Y0202683D01*
X0083961Y0203617D01*
X0080831Y0204084D02*
X0080831Y0202216D01*
X0080831Y0203150D02*
X0079897Y0204084D01*
X0079430Y0204084D01*
X0085518Y0170320D02*
X0085518Y0167717D01*
X0086385Y0167717D02*
X0084650Y0167717D01*
X0086385Y0169452D02*
X0085518Y0170320D01*
X0087597Y0170320D02*
X0087597Y0168151D01*
X0088030Y0167717D01*
X0088898Y0167717D01*
X0089332Y0168151D01*
X0089332Y0170320D01*
X0046269Y0165325D02*
X0045835Y0164457D01*
X0044968Y0163590D01*
X0044968Y0164891D01*
X0044534Y0165325D01*
X0044101Y0165325D01*
X0043667Y0164891D01*
X0043667Y0164023D01*
X0044101Y0163590D01*
X0044968Y0163590D01*
X0044101Y0162378D02*
X0043667Y0161944D01*
X0043667Y0161077D01*
X0044101Y0160643D01*
X0045835Y0160643D01*
X0046269Y0161077D01*
X0046269Y0161944D01*
X0045835Y0162378D01*
X0042404Y0164331D02*
X0041537Y0165198D01*
X0039802Y0165198D01*
X0040235Y0166410D02*
X0039802Y0166844D01*
X0039802Y0167711D01*
X0040235Y0168145D01*
X0042404Y0168145D01*
X0042404Y0169356D02*
X0039802Y0171091D01*
X0040235Y0172303D02*
X0039802Y0172737D01*
X0039802Y0173604D01*
X0040235Y0174038D01*
X0041970Y0174038D01*
X0042404Y0173604D01*
X0042404Y0172737D01*
X0041970Y0172303D01*
X0040235Y0172303D01*
X0042404Y0171091D02*
X0039802Y0169356D01*
X0037394Y0169921D02*
X0036960Y0169487D01*
X0036093Y0169487D01*
X0035659Y0169921D01*
X0035659Y0170788D01*
X0036527Y0170788D01*
X0037394Y0171655D02*
X0037394Y0169921D01*
X0037394Y0171655D02*
X0036960Y0172089D01*
X0036093Y0172089D01*
X0035659Y0171655D01*
X0034448Y0172089D02*
X0034448Y0169487D01*
X0032713Y0169487D02*
X0032713Y0172089D01*
X0031501Y0172089D02*
X0030200Y0172089D01*
X0029766Y0171655D01*
X0029766Y0169921D01*
X0030200Y0169487D01*
X0031501Y0169487D01*
X0031501Y0172089D01*
X0032713Y0169487D02*
X0034448Y0172089D01*
X0040235Y0166410D02*
X0042404Y0166410D01*
X0041103Y0165198D02*
X0041103Y0163463D01*
X0041537Y0163463D02*
X0042404Y0164331D01*
X0041537Y0163463D02*
X0039802Y0163463D01*
X0079430Y0104084D02*
X0079897Y0104084D01*
X0080831Y0103150D01*
X0080831Y0102216D02*
X0080831Y0104084D01*
X0082093Y0103617D02*
X0082560Y0104084D01*
X0083494Y0104084D01*
X0083961Y0103617D01*
X0083961Y0102683D01*
X0083494Y0102216D01*
X0082560Y0102216D01*
X0082093Y0102683D01*
X0082093Y0103617D01*
X0085224Y0105018D02*
X0087092Y0105018D01*
X0087092Y0102216D01*
X0087092Y0103617D02*
X0086158Y0103617D01*
X0086789Y0099664D02*
X0088190Y0099664D01*
X0088657Y0099197D01*
X0088190Y0098730D01*
X0087256Y0098730D01*
X0086789Y0098263D01*
X0087256Y0097796D01*
X0088657Y0097796D01*
X0089920Y0098730D02*
X0091788Y0098730D01*
X0091788Y0099197D02*
X0091321Y0099664D01*
X0090387Y0099664D01*
X0089920Y0099197D01*
X0089920Y0098730D01*
X0090387Y0097796D02*
X0091321Y0097796D01*
X0091788Y0098263D01*
X0091788Y0099197D01*
X0093050Y0099197D02*
X0093518Y0098730D01*
X0094919Y0098730D01*
X0094919Y0097796D02*
X0094919Y0100598D01*
X0093518Y0100598D01*
X0093050Y0100131D01*
X0093050Y0099197D01*
X0093985Y0098730D02*
X0093050Y0097796D01*
X0092790Y0096178D02*
X0092790Y0093843D01*
X0093257Y0093376D01*
X0094191Y0093376D01*
X0094658Y0093843D01*
X0094658Y0096178D01*
X0091527Y0094777D02*
X0091060Y0095244D01*
X0089659Y0095244D01*
X0090126Y0094310D02*
X0091060Y0094310D01*
X0091527Y0094777D01*
X0091527Y0093376D02*
X0090126Y0093376D01*
X0089659Y0093843D01*
X0090126Y0094310D01*
X0088396Y0094310D02*
X0086528Y0094310D01*
X0086528Y0094777D01*
X0086995Y0095244D01*
X0087929Y0095244D01*
X0088396Y0094777D01*
X0088396Y0093843D01*
X0087929Y0093376D01*
X0086995Y0093376D01*
X0085060Y0097796D02*
X0085527Y0098263D01*
X0085527Y0099197D01*
X0085060Y0099664D01*
X0084126Y0099664D01*
X0083658Y0099197D01*
X0083658Y0098730D01*
X0085527Y0098730D01*
X0085060Y0097796D02*
X0084126Y0097796D01*
X0082396Y0098263D02*
X0081929Y0098730D01*
X0080528Y0098730D01*
X0080528Y0099197D02*
X0080528Y0097796D01*
X0081929Y0097796D01*
X0082396Y0098263D01*
X0081929Y0099664D02*
X0080995Y0099664D01*
X0080528Y0099197D01*
X0079265Y0099664D02*
X0079265Y0097796D01*
X0079265Y0098730D02*
X0078331Y0099664D01*
X0077864Y0099664D01*
X0076656Y0099197D02*
X0076656Y0098263D01*
X0076189Y0097796D01*
X0074788Y0097796D01*
X0073526Y0097796D02*
X0073526Y0100598D01*
X0073059Y0099664D02*
X0072125Y0099664D01*
X0071658Y0099197D01*
X0071658Y0097796D01*
X0073526Y0099197D02*
X0073059Y0099664D01*
X0074788Y0099664D02*
X0076189Y0099664D01*
X0076656Y0099197D01*
X0075874Y0096178D02*
X0075407Y0096178D01*
X0075407Y0093376D01*
X0075874Y0093376D02*
X0074940Y0093376D01*
X0073787Y0093843D02*
X0073320Y0093376D01*
X0071918Y0093376D01*
X0071918Y0092909D02*
X0071918Y0095244D01*
X0073787Y0095244D02*
X0073787Y0093843D01*
X0072853Y0092442D02*
X0072386Y0092442D01*
X0071918Y0092909D01*
X0077136Y0093376D02*
X0077136Y0094777D01*
X0077603Y0095244D01*
X0079004Y0095244D01*
X0079004Y0093376D01*
X0080267Y0093843D02*
X0080267Y0095711D01*
X0080734Y0096178D01*
X0081668Y0096178D01*
X0082135Y0095711D01*
X0082135Y0093843D01*
X0081668Y0093376D01*
X0080734Y0093376D01*
X0080267Y0093843D01*
X0085518Y0070320D02*
X0085518Y0067717D01*
X0086385Y0067717D02*
X0084650Y0067717D01*
X0086385Y0069452D02*
X0085518Y0070320D01*
X0087597Y0070320D02*
X0087597Y0068151D01*
X0088030Y0067717D01*
X0088898Y0067717D01*
X0089332Y0068151D01*
X0089332Y0070320D01*
X0129766Y0069921D02*
X0129766Y0071655D01*
X0130200Y0072089D01*
X0131501Y0072089D01*
X0131501Y0069487D01*
X0130200Y0069487D01*
X0129766Y0069921D01*
X0132713Y0069487D02*
X0132713Y0072089D01*
X0134448Y0072089D02*
X0132713Y0069487D01*
X0134448Y0069487D02*
X0134448Y0072089D01*
X0135659Y0071655D02*
X0136093Y0072089D01*
X0136960Y0072089D01*
X0137394Y0071655D01*
X0137394Y0069921D01*
X0136960Y0069487D01*
X0136093Y0069487D01*
X0135659Y0069921D01*
X0135659Y0070788D01*
X0136527Y0070788D01*
X0139802Y0071091D02*
X0142404Y0069356D01*
X0142404Y0068145D02*
X0140235Y0068145D01*
X0139802Y0067711D01*
X0139802Y0066844D01*
X0140235Y0066410D01*
X0142404Y0066410D01*
X0141537Y0065198D02*
X0142404Y0064331D01*
X0141537Y0063463D01*
X0139802Y0063463D01*
X0141103Y0063463D02*
X0141103Y0065198D01*
X0141537Y0065198D02*
X0139802Y0065198D01*
X0143667Y0064891D02*
X0143667Y0064023D01*
X0144101Y0063590D01*
X0144968Y0063590D01*
X0144968Y0064891D01*
X0144534Y0065325D01*
X0144101Y0065325D01*
X0143667Y0064891D01*
X0144968Y0063590D02*
X0145835Y0064457D01*
X0146269Y0065325D01*
X0145835Y0062378D02*
X0146269Y0061944D01*
X0146269Y0061077D01*
X0145835Y0060643D01*
X0144101Y0060643D01*
X0143667Y0061077D01*
X0143667Y0061944D01*
X0144101Y0062378D01*
X0139802Y0069356D02*
X0142404Y0071091D01*
X0141970Y0072303D02*
X0140235Y0072303D01*
X0139802Y0072737D01*
X0139802Y0073604D01*
X0140235Y0074038D01*
X0141970Y0074038D01*
X0142404Y0073604D01*
X0142404Y0072737D01*
X0141970Y0072303D01*
X0171918Y0092909D02*
X0172386Y0092442D01*
X0172853Y0092442D01*
X0173320Y0093376D02*
X0171918Y0093376D01*
X0171918Y0092909D02*
X0171918Y0095244D01*
X0173787Y0095244D02*
X0173787Y0093843D01*
X0173320Y0093376D01*
X0174940Y0093376D02*
X0175874Y0093376D01*
X0175407Y0093376D02*
X0175407Y0096178D01*
X0175874Y0096178D01*
X0176189Y0097796D02*
X0174788Y0097796D01*
X0173526Y0097796D02*
X0173526Y0100598D01*
X0173059Y0099664D02*
X0172125Y0099664D01*
X0171658Y0099197D01*
X0171658Y0097796D01*
X0173526Y0099197D02*
X0173059Y0099664D01*
X0174788Y0099664D02*
X0176189Y0099664D01*
X0176656Y0099197D01*
X0176656Y0098263D01*
X0176189Y0097796D01*
X0177864Y0099664D02*
X0178331Y0099664D01*
X0179265Y0098730D01*
X0179265Y0097796D02*
X0179265Y0099664D01*
X0180528Y0099197D02*
X0180528Y0097796D01*
X0181929Y0097796D01*
X0182396Y0098263D01*
X0181929Y0098730D01*
X0180528Y0098730D01*
X0180528Y0099197D02*
X0180995Y0099664D01*
X0181929Y0099664D01*
X0183658Y0099197D02*
X0183658Y0098730D01*
X0185527Y0098730D01*
X0185527Y0099197D02*
X0185060Y0099664D01*
X0184126Y0099664D01*
X0183658Y0099197D01*
X0184126Y0097796D02*
X0185060Y0097796D01*
X0185527Y0098263D01*
X0185527Y0099197D01*
X0186789Y0099664D02*
X0188190Y0099664D01*
X0188657Y0099197D01*
X0188190Y0098730D01*
X0187256Y0098730D01*
X0186789Y0098263D01*
X0187256Y0097796D01*
X0188657Y0097796D01*
X0189920Y0098730D02*
X0191788Y0098730D01*
X0191788Y0099197D02*
X0191321Y0099664D01*
X0190387Y0099664D01*
X0189920Y0099197D01*
X0189920Y0098730D01*
X0190387Y0097796D02*
X0191321Y0097796D01*
X0191788Y0098263D01*
X0191788Y0099197D01*
X0193050Y0099197D02*
X0193518Y0098730D01*
X0194919Y0098730D01*
X0194919Y0097796D02*
X0194919Y0100598D01*
X0193518Y0100598D01*
X0193050Y0100131D01*
X0193050Y0099197D01*
X0193985Y0098730D02*
X0193050Y0097796D01*
X0192790Y0096178D02*
X0192790Y0093843D01*
X0193257Y0093376D01*
X0194191Y0093376D01*
X0194658Y0093843D01*
X0194658Y0096178D01*
X0191527Y0094777D02*
X0191060Y0095244D01*
X0189659Y0095244D01*
X0190126Y0094310D02*
X0191060Y0094310D01*
X0191527Y0094777D01*
X0191527Y0093376D02*
X0190126Y0093376D01*
X0189659Y0093843D01*
X0190126Y0094310D01*
X0188396Y0094310D02*
X0186528Y0094310D01*
X0186528Y0094777D01*
X0186995Y0095244D01*
X0187929Y0095244D01*
X0188396Y0094777D01*
X0188396Y0093843D01*
X0187929Y0093376D01*
X0186995Y0093376D01*
X0182135Y0093843D02*
X0181668Y0093376D01*
X0180734Y0093376D01*
X0180267Y0093843D01*
X0180267Y0095711D01*
X0180734Y0096178D01*
X0181668Y0096178D01*
X0182135Y0095711D01*
X0182135Y0093843D01*
X0179004Y0093376D02*
X0179004Y0095244D01*
X0177603Y0095244D01*
X0177136Y0094777D01*
X0177136Y0093376D01*
X0180831Y0102216D02*
X0180831Y0104084D01*
X0180831Y0103150D02*
X0179897Y0104084D01*
X0179430Y0104084D01*
X0182093Y0103617D02*
X0182560Y0104084D01*
X0183494Y0104084D01*
X0183961Y0103617D01*
X0183961Y0102683D01*
X0183494Y0102216D01*
X0182560Y0102216D01*
X0182093Y0102683D01*
X0182093Y0103617D01*
X0185224Y0105018D02*
X0187092Y0105018D01*
X0187092Y0102216D01*
X0187092Y0103617D02*
X0186158Y0103617D01*
X0185518Y0070320D02*
X0185518Y0067717D01*
X0186385Y0067717D02*
X0184650Y0067717D01*
X0186385Y0069452D02*
X0185518Y0070320D01*
X0187597Y0070320D02*
X0187597Y0068151D01*
X0188030Y0067717D01*
X0188898Y0067717D01*
X0189332Y0068151D01*
X0189332Y0070320D01*
X0229766Y0069921D02*
X0229766Y0071655D01*
X0230200Y0072089D01*
X0231501Y0072089D01*
X0231501Y0069487D01*
X0230200Y0069487D01*
X0229766Y0069921D01*
X0232713Y0069487D02*
X0232713Y0072089D01*
X0234448Y0072089D02*
X0232713Y0069487D01*
X0234448Y0069487D02*
X0234448Y0072089D01*
X0235659Y0071655D02*
X0236093Y0072089D01*
X0236960Y0072089D01*
X0237394Y0071655D01*
X0237394Y0069921D01*
X0236960Y0069487D01*
X0236093Y0069487D01*
X0235659Y0069921D01*
X0235659Y0070788D01*
X0236527Y0070788D01*
X0239802Y0071091D02*
X0242404Y0069356D01*
X0242404Y0068145D02*
X0240235Y0068145D01*
X0239802Y0067711D01*
X0239802Y0066844D01*
X0240235Y0066410D01*
X0242404Y0066410D01*
X0241537Y0065198D02*
X0239802Y0065198D01*
X0241103Y0065198D02*
X0241103Y0063463D01*
X0241537Y0063463D02*
X0242404Y0064331D01*
X0241537Y0065198D01*
X0241537Y0063463D02*
X0239802Y0063463D01*
X0243667Y0064023D02*
X0243667Y0064891D01*
X0244101Y0065325D01*
X0244534Y0065325D01*
X0244968Y0064891D01*
X0244968Y0063590D01*
X0244101Y0063590D01*
X0243667Y0064023D01*
X0244968Y0063590D02*
X0245835Y0064457D01*
X0246269Y0065325D01*
X0245835Y0062378D02*
X0246269Y0061944D01*
X0246269Y0061077D01*
X0245835Y0060643D01*
X0244101Y0060643D01*
X0243667Y0061077D01*
X0243667Y0061944D01*
X0244101Y0062378D01*
X0239802Y0069356D02*
X0242404Y0071091D01*
X0241970Y0072303D02*
X0240235Y0072303D01*
X0239802Y0072737D01*
X0239802Y0073604D01*
X0240235Y0074038D01*
X0241970Y0074038D01*
X0242404Y0073604D01*
X0242404Y0072737D01*
X0241970Y0072303D01*
X0271918Y0092909D02*
X0272386Y0092442D01*
X0272853Y0092442D01*
X0273320Y0093376D02*
X0271918Y0093376D01*
X0271918Y0092909D02*
X0271918Y0095244D01*
X0273787Y0095244D02*
X0273787Y0093843D01*
X0273320Y0093376D01*
X0274940Y0093376D02*
X0275874Y0093376D01*
X0275407Y0093376D02*
X0275407Y0096178D01*
X0275874Y0096178D01*
X0276189Y0097796D02*
X0274788Y0097796D01*
X0273526Y0097796D02*
X0273526Y0100598D01*
X0273059Y0099664D02*
X0272125Y0099664D01*
X0271658Y0099197D01*
X0271658Y0097796D01*
X0273526Y0099197D02*
X0273059Y0099664D01*
X0274788Y0099664D02*
X0276189Y0099664D01*
X0276656Y0099197D01*
X0276656Y0098263D01*
X0276189Y0097796D01*
X0277864Y0099664D02*
X0278331Y0099664D01*
X0279265Y0098730D01*
X0279265Y0097796D02*
X0279265Y0099664D01*
X0280528Y0099197D02*
X0280528Y0097796D01*
X0281929Y0097796D01*
X0282396Y0098263D01*
X0281929Y0098730D01*
X0280528Y0098730D01*
X0280528Y0099197D02*
X0280995Y0099664D01*
X0281929Y0099664D01*
X0283658Y0099197D02*
X0283658Y0098730D01*
X0285527Y0098730D01*
X0285527Y0099197D02*
X0285060Y0099664D01*
X0284126Y0099664D01*
X0283658Y0099197D01*
X0284126Y0097796D02*
X0285060Y0097796D01*
X0285527Y0098263D01*
X0285527Y0099197D01*
X0286789Y0099664D02*
X0288190Y0099664D01*
X0288657Y0099197D01*
X0288190Y0098730D01*
X0287256Y0098730D01*
X0286789Y0098263D01*
X0287256Y0097796D01*
X0288657Y0097796D01*
X0289920Y0098730D02*
X0291788Y0098730D01*
X0291788Y0099197D02*
X0291321Y0099664D01*
X0290387Y0099664D01*
X0289920Y0099197D01*
X0289920Y0098730D01*
X0290387Y0097796D02*
X0291321Y0097796D01*
X0291788Y0098263D01*
X0291788Y0099197D01*
X0293050Y0099197D02*
X0293518Y0098730D01*
X0294919Y0098730D01*
X0294919Y0097796D02*
X0294919Y0100598D01*
X0293518Y0100598D01*
X0293050Y0100131D01*
X0293050Y0099197D01*
X0293985Y0098730D02*
X0293050Y0097796D01*
X0292790Y0096178D02*
X0292790Y0093843D01*
X0293257Y0093376D01*
X0294191Y0093376D01*
X0294658Y0093843D01*
X0294658Y0096178D01*
X0291527Y0094777D02*
X0291060Y0095244D01*
X0289659Y0095244D01*
X0290126Y0094310D02*
X0291060Y0094310D01*
X0291527Y0094777D01*
X0291527Y0093376D02*
X0290126Y0093376D01*
X0289659Y0093843D01*
X0290126Y0094310D01*
X0288396Y0094310D02*
X0286528Y0094310D01*
X0286528Y0094777D01*
X0286995Y0095244D01*
X0287929Y0095244D01*
X0288396Y0094777D01*
X0288396Y0093843D01*
X0287929Y0093376D01*
X0286995Y0093376D01*
X0282135Y0093843D02*
X0281668Y0093376D01*
X0280734Y0093376D01*
X0280267Y0093843D01*
X0280267Y0095711D01*
X0280734Y0096178D01*
X0281668Y0096178D01*
X0282135Y0095711D01*
X0282135Y0093843D01*
X0279004Y0093376D02*
X0279004Y0095244D01*
X0277603Y0095244D01*
X0277136Y0094777D01*
X0277136Y0093376D01*
X0280831Y0102216D02*
X0280831Y0104084D01*
X0280831Y0103150D02*
X0279897Y0104084D01*
X0279430Y0104084D01*
X0282093Y0103617D02*
X0282560Y0104084D01*
X0283494Y0104084D01*
X0283961Y0103617D01*
X0283961Y0102683D01*
X0283494Y0102216D01*
X0282560Y0102216D01*
X0282093Y0102683D01*
X0282093Y0103617D01*
X0285224Y0105018D02*
X0287092Y0105018D01*
X0287092Y0102216D01*
X0287092Y0103617D02*
X0286158Y0103617D01*
X0285518Y0070320D02*
X0285518Y0067717D01*
X0286385Y0067717D02*
X0284650Y0067717D01*
X0286385Y0069452D02*
X0285518Y0070320D01*
X0287597Y0070320D02*
X0287597Y0068151D01*
X0288030Y0067717D01*
X0288898Y0067717D01*
X0289332Y0068151D01*
X0289332Y0070320D01*
X0046269Y0065325D02*
X0045835Y0064457D01*
X0044968Y0063590D01*
X0044968Y0064891D01*
X0044534Y0065325D01*
X0044101Y0065325D01*
X0043667Y0064891D01*
X0043667Y0064023D01*
X0044101Y0063590D01*
X0044968Y0063590D01*
X0044101Y0062378D02*
X0043667Y0061944D01*
X0043667Y0061077D01*
X0044101Y0060643D01*
X0045835Y0060643D01*
X0046269Y0061077D01*
X0046269Y0061944D01*
X0045835Y0062378D01*
X0042404Y0064331D02*
X0041537Y0065198D01*
X0039802Y0065198D01*
X0040235Y0066410D02*
X0039802Y0066844D01*
X0039802Y0067711D01*
X0040235Y0068145D01*
X0042404Y0068145D01*
X0042404Y0069356D02*
X0039802Y0071091D01*
X0040235Y0072303D02*
X0039802Y0072737D01*
X0039802Y0073604D01*
X0040235Y0074038D01*
X0041970Y0074038D01*
X0042404Y0073604D01*
X0042404Y0072737D01*
X0041970Y0072303D01*
X0040235Y0072303D01*
X0042404Y0071091D02*
X0039802Y0069356D01*
X0037394Y0069921D02*
X0037394Y0071655D01*
X0036960Y0072089D01*
X0036093Y0072089D01*
X0035659Y0071655D01*
X0035659Y0070788D02*
X0036527Y0070788D01*
X0035659Y0070788D02*
X0035659Y0069921D01*
X0036093Y0069487D01*
X0036960Y0069487D01*
X0037394Y0069921D01*
X0034448Y0069487D02*
X0034448Y0072089D01*
X0032713Y0069487D01*
X0032713Y0072089D01*
X0031501Y0072089D02*
X0030200Y0072089D01*
X0029766Y0071655D01*
X0029766Y0069921D01*
X0030200Y0069487D01*
X0031501Y0069487D01*
X0031501Y0072089D01*
X0040235Y0066410D02*
X0042404Y0066410D01*
X0041103Y0065198D02*
X0041103Y0063463D01*
X0041537Y0063463D02*
X0042404Y0064331D01*
X0041537Y0063463D02*
X0039802Y0063463D01*
D13*
X0061592Y0082610D02*
X0063460Y0082610D01*
X0062526Y0082610D02*
X0062526Y0085412D01*
X0063460Y0084478D01*
X0064815Y0085412D02*
X0065749Y0085412D01*
X0065282Y0085412D02*
X0065282Y0083077D01*
X0065749Y0082610D01*
X0066216Y0082610D01*
X0066683Y0083077D01*
X0161592Y0082610D02*
X0163460Y0082610D01*
X0162526Y0082610D02*
X0162526Y0085412D01*
X0163460Y0084478D01*
X0164815Y0085412D02*
X0165749Y0085412D01*
X0165282Y0085412D02*
X0165282Y0083077D01*
X0165749Y0082610D01*
X0166216Y0082610D01*
X0166683Y0083077D01*
X0166216Y0182610D02*
X0165749Y0182610D01*
X0165282Y0183077D01*
X0165282Y0185412D01*
X0165749Y0185412D02*
X0164815Y0185412D01*
X0163460Y0184478D02*
X0162526Y0185412D01*
X0162526Y0182610D01*
X0163460Y0182610D02*
X0161592Y0182610D01*
X0166216Y0182610D02*
X0166683Y0183077D01*
X0166216Y0282610D02*
X0165749Y0282610D01*
X0165282Y0283077D01*
X0165282Y0285412D01*
X0165749Y0285412D02*
X0164815Y0285412D01*
X0163460Y0284478D02*
X0162526Y0285412D01*
X0162526Y0282610D01*
X0163460Y0282610D02*
X0161592Y0282610D01*
X0166216Y0282610D02*
X0166683Y0283077D01*
X0261592Y0282610D02*
X0263460Y0282610D01*
X0262526Y0282610D02*
X0262526Y0285412D01*
X0263460Y0284478D01*
X0264815Y0285412D02*
X0265749Y0285412D01*
X0265282Y0285412D02*
X0265282Y0283077D01*
X0265749Y0282610D01*
X0266216Y0282610D01*
X0266683Y0283077D01*
X0265749Y0185412D02*
X0264815Y0185412D01*
X0265282Y0185412D02*
X0265282Y0183077D01*
X0265749Y0182610D01*
X0266216Y0182610D01*
X0266683Y0183077D01*
X0263460Y0182610D02*
X0261592Y0182610D01*
X0262526Y0182610D02*
X0262526Y0185412D01*
X0263460Y0184478D01*
X0262526Y0085412D02*
X0262526Y0082610D01*
X0263460Y0082610D02*
X0261592Y0082610D01*
X0263460Y0084478D02*
X0262526Y0085412D01*
X0264815Y0085412D02*
X0265749Y0085412D01*
X0265282Y0085412D02*
X0265282Y0083077D01*
X0265749Y0082610D01*
X0266216Y0082610D01*
X0266683Y0083077D01*
X0066683Y0183077D02*
X0066216Y0182610D01*
X0065749Y0182610D01*
X0065282Y0183077D01*
X0065282Y0185412D01*
X0065749Y0185412D02*
X0064815Y0185412D01*
X0063460Y0184478D02*
X0062526Y0185412D01*
X0062526Y0182610D01*
X0063460Y0182610D02*
X0061592Y0182610D01*
X0061592Y0282610D02*
X0063460Y0282610D01*
X0062526Y0282610D02*
X0062526Y0285412D01*
X0063460Y0284478D01*
X0064815Y0285412D02*
X0065749Y0285412D01*
X0065282Y0285412D02*
X0065282Y0283077D01*
X0065749Y0282610D01*
X0066216Y0282610D01*
X0066683Y0283077D01*
D14*
X0079946Y0273835D02*
X0082309Y0271472D01*
X0082309Y0273835D01*
X0079946Y0273835D01*
X0080120Y0273661D02*
X0082309Y0273661D01*
X0082309Y0273835D02*
X0082309Y0246276D01*
X0046876Y0246276D01*
X0046876Y0273835D01*
X0082309Y0273835D01*
X0082309Y0273163D02*
X0080619Y0273163D01*
X0081117Y0272664D02*
X0082309Y0272664D01*
X0082309Y0272166D02*
X0081616Y0272166D01*
X0082114Y0271667D02*
X0082309Y0271667D01*
X0095301Y0279740D02*
X0095301Y0287614D01*
X0133883Y0287614D02*
X0133883Y0279740D01*
X0146876Y0273835D02*
X0146876Y0246276D01*
X0182309Y0246276D01*
X0182309Y0273835D01*
X0182309Y0271472D01*
X0179946Y0273835D01*
X0182309Y0273835D01*
X0146876Y0273835D01*
X0180120Y0273661D02*
X0182309Y0273661D01*
X0182309Y0273163D02*
X0180619Y0273163D01*
X0181117Y0272664D02*
X0182309Y0272664D01*
X0182309Y0272166D02*
X0181616Y0272166D01*
X0182114Y0271667D02*
X0182309Y0271667D01*
X0195301Y0279740D02*
X0195301Y0287614D01*
X0233883Y0287614D02*
X0233883Y0279740D01*
X0246876Y0273835D02*
X0246876Y0246276D01*
X0282309Y0246276D01*
X0282309Y0273835D01*
X0282309Y0271472D01*
X0279946Y0273835D01*
X0282309Y0273835D01*
X0246876Y0273835D01*
X0280120Y0273661D02*
X0282309Y0273661D01*
X0282309Y0273163D02*
X0280619Y0273163D01*
X0281117Y0272664D02*
X0282309Y0272664D01*
X0282309Y0272166D02*
X0281616Y0272166D01*
X0282114Y0271667D02*
X0282309Y0271667D01*
X0295301Y0279740D02*
X0295301Y0287614D01*
X0295301Y0187614D02*
X0295301Y0179740D01*
X0282309Y0173835D02*
X0282309Y0171472D01*
X0279946Y0173835D01*
X0282309Y0173835D01*
X0282309Y0146276D01*
X0246876Y0146276D01*
X0246876Y0173835D01*
X0282309Y0173835D01*
X0282309Y0173460D02*
X0280321Y0173460D01*
X0280819Y0172962D02*
X0282309Y0172962D01*
X0282309Y0172463D02*
X0281318Y0172463D01*
X0281816Y0171965D02*
X0282309Y0171965D01*
X0233883Y0179740D02*
X0233883Y0187614D01*
X0195301Y0187614D02*
X0195301Y0179740D01*
X0182309Y0173835D02*
X0182309Y0171472D01*
X0179946Y0173835D01*
X0182309Y0173835D01*
X0182309Y0146276D01*
X0146876Y0146276D01*
X0146876Y0173835D01*
X0182309Y0173835D01*
X0182309Y0173460D02*
X0180321Y0173460D01*
X0180819Y0172962D02*
X0182309Y0172962D01*
X0182309Y0172463D02*
X0181318Y0172463D01*
X0181816Y0171965D02*
X0182309Y0171965D01*
X0133883Y0179740D02*
X0133883Y0187614D01*
X0095301Y0187614D02*
X0095301Y0179740D01*
X0082309Y0173835D02*
X0082309Y0171472D01*
X0079946Y0173835D01*
X0082309Y0173835D01*
X0082309Y0146276D01*
X0046876Y0146276D01*
X0046876Y0173835D01*
X0082309Y0173835D01*
X0082309Y0173460D02*
X0080321Y0173460D01*
X0080819Y0172962D02*
X0082309Y0172962D01*
X0082309Y0172463D02*
X0081318Y0172463D01*
X0081816Y0171965D02*
X0082309Y0171965D01*
X0033883Y0179740D02*
X0033883Y0187614D01*
X0033883Y0279740D02*
X0033883Y0287614D01*
X0033883Y0087614D02*
X0033883Y0079740D01*
X0046876Y0073835D02*
X0046876Y0046276D01*
X0082309Y0046276D01*
X0082309Y0073835D01*
X0082309Y0071472D01*
X0079946Y0073835D01*
X0082309Y0073835D01*
X0046876Y0073835D01*
X0080023Y0073758D02*
X0082309Y0073758D01*
X0082309Y0073260D02*
X0080522Y0073260D01*
X0081020Y0072761D02*
X0082309Y0072761D01*
X0082309Y0072262D02*
X0081519Y0072262D01*
X0082017Y0071764D02*
X0082309Y0071764D01*
X0095301Y0079740D02*
X0095301Y0087614D01*
X0133883Y0087614D02*
X0133883Y0079740D01*
X0146876Y0073835D02*
X0146876Y0046276D01*
X0182309Y0046276D01*
X0182309Y0073835D01*
X0182309Y0071472D01*
X0179946Y0073835D01*
X0182309Y0073835D01*
X0146876Y0073835D01*
X0180023Y0073758D02*
X0182309Y0073758D01*
X0182309Y0073260D02*
X0180522Y0073260D01*
X0181020Y0072761D02*
X0182309Y0072761D01*
X0182309Y0072262D02*
X0181519Y0072262D01*
X0182017Y0071764D02*
X0182309Y0071764D01*
X0195301Y0079740D02*
X0195301Y0087614D01*
X0233883Y0087614D02*
X0233883Y0079740D01*
X0246876Y0073835D02*
X0246876Y0046276D01*
X0282309Y0046276D01*
X0282309Y0073835D01*
X0282309Y0071472D01*
X0279946Y0073835D01*
X0282309Y0073835D01*
X0246876Y0073835D01*
X0280023Y0073758D02*
X0282309Y0073758D01*
X0282309Y0073260D02*
X0280522Y0073260D01*
X0281020Y0072761D02*
X0282309Y0072761D01*
X0282309Y0072262D02*
X0281519Y0072262D01*
X0282017Y0071764D02*
X0282309Y0071764D01*
X0295301Y0079740D02*
X0295301Y0087614D01*
D15*
X0282309Y0073835D03*
X0282309Y0173835D03*
X0282309Y0273835D03*
X0182309Y0273835D03*
X0182309Y0173835D03*
X0182309Y0073835D03*
X0082309Y0073835D03*
X0082309Y0173835D03*
X0082309Y0273835D03*
D16*
X0280046Y0327772D02*
X0280048Y0327913D01*
X0280054Y0328055D01*
X0280064Y0328196D01*
X0280078Y0328336D01*
X0280096Y0328477D01*
X0280118Y0328616D01*
X0280143Y0328755D01*
X0280173Y0328894D01*
X0280207Y0329031D01*
X0280244Y0329168D01*
X0280285Y0329303D01*
X0280330Y0329437D01*
X0280379Y0329570D01*
X0280431Y0329701D01*
X0280488Y0329831D01*
X0280547Y0329959D01*
X0280611Y0330085D01*
X0280678Y0330210D01*
X0280748Y0330332D01*
X0280822Y0330453D01*
X0280899Y0330571D01*
X0280980Y0330688D01*
X0281064Y0330802D01*
X0281150Y0330913D01*
X0281240Y0331022D01*
X0281334Y0331129D01*
X0281430Y0331232D01*
X0281529Y0331333D01*
X0281630Y0331432D01*
X0281735Y0331527D01*
X0281842Y0331619D01*
X0281952Y0331709D01*
X0282064Y0331795D01*
X0282178Y0331878D01*
X0282295Y0331957D01*
X0282414Y0332034D01*
X0282535Y0332107D01*
X0282658Y0332176D01*
X0282783Y0332242D01*
X0282910Y0332305D01*
X0283039Y0332364D01*
X0283169Y0332419D01*
X0283301Y0332471D01*
X0283434Y0332518D01*
X0283568Y0332563D01*
X0283703Y0332603D01*
X0283840Y0332639D01*
X0283978Y0332672D01*
X0284116Y0332701D01*
X0284255Y0332725D01*
X0284395Y0332746D01*
X0284536Y0332763D01*
X0284677Y0332776D01*
X0284818Y0332785D01*
X0284959Y0332790D01*
X0285100Y0332791D01*
X0285242Y0332788D01*
X0285383Y0332781D01*
X0285524Y0332770D01*
X0285665Y0332755D01*
X0285805Y0332736D01*
X0285944Y0332713D01*
X0286083Y0332687D01*
X0286221Y0332656D01*
X0286358Y0332622D01*
X0286494Y0332583D01*
X0286629Y0332541D01*
X0286763Y0332495D01*
X0286896Y0332445D01*
X0287026Y0332392D01*
X0287156Y0332335D01*
X0287284Y0332274D01*
X0287409Y0332210D01*
X0287534Y0332142D01*
X0287656Y0332071D01*
X0287776Y0331996D01*
X0287894Y0331918D01*
X0288009Y0331837D01*
X0288123Y0331752D01*
X0288234Y0331664D01*
X0288342Y0331574D01*
X0288448Y0331480D01*
X0288551Y0331383D01*
X0288651Y0331283D01*
X0288749Y0331181D01*
X0288843Y0331076D01*
X0288935Y0330968D01*
X0289023Y0330858D01*
X0289109Y0330745D01*
X0289191Y0330630D01*
X0289270Y0330512D01*
X0289345Y0330393D01*
X0289417Y0330271D01*
X0289486Y0330148D01*
X0289551Y0330022D01*
X0289613Y0329895D01*
X0289671Y0329766D01*
X0289725Y0329635D01*
X0289776Y0329503D01*
X0289823Y0329370D01*
X0289866Y0329235D01*
X0289905Y0329099D01*
X0289941Y0328963D01*
X0289972Y0328825D01*
X0290000Y0328686D01*
X0290024Y0328547D01*
X0290044Y0328407D01*
X0290060Y0328266D01*
X0290072Y0328125D01*
X0290080Y0327984D01*
X0290084Y0327843D01*
X0290084Y0327701D01*
X0290080Y0327560D01*
X0290072Y0327419D01*
X0290060Y0327278D01*
X0290044Y0327137D01*
X0290024Y0326997D01*
X0290000Y0326858D01*
X0289972Y0326719D01*
X0289941Y0326581D01*
X0289905Y0326445D01*
X0289866Y0326309D01*
X0289823Y0326174D01*
X0289776Y0326041D01*
X0289725Y0325909D01*
X0289671Y0325778D01*
X0289613Y0325649D01*
X0289551Y0325522D01*
X0289486Y0325396D01*
X0289417Y0325273D01*
X0289345Y0325151D01*
X0289270Y0325032D01*
X0289191Y0324914D01*
X0289109Y0324799D01*
X0289023Y0324686D01*
X0288935Y0324576D01*
X0288843Y0324468D01*
X0288749Y0324363D01*
X0288651Y0324261D01*
X0288551Y0324161D01*
X0288448Y0324064D01*
X0288342Y0323970D01*
X0288234Y0323880D01*
X0288123Y0323792D01*
X0288009Y0323707D01*
X0287894Y0323626D01*
X0287776Y0323548D01*
X0287656Y0323473D01*
X0287534Y0323402D01*
X0287409Y0323334D01*
X0287284Y0323270D01*
X0287156Y0323209D01*
X0287026Y0323152D01*
X0286896Y0323099D01*
X0286763Y0323049D01*
X0286629Y0323003D01*
X0286494Y0322961D01*
X0286358Y0322922D01*
X0286221Y0322888D01*
X0286083Y0322857D01*
X0285944Y0322831D01*
X0285805Y0322808D01*
X0285665Y0322789D01*
X0285524Y0322774D01*
X0285383Y0322763D01*
X0285242Y0322756D01*
X0285100Y0322753D01*
X0284959Y0322754D01*
X0284818Y0322759D01*
X0284677Y0322768D01*
X0284536Y0322781D01*
X0284395Y0322798D01*
X0284255Y0322819D01*
X0284116Y0322843D01*
X0283978Y0322872D01*
X0283840Y0322905D01*
X0283703Y0322941D01*
X0283568Y0322981D01*
X0283434Y0323026D01*
X0283301Y0323073D01*
X0283169Y0323125D01*
X0283039Y0323180D01*
X0282910Y0323239D01*
X0282783Y0323302D01*
X0282658Y0323368D01*
X0282535Y0323437D01*
X0282414Y0323510D01*
X0282295Y0323587D01*
X0282178Y0323666D01*
X0282064Y0323749D01*
X0281952Y0323835D01*
X0281842Y0323925D01*
X0281735Y0324017D01*
X0281630Y0324112D01*
X0281529Y0324211D01*
X0281430Y0324312D01*
X0281334Y0324415D01*
X0281240Y0324522D01*
X0281150Y0324631D01*
X0281064Y0324742D01*
X0280980Y0324856D01*
X0280899Y0324973D01*
X0280822Y0325091D01*
X0280748Y0325212D01*
X0280678Y0325334D01*
X0280611Y0325459D01*
X0280547Y0325585D01*
X0280488Y0325713D01*
X0280431Y0325843D01*
X0280379Y0325974D01*
X0280330Y0326107D01*
X0280285Y0326241D01*
X0280244Y0326376D01*
X0280207Y0326513D01*
X0280173Y0326650D01*
X0280143Y0326789D01*
X0280118Y0326928D01*
X0280096Y0327067D01*
X0280078Y0327208D01*
X0280064Y0327348D01*
X0280054Y0327489D01*
X0280048Y0327631D01*
X0280046Y0327772D01*
X0291857Y0126984D02*
X0291859Y0127125D01*
X0291865Y0127267D01*
X0291875Y0127408D01*
X0291889Y0127548D01*
X0291907Y0127689D01*
X0291929Y0127828D01*
X0291954Y0127967D01*
X0291984Y0128106D01*
X0292018Y0128243D01*
X0292055Y0128380D01*
X0292096Y0128515D01*
X0292141Y0128649D01*
X0292190Y0128782D01*
X0292242Y0128913D01*
X0292299Y0129043D01*
X0292358Y0129171D01*
X0292422Y0129297D01*
X0292489Y0129422D01*
X0292559Y0129544D01*
X0292633Y0129665D01*
X0292710Y0129783D01*
X0292791Y0129900D01*
X0292875Y0130014D01*
X0292961Y0130125D01*
X0293051Y0130234D01*
X0293145Y0130341D01*
X0293241Y0130444D01*
X0293340Y0130545D01*
X0293441Y0130644D01*
X0293546Y0130739D01*
X0293653Y0130831D01*
X0293763Y0130921D01*
X0293875Y0131007D01*
X0293989Y0131090D01*
X0294106Y0131169D01*
X0294225Y0131246D01*
X0294346Y0131319D01*
X0294469Y0131388D01*
X0294594Y0131454D01*
X0294721Y0131517D01*
X0294850Y0131576D01*
X0294980Y0131631D01*
X0295112Y0131683D01*
X0295245Y0131730D01*
X0295379Y0131775D01*
X0295514Y0131815D01*
X0295651Y0131851D01*
X0295789Y0131884D01*
X0295927Y0131913D01*
X0296066Y0131937D01*
X0296206Y0131958D01*
X0296347Y0131975D01*
X0296488Y0131988D01*
X0296629Y0131997D01*
X0296770Y0132002D01*
X0296911Y0132003D01*
X0297053Y0132000D01*
X0297194Y0131993D01*
X0297335Y0131982D01*
X0297476Y0131967D01*
X0297616Y0131948D01*
X0297755Y0131925D01*
X0297894Y0131899D01*
X0298032Y0131868D01*
X0298169Y0131834D01*
X0298305Y0131795D01*
X0298440Y0131753D01*
X0298574Y0131707D01*
X0298707Y0131657D01*
X0298837Y0131604D01*
X0298967Y0131547D01*
X0299095Y0131486D01*
X0299220Y0131422D01*
X0299345Y0131354D01*
X0299467Y0131283D01*
X0299587Y0131208D01*
X0299705Y0131130D01*
X0299820Y0131049D01*
X0299934Y0130964D01*
X0300045Y0130876D01*
X0300153Y0130786D01*
X0300259Y0130692D01*
X0300362Y0130595D01*
X0300462Y0130495D01*
X0300560Y0130393D01*
X0300654Y0130288D01*
X0300746Y0130180D01*
X0300834Y0130070D01*
X0300920Y0129957D01*
X0301002Y0129842D01*
X0301081Y0129724D01*
X0301156Y0129605D01*
X0301228Y0129483D01*
X0301297Y0129360D01*
X0301362Y0129234D01*
X0301424Y0129107D01*
X0301482Y0128978D01*
X0301536Y0128847D01*
X0301587Y0128715D01*
X0301634Y0128582D01*
X0301677Y0128447D01*
X0301716Y0128311D01*
X0301752Y0128175D01*
X0301783Y0128037D01*
X0301811Y0127898D01*
X0301835Y0127759D01*
X0301855Y0127619D01*
X0301871Y0127478D01*
X0301883Y0127337D01*
X0301891Y0127196D01*
X0301895Y0127055D01*
X0301895Y0126913D01*
X0301891Y0126772D01*
X0301883Y0126631D01*
X0301871Y0126490D01*
X0301855Y0126349D01*
X0301835Y0126209D01*
X0301811Y0126070D01*
X0301783Y0125931D01*
X0301752Y0125793D01*
X0301716Y0125657D01*
X0301677Y0125521D01*
X0301634Y0125386D01*
X0301587Y0125253D01*
X0301536Y0125121D01*
X0301482Y0124990D01*
X0301424Y0124861D01*
X0301362Y0124734D01*
X0301297Y0124608D01*
X0301228Y0124485D01*
X0301156Y0124363D01*
X0301081Y0124244D01*
X0301002Y0124126D01*
X0300920Y0124011D01*
X0300834Y0123898D01*
X0300746Y0123788D01*
X0300654Y0123680D01*
X0300560Y0123575D01*
X0300462Y0123473D01*
X0300362Y0123373D01*
X0300259Y0123276D01*
X0300153Y0123182D01*
X0300045Y0123092D01*
X0299934Y0123004D01*
X0299820Y0122919D01*
X0299705Y0122838D01*
X0299587Y0122760D01*
X0299467Y0122685D01*
X0299345Y0122614D01*
X0299220Y0122546D01*
X0299095Y0122482D01*
X0298967Y0122421D01*
X0298837Y0122364D01*
X0298707Y0122311D01*
X0298574Y0122261D01*
X0298440Y0122215D01*
X0298305Y0122173D01*
X0298169Y0122134D01*
X0298032Y0122100D01*
X0297894Y0122069D01*
X0297755Y0122043D01*
X0297616Y0122020D01*
X0297476Y0122001D01*
X0297335Y0121986D01*
X0297194Y0121975D01*
X0297053Y0121968D01*
X0296911Y0121965D01*
X0296770Y0121966D01*
X0296629Y0121971D01*
X0296488Y0121980D01*
X0296347Y0121993D01*
X0296206Y0122010D01*
X0296066Y0122031D01*
X0295927Y0122055D01*
X0295789Y0122084D01*
X0295651Y0122117D01*
X0295514Y0122153D01*
X0295379Y0122193D01*
X0295245Y0122238D01*
X0295112Y0122285D01*
X0294980Y0122337D01*
X0294850Y0122392D01*
X0294721Y0122451D01*
X0294594Y0122514D01*
X0294469Y0122580D01*
X0294346Y0122649D01*
X0294225Y0122722D01*
X0294106Y0122799D01*
X0293989Y0122878D01*
X0293875Y0122961D01*
X0293763Y0123047D01*
X0293653Y0123137D01*
X0293546Y0123229D01*
X0293441Y0123324D01*
X0293340Y0123423D01*
X0293241Y0123524D01*
X0293145Y0123627D01*
X0293051Y0123734D01*
X0292961Y0123843D01*
X0292875Y0123954D01*
X0292791Y0124068D01*
X0292710Y0124185D01*
X0292633Y0124303D01*
X0292559Y0124424D01*
X0292489Y0124546D01*
X0292422Y0124671D01*
X0292358Y0124797D01*
X0292299Y0124925D01*
X0292242Y0125055D01*
X0292190Y0125186D01*
X0292141Y0125319D01*
X0292096Y0125453D01*
X0292055Y0125588D01*
X0292018Y0125725D01*
X0291984Y0125862D01*
X0291954Y0126001D01*
X0291929Y0126140D01*
X0291907Y0126279D01*
X0291889Y0126420D01*
X0291875Y0126560D01*
X0291865Y0126701D01*
X0291859Y0126843D01*
X0291857Y0126984D01*
X0016266Y0048244D02*
X0016268Y0048385D01*
X0016274Y0048527D01*
X0016284Y0048668D01*
X0016298Y0048808D01*
X0016316Y0048949D01*
X0016338Y0049088D01*
X0016363Y0049227D01*
X0016393Y0049366D01*
X0016427Y0049503D01*
X0016464Y0049640D01*
X0016505Y0049775D01*
X0016550Y0049909D01*
X0016599Y0050042D01*
X0016651Y0050173D01*
X0016708Y0050303D01*
X0016767Y0050431D01*
X0016831Y0050557D01*
X0016898Y0050682D01*
X0016968Y0050804D01*
X0017042Y0050925D01*
X0017119Y0051043D01*
X0017200Y0051160D01*
X0017284Y0051274D01*
X0017370Y0051385D01*
X0017460Y0051494D01*
X0017554Y0051601D01*
X0017650Y0051704D01*
X0017749Y0051805D01*
X0017850Y0051904D01*
X0017955Y0051999D01*
X0018062Y0052091D01*
X0018172Y0052181D01*
X0018284Y0052267D01*
X0018398Y0052350D01*
X0018515Y0052429D01*
X0018634Y0052506D01*
X0018755Y0052579D01*
X0018878Y0052648D01*
X0019003Y0052714D01*
X0019130Y0052777D01*
X0019259Y0052836D01*
X0019389Y0052891D01*
X0019521Y0052943D01*
X0019654Y0052990D01*
X0019788Y0053035D01*
X0019923Y0053075D01*
X0020060Y0053111D01*
X0020198Y0053144D01*
X0020336Y0053173D01*
X0020475Y0053197D01*
X0020615Y0053218D01*
X0020756Y0053235D01*
X0020897Y0053248D01*
X0021038Y0053257D01*
X0021179Y0053262D01*
X0021320Y0053263D01*
X0021462Y0053260D01*
X0021603Y0053253D01*
X0021744Y0053242D01*
X0021885Y0053227D01*
X0022025Y0053208D01*
X0022164Y0053185D01*
X0022303Y0053159D01*
X0022441Y0053128D01*
X0022578Y0053094D01*
X0022714Y0053055D01*
X0022849Y0053013D01*
X0022983Y0052967D01*
X0023116Y0052917D01*
X0023246Y0052864D01*
X0023376Y0052807D01*
X0023504Y0052746D01*
X0023629Y0052682D01*
X0023754Y0052614D01*
X0023876Y0052543D01*
X0023996Y0052468D01*
X0024114Y0052390D01*
X0024229Y0052309D01*
X0024343Y0052224D01*
X0024454Y0052136D01*
X0024562Y0052046D01*
X0024668Y0051952D01*
X0024771Y0051855D01*
X0024871Y0051755D01*
X0024969Y0051653D01*
X0025063Y0051548D01*
X0025155Y0051440D01*
X0025243Y0051330D01*
X0025329Y0051217D01*
X0025411Y0051102D01*
X0025490Y0050984D01*
X0025565Y0050865D01*
X0025637Y0050743D01*
X0025706Y0050620D01*
X0025771Y0050494D01*
X0025833Y0050367D01*
X0025891Y0050238D01*
X0025945Y0050107D01*
X0025996Y0049975D01*
X0026043Y0049842D01*
X0026086Y0049707D01*
X0026125Y0049571D01*
X0026161Y0049435D01*
X0026192Y0049297D01*
X0026220Y0049158D01*
X0026244Y0049019D01*
X0026264Y0048879D01*
X0026280Y0048738D01*
X0026292Y0048597D01*
X0026300Y0048456D01*
X0026304Y0048315D01*
X0026304Y0048173D01*
X0026300Y0048032D01*
X0026292Y0047891D01*
X0026280Y0047750D01*
X0026264Y0047609D01*
X0026244Y0047469D01*
X0026220Y0047330D01*
X0026192Y0047191D01*
X0026161Y0047053D01*
X0026125Y0046917D01*
X0026086Y0046781D01*
X0026043Y0046646D01*
X0025996Y0046513D01*
X0025945Y0046381D01*
X0025891Y0046250D01*
X0025833Y0046121D01*
X0025771Y0045994D01*
X0025706Y0045868D01*
X0025637Y0045745D01*
X0025565Y0045623D01*
X0025490Y0045504D01*
X0025411Y0045386D01*
X0025329Y0045271D01*
X0025243Y0045158D01*
X0025155Y0045048D01*
X0025063Y0044940D01*
X0024969Y0044835D01*
X0024871Y0044733D01*
X0024771Y0044633D01*
X0024668Y0044536D01*
X0024562Y0044442D01*
X0024454Y0044352D01*
X0024343Y0044264D01*
X0024229Y0044179D01*
X0024114Y0044098D01*
X0023996Y0044020D01*
X0023876Y0043945D01*
X0023754Y0043874D01*
X0023629Y0043806D01*
X0023504Y0043742D01*
X0023376Y0043681D01*
X0023246Y0043624D01*
X0023116Y0043571D01*
X0022983Y0043521D01*
X0022849Y0043475D01*
X0022714Y0043433D01*
X0022578Y0043394D01*
X0022441Y0043360D01*
X0022303Y0043329D01*
X0022164Y0043303D01*
X0022025Y0043280D01*
X0021885Y0043261D01*
X0021744Y0043246D01*
X0021603Y0043235D01*
X0021462Y0043228D01*
X0021320Y0043225D01*
X0021179Y0043226D01*
X0021038Y0043231D01*
X0020897Y0043240D01*
X0020756Y0043253D01*
X0020615Y0043270D01*
X0020475Y0043291D01*
X0020336Y0043315D01*
X0020198Y0043344D01*
X0020060Y0043377D01*
X0019923Y0043413D01*
X0019788Y0043453D01*
X0019654Y0043498D01*
X0019521Y0043545D01*
X0019389Y0043597D01*
X0019259Y0043652D01*
X0019130Y0043711D01*
X0019003Y0043774D01*
X0018878Y0043840D01*
X0018755Y0043909D01*
X0018634Y0043982D01*
X0018515Y0044059D01*
X0018398Y0044138D01*
X0018284Y0044221D01*
X0018172Y0044307D01*
X0018062Y0044397D01*
X0017955Y0044489D01*
X0017850Y0044584D01*
X0017749Y0044683D01*
X0017650Y0044784D01*
X0017554Y0044887D01*
X0017460Y0044994D01*
X0017370Y0045103D01*
X0017284Y0045214D01*
X0017200Y0045328D01*
X0017119Y0045445D01*
X0017042Y0045563D01*
X0016968Y0045684D01*
X0016898Y0045806D01*
X0016831Y0045931D01*
X0016767Y0046057D01*
X0016708Y0046185D01*
X0016651Y0046315D01*
X0016599Y0046446D01*
X0016550Y0046579D01*
X0016505Y0046713D01*
X0016464Y0046848D01*
X0016427Y0046985D01*
X0016393Y0047122D01*
X0016363Y0047261D01*
X0016338Y0047400D01*
X0016316Y0047539D01*
X0016298Y0047680D01*
X0016284Y0047820D01*
X0016274Y0047961D01*
X0016268Y0048103D01*
X0016266Y0048244D01*
M02*
