G75*
%MOIN*%
%OFA0B0*%
%FSLAX25Y25*%
%IPPOS*%
%LPD*%
%AMOC8*
5,1,8,0,0,1.08239X$1,22.5*
%
%ADD10R,0.02700X0.03000*%
%ADD11R,0.01378X0.02953*%
%ADD12R,0.02953X0.01378*%
%ADD13R,0.06299X0.06299*%
%ADD14R,0.01417X0.06000*%
%ADD15R,0.03000X0.02700*%
%ADD16R,0.03500X0.04200*%
%ADD17R,0.04724X0.03150*%
D10*
X0053358Y0050055D03*
X0057558Y0050055D03*
X0062098Y0050016D03*
X0066298Y0050016D03*
X0071547Y0051197D03*
X0075747Y0051197D03*
X0091787Y0086093D03*
X0095987Y0086093D03*
G36*
X0078512Y0111301D02*
X0081048Y0110377D01*
X0080022Y0107559D01*
X0077486Y0108483D01*
X0078512Y0111301D01*
G37*
G36*
X0074566Y0112737D02*
X0077102Y0111813D01*
X0076076Y0108995D01*
X0073540Y0109919D01*
X0074566Y0112737D01*
G37*
X0066298Y0150016D03*
X0071547Y0151197D03*
X0075747Y0151197D03*
X0062098Y0150016D03*
X0057558Y0150055D03*
X0053358Y0150055D03*
G36*
X0035269Y0166182D02*
X0036410Y0163736D01*
X0033693Y0162468D01*
X0032552Y0164914D01*
X0035269Y0166182D01*
G37*
G36*
X0033494Y0169988D02*
X0034635Y0167542D01*
X0031918Y0166274D01*
X0030777Y0168720D01*
X0033494Y0169988D01*
G37*
G36*
X0074566Y0212737D02*
X0077102Y0211813D01*
X0076076Y0208995D01*
X0073540Y0209919D01*
X0074566Y0212737D01*
G37*
G36*
X0078512Y0211301D02*
X0081048Y0210377D01*
X0080022Y0207559D01*
X0077486Y0208483D01*
X0078512Y0211301D01*
G37*
X0091787Y0186093D03*
X0095987Y0186093D03*
G36*
X0133494Y0169988D02*
X0134635Y0167542D01*
X0131918Y0166274D01*
X0130777Y0168720D01*
X0133494Y0169988D01*
G37*
G36*
X0135269Y0166182D02*
X0136410Y0163736D01*
X0133693Y0162468D01*
X0132552Y0164914D01*
X0135269Y0166182D01*
G37*
X0153358Y0150055D03*
X0157558Y0150055D03*
X0162098Y0150016D03*
X0166298Y0150016D03*
X0171547Y0151197D03*
X0175747Y0151197D03*
X0191787Y0186093D03*
X0195987Y0186093D03*
G36*
X0178512Y0211301D02*
X0181048Y0210377D01*
X0180022Y0207559D01*
X0177486Y0208483D01*
X0178512Y0211301D01*
G37*
G36*
X0174566Y0212737D02*
X0177102Y0211813D01*
X0176076Y0208995D01*
X0173540Y0209919D01*
X0174566Y0212737D01*
G37*
X0166298Y0250016D03*
X0162098Y0250016D03*
X0157558Y0250055D03*
X0153358Y0250055D03*
X0171547Y0251197D03*
X0175747Y0251197D03*
X0191787Y0286093D03*
X0195987Y0286093D03*
G36*
X0178512Y0311301D02*
X0181048Y0310377D01*
X0180022Y0307559D01*
X0177486Y0308483D01*
X0178512Y0311301D01*
G37*
G36*
X0174566Y0312737D02*
X0177102Y0311813D01*
X0176076Y0308995D01*
X0173540Y0309919D01*
X0174566Y0312737D01*
G37*
G36*
X0133494Y0269988D02*
X0134635Y0267542D01*
X0131918Y0266274D01*
X0130777Y0268720D01*
X0133494Y0269988D01*
G37*
G36*
X0135269Y0266182D02*
X0136410Y0263736D01*
X0133693Y0262468D01*
X0132552Y0264914D01*
X0135269Y0266182D01*
G37*
X0095987Y0286093D03*
X0091787Y0286093D03*
G36*
X0078512Y0311301D02*
X0081048Y0310377D01*
X0080022Y0307559D01*
X0077486Y0308483D01*
X0078512Y0311301D01*
G37*
G36*
X0074566Y0312737D02*
X0077102Y0311813D01*
X0076076Y0308995D01*
X0073540Y0309919D01*
X0074566Y0312737D01*
G37*
G36*
X0033494Y0269988D02*
X0034635Y0267542D01*
X0031918Y0266274D01*
X0030777Y0268720D01*
X0033494Y0269988D01*
G37*
G36*
X0035269Y0266182D02*
X0036410Y0263736D01*
X0033693Y0262468D01*
X0032552Y0264914D01*
X0035269Y0266182D01*
G37*
X0053358Y0250055D03*
X0057558Y0250055D03*
X0062098Y0250016D03*
X0066298Y0250016D03*
X0071547Y0251197D03*
X0075747Y0251197D03*
G36*
X0174566Y0112737D02*
X0177102Y0111813D01*
X0176076Y0108995D01*
X0173540Y0109919D01*
X0174566Y0112737D01*
G37*
G36*
X0178512Y0111301D02*
X0181048Y0110377D01*
X0180022Y0107559D01*
X0177486Y0108483D01*
X0178512Y0111301D01*
G37*
X0191787Y0086093D03*
X0195987Y0086093D03*
X0175747Y0051197D03*
X0171547Y0051197D03*
X0166298Y0050016D03*
X0162098Y0050016D03*
X0157558Y0050055D03*
X0153358Y0050055D03*
G36*
X0135269Y0066182D02*
X0136410Y0063736D01*
X0133693Y0062468D01*
X0132552Y0064914D01*
X0135269Y0066182D01*
G37*
G36*
X0133494Y0069988D02*
X0134635Y0067542D01*
X0131918Y0066274D01*
X0130777Y0068720D01*
X0133494Y0069988D01*
G37*
G36*
X0035269Y0066182D02*
X0036410Y0063736D01*
X0033693Y0062468D01*
X0032552Y0064914D01*
X0035269Y0066182D01*
G37*
G36*
X0033494Y0069988D02*
X0034635Y0067542D01*
X0031918Y0066274D01*
X0030777Y0068720D01*
X0033494Y0069988D01*
G37*
G36*
X0233494Y0069988D02*
X0234635Y0067542D01*
X0231918Y0066274D01*
X0230777Y0068720D01*
X0233494Y0069988D01*
G37*
G36*
X0235269Y0066182D02*
X0236410Y0063736D01*
X0233693Y0062468D01*
X0232552Y0064914D01*
X0235269Y0066182D01*
G37*
X0253358Y0050055D03*
X0257558Y0050055D03*
X0262098Y0050016D03*
X0266298Y0050016D03*
X0271547Y0051197D03*
X0275747Y0051197D03*
X0291787Y0086093D03*
X0295987Y0086093D03*
G36*
X0278512Y0111301D02*
X0281048Y0110377D01*
X0280022Y0107559D01*
X0277486Y0108483D01*
X0278512Y0111301D01*
G37*
G36*
X0274566Y0112737D02*
X0277102Y0111813D01*
X0276076Y0108995D01*
X0273540Y0109919D01*
X0274566Y0112737D01*
G37*
X0266298Y0150016D03*
X0262098Y0150016D03*
X0257558Y0150055D03*
X0253358Y0150055D03*
G36*
X0235269Y0166182D02*
X0236410Y0163736D01*
X0233693Y0162468D01*
X0232552Y0164914D01*
X0235269Y0166182D01*
G37*
G36*
X0233494Y0169988D02*
X0234635Y0167542D01*
X0231918Y0166274D01*
X0230777Y0168720D01*
X0233494Y0169988D01*
G37*
X0271547Y0151197D03*
X0275747Y0151197D03*
X0291787Y0186093D03*
X0295987Y0186093D03*
G36*
X0278512Y0211301D02*
X0281048Y0210377D01*
X0280022Y0207559D01*
X0277486Y0208483D01*
X0278512Y0211301D01*
G37*
G36*
X0274566Y0212737D02*
X0277102Y0211813D01*
X0276076Y0208995D01*
X0273540Y0209919D01*
X0274566Y0212737D01*
G37*
X0266298Y0250016D03*
X0262098Y0250016D03*
X0257558Y0250055D03*
X0253358Y0250055D03*
G36*
X0235269Y0266182D02*
X0236410Y0263736D01*
X0233693Y0262468D01*
X0232552Y0264914D01*
X0235269Y0266182D01*
G37*
G36*
X0233494Y0269988D02*
X0234635Y0267542D01*
X0231918Y0266274D01*
X0230777Y0268720D01*
X0233494Y0269988D01*
G37*
X0271547Y0251197D03*
X0275747Y0251197D03*
X0291787Y0286093D03*
X0295987Y0286093D03*
G36*
X0278512Y0311301D02*
X0281048Y0310377D01*
X0280022Y0307559D01*
X0277486Y0308483D01*
X0278512Y0311301D01*
G37*
G36*
X0274566Y0312737D02*
X0277102Y0311813D01*
X0276076Y0308995D01*
X0273540Y0309919D01*
X0274566Y0312737D01*
G37*
D11*
X0281160Y0280817D03*
X0283719Y0280817D03*
X0286278Y0280817D03*
X0288837Y0280817D03*
X0288837Y0266053D03*
X0286278Y0266053D03*
X0283719Y0266053D03*
X0281160Y0266053D03*
X0281160Y0180817D03*
X0283719Y0180817D03*
X0286278Y0180817D03*
X0288837Y0180817D03*
X0288837Y0166053D03*
X0286278Y0166053D03*
X0283719Y0166053D03*
X0281160Y0166053D03*
X0281160Y0080817D03*
X0283719Y0080817D03*
X0286278Y0080817D03*
X0288837Y0080817D03*
X0288837Y0066053D03*
X0286278Y0066053D03*
X0283719Y0066053D03*
X0281160Y0066053D03*
X0188837Y0066053D03*
X0186278Y0066053D03*
X0183719Y0066053D03*
X0181160Y0066053D03*
X0181160Y0080817D03*
X0183719Y0080817D03*
X0186278Y0080817D03*
X0188837Y0080817D03*
X0188837Y0166053D03*
X0186278Y0166053D03*
X0183719Y0166053D03*
X0181160Y0166053D03*
X0181160Y0180817D03*
X0183719Y0180817D03*
X0186278Y0180817D03*
X0188837Y0180817D03*
X0188837Y0266053D03*
X0186278Y0266053D03*
X0183719Y0266053D03*
X0181160Y0266053D03*
X0181160Y0280817D03*
X0183719Y0280817D03*
X0186278Y0280817D03*
X0188837Y0280817D03*
X0088837Y0280817D03*
X0086278Y0280817D03*
X0083719Y0280817D03*
X0081160Y0280817D03*
X0081160Y0266053D03*
X0083719Y0266053D03*
X0086278Y0266053D03*
X0088837Y0266053D03*
X0088837Y0180817D03*
X0086278Y0180817D03*
X0083719Y0180817D03*
X0081160Y0180817D03*
X0081160Y0166053D03*
X0083719Y0166053D03*
X0086278Y0166053D03*
X0088837Y0166053D03*
X0088837Y0080817D03*
X0086278Y0080817D03*
X0083719Y0080817D03*
X0081160Y0080817D03*
X0081160Y0066053D03*
X0083719Y0066053D03*
X0086278Y0066053D03*
X0088837Y0066053D03*
D12*
X0092380Y0069596D03*
X0092380Y0072155D03*
X0092380Y0074714D03*
X0092380Y0077273D03*
X0077617Y0077273D03*
X0077617Y0074714D03*
X0077617Y0072155D03*
X0077617Y0069596D03*
X0077617Y0169596D03*
X0077617Y0172155D03*
X0077617Y0174714D03*
X0077617Y0177273D03*
X0092380Y0177273D03*
X0092380Y0174714D03*
X0092380Y0172155D03*
X0092380Y0169596D03*
X0177617Y0169596D03*
X0177617Y0172155D03*
X0177617Y0174714D03*
X0177617Y0177273D03*
X0192380Y0177273D03*
X0192380Y0174714D03*
X0192380Y0172155D03*
X0192380Y0169596D03*
X0277617Y0169596D03*
X0277617Y0172155D03*
X0277617Y0174714D03*
X0277617Y0177273D03*
X0292380Y0177273D03*
X0292380Y0174714D03*
X0292380Y0172155D03*
X0292380Y0169596D03*
X0292380Y0077273D03*
X0292380Y0074714D03*
X0292380Y0072155D03*
X0292380Y0069596D03*
X0277617Y0069596D03*
X0277617Y0072155D03*
X0277617Y0074714D03*
X0277617Y0077273D03*
X0192380Y0077273D03*
X0192380Y0074714D03*
X0192380Y0072155D03*
X0192380Y0069596D03*
X0177617Y0069596D03*
X0177617Y0072155D03*
X0177617Y0074714D03*
X0177617Y0077273D03*
X0177617Y0269596D03*
X0177617Y0272155D03*
X0177617Y0274714D03*
X0177617Y0277273D03*
X0192380Y0277273D03*
X0192380Y0274714D03*
X0192380Y0272155D03*
X0192380Y0269596D03*
X0277617Y0269596D03*
X0277617Y0272155D03*
X0277617Y0274714D03*
X0277617Y0277273D03*
X0292380Y0277273D03*
X0292380Y0274714D03*
X0292380Y0272155D03*
X0292380Y0269596D03*
X0092380Y0269596D03*
X0092380Y0272155D03*
X0092380Y0274714D03*
X0092380Y0277273D03*
X0077617Y0277273D03*
X0077617Y0274714D03*
X0077617Y0272155D03*
X0077617Y0269596D03*
D13*
X0084998Y0273435D03*
X0084998Y0173435D03*
X0084998Y0073435D03*
X0184998Y0073435D03*
X0184998Y0173435D03*
X0184998Y0273435D03*
X0284998Y0273435D03*
X0284998Y0173435D03*
X0284998Y0073435D03*
D14*
X0270842Y0075240D03*
X0268342Y0075240D03*
X0265842Y0075240D03*
X0263342Y0075240D03*
X0260842Y0075240D03*
X0258342Y0075240D03*
X0258342Y0084240D03*
X0260842Y0084240D03*
X0263342Y0084240D03*
X0265842Y0084240D03*
X0268342Y0084240D03*
X0270842Y0084240D03*
X0270842Y0175240D03*
X0268342Y0175240D03*
X0265842Y0175240D03*
X0263342Y0175240D03*
X0260842Y0175240D03*
X0258342Y0175240D03*
X0258342Y0184240D03*
X0260842Y0184240D03*
X0263342Y0184240D03*
X0265842Y0184240D03*
X0268342Y0184240D03*
X0270842Y0184240D03*
X0270842Y0275240D03*
X0268342Y0275240D03*
X0265842Y0275240D03*
X0263342Y0275240D03*
X0260842Y0275240D03*
X0258342Y0275240D03*
X0258342Y0284240D03*
X0260842Y0284240D03*
X0263342Y0284240D03*
X0265842Y0284240D03*
X0268342Y0284240D03*
X0270842Y0284240D03*
X0170842Y0284240D03*
X0168342Y0284240D03*
X0165842Y0284240D03*
X0163342Y0284240D03*
X0160842Y0284240D03*
X0158342Y0284240D03*
X0158342Y0275240D03*
X0160842Y0275240D03*
X0163342Y0275240D03*
X0165842Y0275240D03*
X0168342Y0275240D03*
X0170842Y0275240D03*
X0170842Y0184240D03*
X0168342Y0184240D03*
X0165842Y0184240D03*
X0163342Y0184240D03*
X0160842Y0184240D03*
X0158342Y0184240D03*
X0158342Y0175240D03*
X0160842Y0175240D03*
X0163342Y0175240D03*
X0165842Y0175240D03*
X0168342Y0175240D03*
X0170842Y0175240D03*
X0170842Y0084240D03*
X0168342Y0084240D03*
X0165842Y0084240D03*
X0163342Y0084240D03*
X0160842Y0084240D03*
X0158342Y0084240D03*
X0158342Y0075240D03*
X0160842Y0075240D03*
X0163342Y0075240D03*
X0165842Y0075240D03*
X0168342Y0075240D03*
X0170842Y0075240D03*
X0070842Y0075240D03*
X0068342Y0075240D03*
X0065842Y0075240D03*
X0063342Y0075240D03*
X0060842Y0075240D03*
X0058342Y0075240D03*
X0058342Y0084240D03*
X0060842Y0084240D03*
X0063342Y0084240D03*
X0065842Y0084240D03*
X0068342Y0084240D03*
X0070842Y0084240D03*
X0070842Y0175240D03*
X0068342Y0175240D03*
X0065842Y0175240D03*
X0063342Y0175240D03*
X0060842Y0175240D03*
X0058342Y0175240D03*
X0058342Y0184240D03*
X0060842Y0184240D03*
X0063342Y0184240D03*
X0065842Y0184240D03*
X0068342Y0184240D03*
X0070842Y0184240D03*
X0070842Y0275240D03*
X0068342Y0275240D03*
X0065842Y0275240D03*
X0063342Y0275240D03*
X0060842Y0275240D03*
X0058342Y0275240D03*
X0058342Y0284240D03*
X0060842Y0284240D03*
X0063342Y0284240D03*
X0065842Y0284240D03*
X0068342Y0284240D03*
X0070842Y0284240D03*
D15*
X0052854Y0281809D03*
X0052854Y0277609D03*
X0079643Y0261439D03*
X0085176Y0261517D03*
X0085176Y0257317D03*
X0079643Y0257239D03*
X0090592Y0257278D03*
X0090592Y0261478D03*
X0152854Y0277609D03*
X0152854Y0281809D03*
X0179643Y0261439D03*
X0179643Y0257239D03*
X0185176Y0257317D03*
X0190592Y0257278D03*
X0190592Y0261478D03*
X0185176Y0261517D03*
X0252854Y0277609D03*
X0252854Y0281809D03*
X0279643Y0261439D03*
X0279643Y0257239D03*
X0285176Y0257317D03*
X0285176Y0261517D03*
X0290592Y0261478D03*
X0290592Y0257278D03*
X0252854Y0181809D03*
X0252854Y0177609D03*
X0279643Y0161439D03*
X0279643Y0157239D03*
X0285176Y0157317D03*
X0285176Y0161517D03*
X0290592Y0161478D03*
X0290592Y0157278D03*
X0252854Y0081809D03*
X0252854Y0077609D03*
X0279643Y0061439D03*
X0279643Y0057239D03*
X0285176Y0057317D03*
X0285176Y0061517D03*
X0290592Y0061478D03*
X0290592Y0057278D03*
X0190592Y0057278D03*
X0190592Y0061478D03*
X0185176Y0061517D03*
X0185176Y0057317D03*
X0179643Y0057239D03*
X0179643Y0061439D03*
X0152854Y0077609D03*
X0152854Y0081809D03*
X0090592Y0061478D03*
X0090592Y0057278D03*
X0085176Y0057317D03*
X0085176Y0061517D03*
X0079643Y0061439D03*
X0079643Y0057239D03*
X0052854Y0077609D03*
X0052854Y0081809D03*
X0079643Y0157239D03*
X0085176Y0157317D03*
X0085176Y0161517D03*
X0079643Y0161439D03*
X0090592Y0161478D03*
X0090592Y0157278D03*
X0052854Y0177609D03*
X0052854Y0181809D03*
X0152854Y0181809D03*
X0152854Y0177609D03*
X0179643Y0161439D03*
X0179643Y0157239D03*
X0185176Y0157317D03*
X0190592Y0157278D03*
X0190592Y0161478D03*
X0185176Y0161517D03*
D16*
X0151912Y0195276D03*
X0145112Y0195276D03*
X0051912Y0195276D03*
X0045112Y0195276D03*
X0045112Y0295276D03*
X0051912Y0295276D03*
X0145112Y0295276D03*
X0151912Y0295276D03*
X0245112Y0295276D03*
X0251912Y0295276D03*
X0251912Y0195276D03*
X0245112Y0195276D03*
X0245112Y0095276D03*
X0251912Y0095276D03*
X0151912Y0095276D03*
X0145112Y0095276D03*
X0051912Y0095276D03*
X0045112Y0095276D03*
D17*
G36*
X0043420Y0056339D02*
X0046759Y0053000D01*
X0044532Y0050773D01*
X0041193Y0054112D01*
X0043420Y0056339D01*
G37*
G36*
X0037852Y0061907D02*
X0041191Y0058568D01*
X0038964Y0056341D01*
X0035625Y0059680D01*
X0037852Y0061907D01*
G37*
G36*
X0084652Y0108707D02*
X0087991Y0105368D01*
X0085764Y0103141D01*
X0082425Y0106480D01*
X0084652Y0108707D01*
G37*
G36*
X0090220Y0103139D02*
X0093559Y0099800D01*
X0091332Y0097573D01*
X0087993Y0100912D01*
X0090220Y0103139D01*
G37*
G36*
X0137852Y0061907D02*
X0141191Y0058568D01*
X0138964Y0056341D01*
X0135625Y0059680D01*
X0137852Y0061907D01*
G37*
G36*
X0143420Y0056339D02*
X0146759Y0053000D01*
X0144532Y0050773D01*
X0141193Y0054112D01*
X0143420Y0056339D01*
G37*
G36*
X0190220Y0103139D02*
X0193559Y0099800D01*
X0191332Y0097573D01*
X0187993Y0100912D01*
X0190220Y0103139D01*
G37*
G36*
X0184652Y0108707D02*
X0187991Y0105368D01*
X0185764Y0103141D01*
X0182425Y0106480D01*
X0184652Y0108707D01*
G37*
G36*
X0143420Y0156339D02*
X0146759Y0153000D01*
X0144532Y0150773D01*
X0141193Y0154112D01*
X0143420Y0156339D01*
G37*
G36*
X0137852Y0161907D02*
X0141191Y0158568D01*
X0138964Y0156341D01*
X0135625Y0159680D01*
X0137852Y0161907D01*
G37*
G36*
X0090220Y0203139D02*
X0093559Y0199800D01*
X0091332Y0197573D01*
X0087993Y0200912D01*
X0090220Y0203139D01*
G37*
G36*
X0084652Y0208707D02*
X0087991Y0205368D01*
X0085764Y0203141D01*
X0082425Y0206480D01*
X0084652Y0208707D01*
G37*
G36*
X0043420Y0256339D02*
X0046759Y0253000D01*
X0044532Y0250773D01*
X0041193Y0254112D01*
X0043420Y0256339D01*
G37*
G36*
X0037852Y0261907D02*
X0041191Y0258568D01*
X0038964Y0256341D01*
X0035625Y0259680D01*
X0037852Y0261907D01*
G37*
G36*
X0084652Y0308707D02*
X0087991Y0305368D01*
X0085764Y0303141D01*
X0082425Y0306480D01*
X0084652Y0308707D01*
G37*
G36*
X0090220Y0303139D02*
X0093559Y0299800D01*
X0091332Y0297573D01*
X0087993Y0300912D01*
X0090220Y0303139D01*
G37*
G36*
X0137852Y0261907D02*
X0141191Y0258568D01*
X0138964Y0256341D01*
X0135625Y0259680D01*
X0137852Y0261907D01*
G37*
G36*
X0143420Y0256339D02*
X0146759Y0253000D01*
X0144532Y0250773D01*
X0141193Y0254112D01*
X0143420Y0256339D01*
G37*
G36*
X0190220Y0303139D02*
X0193559Y0299800D01*
X0191332Y0297573D01*
X0187993Y0300912D01*
X0190220Y0303139D01*
G37*
G36*
X0184652Y0308707D02*
X0187991Y0305368D01*
X0185764Y0303141D01*
X0182425Y0306480D01*
X0184652Y0308707D01*
G37*
G36*
X0237852Y0261907D02*
X0241191Y0258568D01*
X0238964Y0256341D01*
X0235625Y0259680D01*
X0237852Y0261907D01*
G37*
G36*
X0243420Y0256339D02*
X0246759Y0253000D01*
X0244532Y0250773D01*
X0241193Y0254112D01*
X0243420Y0256339D01*
G37*
G36*
X0284652Y0308707D02*
X0287991Y0305368D01*
X0285764Y0303141D01*
X0282425Y0306480D01*
X0284652Y0308707D01*
G37*
G36*
X0290220Y0303139D02*
X0293559Y0299800D01*
X0291332Y0297573D01*
X0287993Y0300912D01*
X0290220Y0303139D01*
G37*
G36*
X0284652Y0208707D02*
X0287991Y0205368D01*
X0285764Y0203141D01*
X0282425Y0206480D01*
X0284652Y0208707D01*
G37*
G36*
X0290220Y0203139D02*
X0293559Y0199800D01*
X0291332Y0197573D01*
X0287993Y0200912D01*
X0290220Y0203139D01*
G37*
G36*
X0243420Y0156339D02*
X0246759Y0153000D01*
X0244532Y0150773D01*
X0241193Y0154112D01*
X0243420Y0156339D01*
G37*
G36*
X0237852Y0161907D02*
X0241191Y0158568D01*
X0238964Y0156341D01*
X0235625Y0159680D01*
X0237852Y0161907D01*
G37*
G36*
X0190220Y0203139D02*
X0193559Y0199800D01*
X0191332Y0197573D01*
X0187993Y0200912D01*
X0190220Y0203139D01*
G37*
G36*
X0184652Y0208707D02*
X0187991Y0205368D01*
X0185764Y0203141D01*
X0182425Y0206480D01*
X0184652Y0208707D01*
G37*
G36*
X0284652Y0108707D02*
X0287991Y0105368D01*
X0285764Y0103141D01*
X0282425Y0106480D01*
X0284652Y0108707D01*
G37*
G36*
X0290220Y0103139D02*
X0293559Y0099800D01*
X0291332Y0097573D01*
X0287993Y0100912D01*
X0290220Y0103139D01*
G37*
G36*
X0243420Y0056339D02*
X0246759Y0053000D01*
X0244532Y0050773D01*
X0241193Y0054112D01*
X0243420Y0056339D01*
G37*
G36*
X0237852Y0061907D02*
X0241191Y0058568D01*
X0238964Y0056341D01*
X0235625Y0059680D01*
X0237852Y0061907D01*
G37*
G36*
X0043420Y0156339D02*
X0046759Y0153000D01*
X0044532Y0150773D01*
X0041193Y0154112D01*
X0043420Y0156339D01*
G37*
G36*
X0037852Y0161907D02*
X0041191Y0158568D01*
X0038964Y0156341D01*
X0035625Y0159680D01*
X0037852Y0161907D01*
G37*
M02*
