G75*
%MOIN*%
%OFA0B0*%
%FSLAX24Y24*%
%IPPOS*%
%LPD*%
%AMOC8*
5,1,8,0,0,1.08239X$1,22.5*
%
%ADD10R,0.0270X0.0300*%
%ADD11R,0.0138X0.0295*%
%ADD12R,0.0295X0.0138*%
%ADD13R,0.0630X0.0630*%
%ADD14R,0.0142X0.0600*%
%ADD15R,0.0300X0.0270*%
%ADD16R,0.0350X0.0420*%
%ADD17R,0.0472X0.0315*%
D10*
X005336Y005006D03*
X005756Y005006D03*
X006210Y005002D03*
X006630Y005002D03*
X007155Y005120D03*
X007575Y005120D03*
X009179Y008609D03*
X009599Y008609D03*
G36*
X007694Y011248D02*
X007947Y011155D01*
X007844Y010874D01*
X007591Y010967D01*
X007694Y011248D01*
G37*
G36*
X007300Y011392D02*
X007553Y011299D01*
X007450Y011018D01*
X007197Y011111D01*
X007300Y011392D01*
G37*
X006630Y015002D03*
X007155Y015120D03*
X007575Y015120D03*
X006210Y015002D03*
X005756Y015006D03*
X005336Y015006D03*
G36*
X003526Y016717D02*
X003640Y016474D01*
X003370Y016347D01*
X003256Y016590D01*
X003526Y016717D01*
G37*
G36*
X003349Y017098D02*
X003463Y016855D01*
X003193Y016728D01*
X003079Y016971D01*
X003349Y017098D01*
G37*
G36*
X007300Y021392D02*
X007553Y021299D01*
X007450Y021018D01*
X007197Y021111D01*
X007300Y021392D01*
G37*
G36*
X007694Y021248D02*
X007947Y021155D01*
X007844Y020874D01*
X007591Y020967D01*
X007694Y021248D01*
G37*
X009179Y018609D03*
X009599Y018609D03*
G36*
X013349Y017098D02*
X013463Y016855D01*
X013193Y016728D01*
X013079Y016971D01*
X013349Y017098D01*
G37*
G36*
X013526Y016717D02*
X013640Y016474D01*
X013370Y016347D01*
X013256Y016590D01*
X013526Y016717D01*
G37*
X015336Y015006D03*
X015756Y015006D03*
X016210Y015002D03*
X016630Y015002D03*
X017155Y015120D03*
X017575Y015120D03*
X019179Y018609D03*
X019599Y018609D03*
G36*
X017694Y021248D02*
X017947Y021155D01*
X017844Y020874D01*
X017591Y020967D01*
X017694Y021248D01*
G37*
G36*
X017300Y021392D02*
X017553Y021299D01*
X017450Y021018D01*
X017197Y021111D01*
X017300Y021392D01*
G37*
X016630Y025002D03*
X016210Y025002D03*
X015756Y025006D03*
X015336Y025006D03*
X017155Y025120D03*
X017575Y025120D03*
X019179Y028609D03*
X019599Y028609D03*
G36*
X017694Y031248D02*
X017947Y031155D01*
X017844Y030874D01*
X017591Y030967D01*
X017694Y031248D01*
G37*
G36*
X017300Y031392D02*
X017553Y031299D01*
X017450Y031018D01*
X017197Y031111D01*
X017300Y031392D01*
G37*
G36*
X013349Y027098D02*
X013463Y026855D01*
X013193Y026728D01*
X013079Y026971D01*
X013349Y027098D01*
G37*
G36*
X013526Y026717D02*
X013640Y026474D01*
X013370Y026347D01*
X013256Y026590D01*
X013526Y026717D01*
G37*
X009599Y028609D03*
X009179Y028609D03*
G36*
X007694Y031248D02*
X007947Y031155D01*
X007844Y030874D01*
X007591Y030967D01*
X007694Y031248D01*
G37*
G36*
X007300Y031392D02*
X007553Y031299D01*
X007450Y031018D01*
X007197Y031111D01*
X007300Y031392D01*
G37*
G36*
X003349Y027098D02*
X003463Y026855D01*
X003193Y026728D01*
X003079Y026971D01*
X003349Y027098D01*
G37*
G36*
X003526Y026717D02*
X003640Y026474D01*
X003370Y026347D01*
X003256Y026590D01*
X003526Y026717D01*
G37*
X005336Y025006D03*
X005756Y025006D03*
X006210Y025002D03*
X006630Y025002D03*
X007155Y025120D03*
X007575Y025120D03*
G36*
X017300Y011392D02*
X017553Y011299D01*
X017450Y011018D01*
X017197Y011111D01*
X017300Y011392D01*
G37*
G36*
X017694Y011248D02*
X017947Y011155D01*
X017844Y010874D01*
X017591Y010967D01*
X017694Y011248D01*
G37*
X019179Y008609D03*
X019599Y008609D03*
X017575Y005120D03*
X017155Y005120D03*
X016630Y005002D03*
X016210Y005002D03*
X015756Y005006D03*
X015336Y005006D03*
G36*
X013526Y006717D02*
X013640Y006474D01*
X013370Y006347D01*
X013256Y006590D01*
X013526Y006717D01*
G37*
G36*
X013349Y007098D02*
X013463Y006855D01*
X013193Y006728D01*
X013079Y006971D01*
X013349Y007098D01*
G37*
G36*
X003526Y006717D02*
X003640Y006474D01*
X003370Y006347D01*
X003256Y006590D01*
X003526Y006717D01*
G37*
G36*
X003349Y007098D02*
X003463Y006855D01*
X003193Y006728D01*
X003079Y006971D01*
X003349Y007098D01*
G37*
G36*
X023349Y007098D02*
X023463Y006855D01*
X023193Y006728D01*
X023079Y006971D01*
X023349Y007098D01*
G37*
G36*
X023526Y006717D02*
X023640Y006474D01*
X023370Y006347D01*
X023256Y006590D01*
X023526Y006717D01*
G37*
X025336Y005006D03*
X025756Y005006D03*
X026210Y005002D03*
X026630Y005002D03*
X027155Y005120D03*
X027575Y005120D03*
X029179Y008609D03*
X029599Y008609D03*
G36*
X027694Y011248D02*
X027947Y011155D01*
X027844Y010874D01*
X027591Y010967D01*
X027694Y011248D01*
G37*
G36*
X027300Y011392D02*
X027553Y011299D01*
X027450Y011018D01*
X027197Y011111D01*
X027300Y011392D01*
G37*
X026630Y015002D03*
X026210Y015002D03*
X025756Y015006D03*
X025336Y015006D03*
G36*
X023526Y016717D02*
X023640Y016474D01*
X023370Y016347D01*
X023256Y016590D01*
X023526Y016717D01*
G37*
G36*
X023349Y017098D02*
X023463Y016855D01*
X023193Y016728D01*
X023079Y016971D01*
X023349Y017098D01*
G37*
X027155Y015120D03*
X027575Y015120D03*
X029179Y018609D03*
X029599Y018609D03*
G36*
X027694Y021248D02*
X027947Y021155D01*
X027844Y020874D01*
X027591Y020967D01*
X027694Y021248D01*
G37*
G36*
X027300Y021392D02*
X027553Y021299D01*
X027450Y021018D01*
X027197Y021111D01*
X027300Y021392D01*
G37*
X026630Y025002D03*
X026210Y025002D03*
X025756Y025006D03*
X025336Y025006D03*
G36*
X023526Y026717D02*
X023640Y026474D01*
X023370Y026347D01*
X023256Y026590D01*
X023526Y026717D01*
G37*
G36*
X023349Y027098D02*
X023463Y026855D01*
X023193Y026728D01*
X023079Y026971D01*
X023349Y027098D01*
G37*
X027155Y025120D03*
X027575Y025120D03*
X029179Y028609D03*
X029599Y028609D03*
G36*
X027694Y031248D02*
X027947Y031155D01*
X027844Y030874D01*
X027591Y030967D01*
X027694Y031248D01*
G37*
G36*
X027300Y031392D02*
X027553Y031299D01*
X027450Y031018D01*
X027197Y031111D01*
X027300Y031392D01*
G37*
D11*
X028116Y028082D03*
X028372Y028082D03*
X028628Y028082D03*
X028884Y028082D03*
X028884Y026605D03*
X028628Y026605D03*
X028372Y026605D03*
X028116Y026605D03*
X028116Y018082D03*
X028372Y018082D03*
X028628Y018082D03*
X028884Y018082D03*
X028884Y016605D03*
X028628Y016605D03*
X028372Y016605D03*
X028116Y016605D03*
X028116Y008082D03*
X028372Y008082D03*
X028628Y008082D03*
X028884Y008082D03*
X028884Y006605D03*
X028628Y006605D03*
X028372Y006605D03*
X028116Y006605D03*
X018884Y006605D03*
X018628Y006605D03*
X018372Y006605D03*
X018116Y006605D03*
X018116Y008082D03*
X018372Y008082D03*
X018628Y008082D03*
X018884Y008082D03*
X018884Y016605D03*
X018628Y016605D03*
X018372Y016605D03*
X018116Y016605D03*
X018116Y018082D03*
X018372Y018082D03*
X018628Y018082D03*
X018884Y018082D03*
X018884Y026605D03*
X018628Y026605D03*
X018372Y026605D03*
X018116Y026605D03*
X018116Y028082D03*
X018372Y028082D03*
X018628Y028082D03*
X018884Y028082D03*
X008884Y028082D03*
X008628Y028082D03*
X008372Y028082D03*
X008116Y028082D03*
X008116Y026605D03*
X008372Y026605D03*
X008628Y026605D03*
X008884Y026605D03*
X008884Y018082D03*
X008628Y018082D03*
X008372Y018082D03*
X008116Y018082D03*
X008116Y016605D03*
X008372Y016605D03*
X008628Y016605D03*
X008884Y016605D03*
X008884Y008082D03*
X008628Y008082D03*
X008372Y008082D03*
X008116Y008082D03*
X008116Y006605D03*
X008372Y006605D03*
X008628Y006605D03*
X008884Y006605D03*
D12*
X009238Y006960D03*
X009238Y007216D03*
X009238Y007471D03*
X009238Y007727D03*
X007762Y007727D03*
X007762Y007471D03*
X007762Y007216D03*
X007762Y006960D03*
X007762Y016960D03*
X007762Y017216D03*
X007762Y017471D03*
X007762Y017727D03*
X009238Y017727D03*
X009238Y017471D03*
X009238Y017216D03*
X009238Y016960D03*
X017762Y016960D03*
X017762Y017216D03*
X017762Y017471D03*
X017762Y017727D03*
X019238Y017727D03*
X019238Y017471D03*
X019238Y017216D03*
X019238Y016960D03*
X027762Y016960D03*
X027762Y017216D03*
X027762Y017471D03*
X027762Y017727D03*
X029238Y017727D03*
X029238Y017471D03*
X029238Y017216D03*
X029238Y016960D03*
X029238Y007727D03*
X029238Y007471D03*
X029238Y007216D03*
X029238Y006960D03*
X027762Y006960D03*
X027762Y007216D03*
X027762Y007471D03*
X027762Y007727D03*
X019238Y007727D03*
X019238Y007471D03*
X019238Y007216D03*
X019238Y006960D03*
X017762Y006960D03*
X017762Y007216D03*
X017762Y007471D03*
X017762Y007727D03*
X017762Y026960D03*
X017762Y027216D03*
X017762Y027471D03*
X017762Y027727D03*
X019238Y027727D03*
X019238Y027471D03*
X019238Y027216D03*
X019238Y026960D03*
X027762Y026960D03*
X027762Y027216D03*
X027762Y027471D03*
X027762Y027727D03*
X029238Y027727D03*
X029238Y027471D03*
X029238Y027216D03*
X029238Y026960D03*
X009238Y026960D03*
X009238Y027216D03*
X009238Y027471D03*
X009238Y027727D03*
X007762Y027727D03*
X007762Y027471D03*
X007762Y027216D03*
X007762Y026960D03*
D13*
X008500Y027343D03*
X008500Y017343D03*
X008500Y007343D03*
X018500Y007343D03*
X018500Y017343D03*
X018500Y027343D03*
X028500Y027343D03*
X028500Y017343D03*
X028500Y007343D03*
D14*
X027084Y007524D03*
X026834Y007524D03*
X026584Y007524D03*
X026334Y007524D03*
X026084Y007524D03*
X025834Y007524D03*
X025834Y008424D03*
X026084Y008424D03*
X026334Y008424D03*
X026584Y008424D03*
X026834Y008424D03*
X027084Y008424D03*
X027084Y017524D03*
X026834Y017524D03*
X026584Y017524D03*
X026334Y017524D03*
X026084Y017524D03*
X025834Y017524D03*
X025834Y018424D03*
X026084Y018424D03*
X026334Y018424D03*
X026584Y018424D03*
X026834Y018424D03*
X027084Y018424D03*
X027084Y027524D03*
X026834Y027524D03*
X026584Y027524D03*
X026334Y027524D03*
X026084Y027524D03*
X025834Y027524D03*
X025834Y028424D03*
X026084Y028424D03*
X026334Y028424D03*
X026584Y028424D03*
X026834Y028424D03*
X027084Y028424D03*
X017084Y028424D03*
X016834Y028424D03*
X016584Y028424D03*
X016334Y028424D03*
X016084Y028424D03*
X015834Y028424D03*
X015834Y027524D03*
X016084Y027524D03*
X016334Y027524D03*
X016584Y027524D03*
X016834Y027524D03*
X017084Y027524D03*
X017084Y018424D03*
X016834Y018424D03*
X016584Y018424D03*
X016334Y018424D03*
X016084Y018424D03*
X015834Y018424D03*
X015834Y017524D03*
X016084Y017524D03*
X016334Y017524D03*
X016584Y017524D03*
X016834Y017524D03*
X017084Y017524D03*
X017084Y008424D03*
X016834Y008424D03*
X016584Y008424D03*
X016334Y008424D03*
X016084Y008424D03*
X015834Y008424D03*
X015834Y007524D03*
X016084Y007524D03*
X016334Y007524D03*
X016584Y007524D03*
X016834Y007524D03*
X017084Y007524D03*
X007084Y007524D03*
X006834Y007524D03*
X006584Y007524D03*
X006334Y007524D03*
X006084Y007524D03*
X005834Y007524D03*
X005834Y008424D03*
X006084Y008424D03*
X006334Y008424D03*
X006584Y008424D03*
X006834Y008424D03*
X007084Y008424D03*
X007084Y017524D03*
X006834Y017524D03*
X006584Y017524D03*
X006334Y017524D03*
X006084Y017524D03*
X005834Y017524D03*
X005834Y018424D03*
X006084Y018424D03*
X006334Y018424D03*
X006584Y018424D03*
X006834Y018424D03*
X007084Y018424D03*
X007084Y027524D03*
X006834Y027524D03*
X006584Y027524D03*
X006334Y027524D03*
X006084Y027524D03*
X005834Y027524D03*
X005834Y028424D03*
X006084Y028424D03*
X006334Y028424D03*
X006584Y028424D03*
X006834Y028424D03*
X007084Y028424D03*
D15*
X005285Y028181D03*
X005285Y027761D03*
X007964Y026144D03*
X008518Y026152D03*
X008518Y025732D03*
X007964Y025724D03*
X009059Y025728D03*
X009059Y026148D03*
X015285Y027761D03*
X015285Y028181D03*
X017964Y026144D03*
X017964Y025724D03*
X018518Y025732D03*
X019059Y025728D03*
X019059Y026148D03*
X018518Y026152D03*
X025285Y027761D03*
X025285Y028181D03*
X027964Y026144D03*
X027964Y025724D03*
X028518Y025732D03*
X028518Y026152D03*
X029059Y026148D03*
X029059Y025728D03*
X025285Y018181D03*
X025285Y017761D03*
X027964Y016144D03*
X027964Y015724D03*
X028518Y015732D03*
X028518Y016152D03*
X029059Y016148D03*
X029059Y015728D03*
X025285Y008181D03*
X025285Y007761D03*
X027964Y006144D03*
X027964Y005724D03*
X028518Y005732D03*
X028518Y006152D03*
X029059Y006148D03*
X029059Y005728D03*
X019059Y005728D03*
X019059Y006148D03*
X018518Y006152D03*
X018518Y005732D03*
X017964Y005724D03*
X017964Y006144D03*
X015285Y007761D03*
X015285Y008181D03*
X009059Y006148D03*
X009059Y005728D03*
X008518Y005732D03*
X008518Y006152D03*
X007964Y006144D03*
X007964Y005724D03*
X005285Y007761D03*
X005285Y008181D03*
X007964Y015724D03*
X008518Y015732D03*
X008518Y016152D03*
X007964Y016144D03*
X009059Y016148D03*
X009059Y015728D03*
X005285Y017761D03*
X005285Y018181D03*
X015285Y018181D03*
X015285Y017761D03*
X017964Y016144D03*
X017964Y015724D03*
X018518Y015732D03*
X019059Y015728D03*
X019059Y016148D03*
X018518Y016152D03*
D16*
X016139Y019903D03*
X015459Y019903D03*
X006139Y019903D03*
X005459Y019903D03*
X005459Y009903D03*
X006139Y009903D03*
X015459Y009903D03*
X016139Y009903D03*
X025459Y009903D03*
X026139Y009903D03*
X026139Y019903D03*
X025459Y019903D03*
X025459Y029903D03*
X026139Y029903D03*
X016139Y029903D03*
X015459Y029903D03*
X006139Y029903D03*
X005459Y029903D03*
D17*
G36*
X004343Y005633D02*
X004675Y005301D01*
X004453Y005079D01*
X004121Y005411D01*
X004343Y005633D01*
G37*
G36*
X003786Y006189D02*
X004118Y005857D01*
X003896Y005635D01*
X003564Y005967D01*
X003786Y006189D01*
G37*
G36*
X008466Y010869D02*
X008798Y010537D01*
X008576Y010315D01*
X008244Y010647D01*
X008466Y010869D01*
G37*
G36*
X009023Y010313D02*
X009355Y009981D01*
X009133Y009759D01*
X008801Y010091D01*
X009023Y010313D01*
G37*
G36*
X013786Y006189D02*
X014118Y005857D01*
X013896Y005635D01*
X013564Y005967D01*
X013786Y006189D01*
G37*
G36*
X014343Y005633D02*
X014675Y005301D01*
X014453Y005079D01*
X014121Y005411D01*
X014343Y005633D01*
G37*
G36*
X019023Y010313D02*
X019355Y009981D01*
X019133Y009759D01*
X018801Y010091D01*
X019023Y010313D01*
G37*
G36*
X018466Y010869D02*
X018798Y010537D01*
X018576Y010315D01*
X018244Y010647D01*
X018466Y010869D01*
G37*
G36*
X014343Y015633D02*
X014675Y015301D01*
X014453Y015079D01*
X014121Y015411D01*
X014343Y015633D01*
G37*
G36*
X013786Y016189D02*
X014118Y015857D01*
X013896Y015635D01*
X013564Y015967D01*
X013786Y016189D01*
G37*
G36*
X009023Y020313D02*
X009355Y019981D01*
X009133Y019759D01*
X008801Y020091D01*
X009023Y020313D01*
G37*
G36*
X008466Y020869D02*
X008798Y020537D01*
X008576Y020315D01*
X008244Y020647D01*
X008466Y020869D01*
G37*
G36*
X004343Y025633D02*
X004675Y025301D01*
X004453Y025079D01*
X004121Y025411D01*
X004343Y025633D01*
G37*
G36*
X003786Y026189D02*
X004118Y025857D01*
X003896Y025635D01*
X003564Y025967D01*
X003786Y026189D01*
G37*
G36*
X008466Y030869D02*
X008798Y030537D01*
X008576Y030315D01*
X008244Y030647D01*
X008466Y030869D01*
G37*
G36*
X009023Y030313D02*
X009355Y029981D01*
X009133Y029759D01*
X008801Y030091D01*
X009023Y030313D01*
G37*
G36*
X013786Y026189D02*
X014118Y025857D01*
X013896Y025635D01*
X013564Y025967D01*
X013786Y026189D01*
G37*
G36*
X014343Y025633D02*
X014675Y025301D01*
X014453Y025079D01*
X014121Y025411D01*
X014343Y025633D01*
G37*
G36*
X019023Y030313D02*
X019355Y029981D01*
X019133Y029759D01*
X018801Y030091D01*
X019023Y030313D01*
G37*
G36*
X018466Y030869D02*
X018798Y030537D01*
X018576Y030315D01*
X018244Y030647D01*
X018466Y030869D01*
G37*
G36*
X023786Y026189D02*
X024118Y025857D01*
X023896Y025635D01*
X023564Y025967D01*
X023786Y026189D01*
G37*
G36*
X024343Y025633D02*
X024675Y025301D01*
X024453Y025079D01*
X024121Y025411D01*
X024343Y025633D01*
G37*
G36*
X028466Y030869D02*
X028798Y030537D01*
X028576Y030315D01*
X028244Y030647D01*
X028466Y030869D01*
G37*
G36*
X029023Y030313D02*
X029355Y029981D01*
X029133Y029759D01*
X028801Y030091D01*
X029023Y030313D01*
G37*
G36*
X028466Y020869D02*
X028798Y020537D01*
X028576Y020315D01*
X028244Y020647D01*
X028466Y020869D01*
G37*
G36*
X029023Y020313D02*
X029355Y019981D01*
X029133Y019759D01*
X028801Y020091D01*
X029023Y020313D01*
G37*
G36*
X024343Y015633D02*
X024675Y015301D01*
X024453Y015079D01*
X024121Y015411D01*
X024343Y015633D01*
G37*
G36*
X023786Y016189D02*
X024118Y015857D01*
X023896Y015635D01*
X023564Y015967D01*
X023786Y016189D01*
G37*
G36*
X019023Y020313D02*
X019355Y019981D01*
X019133Y019759D01*
X018801Y020091D01*
X019023Y020313D01*
G37*
G36*
X018466Y020869D02*
X018798Y020537D01*
X018576Y020315D01*
X018244Y020647D01*
X018466Y020869D01*
G37*
G36*
X028466Y010869D02*
X028798Y010537D01*
X028576Y010315D01*
X028244Y010647D01*
X028466Y010869D01*
G37*
G36*
X029023Y010313D02*
X029355Y009981D01*
X029133Y009759D01*
X028801Y010091D01*
X029023Y010313D01*
G37*
G36*
X024343Y005633D02*
X024675Y005301D01*
X024453Y005079D01*
X024121Y005411D01*
X024343Y005633D01*
G37*
G36*
X023786Y006189D02*
X024118Y005857D01*
X023896Y005635D01*
X023564Y005967D01*
X023786Y006189D01*
G37*
G36*
X004343Y015633D02*
X004675Y015301D01*
X004453Y015079D01*
X004121Y015411D01*
X004343Y015633D01*
G37*
G36*
X003786Y016189D02*
X004118Y015857D01*
X003896Y015635D01*
X003564Y015967D01*
X003786Y016189D01*
G37*
M02*
